<?xml version="1.0" standalone="no"?>
<!DOCTYPE svg PUBLIC "-//W3C//DTD SVG 1.1//EN" "http://www.w3.org/Graphics/SVG/1.1/DTD/svg11.dtd" >
<svg xmlns="http://www.w3.org/2000/svg" xmlns:xlink="http://www.w3.org/1999/xlink" version="1.1">
<metadata>
Created by FontForge 20170731 at Fri Jun  7 00:28:25 2019
 By Aleksey,,,
(C) 2015-2019 Frere-Jones Type LLC
</metadata>
<defs>
<font id="Mallory-Thin" horiz-adv-x="600" >
  <font-face 
    font-family="Mallory Thin"
    font-weight="250"
    font-stretch="normal"
    units-per-em="1000"
    panose-1="2 1 2 2 3 5 1 2 3 4"
    ascent="800"
    descent="-200"
    x-height="484"
    cap-height="700"
    bbox="-202 -269 1360 1093"
    underline-thickness="0"
    underline-position="0"
    unicode-range="U+0020-FB04"
  />
<missing-glyph horiz-adv-x="700" 
d="M600 -240h-500v1200h500v-1200zM507 910h-315l158 -481zM550 874l-172 -514l172 -514v1028zM150 -154l171 514l-171 514v-1028zM507 -190l-157 481l-158 -481h315z" />
    <glyph glyph-name="f_f" unicode="ff" horiz-adv-x="708" 
d="M338 484v-27h-174v-457h-29v457h-93v27h93v113q0 70 36 111t97 41q21 0 41 -6t41 -19l6 -33l-2 -1q-26 18 -45.5 25t-41.5 7q-48 0 -75.5 -33t-27.5 -90v-115h174zM692 484v-27h-174v-457h-29v457h-93v27h93v113q0 70 36 111t97 41q21 0 41 -6t41 -19l6 -33l-2 -1
q-26 18 -45.5 25t-41.5 7q-48 0 -75.5 -33t-27.5 -90v-115h174z" />
    <glyph glyph-name="fi" unicode="fi" horiz-adv-x="591" 
d="M338 484v-27h-174v-457h-29v457h-93v27h93v113q0 70 36 111t97 41q21 0 41 -6t41 -19l6 -33l-2 -1q-26 18 -45.5 25t-41.5 7q-48 0 -75.5 -33t-27.5 -90v-115h174zM473 684q12 0 19.5 -8.5t7.5 -20.5t-8 -20.5t-20 -8.5t-19.5 8.5t-7.5 20.5t8 20.5t20 8.5zM487 0h-29
v484h29v-484z" />
    <glyph glyph-name="fl" unicode="fl" horiz-adv-x="591" 
d="M338 484v-27h-174v-457h-29v457h-93v27h93v113q0 70 36 111t97 41q21 0 41 -6t41 -19l6 -33l-2 -1q-26 18 -45.5 25t-41.5 7q-48 0 -75.5 -33t-27.5 -90v-115h174zM487 0h-29v735l29 15v-750z" />
    <glyph glyph-name="f_f_i" unicode="ffi" horiz-adv-x="945" 
d="M338 484v-27h-174v-457h-29v457h-93v27h93v113q0 70 36 111t97 41q21 0 41 -6t41 -19l6 -33l-2 -1q-26 18 -45.5 25t-41.5 7q-48 0 -75.5 -33t-27.5 -90v-115h174zM692 484v-27h-174v-457h-29v457h-93v27h93v113q0 70 36 111t97 41q21 0 41 -6t41 -19l6 -33l-2 -1
q-26 18 -45.5 25t-41.5 7q-48 0 -75.5 -33t-27.5 -90v-115h174zM827 684q12 0 19.5 -8.5t7.5 -20.5t-8 -20.5t-20 -8.5t-19.5 8.5t-7.5 20.5t8 20.5t20 8.5zM841 0h-29v484h29v-484z" />
    <glyph glyph-name="f_f_l" unicode="ffl" horiz-adv-x="945" 
d="M338 484v-27h-174v-457h-29v457h-93v27h93v113q0 70 36 111t97 41q21 0 41 -6t41 -19l6 -33l-2 -1q-26 18 -45.5 25t-41.5 7q-48 0 -75.5 -33t-27.5 -90v-115h174zM692 484v-27h-174v-457h-29v457h-93v27h93v113q0 70 36 111t97 41q21 0 41 -6t41 -19l6 -33l-2 -1
q-26 18 -45.5 25t-41.5 7q-48 0 -75.5 -33t-27.5 -90v-115h174zM841 0h-29v735l29 15v-750z" />
    <glyph glyph-name=".notdef" horiz-adv-x="700" 
d="M600 -240h-500v1200h500v-1200zM507 910h-315l158 -481zM550 874l-172 -514l172 -514v1028zM150 -154l171 514l-171 514v-1028zM507 -190l-157 481l-158 -481h315z" />
    <glyph glyph-name="uni0000" horiz-adv-x="0" 
 />
    <glyph glyph-name="uni0000" horiz-adv-x="0" 
 />
    <glyph glyph-name="nonmarkingreturn" horiz-adv-x="333" 
 />
    <glyph glyph-name="space" unicode=" " horiz-adv-x="220" 
 />
    <glyph glyph-name="exclam" unicode="!" horiz-adv-x="238" 
d="M134 700v-167l-7 -360h-16l-7 360v167h30zM119 -5q-13 0 -22 9t-9 22t9 22t22 9t22 -9t9 -22t-8.5 -22t-22.5 -9z" />
    <glyph glyph-name="quotedbl" unicode="&#x22;" horiz-adv-x="326" 
d="M47 464l81 236h39l-104 -241zM189 464l81 236h39l-103 -241z" />
    <glyph glyph-name="numbersign" unicode="#" horiz-adv-x="670" 
d="M397 -2h-27l49 208h-226l-49 -208h-27l49 208h-136v28h142l55 232h-147v28h153l49 208h27l-49 -208h226l49 208h27l-49 -208h127v-28h-133l-55 -232h138v-28h-144zM254 466l-55 -232h226l55 232h-226z" />
    <glyph glyph-name="dollar" unicode="$" horiz-adv-x="568" 
d="M510 174q0 -78 -62.5 -127t-157.5 -49h-8.5h-8.5l-13 -133h-27l14 135q-52 6 -102.5 25.5t-89.5 47.5l-9 38l2 1q44 -35 95.5 -57t106.5 -28l31 318q-114 37 -160 80.5t-46 110.5q0 74 58 120t150 46h19.5t11.5 -1l12 122h27l-13 -126q36 -6 71.5 -20.5t70.5 -37.5v-33
h-2q-36 26 -71 42t-72 22l-29 -304q111 -37 156.5 -81.5t45.5 -110.5zM281 675q-77 0 -127.5 -38t-50.5 -98q0 -56 40.5 -93.5t139.5 -71.5l29 300h-6h-9q-6 1 -9.5 1h-6.5zM291 25q83 0 137 41t54 105q0 57 -40 95t-137 71l-30 -312h8h8z" />
    <glyph glyph-name="percent" unicode="%" horiz-adv-x="913" 
d="M374 518q0 -86 -43.5 -142t-112.5 -56t-112.5 55.5t-43.5 141.5t44 141.5t113 55.5q68 0 111.5 -55.5t43.5 -140.5zM236 -2h-33l242 359l230 345h33l-242 -359zM219 686q-54 0 -91 -48.5t-37 -120.5q0 -73 36.5 -121t93.5 -48q54 0 89 48t35 120q0 74 -35.5 122t-90.5 48
zM539 182q0 86 43.5 142t112.5 56t112.5 -55.5t43.5 -141.5t-44 -141.5t-113 -55.5q-68 0 -111.5 55.5t-43.5 140.5zM694 14q54 0 91 48.5t37 120.5q0 73 -36.5 121t-93.5 48q-54 0 -89 -48t-35 -120q0 -74 35.5 -122t90.5 -48z" />
    <glyph glyph-name="ampersand" unicode="&#x26;" horiz-adv-x="663" 
d="M638 0h-40q-38 33 -75 65.5t-70 64.5q-66 -73 -122 -105.5t-115 -32.5q-74 0 -123 45t-49 113q0 57 39.5 102.5t157.5 108.5q-52 65 -72.5 109t-20.5 89q0 66 49 110.5t119 44.5q63 0 107 -42t44 -103q0 -59 -46 -112.5t-138 -101.5q35 -43 76.5 -88t92.5 -95
q20 26 45.5 59t85.5 114h36v-2q-2 -2 -58 -77t-89 -113q36 -34 76.5 -71.5t89.5 -79.5v-2zM314 686q-56 0 -96 -36t-40 -88q0 -43 19.5 -83t69.5 -103q87 47 128.5 93.5t41.5 97.5q0 50 -36 84.5t-87 34.5zM257 341q-104 -54 -143.5 -96.5t-39.5 -92.5q0 -57 41.5 -94.5
t103.5 -37.5q53 0 102.5 30t111.5 100q-48 46 -92 93.5t-84 97.5z" />
    <glyph glyph-name="quotesingle" unicode="'" horiz-adv-x="184" 
d="M47 464l81 236h39l-104 -241z" />
    <glyph glyph-name="parenleft" unicode="(" horiz-adv-x="380" 
d="M116 305q0 -123 51.5 -222.5t175.5 -205.5l-14 -16q-130 104 -185.5 208.5t-55.5 235.5t55.5 235.5t185.5 208.5l14 -16q-124 -106 -175.5 -205.5t-51.5 -222.5z" />
    <glyph glyph-name="parenright" unicode=")" horiz-adv-x="380" 
d="M264 305q0 123 -51.5 222.5t-175.5 205.5l14 16q130 -104 185.5 -208.5t55.5 -235.5t-55.5 -235.5t-185.5 -208.5l-14 16q124 106 175.5 205.5t51.5 222.5z" />
    <glyph glyph-name="asterisk" unicode="*" horiz-adv-x="532" 
d="M246 704h40l-15 -182h-10zM228 489l-173 43l11 41l165 -75zM466 573l11 -41l-173 -43l-3 9zM249 449l-92 -145l-33 22l117 129zM408 326l-33 -22l-92 145l8 6z" />
    <glyph glyph-name="plus" unicode="+" 
d="M550 374v-28h-235v-237h-29v237h-236v28h236v236h29v-236h235z" />
    <glyph glyph-name="comma" unicode="," horiz-adv-x="148" 
d="M-2 -154l-12 12q49 57 63 92t14 94v26h34q0 -70 -21.5 -120t-77.5 -104z" />
    <glyph glyph-name="hyphen" unicode="-" horiz-adv-x="343" 
d="M55 253v28h233v-28h-233z" />
    <glyph glyph-name="period" unicode="." horiz-adv-x="148" 
d="M74 -5q-13 0 -22 9t-9 22t9 22t22 9t22 -9t9 -22t-8.5 -22t-22.5 -9z" />
    <glyph glyph-name="slash" unicode="/" horiz-adv-x="416" 
d="M22 -130h-28l358 870h28z" />
    <glyph glyph-name="zero" unicode="0" horiz-adv-x="641" 
d="M70 349q0 161 70 263t181 102t180.5 -101.5t69.5 -261.5q0 -161 -70 -263t-181 -102t-180.5 101.5t-69.5 261.5zM100 351q0 -149 61.5 -243t160.5 -94q96 0 157.5 94.5t61.5 240.5q0 148 -62 242.5t-160 94.5q-96 0 -157.5 -94t-61.5 -241z" />
    <glyph glyph-name="one" unicode="1" horiz-adv-x="405" 
d="M42 527l-1 1v32l209 149l10 -3v-706h-30v661z" />
    <glyph glyph-name="two" unicode="2" horiz-adv-x="564" 
d="M112 28h402l-16 -28h-433l-3 12l269 301q62 70 87.5 119.5t25.5 102.5q0 64 -43.5 106t-111.5 42q-62 0 -116.5 -38t-98.5 -111l-2 1l-6 35q43 70 99.5 105.5t124.5 35.5q80 0 132 -49t52 -125q0 -59 -26 -110.5t-94 -128.5z" />
    <glyph glyph-name="three" unicode="3" horiz-adv-x="551" 
d="M265 363q103 -18 158 -69.5t55 -125.5q0 -77 -62.5 -128t-150.5 -51q-53 0 -102 15t-102 49l-7 39l2 1q55 -39 106 -57.5t104 -18.5q76 0 129 43t53 109q0 76 -72 125t-198 55v19q125 20 192.5 68t67.5 116q0 57 -44.5 94.5t-111.5 37.5q-49 0 -99 -19t-103 -58h-2v35
q53 36 102.5 53t102.5 17q80 0 132.5 -45t52.5 -113q0 -67 -51.5 -115.5t-151.5 -75.5z" />
    <glyph glyph-name="four" unicode="4" horiz-adv-x="610" 
d="M421 191h-372l-3 11l384 503h20v-488h122v-26h-122v-191h-29v191zM421 650l-333 -433h333v433z" />
    <glyph glyph-name="five" unicode="5" horiz-adv-x="567" 
d="M286 419q98 0 160.5 -58t62.5 -151q0 -96 -69 -159t-174 -63q-53 0 -100 13.5t-91 40.5l-8 38l2 1q51 -35 97.5 -50t101.5 -15q90 0 150.5 55t60.5 137q0 83 -54.5 133t-141.5 50q-47 0 -93 -13t-88 -37l-11 6l25 353h368v-28h-340l-21 -290q43 20 82 28.5t81 8.5z" />
    <glyph glyph-name="six" unicode="6" horiz-adv-x="565" 
d="M285 424q99 0 163 -58.5t64 -152.5q0 -96 -65 -161.5t-163 -65.5q-101 0 -161.5 63.5t-60.5 170.5q0 74 33.5 149t117.5 184l114 147h37l-127 -165q-35 -46 -56.5 -78t-35.5 -58q35 12 70.5 18.5t69.5 6.5zM128 365q-18 -38 -26.5 -73t-8.5 -71q0 -95 52 -150.5
t141 -55.5q85 0 140.5 56.5t55.5 138.5q0 86 -56.5 136t-148.5 50q-34 0 -74 -8.5t-75 -22.5z" />
    <glyph glyph-name="seven" unicode="7" horiz-adv-x="534" 
d="M493 700l2 -9l-323 -691h-34l316 672h-408l-9 28h456z" />
    <glyph glyph-name="eight" unicode="8" horiz-adv-x="595" 
d="M375 356q70 -21 112.5 -70t42.5 -112q0 -79 -67.5 -132.5t-165.5 -53.5t-165 53.5t-67 132.5q0 62 43 111t113 70q-62 21 -100.5 69t-38.5 106q0 76 62.5 129t153.5 53q90 0 152.5 -53t62.5 -129q0 -58 -38 -105.5t-100 -68.5zM296 684q-77 0 -130.5 -45t-53.5 -110
q0 -66 56 -113.5t130 -47.5t129.5 47.5t55.5 112.5q0 66 -54 111t-133 45zM297 342q-80 0 -141 -48t-61 -115q0 -70 59.5 -116.5t144.5 -46.5q84 0 142.5 46.5t58.5 116.5q0 67 -61.5 115t-141.5 48z" />
    <glyph glyph-name="nine" unicode="9" horiz-adv-x="565" 
d="M503 480q0 -74 -33.5 -149t-117.5 -184l-114 -147h-37l127 165q32 43 52.5 73t35.5 56q-33 -12 -67.5 -18t-68.5 -6q-99 0 -163 59.5t-64 154.5q0 97 64.5 163.5t163.5 66.5q101 0 161.5 -63.5t60.5 -170.5zM279 685q-85 0 -140.5 -57.5t-55.5 -140.5q0 -87 56.5 -138
t148.5 -51q33 0 71 7.5t75 21.5q20 41 29 78t9 74q0 95 -52 150.5t-141 55.5z" />
    <glyph glyph-name="colon" unicode=":" horiz-adv-x="160" 
d="M80 427q-13 0 -22 9t-9 22t9 22t22 9t22 -9t9 -22t-8.5 -22t-22.5 -9zM80 -5q-13 0 -22 9t-9 22t9 22t22 9t22 -9t9 -22t-8.5 -22t-22.5 -9z" />
    <glyph glyph-name="semicolon" unicode=";" horiz-adv-x="160" 
d="M82 427q-13 0 -22 9t-9 22t9 22t22 9t22 -9t9 -22t-8.5 -22t-22.5 -9zM3 -154l-12 12q49 57 63 92t14 94v26h34q0 -70 -21.5 -120t-77.5 -104z" />
    <glyph glyph-name="less" unicode="&#x3c;" 
d="M118 360l392 -223v-30l-430 243v20l430 243v-30z" />
    <glyph glyph-name="equal" unicode="=" 
d="M540 474v-28h-480v28h480zM540 274v-28h-480v28h480z" />
    <glyph glyph-name="greater" unicode="&#x3e;" 
d="M520 370v-20l-430 -243v30l392 223l-392 223v30z" />
    <glyph glyph-name="question" unicode="?" horiz-adv-x="480" 
d="M40 562v40q47 54 99.5 81t111.5 27q71 0 120.5 -43.5t49.5 -106.5q0 -43 -26 -80.5t-95 -86.5q-62 -44 -82.5 -68.5t-20.5 -52.5q0 -18 8 -38.5t26 -48.5h-20q-27 36 -35 55t-8 41q0 31 23.5 60t88.5 74q66 47 88.5 77.5t22.5 67.5q0 51 -42 86.5t-100 35.5
q-55 0 -108.5 -31t-98.5 -89h-2zM220 -5q-13 0 -22 9t-9 22t9 22t22 9t22 -9t9 -22t-8.5 -22t-22.5 -9z" />
    <glyph glyph-name="at" unicode="@" horiz-adv-x="1075" 
d="M762 -113v-26q-69 -24 -132 -35t-131 -11q-195 0 -308 108.5t-113 292.5q0 104 40 200.5t113 171.5q75 76 170.5 116.5t200.5 40.5q182 0 292 -102t110 -273q0 -130 -65 -218t-159 -88q-50 0 -80 30t-30 79v0q-49 -54 -102 -81.5t-109 -27.5q-64 0 -105 42.5t-41 110.5
q0 113 80 197t190 84q39 0 76.5 -14t71.5 -42l24 49l12 -3l-62 -273q-3 -12 -4 -22t-1 -19q0 -40 21.5 -62.5t60.5 -22.5q81 0 138.5 82t57.5 199q0 162 -102.5 256.5t-274.5 94.5q-99 0 -189.5 -39t-161.5 -111q-70 -71 -108 -163t-38 -190q0 -174 106 -276t289 -102
q70 0 133.5 11.5t129.5 35.5zM578 471q-94 0 -164.5 -75.5t-70.5 -175.5q0 -60 34 -94.5t92 -34.5q49 0 102 30t103 86v1l47 209q-29 26 -66 40t-77 14z" />
    <glyph glyph-name="A" unicode="A" horiz-adv-x="768" 
d="M73 0h-31l326 707h32l326 -707h-34l-96 209h-427zM383 676l-201 -439h402z" />
    <glyph glyph-name="B" unicode="B" horiz-adv-x="592" 
d="M372 362q73 -14 116 -61.5t43 -112.5q0 -84 -61 -136t-161 -52h-196v700h182q90 0 144.5 -48t54.5 -128q0 -57 -32.5 -99.5t-89.5 -62.5zM293 672h-150v-301h148q75 0 124 42.5t49 108.5q0 68 -46.5 109t-124.5 41zM143 343v-315h166q87 0 139.5 44t52.5 115
q0 68 -54.5 112t-132.5 44h-171z" />
    <glyph glyph-name="C" unicode="C" horiz-adv-x="740" 
d="M408 -12q-69 0 -133.5 28.5t-113.5 79.5q-46 50 -71 115t-25 138q0 151 104 257t250 106q73 0 140 -28.5t112 -77.5v-37l-2 -1q-53 57 -117 86.5t-135 29.5q-63 0 -122.5 -26.5t-105.5 -74.5q-45 -47 -69.5 -107t-24.5 -125q0 -67 23 -127t66 -106q44 -49 103.5 -75.5
t122.5 -26.5q75 0 142.5 32t123.5 93l2 -1l-6 -41q-52 -54 -120 -82.5t-144 -28.5z" />
    <glyph glyph-name="D" unicode="D" horiz-adv-x="780" 
d="M325 0h-212v700h212q175 0 282.5 -95.5t107.5 -252.5q0 -160 -108 -256t-282 -96zM685 349q0 147 -100.5 235t-261.5 88h-180v-644h184q157 0 257.5 88.5t100.5 232.5z" />
    <glyph glyph-name="E" unicode="E" horiz-adv-x="549" 
d="M483 0h-370v700h367l14 -28h-351v-302h303v-28h-303v-314h354z" />
    <glyph glyph-name="F" unicode="F" horiz-adv-x="528" 
d="M427 356v-28h-284v-328h-30v700h378l-14 -28h-334v-316h284z" />
    <glyph glyph-name="G" unicode="G" horiz-adv-x="790" 
d="M684 342v-280q-73 -40 -131 -56t-125 -16q-157 0 -260 99t-103 256q0 160 107.5 263t270.5 103q63 0 123.5 -18.5t109.5 -52.5v-34h-2q-52 37 -111.5 57t-121.5 20q-147 0 -246.5 -96t-99.5 -240q0 -147 95.5 -238t241.5 -91q60 0 112 14t111 47v235h-257v28h286z" />
    <glyph glyph-name="H" unicode="H" horiz-adv-x="812" 
d="M699 0h-30v346h-526v-346h-30v700h30v-326h526v326h30v-700z" />
    <glyph glyph-name="I" unicode="I" horiz-adv-x="266" 
d="M148 0h-30v700h30v-700z" />
    <glyph glyph-name="J" unicode="J" horiz-adv-x="444" 
d="M174 19q55 0 88.5 37.5t33.5 98.5v545h30v-545q0 -73 -42 -118.5t-111 -45.5q-34 0 -64 11.5t-61 35.5l-8 41l2 1q32 -30 65 -45.5t67 -15.5z" />
    <glyph glyph-name="K" unicode="K" horiz-adv-x="665" 
d="M632 0h-44l-396 346h-49v-346h-30v700h30v-326h52l388 326h42v-2l-405 -338l412 -358v-2z" />
    <glyph glyph-name="L" unicode="L" horiz-adv-x="511" 
d="M487 0h-374v700h30v-672h344v-28z" />
    <glyph glyph-name="M" unicode="M" horiz-adv-x="1000" 
d="M113 700h39l348 -661l348 661h39v-700h-30v655l-353 -665h-10l-353 666v-656h-28v700z" />
    <glyph glyph-name="N" unicode="N" horiz-adv-x="828" 
d="M142 0h-29v700h29l544 -639v639h29v-702h-12l-561 658v-656z" />
    <glyph glyph-name="O" unicode="O" horiz-adv-x="850" 
d="M424 -14q-149 0 -254 106t-105 257q0 152 105.5 258.5t255.5 106.5q149 0 254 -106t105 -257q0 -152 -105.5 -258.5t-255.5 -106.5zM424 686q-135 0 -232 -98.5t-97 -236.5q0 -141 97 -239t234 -98q135 0 232 98.5t97 236.5q0 141 -97 239t-234 98z" />
    <glyph glyph-name="P" unicode="P" horiz-adv-x="549" 
d="M503 504q0 -91 -62.5 -145.5t-164.5 -54.5h-133v-304h-30v700h174q96 0 156 -54t60 -142zM473 502q0 77 -52.5 123.5t-136.5 46.5h-141v-340h136q87 0 140.5 46t53.5 124z" />
    <glyph glyph-name="Q" unicode="Q" horiz-adv-x="850" 
d="M757 -135l-8 -26q-23 -4 -41.5 -6t-35.5 -2q-85 0 -147.5 38t-105.5 117q-147 2 -250.5 107.5t-103.5 255.5q0 152 105.5 258.5t255.5 106.5q149 0 254 -106t105 -257q0 -143 -94 -247t-234 -117q39 -67 91 -97.5t127 -30.5q17 0 38 2t42 6zM755 349q0 141 -97 239
t-234 98q-135 0 -232 -98.5t-97 -236.5q0 -141 97 -239t234 -98q135 0 232 98.5t97 236.5z" />
    <glyph glyph-name="R" unicode="R" horiz-adv-x="598" 
d="M597 0h-40l-282 308h-132v-308h-30v700h173q97 0 156.5 -52t59.5 -141q0 -76 -54.5 -131t-136.5 -66zM472 507q0 75 -51.5 120t-136.5 45h-141v-336h137q79 0 135.5 49t56.5 122z" />
    <glyph glyph-name="S" unicode="S" horiz-adv-x="558" 
d="M273 342q-115 54 -153.5 96.5t-38.5 100.5q0 75 56 124t139 49q50 0 92.5 -13t89.5 -45v-35h-2q-43 34 -87 49.5t-95 15.5q-68 0 -115.5 -41t-47.5 -102q0 -47 35 -83.5t144 -88.5q114 -54 154 -98.5t40 -104.5q0 -76 -60 -127t-143 -51q-59 0 -115.5 22t-99.5 62l-11 47
l2 1q48 -51 105.5 -77.5t119.5 -26.5q69 0 120.5 43t51.5 105q0 51 -38 90t-143 88z" />
    <glyph glyph-name="T" unicode="T" horiz-adv-x="688" 
d="M659 700v-28h-300v-672h-30v672h-300v28h630z" />
    <glyph glyph-name="U" unicode="U" horiz-adv-x="778" 
d="M389 -12q-130 0 -207.5 79t-77.5 212v421h30v-425q0 -118 70 -188.5t186 -70.5q115 0 185 71t70 190v423h29v-420q0 -134 -77.5 -213t-207.5 -79z" />
    <glyph glyph-name="V" unicode="V" horiz-adv-x="765" 
d="M691 700h32l-336 -712h-10l-335 712h34l308 -657z" />
    <glyph glyph-name="W" unicode="W" horiz-adv-x="1190" 
d="M1110 700h30l-254 -708h-29l-262 648l-262 -648h-29l-254 708h32l238 -669l271 670h10l271 -670z" />
    <glyph glyph-name="X" unicode="X" horiz-adv-x="717" 
d="M670 0h-39l-273 335l-274 -335h-37l291 356l-283 344h39l265 -324l266 324h37l-283 -345z" />
    <glyph glyph-name="Y" unicode="Y" horiz-adv-x="648" 
d="M584 700h35l-278 -374v-326h-30v323l-282 377h37l259 -349z" />
    <glyph glyph-name="Z" unicode="Z" horiz-adv-x="700" 
d="M108 28h539l-16 -28h-576l-2 6l531 666h-496v28h548l2 -6z" />
    <glyph glyph-name="bracketleft" unicode="[" horiz-adv-x="392" 
d="M334 -130h-211v870h211l13 -25h-194v-820h194z" />
    <glyph glyph-name="backslash" unicode="\" horiz-adv-x="416" 
d="M64 740l358 -870h-28l-358 870h28z" />
    <glyph glyph-name="bracketright" unicode="]" horiz-adv-x="392" 
d="M58 740h211v-870h-211l-13 25h194v820h-194z" />
    <glyph glyph-name="asciicircum" unicode="^" 
d="M540 335h-30l-210 357l-210 -357h-30l230 390h20z" />
    <glyph glyph-name="underscore" unicode="_" 
d="M-2 -118v28h604v-28h-604z" />
    <glyph glyph-name="grave" unicode="`" horiz-adv-x="500" 
d="M125 736h39l101 -151h-18z" />
    <glyph glyph-name="a" unicode="a" horiz-adv-x="554" 
d="M456 9l-29 -15v99q-71 -56 -123.5 -80t-103.5 -24q-62 0 -103 34.5t-41 89.5q0 85 90 125.5t281 45.5v28q0 75 -37.5 116t-106.5 41q-45 0 -90.5 -18t-92.5 -55l-2 1l7 37q45 31 89.5 46.5t91.5 15.5q79 0 124.5 -48.5t45.5 -133.5v-305zM85 114q0 -43 33.5 -70t83.5 -27
q47 0 101.5 25.5t123.5 79.5v136q-176 -5 -259 -39.5t-83 -104.5z" />
    <glyph glyph-name="b" unicode="b" horiz-adv-x="615" 
d="M327 494q97 0 164 -69.5t67 -176.5q0 -111 -69 -184t-174 -73q-47 0 -94.5 20t-93.5 59l-13 -70h-15v735l29 15v-353q48 50 96.5 73.5t102.5 23.5zM529 248q0 95 -60 157t-145 62q-49 0 -97 -24.5t-99 -75.5v-265q49 -42 96 -63t91 -21q90 0 152 67t62 163z" />
    <glyph glyph-name="c" unicode="c" horiz-adv-x="537" 
d="M485 90l-8 -37q-43 -33 -87.5 -49t-91.5 -16q-104 0 -173 72.5t-69 181.5q0 106 72.5 180.5t177.5 74.5q48 0 92 -16.5t81 -49.5v-34h-2q-37 36 -81 54.5t-91 18.5q-92 0 -156 -66.5t-64 -159.5q0 -99 60.5 -164t154.5 -65q45 0 90.5 19t92.5 57z" />
    <glyph glyph-name="d" unicode="d" horiz-adv-x="615" 
d="M516 0h-29v87q-48 -50 -96.5 -73.5t-102.5 -23.5q-97 0 -164 69.5t-67 176.5q0 111 69 184t174 73q47 0 93.5 -19.5t93.5 -58.5v320l29 15v-750zM300 466q-90 0 -152 -67t-62 -163q0 -95 60 -157t145 -62q49 0 97 24.5t99 75.5v265q-49 42 -96 63t-91 21z" />
    <glyph glyph-name="e" unicode="e" horiz-adv-x="555" 
d="M479 78l-12 -38q-42 -26 -84 -38.5t-85 -12.5q-108 0 -175 70.5t-67 186.5q0 106 65 179t162 73q98 0 157 -69t59 -178v-14.5t-1 -8.5h-412q6 -97 64.5 -154.5t149.5 -57.5q43 0 88 16t89 47zM281 471q-81 0 -138.5 -64.5t-57.5 -151.5h385q-3 97 -53.5 156.5
t-135.5 59.5z" />
    <glyph glyph-name="f" unicode="f" horiz-adv-x="354" 
d="M338 484v-27h-174v-457h-29v457h-93v27h93v113q0 70 36 111t97 41q21 0 41 -6t41 -19l6 -33l-2 -1q-26 18 -45.5 25t-41.5 7q-48 0 -75.5 -33t-27.5 -90v-115h174z" />
    <glyph glyph-name="g" unicode="g" horiz-adv-x="614" 
d="M515 484v-432q0 -112 -65 -176.5t-172 -64.5q-49 0 -96.5 12t-90.5 35l-12 37l2 1q47 -29 97 -43.5t101 -14.5q92 0 149.5 57.5t57.5 154.5v61q-48 -50 -96.5 -73.5t-102.5 -23.5q-101 0 -166 66t-65 168q0 103 69.5 174t170.5 71q51 0 97.5 -19.5t93.5 -59.5l13 70h15z
M296 466q-86 0 -148.5 -64.5t-62.5 -153.5q0 -90 58 -148.5t147 -58.5q49 0 97 24.5t99 75.5v241q-50 43 -96 63.5t-94 20.5z" />
    <glyph glyph-name="h" unicode="h" 
d="M327 469q-52 0 -99.5 -30.5t-99.5 -98.5v-340h-29v735l29 15v-378q47 64 96.5 94t105.5 30q80 0 128 -51.5t48 -141.5v-303h-29v301q0 79 -40.5 123.5t-109.5 44.5z" />
    <glyph glyph-name="i" unicode="i" horiz-adv-x="237" 
d="M119 684q12 0 19.5 -8.5t7.5 -20.5t-8 -20.5t-20 -8.5t-19.5 8.5t-7.5 20.5t8 20.5t20 8.5zM133 0h-29v484h29v-484z" />
    <glyph glyph-name="j" unicode="j" horiz-adv-x="239" 
d="M121 684q12 0 19.5 -8.5t7.5 -20.5t-8 -20.5t-20 -8.5t-19.5 8.5t-7.5 20.5t8 20.5t20 8.5zM106 484h29v-557q0 -53 -31 -84.5t-81 -31.5q-13 0 -25 2.5t-23 7.5l-5 28l2 1q13 -6 26 -9t26 -3q36 0 59 24t23 64v558z" />
    <glyph glyph-name="k" unicode="k" horiz-adv-x="507" 
d="M481 0h-42l-273 232h-38v-232h-29v735l29 15v-491h39l262 225h41v-2l-278 -235l289 -245v-2z" />
    <glyph glyph-name="l" unicode="l" horiz-adv-x="237" 
d="M133 0h-29v735l29 15v-750z" />
    <glyph glyph-name="m" unicode="m" horiz-adv-x="944" 
d="M316 469q-48 0 -94 -31.5t-94 -97.5v-340h-29v475l29 15v-115q46 63 92 92t99 29q59 0 101.5 -32t59.5 -89q52 64 100 92.5t100 28.5q77 0 123.5 -52t46.5 -141v-303h-29v301q0 79 -39 123.5t-105 44.5q-46 0 -94.5 -31t-96.5 -91q2 -11 2.5 -21.5t0.5 -22.5v-303h-29
v301q0 79 -39 123.5t-105 44.5z" />
    <glyph glyph-name="n" unicode="n" 
d="M327 469q-52 0 -99.5 -30.5t-99.5 -98.5v-340h-29v475l29 15v-118q47 64 96.5 94t105.5 30q80 0 128 -51.5t48 -141.5v-303h-29v301q0 79 -40.5 123.5t-109.5 44.5z" />
    <glyph glyph-name="o" unicode="o" horiz-adv-x="618" 
d="M307 -14q-106 0 -178.5 74.5t-72.5 180.5q0 108 73 182.5t182 74.5q106 0 178.5 -74.5t72.5 -180.5q0 -108 -73 -182.5t-182 -74.5zM533 241q0 98 -64 164t-160 66q-95 0 -159.5 -66t-64.5 -162q0 -98 64 -164t160 -66q95 0 159.5 66t64.5 162z" />
    <glyph glyph-name="p" unicode="p" horiz-adv-x="615" 
d="M558 248q0 -111 -69 -184t-174 -73q-47 0 -93.5 19.5t-93.5 58.5v-253h-29v659l29 15v-93q48 50 96.5 73.5t102.5 23.5q97 0 164 -69.5t67 -176.5zM529 248q0 95 -60 157t-145 62q-49 0 -97 -24.5t-99 -75.5v-265q49 -42 96 -63t91 -21q90 0 152 67t62 163z" />
    <glyph glyph-name="q" unicode="q" horiz-adv-x="615" 
d="M501 484h15v-668h-29v271q-48 -50 -96.5 -73.5t-102.5 -23.5q-97 0 -164 69.5t-67 176.5q0 111 69 184t174 73q47 0 94.5 -20t93.5 -59zM300 466q-90 0 -152 -67t-62 -163q0 -95 60 -157t145 -62q49 0 97 24.5t99 75.5v265q-49 42 -96 63t-91 21z" />
    <glyph glyph-name="r" unicode="r" horiz-adv-x="382" 
d="M318 462q-39 0 -80.5 -29t-109.5 -105v-328h-29v475l29 15v-129q69 79 107 105t81 26q9 0 16.5 -1t14.5 -4l4 -31q-7 3 -15.5 4.5t-17.5 1.5z" />
    <glyph glyph-name="s" unicode="s" horiz-adv-x="474" 
d="M246 262q103 -29 138.5 -60t35.5 -80q0 -56 -50.5 -94.5t-123.5 -38.5q-56 0 -107 18.5t-90 52.5l-6 40l2 1q46 -43 95.5 -64t106.5 -21q61 0 102.5 30t41.5 74q0 39 -30 63t-123 51q-106 30 -139.5 59.5t-33.5 77.5q0 55 47 89.5t118 34.5q42 0 83.5 -13.5t78.5 -38.5
v-33h-2q-37 28 -78.5 43t-82.5 15q-58 0 -96.5 -26.5t-38.5 -68.5q0 -38 29.5 -61t122.5 -50z" />
    <glyph glyph-name="t" unicode="t" horiz-adv-x="414" 
d="M382 75l-10 -39q-27 -23 -59 -35t-65 -12q-54 0 -88.5 34.5t-34.5 91.5v342h-88v27h88v125l29 15v-140h222v-27h-222v-340q0 -46 27 -73.5t69 -27.5q34 0 66.5 15t63.5 45z" />
    <glyph glyph-name="u" unicode="u" 
d="M501 0h-29v112q-47 -64 -96.5 -94t-105.5 -30q-80 0 -128 51.5t-48 141.5v303h29v-301q0 -79 40.5 -123.5t109.5 -44.5q52 0 99.5 30.5t99.5 98.5v340h29v-484z" />
    <glyph glyph-name="v" unicode="v" horiz-adv-x="563" 
d="M498 484h32l-244 -494h-9l-244 494h32l218 -449z" />
    <glyph glyph-name="w" unicode="w" horiz-adv-x="853" 
d="M786 484h30l-196 -492h-24l-170 434l-170 -434h-23l-196 492h32l176 -453l177 455h10l178 -456z" />
    <glyph glyph-name="x" unicode="x" horiz-adv-x="539" 
d="M499 0h-36l-194 231l-193 -231h-35l209 249l-200 235h36l183 -218l184 218h35l-200 -235z" />
    <glyph glyph-name="y" unicode="y" horiz-adv-x="510" 
d="M483 484l-230 -529q-33 -77 -68.5 -110.5t-85.5 -33.5q-19 0 -36.5 5.5t-34.5 16.5l-6 32l2 1q20 -14 38.5 -21t36.5 -7q39 0 69.5 29.5t57.5 93.5l24 56l-220 467h32l203 -437l186 437h32z" />
    <glyph glyph-name="z" unicode="z" horiz-adv-x="513" 
d="M85 26h389l-8 -26h-433l-2 4l387 454h-356v26h408l2 -4z" />
    <glyph glyph-name="braceleft" unicode="{" horiz-adv-x="492" 
d="M347 -105h98l-13 -25h-85q-81 0 -126.5 36.5t-45.5 102.5q0 19 6 40.5t26 64.5q17 39 22.5 57.5t5.5 33.5q0 38 -27.5 60.5t-79.5 27.5l-56 5v14l56 5q52 5 79.5 27.5t27.5 60.5q0 15 -5.5 33.5t-22.5 57.5q-20 43 -26 64.5t-6 40.5q0 66 45.5 102.5t126.5 36.5h85
l13 -25h-98q-68 0 -105 -29t-37 -82q0 -18 6 -39t25 -63q18 -40 23.5 -59t5.5 -35q0 -39 -25 -65.5t-71 -37.5q46 -11 71 -37.5t25 -65.5q0 -16 -5.5 -35t-23.5 -59q-19 -42 -25 -63t-6 -39q0 -53 37 -82t105 -29z" />
    <glyph glyph-name="bar" unicode="|" horiz-adv-x="330" 
d="M180 740v-870h-30v870h30z" />
    <glyph glyph-name="braceright" unicode="}" horiz-adv-x="492" 
d="M285 114q20 -43 26 -64.5t6 -40.5q0 -66 -45.5 -102.5t-126.5 -36.5h-85l-13 25h98q68 0 105 29t37 82q0 18 -6 39t-25 63q-18 40 -23.5 59t-5.5 35q0 39 25 65.5t71 37.5q-46 11 -71 37.5t-25 65.5q0 16 5.5 35t23.5 59q19 42 25 63t6 39q0 53 -37 82t-105 29h-98l13 25
h85q81 0 126.5 -36.5t45.5 -102.5q0 -19 -6 -40.5t-26 -64.5q-17 -39 -22.5 -57.5t-5.5 -33.5q0 -38 27.5 -60.5t79.5 -27.5l56 -5v-14l-56 -5q-52 -5 -79.5 -27.5t-27.5 -60.5q0 -15 5.5 -33.5t22.5 -57.5z" />
    <glyph glyph-name="asciitilde" unicode="~" 
d="M189 425q16 0 40.5 -10t79.5 -43q49 -29 70 -38t34 -9q29 0 51.5 21.5t57.5 82.5l22 -11q-41 -73 -68.5 -98t-64.5 -25q-16 0 -40.5 10t-79.5 43q-49 29 -70 38t-34 9q-29 0 -51.5 -21.5t-57.5 -82.5l-22 11q41 73 68.5 98t64.5 25z" />
    <glyph glyph-name="uni00A0" unicode="&#xa0;" horiz-adv-x="220" 
 />
    <glyph glyph-name="exclamdown" unicode="&#xa1;" horiz-adv-x="238" 
d="M119 705q13 0 22 -9t9 -22t-9 -22t-22 -9t-22 9t-9 22q0 14 9 22.5t22 8.5zM104 0v167l7 360h16l7 -360v-167h-30z" />
    <glyph glyph-name="cent" unicode="&#xa2;" horiz-adv-x="506" 
d="M275 105h-2.5h-3.5l-11 -112h-27l12 114q-83 13 -135 79t-52 161q0 103 68 174.5t166 71.5l10 112h27l-11 -113q34 -4 67 -16t65 -34v-35h-2q-35 26 -67.5 40t-65.5 18l-42 -433h3.5h2.5q47 0 91.5 15t83.5 43l2 -1l-8 -35q-34 -23 -79 -36t-92 -13zM85 348
q0 -84 44.5 -143t116.5 -71l42 432q-85 -1 -144 -64.5t-59 -153.5z" />
    <glyph glyph-name="sterling" unicode="&#xa3;" horiz-adv-x="579" 
d="M124 27h393l-10 -27h-434l-3 13q99 86 136 132t37 87q0 20 -6.5 39t-24.5 51h-151v27h135q-50 85 -61.5 117.5t-11.5 68.5q0 78 56.5 127.5t144.5 49.5q46 0 92 -13t91 -39l6 -36l-2 -1q-47 31 -95 46.5t-94 15.5q-74 0 -122 -41.5t-48 -106.5q0 -33 12 -66t65 -122h227
v-27h-212q15 -26 21.5 -46.5t6.5 -41.5q0 -41 -27.5 -80.5t-120.5 -126.5z" />
    <glyph glyph-name="yen" unicode="&#xa5;" horiz-adv-x="612" 
d="M527 203v-27h-206v-176h-28v176h-208v27h208v114h-208v27h198l-244 356h36l232 -341l232 341h34l-244 -356h198v-27h-206v-114h206z" />
    <glyph glyph-name="section" unicode="&#xa7;" horiz-adv-x="622" 
d="M383 84q64 -29 91 -60.5t27 -76.5q0 -58 -55 -97t-134 -39q-54 0 -108.5 17t-97.5 47l-7 39l2 1q49 -37 103 -56.5t109 -19.5q66 0 112 31t46 78q0 45 -41.5 77.5t-157.5 72.5q-121 42 -170.5 83.5t-49.5 96.5q0 54 50 97t132 62q-62 28 -87.5 59t-25.5 77
q0 60 56.5 99.5t141.5 39.5q45 0 87.5 -9.5t91.5 -30.5v-34h-2q-45 22 -91 34t-87 12q-71 0 -119 -32t-48 -80q0 -47 36 -76.5t163 -73.5q126 -44 173 -83t47 -94q0 -54 -51.5 -98t-135.5 -63zM82 278q0 -47 44 -81t158 -74q15 -5 31 -11t34 -13q85 17 138 57t53 89
q0 46 -41.5 78t-160.5 74q-9 3 -19.5 7t-50.5 19q-84 -18 -135 -57.5t-51 -87.5z" />
    <glyph glyph-name="dieresis" unicode="&#xa8;" horiz-adv-x="500" 
d="M147 594q-12 0 -20.5 8.5t-8.5 20.5t8.5 20.5t20.5 8.5t20.5 -8.5t8.5 -20.5t-8.5 -20.5t-20.5 -8.5zM353 594q-12 0 -20.5 8.5t-8.5 20.5t8.5 20.5t20.5 8.5t20.5 -8.5t8.5 -20.5t-8.5 -20.5t-20.5 -8.5z" />
    <glyph glyph-name="copyright" unicode="&#xa9;" horiz-adv-x="890" 
d="M160 68q-57 55 -87.5 128t-30.5 153t31 153t88 129q57 55 131 85t154 30q81 0 154 -29.5t130 -84.5t87.5 -128t30.5 -153t-31 -153t-88 -129q-57 -55 -131 -85t-154 -30q-81 0 -154 29.5t-130 84.5zM179 614q-53 -53 -82 -121t-29 -144q0 -155 109.5 -263t266.5 -108
t267.5 108.5t110.5 264.5t-109 263.5t-267 107.5q-75 0 -144.5 -28t-122.5 -80zM457 159q43 0 81.5 12.5t73.5 38.5l2 -1l-5 -33q-33 -21 -73 -33t-80 -12q-94 0 -158.5 62.5t-64.5 160.5q0 94 65.5 157t161.5 63q42 0 80 -11.5t70 -34.5v-35h-2q-34 27 -71 40t-78 13
q-81 0 -138.5 -55.5t-57.5 -135.5q0 -86 56 -141t138 -55z" />
    <glyph glyph-name="ordfeminine" unicode="&#xaa;" horiz-adv-x="461" 
d="M369 355h-27v59q-40 -35 -81.5 -54t-78.5 -19q-44 0 -73 25t-29 66q0 59 63.5 89t198.5 36v21q0 51 -24.5 77.5t-71.5 26.5q-33 0 -67.5 -14.5t-67.5 -41.5l-2 1l5 33q33 24 65.5 35.5t68.5 11.5q58 0 89.5 -33.5t31.5 -94.5v-224zM107 435q0 -31 22 -50t55 -19
q35 0 75.5 19.5t82.5 55.5v91q-118 -5 -176.5 -29.5t-58.5 -67.5zM74 210v25h323v-25h-323z" />
    <glyph glyph-name="guillemotleft" unicode="&#xab;" horiz-adv-x="630" 
d="M286 492l14 -11l-199 -238l199 -240l-14 -11l-222 247v6zM536 492l14 -11l-199 -238l199 -240l-14 -11l-222 247v6z" />
    <glyph glyph-name="registered" unicode="&#xae;" horiz-adv-x="554" 
d="M499 510q0 -91 -65 -154.5t-158 -63.5q-92 0 -156.5 63.5t-64.5 153.5q0 91 65 154.5t158 63.5q92 0 156.5 -63.5t64.5 -153.5zM478 510q0 83 -58 140.5t-142 57.5t-143 -57.5t-59 -141.5q0 -83 58 -140.5t142 -57.5t143 57.5t59 141.5zM384 393h-34l-91 98h-30v-98h-25
v244h68q37 0 60.5 -19.5t23.5 -52.5q0 -28 -18 -47.5t-48 -24.5zM270 613h-41v-98h41q27 0 43 13t16 36q0 22 -16 35.5t-43 13.5z" />
    <glyph glyph-name="macron" unicode="&#xaf;" horiz-adv-x="500" 
d="M91 617v26h318v-26h-318z" />
    <glyph glyph-name="degree" unicode="&#xb0;" horiz-adv-x="546" 
d="M63 499q0 90 61 152.5t150 62.5q87 0 148 -63t61 -152t-61 -151t-150 -62t-149 62t-60 151zM93 500q0 -79 51.5 -133t128.5 -54q76 0 128.5 54.5t52.5 132.5t-52.5 132.5t-127.5 54.5q-77 0 -129 -54t-52 -133z" />
    <glyph glyph-name="plusminus" unicode="&#xb1;" 
d="M545 424v-28h-230v-237h-29v237h-231v28h231v236h29v-236h230zM545 28v-28h-490v28h490z" />
    <glyph glyph-name="two.sup" unicode="&#xb2;" horiz-adv-x="346" 
d="M83 435h234l-15 -26h-263l-2 8l157 177q42 47 56 73.5t14 53.5q0 36 -24.5 58.5t-62.5 22.5q-35 0 -68.5 -22.5t-61.5 -66.5l-2 1l-6 30q25 39 62 61.5t77 22.5q50 0 82 -29t32 -76q0 -33 -15.5 -63t-59.5 -78z" />
    <glyph glyph-name="three.sup" unicode="&#xb3;" horiz-adv-x="338" 
d="M181 622q57 -12 87.5 -41t30.5 -70q0 -47 -38 -78t-94 -31q-33 0 -63.5 9t-59.5 27l-6 34l2 1q31 -23 62.5 -34.5t65.5 -11.5q44 0 73 22.5t29 59.5q0 42 -40.5 68.5t-117.5 33.5v16q73 12 112 38.5t39 63.5q0 31 -24.5 52t-62.5 21q-29 0 -60 -12t-62 -35h-2v32
q31 21 62 31t63 10q52 0 83.5 -27t31.5 -71q0 -37 -29 -65t-82 -43z" />
    <glyph glyph-name="acute" unicode="&#xb4;" horiz-adv-x="500" 
d="M336 736h39l-122 -151h-18z" />
    <glyph glyph-name="uni00B5" unicode="&#xb5;" horiz-adv-x="605" 
d="M126 71l2 -215v-40h-29v668h29v-301q0 -79 40.5 -123.5t109.5 -44.5q52 0 99.5 30.5t99.5 98.5v340h29v-484h-19l-9 113q-47 -64 -96.5 -94.5t-106.5 -30.5q-48 0 -84.5 20t-64.5 63z" />
    <glyph glyph-name="paragraph" unicode="&#xb6;" horiz-adv-x="687" 
d="M72 494q0 91 66 148.5t171 57.5h253v-700h-30v672h-111v-672h-30v284h-82q-102 0 -169.5 59t-67.5 151zM102 492q0 -78 58.5 -129t145.5 -51h85v360h-83q-90 0 -148 -50.5t-58 -129.5z" />
    <glyph glyph-name="periodcentered" unicode="&#xb7;" horiz-adv-x="200" 
d="M100 236q-13 0 -22 9t-9 22t9 22t22 9t22 -9t9 -22t-8.5 -22t-22.5 -9z" />
    <glyph glyph-name="cedilla" unicode="&#xb8;" horiz-adv-x="500" 
d="M265 -63q37 0 59.5 -16.5t22.5 -43.5q0 -32 -30.5 -52t-81.5 -20q-18 0 -35 2.5t-36 8.5l-15 29l1 1q22 -9 43 -13t43 -4q39 0 61.5 12.5t22.5 34.5q0 18 -15.5 27.5t-44.5 9.5q-19 0 -35 -2.5t-41 -9.5l-3 4l60 100h28l-43 -72q9 2 18 3t21 1z" />
    <glyph glyph-name="one.sup" unicode="&#xb9;" horiz-adv-x="250" 
d="M27 708l-1 1v29l135 90l7 -2v-417h-28v374z" />
    <glyph glyph-name="ordmasculine" unicode="&#xba;" horiz-adv-x="490" 
d="M57 524q0 78 55 132.5t135 54.5q78 0 132 -54.5t54 -130.5q0 -78 -54.5 -132.5t-133.5 -54.5t-133.5 54.5t-54.5 130.5zM406 523q0 69 -46 116t-115 47t-115 -45.5t-46 -113.5q0 -69 46 -116t115 -47t115 45.5t46 113.5zM73 210v25h344v-25h-344z" />
    <glyph glyph-name="guillemotright" unicode="&#xbb;" horiz-adv-x="630" 
d="M344 -8l-14 11l199 238l-199 240l14 11l222 -247v-6zM94 -8l-14 11l199 238l-199 240l14 11l222 -247v-6z" />
    <glyph glyph-name="onequarter" unicode="&#xbc;" horiz-adv-x="741" 
d="M27 586l-1 1v29l135 90l7 -2v-417h-28v374zM356 343l-231 -345h-32l242 358l232 346h32zM616 108h-224l-2 8l232 300h21v-284h73v-24h-73v-108h-27v108zM616 369l-186 -237h186v237z" />
    <glyph glyph-name="onehalf" unicode="&#xbd;" horiz-adv-x="773" 
d="M27 586l-1 1v29l135 90l7 -2v-417h-28v374zM356 343l-231 -345h-32l242 358l232 346h32zM510 26h234l-15 -26h-263l-2 8l157 177q42 47 56 73.5t14 53.5q0 36 -24.5 58.5t-62.5 22.5q-35 0 -68.5 -22.5t-61.5 -66.5l-2 1l-6 30q25 39 62 61.5t77 22.5q50 0 82 -29t32 -76
q0 -33 -15.5 -63t-59.5 -78z" />
    <glyph glyph-name="threequarters" unicode="&#xbe;" horiz-adv-x="814" 
d="M181 500q57 -12 87.5 -41t30.5 -70q0 -47 -38 -78t-94 -31q-33 0 -63.5 9t-59.5 27l-6 34l2 1q31 -23 62.5 -34.5t65.5 -11.5q44 0 73 22.5t29 59.5q0 42 -40.5 68.5t-117.5 33.5v16q73 12 112 38.5t39 63.5q0 31 -24.5 52t-62.5 21q-29 0 -60 -12t-62 -35h-2v32
q31 21 62 31t63 10q52 0 83.5 -27t31.5 -71q0 -37 -29 -65t-82 -43zM429 343l-231 -345h-32l242 358l232 346h32zM689 108h-224l-2 8l232 300h21v-284h73v-24h-73v-108h-27v108zM689 369l-186 -237h186v237z" />
    <glyph glyph-name="questiondown" unicode="&#xbf;" horiz-adv-x="480" 
d="M260 705q13 0 22 -9t9 -22t-8.5 -22t-22.5 -9q-13 0 -22 9t-9 22t9 22t22 9zM440 138v-40q-47 -54 -99.5 -81t-111.5 -27q-71 0 -120.5 43.5t-49.5 106.5q0 43 26 80.5t95 86.5q62 44 82.5 68.5t20.5 52.5q0 18 -8 38.5t-26 48.5h20q27 -36 35 -55t8 -41q0 -31 -23.5 -60
t-88.5 -74q-66 -47 -88.5 -77.5t-22.5 -67.5q0 -51 42 -86.5t100 -35.5q55 0 108.5 31t98.5 89h2z" />
    <glyph glyph-name="Agrave" unicode="&#xc0;" horiz-adv-x="768" 
d="M73 0h-31l326 707h32l326 -707h-34l-96 209h-427zM383 676l-201 -439h402zM255 917h42l102 -141h-18z" />
    <glyph glyph-name="Aacute" unicode="&#xc1;" horiz-adv-x="768" 
d="M73 0h-31l326 707h32l326 -707h-34l-96 209h-427zM383 676l-201 -439h402zM471 917h42l-126 -141h-18z" />
    <glyph glyph-name="Acircumflex" unicode="&#xc2;" horiz-adv-x="768" 
d="M73 0h-31l326 707h32l326 -707h-34l-96 209h-427zM383 676l-201 -439h402zM532 772h-24l-125 113l-125 -113h-22l137 141h22z" />
    <glyph glyph-name="Atilde" unicode="&#xc3;" horiz-adv-x="768" 
d="M73 0h-31l326 707h32l326 -707h-34l-96 209h-427zM383 676l-201 -439h402zM395 849q35 -28 50.5 -36t26.5 -8q19 0 36 20.5t48 78.5l17 -8q-35 -71 -56.5 -95t-50.5 -24q-14 0 -33 9.5t-60 40.5q-35 28 -50.5 36t-26.5 8q-19 0 -36 -20.5t-48 -78.5l-17 8q35 71 56.5 95
t50.5 24q14 0 33 -9.5t60 -40.5z" />
    <glyph glyph-name="Adieresis" unicode="&#xc4;" horiz-adv-x="768" 
d="M73 0h-31l326 707h32l326 -707h-34l-96 209h-427zM383 676l-201 -439h402zM270 837q12 0 20 -8.5t8 -20.5t-8 -20.5t-20 -8.5t-20 8.5t-8 20.5t8 20.5t20 8.5zM498 837q12 0 20 -8.5t8 -20.5t-8 -20.5t-20 -8.5t-20 8.5t-8 20.5t8 20.5t20 8.5z" />
    <glyph glyph-name="Aring" unicode="&#xc5;" horiz-adv-x="768" 
d="M726 0h-34l-96 209h-427l-96 -209h-31l315 682q-43 8 -70 39t-27 72q0 48 35.5 80.5t88.5 32.5t88.5 -32.5t35.5 -80.5q0 -41 -27 -71.5t-70 -38.5zM486 793q0 39 -29.5 66t-73.5 27q-42 0 -71.5 -27t-29.5 -66t29 -66t73 -27q43 0 72.5 27t29.5 66zM383 676l-201 -439
h402z" />
    <glyph glyph-name="AE" unicode="&#xc6;" horiz-adv-x="929" 
d="M48 0h-36l462 700h386l14 -28h-351v-302h303v-28h-303v-314h354l-14 -28h-370v209h-307zM493 674l-288 -437h288v437z" />
    <glyph glyph-name="Ccedilla" unicode="&#xc7;" horiz-adv-x="740" 
d="M425 -68q37 0 59.5 -16.5t22.5 -43.5q0 -32 -30.5 -52t-81.5 -20q-18 0 -35 2.5t-36 8.5l-15 29l1 1q22 -9 43 -13t43 -4q39 0 61.5 12.5t22.5 34.5q0 18 -15.5 27.5t-44.5 9.5q-19 0 -35 -2.5t-41 -9.5l-3 4l53 88q-67 3 -129 32.5t-108 80.5q-45 50 -68.5 113
t-23.5 135q0 151 104 257t250 106q73 0 140 -28.5t112 -77.5v-37l-2 -1q-53 57 -117 86.5t-135 29.5q-63 0 -122.5 -26.5t-105.5 -74.5q-45 -47 -69.5 -107t-24.5 -125q0 -67 23 -127t66 -106q44 -49 103.5 -75.5t122.5 -26.5q75 0 142.5 32t123.5 93l2 -1l-6 -41
q-50 -51 -113.5 -79.5t-136.5 -31.5l-36 -60q9 2 18 3t21 1z" />
    <glyph glyph-name="Egrave" unicode="&#xc8;" horiz-adv-x="549" 
d="M483 0h-370v700h367l14 -28h-351v-302h303v-28h-303v-314h354zM176 917h42l102 -141h-18z" />
    <glyph glyph-name="Eacute" unicode="&#xc9;" horiz-adv-x="549" 
d="M483 0h-370v700h367l14 -28h-351v-302h303v-28h-303v-314h354zM392 917h42l-126 -141h-18z" />
    <glyph glyph-name="Ecircumflex" unicode="&#xca;" horiz-adv-x="549" 
d="M483 0h-370v700h367l14 -28h-351v-302h303v-28h-303v-314h354zM453 776h-24l-125 113l-125 -113h-22l137 141h22z" />
    <glyph glyph-name="Edieresis" unicode="&#xcb;" horiz-adv-x="549" 
d="M483 0h-370v700h367l14 -28h-351v-302h303v-28h-303v-314h354zM191 837q12 0 20 -8.5t8 -20.5t-8 -20.5t-20 -8.5t-20 8.5t-8 20.5t8 20.5t20 8.5zM419 837q12 0 20 -8.5t8 -20.5t-8 -20.5t-20 -8.5t-20 8.5t-8 20.5t8 20.5t20 8.5z" />
    <glyph glyph-name="Igrave" unicode="&#xcc;" horiz-adv-x="266" 
d="M148 0h-30v700h30v-700zM4 917h42l102 -141h-18z" />
    <glyph glyph-name="Iacute" unicode="&#xcd;" horiz-adv-x="266" 
d="M148 0h-30v700h30v-700zM220 917h42l-126 -141h-18z" />
    <glyph glyph-name="Icircumflex" unicode="&#xce;" horiz-adv-x="266" 
d="M148 0h-30v700h30v-700zM281 772h-24l-125 113l-125 -113h-22l137 141h22z" />
    <glyph glyph-name="Idieresis" unicode="&#xcf;" horiz-adv-x="266" 
d="M148 0h-30v700h30v-700zM19 837q12 0 20 -8.5t8 -20.5t-8 -20.5t-20 -8.5t-20 8.5t-8 20.5t8 20.5t20 8.5zM247 837q12 0 20 -8.5t8 -20.5t-8 -20.5t-20 -8.5t-20 8.5t-8 20.5t8 20.5t20 8.5z" />
    <glyph glyph-name="Eth" unicode="&#xd0;" horiz-adv-x="800" 
d="M12 346v28h121v326h212q175 0 282.5 -95.5t107.5 -252.5q0 -160 -108 -256t-282 -96h-212v346h-121zM377 374v-28h-214v-318h184q157 0 257.5 88.5t100.5 232.5q0 147 -100.5 235t-261.5 88h-180v-298h214z" />
    <glyph glyph-name="Ntilde" unicode="&#xd1;" horiz-adv-x="828" 
d="M142 0h-29v700h29l544 -639v639h29v-702h-12l-561 658v-656zM445 849q35 -28 50.5 -36t26.5 -8q19 0 36 20.5t48 78.5l17 -8q-35 -71 -56.5 -95t-50.5 -24q-14 0 -33 9.5t-60 40.5q-35 28 -50.5 36t-26.5 8q-19 0 -36 -20.5t-48 -78.5l-17 8q35 71 56.5 95t50.5 24
q14 0 33 -9.5t60 -40.5z" />
    <glyph glyph-name="Ograve" unicode="&#xd2;" horiz-adv-x="850" 
d="M424 -14q-149 0 -254 106t-105 257q0 152 105.5 258.5t255.5 106.5q149 0 254 -106t105 -257q0 -152 -105.5 -258.5t-255.5 -106.5zM424 686q-135 0 -232 -98.5t-97 -236.5q0 -141 97 -239t234 -98q135 0 232 98.5t97 236.5q0 141 -97 239t-234 98zM296 922h42l102 -141
h-18z" />
    <glyph glyph-name="Oacute" unicode="&#xd3;" horiz-adv-x="850" 
d="M424 -14q-149 0 -254 106t-105 257q0 152 105.5 258.5t255.5 106.5q149 0 254 -106t105 -257q0 -152 -105.5 -258.5t-255.5 -106.5zM424 686q-135 0 -232 -98.5t-97 -236.5q0 -141 97 -239t234 -98q135 0 232 98.5t97 236.5q0 141 -97 239t-234 98zM512 922h42l-126 -141
h-18z" />
    <glyph glyph-name="Ocircumflex" unicode="&#xd4;" horiz-adv-x="850" 
d="M424 -14q-149 0 -254 106t-105 257q0 152 105.5 258.5t255.5 106.5q149 0 254 -106t105 -257q0 -152 -105.5 -258.5t-255.5 -106.5zM424 686q-135 0 -232 -98.5t-97 -236.5q0 -141 97 -239t234 -98q135 0 232 98.5t97 236.5q0 141 -97 239t-234 98zM573 776h-24l-125 113
l-125 -113h-22l137 141h22z" />
    <glyph glyph-name="Otilde" unicode="&#xd5;" horiz-adv-x="850" 
d="M424 -14q-149 0 -254 106t-105 257q0 152 105.5 258.5t255.5 106.5q149 0 254 -106t105 -257q0 -152 -105.5 -258.5t-255.5 -106.5zM424 686q-135 0 -232 -98.5t-97 -236.5q0 -141 97 -239t234 -98q135 0 232 98.5t97 236.5q0 141 -97 239t-234 98zM436 854
q35 -28 50.5 -36t26.5 -8q19 0 36 20.5t48 78.5l17 -8q-35 -71 -56.5 -95t-50.5 -24q-14 0 -33 9.5t-60 40.5q-35 28 -50.5 36t-26.5 8q-19 0 -36 -20.5t-48 -78.5l-17 8q35 71 56.5 95t50.5 24q14 0 33 -9.5t60 -40.5z" />
    <glyph glyph-name="Odieresis" unicode="&#xd6;" horiz-adv-x="850" 
d="M424 -14q-149 0 -254 106t-105 257q0 152 105.5 258.5t255.5 106.5q149 0 254 -106t105 -257q0 -152 -105.5 -258.5t-255.5 -106.5zM424 686q-135 0 -232 -98.5t-97 -236.5q0 -141 97 -239t234 -98q135 0 232 98.5t97 236.5q0 141 -97 239t-234 98zM311 842q12 0 20 -8.5
t8 -20.5t-8 -20.5t-20 -8.5t-20 8.5t-8 20.5t8 20.5t20 8.5zM539 842q12 0 20 -8.5t8 -20.5t-8 -20.5t-20 -8.5t-20 8.5t-8 20.5t8 20.5t20 8.5z" />
    <glyph glyph-name="multiply" unicode="&#xd7;" 
d="M319 362l192 -188l-23 -24l-189 193l-189 -193l-21 22l192 188l-192 189l23 24l189 -193l187 191l21 -22z" />
    <glyph glyph-name="Oslash" unicode="&#xd8;" horiz-adv-x="850" 
d="M785 351q0 -152 -105.5 -258.5t-255.5 -106.5q-60 0 -117 19.5t-105 57.5l-89 -106h-34l103 124q-56 51 -86.5 120.5t-30.5 147.5q0 152 105.5 258.5t255.5 106.5q60 0 117.5 -20t104.5 -57l89 106h34l-104 -123q57 -52 87.5 -121.5t30.5 -147.5zM424 686
q-135 0 -232 -98.5t-97 -236.5q0 -72 27.5 -136.5t78.5 -112.5l428 513q-44 35 -96.5 53t-108.5 18zM426 14q135 0 232 98.5t97 236.5q0 73 -28 137.5t-79 112.5l-427 -514q44 -35 96.5 -53t108.5 -18z" />
    <glyph glyph-name="Ugrave" unicode="&#xd9;" horiz-adv-x="778" 
d="M389 -12q-130 0 -207.5 79t-77.5 212v421h30v-425q0 -118 70 -188.5t186 -70.5q115 0 185 71t70 190v423h29v-420q0 -134 -77.5 -213t-207.5 -79zM262 902h42l102 -141h-18z" />
    <glyph glyph-name="Uacute" unicode="&#xda;" horiz-adv-x="778" 
d="M389 -12q-130 0 -207.5 79t-77.5 212v421h30v-425q0 -118 70 -188.5t186 -70.5q115 0 185 71t70 190v423h29v-420q0 -134 -77.5 -213t-207.5 -79zM478 902h42l-126 -141h-18z" />
    <glyph glyph-name="Ucircumflex" unicode="&#xdb;" horiz-adv-x="778" 
d="M389 -12q-130 0 -207.5 79t-77.5 212v421h30v-425q0 -118 70 -188.5t186 -70.5q115 0 185 71t70 190v423h29v-420q0 -134 -77.5 -213t-207.5 -79zM539 776h-24l-125 113l-125 -113h-22l137 141h22z" />
    <glyph glyph-name="Udieresis" unicode="&#xdc;" horiz-adv-x="778" 
d="M389 -12q-130 0 -207.5 79t-77.5 212v421h30v-425q0 -118 70 -188.5t186 -70.5q115 0 185 71t70 190v423h29v-420q0 -134 -77.5 -213t-207.5 -79zM277 837q12 0 20 -8.5t8 -20.5t-8 -20.5t-20 -8.5t-20 8.5t-8 20.5t8 20.5t20 8.5zM505 837q12 0 20 -8.5t8 -20.5
t-8 -20.5t-20 -8.5t-20 8.5t-8 20.5t8 20.5t20 8.5z" />
    <glyph glyph-name="Yacute" unicode="&#xdd;" horiz-adv-x="648" 
d="M584 700h35l-278 -374v-326h-30v323l-282 377h37l259 -349zM411 912h42l-126 -141h-18z" />
    <glyph glyph-name="Thorn" unicode="&#xde;" horiz-adv-x="571" 
d="M519 364q0 -91 -62.5 -145.5t-164.5 -54.5h-149v-164h-30v700h30v-140h160q96 0 156 -54t60 -142zM489 362q0 77 -52.5 123.5t-136.5 46.5h-157v-340h152q87 0 140.5 46t53.5 124z" />
    <glyph glyph-name="germandbls" unicode="&#xdf;" horiz-adv-x="601" 
d="M334 364q113 -30 168.5 -81.5t55.5 -128.5q0 -70 -49.5 -117t-121.5 -47q-33 0 -60 7t-65 27l-6 36l2 1q38 -24 67.5 -34t62.5 -10q58 0 99.5 39.5t41.5 95.5q0 74 -61 123.5t-186 75.5l-3 10q103 60 142 109.5t39 106.5q0 62 -41.5 103.5t-103.5 41.5
q-68 0 -109.5 -47.5t-41.5 -125.5v-549h-29v457h-93v27h93v63q0 91 50 146.5t131 55.5q74 0 123.5 -48.5t49.5 -121.5q0 -61 -37.5 -113t-117.5 -102z" />
    <glyph glyph-name="agrave" unicode="&#xe0;" horiz-adv-x="554" 
d="M456 9l-29 -15v99q-71 -56 -123.5 -80t-103.5 -24q-62 0 -103 34.5t-41 89.5q0 85 90 125.5t281 45.5v28q0 75 -37.5 116t-106.5 41q-45 0 -90.5 -18t-92.5 -55l-2 1l7 37q45 31 89.5 46.5t91.5 15.5q79 0 124.5 -48.5t45.5 -133.5v-305zM85 114q0 -43 33.5 -70t83.5 -27
q47 0 101.5 25.5t123.5 79.5v136q-176 -5 -259 -39.5t-83 -104.5zM148 736h39l101 -151h-18z" />
    <glyph glyph-name="aacute" unicode="&#xe1;" horiz-adv-x="554" 
d="M456 9l-29 -15v99q-71 -56 -123.5 -80t-103.5 -24q-62 0 -103 34.5t-41 89.5q0 85 90 125.5t281 45.5v28q0 75 -37.5 116t-106.5 41q-45 0 -90.5 -18t-92.5 -55l-2 1l7 37q45 31 89.5 46.5t91.5 15.5q79 0 124.5 -48.5t45.5 -133.5v-305zM85 114q0 -43 33.5 -70t83.5 -27
q47 0 101.5 25.5t123.5 79.5v136q-176 -5 -259 -39.5t-83 -104.5zM359 736h39l-122 -151h-18z" />
    <glyph glyph-name="acircumflex" unicode="&#xe2;" horiz-adv-x="554" 
d="M456 9l-29 -15v99q-71 -56 -123.5 -80t-103.5 -24q-62 0 -103 34.5t-41 89.5q0 85 90 125.5t281 45.5v28q0 75 -37.5 116t-106.5 41q-45 0 -90.5 -18t-92.5 -55l-2 1l7 37q45 31 89.5 46.5t91.5 15.5q79 0 124.5 -48.5t45.5 -133.5v-305zM85 114q0 -43 33.5 -70t83.5 -27
q47 0 101.5 25.5t123.5 79.5v136q-176 -5 -259 -39.5t-83 -104.5zM411 585h-21l-118 122l-117 -122h-20l123 151h30z" />
    <glyph glyph-name="atilde" unicode="&#xe3;" horiz-adv-x="554" 
d="M456 9l-29 -15v99q-71 -56 -123.5 -80t-103.5 -24q-62 0 -103 34.5t-41 89.5q0 85 90 125.5t281 45.5v28q0 75 -37.5 116t-106.5 41q-45 0 -90.5 -18t-92.5 -55l-2 1l7 37q45 31 89.5 46.5t91.5 15.5q79 0 124.5 -48.5t45.5 -133.5v-305zM85 114q0 -43 33.5 -70t83.5 -27
q47 0 101.5 25.5t123.5 79.5v136q-176 -5 -259 -39.5t-83 -104.5zM283 669q35 -31 50 -40t26 -9q19 0 37.5 23.5t48.5 87.5l17 -8q-36 -78 -57.5 -104t-49.5 -26q-14 0 -33 11t-59 45q-35 31 -50 40t-26 9q-19 0 -37.5 -23.5t-48.5 -87.5l-17 8q36 78 57.5 104t49.5 26
q14 0 33 -11t59 -45z" />
    <glyph glyph-name="adieresis" unicode="&#xe4;" horiz-adv-x="554" 
d="M456 9l-29 -15v99q-71 -56 -123.5 -80t-103.5 -24q-62 0 -103 34.5t-41 89.5q0 85 90 125.5t281 45.5v28q0 75 -37.5 116t-106.5 41q-45 0 -90.5 -18t-92.5 -55l-2 1l7 37q45 31 89.5 46.5t91.5 15.5q79 0 124.5 -48.5t45.5 -133.5v-305zM85 114q0 -43 33.5 -70t83.5 -27
q47 0 101.5 25.5t123.5 79.5v136q-176 -5 -259 -39.5t-83 -104.5zM170 594q-12 0 -20.5 8.5t-8.5 20.5t8.5 20.5t20.5 8.5t20.5 -8.5t8.5 -20.5t-8.5 -20.5t-20.5 -8.5zM376 594q-12 0 -20.5 8.5t-8.5 20.5t8.5 20.5t20.5 8.5t20.5 -8.5t8.5 -20.5t-8.5 -20.5t-20.5 -8.5z
" />
    <glyph glyph-name="aring" unicode="&#xe5;" horiz-adv-x="554" 
d="M456 9l-29 -15v99q-71 -56 -123.5 -80t-103.5 -24q-62 0 -103 34.5t-41 89.5q0 85 90 125.5t281 45.5v28q0 75 -37.5 116t-106.5 41q-45 0 -90.5 -18t-92.5 -55l-2 1l7 37q45 31 89.5 46.5t91.5 15.5q79 0 124.5 -48.5t45.5 -133.5v-305zM85 114q0 -43 33.5 -70t83.5 -27
q47 0 101.5 25.5t123.5 79.5v136q-176 -5 -259 -39.5t-83 -104.5zM273 584q-45 0 -75 30.5t-30 75.5t30.5 75.5t75.5 30.5q46 0 76 -30.5t30 -75.5t-30.5 -75.5t-76.5 -30.5zM358 690q0 36 -24.5 61t-60.5 25q-35 0 -59 -25t-24 -61t24 -61t60 -25t60 25t24 61z" />
    <glyph glyph-name="ae" unicode="&#xe6;" horiz-adv-x="905" 
d="M829 77l-12 -37q-43 -26 -83 -38.5t-81 -12.5q-68 0 -121.5 31t-84.5 88q-71 -60 -132 -89.5t-115 -29.5q-62 0 -103 34.5t-41 89.5q0 84 87.5 124.5t272.5 45.5v39q0 72 -33.5 109.5t-99.5 37.5q-45 0 -90.5 -18t-92.5 -55l-2 1l7 37q45 31 89.5 46.5t91.5 15.5
q66 0 106 -33.5t50 -95.5q28 61 80 96t116 35q95 0 153 -69t58 -178v-14.5t-1 -8.5h-402q6 -97 63 -154.5t146 -57.5q39 0 81.5 15t90.5 47zM636 471q-79 0 -135 -64.5t-56 -151.5h375q-2 97 -51.5 156.5t-132.5 59.5zM416 257q-170 -5 -250.5 -39.5t-80.5 -103.5
q0 -43 33.5 -70t83.5 -27q48 0 111 30.5t124 82.5q-11 26 -16 54.5t-5 61.5v5.5v5.5z" />
    <glyph glyph-name="ccedilla" unicode="&#xe7;" horiz-adv-x="537" 
d="M309 -63q37 0 59.5 -16.5t22.5 -43.5q0 -32 -30.5 -52t-81.5 -20q-18 0 -35 2.5t-36 8.5l-15 29l1 1q22 -9 43 -13t43 -4q39 0 61.5 12.5t22.5 34.5q0 18 -15.5 27.5t-44.5 9.5q-19 0 -35 -2.5t-41 -9.5l-3 4l50 84q-95 8 -157 79.5t-62 173.5q0 106 72.5 180.5
t177.5 74.5q48 0 92 -16.5t81 -49.5v-34h-2q-37 36 -81 54.5t-91 18.5q-92 0 -156 -66.5t-64 -159.5q0 -99 60.5 -164t154.5 -65q45 0 90.5 19t92.5 57l2 -1l-8 -37q-43 -33 -86.5 -49t-87.5 -16l-33 -55q9 2 18 3t21 1z" />
    <glyph glyph-name="egrave" unicode="&#xe8;" horiz-adv-x="555" 
d="M479 78l-12 -38q-42 -26 -84 -38.5t-85 -12.5q-108 0 -175 70.5t-67 186.5q0 106 65 179t162 73q98 0 157 -69t59 -178v-14.5t-1 -8.5h-412q6 -97 64.5 -154.5t149.5 -57.5q43 0 88 16t89 47zM281 471q-81 0 -138.5 -64.5t-57.5 -151.5h385q-3 97 -53.5 156.5
t-135.5 59.5zM160 736h39l101 -151h-18z" />
    <glyph glyph-name="eacute" unicode="&#xe9;" horiz-adv-x="555" 
d="M479 78l-12 -38q-42 -26 -84 -38.5t-85 -12.5q-108 0 -175 70.5t-67 186.5q0 106 65 179t162 73q98 0 157 -69t59 -178v-14.5t-1 -8.5h-412q6 -97 64.5 -154.5t149.5 -57.5q43 0 88 16t89 47zM281 471q-81 0 -138.5 -64.5t-57.5 -151.5h385q-3 97 -53.5 156.5
t-135.5 59.5zM371 736h39l-122 -151h-18z" />
    <glyph glyph-name="ecircumflex" unicode="&#xea;" horiz-adv-x="555" 
d="M479 78l-12 -38q-42 -26 -84 -38.5t-85 -12.5q-108 0 -175 70.5t-67 186.5q0 106 65 179t162 73q98 0 157 -69t59 -178v-14.5t-1 -8.5h-412q6 -97 64.5 -154.5t149.5 -57.5q43 0 88 16t89 47zM281 471q-81 0 -138.5 -64.5t-57.5 -151.5h385q-3 97 -53.5 156.5
t-135.5 59.5zM423 580h-21l-118 122l-117 -122h-20l123 151h30z" />
    <glyph glyph-name="edieresis" unicode="&#xeb;" horiz-adv-x="555" 
d="M479 78l-12 -38q-42 -26 -84 -38.5t-85 -12.5q-108 0 -175 70.5t-67 186.5q0 106 65 179t162 73q98 0 157 -69t59 -178v-14.5t-1 -8.5h-412q6 -97 64.5 -154.5t149.5 -57.5q43 0 88 16t89 47zM281 471q-81 0 -138.5 -64.5t-57.5 -151.5h385q-3 97 -53.5 156.5
t-135.5 59.5zM182 594q-12 0 -20.5 8.5t-8.5 20.5t8.5 20.5t20.5 8.5t20.5 -8.5t8.5 -20.5t-8.5 -20.5t-20.5 -8.5zM388 594q-12 0 -20.5 8.5t-8.5 20.5t8.5 20.5t20.5 8.5t20.5 -8.5t8.5 -20.5t-8.5 -20.5t-20.5 -8.5z" />
    <glyph glyph-name="igrave" unicode="&#xec;" horiz-adv-x="237" 
d="M133 0h-29v484h29v-484zM-6 736h39l101 -151h-18z" />
    <glyph glyph-name="iacute" unicode="&#xed;" horiz-adv-x="237" 
d="M133 0h-29v484h29v-484zM205 736h39l-122 -151h-18z" />
    <glyph glyph-name="icircumflex" unicode="&#xee;" horiz-adv-x="237" 
d="M133 0h-29v484h29v-484zM257 577h-21l-118 122l-117 -122h-20l123 151h30z" />
    <glyph glyph-name="idieresis" unicode="&#xef;" horiz-adv-x="237" 
d="M133 0h-29v484h29v-484zM16 594q-12 0 -20.5 8.5t-8.5 20.5t8.5 20.5t20.5 8.5t20.5 -8.5t8.5 -20.5t-8.5 -20.5t-20.5 -8.5zM222 594q-12 0 -20.5 8.5t-8.5 20.5t8.5 20.5t20.5 8.5t20.5 -8.5t8.5 -20.5t-8.5 -20.5t-20.5 -8.5z" />
    <glyph glyph-name="eth" unicode="&#xf0;" horiz-adv-x="605" 
d="M536 242q0 -61 -16.5 -106t-52.5 -81q-34 -34 -78.5 -51.5t-96.5 -17.5q-99 0 -167.5 69t-68.5 167q0 100 69 169.5t171 69.5q64 0 116 -27.5t83 -77.5q-21 77 -68.5 147.5t-121.5 133.5l-68 -80l-21 17l69 80q-25 20 -50 37.5t-51 34.5l18 24q27 -17 52.5 -35.5
t49.5 -38.5l62 74l21 -17l-63 -74q105 -92 158.5 -197t53.5 -220zM507 233q0 88 -60 144.5t-153 56.5q-88 0 -148.5 -61t-60.5 -149q0 -89 60 -150t149 -61q94 0 153.5 61t59.5 159z" />
    <glyph glyph-name="ntilde" unicode="&#xf1;" 
d="M327 469q-52 0 -99.5 -30.5t-99.5 -98.5v-340h-29v475l29 15v-118q47 64 96.5 94t105.5 30q80 0 128 -51.5t48 -141.5v-303h-29v301q0 79 -40.5 123.5t-109.5 44.5zM313 669q35 -31 50 -40t26 -9q19 0 37.5 23.5t48.5 87.5l17 -8q-36 -78 -57.5 -104t-49.5 -26
q-14 0 -33 11t-59 45q-35 31 -50 40t-26 9q-19 0 -37.5 -23.5t-48.5 -87.5l-17 8q36 78 57.5 104t49.5 26q14 0 33 -11t59 -45z" />
    <glyph glyph-name="ograve" unicode="&#xf2;" horiz-adv-x="618" 
d="M307 -14q-106 0 -178.5 74.5t-72.5 180.5q0 108 73 182.5t182 74.5q106 0 178.5 -74.5t72.5 -180.5q0 -108 -73 -182.5t-182 -74.5zM533 241q0 98 -64 164t-160 66q-95 0 -159.5 -66t-64.5 -162q0 -98 64 -164t160 -66q95 0 159.5 66t64.5 162zM184 736h39l101 -151h-18z
" />
    <glyph glyph-name="oacute" unicode="&#xf3;" horiz-adv-x="618" 
d="M307 -14q-106 0 -178.5 74.5t-72.5 180.5q0 108 73 182.5t182 74.5q106 0 178.5 -74.5t72.5 -180.5q0 -108 -73 -182.5t-182 -74.5zM533 241q0 98 -64 164t-160 66q-95 0 -159.5 -66t-64.5 -162q0 -98 64 -164t160 -66q95 0 159.5 66t64.5 162zM395 736h39l-122 -151h-18
z" />
    <glyph glyph-name="ocircumflex" unicode="&#xf4;" horiz-adv-x="618" 
d="M307 -14q-106 0 -178.5 74.5t-72.5 180.5q0 108 73 182.5t182 74.5q106 0 178.5 -74.5t72.5 -180.5q0 -108 -73 -182.5t-182 -74.5zM533 241q0 98 -64 164t-160 66q-95 0 -159.5 -66t-64.5 -162q0 -98 64 -164t160 -66q95 0 159.5 66t64.5 162zM447 580h-21l-118 122
l-117 -122h-20l123 151h30z" />
    <glyph glyph-name="otilde" unicode="&#xf5;" horiz-adv-x="618" 
d="M307 -14q-106 0 -178.5 74.5t-72.5 180.5q0 108 73 182.5t182 74.5q106 0 178.5 -74.5t72.5 -180.5q0 -108 -73 -182.5t-182 -74.5zM533 241q0 98 -64 164t-160 66q-95 0 -159.5 -66t-64.5 -162q0 -98 64 -164t160 -66q95 0 159.5 66t64.5 162zM319 669q35 -31 50 -40
t26 -9q19 0 37.5 23.5t48.5 87.5l17 -8q-36 -78 -57.5 -104t-49.5 -26q-14 0 -33 11t-59 45q-35 31 -50 40t-26 9q-19 0 -37.5 -23.5t-48.5 -87.5l-17 8q36 78 57.5 104t49.5 26q14 0 33 -11t59 -45z" />
    <glyph glyph-name="odieresis" unicode="&#xf6;" horiz-adv-x="618" 
d="M307 -14q-106 0 -178.5 74.5t-72.5 180.5q0 108 73 182.5t182 74.5q106 0 178.5 -74.5t72.5 -180.5q0 -108 -73 -182.5t-182 -74.5zM533 241q0 98 -64 164t-160 66q-95 0 -159.5 -66t-64.5 -162q0 -98 64 -164t160 -66q95 0 159.5 66t64.5 162zM206 594q-12 0 -20.5 8.5
t-8.5 20.5t8.5 20.5t20.5 8.5t20.5 -8.5t8.5 -20.5t-8.5 -20.5t-20.5 -8.5zM412 594q-12 0 -20.5 8.5t-8.5 20.5t8.5 20.5t20.5 8.5t20.5 -8.5t8.5 -20.5t-8.5 -20.5t-20.5 -8.5z" />
    <glyph glyph-name="divide" unicode="&#xf7;" 
d="M300 531q-13 0 -22 9t-9 22t9 22t22 9t22 -9t9 -22t-8.5 -22t-22.5 -9zM50 374h500v-28h-500v28zM300 126q-13 0 -22 9t-9 22t9 22t22 9t22 -9t9 -22t-8.5 -22t-22.5 -9z" />
    <glyph glyph-name="oslash" unicode="&#xf8;" horiz-adv-x="618" 
d="M562 243q0 -108 -73 -182.5t-182 -74.5q-41 0 -78 12t-68 35l-67 -85h-34l80 102q-40 36 -62 86t-22 105q0 108 73 182.5t182 74.5q41 0 78 -12t68 -35l67 85h34l-80 -102q40 -36 62 -86t22 -105zM309 471q-95 0 -159.5 -66t-64.5 -162q0 -51 18.5 -95.5t53.5 -76.5
l283 359q-29 20 -62 30.5t-69 10.5zM309 13q95 0 159.5 66t64.5 162q0 51 -18.5 95.5t-53.5 76.5l-283 -359q29 -20 62 -30.5t69 -10.5z" />
    <glyph glyph-name="ugrave" unicode="&#xf9;" 
d="M501 0h-29v112q-47 -64 -96.5 -94t-105.5 -30q-80 0 -128 51.5t-48 141.5v303h29v-301q0 -79 40.5 -123.5t109.5 -44.5q52 0 99.5 30.5t99.5 98.5v340h29v-484zM173 726h39l101 -151h-18z" />
    <glyph glyph-name="uacute" unicode="&#xfa;" 
d="M501 0h-29v112q-47 -64 -96.5 -94t-105.5 -30q-80 0 -128 51.5t-48 141.5v303h29v-301q0 -79 40.5 -123.5t109.5 -44.5q52 0 99.5 30.5t99.5 98.5v340h29v-484zM384 726h39l-122 -151h-18z" />
    <glyph glyph-name="ucircumflex" unicode="&#xfb;" 
d="M501 0h-29v112q-47 -64 -96.5 -94t-105.5 -30q-80 0 -128 51.5t-48 141.5v303h29v-301q0 -79 40.5 -123.5t109.5 -44.5q52 0 99.5 30.5t99.5 98.5v340h29v-484zM436 585h-21l-118 122l-117 -122h-20l123 151h30z" />
    <glyph glyph-name="udieresis" unicode="&#xfc;" 
d="M501 0h-29v112q-47 -64 -96.5 -94t-105.5 -30q-80 0 -128 51.5t-48 141.5v303h29v-301q0 -79 40.5 -123.5t109.5 -44.5q52 0 99.5 30.5t99.5 98.5v340h29v-484zM195 594q-12 0 -20.5 8.5t-8.5 20.5t8.5 20.5t20.5 8.5t20.5 -8.5t8.5 -20.5t-8.5 -20.5t-20.5 -8.5z
M401 594q-12 0 -20.5 8.5t-8.5 20.5t8.5 20.5t20.5 8.5t20.5 -8.5t8.5 -20.5t-8.5 -20.5t-20.5 -8.5z" />
    <glyph glyph-name="yacute" unicode="&#xfd;" horiz-adv-x="510" 
d="M483 484l-230 -529q-33 -77 -68.5 -110.5t-85.5 -33.5q-19 0 -36.5 5.5t-34.5 16.5l-6 32l2 1q20 -14 38.5 -21t36.5 -7q39 0 69.5 29.5t57.5 93.5l24 56l-220 467h32l203 -437l186 437h32zM339 731h39l-122 -151h-18z" />
    <glyph glyph-name="thorn" unicode="&#xfe;" horiz-adv-x="615" 
d="M558 248q0 -111 -69 -184t-174 -73q-47 0 -93.5 19.5t-93.5 58.5v-253h-29v919l29 15v-353q48 50 96.5 73.5t102.5 23.5q97 0 164 -69.5t67 -176.5zM529 248q0 95 -60 157t-145 62q-49 0 -97 -24.5t-99 -75.5v-265q49 -42 96 -63t91 -21q90 0 152 67t62 163z" />
    <glyph glyph-name="ydieresis" unicode="&#xff;" horiz-adv-x="510" 
d="M483 484l-230 -529q-33 -77 -68.5 -110.5t-85.5 -33.5q-19 0 -36.5 5.5t-34.5 16.5l-6 32l2 1q20 -14 38.5 -21t36.5 -7q39 0 69.5 29.5t57.5 93.5l24 56l-220 467h32l203 -437l186 437h32zM150 594q-12 0 -20.5 8.5t-8.5 20.5t8.5 20.5t20.5 8.5t20.5 -8.5t8.5 -20.5
t-8.5 -20.5t-20.5 -8.5zM356 594q-12 0 -20.5 8.5t-8.5 20.5t8.5 20.5t20.5 8.5t20.5 -8.5t8.5 -20.5t-8.5 -20.5t-20.5 -8.5z" />
    <glyph glyph-name="Amacron" unicode="&#x100;" horiz-adv-x="768" 
d="M73 0h-31l326 707h32l326 -707h-34l-96 209h-427zM383 676l-201 -439h402zM215 802v26h338v-26h-338z" />
    <glyph glyph-name="amacron" unicode="&#x101;" horiz-adv-x="554" 
d="M456 9l-29 -15v99q-71 -56 -123.5 -80t-103.5 -24q-62 0 -103 34.5t-41 89.5q0 85 90 125.5t281 45.5v28q0 75 -37.5 116t-106.5 41q-45 0 -90.5 -18t-92.5 -55l-2 1l7 37q45 31 89.5 46.5t91.5 15.5q79 0 124.5 -48.5t45.5 -133.5v-305zM85 114q0 -43 33.5 -70t83.5 -27
q47 0 101.5 25.5t123.5 79.5v136q-176 -5 -259 -39.5t-83 -104.5zM114 617v26h318v-26h-318z" />
    <glyph glyph-name="Abreve" unicode="&#x102;" horiz-adv-x="768" 
d="M73 0h-31l326 707h32l326 -707h-34l-96 209h-427zM383 676l-201 -439h402zM384 778q-49 0 -86.5 24.5t-79.5 92.5l11 7q44 -54 79 -73.5t76 -19.5t76 19.5t79 73.5l11 -7q-42 -68 -79.5 -92.5t-86.5 -24.5z" />
    <glyph glyph-name="abreve" unicode="&#x103;" horiz-adv-x="554" 
d="M456 9l-29 -15v99q-71 -56 -123.5 -80t-103.5 -24q-62 0 -103 34.5t-41 89.5q0 85 90 125.5t281 45.5v28q0 75 -37.5 116t-106.5 41q-45 0 -90.5 -18t-92.5 -55l-2 1l7 37q45 31 89.5 46.5t91.5 15.5q79 0 124.5 -48.5t45.5 -133.5v-305zM85 114q0 -43 33.5 -70t83.5 -27
q47 0 101.5 25.5t123.5 79.5v136q-176 -5 -259 -39.5t-83 -104.5zM273 584q-46 0 -80 29.5t-70 109.5l15 7q33 -64 63.5 -88.5t71.5 -24.5t71.5 24.5t63.5 88.5l15 -7q-36 -80 -70 -109.5t-80 -29.5z" />
    <glyph glyph-name="Aogonek" unicode="&#x104;" horiz-adv-x="768" 
d="M73 0h-31l326 707h32l326 -707h-22l-31 -51q-17 -29 -24 -46t-7 -31q0 -18 14 -27.5t41 -9.5h65l-5 -17q-20 -4 -40.5 -6.5t-34.5 -2.5q-35 0 -54.5 15.5t-19.5 44.5q0 15 9 33t34 54l37 53l-92 200h-427zM383 676l-201 -439h402z" />
    <glyph glyph-name="aogonek" unicode="&#x105;" horiz-adv-x="554" 
d="M503 -165l-5 -17q-20 -4 -40.5 -6.5t-34.5 -2.5q-35 0 -54.5 15.5t-19.5 44.5q0 15 9 33t34 54l35 50v87q-71 -56 -123.5 -80t-103.5 -24q-62 0 -103 34.5t-41 89.5q0 85 90 125.5t281 45.5v28q0 75 -37.5 116t-106.5 41q-45 0 -90.5 -18t-92.5 -55l-2 1l7 37
q45 31 89.5 46.5t91.5 15.5q79 0 124.5 -48.5t45.5 -133.5v-305l-8 -4l-34 -56q-17 -29 -24 -46t-7 -31q0 -18 14 -27.5t41 -9.5h65zM85 114q0 -43 33.5 -70t83.5 -27q47 0 101.5 25.5t123.5 79.5v136q-176 -5 -259 -39.5t-83 -104.5z" />
    <glyph glyph-name="Cacute" unicode="&#x106;" horiz-adv-x="740" 
d="M408 -12q-69 0 -133.5 28.5t-113.5 79.5q-46 50 -71 115t-25 138q0 151 104 257t250 106q73 0 140 -28.5t112 -77.5v-37l-2 -1q-53 57 -117 86.5t-135 29.5q-63 0 -122.5 -26.5t-105.5 -74.5q-45 -47 -69.5 -107t-24.5 -125q0 -67 23 -127t66 -106q44 -49 103.5 -75.5
t122.5 -26.5q75 0 142.5 32t123.5 93l2 -1l-6 -41q-52 -54 -120 -82.5t-144 -28.5zM502 922h42l-126 -141h-18z" />
    <glyph glyph-name="cacute" unicode="&#x107;" horiz-adv-x="537" 
d="M485 90l-8 -37q-43 -33 -87.5 -49t-91.5 -16q-104 0 -173 72.5t-69 181.5q0 106 72.5 180.5t177.5 74.5q48 0 92 -16.5t81 -49.5v-34h-2q-37 36 -81 54.5t-91 18.5q-92 0 -156 -66.5t-64 -159.5q0 -99 60.5 -164t154.5 -65q45 0 90.5 19t92.5 57zM381 736h39l-122 -151
h-18z" />
    <glyph glyph-name="Ccircumflex" unicode="&#x108;" horiz-adv-x="740" 
d="M408 -12q-69 0 -133.5 28.5t-113.5 79.5q-46 50 -71 115t-25 138q0 151 104 257t250 106q73 0 140 -28.5t112 -77.5v-37l-2 -1q-53 57 -117 86.5t-135 29.5q-63 0 -122.5 -26.5t-105.5 -74.5q-45 -47 -69.5 -107t-24.5 -125q0 -67 23 -127t66 -106q44 -49 103.5 -75.5
t122.5 -26.5q75 0 142.5 32t123.5 93l2 -1l-6 -41q-52 -54 -120 -82.5t-144 -28.5zM563 776h-24l-125 113l-125 -113h-22l137 141h22z" />
    <glyph glyph-name="ccircumflex" unicode="&#x109;" horiz-adv-x="537" 
d="M485 90l-8 -37q-43 -33 -87.5 -49t-91.5 -16q-104 0 -173 72.5t-69 181.5q0 106 72.5 180.5t177.5 74.5q48 0 92 -16.5t81 -49.5v-34h-2q-37 36 -81 54.5t-91 18.5q-92 0 -156 -66.5t-64 -159.5q0 -99 60.5 -164t154.5 -65q45 0 90.5 19t92.5 57zM433 580h-21l-118 122
l-117 -122h-20l123 151h30z" />
    <glyph glyph-name="Cdotaccent" unicode="&#x10a;" horiz-adv-x="740" 
d="M408 -12q-69 0 -133.5 28.5t-113.5 79.5q-46 50 -71 115t-25 138q0 151 104 257t250 106q73 0 140 -28.5t112 -77.5v-37l-2 -1q-53 57 -117 86.5t-135 29.5q-63 0 -122.5 -26.5t-105.5 -74.5q-45 -47 -69.5 -107t-24.5 -125q0 -67 23 -127t66 -106q44 -49 103.5 -75.5
t122.5 -26.5q75 0 142.5 32t123.5 93l2 -1l-6 -41q-52 -54 -120 -82.5t-144 -28.5zM415 842q12 0 20.5 -8.5t8.5 -20.5t-8.5 -20.5t-20.5 -8.5t-20.5 8.5t-8.5 20.5t8.5 20.5t20.5 8.5z" />
    <glyph glyph-name="cdotaccent" unicode="&#x10b;" horiz-adv-x="537" 
d="M485 90l-8 -37q-43 -33 -87.5 -49t-91.5 -16q-104 0 -173 72.5t-69 181.5q0 106 72.5 180.5t177.5 74.5q48 0 92 -16.5t81 -49.5v-34h-2q-37 36 -81 54.5t-91 18.5q-92 0 -156 -66.5t-64 -159.5q0 -99 60.5 -164t154.5 -65q45 0 90.5 19t92.5 57zM295 594
q-12 0 -20.5 8.5t-8.5 20.5t8.5 20.5t20.5 8.5t20.5 -8.5t8.5 -20.5t-8.5 -20.5t-20.5 -8.5z" />
    <glyph glyph-name="Ccaron" unicode="&#x10c;" horiz-adv-x="740" 
d="M408 -12q-69 0 -133.5 28.5t-113.5 79.5q-46 50 -71 115t-25 138q0 151 104 257t250 106q73 0 140 -28.5t112 -77.5v-37l-2 -1q-53 57 -117 86.5t-135 29.5q-63 0 -122.5 -26.5t-105.5 -74.5q-45 -47 -69.5 -107t-24.5 -125q0 -67 23 -127t66 -106q44 -49 103.5 -75.5
t122.5 -26.5q75 0 142.5 32t123.5 93l2 -1l-6 -41q-52 -54 -120 -82.5t-144 -28.5zM541 922h22l-137 -141h-22l-137 141h24l125 -113z" />
    <glyph glyph-name="ccaron" unicode="&#x10d;" horiz-adv-x="537" 
d="M485 90l-8 -37q-43 -33 -87.5 -49t-91.5 -16q-104 0 -173 72.5t-69 181.5q0 106 72.5 180.5t177.5 74.5q48 0 92 -16.5t81 -49.5v-34h-2q-37 36 -81 54.5t-91 18.5q-92 0 -156 -66.5t-64 -159.5q0 -99 60.5 -164t154.5 -65q45 0 90.5 19t92.5 57zM413 736h20l-123 -151
h-30l-123 151h21l118 -122z" />
    <glyph glyph-name="Dcaron" unicode="&#x10e;" horiz-adv-x="780" 
d="M325 0h-212v700h212q175 0 282.5 -95.5t107.5 -252.5q0 -160 -108 -256t-282 -96zM685 349q0 147 -100.5 235t-261.5 88h-180v-644h184q157 0 257.5 88.5t100.5 232.5zM500 917h22l-137 -141h-22l-137 141h24l125 -113z" />
    <glyph glyph-name="dcaron" unicode="&#x10f;" horiz-adv-x="615" 
d="M516 0h-29v87q-48 -50 -96.5 -73.5t-102.5 -23.5q-97 0 -164 69.5t-67 176.5q0 111 69 184t174 73q47 0 93.5 -19.5t93.5 -58.5v320l29 15v-750zM300 466q-90 0 -152 -67t-62 -163q0 -95 60 -157t145 -62q49 0 97 24.5t99 75.5v265q-49 42 -96 63t-91 21zM604 547h-19
q14 32 19.5 55t5.5 46t-5.5 45.5t-19.5 53.5h34q8 -22 12 -42.5t4 -41.5q0 -27 -7 -54t-24 -62z" />
    <glyph glyph-name="Dcroat" unicode="&#x110;" horiz-adv-x="800" 
d="M12 346v28h121v326h212q175 0 282.5 -95.5t107.5 -252.5q0 -160 -108 -256t-282 -96h-212v346h-121zM377 374v-28h-214v-318h184q157 0 257.5 88.5t100.5 232.5q0 147 -100.5 235t-261.5 88h-180v-298h214z" />
    <glyph glyph-name="dcroat" unicode="&#x111;" horiz-adv-x="615" 
d="M516 0h-29v87q-48 -50 -96.5 -73.5t-102.5 -23.5q-97 0 -164 69.5t-67 176.5q0 111 69 184t174 73q47 0 93.5 -19.5t93.5 -58.5v182h-190v27h190v111l29 15v-126h84v-27h-84v-597zM300 466q-90 0 -152 -67t-62 -163q0 -95 60 -157t145 -62q49 0 97 24.5t99 75.5v265
q-49 42 -96 63t-91 21z" />
    <glyph glyph-name="Emacron" unicode="&#x112;" horiz-adv-x="549" 
d="M483 0h-370v700h367l14 -28h-351v-302h303v-28h-303v-314h354zM136 802v26h338v-26h-338z" />
    <glyph glyph-name="emacron" unicode="&#x113;" horiz-adv-x="555" 
d="M479 78l-12 -38q-42 -26 -84 -38.5t-85 -12.5q-108 0 -175 70.5t-67 186.5q0 106 65 179t162 73q98 0 157 -69t59 -178v-14.5t-1 -8.5h-412q6 -97 64.5 -154.5t149.5 -57.5q43 0 88 16t89 47zM281 471q-81 0 -138.5 -64.5t-57.5 -151.5h385q-3 97 -53.5 156.5
t-135.5 59.5zM126 617v26h318v-26h-318z" />
    <glyph glyph-name="Ebreve" unicode="&#x114;" horiz-adv-x="549" 
d="M483 0h-370v700h367l14 -28h-351v-302h303v-28h-303v-314h354zM305 778q-49 0 -86.5 24.5t-79.5 92.5l11 7q44 -54 79 -73.5t76 -19.5t76 19.5t79 73.5l11 -7q-42 -68 -79.5 -92.5t-86.5 -24.5z" />
    <glyph glyph-name="ebreve" unicode="&#x115;" horiz-adv-x="555" 
d="M479 78l-12 -38q-42 -26 -84 -38.5t-85 -12.5q-108 0 -175 70.5t-67 186.5q0 106 65 179t162 73q98 0 157 -69t59 -178v-14.5t-1 -8.5h-412q6 -97 64.5 -154.5t149.5 -57.5q43 0 88 16t89 47zM281 471q-81 0 -138.5 -64.5t-57.5 -151.5h385q-3 97 -53.5 156.5
t-135.5 59.5zM285 584q-46 0 -80 29.5t-70 109.5l15 7q33 -64 63.5 -88.5t71.5 -24.5t71.5 24.5t63.5 88.5l15 -7q-36 -80 -70 -109.5t-80 -29.5z" />
    <glyph glyph-name="Edotaccent" unicode="&#x116;" horiz-adv-x="549" 
d="M483 0h-370v700h367l14 -28h-351v-302h303v-28h-303v-314h354zM305 837q12 0 20.5 -8.5t8.5 -20.5t-8.5 -20.5t-20.5 -8.5t-20.5 8.5t-8.5 20.5t8.5 20.5t20.5 8.5z" />
    <glyph glyph-name="edotaccent" unicode="&#x117;" horiz-adv-x="555" 
d="M479 78l-12 -38q-42 -26 -84 -38.5t-85 -12.5q-108 0 -175 70.5t-67 186.5q0 106 65 179t162 73q98 0 157 -69t59 -178v-14.5t-1 -8.5h-412q6 -97 64.5 -154.5t149.5 -57.5q43 0 88 16t89 47zM281 471q-81 0 -138.5 -64.5t-57.5 -151.5h385q-3 97 -53.5 156.5
t-135.5 59.5zM285 594q-12 0 -20.5 8.5t-8.5 20.5t8.5 20.5t20.5 8.5t20.5 -8.5t8.5 -20.5t-8.5 -20.5t-20.5 -8.5z" />
    <glyph glyph-name="Eogonek" unicode="&#x118;" horiz-adv-x="549" 
d="M507 -165l-5 -17q-20 -4 -40.5 -6.5t-34.5 -2.5q-35 0 -54.5 15.5t-19.5 44.5q0 15 9 33t34 54l31 44h-314v700h367l14 -28h-351v-302h303v-28h-303v-314h354l-14 -28h-34l-31 -51q-17 -29 -24 -46t-7 -31q0 -18 14 -27.5t41 -9.5h65z" />
    <glyph glyph-name="eogonek" unicode="&#x119;" horiz-adv-x="555" 
d="M466 -165l-5 -17q-21 -4 -41 -6.5t-36 -2.5q-31 0 -49 14.5t-18 39.5q0 19 10.5 37.5t44.5 56.5l53 61q-29 -14 -61.5 -21.5t-65.5 -7.5q-108 0 -175 70.5t-67 186.5q0 106 65 179t162 73q98 0 157 -69t59 -178v-14.5t-1 -8.5h-412q6 -97 64.5 -154.5t149.5 -57.5
q42 0 86.5 15.5t90.5 46.5l2 -1l-12 -37l-75 -94q-23 -30 -32 -46.5t-9 -30.5q0 -17 11.5 -25.5t34.5 -8.5h69zM281 471q-81 0 -138.5 -64.5t-57.5 -151.5h385q-3 97 -53.5 156.5t-135.5 59.5z" />
    <glyph glyph-name="Ecaron" unicode="&#x11a;" horiz-adv-x="549" 
d="M483 0h-370v700h367l14 -28h-351v-302h303v-28h-303v-314h354zM431 917h22l-137 -141h-22l-137 141h24l125 -113z" />
    <glyph glyph-name="ecaron" unicode="&#x11b;" horiz-adv-x="555" 
d="M479 78l-12 -38q-42 -26 -84 -38.5t-85 -12.5q-108 0 -175 70.5t-67 186.5q0 106 65 179t162 73q98 0 157 -69t59 -178v-14.5t-1 -8.5h-412q6 -97 64.5 -154.5t149.5 -57.5q43 0 88 16t89 47zM281 471q-81 0 -138.5 -64.5t-57.5 -151.5h385q-3 97 -53.5 156.5
t-135.5 59.5zM403 736h20l-123 -151h-30l-123 151h21l118 -122z" />
    <glyph glyph-name="Gcircumflex" unicode="&#x11c;" horiz-adv-x="790" 
d="M684 342v-280q-73 -40 -131 -56t-125 -16q-157 0 -260 99t-103 256q0 160 107.5 263t270.5 103q63 0 123.5 -18.5t109.5 -52.5v-34h-2q-52 37 -111.5 57t-121.5 20q-147 0 -246.5 -96t-99.5 -240q0 -147 95.5 -238t241.5 -91q60 0 112 14t111 47v235h-257v28h286z
M573 776h-24l-125 113l-125 -113h-22l137 141h22z" />
    <glyph glyph-name="gcircumflex" unicode="&#x11d;" horiz-adv-x="614" 
d="M515 484v-432q0 -112 -65 -176.5t-172 -64.5q-49 0 -96.5 12t-90.5 35l-12 37l2 1q47 -29 97 -43.5t101 -14.5q92 0 149.5 57.5t57.5 154.5v61q-48 -50 -96.5 -73.5t-102.5 -23.5q-101 0 -166 66t-65 168q0 103 69.5 174t170.5 71q51 0 97.5 -19.5t93.5 -59.5l13 70h15z
M296 466q-86 0 -148.5 -64.5t-62.5 -153.5q0 -90 58 -148.5t147 -58.5q49 0 97 24.5t99 75.5v241q-50 43 -96 63.5t-94 20.5zM443 585h-21l-118 122l-117 -122h-20l123 151h30z" />
    <glyph glyph-name="Gbreve" unicode="&#x11e;" horiz-adv-x="790" 
d="M684 342v-280q-73 -40 -131 -56t-125 -16q-157 0 -260 99t-103 256q0 160 107.5 263t270.5 103q63 0 123.5 -18.5t109.5 -52.5v-34h-2q-52 37 -111.5 57t-121.5 20q-147 0 -246.5 -96t-99.5 -240q0 -147 95.5 -238t241.5 -91q60 0 112 14t111 47v235h-257v28h286z
M425 783q-49 0 -86.5 24.5t-79.5 92.5l11 7q44 -54 79 -73.5t76 -19.5t76 19.5t79 73.5l11 -7q-42 -68 -79.5 -92.5t-86.5 -24.5z" />
    <glyph glyph-name="gbreve" unicode="&#x11f;" horiz-adv-x="614" 
d="M515 484v-432q0 -112 -65 -176.5t-172 -64.5q-49 0 -96.5 12t-90.5 35l-12 37l2 1q47 -29 97 -43.5t101 -14.5q92 0 149.5 57.5t57.5 154.5v61q-48 -50 -96.5 -73.5t-102.5 -23.5q-101 0 -166 66t-65 168q0 103 69.5 174t170.5 71q51 0 97.5 -19.5t93.5 -59.5l13 70h15z
M296 466q-86 0 -148.5 -64.5t-62.5 -153.5q0 -90 58 -148.5t147 -58.5q49 0 97 24.5t99 75.5v241q-50 43 -96 63.5t-94 20.5zM305 584q-46 0 -80 29.5t-70 109.5l15 7q33 -64 63.5 -88.5t71.5 -24.5t71.5 24.5t63.5 88.5l15 -7q-36 -80 -70 -109.5t-80 -29.5z" />
    <glyph glyph-name="Gdotaccent" unicode="&#x120;" horiz-adv-x="790" 
d="M684 342v-280q-73 -40 -131 -56t-125 -16q-157 0 -260 99t-103 256q0 160 107.5 263t270.5 103q63 0 123.5 -18.5t109.5 -52.5v-34h-2q-52 37 -111.5 57t-121.5 20q-147 0 -246.5 -96t-99.5 -240q0 -147 95.5 -238t241.5 -91q60 0 112 14t111 47v235h-257v28h286z
M425 842q12 0 20.5 -8.5t8.5 -20.5t-8.5 -20.5t-20.5 -8.5t-20.5 8.5t-8.5 20.5t8.5 20.5t20.5 8.5z" />
    <glyph glyph-name="gdotaccent" unicode="&#x121;" horiz-adv-x="614" 
d="M515 484v-432q0 -112 -65 -176.5t-172 -64.5q-49 0 -96.5 12t-90.5 35l-12 37l2 1q47 -29 97 -43.5t101 -14.5q92 0 149.5 57.5t57.5 154.5v61q-48 -50 -96.5 -73.5t-102.5 -23.5q-101 0 -166 66t-65 168q0 103 69.5 174t170.5 71q51 0 97.5 -19.5t93.5 -59.5l13 70h15z
M296 466q-86 0 -148.5 -64.5t-62.5 -153.5q0 -90 58 -148.5t147 -58.5q49 0 97 24.5t99 75.5v241q-50 43 -96 63.5t-94 20.5zM305 594q-12 0 -20.5 8.5t-8.5 20.5t8.5 20.5t20.5 8.5t20.5 -8.5t8.5 -20.5t-8.5 -20.5t-20.5 -8.5z" />
    <glyph glyph-name="uni0122" unicode="&#x122;" horiz-adv-x="790" 
d="M684 342v-280q-73 -40 -131 -56t-125 -16q-157 0 -260 99t-103 256q0 160 107.5 263t270.5 103q63 0 123.5 -18.5t109.5 -52.5v-34h-2q-52 37 -111.5 57t-121.5 20q-147 0 -246.5 -96t-99.5 -240q0 -147 95.5 -238t241.5 -91q60 0 112 14t111 47v235h-257v28h286z
M479 -167q0 -24 -17 -48.5t-53 -53.5l-17 7v1q31 28 45 49t14 38q0 19 -11 33t-50 43v1l30 11q33 -23 46 -40.5t13 -40.5z" />
    <glyph glyph-name="uni0123" unicode="&#x123;" horiz-adv-x="614" 
d="M515 484v-432q0 -112 -65 -176.5t-172 -64.5q-49 0 -96.5 12t-90.5 35l-12 37l2 1q47 -29 97 -43.5t101 -14.5q92 0 149.5 57.5t57.5 154.5v61q-48 -50 -96.5 -73.5t-102.5 -23.5q-101 0 -166 66t-65 168q0 103 69.5 174t170.5 71q51 0 97.5 -19.5t93.5 -59.5l13 70h15z
M296 466q-86 0 -148.5 -64.5t-62.5 -153.5q0 -90 58 -148.5t147 -58.5q49 0 97 24.5t99 75.5v241q-50 43 -96 63.5t-94 20.5zM253 665q0 24 17 48.5t53 53.5l17 -7v-1q-31 -28 -45 -49t-14 -38q0 -19 11 -33t50 -43v-1l-30 -11q-33 23 -46 40.5t-13 40.5z" />
    <glyph glyph-name="Hcircumflex" unicode="&#x124;" horiz-adv-x="812" 
d="M699 0h-30v346h-526v-346h-30v700h30v-326h526v326h30v-700zM554 776h-24l-125 113l-125 -113h-22l137 141h22z" />
    <glyph glyph-name="hcircumflex" unicode="&#x125;" 
d="M327 469q-52 0 -99.5 -30.5t-99.5 -98.5v-340h-29v735l29 15v-378q47 64 96.5 94t105.5 30q80 0 128 -51.5t48 -141.5v-303h-29v301q0 79 -40.5 123.5t-109.5 44.5zM252 813h-21l-118 122l-117 -122h-20l123 151h30z" />
    <glyph glyph-name="Hbar" unicode="&#x126;" horiz-adv-x="852" 
d="M719 0h-30v315h-526v-315h-30v540h-121v28h121v132h30v-132h526v132h30v-132h121v-28h-121v-540zM163 540v-197h526v197h-526z" />
    <glyph glyph-name="hbar" unicode="&#x127;" 
d="M327 469q-52 0 -99.5 -30.5t-99.5 -98.5v-340h-29v597h-84v27h84v111l29 15v-126h185v-27h-185v-225q47 64 96.5 94t105.5 30q80 0 128 -51.5t48 -141.5v-303h-29v301q0 79 -40.5 123.5t-109.5 44.5z" />
    <glyph glyph-name="Itilde" unicode="&#x128;" horiz-adv-x="266" 
d="M148 0h-30v700h30v-700zM144 849q35 -28 50.5 -36t26.5 -8q19 0 36 20.5t48 78.5l17 -8q-35 -71 -56.5 -95t-50.5 -24q-14 0 -33 9.5t-60 40.5q-35 28 -50.5 36t-26.5 8q-19 0 -36 -20.5t-48 -78.5l-17 8q35 71 56.5 95t50.5 24q14 0 33 -9.5t60 -40.5z" />
    <glyph glyph-name="itilde" unicode="&#x129;" horiz-adv-x="237" 
d="M133 0h-29v484h29v-484zM129 669q35 -31 50 -40t26 -9q19 0 37.5 23.5t48.5 87.5l17 -8q-36 -78 -57.5 -104t-49.5 -26q-14 0 -33 11t-59 45q-35 31 -50 40t-26 9q-19 0 -37.5 -23.5t-48.5 -87.5l-17 8q36 78 57.5 104t49.5 26q14 0 33 -11t59 -45z" />
    <glyph glyph-name="Imacron" unicode="&#x12a;" horiz-adv-x="266" 
d="M148 0h-30v700h30v-700zM4 802v26h258v-26h-258z" />
    <glyph glyph-name="imacron" unicode="&#x12b;" horiz-adv-x="237" 
d="M133 0h-29v484h29v-484zM-10 617v26h258v-26h-258z" />
    <glyph glyph-name="Ibreve" unicode="&#x12c;" horiz-adv-x="266" 
d="M148 0h-30v700h30v-700zM133 778q-49 0 -86.5 24.5t-79.5 92.5l11 7q44 -54 79 -73.5t76 -19.5t76 19.5t79 73.5l11 -7q-42 -68 -79.5 -92.5t-86.5 -24.5z" />
    <glyph glyph-name="ibreve" unicode="&#x12d;" horiz-adv-x="237" 
d="M133 0h-29v484h29v-484zM119 584q-46 0 -80 29.5t-70 109.5l15 7q33 -64 63.5 -88.5t71.5 -24.5t71.5 24.5t63.5 88.5l15 -7q-36 -80 -70 -109.5t-80 -29.5z" />
    <glyph glyph-name="Iogonek" unicode="&#x12e;" horiz-adv-x="266" 
d="M196 -165l-5 -17q-20 -4 -40.5 -6.5t-34.5 -2.5q-35 0 -54.5 15.5t-19.5 44.5q0 15 9 33t34 54l33 47v697h30v-700h-10l-31 -51q-17 -29 -24 -46t-7 -31q0 -18 14 -27.5t41 -9.5h65z" />
    <glyph glyph-name="iogonek" unicode="&#x12f;" horiz-adv-x="237" 
d="M119 684q12 0 19.5 -8.5t7.5 -20.5t-8 -20.5t-20 -8.5t-19.5 8.5t-7.5 20.5t8 20.5t20 8.5zM181 -165l-5 -17q-20 -4 -40.5 -6.5t-34.5 -2.5q-35 0 -54.5 15.5t-19.5 44.5q0 15 9 33t34 54l34 48v480h29v-484h-10l-31 -51q-17 -29 -24 -46t-7 -31q0 -18 14 -27.5t41 -9.5
h65z" />
    <glyph glyph-name="Idotaccent" unicode="&#x130;" horiz-adv-x="266" 
d="M148 0h-30v700h30v-700zM133 837q12 0 20.5 -8.5t8.5 -20.5t-8.5 -20.5t-20.5 -8.5t-20.5 8.5t-8.5 20.5t8.5 20.5t20.5 8.5z" />
    <glyph glyph-name="dotlessi" unicode="&#x131;" horiz-adv-x="237" 
d="M133 0h-29v484h29v-484z" />
    <glyph glyph-name="Jcircumflex" unicode="&#x134;" horiz-adv-x="444" 
d="M174 19q55 0 88.5 37.5t33.5 98.5v545h30v-545q0 -73 -42 -118.5t-111 -45.5q-34 0 -64 11.5t-61 35.5l-8 41l2 1q32 -30 65 -45.5t67 -15.5zM459 772h-24l-125 113l-125 -113h-22l137 141h22z" />
    <glyph glyph-name="jcircumflex" unicode="&#x135;" horiz-adv-x="239" 
d="M106 484h29v-557q0 -53 -31 -84.5t-81 -31.5q-13 0 -25 2.5t-23 7.5l-5 28l2 1q13 -6 26 -9t26 -3q36 0 59 24t23 64v558zM257 577h-21l-118 122l-117 -122h-20l123 151h30z" />
    <glyph glyph-name="uni0136" unicode="&#x136;" horiz-adv-x="665" 
d="M632 0h-44l-396 346h-49v-346h-30v700h30v-326h52l388 326h42v-2l-405 -338l412 -358v-2zM412 -157q0 -24 -17 -48.5t-53 -53.5l-17 7v1q31 28 45 49t14 38q0 19 -11 33t-50 43v1l30 11q33 -23 46 -40.5t13 -40.5z" />
    <glyph glyph-name="uni0137" unicode="&#x137;" horiz-adv-x="507" 
d="M481 0h-42l-273 232h-38v-232h-29v735l29 15v-491h39l262 225h41v-2l-278 -235l289 -245v-2zM327 -157q0 -24 -17 -48.5t-53 -53.5l-17 7v1q31 28 45 49t14 38q0 19 -11 33t-50 43v1l30 11q33 -23 46 -40.5t13 -40.5z" />
    <glyph glyph-name="Lacute" unicode="&#x139;" horiz-adv-x="511" 
d="M487 0h-374v700h30v-672h344v-28zM214 917h42l-126 -141h-18z" />
    <glyph glyph-name="lacute" unicode="&#x13a;" horiz-adv-x="237" 
d="M133 0h-29v735l29 15v-750zM205 972h39l-122 -151h-18z" />
    <glyph glyph-name="uni013B" unicode="&#x13b;" horiz-adv-x="511" 
d="M487 0h-374v700h30v-672h344v-28zM352 -162q0 -24 -17 -48.5t-53 -53.5l-17 7v1q31 28 45 49t14 38q0 19 -11 33t-50 43v1l30 11q33 -23 46 -40.5t13 -40.5z" />
    <glyph glyph-name="uni013C" unicode="&#x13c;" horiz-adv-x="237" 
d="M133 0h-29v735l29 15v-750zM171 -162q0 -24 -17 -48.5t-53 -53.5l-17 7v1q31 28 45 49t14 38q0 19 -11 33t-50 43v1l30 11q33 -23 46 -40.5t13 -40.5z" />
    <glyph glyph-name="Lcaron" unicode="&#x13d;" horiz-adv-x="511" 
d="M487 0h-374v700h30v-672h344v-28zM237 540h-19q14 32 19.5 55t5.5 46t-5.5 45.5t-19.5 53.5h34q8 -22 12 -42.5t4 -41.5q0 -27 -7 -54t-24 -62z" />
    <glyph glyph-name="lcaron" unicode="&#x13e;" horiz-adv-x="237" 
d="M133 0h-29v735l29 15v-750zM221 547h-19q14 32 19.5 55t5.5 46t-5.5 45.5t-19.5 53.5h34q8 -22 12 -42.5t4 -41.5q0 -27 -7 -54t-24 -62z" />
    <glyph glyph-name="Lslash" unicode="&#x141;" horiz-adv-x="531" 
d="M163 28h344v-28h-374v296l-119 -89h-2v33l121 89v371h30v-349l189 140h2v-33l-191 -140v-290z" />
    <glyph glyph-name="lslash" unicode="&#x142;" horiz-adv-x="277" 
d="M245 474v-31l-92 -77v-366h-29v342l-90 -75h-2v31l92 76v361l29 15v-352l90 76h2z" />
    <glyph glyph-name="Nacute" unicode="&#x143;" horiz-adv-x="828" 
d="M142 0h-29v700h29l544 -639v639h29v-702h-12l-561 658v-656zM521 902h42l-126 -141h-18z" />
    <glyph glyph-name="nacute" unicode="&#x144;" 
d="M327 469q-52 0 -99.5 -30.5t-99.5 -98.5v-340h-29v475l29 15v-118q47 64 96.5 94t105.5 30q80 0 128 -51.5t48 -141.5v-303h-29v301q0 79 -40.5 123.5t-109.5 44.5zM389 736h39l-122 -151h-18z" />
    <glyph glyph-name="uni0145" unicode="&#x145;" horiz-adv-x="828" 
d="M142 0h-29v700h29l544 -639v639h29v-702h-12l-561 658v-656zM456 -147q0 -24 -17 -48.5t-53 -53.5l-17 7v1q31 28 45 49t14 38q0 19 -11 33t-50 43v1l30 11q33 -23 46 -40.5t13 -40.5z" />
    <glyph glyph-name="uni0146" unicode="&#x146;" 
d="M327 469q-52 0 -99.5 -30.5t-99.5 -98.5v-340h-29v475l29 15v-118q47 64 96.5 94t105.5 30q80 0 128 -51.5t48 -141.5v-303h-29v301q0 79 -40.5 123.5t-109.5 44.5zM355 -152q0 -24 -17 -48.5t-53 -53.5l-17 7v1q31 28 45 49t14 38q0 19 -11 33t-50 43v1l30 11
q33 -23 46 -40.5t13 -40.5z" />
    <glyph glyph-name="Ncaron" unicode="&#x147;" horiz-adv-x="828" 
d="M142 0h-29v700h29l544 -639v639h29v-702h-12l-561 658v-656zM560 902h22l-137 -141h-22l-137 141h24l125 -113z" />
    <glyph glyph-name="ncaron" unicode="&#x148;" 
d="M327 469q-52 0 -99.5 -30.5t-99.5 -98.5v-340h-29v475l29 15v-118q47 64 96.5 94t105.5 30q80 0 128 -51.5t48 -141.5v-303h-29v301q0 79 -40.5 123.5t-109.5 44.5zM421 736h20l-123 -151h-30l-123 151h21l118 -122z" />
    <glyph glyph-name="Eng" unicode="&#x14a;" horiz-adv-x="828" 
d="M142 0h-29v700h29l544 -639v639h29v-694q0 -87 -52 -141t-133 -54q-27 0 -47.5 3.5t-45.5 11.5l-8 34l2 1q26 -11 50 -16.5t51 -5.5q67 0 110.5 46t43.5 120v13l-544 638v-656z" />
    <glyph glyph-name="eng" unicode="&#x14b;" horiz-adv-x="595" 
d="M506 303v-376q0 -53 -31 -84.5t-81 -31.5q-13 0 -25 2.5t-23 7.5l-5 28l2 1q13 -6 26 -9t26 -3q36 0 59 24t23 64v375q0 79 -40.5 123.5t-109.5 44.5q-52 0 -99.5 -30.5t-99.5 -98.5v-340h-29v475l29 15v-118q47 64 96.5 94t105.5 30q80 0 128 -51.5t48 -141.5z" />
    <glyph glyph-name="Omacron" unicode="&#x14c;" horiz-adv-x="850" 
d="M424 -14q-149 0 -254 106t-105 257q0 152 105.5 258.5t255.5 106.5q149 0 254 -106t105 -257q0 -152 -105.5 -258.5t-255.5 -106.5zM424 686q-135 0 -232 -98.5t-97 -236.5q0 -141 97 -239t234 -98q135 0 232 98.5t97 236.5q0 141 -97 239t-234 98zM256 807v26h338v-26
h-338z" />
    <glyph glyph-name="omacron" unicode="&#x14d;" horiz-adv-x="618" 
d="M307 -14q-106 0 -178.5 74.5t-72.5 180.5q0 108 73 182.5t182 74.5q106 0 178.5 -74.5t72.5 -180.5q0 -108 -73 -182.5t-182 -74.5zM533 241q0 98 -64 164t-160 66q-95 0 -159.5 -66t-64.5 -162q0 -98 64 -164t160 -66q95 0 159.5 66t64.5 162zM150 617v26h318v-26h-318z
" />
    <glyph glyph-name="Obreve" unicode="&#x14e;" horiz-adv-x="850" 
d="M424 -14q-149 0 -254 106t-105 257q0 152 105.5 258.5t255.5 106.5q149 0 254 -106t105 -257q0 -152 -105.5 -258.5t-255.5 -106.5zM424 686q-135 0 -232 -98.5t-97 -236.5q0 -141 97 -239t234 -98q135 0 232 98.5t97 236.5q0 141 -97 239t-234 98zM425 783
q-49 0 -86.5 24.5t-79.5 92.5l11 7q44 -54 79 -73.5t76 -19.5t76 19.5t79 73.5l11 -7q-42 -68 -79.5 -92.5t-86.5 -24.5z" />
    <glyph glyph-name="obreve" unicode="&#x14f;" horiz-adv-x="618" 
d="M307 -14q-106 0 -178.5 74.5t-72.5 180.5q0 108 73 182.5t182 74.5q106 0 178.5 -74.5t72.5 -180.5q0 -108 -73 -182.5t-182 -74.5zM533 241q0 98 -64 164t-160 66q-95 0 -159.5 -66t-64.5 -162q0 -98 64 -164t160 -66q95 0 159.5 66t64.5 162zM309 584q-46 0 -80 29.5
t-70 109.5l15 7q33 -64 63.5 -88.5t71.5 -24.5t71.5 24.5t63.5 88.5l15 -7q-36 -80 -70 -109.5t-80 -29.5z" />
    <glyph glyph-name="Ohungarumlaut" unicode="&#x150;" horiz-adv-x="850" 
d="M424 -14q-149 0 -254 106t-105 257q0 152 105.5 258.5t255.5 106.5q149 0 254 -106t105 -257q0 -152 -105.5 -258.5t-255.5 -106.5zM424 686q-135 0 -232 -98.5t-97 -236.5q0 -141 97 -239t234 -98q135 0 232 98.5t97 236.5q0 141 -97 239t-234 98zM413 922h42l-126 -141
h-18zM601 922h42l-126 -141h-18z" />
    <glyph glyph-name="ohungarumlaut" unicode="&#x151;" horiz-adv-x="618" 
d="M307 -14q-106 0 -178.5 74.5t-72.5 180.5q0 108 73 182.5t182 74.5q106 0 178.5 -74.5t72.5 -180.5q0 -108 -73 -182.5t-182 -74.5zM533 241q0 98 -64 164t-160 66q-95 0 -159.5 -66t-64.5 -162q0 -98 64 -164t160 -66q95 0 159.5 66t64.5 162zM303 736h39l-122 -151h-18
zM491 736h39l-122 -151h-18z" />
    <glyph glyph-name="OE" unicode="&#x152;" horiz-adv-x="946" 
d="M65 348q0 160 108 256t282 96h422l14 -28h-351v-302h303v-28h-303v-314h354l-14 -28h-425q-175 0 -282.5 95.5t-107.5 252.5zM95 351q0 -147 100.5 -235t261.5 -88h53v644h-57q-157 0 -257.5 -88.5t-100.5 -232.5z" />
    <glyph glyph-name="oe" unicode="&#x153;" horiz-adv-x="1013" 
d="M756 -11q-84 0 -144.5 44t-84.5 122q-26 -77 -88.5 -123t-142.5 -46q-101 0 -170.5 74.5t-69.5 180.5q0 108 70 182.5t174 74.5q78 0 139.5 -46t86.5 -121q23 76 81.5 121.5t133.5 45.5q98 0 157 -69t59 -178v-14.5t-1 -8.5h-412q6 -97 64.5 -154.5t149.5 -57.5
q41 0 84.5 15.5t92.5 47.5l2 -1l-12 -38q-42 -26 -84 -38.5t-85 -12.5zM512 241q0 98 -61.5 164t-152.5 66t-152 -66t-61 -162q0 -98 61 -164t152 -66t152.5 66t61.5 162zM739 471q-81 0 -138.5 -64.5t-57.5 -151.5h385q-3 97 -53.5 156.5t-135.5 59.5z" />
    <glyph glyph-name="Racute" unicode="&#x154;" horiz-adv-x="598" 
d="M597 0h-40l-282 308h-132v-308h-30v700h173q97 0 156.5 -52t59.5 -141q0 -76 -54.5 -131t-136.5 -66zM472 507q0 75 -51.5 120t-136.5 45h-141v-336h137q79 0 135.5 49t56.5 122zM382 917h42l-126 -141h-18z" />
    <glyph glyph-name="racute" unicode="&#x155;" horiz-adv-x="382" 
d="M318 462q-39 0 -80.5 -29t-109.5 -105v-328h-29v475l29 15v-129q69 79 107 105t81 26q9 0 16.5 -1t14.5 -4l4 -31q-7 3 -15.5 4.5t-17.5 1.5zM287 736h39l-122 -151h-18z" />
    <glyph glyph-name="uni0156" unicode="&#x156;" horiz-adv-x="598" 
d="M597 0h-40l-282 308h-132v-308h-30v700h173q97 0 156.5 -52t59.5 -141q0 -76 -54.5 -131t-136.5 -66zM472 507q0 75 -51.5 120t-136.5 45h-141v-336h137q79 0 135.5 49t56.5 122zM377 -157q0 -24 -17 -48.5t-53 -53.5l-17 7v1q31 28 45 49t14 38q0 19 -11 33t-50 43v1
l30 11q33 -23 46 -40.5t13 -40.5z" />
    <glyph glyph-name="uni0157" unicode="&#x157;" horiz-adv-x="382" 
d="M318 462q-39 0 -80.5 -29t-109.5 -105v-328h-29v475l29 15v-129q69 79 107 105t81 26q9 0 16.5 -1t14.5 -4l4 -31q-7 3 -15.5 4.5t-17.5 1.5zM166 -162q0 -24 -17 -48.5t-53 -53.5l-17 7v1q31 28 45 49t14 38q0 19 -11 33t-50 43v1l30 11q33 -23 46 -40.5t13 -40.5z" />
    <glyph glyph-name="Rcaron" unicode="&#x158;" horiz-adv-x="598" 
d="M597 0h-40l-282 308h-132v-308h-30v700h173q97 0 156.5 -52t59.5 -141q0 -76 -54.5 -131t-136.5 -66zM472 507q0 75 -51.5 120t-136.5 45h-141v-336h137q79 0 135.5 49t56.5 122zM421 917h22l-137 -141h-22l-137 141h24l125 -113z" />
    <glyph glyph-name="rcaron" unicode="&#x159;" horiz-adv-x="382" 
d="M318 462q-39 0 -80.5 -29t-109.5 -105v-328h-29v475l29 15v-129q69 79 107 105t81 26q9 0 16.5 -1t14.5 -4l4 -31q-7 3 -15.5 4.5t-17.5 1.5zM319 736h20l-123 -151h-30l-123 151h21l118 -122z" />
    <glyph glyph-name="Sacute" unicode="&#x15a;" horiz-adv-x="558" 
d="M273 342q-115 54 -153.5 96.5t-38.5 100.5q0 75 56 124t139 49q50 0 92.5 -13t89.5 -45v-35h-2q-43 34 -87 49.5t-95 15.5q-68 0 -115.5 -41t-47.5 -102q0 -47 35 -83.5t144 -88.5q114 -54 154 -98.5t40 -104.5q0 -76 -60 -127t-143 -51q-59 0 -115.5 22t-99.5 62l-11 47
l2 1q48 -51 105.5 -77.5t119.5 -26.5q69 0 120.5 43t51.5 105q0 51 -38 90t-143 88zM366 922h42l-126 -141h-18z" />
    <glyph glyph-name="sacute" unicode="&#x15b;" horiz-adv-x="474" 
d="M246 262q103 -29 138.5 -60t35.5 -80q0 -56 -50.5 -94.5t-123.5 -38.5q-56 0 -107 18.5t-90 52.5l-6 40l2 1q46 -43 95.5 -64t106.5 -21q61 0 102.5 30t41.5 74q0 39 -30 63t-123 51q-106 30 -139.5 59.5t-33.5 77.5q0 55 47 89.5t118 34.5q42 0 83.5 -13.5t78.5 -38.5
v-33h-2q-37 28 -78.5 43t-82.5 15q-58 0 -96.5 -26.5t-38.5 -68.5q0 -38 29.5 -61t122.5 -50zM326 736h39l-122 -151h-18z" />
    <glyph glyph-name="Scircumflex" unicode="&#x15c;" horiz-adv-x="558" 
d="M273 342q-115 54 -153.5 96.5t-38.5 100.5q0 75 56 124t139 49q50 0 92.5 -13t89.5 -45v-35h-2q-43 34 -87 49.5t-95 15.5q-68 0 -115.5 -41t-47.5 -102q0 -47 35 -83.5t144 -88.5q114 -54 154 -98.5t40 -104.5q0 -76 -60 -127t-143 -51q-59 0 -115.5 22t-99.5 62l-11 47
l2 1q48 -51 105.5 -77.5t119.5 -26.5q69 0 120.5 43t51.5 105q0 51 -38 90t-143 88zM427 776h-24l-125 113l-125 -113h-22l137 141h22z" />
    <glyph glyph-name="scircumflex" unicode="&#x15d;" horiz-adv-x="474" 
d="M246 262q103 -29 138.5 -60t35.5 -80q0 -56 -50.5 -94.5t-123.5 -38.5q-56 0 -107 18.5t-90 52.5l-6 40l2 1q46 -43 95.5 -64t106.5 -21q61 0 102.5 30t41.5 74q0 39 -30 63t-123 51q-106 30 -139.5 59.5t-33.5 77.5q0 55 47 89.5t118 34.5q42 0 83.5 -13.5t78.5 -38.5
v-33h-2q-37 28 -78.5 43t-82.5 15q-58 0 -96.5 -26.5t-38.5 -68.5q0 -38 29.5 -61t122.5 -50zM378 580h-21l-118 122l-117 -122h-20l123 151h30z" />
    <glyph glyph-name="uni015E" unicode="&#x15e;" horiz-adv-x="558" 
d="M285 -68q37 0 59.5 -16.5t22.5 -43.5q0 -32 -30.5 -52t-81.5 -20q-18 0 -35 2.5t-36 8.5l-15 29l1 1q22 -9 43 -13t43 -4q39 0 61.5 12.5t22.5 34.5q0 18 -15.5 27.5t-44.5 9.5q-19 0 -35 -2.5t-41 -9.5l-3 4l53 89q-52 5 -101 26.5t-87 56.5l-11 47l2 1
q48 -51 105.5 -77.5t119.5 -26.5q69 0 120.5 43t51.5 105q0 51 -38 90t-143 88q-115 54 -153.5 96.5t-38.5 100.5q0 75 56 124t139 49q50 0 92.5 -13t89.5 -45v-35h-2q-43 34 -87 49.5t-95 15.5q-68 0 -115.5 -41t-47.5 -102q0 -47 35 -83.5t144 -88.5q114 -54 154 -98.5
t40 -104.5q0 -76 -59.5 -127t-142.5 -51l-36 -60q9 2 18 3t21 1z" />
    <glyph glyph-name="uni015F" unicode="&#x15f;" horiz-adv-x="474" 
d="M244 -63q37 0 59.5 -16.5t22.5 -43.5q0 -32 -30.5 -52t-81.5 -20q-18 0 -35 2.5t-36 8.5l-15 29l1 1q22 -9 43 -13t43 -4q39 0 61.5 12.5t22.5 34.5q0 18 -15.5 27.5t-44.5 9.5q-19 0 -35 -2.5t-41 -9.5l-3 4l52 86q-47 5 -89 23t-74 46l-6 40l2 1q46 -43 95.5 -64
t106.5 -21q61 0 102.5 30t41.5 74q0 39 -30 63t-123 51q-106 30 -139.5 59.5t-33.5 77.5q0 55 47 89.5t118 34.5q42 0 83.5 -13.5t78.5 -38.5v-33h-2q-37 28 -78.5 43t-82.5 15q-58 0 -96.5 -26.5t-38.5 -68.5q0 -38 29.5 -61t122.5 -50q103 -29 138.5 -60t35.5 -80
q0 -56 -50.5 -94.5t-123.5 -38.5h-3.5h-3.5l-34 -56q9 2 18 3t21 1z" />
    <glyph glyph-name="Scaron" unicode="&#x160;" horiz-adv-x="558" 
d="M273 342q-115 54 -153.5 96.5t-38.5 100.5q0 75 56 124t139 49q50 0 92.5 -13t89.5 -45v-35h-2q-43 34 -87 49.5t-95 15.5q-68 0 -115.5 -41t-47.5 -102q0 -47 35 -83.5t144 -88.5q114 -54 154 -98.5t40 -104.5q0 -76 -60 -127t-143 -51q-59 0 -115.5 22t-99.5 62l-11 47
l2 1q48 -51 105.5 -77.5t119.5 -26.5q69 0 120.5 43t51.5 105q0 51 -38 90t-143 88zM405 922h22l-137 -141h-22l-137 141h24l125 -113z" />
    <glyph glyph-name="scaron" unicode="&#x161;" horiz-adv-x="474" 
d="M246 262q103 -29 138.5 -60t35.5 -80q0 -56 -50.5 -94.5t-123.5 -38.5q-56 0 -107 18.5t-90 52.5l-6 40l2 1q46 -43 95.5 -64t106.5 -21q61 0 102.5 30t41.5 74q0 39 -30 63t-123 51q-106 30 -139.5 59.5t-33.5 77.5q0 55 47 89.5t118 34.5q42 0 83.5 -13.5t78.5 -38.5
v-33h-2q-37 28 -78.5 43t-82.5 15q-58 0 -96.5 -26.5t-38.5 -68.5q0 -38 29.5 -61t122.5 -50zM358 736h20l-123 -151h-30l-123 151h21l118 -122z" />
    <glyph glyph-name="uni0162" unicode="&#x162;" horiz-adv-x="688" 
d="M354 -63q37 0 59.5 -16.5t22.5 -43.5q0 -32 -30.5 -52t-81.5 -20q-18 0 -35 2.5t-36 8.5l-15 29l1 1q22 -9 43 -13t43 -4q39 0 61.5 12.5t22.5 34.5q0 18 -15.5 27.5t-44.5 9.5q-19 0 -35 -2.5t-41 -9.5l-3 4l59 98v669h-300v28h630v-28h-300v-672h-4l-40 -67q9 2 18 3
t21 1z" />
    <glyph glyph-name="uni0163" unicode="&#x163;" horiz-adv-x="414" 
d="M248 -63q37 0 59.5 -16.5t22.5 -43.5q0 -32 -30.5 -52t-81.5 -20q-18 0 -35 2.5t-36 8.5l-15 29l1 1q22 -9 43 -13t43 -4q39 0 61.5 12.5t22.5 34.5q0 18 -15.5 27.5t-44.5 9.5q-19 0 -35 -2.5t-41 -9.5l-3 4l53 88q-42 9 -67 41.5t-25 80.5v342h-88v27h88v125l29 15
v-140h222v-27h-222v-340q0 -46 27 -73.5t69 -27.5q34 0 66.5 15t63.5 45l2 -1l-10 -39q-27 -23 -59 -35t-65 -12h-2.5h-2.5l-34 -56q9 2 18 3t21 1z" />
    <glyph glyph-name="Tcaron" unicode="&#x164;" horiz-adv-x="688" 
d="M659 700v-28h-300v-672h-30v672h-300v28h630zM470 917h22l-137 -141h-22l-137 141h24l125 -113z" />
    <glyph glyph-name="tcaron" unicode="&#x165;" horiz-adv-x="414" 
d="M382 75l-10 -39q-27 -23 -59 -35t-65 -12q-54 0 -88.5 34.5t-34.5 91.5v342h-88v27h88v125l29 15v-140h222v-27h-222v-340q0 -46 27 -73.5t69 -27.5q34 0 66.5 15t63.5 45zM274 556h-19q14 32 19.5 55t5.5 46t-5.5 45.5t-19.5 53.5h34q8 -22 12 -42.5t4 -41.5
q0 -27 -7 -54t-24 -62z" />
    <glyph glyph-name="Tbar" unicode="&#x166;" horiz-adv-x="688" 
d="M545 375v-28h-186v-347h-30v347h-186v28h186v297h-300v28h630v-28h-300v-297h186z" />
    <glyph glyph-name="tbar" unicode="&#x167;" horiz-adv-x="414" 
d="M382 75l-10 -39q-27 -23 -59 -35t-65 -12q-54 0 -88.5 34.5t-34.5 91.5v147h-88v27h88v168h-88v27h88v125l29 15v-140h222v-27h-222v-168h172v-27h-172v-145q0 -46 27 -73.5t69 -27.5q34 0 66.5 15t63.5 45z" />
    <glyph glyph-name="Utilde" unicode="&#x168;" horiz-adv-x="778" 
d="M389 -12q-130 0 -207.5 79t-77.5 212v421h30v-425q0 -118 70 -188.5t186 -70.5q115 0 185 71t70 190v423h29v-420q0 -134 -77.5 -213t-207.5 -79zM402 849q35 -28 50.5 -36t26.5 -8q19 0 36 20.5t48 78.5l17 -8q-35 -71 -56.5 -95t-50.5 -24q-14 0 -33 9.5t-60 40.5
q-35 28 -50.5 36t-26.5 8q-19 0 -36 -20.5t-48 -78.5l-17 8q35 71 56.5 95t50.5 24q14 0 33 -9.5t60 -40.5z" />
    <glyph glyph-name="utilde" unicode="&#x169;" 
d="M501 0h-29v112q-47 -64 -96.5 -94t-105.5 -30q-80 0 -128 51.5t-48 141.5v303h29v-301q0 -79 40.5 -123.5t109.5 -44.5q52 0 99.5 30.5t99.5 98.5v340h29v-484zM308 669q35 -31 50 -40t26 -9q19 0 37.5 23.5t48.5 87.5l17 -8q-36 -78 -57.5 -104t-49.5 -26q-14 0 -33 11
t-59 45q-35 31 -50 40t-26 9q-19 0 -37.5 -23.5t-48.5 -87.5l-17 8q36 78 57.5 104t49.5 26q14 0 33 -11t59 -45z" />
    <glyph glyph-name="Umacron" unicode="&#x16a;" horiz-adv-x="778" 
d="M389 -12q-130 0 -207.5 79t-77.5 212v421h30v-425q0 -118 70 -188.5t186 -70.5q115 0 185 71t70 190v423h29v-420q0 -134 -77.5 -213t-207.5 -79zM222 802v26h338v-26h-338z" />
    <glyph glyph-name="umacron" unicode="&#x16b;" 
d="M501 0h-29v112q-47 -64 -96.5 -94t-105.5 -30q-80 0 -128 51.5t-48 141.5v303h29v-301q0 -79 40.5 -123.5t109.5 -44.5q52 0 99.5 30.5t99.5 98.5v340h29v-484zM139 617v26h318v-26h-318z" />
    <glyph glyph-name="Ubreve" unicode="&#x16c;" horiz-adv-x="778" 
d="M389 -12q-130 0 -207.5 79t-77.5 212v421h30v-425q0 -118 70 -188.5t186 -70.5q115 0 185 71t70 190v423h29v-420q0 -134 -77.5 -213t-207.5 -79zM391 763q-49 0 -86.5 24.5t-79.5 92.5l11 7q44 -54 79 -73.5t76 -19.5t76 19.5t79 73.5l11 -7q-42 -68 -79.5 -92.5
t-86.5 -24.5z" />
    <glyph glyph-name="ubreve" unicode="&#x16d;" 
d="M501 0h-29v112q-47 -64 -96.5 -94t-105.5 -30q-80 0 -128 51.5t-48 141.5v303h29v-301q0 -79 40.5 -123.5t109.5 -44.5q52 0 99.5 30.5t99.5 98.5v340h29v-484zM298 574q-46 0 -80 29.5t-70 109.5l15 7q33 -64 63.5 -88.5t71.5 -24.5t71.5 24.5t63.5 88.5l15 -7
q-36 -80 -70 -109.5t-80 -29.5z" />
    <glyph glyph-name="Uring" unicode="&#x16e;" horiz-adv-x="778" 
d="M389 -12q-130 0 -207.5 79t-77.5 212v421h30v-425q0 -118 70 -188.5t186 -70.5q115 0 185 71t70 190v423h29v-420q0 -134 -77.5 -213t-207.5 -79zM390 763q-53 0 -88 32.5t-35 80.5t35.5 80.5t88.5 32.5t88.5 -32.5t35.5 -80.5t-36 -80.5t-89 -32.5zM493 876
q0 39 -29.5 66t-73.5 27q-42 0 -71.5 -27t-29.5 -66t29 -66t73 -27q43 0 72.5 27t29.5 66z" />
    <glyph glyph-name="uring" unicode="&#x16f;" 
d="M501 0h-29v112q-47 -64 -96.5 -94t-105.5 -30q-80 0 -128 51.5t-48 141.5v303h29v-301q0 -79 40.5 -123.5t109.5 -44.5q52 0 99.5 30.5t99.5 98.5v340h29v-484zM298 574q-45 0 -75 30.5t-30 75.5t30.5 75.5t75.5 30.5q46 0 76 -30.5t30 -75.5t-30.5 -75.5t-76.5 -30.5z
M383 680q0 36 -24.5 61t-60.5 25q-35 0 -59 -25t-24 -61t24 -61t60 -25t60 25t24 61z" />
    <glyph glyph-name="Uhungarumlaut" unicode="&#x170;" horiz-adv-x="778" 
d="M389 -12q-130 0 -207.5 79t-77.5 212v421h30v-425q0 -118 70 -188.5t186 -70.5q115 0 185 71t70 190v423h29v-420q0 -134 -77.5 -213t-207.5 -79zM379 917h42l-126 -141h-18zM567 917h42l-126 -141h-18z" />
    <glyph glyph-name="uhungarumlaut" unicode="&#x171;" 
d="M501 0h-29v112q-47 -64 -96.5 -94t-105.5 -30q-80 0 -128 51.5t-48 141.5v303h29v-301q0 -79 40.5 -123.5t109.5 -44.5q52 0 99.5 30.5t99.5 98.5v340h29v-484zM292 736h39l-122 -151h-18zM480 736h39l-122 -151h-18z" />
    <glyph glyph-name="Uogonek" unicode="&#x172;" horiz-adv-x="778" 
d="M460 -170l-5 -17q-20 -4 -40.5 -6.5t-34.5 -2.5q-35 0 -54.5 15.5t-19.5 44.5q0 15 9 33t34 54l26 37q-124 5 -197.5 83.5t-73.5 207.5v421h30v-425q0 -118 70 -188.5t186 -70.5q115 0 185 71t70 190v423h29v-420q0 -131 -75 -210t-201 -82l-27 -44q-17 -29 -24 -46
t-7 -31q0 -18 14 -27.5t41 -9.5h65z" />
    <glyph glyph-name="uogonek" unicode="&#x173;" 
d="M549 -165l-5 -17q-20 -4 -40.5 -6.5t-34.5 -2.5q-35 0 -54.5 15.5t-19.5 44.5q0 15 9 33t34 54l34 48v108q-47 -64 -96.5 -94t-105.5 -30q-80 0 -128 51.5t-48 141.5v303h29v-301q0 -79 40.5 -123.5t109.5 -44.5q52 0 99.5 30.5t99.5 98.5v340h29v-484h-10l-31 -51
q-17 -29 -24 -46t-7 -31q0 -18 14 -27.5t41 -9.5h65z" />
    <glyph glyph-name="Wcircumflex" unicode="&#x174;" horiz-adv-x="1190" 
d="M1110 700h30l-254 -708h-29l-262 648l-262 -648h-29l-254 708h32l238 -669l271 670h10l271 -670zM743 776h-24l-125 113l-125 -113h-22l137 141h22z" />
    <glyph glyph-name="wcircumflex" unicode="&#x175;" horiz-adv-x="853" 
d="M786 484h30l-196 -492h-24l-170 434l-170 -434h-23l-196 492h32l176 -453l177 455h10l178 -456zM565 585h-21l-118 122l-117 -122h-20l123 151h30z" />
    <glyph glyph-name="Ycircumflex" unicode="&#x176;" horiz-adv-x="648" 
d="M584 700h35l-278 -374v-326h-30v323l-282 377h37l259 -349zM472 776h-24l-125 113l-125 -113h-22l137 141h22z" />
    <glyph glyph-name="ycircumflex" unicode="&#x177;" horiz-adv-x="510" 
d="M483 484l-230 -529q-33 -77 -68.5 -110.5t-85.5 -33.5q-19 0 -36.5 5.5t-34.5 16.5l-6 32l2 1q20 -14 38.5 -21t36.5 -7q39 0 69.5 29.5t57.5 93.5l24 56l-220 467h32l203 -437l186 437h32zM391 585h-21l-118 122l-117 -122h-20l123 151h30z" />
    <glyph glyph-name="Ydieresis" unicode="&#x178;" horiz-adv-x="648" 
d="M584 700h35l-278 -374v-326h-30v323l-282 377h37l259 -349zM210 837q12 0 20 -8.5t8 -20.5t-8 -20.5t-20 -8.5t-20 8.5t-8 20.5t8 20.5t20 8.5zM438 837q12 0 20 -8.5t8 -20.5t-8 -20.5t-20 -8.5t-20 8.5t-8 20.5t8 20.5t20 8.5z" />
    <glyph glyph-name="Zacute" unicode="&#x179;" horiz-adv-x="700" 
d="M108 28h539l-16 -28h-576l-2 6l531 666h-496v28h548l2 -6zM445 917h42l-126 -141h-18z" />
    <glyph glyph-name="zacute" unicode="&#x17a;" horiz-adv-x="513" 
d="M85 26h389l-8 -26h-433l-2 4l387 454h-356v26h408l2 -4zM350 736h39l-122 -151h-18z" />
    <glyph glyph-name="Zdotaccent" unicode="&#x17b;" horiz-adv-x="700" 
d="M108 28h539l-16 -28h-576l-2 6l531 666h-496v28h548l2 -6zM358 837q12 0 20.5 -8.5t8.5 -20.5t-8.5 -20.5t-20.5 -8.5t-20.5 8.5t-8.5 20.5t8.5 20.5t20.5 8.5z" />
    <glyph glyph-name="zdotaccent" unicode="&#x17c;" horiz-adv-x="513" 
d="M85 26h389l-8 -26h-433l-2 4l387 454h-356v26h408l2 -4zM264 594q-12 0 -20.5 8.5t-8.5 20.5t8.5 20.5t20.5 8.5t20.5 -8.5t8.5 -20.5t-8.5 -20.5t-20.5 -8.5z" />
    <glyph glyph-name="Zcaron" unicode="&#x17d;" horiz-adv-x="700" 
d="M108 28h539l-16 -28h-576l-2 6l531 666h-496v28h548l2 -6zM484 917h22l-137 -141h-22l-137 141h24l125 -113z" />
    <glyph glyph-name="zcaron" unicode="&#x17e;" horiz-adv-x="513" 
d="M85 26h389l-8 -26h-433l-2 4l387 454h-356v26h408l2 -4zM382 736h20l-123 -151h-30l-123 151h21l118 -122z" />
    <glyph glyph-name="uni018F" unicode="&#x18f;" horiz-adv-x="778" 
d="M381 712q146 0 239 -102.5t93 -264.5q0 -154 -96.5 -256.5t-236.5 -102.5q-141 0 -228.5 102.5t-87.5 262.5v13h619q-6 142 -90.5 231t-213.5 89q-67 0 -132 -25t-141 -81l-2 1l5 38q74 51 137.5 73t134.5 22zM382 14q123 0 210.5 91.5t90.5 230.5h-590q3 -140 83.5 -231
t205.5 -91z" />
    <glyph glyph-name="Ohorn" unicode="&#x1a0;" horiz-adv-x="850" 
d="M544 680q108 -35 174.5 -124.5t66.5 -207.5q0 -150 -106 -256t-255 -106q-148 0 -253.5 105.5t-105.5 254.5q0 150 106 256t255 106q12 0 26.5 -0.5t42.5 -1.5l45 -1.5t29 -0.5q101 0 145 20.5t44 65.5q0 13 -2.5 26t-7.5 25h30q5 -11 7 -23t2 -26q0 -62 -59.5 -89.5
t-183.5 -22.5zM424 680q-135 0 -232 -98t-97 -234q0 -138 97.5 -236t233.5 -98q135 0 232 98t97 234q0 138 -97.5 236t-233.5 98z" />
    <glyph glyph-name="ohorn" unicode="&#x1a1;" horiz-adv-x="618" 
d="M408 470q69 -25 111.5 -91t42.5 -139q0 -106 -73.5 -180t-181.5 -74q-105 0 -178 74t-73 178q0 107 74 180.5t185 73.5h120q64 0 100.5 17.5t36.5 47.5q0 11 -3 22t-12 29h30q8 -16 11 -27t3 -23q0 -48 -48.5 -70t-144.5 -18zM533 238q0 96 -64.5 161.5t-159.5 65.5
t-159.5 -65.5t-64.5 -159.5q0 -96 64.5 -161.5t159.5 -65.5t159.5 65.5t64.5 159.5z" />
    <glyph glyph-name="Uhorn" unicode="&#x1af;" horiz-adv-x="798" 
d="M390 16q115 0 185 71t70 190v423h6q62 0 96 23.5t34 66.5q0 13 -2.5 26t-7.5 25h30q5 -11 7 -23t2 -26q0 -50 -35.5 -79.5t-100.5 -35.5v-397q0 -134 -77.5 -213t-207.5 -79t-207.5 79t-77.5 212v421h30v-425q0 -118 70 -188.5t186 -70.5z" />
    <glyph glyph-name="uhorn" unicode="&#x1b0;" horiz-adv-x="625" 
d="M273 15q52 0 99.5 30.5t99.5 98.5v340h15q52 0 79.5 18.5t27.5 53.5q0 12 -1.5 22t-5.5 22h29q4 -12 5.5 -21.5t1.5 -21.5q0 -43 -32 -68.5t-90 -28.5v-460h-29v112q-47 -64 -96.5 -94t-105.5 -30q-80 0 -128 51.5t-48 141.5v303h29v-301q0 -79 40.5 -123.5t109.5 -44.5z
" />
    <glyph glyph-name="uni01CD" unicode="&#x1cd;" horiz-adv-x="768" 
d="M73 0h-31l326 707h32l326 -707h-34l-96 209h-427zM383 676l-201 -439h402zM510 917h22l-137 -141h-22l-137 141h24l125 -113z" />
    <glyph glyph-name="uni01CE" unicode="&#x1ce;" horiz-adv-x="554" 
d="M456 9l-29 -15v99q-71 -56 -123.5 -80t-103.5 -24q-62 0 -103 34.5t-41 89.5q0 85 90 125.5t281 45.5v28q0 75 -37.5 116t-106.5 41q-45 0 -90.5 -18t-92.5 -55l-2 1l7 37q45 31 89.5 46.5t91.5 15.5q79 0 124.5 -48.5t45.5 -133.5v-305zM85 114q0 -43 33.5 -70t83.5 -27
q47 0 101.5 25.5t123.5 79.5v136q-176 -5 -259 -39.5t-83 -104.5zM391 736h20l-123 -151h-30l-123 151h21l118 -122z" />
    <glyph glyph-name="uni01CF" unicode="&#x1cf;" horiz-adv-x="266" 
d="M148 0h-30v700h30v-700zM259 917h22l-137 -141h-22l-137 141h24l125 -113z" />
    <glyph glyph-name="uni01D0" unicode="&#x1d0;" horiz-adv-x="237" 
d="M133 0h-29v484h29v-484zM237 736h20l-123 -151h-30l-123 151h21l118 -122z" />
    <glyph glyph-name="uni01D1" unicode="&#x1d1;" horiz-adv-x="850" 
d="M424 -14q-149 0 -254 106t-105 257q0 152 105.5 258.5t255.5 106.5q149 0 254 -106t105 -257q0 -152 -105.5 -258.5t-255.5 -106.5zM424 686q-135 0 -232 -98.5t-97 -236.5q0 -141 97 -239t234 -98q135 0 232 98.5t97 236.5q0 141 -97 239t-234 98zM551 922h22l-137 -141
h-22l-137 141h24l125 -113z" />
    <glyph glyph-name="uni01D2" unicode="&#x1d2;" horiz-adv-x="618" 
d="M307 -14q-106 0 -178.5 74.5t-72.5 180.5q0 108 73 182.5t182 74.5q106 0 178.5 -74.5t72.5 -180.5q0 -108 -73 -182.5t-182 -74.5zM533 241q0 98 -64 164t-160 66q-95 0 -159.5 -66t-64.5 -162q0 -98 64 -164t160 -66q95 0 159.5 66t64.5 162zM427 736h20l-123 -151h-30
l-123 151h21l118 -122z" />
    <glyph glyph-name="uni01D3" unicode="&#x1d3;" horiz-adv-x="778" 
d="M389 -12q-130 0 -207.5 79t-77.5 212v421h30v-425q0 -118 70 -188.5t186 -70.5q115 0 185 71t70 190v423h29v-420q0 -134 -77.5 -213t-207.5 -79zM517 902h22l-137 -141h-22l-137 141h24l125 -113z" />
    <glyph glyph-name="uni01D4" unicode="&#x1d4;" 
d="M501 0h-29v112q-47 -64 -96.5 -94t-105.5 -30q-80 0 -128 51.5t-48 141.5v303h29v-301q0 -79 40.5 -123.5t109.5 -44.5q52 0 99.5 30.5t99.5 98.5v340h29v-484zM416 726h20l-123 -151h-30l-123 151h21l118 -122z" />
    <glyph glyph-name="uni01D5" unicode="&#x1d5;" horiz-adv-x="778" 
d="M389 -12q-130 0 -207.5 79t-77.5 212v421h30v-425q0 -118 70 -188.5t186 -70.5q115 0 185 71t70 190v423h29v-420q0 -134 -77.5 -213t-207.5 -79zM252 919v26h278v-26h-278zM277 837q12 0 20 -8.5t8 -20.5t-8 -20.5t-20 -8.5t-20 8.5t-8 20.5t8 20.5t20 8.5zM505 837
q12 0 20 -8.5t8 -20.5t-8 -20.5t-20 -8.5t-20 8.5t-8 20.5t8 20.5t20 8.5z" />
    <glyph glyph-name="uni01D6" unicode="&#x1d6;" 
d="M501 0h-29v112q-47 -64 -96.5 -94t-105.5 -30q-80 0 -128 51.5t-48 141.5v303h29v-301q0 -79 40.5 -123.5t109.5 -44.5q52 0 99.5 30.5t99.5 98.5v340h29v-484zM437 719h-278v26h278v-26zM195 594q-12 0 -20.5 8.5t-8.5 20.5t8.5 20.5t20.5 8.5t20.5 -8.5t8.5 -20.5
t-8.5 -20.5t-20.5 -8.5zM401 594q-12 0 -20.5 8.5t-8.5 20.5t8.5 20.5t20.5 8.5t20.5 -8.5t8.5 -20.5t-8.5 -20.5t-20.5 -8.5z" />
    <glyph glyph-name="uni01D7" unicode="&#x1d7;" horiz-adv-x="778" 
d="M389 -12q-130 0 -207.5 79t-77.5 212v421h30v-425q0 -118 70 -188.5t186 -70.5q115 0 185 71t70 190v423h29v-420q0 -134 -77.5 -213t-207.5 -79zM462 1011h42l-108 -118h-18zM277 779q-12 0 -20 8.5t-8 20.5t8 20.5t20 8.5t20 -8.5t8 -20.5t-8 -20.5t-20 -8.5zM505 779
q-12 0 -20 8.5t-8 20.5t8 20.5t20 8.5t20 -8.5t8 -20.5t-8 -20.5t-20 -8.5z" />
    <glyph glyph-name="uni01D8" unicode="&#x1d8;" 
d="M501 0h-29v112q-47 -64 -96.5 -94t-105.5 -30q-80 0 -128 51.5t-48 141.5v303h29v-301q0 -79 40.5 -123.5t109.5 -44.5q52 0 99.5 30.5t99.5 98.5v340h29v-484zM374 838h42l-113 -131h-18zM195 594q-12 0 -20.5 8.5t-8.5 20.5t8.5 20.5t20.5 8.5t20.5 -8.5t8.5 -20.5
t-8.5 -20.5t-20.5 -8.5zM401 594q-12 0 -20.5 8.5t-8.5 20.5t8.5 20.5t20.5 8.5t20.5 -8.5t8.5 -20.5t-8.5 -20.5t-20.5 -8.5z" />
    <glyph glyph-name="uni01D9" unicode="&#x1d9;" horiz-adv-x="778" 
d="M389 -12q-130 0 -207.5 79t-77.5 212v421h30v-425q0 -118 70 -188.5t186 -70.5q115 0 185 71t70 190v423h29v-420q0 -134 -77.5 -213t-207.5 -79zM503 1011h25l-127 -123h-22l-127 123h22l115 -95zM277 837q12 0 20 -8.5t8 -20.5t-8 -20.5t-20 -8.5t-20 8.5t-8 20.5
t8 20.5t20 8.5zM505 837q12 0 20 -8.5t8 -20.5t-8 -20.5t-20 -8.5t-20 8.5t-8 20.5t8 20.5t20 8.5z" />
    <glyph glyph-name="uni01DA" unicode="&#x1da;" 
d="M501 0h-29v112q-47 -64 -96.5 -94t-105.5 -30q-80 0 -128 51.5t-48 141.5v303h29v-301q0 -79 40.5 -123.5t109.5 -44.5q52 0 99.5 30.5t99.5 98.5v340h29v-484zM426 840h20l-136 -131h-24l-136 131h21l128 -104zM195 594q-12 0 -20.5 8.5t-8.5 20.5t8.5 20.5t20.5 8.5
t20.5 -8.5t8.5 -20.5t-8.5 -20.5t-20.5 -8.5zM401 594q-12 0 -20.5 8.5t-8.5 20.5t8.5 20.5t20.5 8.5t20.5 -8.5t8.5 -20.5t-8.5 -20.5t-20.5 -8.5z" />
    <glyph glyph-name="uni01DB" unicode="&#x1db;" horiz-adv-x="778" 
d="M389 -12q-130 0 -207.5 79t-77.5 212v421h30v-425q0 -118 70 -188.5t186 -70.5q115 0 185 71t70 190v423h29v-420q0 -134 -77.5 -213t-207.5 -79zM278 1011h42l84 -118h-18zM505 837q12 0 20 -8.5t8 -20.5t-8 -20.5t-20 -8.5t-20 8.5t-8 20.5t8 20.5t20 8.5zM277 837
q12 0 20 -8.5t8 -20.5t-8 -20.5t-20 -8.5t-20 8.5t-8 20.5t8 20.5t20 8.5z" />
    <glyph glyph-name="uni01DC" unicode="&#x1dc;" 
d="M501 0h-29v112q-47 -64 -96.5 -94t-105.5 -30q-80 0 -128 51.5t-48 141.5v303h29v-301q0 -79 40.5 -123.5t109.5 -44.5q52 0 99.5 30.5t99.5 98.5v340h29v-484zM180 838h42l89 -131h-18zM195 652q12 0 20.5 -8.5t8.5 -20.5t-8.5 -20.5t-20.5 -8.5t-20.5 8.5t-8.5 20.5
t8.5 20.5t20.5 8.5zM401 652q12 0 20.5 -8.5t8.5 -20.5t-8.5 -20.5t-20.5 -8.5t-20.5 8.5t-8.5 20.5t8.5 20.5t20.5 8.5z" />
    <glyph glyph-name="Gcaron" unicode="&#x1e6;" horiz-adv-x="790" 
d="M684 342v-280q-73 -40 -131 -56t-125 -16q-157 0 -260 99t-103 256q0 160 107.5 263t270.5 103q63 0 123.5 -18.5t109.5 -52.5v-34h-2q-52 37 -111.5 57t-121.5 20q-147 0 -246.5 -96t-99.5 -240q0 -147 95.5 -238t241.5 -91q60 0 112 14t111 47v235h-257v28h286z
M551 922h22l-137 -141h-22l-137 141h24l125 -113z" />
    <glyph glyph-name="gcaron" unicode="&#x1e7;" horiz-adv-x="614" 
d="M515 484v-432q0 -112 -65 -176.5t-172 -64.5q-49 0 -96.5 12t-90.5 35l-12 37l2 1q47 -29 97 -43.5t101 -14.5q92 0 149.5 57.5t57.5 154.5v61q-48 -50 -96.5 -73.5t-102.5 -23.5q-101 0 -166 66t-65 168q0 103 69.5 174t170.5 71q51 0 97.5 -19.5t93.5 -59.5l13 70h15z
M296 466q-86 0 -148.5 -64.5t-62.5 -153.5q0 -90 58 -148.5t147 -58.5q49 0 97 24.5t99 75.5v241q-50 43 -96 63.5t-94 20.5zM423 736h20l-123 -151h-30l-123 151h21l118 -122z" />
    <glyph glyph-name="uni01EA" unicode="&#x1ea;" horiz-adv-x="850" 
d="M494 -170l-5 -17q-20 -4 -40.5 -6.5t-34.5 -2.5q-35 0 -54.5 15.5t-19.5 44.5q0 15 9 33t34 54l25 35q-144 7 -243.5 112t-99.5 251q0 152 105.5 258.5t255.5 106.5q149 0 254 -106t105 -257q0 -150 -103 -256t-251 -109l-26 -42q-17 -29 -24 -46t-7 -31q0 -18 14 -27.5
t41 -9.5h65zM424 686q-135 0 -232 -98.5t-97 -236.5q0 -141 97 -239t234 -98q135 0 232 98.5t97 236.5q0 141 -97 239t-234 98z" />
    <glyph glyph-name="uni01EB" unicode="&#x1eb;" horiz-adv-x="618" 
d="M378 -165l-5 -17q-20 -4 -40.5 -6.5t-34.5 -2.5q-35 0 -54.5 15.5t-19.5 44.5q0 15 9 33t34 54l22 31q-100 7 -166.5 80t-66.5 174q0 108 73 182.5t182 74.5q106 0 178.5 -74.5t72.5 -180.5q0 -108 -72.5 -182.5t-178.5 -74.5l-22 -37q-17 -29 -24 -46t-7 -31
q0 -18 14 -27.5t41 -9.5h65zM533 241q0 98 -64 164t-160 66q-95 0 -159.5 -66t-64.5 -162q0 -98 64 -164t160 -66q95 0 159.5 66t64.5 162z" />
    <glyph glyph-name="uni01F0" unicode="&#x1f0;" horiz-adv-x="239" 
d="M106 484h29v-557q0 -53 -31 -84.5t-81 -31.5q-13 0 -25 2.5t-23 7.5l-5 28l2 1q13 -6 26 -9t26 -3q36 0 59 24t23 64v558zM237 736h20l-123 -151h-30l-123 151h21l118 -122z" />
    <glyph glyph-name="uni01F8" unicode="&#x1f8;" horiz-adv-x="828" 
d="M142 0h-29v700h29l544 -639v639h29v-702h-12l-561 658v-656zM305 902h42l102 -141h-18z" />
    <glyph glyph-name="uni01F9" unicode="&#x1f9;" 
d="M327 469q-52 0 -99.5 -30.5t-99.5 -98.5v-340h-29v475l29 15v-118q47 64 96.5 94t105.5 30q80 0 128 -51.5t48 -141.5v-303h-29v301q0 79 -40.5 123.5t-109.5 44.5zM178 736h39l101 -151h-18z" />
    <glyph glyph-name="Aringacute" unicode="&#x1fa;" horiz-adv-x="768" 
d="M726 0h-34l-96 209h-427l-96 -209h-31l315 682q-43 8 -70 39t-27 72q0 48 35.5 80.5t88.5 32.5t88.5 -32.5t35.5 -80.5q0 -41 -27 -71.5t-70 -38.5zM486 793q0 39 -29.5 66t-73.5 27q-42 0 -71.5 -27t-29.5 -66t29 -66t73 -27q43 0 72.5 27t29.5 66zM383 676l-201 -439
h402zM471 1093h42l-126 -141h-18z" />
    <glyph glyph-name="aringacute" unicode="&#x1fb;" horiz-adv-x="554" 
d="M456 9l-29 -15v99q-71 -56 -123.5 -80t-103.5 -24q-62 0 -103 34.5t-41 89.5q0 85 90 125.5t281 45.5v28q0 75 -37.5 116t-106.5 41q-45 0 -90.5 -18t-92.5 -55l-2 1l7 37q45 31 89.5 46.5t91.5 15.5q79 0 124.5 -48.5t45.5 -133.5v-305zM85 114q0 -43 33.5 -70t83.5 -27
q47 0 101.5 25.5t123.5 79.5v136q-176 -5 -259 -39.5t-83 -104.5zM343 922h40l-96 -101h-20zM273 584q-45 0 -75 30.5t-30 75.5t30.5 75.5t75.5 30.5q46 0 76 -30.5t30 -75.5t-30.5 -75.5t-76.5 -30.5zM358 690q0 36 -24.5 61t-60.5 25q-35 0 -59 -25t-24 -61t24 -61t60 -25
t60 25t24 61z" />
    <glyph glyph-name="AEacute" unicode="&#x1fc;" horiz-adv-x="929" 
d="M48 0h-36l462 700h386l14 -28h-351v-302h303v-28h-303v-314h354l-14 -28h-370v209h-307zM493 674l-288 -437h288v437zM693 917h42l-126 -141h-18z" />
    <glyph glyph-name="aeacute" unicode="&#x1fd;" horiz-adv-x="905" 
d="M829 77l-12 -37q-43 -26 -83 -38.5t-81 -12.5q-68 0 -121.5 31t-84.5 88q-71 -60 -132 -89.5t-115 -29.5q-62 0 -103 34.5t-41 89.5q0 84 87.5 124.5t272.5 45.5v39q0 72 -33.5 109.5t-99.5 37.5q-45 0 -90.5 -18t-92.5 -55l-2 1l7 37q45 31 89.5 46.5t91.5 15.5
q66 0 106 -33.5t50 -95.5q28 61 80 96t116 35q95 0 153 -69t58 -178v-14.5t-1 -8.5h-402q6 -97 63 -154.5t146 -57.5q39 0 81.5 15t90.5 47zM636 471q-79 0 -135 -64.5t-56 -151.5h375q-2 97 -51.5 156.5t-132.5 59.5zM416 257q-170 -5 -250.5 -39.5t-80.5 -103.5
q0 -43 33.5 -70t83.5 -27q48 0 111 30.5t124 82.5q-11 26 -16 54.5t-5 61.5v5.5v5.5zM548 754h39l-122 -151h-18z" />
    <glyph glyph-name="Oslashacute" unicode="&#x1fe;" horiz-adv-x="850" 
d="M785 351q0 -152 -105.5 -258.5t-255.5 -106.5q-60 0 -117 19.5t-105 57.5l-89 -106h-34l103 124q-56 51 -86.5 120.5t-30.5 147.5q0 152 105.5 258.5t255.5 106.5q60 0 117.5 -20t104.5 -57l89 106h34l-104 -123q57 -52 87.5 -121.5t30.5 -147.5zM424 686
q-135 0 -232 -98.5t-97 -236.5q0 -72 27.5 -136.5t78.5 -112.5l428 513q-44 35 -96.5 53t-108.5 18zM426 14q135 0 232 98.5t97 236.5q0 73 -28 137.5t-79 112.5l-427 -514q44 -35 96.5 -53t108.5 -18zM512 922h42l-126 -141h-18z" />
    <glyph glyph-name="oslashacute" unicode="&#x1ff;" horiz-adv-x="618" 
d="M562 243q0 -108 -73 -182.5t-182 -74.5q-41 0 -78 12t-68 35l-67 -85h-34l80 102q-40 36 -62 86t-22 105q0 108 73 182.5t182 74.5q41 0 78 -12t68 -35l67 85h34l-80 -102q40 -36 62 -86t22 -105zM309 471q-95 0 -159.5 -66t-64.5 -162q0 -51 18.5 -95.5t53.5 -76.5
l283 359q-29 20 -62 30.5t-69 10.5zM309 13q95 0 159.5 66t64.5 162q0 51 -18.5 95.5t-53.5 76.5l-283 -359q29 -20 62 -30.5t69 -10.5zM395 736h39l-122 -151h-18z" />
    <glyph glyph-name="uni0218" unicode="&#x218;" horiz-adv-x="558" 
d="M273 342q-115 54 -153.5 96.5t-38.5 100.5q0 75 56 124t139 49q50 0 92.5 -13t89.5 -45v-35h-2q-43 34 -87 49.5t-95 15.5q-68 0 -115.5 -41t-47.5 -102q0 -47 35 -83.5t144 -88.5q114 -54 154 -98.5t40 -104.5q0 -76 -60 -127t-143 -51q-59 0 -115.5 22t-99.5 62l-11 47
l2 1q48 -51 105.5 -77.5t119.5 -26.5q69 0 120.5 43t51.5 105q0 51 -38 90t-143 88zM322 -167q0 -24 -17 -48.5t-53 -53.5l-17 7v1q31 28 45 49t14 38q0 19 -11 33t-50 43v1l30 11q33 -23 46 -40.5t13 -40.5z" />
    <glyph glyph-name="uni0219" unicode="&#x219;" horiz-adv-x="474" 
d="M246 262q103 -29 138.5 -60t35.5 -80q0 -56 -50.5 -94.5t-123.5 -38.5q-56 0 -107 18.5t-90 52.5l-6 40l2 1q46 -43 95.5 -64t106.5 -21q61 0 102.5 30t41.5 74q0 39 -30 63t-123 51q-106 30 -139.5 59.5t-33.5 77.5q0 55 47 89.5t118 34.5q42 0 83.5 -13.5t78.5 -38.5
v-33h-2q-37 28 -78.5 43t-82.5 15q-58 0 -96.5 -26.5t-38.5 -68.5q0 -38 29.5 -61t122.5 -50zM281 -162q0 -24 -17 -48.5t-53 -53.5l-17 7v1q31 28 45 49t14 38q0 19 -11 33t-50 43v1l30 11q33 -23 46 -40.5t13 -40.5z" />
    <glyph glyph-name="uni021A" unicode="&#x21a;" horiz-adv-x="688" 
d="M659 700v-28h-300v-672h-30v672h-300v28h630zM396 -162q0 -24 -17 -48.5t-53 -53.5l-17 7v1q31 28 45 49t14 38q0 19 -11 33t-50 43v1l30 11q33 -23 46 -40.5t13 -40.5z" />
    <glyph glyph-name="uni021B" unicode="&#x21b;" horiz-adv-x="414" 
d="M382 75l-10 -39q-27 -23 -59 -35t-65 -12q-54 0 -88.5 34.5t-34.5 91.5v342h-88v27h88v125l29 15v-140h222v-27h-222v-340q0 -46 27 -73.5t69 -27.5q34 0 66.5 15t63.5 45zM285 -162q0 -24 -17 -48.5t-53 -53.5l-17 7v1q31 28 45 49t14 38q0 19 -11 33t-50 43v1l30 11
q33 -23 46 -40.5t13 -40.5z" />
    <glyph glyph-name="uni0226" unicode="&#x226;" horiz-adv-x="768" 
d="M73 0h-31l326 707h32l326 -707h-34l-96 209h-427zM383 676l-201 -439h402zM384 837q12 0 20.5 -8.5t8.5 -20.5t-8.5 -20.5t-20.5 -8.5t-20.5 8.5t-8.5 20.5t8.5 20.5t20.5 8.5z" />
    <glyph glyph-name="uni0227" unicode="&#x227;" horiz-adv-x="554" 
d="M456 9l-29 -15v99q-71 -56 -123.5 -80t-103.5 -24q-62 0 -103 34.5t-41 89.5q0 85 90 125.5t281 45.5v28q0 75 -37.5 116t-106.5 41q-45 0 -90.5 -18t-92.5 -55l-2 1l7 37q45 31 89.5 46.5t91.5 15.5q79 0 124.5 -48.5t45.5 -133.5v-305zM85 114q0 -43 33.5 -70t83.5 -27
q47 0 101.5 25.5t123.5 79.5v136q-176 -5 -259 -39.5t-83 -104.5zM273 594q-12 0 -20.5 8.5t-8.5 20.5t8.5 20.5t20.5 8.5t20.5 -8.5t8.5 -20.5t-8.5 -20.5t-20.5 -8.5z" />
    <glyph glyph-name="uni022E" unicode="&#x22e;" horiz-adv-x="850" 
d="M424 -14q-149 0 -254 106t-105 257q0 152 105.5 258.5t255.5 106.5q149 0 254 -106t105 -257q0 -152 -105.5 -258.5t-255.5 -106.5zM424 686q-135 0 -232 -98.5t-97 -236.5q0 -141 97 -239t234 -98q135 0 232 98.5t97 236.5q0 141 -97 239t-234 98zM425 842
q12 0 20.5 -8.5t8.5 -20.5t-8.5 -20.5t-20.5 -8.5t-20.5 8.5t-8.5 20.5t8.5 20.5t20.5 8.5z" />
    <glyph glyph-name="uni022F" unicode="&#x22f;" horiz-adv-x="618" 
d="M307 -14q-106 0 -178.5 74.5t-72.5 180.5q0 108 73 182.5t182 74.5q106 0 178.5 -74.5t72.5 -180.5q0 -108 -73 -182.5t-182 -74.5zM533 241q0 98 -64 164t-160 66q-95 0 -159.5 -66t-64.5 -162q0 -98 64 -164t160 -66q95 0 159.5 66t64.5 162zM309 594q-12 0 -20.5 8.5
t-8.5 20.5t8.5 20.5t20.5 8.5t20.5 -8.5t8.5 -20.5t-8.5 -20.5t-20.5 -8.5z" />
    <glyph glyph-name="uni0232" unicode="&#x232;" horiz-adv-x="648" 
d="M584 700h35l-278 -374v-326h-30v323l-282 377h37l259 -349zM155 802v26h338v-26h-338z" />
    <glyph glyph-name="uni0233" unicode="&#x233;" horiz-adv-x="510" 
d="M483 484l-230 -529q-33 -77 -68.5 -110.5t-85.5 -33.5q-19 0 -36.5 5.5t-34.5 16.5l-6 32l2 1q20 -14 38.5 -21t36.5 -7q39 0 69.5 29.5t57.5 93.5l24 56l-220 467h32l203 -437l186 437h32zM94 617v26h318v-26h-318z" />
    <glyph glyph-name="uni0237" unicode="&#x237;" horiz-adv-x="239" 
d="M106 484h29v-557q0 -53 -31 -84.5t-81 -31.5q-13 0 -25 2.5t-23 7.5l-5 28l2 1q13 -6 26 -9t26 -3q36 0 59 24t23 64v558z" />
    <glyph glyph-name="uni0259" unicode="&#x259;" horiz-adv-x="555" 
d="M257 495q108 0 175 -70.5t67 -186.5q0 -106 -65 -179t-162 -73q-98 0 -157 69t-59 178v14.5t1 8.5h412q-6 97 -64.5 154.5t-149.5 57.5q-42 0 -86.5 -15.5t-90.5 -46.5l-2 1l12 37q42 26 84 38.5t85 12.5zM274 13q81 0 138.5 64.5t57.5 151.5h-385q3 -97 53.5 -156.5
t135.5 -59.5z" />
    <glyph glyph-name="uni02B9" unicode="&#x2b9;" horiz-adv-x="184" 
d="M47 464l81 236h39l-104 -241z" />
    <glyph glyph-name="uni02BA" unicode="&#x2ba;" horiz-adv-x="326" 
d="M47 464l81 236h39l-104 -241zM189 464l81 236h39l-103 -241z" />
    <glyph glyph-name="uni02BB" unicode="&#x2bb;" horiz-adv-x="163" 
d="M72 575q0 -21 9 -42t39 -66h-35q-26 40 -34 61t-8 42q0 25 13 52t58 82l15 -8q-31 -43 -44 -71t-13 -50z" />
    <glyph glyph-name="uni02BC" unicode="&#x2bc;" horiz-adv-x="163" 
d="M92 592q0 20 -8.5 40.5t-40.5 67.5h36q25 -41 33 -61.5t8 -41.5q0 -25 -13 -52t-58 -82l-15 8q32 45 45 72.5t13 48.5z" />
    <glyph glyph-name="uni02BE" unicode="&#x2be;" horiz-adv-x="207" 
d="M172 676q0 -53 -38.5 -88t-94.5 -35v20q48 0 79.5 29t31.5 74t-31.5 74t-79.5 29v20q56 0 94.5 -35t38.5 -88z" />
    <glyph glyph-name="uni02BF" unicode="&#x2bf;" horiz-adv-x="207" 
d="M35 676q0 53 38.5 88t94.5 35v-20q-48 0 -79.5 -29t-31.5 -74t31.5 -74t79.5 -29v-20q-56 0 -94.5 35t-38.5 88z" />
    <glyph glyph-name="circumflex" unicode="&#x2c6;" horiz-adv-x="500" 
d="M388 585h-21l-118 122l-117 -122h-20l123 151h30z" />
    <glyph glyph-name="caron" unicode="&#x2c7;" horiz-adv-x="500" 
d="M368 736h20l-123 -151h-30l-123 151h21l118 -122z" />
    <glyph glyph-name="uni02C8" unicode="&#x2c8;" horiz-adv-x="175" 
d="M98 554h-21v244h21v-244z" />
    <glyph glyph-name="uni02CC" unicode="&#x2cc;" horiz-adv-x="175" 
d="M98 -184h-21v244h21v-244z" />
    <glyph glyph-name="uni02CD" unicode="&#x2cd;" horiz-adv-x="500" 
d="M91 -186v26h318v-26h-318z" />
    <glyph glyph-name="breve" unicode="&#x2d8;" horiz-adv-x="500" 
d="M250 584q-46 0 -80 29.5t-70 109.5l15 7q33 -64 63.5 -88.5t71.5 -24.5t71.5 24.5t63.5 88.5l15 -7q-36 -80 -70 -109.5t-80 -29.5z" />
    <glyph glyph-name="dotaccent" unicode="&#x2d9;" horiz-adv-x="500" 
d="M250 594q-12 0 -20.5 8.5t-8.5 20.5t8.5 20.5t20.5 8.5t20.5 -8.5t8.5 -20.5t-8.5 -20.5t-20.5 -8.5z" />
    <glyph glyph-name="ring" unicode="&#x2da;" horiz-adv-x="500" 
d="M250 584q-45 0 -75 30.5t-30 75.5t30.5 75.5t75.5 30.5q46 0 76 -30.5t30 -75.5t-30.5 -75.5t-76.5 -30.5zM335 690q0 36 -24.5 61t-60.5 25q-35 0 -59 -25t-24 -61t24 -61t60 -25t60 25t24 61z" />
    <glyph glyph-name="ogonek" unicode="&#x2db;" horiz-adv-x="500" 
d="M319 -165l-5 -17q-20 -4 -40.5 -6.5t-34.5 -2.5q-35 0 -54.5 15.5t-19.5 44.5q0 15 9 33t34 54l38 54h21l-37 -61q-17 -29 -24 -46t-7 -31q0 -18 14 -27.5t41 -9.5h65z" />
    <glyph glyph-name="tilde" unicode="&#x2dc;" horiz-adv-x="500" 
d="M260 669q35 -31 50 -40t26 -9q19 0 37.5 23.5t48.5 87.5l17 -8q-36 -78 -57.5 -104t-49.5 -26q-14 0 -33 11t-59 45q-35 31 -50 40t-26 9q-19 0 -37.5 -23.5t-48.5 -87.5l-17 8q36 78 57.5 104t49.5 26q14 0 33 -11t59 -45z" />
    <glyph glyph-name="hungarumlaut" unicode="&#x2dd;" horiz-adv-x="500" 
d="M244 736h39l-122 -151h-18zM432 736h39l-122 -151h-18z" />
    <glyph glyph-name="uni0300" unicode="&#x300;" horiz-adv-x="0" 
d="M-125 736h39l101 -151h-18z" />
    <glyph glyph-name="uni0301" unicode="&#x301;" horiz-adv-x="0" 
d="M86 736h39l-122 -151h-18z" />
    <glyph glyph-name="uni0302" unicode="&#x302;" horiz-adv-x="0" 
d="M138 585h-21l-118 122l-117 -122h-20l123 151h30z" />
    <glyph glyph-name="uni0303" unicode="&#x303;" horiz-adv-x="0" 
d="M10 669q35 -31 50 -40t26 -9q19 0 37.5 23.5t48.5 87.5l17 -8q-36 -78 -57.5 -104t-49.5 -26q-14 0 -33 11t-59 45q-35 31 -50 40t-26 9q-19 0 -37.5 -23.5t-48.5 -87.5l-17 8q36 78 57.5 104t49.5 26q14 0 33 -11t59 -45z" />
    <glyph glyph-name="uni0304" unicode="&#x304;" horiz-adv-x="0" 
d="M-159 617v26h318v-26h-318z" />
    <glyph glyph-name="uni0306" unicode="&#x306;" horiz-adv-x="0" 
d="M0 584q-46 0 -80 29.5t-70 109.5l15 7q33 -64 63.5 -88.5t71.5 -24.5t71.5 24.5t63.5 88.5l15 -7q-36 -80 -70 -109.5t-80 -29.5z" />
    <glyph glyph-name="uni0307" unicode="&#x307;" horiz-adv-x="0" 
d="M0 594q-12 0 -20.5 8.5t-8.5 20.5t8.5 20.5t20.5 8.5t20.5 -8.5t8.5 -20.5t-8.5 -20.5t-20.5 -8.5z" />
    <glyph glyph-name="uni0308" unicode="&#x308;" horiz-adv-x="0" 
d="M-103 594q-12 0 -20.5 8.5t-8.5 20.5t8.5 20.5t20.5 8.5t20.5 -8.5t8.5 -20.5t-8.5 -20.5t-20.5 -8.5zM103 594q-12 0 -20.5 8.5t-8.5 20.5t8.5 20.5t20.5 8.5t20.5 -8.5t8.5 -20.5t-8.5 -20.5t-20.5 -8.5z" />
    <glyph glyph-name="uni0309" unicode="&#x309;" horiz-adv-x="0" 
d="M111 716q0 -30 -20 -55t-93 -78l-19 9v1q66 50 85 72.5t19 45.5q0 25 -18 38.5t-50 13.5q-28 0 -54 -11t-59 -36h-1v31q30 22 58 32.5t57 10.5q43 0 69 -20t26 -54z" />
    <glyph glyph-name="uni030A" unicode="&#x30a;" horiz-adv-x="0" 
d="M0 584q-45 0 -75 30.5t-30 75.5t30.5 75.5t75.5 30.5q46 0 76 -30.5t30 -75.5t-30.5 -75.5t-76.5 -30.5zM85 690q0 36 -24.5 61t-60.5 25q-35 0 -59 -25t-24 -61t24 -61t60 -25t60 25t24 61z" />
    <glyph glyph-name="uni030B" unicode="&#x30b;" horiz-adv-x="0" 
d="M-6 736h39l-122 -151h-18zM182 736h39l-122 -151h-18z" />
    <glyph glyph-name="uni030C" unicode="&#x30c;" horiz-adv-x="0" 
d="M118 736h20l-123 -151h-30l-123 151h21l118 -122z" />
    <glyph glyph-name="uni0312" unicode="&#x312;" horiz-adv-x="0" 
d="M-52 665q0 24 17 48.5t53 53.5l17 -7v-1q-31 -28 -45 -49t-14 -38q0 -19 11 -33t50 -43v-1l-30 -11q-33 23 -46 40.5t-13 40.5z" />
    <glyph glyph-name="uni0315" unicode="&#x315;" horiz-adv-x="0" 
d="M19 550h-19q14 32 19.5 55t5.5 46t-5.5 45.5t-19.5 53.5h34q8 -22 12 -42.5t4 -41.5q0 -27 -7 -54t-24 -62z" />
    <glyph glyph-name="uni0323" unicode="&#x323;" horiz-adv-x="0" 
d="M0 -149q-12 0 -20.5 8.5t-8.5 20.5t8.5 20.5t20.5 8.5t20.5 -8.5t8.5 -20.5t-8.5 -20.5t-20.5 -8.5z" />
    <glyph glyph-name="uni0324" unicode="&#x324;" horiz-adv-x="0" 
d="M-103 -149q-12 0 -20.5 8.5t-8.5 20.5t8.5 20.5t20.5 8.5t20.5 -8.5t8.5 -20.5t-8.5 -20.5t-20.5 -8.5zM103 -149q-12 0 -20.5 8.5t-8.5 20.5t8.5 20.5t20.5 8.5t20.5 -8.5t8.5 -20.5t-8.5 -20.5t-20.5 -8.5z" />
    <glyph glyph-name="uni0326" unicode="&#x326;" horiz-adv-x="0" 
d="M52 -162q0 -24 -17 -48.5t-53 -53.5l-17 7v1q31 28 45 49t14 38q0 19 -11 33t-50 43v1l30 11q33 -23 46 -40.5t13 -40.5z" />
    <glyph glyph-name="uni0327" unicode="&#x327;" horiz-adv-x="0" 
d="M15 -63q37 0 59.5 -16.5t22.5 -43.5q0 -32 -30.5 -52t-81.5 -20q-18 0 -35 2.5t-36 8.5l-15 29l1 1q22 -9 43 -13t43 -4q39 0 61.5 12.5t22.5 34.5q0 18 -15.5 27.5t-44.5 9.5q-19 0 -35 -2.5t-41 -9.5l-3 4l60 100h28l-43 -72q9 2 18 3t21 1z" />
    <glyph glyph-name="uni0328" unicode="&#x328;" horiz-adv-x="0" 
d="M69 -165l-5 -17q-20 -4 -40.5 -6.5t-34.5 -2.5q-35 0 -54.5 15.5t-19.5 44.5q0 15 9 33t34 54l38 54h21l-37 -61q-17 -29 -24 -46t-7 -31q0 -18 14 -27.5t41 -9.5h65z" />
    <glyph glyph-name="uni032D" unicode="&#x32d;" horiz-adv-x="0" 
d="M138 -233h-21l-118 122l-117 -122h-20l123 151h30z" />
    <glyph glyph-name="uni032E" unicode="&#x32e;" horiz-adv-x="0" 
d="M0 -227q-46 0 -80 29.5t-70 109.5l15 7q33 -64 63.5 -88.5t71.5 -24.5t71.5 24.5t63.5 88.5l15 -7q-36 -80 -70 -109.5t-80 -29.5z" />
    <glyph glyph-name="uni0331" unicode="&#x331;" horiz-adv-x="0" 
d="M-159 -140v26h318v-26h-318z" />
    <glyph glyph-name="uni0E3F" unicode="&#xe3f;" horiz-adv-x="639" 
d="M573 188q0 -84 -61 -136t-161 -52h-21v-135h-26v135h-191v700h191v123h26v-123h7q90 0 144.5 -48t54.5 -128q0 -57 -32.5 -99.5t-89.5 -62.5q73 -14 116 -61.5t43 -112.5zM305 673h-164v-303h164v303zM508 522q0 69 -47 110t-126 41h-6v-303h4q76 0 125.5 42.5
t49.5 109.5zM141 344v-317h164v317h-164zM545 187q0 68 -55 112.5t-134 44.5h-27v-317h22q84 0 139 45.5t55 114.5z" />
    <glyph glyph-name="uni1E06" unicode="&#x1e06;" horiz-adv-x="592" 
d="M372 362q73 -14 116 -61.5t43 -112.5q0 -84 -61 -136t-161 -52h-196v700h182q90 0 144.5 -48t54.5 -128q0 -57 -32.5 -99.5t-89.5 -62.5zM293 672h-150v-301h148q75 0 124 42.5t49 108.5q0 68 -46.5 109t-124.5 41zM143 343v-315h166q87 0 139.5 44t52.5 115
q0 68 -54.5 112t-132.5 44h-171zM151 -140v26h318v-26h-318z" />
    <glyph glyph-name="uni1E07" unicode="&#x1e07;" horiz-adv-x="615" 
d="M327 494q97 0 164 -69.5t67 -176.5q0 -111 -69 -184t-174 -73q-47 0 -94.5 20t-93.5 59l-13 -70h-15v735l29 15v-353q48 50 96.5 73.5t102.5 23.5zM529 248q0 95 -60 157t-145 62q-49 0 -97 -24.5t-99 -75.5v-265q49 -42 96 -63t91 -21q90 0 152 67t62 163zM151 -140v26
h318v-26h-318z" />
    <glyph glyph-name="uni1E0C" unicode="&#x1e0c;" horiz-adv-x="780" 
d="M325 0h-212v700h212q175 0 282.5 -95.5t107.5 -252.5q0 -160 -108 -256t-282 -96zM685 349q0 147 -100.5 235t-261.5 88h-180v-644h184q157 0 257.5 88.5t100.5 232.5zM374 -149q-12 0 -20.5 8.5t-8.5 20.5t8.5 20.5t20.5 8.5t20.5 -8.5t8.5 -20.5t-8.5 -20.5t-20.5 -8.5
z" />
    <glyph glyph-name="uni1E0D" unicode="&#x1e0d;" horiz-adv-x="615" 
d="M516 0h-29v87q-48 -50 -96.5 -73.5t-102.5 -23.5q-97 0 -164 69.5t-67 176.5q0 111 69 184t174 73q47 0 93.5 -19.5t93.5 -58.5v320l29 15v-750zM300 466q-90 0 -152 -67t-62 -163q0 -95 60 -157t145 -62q49 0 97 24.5t99 75.5v265q-49 42 -96 63t-91 21zM305 -149
q-12 0 -20.5 8.5t-8.5 20.5t8.5 20.5t20.5 8.5t20.5 -8.5t8.5 -20.5t-8.5 -20.5t-20.5 -8.5z" />
    <glyph glyph-name="uni1E0E" unicode="&#x1e0e;" horiz-adv-x="780" 
d="M325 0h-212v700h212q175 0 282.5 -95.5t107.5 -252.5q0 -160 -108 -256t-282 -96zM685 349q0 147 -100.5 235t-261.5 88h-180v-644h184q157 0 257.5 88.5t100.5 232.5zM215 -140v26h318v-26h-318z" />
    <glyph glyph-name="uni1E0F" unicode="&#x1e0f;" horiz-adv-x="615" 
d="M516 0h-29v87q-48 -50 -96.5 -73.5t-102.5 -23.5q-97 0 -164 69.5t-67 176.5q0 111 69 184t174 73q47 0 93.5 -19.5t93.5 -58.5v320l29 15v-750zM300 466q-90 0 -152 -67t-62 -163q0 -95 60 -157t145 -62q49 0 97 24.5t99 75.5v265q-49 42 -96 63t-91 21zM146 -140v26
h318v-26h-318z" />
    <glyph glyph-name="uni1E12" unicode="&#x1e12;" horiz-adv-x="780" 
d="M325 0h-212v700h212q175 0 282.5 -95.5t107.5 -252.5q0 -160 -108 -256t-282 -96zM685 349q0 147 -100.5 235t-261.5 88h-180v-644h184q157 0 257.5 88.5t100.5 232.5zM512 -233h-21l-118 122l-117 -122h-20l123 151h30z" />
    <glyph glyph-name="uni1E13" unicode="&#x1e13;" horiz-adv-x="615" 
d="M516 0h-29v87q-48 -50 -96.5 -73.5t-102.5 -23.5q-97 0 -164 69.5t-67 176.5q0 111 69 184t174 73q47 0 93.5 -19.5t93.5 -58.5v320l29 15v-750zM300 466q-90 0 -152 -67t-62 -163q0 -95 60 -157t145 -62q49 0 97 24.5t99 75.5v265q-49 42 -96 63t-91 21zM443 -233h-21
l-118 122l-117 -122h-20l123 151h30z" />
    <glyph glyph-name="uni1E20" unicode="&#x1e20;" horiz-adv-x="790" 
d="M684 342v-280q-73 -40 -131 -56t-125 -16q-157 0 -260 99t-103 256q0 160 107.5 263t270.5 103q63 0 123.5 -18.5t109.5 -52.5v-34h-2q-52 37 -111.5 57t-121.5 20q-147 0 -246.5 -96t-99.5 -240q0 -147 95.5 -238t241.5 -91q60 0 112 14t111 47v235h-257v28h286z
M256 807v26h338v-26h-338z" />
    <glyph glyph-name="uni1E21" unicode="&#x1e21;" horiz-adv-x="614" 
d="M515 484v-432q0 -112 -65 -176.5t-172 -64.5q-49 0 -96.5 12t-90.5 35l-12 37l2 1q47 -29 97 -43.5t101 -14.5q92 0 149.5 57.5t57.5 154.5v61q-48 -50 -96.5 -73.5t-102.5 -23.5q-101 0 -166 66t-65 168q0 103 69.5 174t170.5 71q51 0 97.5 -19.5t93.5 -59.5l13 70h15z
M296 466q-86 0 -148.5 -64.5t-62.5 -153.5q0 -90 58 -148.5t147 -58.5q49 0 97 24.5t99 75.5v241q-50 43 -96 63.5t-94 20.5zM146 617v26h318v-26h-318z" />
    <glyph glyph-name="uni1E24" unicode="&#x1e24;" horiz-adv-x="812" 
d="M699 0h-30v346h-526v-346h-30v700h30v-326h526v326h30v-700zM406 -139q-12 0 -20.5 8.5t-8.5 20.5t8.5 20.5t20.5 8.5t20.5 -8.5t8.5 -20.5t-8.5 -20.5t-20.5 -8.5z" />
    <glyph glyph-name="uni1E25" unicode="&#x1e25;" 
d="M327 469q-52 0 -99.5 -30.5t-99.5 -98.5v-340h-29v735l29 15v-378q47 64 96.5 94t105.5 30q80 0 128 -51.5t48 -141.5v-303h-29v301q0 79 -40.5 123.5t-109.5 44.5zM303 -139q-12 0 -20.5 8.5t-8.5 20.5t8.5 20.5t20.5 8.5t20.5 -8.5t8.5 -20.5t-8.5 -20.5t-20.5 -8.5z
" />
    <glyph glyph-name="uni1E28" unicode="&#x1e28;" horiz-adv-x="812" 
d="M138 -63q37 0 59.5 -16.5t22.5 -43.5q0 -32 -30.5 -52t-81.5 -20q-18 0 -35 2.5t-36 8.5l-15 29l1 1q22 -9 43 -13t43 -4q39 0 61.5 12.5t22.5 34.5q0 18 -15.5 27.5t-44.5 9.5q-19 0 -35 -2.5t-41 -9.5l-3 4l59 98v697h30v-326h526v326h30v-700h-30v346h-526v-346h-4
l-40 -67q9 2 18 3t21 1z" />
    <glyph glyph-name="uni1E29" unicode="&#x1e29;" 
d="M124 -63q37 0 59.5 -16.5t22.5 -43.5q0 -32 -30.5 -52t-81.5 -20q-18 0 -35 2.5t-36 8.5l-15 29l1 1q22 -9 43 -13t43 -4q39 0 61.5 12.5t22.5 34.5q0 18 -15.5 27.5t-44.5 9.5q-19 0 -35 -2.5t-41 -9.5l-3 4l59 98v732l29 15v-378q47 64 96.5 94t105.5 30
q80 0 128 -51.5t48 -141.5v-303h-29v301q0 79 -40.5 123.5t-109.5 44.5q-52 0 -99.5 -30.5t-99.5 -98.5v-340h-3l-40 -67q9 2 18 3t21 1z" />
    <glyph glyph-name="uni1E2A" unicode="&#x1e2a;" horiz-adv-x="812" 
d="M699 0h-30v346h-526v-346h-30v700h30v-326h526v326h30v-700zM406 -227q-46 0 -80 29.5t-70 109.5l15 7q33 -64 63.5 -88.5t71.5 -24.5t71.5 24.5t63.5 88.5l15 -7q-36 -80 -70 -109.5t-80 -29.5z" />
    <glyph glyph-name="uni1E2B" unicode="&#x1e2b;" 
d="M327 469q-52 0 -99.5 -30.5t-99.5 -98.5v-340h-29v735l29 15v-378q47 64 96.5 94t105.5 30q80 0 128 -51.5t48 -141.5v-303h-29v301q0 79 -40.5 123.5t-109.5 44.5zM303 -227q-46 0 -80 29.5t-70 109.5l15 7q33 -64 63.5 -88.5t71.5 -24.5t71.5 24.5t63.5 88.5l15 -7
q-36 -80 -70 -109.5t-80 -29.5z" />
    <glyph glyph-name="uni1E32" unicode="&#x1e32;" horiz-adv-x="665" 
d="M632 0h-44l-396 346h-49v-346h-30v700h30v-326h52l388 326h42v-2l-405 -338l412 -358v-2zM360 -144q-12 0 -20.5 8.5t-8.5 20.5t8.5 20.5t20.5 8.5t20.5 -8.5t8.5 -20.5t-8.5 -20.5t-20.5 -8.5z" />
    <glyph glyph-name="uni1E33" unicode="&#x1e33;" horiz-adv-x="507" 
d="M481 0h-42l-273 232h-38v-232h-29v735l29 15v-491h39l262 225h41v-2l-278 -235l289 -245v-2zM275 -144q-12 0 -20.5 8.5t-8.5 20.5t8.5 20.5t20.5 8.5t20.5 -8.5t8.5 -20.5t-8.5 -20.5t-20.5 -8.5z" />
    <glyph glyph-name="uni1E34" unicode="&#x1e34;" horiz-adv-x="665" 
d="M632 0h-44l-396 346h-49v-346h-30v700h30v-326h52l388 326h42v-2l-405 -338l412 -358v-2zM201 -140v26h318v-26h-318z" />
    <glyph glyph-name="uni1E35" unicode="&#x1e35;" horiz-adv-x="507" 
d="M481 0h-42l-273 232h-38v-232h-29v735l29 15v-491h39l262 225h41v-2l-278 -235l289 -245v-2zM116 -140v26h318v-26h-318z" />
    <glyph glyph-name="uni1E36" unicode="&#x1e36;" horiz-adv-x="511" 
d="M487 0h-374v700h30v-672h344v-28zM300 -149q-12 0 -20.5 8.5t-8.5 20.5t8.5 20.5t20.5 8.5t20.5 -8.5t8.5 -20.5t-8.5 -20.5t-20.5 -8.5z" />
    <glyph glyph-name="uni1E37" unicode="&#x1e37;" horiz-adv-x="237" 
d="M133 0h-29v735l29 15v-750zM119 -149q-12 0 -20.5 8.5t-8.5 20.5t8.5 20.5t20.5 8.5t20.5 -8.5t8.5 -20.5t-8.5 -20.5t-20.5 -8.5z" />
    <glyph glyph-name="uni1E38" unicode="&#x1e38;" horiz-adv-x="511" 
d="M487 0h-374v700h30v-672h344v-28zM-1 802v26h258v-26h-258zM300 -149q-12 0 -20.5 8.5t-8.5 20.5t8.5 20.5t20.5 8.5t20.5 -8.5t8.5 -20.5t-8.5 -20.5t-20.5 -8.5z" />
    <glyph glyph-name="uni1E39" unicode="&#x1e39;" horiz-adv-x="237" 
d="M133 0h-29v735l29 15v-750zM-10 853v26h258v-26h-258zM119 -149q-12 0 -20.5 8.5t-8.5 20.5t8.5 20.5t20.5 8.5t20.5 -8.5t8.5 -20.5t-8.5 -20.5t-20.5 -8.5z" />
    <glyph glyph-name="uni1E3A" unicode="&#x1e3a;" horiz-adv-x="511" 
d="M487 0h-374v700h30v-672h344v-28zM141 -140v26h318v-26h-318z" />
    <glyph glyph-name="uni1E3B" unicode="&#x1e3b;" horiz-adv-x="237" 
d="M133 0h-29v735l29 15v-750zM-10 -140v26h258v-26h-258z" />
    <glyph glyph-name="uni1E3C" unicode="&#x1e3c;" horiz-adv-x="511" 
d="M487 0h-374v700h30v-672h344v-28zM438 -233h-21l-118 122l-117 -122h-20l123 151h30z" />
    <glyph glyph-name="uni1E3D" unicode="&#x1e3d;" horiz-adv-x="237" 
d="M133 0h-29v735l29 15v-750zM257 -233h-21l-118 122l-117 -122h-20l123 151h30z" />
    <glyph glyph-name="uni1E3E" unicode="&#x1e3e;" horiz-adv-x="1000" 
d="M113 700h39l348 -661l348 661h39v-700h-30v655l-353 -665h-10l-353 666v-656h-28v700zM587 897h42l-126 -141h-18z" />
    <glyph glyph-name="uni1E3F" unicode="&#x1e3f;" horiz-adv-x="944" 
d="M316 469q-48 0 -94 -31.5t-94 -97.5v-340h-29v475l29 15v-115q46 63 92 92t99 29q59 0 101.5 -32t59.5 -89q52 64 100 92.5t100 28.5q77 0 123.5 -52t46.5 -141v-303h-29v301q0 79 -39 123.5t-105 44.5q-46 0 -94.5 -31t-96.5 -91q2 -11 2.5 -21.5t0.5 -22.5v-303h-29
v301q0 79 -39 123.5t-105 44.5zM561 736h39l-122 -151h-18z" />
    <glyph glyph-name="uni1E40" unicode="&#x1e40;" horiz-adv-x="1000" 
d="M113 700h39l348 -661l348 661h39v-700h-30v655l-353 -665h-10l-353 666v-656h-28v700zM500 817q12 0 20.5 -8.5t8.5 -20.5t-8.5 -20.5t-20.5 -8.5t-20.5 8.5t-8.5 20.5t8.5 20.5t20.5 8.5z" />
    <glyph glyph-name="uni1E41" unicode="&#x1e41;" horiz-adv-x="944" 
d="M316 469q-48 0 -94 -31.5t-94 -97.5v-340h-29v475l29 15v-115q46 63 92 92t99 29q59 0 101.5 -32t59.5 -89q52 64 100 92.5t100 28.5q77 0 123.5 -52t46.5 -141v-303h-29v301q0 79 -39 123.5t-105 44.5q-46 0 -94.5 -31t-96.5 -91q2 -11 2.5 -21.5t0.5 -22.5v-303h-29
v301q0 79 -39 123.5t-105 44.5zM475 594q-12 0 -20.5 8.5t-8.5 20.5t8.5 20.5t20.5 8.5t20.5 -8.5t8.5 -20.5t-8.5 -20.5t-20.5 -8.5z" />
    <glyph glyph-name="uni1E42" unicode="&#x1e42;" horiz-adv-x="1000" 
d="M113 700h39l348 -661l348 661h39v-700h-30v655l-353 -665h-10l-353 666v-656h-28v700zM500 -149q-12 0 -20.5 8.5t-8.5 20.5t8.5 20.5t20.5 8.5t20.5 -8.5t8.5 -20.5t-8.5 -20.5t-20.5 -8.5z" />
    <glyph glyph-name="uni1E43" unicode="&#x1e43;" horiz-adv-x="944" 
d="M316 469q-48 0 -94 -31.5t-94 -97.5v-340h-29v475l29 15v-115q46 63 92 92t99 29q59 0 101.5 -32t59.5 -89q52 64 100 92.5t100 28.5q77 0 123.5 -52t46.5 -141v-303h-29v301q0 79 -39 123.5t-105 44.5q-46 0 -94.5 -31t-96.5 -91q2 -11 2.5 -21.5t0.5 -22.5v-303h-29
v301q0 79 -39 123.5t-105 44.5zM475 -149q-12 0 -20.5 8.5t-8.5 20.5t8.5 20.5t20.5 8.5t20.5 -8.5t8.5 -20.5t-8.5 -20.5t-20.5 -8.5z" />
    <glyph glyph-name="uni1E44" unicode="&#x1e44;" horiz-adv-x="828" 
d="M142 0h-29v700h29l544 -639v639h29v-702h-12l-561 658v-656zM434 822q12 0 20.5 -8.5t8.5 -20.5t-8.5 -20.5t-20.5 -8.5t-20.5 8.5t-8.5 20.5t8.5 20.5t20.5 8.5z" />
    <glyph glyph-name="uni1E45" unicode="&#x1e45;" 
d="M327 469q-52 0 -99.5 -30.5t-99.5 -98.5v-340h-29v475l29 15v-118q47 64 96.5 94t105.5 30q80 0 128 -51.5t48 -141.5v-303h-29v301q0 79 -40.5 123.5t-109.5 44.5zM303 594q-12 0 -20.5 8.5t-8.5 20.5t8.5 20.5t20.5 8.5t20.5 -8.5t8.5 -20.5t-8.5 -20.5t-20.5 -8.5z
" />
    <glyph glyph-name="uni1E46" unicode="&#x1e46;" horiz-adv-x="828" 
d="M142 0h-29v700h29l544 -639v639h29v-702h-12l-561 658v-656zM404 -134q-12 0 -20.5 8.5t-8.5 20.5t8.5 20.5t20.5 8.5t20.5 -8.5t8.5 -20.5t-8.5 -20.5t-20.5 -8.5z" />
    <glyph glyph-name="uni1E47" unicode="&#x1e47;" 
d="M327 469q-52 0 -99.5 -30.5t-99.5 -98.5v-340h-29v475l29 15v-118q47 64 96.5 94t105.5 30q80 0 128 -51.5t48 -141.5v-303h-29v301q0 79 -40.5 123.5t-109.5 44.5zM303 -139q-12 0 -20.5 8.5t-8.5 20.5t8.5 20.5t20.5 8.5t20.5 -8.5t8.5 -20.5t-8.5 -20.5t-20.5 -8.5z
" />
    <glyph glyph-name="uni1E48" unicode="&#x1e48;" horiz-adv-x="828" 
d="M142 0h-29v700h29l544 -639v639h29v-702h-12l-561 658v-656zM245 -140v26h318v-26h-318z" />
    <glyph glyph-name="uni1E49" unicode="&#x1e49;" 
d="M327 469q-52 0 -99.5 -30.5t-99.5 -98.5v-340h-29v475l29 15v-118q47 64 96.5 94t105.5 30q80 0 128 -51.5t48 -141.5v-303h-29v301q0 79 -40.5 123.5t-109.5 44.5zM144 -140v26h318v-26h-318z" />
    <glyph glyph-name="uni1E4A" unicode="&#x1e4a;" horiz-adv-x="828" 
d="M142 0h-29v700h29l544 -639v639h29v-702h-12l-561 658v-656zM542 -218h-21l-118 122l-117 -122h-20l123 151h30z" />
    <glyph glyph-name="uni1E4B" unicode="&#x1e4b;" 
d="M327 469q-52 0 -99.5 -30.5t-99.5 -98.5v-340h-29v475l29 15v-118q47 64 96.5 94t105.5 30q80 0 128 -51.5t48 -141.5v-303h-29v301q0 79 -40.5 123.5t-109.5 44.5zM441 -223h-21l-118 122l-117 -122h-20l123 151h30z" />
    <glyph glyph-name="uni1E58" unicode="&#x1e58;" horiz-adv-x="598" 
d="M597 0h-40l-282 308h-132v-308h-30v700h173q97 0 156.5 -52t59.5 -141q0 -76 -54.5 -131t-136.5 -66zM472 507q0 75 -51.5 120t-136.5 45h-141v-336h137q79 0 135.5 49t56.5 122zM295 837q12 0 20.5 -8.5t8.5 -20.5t-8.5 -20.5t-20.5 -8.5t-20.5 8.5t-8.5 20.5t8.5 20.5
t20.5 8.5z" />
    <glyph glyph-name="uni1E59" unicode="&#x1e59;" horiz-adv-x="382" 
d="M318 462q-39 0 -80.5 -29t-109.5 -105v-328h-29v475l29 15v-129q69 79 107 105t81 26q9 0 16.5 -1t14.5 -4l4 -31q-7 3 -15.5 4.5t-17.5 1.5zM201 594q-12 0 -20.5 8.5t-8.5 20.5t8.5 20.5t20.5 8.5t20.5 -8.5t8.5 -20.5t-8.5 -20.5t-20.5 -8.5z" />
    <glyph glyph-name="uni1E5A" unicode="&#x1e5a;" horiz-adv-x="598" 
d="M597 0h-40l-282 308h-132v-308h-30v700h173q97 0 156.5 -52t59.5 -141q0 -76 -54.5 -131t-136.5 -66zM472 507q0 75 -51.5 120t-136.5 45h-141v-336h137q79 0 135.5 49t56.5 122zM325 -144q-12 0 -20.5 8.5t-8.5 20.5t8.5 20.5t20.5 8.5t20.5 -8.5t8.5 -20.5t-8.5 -20.5
t-20.5 -8.5z" />
    <glyph glyph-name="uni1E5B" unicode="&#x1e5b;" horiz-adv-x="382" 
d="M318 462q-39 0 -80.5 -29t-109.5 -105v-328h-29v475l29 15v-129q69 79 107 105t81 26q9 0 16.5 -1t14.5 -4l4 -31q-7 3 -15.5 4.5t-17.5 1.5zM114 -149q-12 0 -20.5 8.5t-8.5 20.5t8.5 20.5t20.5 8.5t20.5 -8.5t8.5 -20.5t-8.5 -20.5t-20.5 -8.5z" />
    <glyph glyph-name="uni1E5C" unicode="&#x1e5c;" horiz-adv-x="598" 
d="M597 0h-40l-282 308h-132v-308h-30v700h173q97 0 156.5 -52t59.5 -141q0 -76 -54.5 -131t-136.5 -66zM472 507q0 75 -51.5 120t-136.5 45h-141v-336h137q79 0 135.5 49t56.5 122zM126 802v26h338v-26h-338zM325 -144q-12 0 -20.5 8.5t-8.5 20.5t8.5 20.5t20.5 8.5
t20.5 -8.5t8.5 -20.5t-8.5 -20.5t-20.5 -8.5z" />
    <glyph glyph-name="uni1E5D" unicode="&#x1e5d;" horiz-adv-x="382" 
d="M318 462q-39 0 -80.5 -29t-109.5 -105v-328h-29v475l29 15v-129q69 79 107 105t81 26q9 0 16.5 -1t14.5 -4l4 -31q-7 3 -15.5 4.5t-17.5 1.5zM72 617v26h258v-26h-258zM114 -149q-12 0 -20.5 8.5t-8.5 20.5t8.5 20.5t20.5 8.5t20.5 -8.5t8.5 -20.5t-8.5 -20.5t-20.5 -8.5
z" />
    <glyph glyph-name="uni1E5E" unicode="&#x1e5e;" horiz-adv-x="598" 
d="M597 0h-40l-282 308h-132v-308h-30v700h173q97 0 156.5 -52t59.5 -141q0 -76 -54.5 -131t-136.5 -66zM472 507q0 75 -51.5 120t-136.5 45h-141v-336h137q79 0 135.5 49t56.5 122zM166 -140v26h318v-26h-318z" />
    <glyph glyph-name="uni1E5F" unicode="&#x1e5f;" horiz-adv-x="382" 
d="M318 462q-39 0 -80.5 -29t-109.5 -105v-328h-29v475l29 15v-129q69 79 107 105t81 26q9 0 16.5 -1t14.5 -4l4 -31q-7 3 -15.5 4.5t-17.5 1.5zM-15 -140v26h258v-26h-258z" />
    <glyph glyph-name="uni1E62" unicode="&#x1e62;" horiz-adv-x="558" 
d="M273 342q-115 54 -153.5 96.5t-38.5 100.5q0 75 56 124t139 49q50 0 92.5 -13t89.5 -45v-35h-2q-43 34 -87 49.5t-95 15.5q-68 0 -115.5 -41t-47.5 -102q0 -47 35 -83.5t144 -88.5q114 -54 154 -98.5t40 -104.5q0 -76 -60 -127t-143 -51q-59 0 -115.5 22t-99.5 62l-11 47
l2 1q48 -51 105.5 -77.5t119.5 -26.5q69 0 120.5 43t51.5 105q0 51 -38 90t-143 88zM270 -154q-12 0 -20.5 8.5t-8.5 20.5t8.5 20.5t20.5 8.5t20.5 -8.5t8.5 -20.5t-8.5 -20.5t-20.5 -8.5z" />
    <glyph glyph-name="uni1E63" unicode="&#x1e63;" horiz-adv-x="474" 
d="M246 262q103 -29 138.5 -60t35.5 -80q0 -56 -50.5 -94.5t-123.5 -38.5q-56 0 -107 18.5t-90 52.5l-6 40l2 1q46 -43 95.5 -64t106.5 -21q61 0 102.5 30t41.5 74q0 39 -30 63t-123 51q-106 30 -139.5 59.5t-33.5 77.5q0 55 47 89.5t118 34.5q42 0 83.5 -13.5t78.5 -38.5
v-33h-2q-37 28 -78.5 43t-82.5 15q-58 0 -96.5 -26.5t-38.5 -68.5q0 -38 29.5 -61t122.5 -50zM229 -149q-12 0 -20.5 8.5t-8.5 20.5t8.5 20.5t20.5 8.5t20.5 -8.5t8.5 -20.5t-8.5 -20.5t-20.5 -8.5z" />
    <glyph glyph-name="uni1E6C" unicode="&#x1e6c;" horiz-adv-x="688" 
d="M659 700v-28h-300v-672h-30v672h-300v28h630zM344 -149q-12 0 -20.5 8.5t-8.5 20.5t8.5 20.5t20.5 8.5t20.5 -8.5t8.5 -20.5t-8.5 -20.5t-20.5 -8.5z" />
    <glyph glyph-name="uni1E6D" unicode="&#x1e6d;" horiz-adv-x="414" 
d="M382 75l-10 -39q-27 -23 -59 -35t-65 -12q-54 0 -88.5 34.5t-34.5 91.5v342h-88v27h88v125l29 15v-140h222v-27h-222v-340q0 -46 27 -73.5t69 -27.5q34 0 66.5 15t63.5 45zM233 -149q-12 0 -20.5 8.5t-8.5 20.5t8.5 20.5t20.5 8.5t20.5 -8.5t8.5 -20.5t-8.5 -20.5
t-20.5 -8.5z" />
    <glyph glyph-name="uni1E6E" unicode="&#x1e6e;" horiz-adv-x="688" 
d="M659 700v-28h-300v-672h-30v672h-300v28h630zM185 -140v26h318v-26h-318z" />
    <glyph glyph-name="uni1E6F" unicode="&#x1e6f;" horiz-adv-x="414" 
d="M382 75l-10 -39q-27 -23 -59 -35t-65 -12q-54 0 -88.5 34.5t-34.5 91.5v342h-88v27h88v125l29 15v-140h222v-27h-222v-340q0 -46 27 -73.5t69 -27.5q34 0 66.5 15t63.5 45zM104 -140v26h258v-26h-258z" />
    <glyph glyph-name="uni1E70" unicode="&#x1e70;" horiz-adv-x="688" 
d="M659 700v-28h-300v-672h-30v672h-300v28h630zM482 -233h-21l-118 122l-117 -122h-20l123 151h30z" />
    <glyph glyph-name="uni1E71" unicode="&#x1e71;" horiz-adv-x="414" 
d="M382 75l-10 -39q-27 -23 -59 -35t-65 -12q-54 0 -88.5 34.5t-34.5 91.5v342h-88v27h88v125l29 15v-140h222v-27h-222v-340q0 -46 27 -73.5t69 -27.5q34 0 66.5 15t63.5 45zM371 -233h-21l-118 122l-117 -122h-20l123 151h30z" />
    <glyph glyph-name="uni1E7E" unicode="&#x1e7e;" horiz-adv-x="765" 
d="M691 700h32l-336 -712h-10l-335 712h34l308 -657zM383 -149q-12 0 -20.5 8.5t-8.5 20.5t8.5 20.5t20.5 8.5t20.5 -8.5t8.5 -20.5t-8.5 -20.5t-20.5 -8.5z" />
    <glyph glyph-name="uni1E7F" unicode="&#x1e7f;" horiz-adv-x="563" 
d="M498 484h32l-244 -494h-9l-244 494h32l218 -449zM282 -149q-12 0 -20.5 8.5t-8.5 20.5t8.5 20.5t20.5 8.5t20.5 -8.5t8.5 -20.5t-8.5 -20.5t-20.5 -8.5z" />
    <glyph glyph-name="Wgrave" unicode="&#x1e80;" horiz-adv-x="1190" 
d="M1110 700h30l-254 -708h-29l-262 648l-262 -648h-29l-254 708h32l238 -669l271 670h10l271 -670zM466 917h42l102 -141h-18z" />
    <glyph glyph-name="wgrave" unicode="&#x1e81;" horiz-adv-x="853" 
d="M786 484h30l-196 -492h-24l-170 434l-170 -434h-23l-196 492h32l176 -453l177 455h10l178 -456zM302 736h39l101 -151h-18z" />
    <glyph glyph-name="Wacute" unicode="&#x1e82;" horiz-adv-x="1190" 
d="M1110 700h30l-254 -708h-29l-262 648l-262 -648h-29l-254 708h32l238 -669l271 670h10l271 -670zM682 917h42l-126 -141h-18z" />
    <glyph glyph-name="wacute" unicode="&#x1e83;" horiz-adv-x="853" 
d="M786 484h30l-196 -492h-24l-170 434l-170 -434h-23l-196 492h32l176 -453l177 455h10l178 -456zM513 736h39l-122 -151h-18z" />
    <glyph glyph-name="Wdieresis" unicode="&#x1e84;" horiz-adv-x="1190" 
d="M1110 700h30l-254 -708h-29l-262 648l-262 -648h-29l-254 708h32l238 -669l271 670h10l271 -670zM481 837q12 0 20 -8.5t8 -20.5t-8 -20.5t-20 -8.5t-20 8.5t-8 20.5t8 20.5t20 8.5zM709 837q12 0 20 -8.5t8 -20.5t-8 -20.5t-20 -8.5t-20 8.5t-8 20.5t8 20.5t20 8.5z" />
    <glyph glyph-name="wdieresis" unicode="&#x1e85;" horiz-adv-x="853" 
d="M786 484h30l-196 -492h-24l-170 434l-170 -434h-23l-196 492h32l176 -453l177 455h10l178 -456zM324 594q-12 0 -20.5 8.5t-8.5 20.5t8.5 20.5t20.5 8.5t20.5 -8.5t8.5 -20.5t-8.5 -20.5t-20.5 -8.5zM530 594q-12 0 -20.5 8.5t-8.5 20.5t8.5 20.5t20.5 8.5t20.5 -8.5
t8.5 -20.5t-8.5 -20.5t-20.5 -8.5z" />
    <glyph glyph-name="uni1E8C" unicode="&#x1e8c;" horiz-adv-x="717" 
d="M670 0h-39l-273 335l-274 -335h-37l291 356l-283 344h39l265 -324l266 324h37l-283 -345zM245 837q12 0 20 -8.5t8 -20.5t-8 -20.5t-20 -8.5t-20 8.5t-8 20.5t8 20.5t20 8.5zM473 837q12 0 20 -8.5t8 -20.5t-8 -20.5t-20 -8.5t-20 8.5t-8 20.5t8 20.5t20 8.5z" />
    <glyph glyph-name="uni1E8D" unicode="&#x1e8d;" horiz-adv-x="539" 
d="M499 0h-36l-194 231l-193 -231h-35l209 249l-200 235h36l183 -218l184 218h35l-200 -235zM167 594q-12 0 -20.5 8.5t-8.5 20.5t8.5 20.5t20.5 8.5t20.5 -8.5t8.5 -20.5t-8.5 -20.5t-20.5 -8.5zM373 594q-12 0 -20.5 8.5t-8.5 20.5t8.5 20.5t20.5 8.5t20.5 -8.5t8.5 -20.5
t-8.5 -20.5t-20.5 -8.5z" />
    <glyph glyph-name="uni1E8E" unicode="&#x1e8e;" horiz-adv-x="648" 
d="M584 700h35l-278 -374v-326h-30v323l-282 377h37l259 -349zM324 832q12 0 20.5 -8.5t8.5 -20.5t-8.5 -20.5t-20.5 -8.5t-20.5 8.5t-8.5 20.5t8.5 20.5t20.5 8.5z" />
    <glyph glyph-name="uni1E8F" unicode="&#x1e8f;" horiz-adv-x="510" 
d="M483 484l-230 -529q-33 -77 -68.5 -110.5t-85.5 -33.5q-19 0 -36.5 5.5t-34.5 16.5l-6 32l2 1q20 -14 38.5 -21t36.5 -7q39 0 69.5 29.5t57.5 93.5l24 56l-220 467h32l203 -437l186 437h32zM253 589q-12 0 -20.5 8.5t-8.5 20.5t8.5 20.5t20.5 8.5t20.5 -8.5t8.5 -20.5
t-8.5 -20.5t-20.5 -8.5z" />
    <glyph glyph-name="uni1E90" unicode="&#x1e90;" horiz-adv-x="700" 
d="M108 28h539l-16 -28h-576l-2 6l531 666h-496v28h548l2 -6zM506 776h-24l-125 113l-125 -113h-22l137 141h22z" />
    <glyph glyph-name="uni1E91" unicode="&#x1e91;" horiz-adv-x="513" 
d="M85 26h389l-8 -26h-433l-2 4l387 454h-356v26h408l2 -4zM402 585h-21l-118 122l-117 -122h-20l123 151h30z" />
    <glyph glyph-name="uni1E92" unicode="&#x1e92;" horiz-adv-x="700" 
d="M108 28h539l-16 -28h-576l-2 6l531 666h-496v28h548l2 -6zM350 -149q-12 0 -20.5 8.5t-8.5 20.5t8.5 20.5t20.5 8.5t20.5 -8.5t8.5 -20.5t-8.5 -20.5t-20.5 -8.5z" />
    <glyph glyph-name="uni1E93" unicode="&#x1e93;" horiz-adv-x="513" 
d="M85 26h389l-8 -26h-433l-2 4l387 454h-356v26h408l2 -4zM255 -149q-12 0 -20.5 8.5t-8.5 20.5t8.5 20.5t20.5 8.5t20.5 -8.5t8.5 -20.5t-8.5 -20.5t-20.5 -8.5z" />
    <glyph glyph-name="uni1E94" unicode="&#x1e94;" horiz-adv-x="700" 
d="M108 28h539l-16 -28h-576l-2 6l531 666h-496v28h548l2 -6zM191 -140v26h318v-26h-318z" />
    <glyph glyph-name="uni1E95" unicode="&#x1e95;" horiz-adv-x="513" 
d="M85 26h389l-8 -26h-433l-2 4l387 454h-356v26h408l2 -4zM96 -140v26h318v-26h-318z" />
    <glyph glyph-name="uni1E96" unicode="&#x1e96;" 
d="M327 469q-52 0 -99.5 -30.5t-99.5 -98.5v-340h-29v735l29 15v-378q47 64 96.5 94t105.5 30q80 0 128 -51.5t48 -141.5v-303h-29v301q0 79 -40.5 123.5t-109.5 44.5zM144 -140v26h318v-26h-318z" />
    <glyph glyph-name="uni1E9E" unicode="&#x1e9e;" horiz-adv-x="676" 
d="M611 158q0 -72 -50.5 -121t-125.5 -49q-34 0 -63.5 7.5t-63.5 25.5l-13 38l2 1q44 -26 74.5 -35.5t67.5 -9.5q57 0 99.5 41t42.5 99q0 66 -51 110t-187 92v7l195 255q-27 28 -78 46.5t-105 18.5q-98 0 -159.5 -68t-61.5 -176v-440h-30v437q0 125 69 200t185 75
q62 0 120 -23t96 -61v-5l-191 -252q130 -48 179 -95t49 -118z" />
    <glyph glyph-name="uni1EA0" unicode="&#x1ea0;" horiz-adv-x="768" 
d="M73 0h-31l326 707h32l326 -707h-34l-96 209h-427zM383 676l-201 -439h402zM384 -134q-12 0 -20.5 8.5t-8.5 20.5t8.5 20.5t20.5 8.5t20.5 -8.5t8.5 -20.5t-8.5 -20.5t-20.5 -8.5z" />
    <glyph glyph-name="uni1EA1" unicode="&#x1ea1;" horiz-adv-x="554" 
d="M456 9l-29 -15v99q-71 -56 -123.5 -80t-103.5 -24q-62 0 -103 34.5t-41 89.5q0 85 90 125.5t281 45.5v28q0 75 -37.5 116t-106.5 41q-45 0 -90.5 -18t-92.5 -55l-2 1l7 37q45 31 89.5 46.5t91.5 15.5q79 0 124.5 -48.5t45.5 -133.5v-305zM85 114q0 -43 33.5 -70t83.5 -27
q47 0 101.5 25.5t123.5 79.5v136q-176 -5 -259 -39.5t-83 -104.5zM270 -149q-12 0 -20.5 8.5t-8.5 20.5t8.5 20.5t20.5 8.5t20.5 -8.5t8.5 -20.5t-8.5 -20.5t-20.5 -8.5z" />
    <glyph glyph-name="uni1EA2" unicode="&#x1ea2;" horiz-adv-x="768" 
d="M73 0h-31l326 707h32l326 -707h-34l-96 209h-427zM383 676l-201 -439h402zM397 961q45 0 73 -19.5t28 -51.5q0 -29 -23 -51t-92 -58l-22 10v1q63 33 86.5 53t23.5 43q0 22 -21.5 34.5t-55.5 12.5q-30 0 -60 -9t-67 -29v29q36 19 66 27t64 8z" />
    <glyph glyph-name="uni1EA3" unicode="&#x1ea3;" horiz-adv-x="554" 
d="M456 9l-29 -15v99q-71 -56 -123.5 -80t-103.5 -24q-62 0 -103 34.5t-41 89.5q0 85 90 125.5t281 45.5v28q0 75 -37.5 116t-106.5 41q-45 0 -90.5 -18t-92.5 -55l-2 1l7 37q45 31 89.5 46.5t91.5 15.5q79 0 124.5 -48.5t45.5 -133.5v-305zM85 114q0 -43 33.5 -70t83.5 -27
q47 0 101.5 25.5t123.5 79.5v136q-176 -5 -259 -39.5t-83 -104.5zM384 716q0 -30 -20 -55t-93 -78l-19 9v1q66 50 85 72.5t19 45.5q0 25 -18 38.5t-50 13.5q-28 0 -54 -11t-59 -36h-1v31q30 22 58 32.5t57 10.5q43 0 69 -20t26 -54z" />
    <glyph glyph-name="uni1EA4" unicode="&#x1ea4;" horiz-adv-x="768" 
d="M73 0h-31l326 707h32l326 -707h-34l-96 209h-427zM383 676l-201 -439h402zM582 979h42l-102 -98h-18zM532 772h-24l-125 90l-125 -90h-22l137 116h22z" />
    <glyph glyph-name="uni1EA5" unicode="&#x1ea5;" horiz-adv-x="554" 
d="M456 9l-29 -15v99q-71 -56 -123.5 -80t-103.5 -24q-62 0 -103 34.5t-41 89.5q0 85 90 125.5t281 45.5v28q0 75 -37.5 116t-106.5 41q-45 0 -90.5 -18t-92.5 -55l-2 1l7 37q45 31 89.5 46.5t91.5 15.5q79 0 124.5 -48.5t45.5 -133.5v-305zM85 114q0 -43 33.5 -70t83.5 -27
q47 0 101.5 25.5t123.5 79.5v136q-176 -5 -259 -39.5t-83 -104.5zM485 825h42l-113 -131h-18zM411 585h-21l-118 94l-117 -94h-20l123 121h30z" />
    <glyph glyph-name="uni1EA6" unicode="&#x1ea6;" horiz-adv-x="768" 
d="M73 0h-31l326 707h32l326 -707h-34l-96 209h-427zM383 676l-201 -439h402zM481 979h42l78 -98h-18zM532 772h-24l-125 90l-125 -90h-22l137 116h22z" />
    <glyph glyph-name="uni1EA7" unicode="&#x1ea7;" horiz-adv-x="554" 
d="M456 9l-29 -15v99q-71 -56 -123.5 -80t-103.5 -24q-62 0 -103 34.5t-41 89.5q0 85 90 125.5t281 45.5v28q0 75 -37.5 116t-106.5 41q-45 0 -90.5 -18t-92.5 -55l-2 1l7 37q45 31 89.5 46.5t91.5 15.5q79 0 124.5 -48.5t45.5 -133.5v-305zM85 114q0 -43 33.5 -70t83.5 -27
q47 0 101.5 25.5t123.5 79.5v136q-176 -5 -259 -39.5t-83 -104.5zM361 825h42l89 -131h-18zM411 585h-21l-118 94l-117 -94h-20l123 121h30z" />
    <glyph glyph-name="uni1EA8" unicode="&#x1ea8;" horiz-adv-x="768" 
d="M73 0h-31l326 707h32l326 -707h-34l-96 209h-427zM383 676l-201 -439h402zM630 965q0 -18 -13.5 -33.5t-65.5 -51.5l-17 8v1q45 35 57.5 48.5t12.5 26.5q0 12 -10.5 19t-28.5 7q-21 0 -43 -8t-51 -26h-1v27q26 16 48.5 23t47.5 7q29 0 46.5 -13t17.5 -35zM532 772h-24
l-125 90l-125 -90h-22l137 116h22z" />
    <glyph glyph-name="uni1EA9" unicode="&#x1ea9;" horiz-adv-x="554" 
d="M456 9l-29 -15v99q-71 -56 -123.5 -80t-103.5 -24q-62 0 -103 34.5t-41 89.5q0 85 90 125.5t281 45.5v28q0 75 -37.5 116t-106.5 41q-45 0 -90.5 -18t-92.5 -55l-2 1l7 37q45 31 89.5 46.5t91.5 15.5q79 0 124.5 -48.5t45.5 -133.5v-305zM85 114q0 -43 33.5 -70t83.5 -27
q47 0 101.5 25.5t123.5 79.5v136q-176 -5 -259 -39.5t-83 -104.5zM538 780q0 -23 -16.5 -41.5t-70.5 -55.5l-17 9v1q43 32 59 49.5t16 35.5q0 15 -13.5 24.5t-35.5 9.5q-23 0 -49 -10t-52 -29h-1v30q28 18 53 26t51 8q34 0 55 -15.5t21 -41.5zM411 585h-21l-118 94l-117 -94
h-20l123 121h30z" />
    <glyph glyph-name="uni1EAA" unicode="&#x1eaa;" horiz-adv-x="768" 
d="M73 0h-31l326 707h32l326 -707h-34l-96 209h-427zM383 676l-201 -439h402zM398 980q34 -19 47.5 -24.5t21.5 -5.5q15 0 30.5 16t36.5 53l15 -7q-27 -53 -44 -70.5t-40 -17.5q-11 0 -27.5 6.5t-54.5 27.5q-34 19 -47.5 24.5t-21.5 5.5q-15 0 -30.5 -16t-36.5 -53l-15 7
q27 53 44 70.5t40 17.5q11 0 27.5 -6.5t54.5 -27.5zM532 772h-24l-125 90l-125 -90h-22l137 116h22z" />
    <glyph glyph-name="uni1EAB" unicode="&#x1eab;" horiz-adv-x="554" 
d="M456 9l-29 -15v99q-71 -56 -123.5 -80t-103.5 -24q-62 0 -103 34.5t-41 89.5q0 85 90 125.5t281 45.5v28q0 75 -37.5 116t-106.5 41q-45 0 -90.5 -18t-92.5 -55l-2 1l7 37q45 31 89.5 46.5t91.5 15.5q79 0 124.5 -48.5t45.5 -133.5v-305zM85 114q0 -43 33.5 -70t83.5 -27
q47 0 101.5 25.5t123.5 79.5v136q-176 -5 -259 -39.5t-83 -104.5zM287 814q27 -19 39 -24.5t20 -5.5q15 0 30.5 16t36.5 53l15 -7q-28 -54 -45 -72t-40 -18q-11 0 -25.5 6.5t-46.5 27.5q-27 19 -39 24.5t-20 5.5q-15 0 -30.5 -16t-36.5 -53l-15 7q29 55 46 72.5t39 17.5
q11 0 25.5 -6.5t46.5 -27.5zM411 585h-21l-118 94l-117 -94h-20l123 121h30z" />
    <glyph glyph-name="uni1EAC" unicode="&#x1eac;" horiz-adv-x="768" 
d="M73 0h-31l326 707h32l326 -707h-34l-96 209h-427zM383 676l-201 -439h402zM532 772h-24l-125 113l-125 -113h-22l137 141h22zM384 -134q-12 0 -20.5 8.5t-8.5 20.5t8.5 20.5t20.5 8.5t20.5 -8.5t8.5 -20.5t-8.5 -20.5t-20.5 -8.5z" />
    <glyph glyph-name="uni1EAD" unicode="&#x1ead;" horiz-adv-x="554" 
d="M456 9l-29 -15v99q-71 -56 -123.5 -80t-103.5 -24q-62 0 -103 34.5t-41 89.5q0 85 90 125.5t281 45.5v28q0 75 -37.5 116t-106.5 41q-45 0 -90.5 -18t-92.5 -55l-2 1l7 37q45 31 89.5 46.5t91.5 15.5q79 0 124.5 -48.5t45.5 -133.5v-305zM85 114q0 -43 33.5 -70t83.5 -27
q47 0 101.5 25.5t123.5 79.5v136q-176 -5 -259 -39.5t-83 -104.5zM411 585h-21l-118 122l-117 -122h-20l123 151h30zM270 -149q-12 0 -20.5 8.5t-8.5 20.5t8.5 20.5t20.5 8.5t20.5 -8.5t8.5 -20.5t-8.5 -20.5t-20.5 -8.5z" />
    <glyph glyph-name="uni1EAE" unicode="&#x1eae;" horiz-adv-x="768" 
d="M73 0h-31l326 707h32l326 -707h-34l-96 209h-427zM383 676l-201 -439h402zM438 1032h42l-108 -118h-18zM384 778q-52 0 -89.5 22.5t-76.5 84.5l13 8q38 -48 73 -66.5t80 -18.5t80 18.5t73 66.5l13 -8q-39 -62 -76.5 -84.5t-89.5 -22.5z" />
    <glyph glyph-name="uni1EAF" unicode="&#x1eaf;" horiz-adv-x="554" 
d="M456 9l-29 -15v99q-71 -56 -123.5 -80t-103.5 -24q-62 0 -103 34.5t-41 89.5q0 85 90 125.5t281 45.5v28q0 75 -37.5 116t-106.5 41q-45 0 -90.5 -18t-92.5 -55l-2 1l7 37q45 31 89.5 46.5t91.5 15.5q79 0 124.5 -48.5t45.5 -133.5v-305zM85 114q0 -43 33.5 -70t83.5 -27
q47 0 101.5 25.5t123.5 79.5v136q-176 -5 -259 -39.5t-83 -104.5zM339 838h42l-113 -131h-18zM273 584q-48 0 -83 26t-67 87l15 8q33 -50 63 -69t72 -19t72 19t63 69l15 -8q-32 -61 -67 -87t-83 -26z" />
    <glyph glyph-name="uni1EB0" unicode="&#x1eb0;" horiz-adv-x="768" 
d="M73 0h-31l326 707h32l326 -707h-34l-96 209h-427zM383 676l-201 -439h402zM288 1032h42l84 -118h-18zM384 778q-52 0 -89.5 22.5t-76.5 84.5l13 8q38 -48 73 -66.5t80 -18.5t80 18.5t73 66.5l13 -8q-39 -62 -76.5 -84.5t-89.5 -22.5z" />
    <glyph glyph-name="uni1EB1" unicode="&#x1eb1;" horiz-adv-x="554" 
d="M456 9l-29 -15v99q-71 -56 -123.5 -80t-103.5 -24q-62 0 -103 34.5t-41 89.5q0 85 90 125.5t281 45.5v28q0 75 -37.5 116t-106.5 41q-45 0 -90.5 -18t-92.5 -55l-2 1l7 37q45 31 89.5 46.5t91.5 15.5q79 0 124.5 -48.5t45.5 -133.5v-305zM85 114q0 -43 33.5 -70t83.5 -27
q47 0 101.5 25.5t123.5 79.5v136q-176 -5 -259 -39.5t-83 -104.5zM165 838h42l89 -131h-18zM273 584q-48 0 -83 26t-67 87l15 8q33 -50 63 -69t72 -19t72 19t63 69l15 -8q-32 -61 -67 -87t-83 -26z" />
    <glyph glyph-name="uni1EB2" unicode="&#x1eb2;" horiz-adv-x="768" 
d="M73 0h-31l326 707h32l326 -707h-34l-96 209h-427zM383 676l-201 -439h402zM484 1010q0 -26 -19 -46t-82 -62l-20 8v1q60 45 76.5 62t16.5 33t-15 26t-40 10t-54 -10.5t-60 -31.5h-1v30q30 20 58.5 29t58.5 9q35 0 58 -16t23 -42zM384 778q-52 0 -89.5 22.5t-76.5 84.5
l13 8q38 -48 73 -66.5t80 -18.5t80 18.5t73 66.5l13 -8q-39 -62 -76.5 -84.5t-89.5 -22.5z" />
    <glyph glyph-name="uni1EB3" unicode="&#x1eb3;" horiz-adv-x="554" 
d="M456 9l-29 -15v99q-71 -56 -123.5 -80t-103.5 -24q-62 0 -103 34.5t-41 89.5q0 85 90 125.5t281 45.5v28q0 75 -37.5 116t-106.5 41q-45 0 -90.5 -18t-92.5 -55l-2 1l7 37q45 31 89.5 46.5t91.5 15.5q79 0 124.5 -48.5t45.5 -133.5v-305zM85 114q0 -43 33.5 -70t83.5 -27
q47 0 101.5 25.5t123.5 79.5v136q-176 -5 -259 -39.5t-83 -104.5zM381 836q0 -24 -21 -46.5t-87 -66.5l-19 10v1q58 43 77.5 62.5t19.5 36.5q0 18 -17 29t-45 11q-27 0 -56 -11t-61 -35h-1v31q32 22 60.5 32t59.5 10q41 0 65.5 -17.5t24.5 -46.5zM273 584q-48 0 -83 26
t-67 87l15 8q33 -50 63 -69t72 -19t72 19t63 69l15 -8q-32 -61 -67 -87t-83 -26z" />
    <glyph glyph-name="uni1EB4" unicode="&#x1eb4;" horiz-adv-x="768" 
d="M73 0h-31l326 707h32l326 -707h-34l-96 209h-427zM383 676l-201 -439h402zM391 988q34 -19 47.5 -24.5t21.5 -5.5q15 0 30.5 16t36.5 53l15 -7q-27 -53 -44 -70.5t-40 -17.5q-11 0 -27.5 6.5t-54.5 27.5q-34 19 -47.5 24.5t-21.5 5.5q-15 0 -30.5 -16t-36.5 -53l-15 7
q27 53 44 70.5t40 17.5q11 0 27.5 -6.5t54.5 -27.5zM384 778q-52 0 -89.5 22.5t-76.5 84.5l13 8q38 -48 73 -66.5t80 -18.5t80 18.5t73 66.5l13 -8q-39 -62 -76.5 -84.5t-89.5 -22.5z" />
    <glyph glyph-name="uni1EB5" unicode="&#x1eb5;" horiz-adv-x="554" 
d="M456 9l-29 -15v99q-71 -56 -123.5 -80t-103.5 -24q-62 0 -103 34.5t-41 89.5q0 85 90 125.5t281 45.5v28q0 75 -37.5 116t-106.5 41q-45 0 -90.5 -18t-92.5 -55l-2 1l7 37q45 31 89.5 46.5t91.5 15.5q79 0 124.5 -48.5t45.5 -133.5v-305zM85 114q0 -43 33.5 -70t83.5 -27
q47 0 101.5 25.5t123.5 79.5v136q-176 -5 -259 -39.5t-83 -104.5zM281 804q27 -19 39 -24.5t20 -5.5q15 0 30.5 16t36.5 53l15 -7q-28 -54 -45 -72t-40 -18q-11 0 -25.5 6.5t-46.5 27.5q-27 19 -39 24.5t-20 5.5q-15 0 -30.5 -16t-36.5 -53l-15 7q29 55 46 72.5t39 17.5
q11 0 25.5 -6.5t46.5 -27.5zM273 584q-48 0 -83 26t-67 87l15 8q33 -50 63 -69t72 -19t72 19t63 69l15 -8q-32 -61 -67 -87t-83 -26z" />
    <glyph glyph-name="uni1EB6" unicode="&#x1eb6;" horiz-adv-x="768" 
d="M73 0h-31l326 707h32l326 -707h-34l-96 209h-427zM383 676l-201 -439h402zM384 778q-49 0 -86.5 24.5t-79.5 92.5l11 7q44 -54 79 -73.5t76 -19.5t76 19.5t79 73.5l11 -7q-42 -68 -79.5 -92.5t-86.5 -24.5zM384 -134q-12 0 -20.5 8.5t-8.5 20.5t8.5 20.5t20.5 8.5
t20.5 -8.5t8.5 -20.5t-8.5 -20.5t-20.5 -8.5z" />
    <glyph glyph-name="uni1EB7" unicode="&#x1eb7;" horiz-adv-x="554" 
d="M456 9l-29 -15v99q-71 -56 -123.5 -80t-103.5 -24q-62 0 -103 34.5t-41 89.5q0 85 90 125.5t281 45.5v28q0 75 -37.5 116t-106.5 41q-45 0 -90.5 -18t-92.5 -55l-2 1l7 37q45 31 89.5 46.5t91.5 15.5q79 0 124.5 -48.5t45.5 -133.5v-305zM85 114q0 -43 33.5 -70t83.5 -27
q47 0 101.5 25.5t123.5 79.5v136q-176 -5 -259 -39.5t-83 -104.5zM273 584q-46 0 -80 29.5t-70 109.5l15 7q33 -64 63.5 -88.5t71.5 -24.5t71.5 24.5t63.5 88.5l15 -7q-36 -80 -70 -109.5t-80 -29.5zM270 -149q-12 0 -20.5 8.5t-8.5 20.5t8.5 20.5t20.5 8.5t20.5 -8.5
t8.5 -20.5t-8.5 -20.5t-20.5 -8.5z" />
    <glyph glyph-name="uni1EB8" unicode="&#x1eb8;" horiz-adv-x="549" 
d="M483 0h-370v700h367l14 -28h-351v-302h303v-28h-303v-314h354zM305 -149q-12 0 -20.5 8.5t-8.5 20.5t8.5 20.5t20.5 8.5t20.5 -8.5t8.5 -20.5t-8.5 -20.5t-20.5 -8.5z" />
    <glyph glyph-name="uni1EB9" unicode="&#x1eb9;" horiz-adv-x="555" 
d="M479 78l-12 -38q-42 -26 -84 -38.5t-85 -12.5q-108 0 -175 70.5t-67 186.5q0 106 65 179t162 73q98 0 157 -69t59 -178v-14.5t-1 -8.5h-412q6 -97 64.5 -154.5t149.5 -57.5q43 0 88 16t89 47zM281 471q-81 0 -138.5 -64.5t-57.5 -151.5h385q-3 97 -53.5 156.5
t-135.5 59.5zM287 -149q-12 0 -20.5 8.5t-8.5 20.5t8.5 20.5t20.5 8.5t20.5 -8.5t8.5 -20.5t-8.5 -20.5t-20.5 -8.5z" />
    <glyph glyph-name="uni1EBA" unicode="&#x1eba;" horiz-adv-x="549" 
d="M483 0h-370v700h367l14 -28h-351v-302h303v-28h-303v-314h354zM318 961q45 0 73 -19.5t28 -51.5q0 -29 -23 -51t-92 -58l-22 10v1q63 33 86.5 53t23.5 43q0 22 -21.5 34.5t-55.5 12.5q-30 0 -60 -9t-67 -29v29q36 19 66 27t64 8z" />
    <glyph glyph-name="uni1EBB" unicode="&#x1ebb;" horiz-adv-x="555" 
d="M479 78l-12 -38q-42 -26 -84 -38.5t-85 -12.5q-108 0 -175 70.5t-67 186.5q0 106 65 179t162 73q98 0 157 -69t59 -178v-14.5t-1 -8.5h-412q6 -97 64.5 -154.5t149.5 -57.5q43 0 88 16t89 47zM281 471q-81 0 -138.5 -64.5t-57.5 -151.5h385q-3 97 -53.5 156.5
t-135.5 59.5zM396 716q0 -30 -20 -55t-93 -78l-19 9v1q66 50 85 72.5t19 45.5q0 25 -18 38.5t-50 13.5q-28 0 -54 -11t-59 -36h-1v31q30 22 58 32.5t57 10.5q43 0 69 -20t26 -54z" />
    <glyph glyph-name="uni1EBC" unicode="&#x1ebc;" horiz-adv-x="549" 
d="M483 0h-370v700h367l14 -28h-351v-302h303v-28h-303v-314h354zM316 849q35 -28 50.5 -36t26.5 -8q19 0 36 20.5t48 78.5l17 -8q-35 -71 -56.5 -95t-50.5 -24q-14 0 -33 9.5t-60 40.5q-35 28 -50.5 36t-26.5 8q-19 0 -36 -20.5t-48 -78.5l-17 8q35 71 56.5 95t50.5 24
q14 0 33 -9.5t60 -40.5z" />
    <glyph glyph-name="uni1EBD" unicode="&#x1ebd;" horiz-adv-x="555" 
d="M479 78l-12 -38q-42 -26 -84 -38.5t-85 -12.5q-108 0 -175 70.5t-67 186.5q0 106 65 179t162 73q98 0 157 -69t59 -178v-14.5t-1 -8.5h-412q6 -97 64.5 -154.5t149.5 -57.5q43 0 88 16t89 47zM281 471q-81 0 -138.5 -64.5t-57.5 -151.5h385q-3 97 -53.5 156.5
t-135.5 59.5zM295 669q35 -31 50 -40t26 -9q19 0 37.5 23.5t48.5 87.5l17 -8q-36 -78 -57.5 -104t-49.5 -26q-14 0 -33 11t-59 45q-35 31 -50 40t-26 9q-19 0 -37.5 -23.5t-48.5 -87.5l-17 8q36 78 57.5 104t49.5 26q14 0 33 -11t59 -45z" />
    <glyph glyph-name="uni1EBE" unicode="&#x1ebe;" horiz-adv-x="549" 
d="M483 0h-370v700h367l14 -28h-351v-302h303v-28h-303v-314h354zM503 983h42l-102 -98h-18zM453 776h-24l-125 90l-125 -90h-22l137 116h22z" />
    <glyph glyph-name="uni1EBF" unicode="&#x1ebf;" horiz-adv-x="555" 
d="M479 78l-12 -38q-42 -26 -84 -38.5t-85 -12.5q-108 0 -175 70.5t-67 186.5q0 106 65 179t162 73q98 0 157 -69t59 -178v-14.5t-1 -8.5h-412q6 -97 64.5 -154.5t149.5 -57.5q43 0 88 16t89 47zM281 471q-81 0 -138.5 -64.5t-57.5 -151.5h385q-3 97 -53.5 156.5
t-135.5 59.5zM497 820h42l-113 -131h-18zM423 580h-21l-118 94l-117 -94h-20l123 121h30z" />
    <glyph glyph-name="uni1EC0" unicode="&#x1ec0;" horiz-adv-x="549" 
d="M483 0h-370v700h367l14 -28h-351v-302h303v-28h-303v-314h354zM402 983h42l78 -98h-18zM453 776h-24l-125 90l-125 -90h-22l137 116h22z" />
    <glyph glyph-name="uni1EC1" unicode="&#x1ec1;" horiz-adv-x="555" 
d="M479 78l-12 -38q-42 -26 -84 -38.5t-85 -12.5q-108 0 -175 70.5t-67 186.5q0 106 65 179t162 73q98 0 157 -69t59 -178v-14.5t-1 -8.5h-412q6 -97 64.5 -154.5t149.5 -57.5q43 0 88 16t89 47zM281 471q-81 0 -138.5 -64.5t-57.5 -151.5h385q-3 97 -53.5 156.5
t-135.5 59.5zM373 820h42l89 -131h-18zM423 580h-21l-118 94l-117 -94h-20l123 121h30z" />
    <glyph glyph-name="uni1EC2" unicode="&#x1ec2;" horiz-adv-x="549" 
d="M483 0h-370v700h367l14 -28h-351v-302h303v-28h-303v-314h354zM551 969q0 -18 -13.5 -33.5t-65.5 -51.5l-17 8v1q45 35 57.5 48.5t12.5 26.5q0 12 -10.5 19t-28.5 7q-21 0 -43 -8t-51 -26h-1v27q26 16 48.5 23t47.5 7q29 0 46.5 -13t17.5 -35zM453 776h-24l-125 90
l-125 -90h-22l137 116h22z" />
    <glyph glyph-name="uni1EC3" unicode="&#x1ec3;" horiz-adv-x="555" 
d="M479 78l-12 -38q-42 -26 -84 -38.5t-85 -12.5q-108 0 -175 70.5t-67 186.5q0 106 65 179t162 73q98 0 157 -69t59 -178v-14.5t-1 -8.5h-412q6 -97 64.5 -154.5t149.5 -57.5q43 0 88 16t89 47zM281 471q-81 0 -138.5 -64.5t-57.5 -151.5h385q-3 97 -53.5 156.5
t-135.5 59.5zM550 775q0 -23 -16.5 -41.5t-70.5 -55.5l-17 9v1q43 32 59 49.5t16 35.5q0 15 -13.5 24.5t-35.5 9.5q-23 0 -49 -10t-52 -29h-1v30q28 18 53 26t51 8q34 0 55 -15.5t21 -41.5zM423 580h-21l-118 94l-117 -94h-20l123 121h30z" />
    <glyph glyph-name="uni1EC4" unicode="&#x1ec4;" horiz-adv-x="549" 
d="M483 0h-370v700h367l14 -28h-351v-302h303v-28h-303v-314h354zM319 984q34 -19 47.5 -24.5t21.5 -5.5q15 0 30.5 16t36.5 53l15 -7q-27 -53 -44 -70.5t-40 -17.5q-11 0 -27.5 6.5t-54.5 27.5q-34 19 -47.5 24.5t-21.5 5.5q-15 0 -30.5 -16t-36.5 -53l-15 7q27 53 44 70.5
t40 17.5q11 0 27.5 -6.5t54.5 -27.5zM453 776h-24l-125 90l-125 -90h-22l137 116h22z" />
    <glyph glyph-name="uni1EC5" unicode="&#x1ec5;" horiz-adv-x="555" 
d="M479 78l-12 -38q-42 -26 -84 -38.5t-85 -12.5q-108 0 -175 70.5t-67 186.5q0 106 65 179t162 73q98 0 157 -69t59 -178v-14.5t-1 -8.5h-412q6 -97 64.5 -154.5t149.5 -57.5q43 0 88 16t89 47zM281 471q-81 0 -138.5 -64.5t-57.5 -151.5h385q-3 97 -53.5 156.5
t-135.5 59.5zM299 809q27 -19 39 -24.5t20 -5.5q15 0 30.5 16t36.5 53l15 -7q-28 -54 -45 -72t-40 -18q-11 0 -25.5 6.5t-46.5 27.5q-27 19 -39 24.5t-20 5.5q-15 0 -30.5 -16t-36.5 -53l-15 7q29 55 46 72.5t39 17.5q11 0 25.5 -6.5t46.5 -27.5zM423 580h-21l-118 94
l-117 -94h-20l123 121h30z" />
    <glyph glyph-name="uni1EC6" unicode="&#x1ec6;" horiz-adv-x="549" 
d="M483 0h-370v700h367l14 -28h-351v-302h303v-28h-303v-314h354zM453 776h-24l-125 113l-125 -113h-22l137 141h22zM305 -149q-12 0 -20.5 8.5t-8.5 20.5t8.5 20.5t20.5 8.5t20.5 -8.5t8.5 -20.5t-8.5 -20.5t-20.5 -8.5z" />
    <glyph glyph-name="uni1EC7" unicode="&#x1ec7;" horiz-adv-x="555" 
d="M479 78l-12 -38q-42 -26 -84 -38.5t-85 -12.5q-108 0 -175 70.5t-67 186.5q0 106 65 179t162 73q98 0 157 -69t59 -178v-14.5t-1 -8.5h-412q6 -97 64.5 -154.5t149.5 -57.5q43 0 88 16t89 47zM281 471q-81 0 -138.5 -64.5t-57.5 -151.5h385q-3 97 -53.5 156.5
t-135.5 59.5zM423 580h-21l-118 122l-117 -122h-20l123 151h30zM287 -149q-12 0 -20.5 8.5t-8.5 20.5t8.5 20.5t20.5 8.5t20.5 -8.5t8.5 -20.5t-8.5 -20.5t-20.5 -8.5z" />
    <glyph glyph-name="uni1EC8" unicode="&#x1ec8;" horiz-adv-x="266" 
d="M148 0h-30v700h30v-700zM146 961q45 0 73 -19.5t28 -51.5q0 -29 -23 -51t-92 -58l-22 10v1q63 33 86.5 53t23.5 43q0 22 -21.5 34.5t-55.5 12.5q-30 0 -60 -9t-67 -29v29q36 19 66 27t64 8z" />
    <glyph glyph-name="uni1EC9" unicode="&#x1ec9;" horiz-adv-x="237" 
d="M133 0h-29v484h29v-484zM230 716q0 -30 -20 -55t-93 -78l-19 9v1q66 50 85 72.5t19 45.5q0 25 -18 38.5t-50 13.5q-28 0 -54 -11t-59 -36h-1v31q30 22 58 32.5t57 10.5q43 0 69 -20t26 -54z" />
    <glyph glyph-name="uni1ECA" unicode="&#x1eca;" horiz-adv-x="266" 
d="M148 0h-30v700h30v-700zM133 -149q-12 0 -20.5 8.5t-8.5 20.5t8.5 20.5t20.5 8.5t20.5 -8.5t8.5 -20.5t-8.5 -20.5t-20.5 -8.5z" />
    <glyph glyph-name="uni1ECB" unicode="&#x1ecb;" horiz-adv-x="237" 
d="M119 684q12 0 19.5 -8.5t7.5 -20.5t-8 -20.5t-20 -8.5t-19.5 8.5t-7.5 20.5t8 20.5t20 8.5zM133 0h-29v484h29v-484zM119 -149q-12 0 -20.5 8.5t-8.5 20.5t8.5 20.5t20.5 8.5t20.5 -8.5t8.5 -20.5t-8.5 -20.5t-20.5 -8.5z" />
    <glyph glyph-name="uni1ECC" unicode="&#x1ecc;" horiz-adv-x="850" 
d="M424 -14q-149 0 -254 106t-105 257q0 152 105.5 258.5t255.5 106.5q149 0 254 -106t105 -257q0 -152 -105.5 -258.5t-255.5 -106.5zM424 686q-135 0 -232 -98.5t-97 -236.5q0 -141 97 -239t234 -98q135 0 232 98.5t97 236.5q0 141 -97 239t-234 98zM425 -154
q-12 0 -20.5 8.5t-8.5 20.5t8.5 20.5t20.5 8.5t20.5 -8.5t8.5 -20.5t-8.5 -20.5t-20.5 -8.5z" />
    <glyph glyph-name="uni1ECD" unicode="&#x1ecd;" horiz-adv-x="618" 
d="M307 -14q-106 0 -178.5 74.5t-72.5 180.5q0 108 73 182.5t182 74.5q106 0 178.5 -74.5t72.5 -180.5q0 -108 -73 -182.5t-182 -74.5zM533 241q0 98 -64 164t-160 66q-95 0 -159.5 -66t-64.5 -162q0 -98 64 -164t160 -66q95 0 159.5 66t64.5 162zM309 -149q-12 0 -20.5 8.5
t-8.5 20.5t8.5 20.5t20.5 8.5t20.5 -8.5t8.5 -20.5t-8.5 -20.5t-20.5 -8.5z" />
    <glyph glyph-name="uni1ECE" unicode="&#x1ece;" horiz-adv-x="850" 
d="M424 -14q-149 0 -254 106t-105 257q0 152 105.5 258.5t255.5 106.5q149 0 254 -106t105 -257q0 -152 -105.5 -258.5t-255.5 -106.5zM424 686q-135 0 -232 -98.5t-97 -236.5q0 -141 97 -239t234 -98q135 0 232 98.5t97 236.5q0 141 -97 239t-234 98zM438 966
q45 0 73 -19.5t28 -51.5q0 -29 -23 -51t-92 -58l-22 10v1q63 33 86.5 53t23.5 43q0 22 -21.5 34.5t-55.5 12.5q-30 0 -60 -9t-67 -29v29q36 19 66 27t64 8z" />
    <glyph glyph-name="uni1ECF" unicode="&#x1ecf;" horiz-adv-x="618" 
d="M307 -14q-106 0 -178.5 74.5t-72.5 180.5q0 108 73 182.5t182 74.5q106 0 178.5 -74.5t72.5 -180.5q0 -108 -73 -182.5t-182 -74.5zM533 241q0 98 -64 164t-160 66q-95 0 -159.5 -66t-64.5 -162q0 -98 64 -164t160 -66q95 0 159.5 66t64.5 162zM420 716q0 -30 -20 -55
t-93 -78l-19 9v1q66 50 85 72.5t19 45.5q0 25 -18 38.5t-50 13.5q-28 0 -54 -11t-59 -36h-1v31q30 22 58 32.5t57 10.5q43 0 69 -20t26 -54z" />
    <glyph glyph-name="uni1ED0" unicode="&#x1ed0;" horiz-adv-x="850" 
d="M424 -14q-149 0 -254 106t-105 257q0 152 105.5 258.5t255.5 106.5q149 0 254 -106t105 -257q0 -152 -105.5 -258.5t-255.5 -106.5zM424 686q-135 0 -232 -98.5t-97 -236.5q0 -141 97 -239t234 -98q135 0 232 98.5t97 236.5q0 141 -97 239t-234 98zM623 983h42l-102 -98
h-18zM573 776h-24l-125 90l-125 -90h-22l137 116h22z" />
    <glyph glyph-name="uni1ED1" unicode="&#x1ed1;" horiz-adv-x="618" 
d="M307 -14q-106 0 -178.5 74.5t-72.5 180.5q0 108 73 182.5t182 74.5q106 0 178.5 -74.5t72.5 -180.5q0 -108 -73 -182.5t-182 -74.5zM533 241q0 98 -64 164t-160 66q-95 0 -159.5 -66t-64.5 -162q0 -98 64 -164t160 -66q95 0 159.5 66t64.5 162zM521 820h42l-113 -131h-18
zM447 580h-21l-118 94l-117 -94h-20l123 121h30z" />
    <glyph glyph-name="uni1ED2" unicode="&#x1ed2;" horiz-adv-x="850" 
d="M424 -14q-149 0 -254 106t-105 257q0 152 105.5 258.5t255.5 106.5q149 0 254 -106t105 -257q0 -152 -105.5 -258.5t-255.5 -106.5zM424 686q-135 0 -232 -98.5t-97 -236.5q0 -141 97 -239t234 -98q135 0 232 98.5t97 236.5q0 141 -97 239t-234 98zM522 983h42l78 -98
h-18zM573 776h-24l-125 90l-125 -90h-22l137 116h22z" />
    <glyph glyph-name="uni1ED3" unicode="&#x1ed3;" horiz-adv-x="618" 
d="M307 -14q-106 0 -178.5 74.5t-72.5 180.5q0 108 73 182.5t182 74.5q106 0 178.5 -74.5t72.5 -180.5q0 -108 -73 -182.5t-182 -74.5zM533 241q0 98 -64 164t-160 66q-95 0 -159.5 -66t-64.5 -162q0 -98 64 -164t160 -66q95 0 159.5 66t64.5 162zM397 820h42l89 -131h-18z
M447 580h-21l-118 94l-117 -94h-20l123 121h30z" />
    <glyph glyph-name="uni1ED4" unicode="&#x1ed4;" horiz-adv-x="850" 
d="M424 -14q-149 0 -254 106t-105 257q0 152 105.5 258.5t255.5 106.5q149 0 254 -106t105 -257q0 -152 -105.5 -258.5t-255.5 -106.5zM424 686q-135 0 -232 -98.5t-97 -236.5q0 -141 97 -239t234 -98q135 0 232 98.5t97 236.5q0 141 -97 239t-234 98zM671 969
q0 -18 -13.5 -33.5t-65.5 -51.5l-17 8v1q45 35 57.5 48.5t12.5 26.5q0 12 -10.5 19t-28.5 7q-21 0 -43 -8t-51 -26h-1v27q26 16 48.5 23t47.5 7q29 0 46.5 -13t17.5 -35zM573 776h-24l-125 90l-125 -90h-22l137 116h22z" />
    <glyph glyph-name="uni1ED5" unicode="&#x1ed5;" horiz-adv-x="618" 
d="M307 -14q-106 0 -178.5 74.5t-72.5 180.5q0 108 73 182.5t182 74.5q106 0 178.5 -74.5t72.5 -180.5q0 -108 -73 -182.5t-182 -74.5zM533 241q0 98 -64 164t-160 66q-95 0 -159.5 -66t-64.5 -162q0 -98 64 -164t160 -66q95 0 159.5 66t64.5 162zM574 775
q0 -23 -16.5 -41.5t-70.5 -55.5l-17 9v1q43 32 59 49.5t16 35.5q0 15 -13.5 24.5t-35.5 9.5q-23 0 -49 -10t-52 -29h-1v30q28 18 53 26t51 8q34 0 55 -15.5t21 -41.5zM447 580h-21l-118 94l-117 -94h-20l123 121h30z" />
    <glyph glyph-name="uni1ED6" unicode="&#x1ed6;" horiz-adv-x="850" 
d="M424 -14q-149 0 -254 106t-105 257q0 152 105.5 258.5t255.5 106.5q149 0 254 -106t105 -257q0 -152 -105.5 -258.5t-255.5 -106.5zM424 686q-135 0 -232 -98.5t-97 -236.5q0 -141 97 -239t234 -98q135 0 232 98.5t97 236.5q0 141 -97 239t-234 98zM439 984
q34 -19 47.5 -24.5t21.5 -5.5q15 0 30.5 16t36.5 53l15 -7q-27 -53 -44 -70.5t-40 -17.5q-11 0 -27.5 6.5t-54.5 27.5q-34 19 -47.5 24.5t-21.5 5.5q-15 0 -30.5 -16t-36.5 -53l-15 7q27 53 44 70.5t40 17.5q11 0 27.5 -6.5t54.5 -27.5zM573 776h-24l-125 90l-125 -90h-22
l137 116h22z" />
    <glyph glyph-name="uni1ED7" unicode="&#x1ed7;" horiz-adv-x="618" 
d="M307 -14q-106 0 -178.5 74.5t-72.5 180.5q0 108 73 182.5t182 74.5q106 0 178.5 -74.5t72.5 -180.5q0 -108 -73 -182.5t-182 -74.5zM533 241q0 98 -64 164t-160 66q-95 0 -159.5 -66t-64.5 -162q0 -98 64 -164t160 -66q95 0 159.5 66t64.5 162zM323 809q27 -19 39 -24.5
t20 -5.5q15 0 30.5 16t36.5 53l15 -7q-28 -54 -45 -72t-40 -18q-11 0 -25.5 6.5t-46.5 27.5q-27 19 -39 24.5t-20 5.5q-15 0 -30.5 -16t-36.5 -53l-15 7q29 55 46 72.5t39 17.5q11 0 25.5 -6.5t46.5 -27.5zM447 580h-21l-118 94l-117 -94h-20l123 121h30z" />
    <glyph glyph-name="uni1ED8" unicode="&#x1ed8;" horiz-adv-x="850" 
d="M424 -14q-149 0 -254 106t-105 257q0 152 105.5 258.5t255.5 106.5q149 0 254 -106t105 -257q0 -152 -105.5 -258.5t-255.5 -106.5zM424 686q-135 0 -232 -98.5t-97 -236.5q0 -141 97 -239t234 -98q135 0 232 98.5t97 236.5q0 141 -97 239t-234 98zM573 776h-24l-125 113
l-125 -113h-22l137 141h22zM425 -154q-12 0 -20.5 8.5t-8.5 20.5t8.5 20.5t20.5 8.5t20.5 -8.5t8.5 -20.5t-8.5 -20.5t-20.5 -8.5z" />
    <glyph glyph-name="uni1ED9" unicode="&#x1ed9;" horiz-adv-x="618" 
d="M307 -14q-106 0 -178.5 74.5t-72.5 180.5q0 108 73 182.5t182 74.5q106 0 178.5 -74.5t72.5 -180.5q0 -108 -73 -182.5t-182 -74.5zM533 241q0 98 -64 164t-160 66q-95 0 -159.5 -66t-64.5 -162q0 -98 64 -164t160 -66q95 0 159.5 66t64.5 162zM447 580h-21l-118 122
l-117 -122h-20l123 151h30zM309 -149q-12 0 -20.5 8.5t-8.5 20.5t8.5 20.5t20.5 8.5t20.5 -8.5t8.5 -20.5t-8.5 -20.5t-20.5 -8.5z" />
    <glyph glyph-name="uni1EDA" unicode="&#x1eda;" horiz-adv-x="850" 
d="M544 680q108 -35 174.5 -124.5t66.5 -207.5q0 -150 -106 -256t-255 -106q-148 0 -253.5 105.5t-105.5 254.5q0 150 106 256t255 106q12 0 26.5 -0.5t42.5 -1.5l45 -1.5t29 -0.5q101 0 145 20.5t44 65.5q0 13 -2.5 26t-7.5 25h30q5 -11 7 -23t2 -26q0 -62 -59.5 -89.5
t-183.5 -22.5zM424 680q-135 0 -232 -98t-97 -234q0 -138 97.5 -236t233.5 -98q135 0 232 98t97 234q0 138 -97.5 236t-233.5 98zM512 922h42l-126 -141h-18z" />
    <glyph glyph-name="uni1EDB" unicode="&#x1edb;" horiz-adv-x="618" 
d="M408 470q69 -25 111.5 -91t42.5 -139q0 -106 -73.5 -180t-181.5 -74q-105 0 -178 74t-73 178q0 107 74 180.5t185 73.5h120q64 0 100.5 17.5t36.5 47.5q0 11 -3 22t-12 29h30q8 -16 11 -27t3 -23q0 -48 -48.5 -70t-144.5 -18zM533 238q0 96 -64.5 161.5t-159.5 65.5
t-159.5 -65.5t-64.5 -159.5q0 -96 64.5 -161.5t159.5 -65.5t159.5 65.5t64.5 159.5zM395 736h39l-122 -151h-18z" />
    <glyph glyph-name="uni1EDC" unicode="&#x1edc;" horiz-adv-x="850" 
d="M544 680q108 -35 174.5 -124.5t66.5 -207.5q0 -150 -106 -256t-255 -106q-148 0 -253.5 105.5t-105.5 254.5q0 150 106 256t255 106q12 0 26.5 -0.5t42.5 -1.5l45 -1.5t29 -0.5q101 0 145 20.5t44 65.5q0 13 -2.5 26t-7.5 25h30q5 -11 7 -23t2 -26q0 -62 -59.5 -89.5
t-183.5 -22.5zM424 680q-135 0 -232 -98t-97 -234q0 -138 97.5 -236t233.5 -98q135 0 232 98t97 234q0 138 -97.5 236t-233.5 98zM296 922h42l102 -141h-18z" />
    <glyph glyph-name="uni1EDD" unicode="&#x1edd;" horiz-adv-x="618" 
d="M408 470q69 -25 111.5 -91t42.5 -139q0 -106 -73.5 -180t-181.5 -74q-105 0 -178 74t-73 178q0 107 74 180.5t185 73.5h120q64 0 100.5 17.5t36.5 47.5q0 11 -3 22t-12 29h30q8 -16 11 -27t3 -23q0 -48 -48.5 -70t-144.5 -18zM533 238q0 96 -64.5 161.5t-159.5 65.5
t-159.5 -65.5t-64.5 -159.5q0 -96 64.5 -161.5t159.5 -65.5t159.5 65.5t64.5 159.5zM184 736h39l101 -151h-18z" />
    <glyph glyph-name="uni1EDE" unicode="&#x1ede;" horiz-adv-x="850" 
d="M544 680q108 -35 174.5 -124.5t66.5 -207.5q0 -150 -106 -256t-255 -106q-148 0 -253.5 105.5t-105.5 254.5q0 150 106 256t255 106q12 0 26.5 -0.5t42.5 -1.5l45 -1.5t29 -0.5q101 0 145 20.5t44 65.5q0 13 -2.5 26t-7.5 25h30q5 -11 7 -23t2 -26q0 -62 -59.5 -89.5
t-183.5 -22.5zM424 680q-135 0 -232 -98t-97 -234q0 -138 97.5 -236t233.5 -98q135 0 232 98t97 234q0 138 -97.5 236t-233.5 98zM438 966q45 0 73 -19.5t28 -51.5q0 -29 -23 -51t-92 -58l-22 10v1q63 33 86.5 53t23.5 43q0 22 -21.5 34.5t-55.5 12.5q-30 0 -60 -9t-67 -29
v29q36 19 66 27t64 8z" />
    <glyph glyph-name="uni1EDF" unicode="&#x1edf;" horiz-adv-x="618" 
d="M408 470q69 -25 111.5 -91t42.5 -139q0 -106 -73.5 -180t-181.5 -74q-105 0 -178 74t-73 178q0 107 74 180.5t185 73.5h120q64 0 100.5 17.5t36.5 47.5q0 11 -3 22t-12 29h30q8 -16 11 -27t3 -23q0 -48 -48.5 -70t-144.5 -18zM533 238q0 96 -64.5 161.5t-159.5 65.5
t-159.5 -65.5t-64.5 -159.5q0 -96 64.5 -161.5t159.5 -65.5t159.5 65.5t64.5 159.5zM420 716q0 -30 -20 -55t-93 -78l-19 9v1q66 50 85 72.5t19 45.5q0 25 -18 38.5t-50 13.5q-28 0 -54 -11t-59 -36h-1v31q30 22 58 32.5t57 10.5q43 0 69 -20t26 -54z" />
    <glyph glyph-name="uni1EE0" unicode="&#x1ee0;" horiz-adv-x="850" 
d="M436 854q35 -28 50.5 -36t26.5 -8q19 0 36 20.5t48 78.5l17 -8q-35 -71 -56.5 -95t-50.5 -24q-14 0 -33 9.5t-60 40.5q-35 28 -50.5 36t-26.5 8q-19 0 -36 -20.5t-48 -78.5l-17 8q35 71 56.5 95t50.5 24q14 0 33 -9.5t60 -40.5zM544 680q108 -35 174.5 -124.5
t66.5 -207.5q0 -150 -106 -256t-255 -106q-148 0 -253.5 105.5t-105.5 254.5q0 150 106 256t255 106q12 0 26.5 -0.5t42.5 -1.5l45 -1.5t29 -0.5q101 0 145 20.5t44 65.5q0 13 -2.5 26t-7.5 25h30q5 -11 7 -23t2 -26q0 -62 -59.5 -89.5t-183.5 -22.5zM424 680
q-135 0 -232 -98t-97 -234q0 -138 97.5 -236t233.5 -98q135 0 232 98t97 234q0 138 -97.5 236t-233.5 98z" />
    <glyph glyph-name="uni1EE1" unicode="&#x1ee1;" horiz-adv-x="618" 
d="M319 669q35 -31 50 -40t26 -9q19 0 37.5 23.5t48.5 87.5l17 -8q-36 -78 -57.5 -104t-49.5 -26q-14 0 -33 11t-59 45q-35 31 -50 40t-26 9q-19 0 -37.5 -23.5t-48.5 -87.5l-17 8q36 78 57.5 104t49.5 26q14 0 33 -11t59 -45zM408 470q69 -25 111.5 -91t42.5 -139
q0 -106 -73.5 -180t-181.5 -74q-105 0 -178 74t-73 178q0 107 74 180.5t185 73.5h120q64 0 100.5 17.5t36.5 47.5q0 11 -3 22t-12 29h30q8 -16 11 -27t3 -23q0 -48 -48.5 -70t-144.5 -18zM533 238q0 96 -64.5 161.5t-159.5 65.5t-159.5 -65.5t-64.5 -159.5
q0 -96 64.5 -161.5t159.5 -65.5t159.5 65.5t64.5 159.5z" />
    <glyph glyph-name="uni1EE2" unicode="&#x1ee2;" horiz-adv-x="850" 
d="M544 680q108 -35 174.5 -124.5t66.5 -207.5q0 -150 -106 -256t-255 -106q-148 0 -253.5 105.5t-105.5 254.5q0 150 106 256t255 106q12 0 26.5 -0.5t42.5 -1.5l45 -1.5t29 -0.5q101 0 145 20.5t44 65.5q0 13 -2.5 26t-7.5 25h30q5 -11 7 -23t2 -26q0 -62 -59.5 -89.5
t-183.5 -22.5zM424 680q-135 0 -232 -98t-97 -234q0 -138 97.5 -236t233.5 -98q135 0 232 98t97 234q0 138 -97.5 236t-233.5 98zM425 -149q-12 0 -20.5 8.5t-8.5 20.5t8.5 20.5t20.5 8.5t20.5 -8.5t8.5 -20.5t-8.5 -20.5t-20.5 -8.5z" />
    <glyph glyph-name="uni1EE3" unicode="&#x1ee3;" horiz-adv-x="618" 
d="M408 470q69 -25 111.5 -91t42.5 -139q0 -106 -73.5 -180t-181.5 -74q-105 0 -178 74t-73 178q0 107 74 180.5t185 73.5h120q64 0 100.5 17.5t36.5 47.5q0 11 -3 22t-12 29h30q8 -16 11 -27t3 -23q0 -48 -48.5 -70t-144.5 -18zM533 238q0 96 -64.5 161.5t-159.5 65.5
t-159.5 -65.5t-64.5 -159.5q0 -96 64.5 -161.5t159.5 -65.5t159.5 65.5t64.5 159.5zM309 -149q-12 0 -20.5 8.5t-8.5 20.5t8.5 20.5t20.5 8.5t20.5 -8.5t8.5 -20.5t-8.5 -20.5t-20.5 -8.5z" />
    <glyph glyph-name="uni1EE4" unicode="&#x1ee4;" horiz-adv-x="778" 
d="M389 -12q-130 0 -207.5 79t-77.5 212v421h30v-425q0 -118 70 -188.5t186 -70.5q115 0 185 71t70 190v423h29v-420q0 -134 -77.5 -213t-207.5 -79zM391 -154q-12 0 -20.5 8.5t-8.5 20.5t8.5 20.5t20.5 8.5t20.5 -8.5t8.5 -20.5t-8.5 -20.5t-20.5 -8.5z" />
    <glyph glyph-name="uni1EE5" unicode="&#x1ee5;" 
d="M501 0h-29v112q-47 -64 -96.5 -94t-105.5 -30q-80 0 -128 51.5t-48 141.5v303h29v-301q0 -79 40.5 -123.5t109.5 -44.5q52 0 99.5 30.5t99.5 98.5v340h29v-484zM298 -149q-12 0 -20.5 8.5t-8.5 20.5t8.5 20.5t20.5 8.5t20.5 -8.5t8.5 -20.5t-8.5 -20.5t-20.5 -8.5z" />
    <glyph glyph-name="uni1EE6" unicode="&#x1ee6;" horiz-adv-x="778" 
d="M389 -12q-130 0 -207.5 79t-77.5 212v421h30v-425q0 -118 70 -188.5t186 -70.5q115 0 185 71t70 190v423h29v-420q0 -134 -77.5 -213t-207.5 -79zM404 946q45 0 73 -19.5t28 -51.5q0 -29 -23 -51t-92 -58l-22 10v1q63 33 86.5 53t23.5 43q0 22 -21.5 34.5t-55.5 12.5
q-30 0 -60 -9t-67 -29v29q36 19 66 27t64 8z" />
    <glyph glyph-name="uni1EE7" unicode="&#x1ee7;" 
d="M501 0h-29v112q-47 -64 -96.5 -94t-105.5 -30q-80 0 -128 51.5t-48 141.5v303h29v-301q0 -79 40.5 -123.5t109.5 -44.5q52 0 99.5 30.5t99.5 98.5v340h29v-484zM409 706q0 -30 -20 -55t-93 -78l-19 9v1q66 50 85 72.5t19 45.5q0 25 -18 38.5t-50 13.5q-28 0 -54 -11
t-59 -36h-1v31q30 22 58 32.5t57 10.5q43 0 69 -20t26 -54z" />
    <glyph glyph-name="uni1EE8" unicode="&#x1ee8;" horiz-adv-x="798" 
d="M390 16q115 0 185 71t70 190v423h6q62 0 96 23.5t34 66.5q0 13 -2.5 26t-7.5 25h30q5 -11 7 -23t2 -26q0 -50 -35.5 -79.5t-100.5 -35.5v-397q0 -134 -77.5 -213t-207.5 -79t-207.5 79t-77.5 212v421h30v-425q0 -118 70 -188.5t186 -70.5zM478 902h42l-126 -141h-18z" />
    <glyph glyph-name="uni1EE9" unicode="&#x1ee9;" horiz-adv-x="625" 
d="M273 15q52 0 99.5 30.5t99.5 98.5v340h15q52 0 79.5 18.5t27.5 53.5q0 12 -1.5 22t-5.5 22h29q4 -12 5.5 -21.5t1.5 -21.5q0 -43 -32 -68.5t-90 -28.5v-460h-29v112q-47 -64 -96.5 -94t-105.5 -30q-80 0 -128 51.5t-48 141.5v303h29v-301q0 -79 40.5 -123.5t109.5 -44.5z
M384 726h39l-122 -151h-18z" />
    <glyph glyph-name="uni1EEA" unicode="&#x1eea;" horiz-adv-x="798" 
d="M390 16q115 0 185 71t70 190v423h6q62 0 96 23.5t34 66.5q0 13 -2.5 26t-7.5 25h30q5 -11 7 -23t2 -26q0 -50 -35.5 -79.5t-100.5 -35.5v-397q0 -134 -77.5 -213t-207.5 -79t-207.5 79t-77.5 212v421h30v-425q0 -118 70 -188.5t186 -70.5zM262 902h42l102 -141h-18z" />
    <glyph glyph-name="uni1EEB" unicode="&#x1eeb;" horiz-adv-x="625" 
d="M273 15q52 0 99.5 30.5t99.5 98.5v340h15q52 0 79.5 18.5t27.5 53.5q0 12 -1.5 22t-5.5 22h29q4 -12 5.5 -21.5t1.5 -21.5q0 -43 -32 -68.5t-90 -28.5v-460h-29v112q-47 -64 -96.5 -94t-105.5 -30q-80 0 -128 51.5t-48 141.5v303h29v-301q0 -79 40.5 -123.5t109.5 -44.5z
M173 726h39l101 -151h-18z" />
    <glyph glyph-name="uni1EEC" unicode="&#x1eec;" horiz-adv-x="798" 
d="M390 16q115 0 185 71t70 190v423h6q62 0 96 23.5t34 66.5q0 13 -2.5 26t-7.5 25h30q5 -11 7 -23t2 -26q0 -50 -35.5 -79.5t-100.5 -35.5v-397q0 -134 -77.5 -213t-207.5 -79t-207.5 79t-77.5 212v421h30v-425q0 -118 70 -188.5t186 -70.5zM404 946q45 0 73 -19.5
t28 -51.5q0 -29 -23 -51t-92 -58l-22 10v1q63 33 86.5 53t23.5 43q0 22 -21.5 34.5t-55.5 12.5q-30 0 -60 -9t-67 -29v29q36 19 66 27t64 8z" />
    <glyph glyph-name="uni1EED" unicode="&#x1eed;" horiz-adv-x="625" 
d="M273 15q52 0 99.5 30.5t99.5 98.5v340h15q52 0 79.5 18.5t27.5 53.5q0 12 -1.5 22t-5.5 22h29q4 -12 5.5 -21.5t1.5 -21.5q0 -43 -32 -68.5t-90 -28.5v-460h-29v112q-47 -64 -96.5 -94t-105.5 -30q-80 0 -128 51.5t-48 141.5v303h29v-301q0 -79 40.5 -123.5t109.5 -44.5z
M409 706q0 -30 -20 -55t-93 -78l-19 9v1q66 50 85 72.5t19 45.5q0 25 -18 38.5t-50 13.5q-28 0 -54 -11t-59 -36h-1v31q30 22 58 32.5t57 10.5q43 0 69 -20t26 -54z" />
    <glyph glyph-name="uni1EEE" unicode="&#x1eee;" horiz-adv-x="798" 
d="M390 16q115 0 185 71t70 190v423h6q62 0 96 23.5t34 66.5q0 13 -2.5 26t-7.5 25h30q5 -11 7 -23t2 -26q0 -50 -35.5 -79.5t-100.5 -35.5v-397q0 -134 -77.5 -213t-207.5 -79t-207.5 79t-77.5 212v421h30v-425q0 -118 70 -188.5t186 -70.5zM402 849q35 -28 50.5 -36
t26.5 -8q19 0 36 20.5t48 78.5l17 -8q-35 -71 -56.5 -95t-50.5 -24q-14 0 -33 9.5t-60 40.5q-35 28 -50.5 36t-26.5 8q-19 0 -36 -20.5t-48 -78.5l-17 8q35 71 56.5 95t50.5 24q14 0 33 -9.5t60 -40.5z" />
    <glyph glyph-name="uni1EEF" unicode="&#x1eef;" horiz-adv-x="625" 
d="M273 15q52 0 99.5 30.5t99.5 98.5v340h15q52 0 79.5 18.5t27.5 53.5q0 12 -1.5 22t-5.5 22h29q4 -12 5.5 -21.5t1.5 -21.5q0 -43 -32 -68.5t-90 -28.5v-460h-29v112q-47 -64 -96.5 -94t-105.5 -30q-80 0 -128 51.5t-48 141.5v303h29v-301q0 -79 40.5 -123.5t109.5 -44.5z
M308 669q35 -31 50 -40t26 -9q19 0 37.5 23.5t48.5 87.5l17 -8q-36 -78 -57.5 -104t-49.5 -26q-14 0 -33 11t-59 45q-35 31 -50 40t-26 9q-19 0 -37.5 -23.5t-48.5 -87.5l-17 8q36 78 57.5 104t49.5 26q14 0 33 -11t59 -45z" />
    <glyph glyph-name="uni1EF0" unicode="&#x1ef0;" horiz-adv-x="798" 
d="M390 16q115 0 185 71t70 190v423h6q62 0 96 23.5t34 66.5q0 13 -2.5 26t-7.5 25h30q5 -11 7 -23t2 -26q0 -50 -35.5 -79.5t-100.5 -35.5v-397q0 -134 -77.5 -213t-207.5 -79t-207.5 79t-77.5 212v421h30v-425q0 -118 70 -188.5t186 -70.5zM391 -154q-12 0 -20.5 8.5
t-8.5 20.5t8.5 20.5t20.5 8.5t20.5 -8.5t8.5 -20.5t-8.5 -20.5t-20.5 -8.5z" />
    <glyph glyph-name="uni1EF1" unicode="&#x1ef1;" horiz-adv-x="625" 
d="M273 15q52 0 99.5 30.5t99.5 98.5v340h15q52 0 79.5 18.5t27.5 53.5q0 12 -1.5 22t-5.5 22h29q4 -12 5.5 -21.5t1.5 -21.5q0 -43 -32 -68.5t-90 -28.5v-460h-29v112q-47 -64 -96.5 -94t-105.5 -30q-80 0 -128 51.5t-48 141.5v303h29v-301q0 -79 40.5 -123.5t109.5 -44.5z
M298 -149q-12 0 -20.5 8.5t-8.5 20.5t8.5 20.5t20.5 8.5t20.5 -8.5t8.5 -20.5t-8.5 -20.5t-20.5 -8.5z" />
    <glyph glyph-name="Ygrave" unicode="&#x1ef2;" horiz-adv-x="648" 
d="M584 700h35l-278 -374v-326h-30v323l-282 377h37l259 -349zM195 912h42l102 -141h-18z" />
    <glyph glyph-name="ygrave" unicode="&#x1ef3;" horiz-adv-x="510" 
d="M483 484l-230 -529q-33 -77 -68.5 -110.5t-85.5 -33.5q-19 0 -36.5 5.5t-34.5 16.5l-6 32l2 1q20 -14 38.5 -21t36.5 -7q39 0 69.5 29.5t57.5 93.5l24 56l-220 467h32l203 -437l186 437h32zM128 731h39l101 -151h-18z" />
    <glyph glyph-name="uni1EF4" unicode="&#x1ef4;" horiz-adv-x="648" 
d="M584 700h35l-278 -374v-326h-30v323l-282 377h37l259 -349zM324 -149q-12 0 -20.5 8.5t-8.5 20.5t8.5 20.5t20.5 8.5t20.5 -8.5t8.5 -20.5t-8.5 -20.5t-20.5 -8.5z" />
    <glyph glyph-name="uni1EF5" unicode="&#x1ef5;" horiz-adv-x="510" 
d="M483 484l-230 -529q-33 -77 -68.5 -110.5t-85.5 -33.5q-19 0 -36.5 5.5t-34.5 16.5l-6 32l2 1q20 -14 38.5 -21t36.5 -7q39 0 69.5 29.5t57.5 93.5l24 56l-220 467h32l203 -437l186 437h32zM390 -149q-12 0 -20.5 8.5t-8.5 20.5t8.5 20.5t20.5 8.5t20.5 -8.5t8.5 -20.5
t-8.5 -20.5t-20.5 -8.5z" />
    <glyph glyph-name="uni1EF6" unicode="&#x1ef6;" horiz-adv-x="648" 
d="M584 700h35l-278 -374v-326h-30v323l-282 377h37l259 -349zM337 956q45 0 73 -19.5t28 -51.5q0 -29 -23 -51t-92 -58l-22 10v1q63 33 86.5 53t23.5 43q0 22 -21.5 34.5t-55.5 12.5q-30 0 -60 -9t-67 -29v29q36 19 66 27t64 8z" />
    <glyph glyph-name="uni1EF7" unicode="&#x1ef7;" horiz-adv-x="510" 
d="M483 484l-230 -529q-33 -77 -68.5 -110.5t-85.5 -33.5q-19 0 -36.5 5.5t-34.5 16.5l-6 32l2 1q20 -14 38.5 -21t36.5 -7q39 0 69.5 29.5t57.5 93.5l24 56l-220 467h32l203 -437l186 437h32zM364 711q0 -30 -20 -55t-93 -78l-19 9v1q66 50 85 72.5t19 45.5q0 25 -18 38.5
t-50 13.5q-28 0 -54 -11t-59 -36h-1v31q30 22 58 32.5t57 10.5q43 0 69 -20t26 -54z" />
    <glyph glyph-name="uni1EF8" unicode="&#x1ef8;" horiz-adv-x="648" 
d="M584 700h35l-278 -374v-326h-30v323l-282 377h37l259 -349zM335 849q35 -28 50.5 -36t26.5 -8q19 0 36 20.5t48 78.5l17 -8q-35 -71 -56.5 -95t-50.5 -24q-14 0 -33 9.5t-60 40.5q-35 28 -50.5 36t-26.5 8q-19 0 -36 -20.5t-48 -78.5l-17 8q35 71 56.5 95t50.5 24
q14 0 33 -9.5t60 -40.5z" />
    <glyph glyph-name="uni1EF9" unicode="&#x1ef9;" horiz-adv-x="510" 
d="M483 484l-230 -529q-33 -77 -68.5 -110.5t-85.5 -33.5q-19 0 -36.5 5.5t-34.5 16.5l-6 32l2 1q20 -14 38.5 -21t36.5 -7q39 0 69.5 29.5t57.5 93.5l24 56l-220 467h32l203 -437l186 437h32zM263 669q35 -31 50 -40t26 -9q19 0 37.5 23.5t48.5 87.5l17 -8
q-36 -78 -57.5 -104t-49.5 -26q-14 0 -33 11t-59 45q-35 31 -50 40t-26 9q-19 0 -37.5 -23.5t-48.5 -87.5l-17 8q36 78 57.5 104t49.5 26q14 0 33 -11t59 -45z" />
    <glyph glyph-name="uni2002" unicode="&#x2002;" horiz-adv-x="500" 
 />
    <glyph glyph-name="uni2003" unicode="&#x2003;" horiz-adv-x="1000" 
 />
    <glyph glyph-name="uni2004" unicode="&#x2004;" horiz-adv-x="333" 
 />
    <glyph glyph-name="uni2005" unicode="&#x2005;" horiz-adv-x="250" 
 />
    <glyph glyph-name="uni2007" unicode="&#x2007;" 
 />
    <glyph glyph-name="uni2009" unicode="&#x2009;" horiz-adv-x="125" 
 />
    <glyph glyph-name="uni200A" unicode="&#x200a;" horiz-adv-x="42" 
 />
    <glyph glyph-name="uni2011" unicode="&#x2011;" horiz-adv-x="343" 
d="M55 253v28h233v-28h-233z" />
    <glyph glyph-name="figuredash" unicode="&#x2012;" 
d="M525 374v-28h-450v28h450z" />
    <glyph glyph-name="endash" unicode="&#x2013;" horiz-adv-x="534" 
d="M55 253v28h424v-28h-424z" />
    <glyph glyph-name="emdash" unicode="&#x2014;" horiz-adv-x="914" 
d="M55 253v28h804v-28h-804z" />
    <glyph glyph-name="uni2015" unicode="&#x2015;" horiz-adv-x="914" 
d="M55 253v28h804v-28h-804z" />
    <glyph glyph-name="quoteleft" unicode="&#x2018;" horiz-adv-x="163" 
d="M72 575q0 -21 9 -42t39 -66h-35q-26 40 -34 61t-8 42q0 25 13 52t58 82l15 -8q-31 -43 -44 -71t-13 -50z" />
    <glyph glyph-name="quoteright" unicode="&#x2019;" horiz-adv-x="163" 
d="M92 592q0 20 -8.5 40.5t-40.5 67.5h36q25 -41 33 -61.5t8 -41.5q0 -25 -13 -52t-58 -82l-15 8q32 45 45 72.5t13 48.5z" />
    <glyph glyph-name="quotesinglbase" unicode="&#x201a;" horiz-adv-x="163" 
d="M92 -38q0 20 -8.5 40.5t-40.5 67.5h36q25 -41 33 -61.5t8 -41.5q0 -25 -13 -52t-58 -82l-15 8q32 45 45 72.5t13 48.5z" />
    <glyph glyph-name="uni201B" unicode="&#x201b;" horiz-adv-x="163" 
d="M85 700h35q-30 -45 -39 -66t-9 -42q0 -22 13 -50t44 -71l-15 -8q-45 55 -58 82t-13 52q0 21 8 42t34 61z" />
    <glyph glyph-name="quotedblleft" unicode="&#x201c;" horiz-adv-x="305" 
d="M72 575q0 -21 9 -42t39 -66h-35q-26 40 -34 61t-8 42q0 25 13 52t58 82l15 -8q-31 -43 -44 -71t-13 -50zM213 575q0 -20 8.5 -40.5t40.5 -67.5h-36q-25 41 -33 61.5t-8 41.5q0 25 13 52t58 82l15 -8q-32 -45 -45 -72.5t-13 -48.5z" />
    <glyph glyph-name="quotedblright" unicode="&#x201d;" horiz-adv-x="305" 
d="M233 592q0 21 -9 42t-39 66h35q26 -40 34 -61t8 -42q0 -25 -13 -52t-58 -82l-15 8q31 43 44 71t13 50zM92 592q0 20 -8.5 40.5t-40.5 67.5h36q25 -41 33 -61.5t8 -41.5q0 -25 -13 -52t-58 -82l-15 8q32 45 45 72.5t13 48.5z" />
    <glyph glyph-name="quotedblbase" unicode="&#x201e;" horiz-adv-x="305" 
d="M233 -38q0 21 -9 42t-39 66h35q26 -40 34 -61t8 -42q0 -25 -13 -52t-58 -82l-15 8q31 43 44 71t13 50zM92 -38q0 20 -8.5 40.5t-40.5 67.5h36q25 -41 33 -61.5t8 -41.5q0 -25 -13 -52t-58 -82l-15 8q32 45 45 72.5t13 48.5z" />
    <glyph glyph-name="uni201F" unicode="&#x201f;" horiz-adv-x="305" 
d="M85 700h35q-30 -45 -39 -66t-9 -42q0 -22 13 -50t44 -71l-15 -8q-45 55 -58 82t-13 52q0 21 8 42t34 61zM226 700h36q-32 -47 -40.5 -67.5t-8.5 -40.5q0 -21 13 -48.5t45 -72.5l-15 -8q-45 55 -58 82t-13 52q0 21 8 41.5t33 61.5z" />
    <glyph glyph-name="dagger" unicode="&#x2020;" horiz-adv-x="532" 
d="M261 534l-15 170h40l-15 -170h-10zM228 499v-9l-170 -12v39zM304 499l170 18v-39l-170 12v9zM261 -10l-17 299l17 170h10l17 -170l-17 -299h-10z" />
    <glyph glyph-name="daggerdbl" unicode="&#x2021;" horiz-adv-x="532" 
d="M261 534l-15 170h40l-15 -170h-10zM228 499v-9l-170 -12v39zM304 499l170 18v-39l-170 12v9zM261 241l-17 109l17 109h10l17 -109l-17 -109h-10zM303 206l171 18v-39l-170 12zM229 206l-1 -9l-170 -12v39zM271 166l15 -170h-40l15 170h10z" />
    <glyph glyph-name="bullet" unicode="&#x2022;" horiz-adv-x="364" 
d="M182 286q-30 0 -51.5 21.5t-21.5 52.5q0 30 22 52t51 22q31 0 52 -21.5t21 -52.5q0 -32 -21 -53t-52 -21z" />
    <glyph glyph-name="uni2025" unicode="&#x2025;" 
d="M150 -5q-14 0 -23.5 9.5t-9.5 23.5t10 23.5t23 9.5q14 0 23.5 -9.5t9.5 -23.5t-9.5 -23.5t-23.5 -9.5zM450 -5q-14 0 -23.5 9.5t-9.5 23.5t10 23.5t23 9.5q14 0 23.5 -9.5t9.5 -23.5t-9.5 -23.5t-23.5 -9.5z" />
    <glyph glyph-name="ellipsis" unicode="&#x2026;" horiz-adv-x="454" 
d="M74 -5q-13 0 -22 9t-9 22t9 22t22 9t22 -9t9 -22t-8.5 -22t-22.5 -9zM227 -5q-13 0 -22 9t-9 22t9 22t22 9t22 -9t9 -22t-8.5 -22t-22.5 -9zM380 -5q-13 0 -22 9t-9 22t9 22t22 9t22 -9t9 -22t-8.5 -22t-22.5 -9z" />
    <glyph glyph-name="uni202F" unicode="&#x202f;" horiz-adv-x="125" 
 />
    <glyph glyph-name="guilsinglleft" unicode="&#x2039;" horiz-adv-x="390" 
d="M296 492l14 -11l-209 -238l209 -240l-14 -11l-232 247v6z" />
    <glyph glyph-name="guilsinglright" unicode="&#x203a;" horiz-adv-x="390" 
d="M94 -8l-14 11l209 238l-209 240l14 11l232 -247v-6z" />
    <glyph glyph-name="fraction" unicode="&#x2044;" horiz-adv-x="102" 
d="M61 343l-231 -345h-32l242 358l232 346h32z" />
    <glyph glyph-name="zero.sup" unicode="&#x2070;" horiz-adv-x="396" 
d="M355 614q0 -95 -43.5 -155t-113.5 -60t-113.5 60t-43.5 154q0 95 43.5 155t113.5 60t113.5 -60t43.5 -154zM197 802q-56 0 -92 -53t-36 -135q0 -84 36 -136.5t94 -52.5q56 0 92 53t36 135q0 83 -36.5 136t-93.5 53z" />
    <glyph glyph-name="four.sup" unicode="&#x2074;" horiz-adv-x="374" 
d="M249 517h-224l-2 8l232 300h21v-284h73v-24h-73v-108h-27v108zM249 778l-186 -237h186v237z" />
    <glyph glyph-name="five.sup" unicode="&#x2075;" horiz-adv-x="346" 
d="M174 660q62 0 99.5 -34t37.5 -90q0 -57 -42.5 -95.5t-107.5 -38.5q-32 0 -59.5 7t-56.5 23l-5 32l2 1q31 -20 59 -28.5t61 -8.5q52 0 86.5 30.5t34.5 75.5q0 46 -31 73t-83 27q-27 0 -55 -7t-53 -20l-7 3l15 212h226v-26h-200l-12 -155q21 10 43.5 14.5t47.5 4.5z" />
    <glyph glyph-name="six.sup" unicode="&#x2076;" horiz-adv-x="349" 
d="M188 662q58 0 95.5 -35t37.5 -91q0 -57 -41 -96t-102 -39q-63 0 -100.5 38t-37.5 102q0 42 20 85t71 109l68 87h34l-78 -100q-19 -24 -32.5 -43t-22.5 -35q24 9 45 13.5t43 4.5zM87 619q-9 -19 -13.5 -38t-4.5 -39q0 -53 29.5 -84t80.5 -31q49 0 81.5 31t32.5 76
q0 48 -32 75.5t-85 27.5q-20 0 -42 -4.5t-47 -13.5z" />
    <glyph glyph-name="seven.sup" unicode="&#x2077;" horiz-adv-x="332" 
d="M303 822l2 -6l-198 -407h-31l192 387h-242l-7 26h284z" />
    <glyph glyph-name="eight.sup" unicode="&#x2078;" horiz-adv-x="366" 
d="M239 619q41 -13 64.5 -41t23.5 -64q0 -48 -41.5 -80.5t-103.5 -32.5q-61 0 -102 32.5t-41 80.5q0 36 23.5 63.5t64.5 40.5q-35 13 -56 40.5t-21 60.5q0 45 39 77t94 32t94 -32t39 -77q0 -33 -21 -60t-56 -40zM182 803q-45 0 -75 -25t-30 -61q0 -37 31 -62.5t75 -25.5
q43 0 74.5 26t31.5 62q0 37 -30.5 61.5t-76.5 24.5zM182 606q-47 0 -81 -26t-34 -64q0 -40 33 -65t84 -25q50 0 82.5 25t32.5 65q0 38 -34.5 64t-82.5 26z" />
    <glyph glyph-name="nine.sup" unicode="&#x2079;" horiz-adv-x="349" 
d="M309 690q0 -43 -20 -86t-70 -108l-69 -87h-34l79 100q14 18 27 37t27 41q-23 -9 -45 -13.5t-43 -4.5q-59 0 -96 35t-37 91q0 57 40.5 96t102.5 39q63 0 100.5 -38t37.5 -102zM170 804q-50 0 -82 -30.5t-32 -76.5q0 -48 31.5 -75.5t85.5 -27.5q20 0 42.5 4.5t46.5 13.5
q10 20 14.5 39t4.5 38q0 53 -30 84t-81 31z" />
    <glyph glyph-name="zero.inf" unicode="&#x2080;" horiz-adv-x="396" 
d="M355 73q0 -95 -43.5 -155t-113.5 -60t-113.5 60t-43.5 154q0 95 43.5 155t113.5 60t113.5 -60t43.5 -154zM197 261q-56 0 -92 -53t-36 -135q0 -84 36 -136.5t94 -52.5q56 0 92 53t36 135q0 83 -36.5 136t-93.5 53z" />
    <glyph glyph-name="one.inf" unicode="&#x2081;" horiz-adv-x="250" 
d="M27 167l-1 1v29l135 90l7 -2v-417h-28v374z" />
    <glyph glyph-name="two.inf" unicode="&#x2082;" horiz-adv-x="346" 
d="M83 -106h234l-15 -26h-263l-2 8l157 177q42 47 56 73.5t14 53.5q0 36 -24.5 58.5t-62.5 22.5q-35 0 -68.5 -22.5t-61.5 -66.5l-2 1l-6 30q25 39 62 61.5t77 22.5q50 0 82 -29t32 -76q0 -33 -15.5 -63t-59.5 -78z" />
    <glyph glyph-name="three.inf" unicode="&#x2083;" horiz-adv-x="338" 
d="M181 81q57 -12 87.5 -41t30.5 -70q0 -47 -38 -78t-94 -31q-33 0 -63.5 9t-59.5 27l-6 34l2 1q31 -23 62.5 -34.5t65.5 -11.5q44 0 73 22.5t29 59.5q0 42 -40.5 68.5t-117.5 33.5v16q73 12 112 38.5t39 63.5q0 31 -24.5 52t-62.5 21q-29 0 -60 -12t-62 -35h-2v32
q31 21 62 31t63 10q52 0 83.5 -27t31.5 -71q0 -37 -29 -65t-82 -43z" />
    <glyph glyph-name="four.inf" unicode="&#x2084;" horiz-adv-x="374" 
d="M249 -24h-224l-2 8l232 300h21v-284h73v-24h-73v-108h-27v108zM249 237l-186 -237h186v237z" />
    <glyph glyph-name="five.inf" unicode="&#x2085;" horiz-adv-x="346" 
d="M174 119q62 0 99.5 -34t37.5 -90q0 -57 -42.5 -95.5t-107.5 -38.5q-32 0 -59.5 7t-56.5 23l-5 32l2 1q31 -20 59 -28.5t61 -8.5q52 0 86.5 30.5t34.5 75.5q0 46 -31 73t-83 27q-27 0 -55 -7t-53 -20l-7 3l15 212h226v-26h-200l-12 -155q21 10 43.5 14.5t47.5 4.5z" />
    <glyph glyph-name="six.inf" unicode="&#x2086;" horiz-adv-x="349" 
d="M188 121q58 0 95.5 -35t37.5 -91q0 -57 -41 -96t-102 -39q-63 0 -100.5 38t-37.5 102q0 42 20 85t71 109l68 87h34l-78 -100q-19 -24 -32.5 -43t-22.5 -35q24 9 45 13.5t43 4.5zM87 78q-9 -19 -13.5 -38t-4.5 -39q0 -53 29.5 -84t80.5 -31q49 0 81.5 31t32.5 76
q0 48 -32 75.5t-85 27.5q-20 0 -42 -4.5t-47 -13.5z" />
    <glyph glyph-name="seven.inf" unicode="&#x2087;" horiz-adv-x="332" 
d="M303 281l2 -6l-198 -407h-31l192 387h-242l-7 26h284z" />
    <glyph glyph-name="eight.inf" unicode="&#x2088;" horiz-adv-x="366" 
d="M239 78q41 -13 64.5 -41t23.5 -64q0 -48 -41.5 -80.5t-103.5 -32.5q-61 0 -102 32.5t-41 80.5q0 36 23.5 63.5t64.5 40.5q-35 13 -56 40.5t-21 60.5q0 45 39 77t94 32t94 -32t39 -77q0 -33 -21 -60t-56 -40zM182 262q-45 0 -75 -25t-30 -61q0 -37 31 -62.5t75 -25.5
q43 0 74.5 26t31.5 62q0 37 -30.5 61.5t-76.5 24.5zM182 65q-47 0 -81 -26t-34 -64q0 -40 33 -65t84 -25q50 0 82.5 25t32.5 65q0 38 -34.5 64t-82.5 26z" />
    <glyph glyph-name="nine.inf" unicode="&#x2089;" horiz-adv-x="349" 
d="M309 149q0 -43 -20 -86t-70 -108l-69 -87h-34l79 100q14 18 27 37t27 41q-23 -9 -45 -13.5t-43 -4.5q-59 0 -96 35t-37 91q0 57 40.5 96t102.5 39q63 0 100.5 -38t37.5 -102zM170 263q-50 0 -82 -30.5t-32 -76.5q0 -48 31.5 -75.5t85.5 -27.5q20 0 42.5 4.5t46.5 13.5
q10 20 14.5 39t4.5 38q0 53 -30 84t-81 31z" />
    <glyph glyph-name="uni20A6" unicode="&#x20a6;" horiz-adv-x="874" 
d="M36 419v27h123v254h42l184 -255h303v255h27v-254h123v-27h-123v-136h123v-27h-123v-256h-40l-186 257h-303v-257h-27v256h-123v27h123v136h-123zM186 676v-231h167zM404 420l99 -138h185v138h-284zM186 420v-138h285l-100 138h-185zM688 257h-167l167 -230v230z" />
    <glyph glyph-name="uni20A9" unicode="&#x20a9;" horiz-adv-x="1122" 
d="M1049 283v-27h-152l-77 -264h-37l-89 265h-266l-89 -265h-37l-77 264h-152v27h144l-39 136h-130v27h122l-74 254h30l73 -255h264l86 256h25l85 -256h265l73 255h29l-74 -254h122v-27h-130l-39 -136h144zM561 653l-70 -208h140zM667 420l46 -138h164l39 138h-249zM483 420
l-47 -138h250l-47 138h-156zM206 420l40 -138h163l46 138h-249zM870 257h-149l80 -240zM401 257h-148l68 -238z" />
    <glyph glyph-name="dong" unicode="&#x20ab;" horiz-adv-x="622" 
d="M469 0h-28v69q-37 -40 -77 -58t-92 -18q-88 0 -151 66t-63 164q0 103 64 170.5t157 67.5q48 0 88 -15t74 -46v169h-214v27h214v104h28v-104h123v-27h-123v-569zM283 434q-84 0 -140.5 -59t-56.5 -150q0 -88 56 -146.5t133 -58.5q47 0 87.5 19t78.5 59v270
q-36 33 -75 49.5t-83 16.5zM493 -152h-431v26h431v-26z" />
    <glyph glyph-name="Euro" unicode="&#x20ac;" horiz-adv-x="655" 
d="M590 67l-6 -34q-44 -24 -82.5 -34.5t-84.5 -10.5q-105 0 -178 70.5t-94 193.5h-113v27h109q-2 15 -3 32.5t-1 38.5q0 17 1.5 35.5t3.5 37.5h-110v27h114q23 122 97 192t179 70q46 0 85.5 -10.5t85.5 -35.5v-32h-2q-49 29 -86.5 40t-84.5 11q-91 0 -157 -63.5t-88 -171.5
h327v-27h-332q-3 -20 -4 -37.5t-1 -35.5q0 -14 1 -30t3 -41h333v-27h-328q21 -110 86.5 -173.5t157.5 -63.5q44 0 86 13t84 40z" />
    <glyph glyph-name="uni20B1" unicode="&#x20b1;" horiz-adv-x="650" 
d="M309 284h-128v-284h-28v477h-123v27h123v196h167q93 0 152.5 -53.5t63.5 -142.5h97v-27h-98q-6 -85 -69 -139t-157 -54zM317 673h-136v-170h327q-4 77 -56.5 123.5t-134.5 46.5zM181 311h131q81 0 135.5 46.5t59.5 120.5h-326v-167z" />
    <glyph glyph-name="uni20B9" unicode="&#x20b9;" horiz-adv-x="584" 
d="M135 259l357 -257v-2h-46l-380 274l3 9h60q124 0 189 46t71 137h-319v27h319v180h-319v27h457v-27h-110v-180h106v-27h-106q-5 -100 -78 -153.5t-204 -53.5z" />
    <glyph glyph-name="uni20BA" unicode="&#x20ba;" horiz-adv-x="578" 
d="M540 194l8 -33q-42 -77 -115 -121.5t-160 -44.5q-35 0 -64.5 5t-55.5 15v245l-123 -56v30l123 56v150l-123 -56v30l123 56v230h28v-218l234 106v-30l-234 -106v-150l234 106v-30l-234 -106v-235q23 -8 45 -11.5t50 -3.5q81 0 148.5 44t113.5 128h2z" />
    <glyph glyph-name="uni20BD" unicode="&#x20bd;" horiz-adv-x="586" 
d="M493 188v-27h-312v-161h-28v161h-123v27h123v136h-123v27h123v349h171q94 0 153 -51t59 -135q0 -87 -61 -138.5t-162 -51.5h-132v-136h312zM321 673h-140v-322h135q87 0 139.5 43.5t52.5 117.5q0 73 -51.5 117t-135.5 44z" />
    <glyph glyph-name="uni2117" unicode="&#x2117;" horiz-adv-x="890" 
d="M160 68q-57 55 -87.5 128t-30.5 153t31 153t88 129q57 55 131 85t154 30q81 0 154 -29.5t130 -84.5t87.5 -128t30.5 -153t-31 -153t-88 -129q-57 -55 -131 -85t-154 -30q-81 0 -154 29.5t-130 84.5zM179 614q-53 -53 -82 -121t-29 -144q0 -155 109.5 -263t266.5 -108
t267.5 108.5t110.5 264.5t-109 263.5t-267 107.5q-75 0 -144.5 -28t-122.5 -80zM624 453q0 -57 -44 -94.5t-109 -37.5h-99v-195h-29v456h131q68 0 109 -34.5t41 -94.5zM473 555h-101v-207h101q52 0 87 29.5t35 75.5q0 47 -32.5 74.5t-89.5 27.5z" />
    <glyph glyph-name="uni2120" unicode="&#x2120;" horiz-adv-x="962" 
d="M174 497q-70 28 -93.5 52.5t-23.5 57.5q0 43 35 70.5t89 27.5q33 0 63 -9t54 -27v-28h-2q-26 20 -55.5 30.5t-61.5 10.5q-41 0 -68.5 -21t-27.5 -53q0 -25 20 -44t85 -44q77 -29 100.5 -54t23.5 -59q0 -44 -38 -73.5t-93 -29.5q-35 0 -68.5 10.5t-63.5 31.5l-4 30l2 1
q34 -25 68.5 -37.5t67.5 -12.5q44 0 73.5 23t29.5 56q0 26 -20.5 45t-91.5 46zM425 700h38l194 -356l194 356h38v-391h-26v361l-202 -366h-9l-201 366v-361h-26v391z" />
    <glyph glyph-name="trademark" unicode="&#x2122;" horiz-adv-x="1007" 
d="M391 700v-25h-172v-370h-27v370h-172v25h371zM470 700h38l194 -356l194 356h38v-391h-26v361l-202 -366h-9l-201 366v-361h-26v391z" />
    <glyph glyph-name="onethird" unicode="&#x2153;" horiz-adv-x="760" 
d="M27 586l-1 1v29l135 90l7 -2v-417h-28v374zM356 343l-231 -345h-32l242 358l232 346h32zM603 213q57 -12 87.5 -41t30.5 -70q0 -47 -38 -78t-94 -31q-33 0 -63.5 9t-59.5 27l-6 34l2 1q31 -23 62.5 -34.5t65.5 -11.5q44 0 73 22.5t29 59.5q0 42 -40.5 68.5t-117.5 33.5
v16q73 12 112 38.5t39 63.5q0 31 -24.5 52t-62.5 21q-29 0 -60 -12t-62 -35h-2v32q31 21 62 31t63 10q52 0 83.5 -27t31.5 -71q0 -37 -29 -65t-82 -43z" />
    <glyph glyph-name="twothirds" unicode="&#x2154;" horiz-adv-x="861" 
d="M83 313h234l-15 -26h-263l-2 8l157 177q42 47 56 73.5t14 53.5q0 36 -24.5 58.5t-62.5 22.5q-35 0 -68.5 -22.5t-61.5 -66.5l-2 1l-6 30q25 39 62 61.5t77 22.5q50 0 82 -29t32 -76q0 -33 -15.5 -63t-59.5 -78zM457 343l-231 -345h-32l242 358l232 346h32zM704 213
q57 -12 87.5 -41t30.5 -70q0 -47 -38 -78t-94 -31q-33 0 -63.5 9t-59.5 27l-6 34l2 1q31 -23 62.5 -34.5t65.5 -11.5q44 0 73 22.5t29 59.5q0 42 -40.5 68.5t-117.5 33.5v16q73 12 112 38.5t39 63.5q0 31 -24.5 52t-62.5 21q-29 0 -60 -12t-62 -35h-2v32q31 21 62 31t63 10
q52 0 83.5 -27t31.5 -71q0 -37 -29 -65t-82 -43z" />
    <glyph glyph-name="onefifth" unicode="&#x2155;" horiz-adv-x="778" 
d="M27 586l-1 1v29l135 90l7 -2v-417h-28v374zM356 343l-231 -345h-32l242 358l232 346h32zM606 251q62 0 99.5 -34t37.5 -90q0 -57 -42.5 -95.5t-107.5 -38.5q-32 0 -59.5 7t-56.5 23l-5 32l2 1q31 -20 59 -28.5t61 -8.5q52 0 86.5 30.5t34.5 75.5q0 46 -31 73t-83 27
q-27 0 -55 -7t-53 -20l-7 3l15 212h226v-26h-200l-12 -155q21 10 43.5 14.5t47.5 4.5z" />
    <glyph glyph-name="twofifths" unicode="&#x2156;" horiz-adv-x="879" 
d="M83 313h234l-15 -26h-263l-2 8l157 177q42 47 56 73.5t14 53.5q0 36 -24.5 58.5t-62.5 22.5q-35 0 -68.5 -22.5t-61.5 -66.5l-2 1l-6 30q25 39 62 61.5t77 22.5q50 0 82 -29t32 -76q0 -33 -15.5 -63t-59.5 -78zM457 343l-231 -345h-32l242 358l232 346h32zM707 251
q62 0 99.5 -34t37.5 -90q0 -57 -42.5 -95.5t-107.5 -38.5q-32 0 -59.5 7t-56.5 23l-5 32l2 1q31 -20 59 -28.5t61 -8.5q52 0 86.5 30.5t34.5 75.5q0 46 -31 73t-83 27q-27 0 -55 -7t-53 -20l-7 3l15 212h226v-26h-200l-12 -155q21 10 43.5 14.5t47.5 4.5z" />
    <glyph glyph-name="threefifths" unicode="&#x2157;" horiz-adv-x="851" 
d="M181 500q57 -12 87.5 -41t30.5 -70q0 -47 -38 -78t-94 -31q-33 0 -63.5 9t-59.5 27l-6 34l2 1q31 -23 62.5 -34.5t65.5 -11.5q44 0 73 22.5t29 59.5q0 42 -40.5 68.5t-117.5 33.5v16q73 12 112 38.5t39 63.5q0 31 -24.5 52t-62.5 21q-29 0 -60 -12t-62 -35h-2v32
q31 21 62 31t63 10q52 0 83.5 -27t31.5 -71q0 -37 -29 -65t-82 -43zM429 343l-231 -345h-32l242 358l232 346h32zM679 251q62 0 99.5 -34t37.5 -90q0 -57 -42.5 -95.5t-107.5 -38.5q-32 0 -59.5 7t-56.5 23l-5 32l2 1q31 -20 59 -28.5t61 -8.5q52 0 86.5 30.5t34.5 75.5
q0 46 -31 73t-83 27q-27 0 -55 -7t-53 -20l-7 3l15 212h226v-26h-200l-12 -155q21 10 43.5 14.5t47.5 4.5z" />
    <glyph glyph-name="fourfifths" unicode="&#x2158;" horiz-adv-x="892" 
d="M249 395h-224l-2 8l232 300h21v-284h73v-24h-73v-108h-27v108zM249 656l-186 -237h186v237zM470 343l-231 -345h-32l242 358l232 346h32zM720 251q62 0 99.5 -34t37.5 -90q0 -57 -42.5 -95.5t-107.5 -38.5q-32 0 -59.5 7t-56.5 23l-5 32l2 1q31 -20 59 -28.5t61 -8.5
q52 0 86.5 30.5t34.5 75.5q0 46 -31 73t-83 27q-27 0 -55 -7t-53 -20l-7 3l15 212h226v-26h-200l-12 -155q21 10 43.5 14.5t47.5 4.5z" />
    <glyph glyph-name="onesixth" unicode="&#x2159;" horiz-adv-x="731" 
d="M27 586l-1 1v29l135 90l7 -2v-417h-28v374zM356 343l-231 -345h-32l242 358l232 346h32zM570 253q58 0 95.5 -35t37.5 -91q0 -57 -41 -96t-102 -39q-63 0 -100.5 38t-37.5 102q0 42 20 85t71 109l68 87h34l-78 -100q-19 -24 -32.5 -43t-22.5 -35q24 9 45 13.5t43 4.5z
M469 210q-9 -19 -13.5 -38t-4.5 -39q0 -53 29.5 -84t80.5 -31q49 0 81.5 31t32.5 76q0 48 -32 75.5t-85 27.5q-20 0 -42 -4.5t-47 -13.5z" />
    <glyph glyph-name="fivesixths" unicode="&#x215a;" horiz-adv-x="807" 
d="M174 538q62 0 99.5 -34t37.5 -90q0 -57 -42.5 -95.5t-107.5 -38.5q-32 0 -59.5 7t-56.5 23l-5 32l2 1q31 -20 59 -28.5t61 -8.5q52 0 86.5 30.5t34.5 75.5q0 46 -31 73t-83 27q-27 0 -55 -7t-53 -20l-7 3l15 212h226v-26h-200l-12 -155q21 10 43.5 14.5t47.5 4.5z
M432 343l-231 -345h-32l242 358l232 346h32zM646 253q58 0 95.5 -35t37.5 -91q0 -57 -41 -96t-102 -39q-63 0 -100.5 38t-37.5 102q0 42 20 85t71 109l68 87h34l-78 -100q-19 -24 -32.5 -43t-22.5 -35q24 9 45 13.5t43 4.5zM545 210q-9 -19 -13.5 -38t-4.5 -39
q0 -53 29.5 -84t80.5 -31q49 0 81.5 31t32.5 76q0 48 -32 75.5t-85 27.5q-20 0 -42 -4.5t-47 -13.5z" />
    <glyph glyph-name="oneeighth" unicode="&#x215b;" horiz-adv-x="783" 
d="M27 586l-1 1v29l135 90l7 -2v-417h-28v374zM356 343l-231 -345h-32l242 358l232 346h32zM656 210q41 -13 64.5 -41t23.5 -64q0 -48 -41.5 -80.5t-103.5 -32.5q-61 0 -102 32.5t-41 80.5q0 36 23.5 63.5t64.5 40.5q-35 13 -56 40.5t-21 60.5q0 45 39 77t94 32t94 -32
t39 -77q0 -33 -21 -60t-56 -40zM599 394q-45 0 -75 -25t-30 -61q0 -37 31 -62.5t75 -25.5q43 0 74.5 26t31.5 62q0 37 -30.5 61.5t-76.5 24.5zM599 197q-47 0 -81 -26t-34 -64q0 -40 33 -65t84 -25q50 0 82.5 25t32.5 65q0 38 -34.5 64t-82.5 26z" />
    <glyph glyph-name="threeeighths" unicode="&#x215c;" horiz-adv-x="856" 
d="M181 500q57 -12 87.5 -41t30.5 -70q0 -47 -38 -78t-94 -31q-33 0 -63.5 9t-59.5 27l-6 34l2 1q31 -23 62.5 -34.5t65.5 -11.5q44 0 73 22.5t29 59.5q0 42 -40.5 68.5t-117.5 33.5v16q73 12 112 38.5t39 63.5q0 31 -24.5 52t-62.5 21q-29 0 -60 -12t-62 -35h-2v32
q31 21 62 31t63 10q52 0 83.5 -27t31.5 -71q0 -37 -29 -65t-82 -43zM429 343l-231 -345h-32l242 358l232 346h32zM729 210q41 -13 64.5 -41t23.5 -64q0 -48 -41.5 -80.5t-103.5 -32.5q-61 0 -102 32.5t-41 80.5q0 36 23.5 63.5t64.5 40.5q-35 13 -56 40.5t-21 60.5
q0 45 39 77t94 32t94 -32t39 -77q0 -33 -21 -60t-56 -40zM672 394q-45 0 -75 -25t-30 -61q0 -37 31 -62.5t75 -25.5q43 0 74.5 26t31.5 62q0 37 -30.5 61.5t-76.5 24.5zM672 197q-47 0 -81 -26t-34 -64q0 -40 33 -65t84 -25q50 0 82.5 25t32.5 65q0 38 -34.5 64t-82.5 26z
" />
    <glyph glyph-name="fiveeighths" unicode="&#x215d;" horiz-adv-x="859" 
d="M174 538q62 0 99.5 -34t37.5 -90q0 -57 -42.5 -95.5t-107.5 -38.5q-32 0 -59.5 7t-56.5 23l-5 32l2 1q31 -20 59 -28.5t61 -8.5q52 0 86.5 30.5t34.5 75.5q0 46 -31 73t-83 27q-27 0 -55 -7t-53 -20l-7 3l15 212h226v-26h-200l-12 -155q21 10 43.5 14.5t47.5 4.5z
M432 343l-231 -345h-32l242 358l232 346h32zM732 210q41 -13 64.5 -41t23.5 -64q0 -48 -41.5 -80.5t-103.5 -32.5q-61 0 -102 32.5t-41 80.5q0 36 23.5 63.5t64.5 40.5q-35 13 -56 40.5t-21 60.5q0 45 39 77t94 32t94 -32t39 -77q0 -33 -21 -60t-56 -40zM675 394
q-45 0 -75 -25t-30 -61q0 -37 31 -62.5t75 -25.5q43 0 74.5 26t31.5 62q0 37 -30.5 61.5t-76.5 24.5zM675 197q-47 0 -81 -26t-34 -64q0 -40 33 -65t84 -25q50 0 82.5 25t32.5 65q0 38 -34.5 64t-82.5 26z" />
    <glyph glyph-name="seveneighths" unicode="&#x215e;" horiz-adv-x="780" 
d="M303 700l2 -6l-198 -407h-31l192 387h-242l-7 26h284zM353 343l-231 -345h-32l242 358l232 346h32zM653 210q41 -13 64.5 -41t23.5 -64q0 -48 -41.5 -80.5t-103.5 -32.5q-61 0 -102 32.5t-41 80.5q0 36 23.5 63.5t64.5 40.5q-35 13 -56 40.5t-21 60.5q0 45 39 77t94 32
t94 -32t39 -77q0 -33 -21 -60t-56 -40zM596 394q-45 0 -75 -25t-30 -61q0 -37 31 -62.5t75 -25.5q43 0 74.5 26t31.5 62q0 37 -30.5 61.5t-76.5 24.5zM596 197q-47 0 -81 -26t-34 -64q0 -40 33 -65t84 -25q50 0 82.5 25t32.5 65q0 38 -34.5 64t-82.5 26z" />
    <glyph glyph-name="minus" unicode="&#x2212;" 
d="M550 374v-28h-500v28h500z" />
    <glyph glyph-name="approxequal" unicode="&#x2248;" 
d="M189 533q16 0 40.5 -10t79.5 -43q49 -29 70 -38t34 -9q29 0 51.5 21.5t57.5 82.5l22 -11q-41 -73 -68.5 -98t-64.5 -25q-16 0 -40.5 10t-79.5 43q-49 29 -70 38t-34 9q-29 0 -51.5 -21.5t-57.5 -82.5l-22 11q41 73 68.5 98t64.5 25zM189 317q16 0 40.5 -10t79.5 -43
q49 -29 70 -38t34 -9q29 0 51.5 21.5t57.5 82.5l22 -11q-41 -73 -68.5 -98t-64.5 -25q-16 0 -40.5 10t-79.5 43q-49 29 -70 38t-34 9q-29 0 -51.5 -21.5t-57.5 -82.5l-22 11q41 73 68.5 98t64.5 25z" />
    <glyph glyph-name="notequal" unicode="&#x2260;" 
d="M540 274v-28h-281l-69 -148l-23 10l65 138h-172v28h185l81 172h-266v28h279l70 150l23 -10l-66 -140h174v-28h-187l-80 -172h267z" />
    <glyph glyph-name="lessequal" unicode="&#x2264;" 
d="M122 410l383 -223v-30l-420 243v20l420 243v-30zM505 0h-420v28h420v-28z" />
    <glyph glyph-name="greaterequal" unicode="&#x2265;" 
d="M515 420v-20l-420 -243v30l383 223l-383 223v30zM515 28v-28h-420v28h420z" />
    <glyph glyph-name="uni237F" unicode="&#x237f;" horiz-adv-x="454" 
d="M300 360q0 -27 -16.5 -47t-41.5 -26v-377h-30v377q-26 4 -42 24.5t-16 48.5q0 27 16 47.5t42 25.5v347h30v-347q26 -5 42 -25.5t16 -47.5z" />
    <glyph glyph-name="uniA788" unicode="&#xa788;" horiz-adv-x="500" 
d="M388 -268h-21l-118 122l-117 -122h-20l123 151h30z" />
    <glyph glyph-name="G.alt" horiz-adv-x="804" 
d="M744 342v-13q0 -153 -91 -248t-241 -95q-145 0 -246 102.5t-101 255.5q0 158 105 262.5t263 104.5q74 0 147 -29.5t126 -80.5l-3 -36h-2q-54 56 -125.5 87t-144.5 31q-144 0 -240 -96.5t-96 -240.5q0 -142 93.5 -237t225.5 -95q131 0 214 83.5t87 216.5h-292v28h321z" />
    <glyph glyph-name="Q.alt" horiz-adv-x="857" 
d="M769 18l-19 -24l-91 81q-48 -42 -109 -64.5t-126 -22.5q-149 0 -254 105.5t-105 256.5q0 152 105.5 258t255.5 106q149 0 254 -105.5t105 -256.5q0 -73 -26.5 -138.5t-77.5 -117.5zM424 686q-135 0 -232 -98t-97 -236q0 -140 97 -238t234 -98q58 0 112.5 20t98.5 58
l-148 132l19 24l151 -135q47 49 71.5 109t24.5 126q0 140 -97 238t-234 98z" />
    <glyph glyph-name="a.alt" horiz-adv-x="615" 
d="M536 0h-29l-18 98q-53 -56 -103 -82t-103 -26q-98 0 -162 66.5t-64 174.5q0 111 73.5 186.5t181.5 75.5q44 0 88.5 -16t89.5 -48l12 55h14v-358zM312 466q-96 0 -161 -67.5t-65 -166.5q0 -96 57 -155.5t142 -59.5q49 0 98.5 27t103.5 83v271q-45 34 -89 51t-86 17z" />
    <glyph glyph-name="A.sc" horiz-adv-x="659" 
d="M79 0h-30l266 549h30l264 -549h-32l-77 160h-344zM328 518l-159 -331h318z" />
    <glyph glyph-name="B.sc" horiz-adv-x="537" 
d="M349 282q60 -13 94 -49t34 -86q0 -66 -52 -106.5t-136 -40.5h-182v544h172q77 0 123 -37t46 -101q0 -43 -26 -75.5t-73 -48.5zM277 516h-141v-225h139q62 0 103 31.5t41 81.5q0 52 -38.5 82t-103.5 30zM136 264v-236h153q69 0 114 33.5t45 85.5q0 51 -45 84t-111 33h-156
z" />
    <glyph glyph-name="C.sc" horiz-adv-x="612" 
d="M336 -9q-114 0 -195 80t-81 200q0 118 81.5 200t196.5 82q59 0 112.5 -21.5t89.5 -58.5v-36h-2q-40 43 -92 66t-109 23q-100 0 -174 -75t-74 -178q0 -108 73.5 -181.5t175.5 -73.5q55 0 108 24.5t97 69.5l2 -1l-5 -36q-41 -41 -93 -62.5t-111 -21.5z" />
    <glyph glyph-name="D.sc" horiz-adv-x="652" 
d="M287 0h-180v544h180q136 0 220.5 -74.5t84.5 -195.5q0 -124 -85.5 -199t-219.5 -75zM563 271q0 111 -77.5 178.5t-199.5 67.5h-150v-490h153q118 0 196 67.5t78 176.5z" />
    <glyph glyph-name="E.sc" horiz-adv-x="489" 
d="M434 0h-327v544h325l10 -27h-306v-227h261v-27h-261v-236h308z" />
    <glyph glyph-name="F.sc" horiz-adv-x="466" 
d="M392 280v-27h-256v-253h-29v544h332l-10 -27h-293v-237h256z" />
    <glyph glyph-name="G.sc" horiz-adv-x="636" 
d="M553 268v-218q-59 -32 -106 -45t-100 -13q-125 0 -206 78t-81 201t84 202t213 79q49 0 95 -11.5t93 -36.5v-33h-2q-48 28 -94 41t-94 13q-114 0 -190 -72t-76 -180q0 -113 73.5 -183.5t187.5 -70.5q49 0 89.5 11t84.5 36v175h-199v27h228z" />
    </font>
</defs>
</svg>
