<?xml version="1.0" standalone="no"?>
<!DOCTYPE svg PUBLIC "-//W3C//DTD SVG 1.1//EN" "http://www.w3.org/Graphics/SVG/1.1/DTD/svg11.dtd" >
<svg xmlns="http://www.w3.org/2000/svg" xmlns:xlink="http://www.w3.org/1999/xlink" version="1.1">
<metadata>
Created by FontForge 20170731 at Fri Jun  7 00:28:25 2019
 By Aleksey,,,
(C) 2015-2019 Frere-Jones Type LLC
</metadata>
<defs>
<font id="Mallory-Ultra" horiz-adv-x="0" >
  <font-face 
    font-family="Mallory Ultra"
    font-weight="900"
    font-stretch="normal"
    units-per-em="1000"
    panose-1="2 1 11 2 3 5 1 2 3 4"
    ascent="800"
    descent="-200"
    x-height="526"
    cap-height="700"
    bbox="-287 -288 1570 1149"
    underline-thickness="0"
    underline-position="0"
    unicode-range="U+0020-FB04"
  />
<missing-glyph horiz-adv-x="700" 
d="M600 -240h-500v1200h500v-1200zM507 910h-315l158 -481zM550 874l-172 -514l172 -514v1028zM150 -154l171 514l-171 514v-1028zM507 -190l-157 481l-158 -481h315z" />
    <glyph glyph-name="f_f" unicode="ff" horiz-adv-x="954" 
d="M461 526v-173h-142v-353h-232v353h-73v173h73v9q0 105 58 162.5t163 57.5q42 0 74.5 -4.5t72.5 -17.5l19 -157l-3 -2q-25 8 -44.5 11.5t-40.5 3.5q-35 0 -55 -15.5t-20 -43.5v-4h150zM938 526v-173h-142v-353h-232v353h-73v173h73v9q0 105 58 162.5t163 57.5
q42 0 74.5 -4.5t72.5 -17.5l19 -157l-3 -2q-25 8 -44.5 11.5t-40.5 3.5q-35 0 -55 -15.5t-20 -43.5v-4h150z" />
    <glyph glyph-name="fi" unicode="fi" horiz-adv-x="801" 
d="M461 526v-173h-142v-353h-232v353h-73v173h73v9q0 105 58 162.5t163 57.5q42 0 74.5 -4.5t72.5 -17.5l19 -157l-3 -2q-25 8 -44.5 11.5t-40.5 3.5q-35 0 -55 -15.5t-20 -43.5v-4h150zM639 797q58 0 95 -33.5t37 -86.5q0 -52 -37.5 -86t-94.5 -34t-94.5 34t-37.5 86
q0 53 37 86.5t95 33.5zM756 0h-234v526h234v-526z" />
    <glyph glyph-name="fl" unicode="fl" horiz-adv-x="801" 
d="M461 526v-173h-142v-353h-232v353h-73v173h73v9q0 105 58 162.5t163 57.5q42 0 74.5 -4.5t72.5 -17.5l19 -157l-3 -2q-25 8 -44.5 11.5t-40.5 3.5q-35 0 -55 -15.5t-20 -43.5v-4h150zM756 0h-234v707l234 48v-755z" />
    <glyph glyph-name="f_f_i" unicode="ffi" horiz-adv-x="1278" 
d="M461 526v-173h-142v-353h-232v353h-73v173h73v9q0 105 58 162.5t163 57.5q42 0 74.5 -4.5t72.5 -17.5l19 -157l-3 -2q-25 8 -44.5 11.5t-40.5 3.5q-35 0 -55 -15.5t-20 -43.5v-4h150zM938 526v-173h-142v-353h-232v353h-73v173h73v9q0 105 58 162.5t163 57.5
q42 0 74.5 -4.5t72.5 -17.5l19 -157l-3 -2q-25 8 -44.5 11.5t-40.5 3.5q-35 0 -55 -15.5t-20 -43.5v-4h150zM1116 797q58 0 95 -33.5t37 -86.5q0 -52 -37.5 -86t-94.5 -34t-94.5 34t-37.5 86q0 53 37 86.5t95 33.5zM1233 0h-234v526h234v-526z" />
    <glyph glyph-name="f_f_l" unicode="ffl" horiz-adv-x="1278" 
d="M461 526v-173h-142v-353h-232v353h-73v173h73v9q0 105 58 162.5t163 57.5q42 0 74.5 -4.5t72.5 -17.5l19 -157l-3 -2q-25 8 -44.5 11.5t-40.5 3.5q-35 0 -55 -15.5t-20 -43.5v-4h150zM938 526v-173h-142v-353h-232v353h-73v173h73v9q0 105 58 162.5t163 57.5
q42 0 74.5 -4.5t72.5 -17.5l19 -157l-3 -2q-25 8 -44.5 11.5t-40.5 3.5q-35 0 -55 -15.5t-20 -43.5v-4h150zM1233 0h-234v707l234 48v-755z" />
    <glyph glyph-name=".notdef" horiz-adv-x="700" 
d="M600 -240h-500v1200h500v-1200zM507 910h-315l158 -481zM550 874l-172 -514l172 -514v1028zM150 -154l171 514l-171 514v-1028zM507 -190l-157 481l-158 -481h315z" />
    <glyph glyph-name="uni0000" 
 />
    <glyph glyph-name="uni0000" 
 />
    <glyph glyph-name="nonmarkingreturn" horiz-adv-x="333" 
 />
    <glyph glyph-name="space" unicode=" " horiz-adv-x="224" 
 />
    <glyph glyph-name="exclam" unicode="!" horiz-adv-x="324" 
d="M308 700v-23l-92 -398h-106l-94 398v23h292zM163 -11q-51 0 -87 36t-36 87t36 87t87 36t87 -36t36 -87t-36 -87t-87 -36z" />
    <glyph glyph-name="quotedbl" unicode="&#x22;" horiz-adv-x="621" 
d="M28 402l53 298h251l-200 -322zM309 402l53 298h251l-200 -322z" />
    <glyph glyph-name="numbersign" unicode="#" horiz-adv-x="731" 
d="M495 -2h-150l25 103h-129l-25 -103h-150l25 103h-70v204h121l22 90h-93v204h144l25 103h150l-25 -103h129l25 103h150l-25 -103h66v-204h-117l-22 -90h89v-204h-140zM315 400l-24 -100h129l24 100h-129z" />
    <glyph glyph-name="dollar" unicode="$" horiz-adv-x="590" 
d="M338 452q136 -38 185.5 -87t49.5 -141q0 -88 -57.5 -146.5t-157.5 -74.5l-11 -115h-168l11 118q-40 6 -76 18t-73 30l-27 217l3 1q74 -40 142.5 -61t124.5 -21q22 0 32.5 5t10.5 15q0 13 -16 21t-62 21q-129 37 -180.5 88t-51.5 135q0 92 64.5 151.5t178.5 71.5l9 102
h168l-10 -112q28 -7 55 -16t50 -20v-208h-3q-47 26 -116 46t-115 20q-18 0 -26.5 -4.5t-8.5 -14.5q0 -11 16 -19t59 -20z" />
    <glyph glyph-name="percent" unicode="%" horiz-adv-x="908" 
d="M406 508q0 -91 -55.5 -149t-141.5 -58q-83 0 -137 58t-54 148q0 91 54.5 149t137.5 58q85 0 140.5 -58t55.5 -148zM286 -2h-137l261 379l208 325h141l-265 -379zM212 586q-22 0 -35 -21t-13 -57q0 -34 13 -54.5t36 -20.5q22 0 34.5 20t12.5 55q0 36 -12.5 57t-35.5 21z
M502 192q0 91 54.5 149t137.5 58q85 0 140.5 -58t55.5 -148q0 -91 -55.5 -149t-141.5 -58q-83 0 -137 58t-54 148zM697 118q22 0 34.5 20t12.5 55q0 36 -12.5 57t-35.5 21q-22 0 -35 -21t-13 -57q0 -34 13 -54.5t36 -20.5z" />
    <glyph glyph-name="ampersand" unicode="&#x26;" horiz-adv-x="773" 
d="M770 0h-248q-4 4 -9.5 8.5t-15.5 13.5q-16 14 -23.5 21t-13.5 13q-55 -34 -108.5 -51t-109.5 -17q-106 0 -167.5 52.5t-61.5 141.5q0 63 41 111.5t123 81.5q-29 44 -41.5 78.5t-12.5 71.5q0 79 65 133.5t164 54.5q101 0 164.5 -50.5t63.5 -128.5q0 -55 -37 -100t-119 -86
q23 -27 35 -40.5t23 -25.5q16 18 33.5 38t36.5 44h213v-3q-45 -58 -87.5 -106.5t-82.5 -88.5q35 -35 78 -75t97 -88v-3zM362 555q-21 0 -34 -12t-13 -31q0 -15 8.5 -32t28.5 -43q32 18 46.5 35t14.5 37t-14 33t-37 13zM271 252q-17 -14 -25 -26.5t-8 -26.5q0 -23 16 -37.5
t43 -14.5q11 0 24.5 4.5t28.5 12.5q-21 22 -40.5 43.5t-38.5 44.5z" />
    <glyph glyph-name="quotesingle" unicode="'" horiz-adv-x="350" 
d="M28 402l53 298h261l-208 -322z" />
    <glyph glyph-name="parenleft" unicode="(" horiz-adv-x="483" 
d="M288 305q0 -108 38.5 -195t142.5 -200l-55 -62q-193 98 -276.5 206t-83.5 251t83.5 251t276.5 206l55 -62q-104 -113 -142.5 -200t-38.5 -195z" />
    <glyph glyph-name="parenright" unicode=")" horiz-adv-x="483" 
d="M195 305q0 108 -38.5 195t-142.5 200l55 62q193 -98 276.5 -206t83.5 -251t-83.5 -251t-276.5 -206l-55 62q104 113 142.5 200t38.5 195z" />
    <glyph glyph-name="asterisk" unicode="*" horiz-adv-x="562" 
d="M162 704h238l-104 -170h-30zM220 477l-195 -45l75 226l128 -152zM462 658l75 -226l-195 45l-8 29zM260 424l-14 -198l-194 138l184 78zM510 364l-194 -138l-14 198l24 18z" />
    <glyph glyph-name="plus" unicode="+" horiz-adv-x="600" 
d="M572 445v-186h-174v-170h-196v170h-174v186h174v170h196v-170h174z" />
    <glyph glyph-name="comma" unicode="," horiz-adv-x="292" 
d="M206 -14q-25 -35 -66 -74.5t-116 -99.5l-57 57q40 55 53.5 85t19.5 68q5 29 7 69.5t2 104.5v31h218q0 -83 -14 -138t-47 -103z" />
    <glyph glyph-name="hyphen" unicode="-" horiz-adv-x="410" 
d="M34 182v202h342v-202h-342z" />
    <glyph glyph-name="period" unicode="." horiz-adv-x="292" 
d="M146 -11q-53 0 -90.5 37.5t-37.5 90.5t37.5 90.5t90.5 37.5q54 0 91 -37.5t37 -90.5t-37 -90.5t-91 -37.5z" />
    <glyph glyph-name="slash" unicode="/" horiz-adv-x="516" 
d="M150 -130h-160l351 870h160z" />
    <glyph glyph-name="zero" unicode="0" horiz-adv-x="719" 
d="M29 349q0 161 93.5 263t238.5 102q146 0 237.5 -100t91.5 -263q0 -162 -93.5 -263.5t-237.5 -101.5q-148 0 -239 99.5t-91 263.5zM265 351q0 -75 24.5 -115t71.5 -40q45 0 69 40t24 113q0 74 -25 114.5t-70 40.5t-69.5 -40t-24.5 -113z" />
    <glyph glyph-name="one" unicode="1" horiz-adv-x="480" 
d="M35 274l-2 1v248l372 190l15 -6v-707h-241v350z" />
    <glyph glyph-name="two" unicode="2" horiz-adv-x="607" 
d="M359 203l229 4l-53 -207h-498l-12 147l247 240q24 24 34 39t10 29q0 19 -12.5 29t-36.5 10q-44 0 -98.5 -30t-118.5 -89l-3 1l-11 238q61 51 128.5 74.5t146.5 23.5q114 0 180 -59t66 -156q0 -59 -26.5 -107.5t-98.5 -117.5z" />
    <glyph glyph-name="three" unicode="3" horiz-adv-x="583" 
d="M413 361q71 -25 105 -67.5t34 -103.5q0 -90 -75 -145.5t-192 -55.5q-67 0 -125 14t-112 44l-21 211l3 1q54 -35 115 -57t105 -22q32 0 49 9t17 26q0 18 -19 31t-69 33q-19 8 -45.5 18t-61.5 23v60q33 15 57.5 26.5t42.5 20.5q50 24 68 36t18 25q0 14 -16.5 22.5
t-46.5 8.5q-44 0 -96 -20t-105 -56h-3v195q49 33 116.5 52.5t136.5 19.5q115 0 184 -50t69 -134q0 -56 -33 -97t-100 -68z" />
    <glyph glyph-name="four" unicode="4" horiz-adv-x="681" 
d="M339 114h-326l-8 64l276 522h284v-414h100v-172h-100v-114h-226v114zM343 504l-100 -218h100v218z" />
    <glyph glyph-name="five" unicode="5" horiz-adv-x="602" 
d="M302 450q134 0 203.5 -56t69.5 -164q0 -112 -82 -177t-222 -65q-59 0 -114 10.5t-100 29.5l-16 195l3 1q67 -25 112.5 -35t88.5 -10q42 0 64.5 14.5t22.5 41.5q0 31 -27.5 46t-84.5 15q-37 0 -73 -4.5t-86 -15.5l-8 4l24 420h464v-201h-300l-4 -54q15 2 32.5 3.5
t32.5 1.5z" />
    <glyph glyph-name="six" unicode="6" horiz-adv-x="653" 
d="M389 492q109 0 176.5 -62t67.5 -169q0 -121 -84.5 -198t-221.5 -77q-138 0 -219.5 74.5t-81.5 194.5q0 67 27 133t107 180l92 132h278l-171 -209q5 1 11.5 1h18.5zM273 318q-7 -19 -10.5 -33.5t-3.5 -28.5q0 -35 20 -56.5t52 -21.5q30 0 49.5 20.5t19.5 50.5
q0 33 -23.5 52t-64.5 19q-5 0 -11.5 -0.5t-27.5 -1.5z" />
    <glyph glyph-name="seven" unicode="7" horiz-adv-x="626" 
d="M620 700l4 -5l-310 -695h-248l229 493h-252l-21 207h598z" />
    <glyph glyph-name="eight" unicode="8" horiz-adv-x="669" 
d="M515 357q62 -24 94 -67t32 -104q0 -92 -83 -145t-224 -53q-146 0 -226 51.5t-80 146.5q0 60 32 103.5t94 67.5q-52 24 -78.5 64.5t-26.5 95.5q0 91 76 143t210 52t210 -52t76 -143q0 -55 -27 -95.5t-79 -64.5zM334 549q-27 0 -42.5 -16.5t-15.5 -43.5q0 -28 16.5 -45
t43.5 -17q26 0 42.5 17t16.5 45q0 27 -17 43.5t-44 16.5zM334 283q-29 0 -47 -18.5t-18 -46.5q0 -30 18 -48.5t49 -18.5q30 0 47.5 18t17.5 49q0 28 -18.5 46.5t-48.5 18.5z" />
    <glyph glyph-name="nine" unicode="9" horiz-adv-x="653" 
d="M627 445q0 -67 -27 -133t-107 -180l-92 -132h-278l162 198h-5.5h-5.5q-119 0 -186.5 61.5t-67.5 174.5q0 124 84.5 202t221.5 78q138 0 219.5 -74.5t81.5 -194.5zM322 522q-31 0 -50 -21.5t-19 -54.5q0 -37 23 -56.5t65 -19.5h21.5t14.5 1q9 21 13 37.5t4 35.5
q0 35 -20 56.5t-52 21.5z" />
    <glyph glyph-name="colon" unicode=":" horiz-adv-x="298" 
d="M149 280q-53 0 -90.5 37.5t-37.5 90.5t37.5 90.5t90.5 37.5q54 0 91 -37.5t37 -90.5t-37 -90.5t-91 -37.5zM149 -11q-53 0 -90.5 37.5t-37.5 90.5t37.5 90.5t90.5 37.5q54 0 91 -37.5t37 -90.5t-37 -90.5t-91 -37.5z" />
    <glyph glyph-name="semicolon" unicode=";" horiz-adv-x="298" 
d="M153 279q-53 0 -90.5 37.5t-37.5 90.5t37.5 90.5t90.5 37.5q54 0 91 -37.5t37 -90.5t-37 -90.5t-91 -37.5zM206 -14q-25 -35 -66 -74.5t-116 -99.5l-57 57q40 55 53.5 85t19.5 68q5 29 7 69.5t2 104.5v31h218q0 -83 -14 -138t-47 -103z" />
    <glyph glyph-name="less" unicode="&#x3c;" horiz-adv-x="600" 
d="M286 354l257 -92v-201l-492 208v166l492 210v-197z" />
    <glyph glyph-name="equal" unicode="=" horiz-adv-x="600" 
d="M569 537v-155h-538v155h538zM569 322v-155h-538v155h538z" />
    <glyph glyph-name="greater" unicode="&#x3e;" horiz-adv-x="600" 
d="M549 437v-166l-492 -210v197l257 94l-257 92v201z" />
    <glyph glyph-name="question" unicode="?" horiz-adv-x="514" 
d="M25 433v211q59 35 115 50.5t123 15.5q107 0 171.5 -50t64.5 -132q0 -59 -24.5 -94.5t-105.5 -77.5q-43 -22 -58.5 -35.5t-15.5 -29.5v-12h-120q-27 18 -40.5 39.5t-13.5 47.5q0 33 27.5 60.5t90.5 55.5q25 11 32.5 15.5t7.5 9.5t-8 7.5t-26 2.5q-48 0 -103 -21.5
t-114 -62.5h-3zM230 -11q-51 0 -87 36t-36 87t36 87t87 36t87 -36t36 -87t-36 -87t-87 -36z" />
    <glyph glyph-name="at" unicode="@" horiz-adv-x="1018" 
d="M761 -100v-35q-73 -26 -143.5 -38t-150.5 -12q-199 0 -315 103.5t-116 283.5q0 103 43 203t120 178q78 78 176.5 120t205.5 42q179 0 289.5 -102.5t110.5 -267.5q0 -146 -86.5 -237t-213.5 -91q-68 0 -102.5 19t-43.5 62q-49 -45 -84.5 -63t-75.5 -18q-63 0 -103 48.5
t-40 128.5q0 120 83.5 207.5t204.5 87.5q38 0 76 -8.5t74 -25.5l122 26l13 -3l-72 -296q-3 -13 -5 -24t-2 -20q0 -19 13 -30t35 -11q34 0 69.5 24t60.5 64q21 33 31.5 73t10.5 85q0 154 -100 247t-267 93q-99 0 -190.5 -40t-164.5 -113q-72 -73 -112 -166.5t-40 -189.5
q0 -168 105 -262.5t292 -94.5q81 0 152 13t140 40zM528 359q-46 0 -74.5 -27t-28.5 -69q0 -25 14 -39t41 -14q15 0 28 3.5t28 10.5l32 129q-10 3 -19.5 4.5t-20.5 1.5z" />
    <glyph glyph-name="A" unicode="A" horiz-adv-x="846" 
d="M258 0h-258l280 700h286l280 -700h-266l-33 93h-256zM419 466l-68 -185h136z" />
    <glyph glyph-name="B" unicode="B" horiz-adv-x="678" 
d="M539 364q57 -25 86 -65.5t29 -95.5q0 -94 -73 -148.5t-195 -54.5h-337v700h329q119 0 186.5 -50t67.5 -137q0 -45 -24 -83.5t-69 -65.5zM340 522h-57v-97h57q30 0 45 12.5t15 37.5q0 23 -15 35t-45 12zM283 276v-100h63q32 0 48.5 12.5t16.5 36.5q0 26 -16 38.5t-49 12.5
h-63z" />
    <glyph glyph-name="C" unicode="C" horiz-adv-x="675" 
d="M387 -11q-157 0 -259.5 101t-102.5 259q0 155 104 258.5t265 103.5q66 0 125.5 -18t104.5 -52v-245l-3 -1q-42 41 -93 64.5t-98 23.5q-67 0 -107 -36.5t-40 -96.5q0 -63 40 -98.5t111 -35.5q52 0 103 20t96 58l4 -2l-29 -247q-49 -29 -102.5 -42.5t-118.5 -13.5z" />
    <glyph glyph-name="D" unicode="D" horiz-adv-x="772" 
d="M331 0h-282v700h282q201 0 308.5 -90.5t107.5 -258.5q0 -165 -109 -258t-307 -93zM492 349q0 68 -41.5 103t-121.5 35h-30v-274h30q80 0 121.5 35t41.5 101z" />
    <glyph glyph-name="E" unicode="E" horiz-adv-x="618" 
d="M567 0h-518v700h515l25 -205h-295v-60h242v-169h-242v-61h298z" />
    <glyph glyph-name="F" unicode="F" horiz-adv-x="599" 
d="M523 398v-191h-224v-207h-250v700h534l-25 -212h-259v-90h224z" />
    <glyph glyph-name="G" unicode="G" horiz-adv-x="746" 
d="M698 409v-357q-79 -31 -153 -46.5t-141 -15.5q-170 0 -274.5 95.5t-104.5 253.5q0 172 113 272t305 100q64 0 122 -11t117 -35v-227h-3q-62 28 -114 40.5t-103 12.5q-83 0 -131 -39.5t-48 -109.5q0 -69 44.5 -107t126.5 -38h16t9 1v64h-101v147h320z" />
    <glyph glyph-name="H" unicode="H" horiz-adv-x="804" 
d="M755 0h-250v238h-206v-238h-250v700h250v-234h206v234h250v-700z" />
    <glyph glyph-name="I" unicode="I" horiz-adv-x="352" 
d="M301 0h-250v700h250v-700z" />
    <glyph glyph-name="J" unicode="J" horiz-adv-x="533" 
d="M147 213q41 0 66.5 25t25.5 65v397h250v-451q0 -119 -73.5 -188t-199.5 -69q-50 0 -93.5 10t-84.5 30l-25 219l3 2q35 -21 66 -30.5t65 -9.5z" />
    <glyph glyph-name="K" unicode="K" horiz-adv-x="782" 
d="M787 0h-304l-174 263h-10v-263h-250v700h250v-252h11l176 252h295v-2l-251 -333l257 -363v-2z" />
    <glyph glyph-name="L" unicode="L" horiz-adv-x="583" 
d="M559 0h-510v700h250v-477h260v-223z" />
    <glyph glyph-name="M" unicode="M" horiz-adv-x="1022" 
d="M49 700h329l135 -266l133 266h327v-700h-242v388l-214 -397h-12l-216 397v-388h-240v700z" />
    <glyph glyph-name="N" unicode="N" horiz-adv-x="822" 
d="M523 700h250v-700h-205l-272 311l3 -311h-250v700h247l230 -264z" />
    <glyph glyph-name="O" unicode="O" horiz-adv-x="816" 
d="M407 -14q-166 0 -274 103.5t-108 259.5q0 155 109.5 260t274.5 105t273.5 -104t108.5 -259q0 -156 -109 -260.5t-275 -104.5zM407 491q-56 0 -91.5 -39.5t-35.5 -100.5t36 -101.5t93 -40.5q56 0 91.5 39.5t35.5 100.5t-36.5 101.5t-92.5 40.5z" />
    <glyph glyph-name="P" unicode="P" horiz-adv-x="662" 
d="M651 445q0 -121 -82.5 -190.5t-225.5 -69.5h-44v-185h-250v700h278q157 0 240.5 -65.5t83.5 -189.5zM410 437q0 33 -22.5 50.5t-66.5 17.5h-26v-137h26q44 0 66.5 17.5t22.5 51.5z" />
    <glyph glyph-name="Q" unicode="Q" horiz-adv-x="816" 
d="M781 47l-62 -174q-25 -10 -63 -16.5t-76 -6.5q-91 0 -149 35.5t-105 118.5q-136 23 -218.5 117.5t-82.5 226.5q0 156 109 261t275 105q164 0 273 -100.5t109 -249.5q0 -104 -52 -185.5t-145 -123.5q14 -17 33 -25t48 -8q26 0 52 7t51 21zM536 349q0 61 -36.5 101.5
t-92.5 40.5t-91.5 -39.5t-35.5 -100.5t36 -101.5t93 -40.5q56 0 91.5 39.5t35.5 100.5z" />
    <glyph glyph-name="R" unicode="R" horiz-adv-x="715" 
d="M740 0h-290l-151 211v-211h-250v700h301q155 0 232 -57.5t77 -173.5q0 -65 -30 -118t-86 -86zM414 446q0 32 -21.5 49t-61.5 17h-36v-135h36q40 0 61.5 18t21.5 51z" />
    <glyph glyph-name="S" unicode="S" horiz-adv-x="597" 
d="M246 254q-122 36 -171.5 88.5t-49.5 137.5q0 105 77.5 168.5t208.5 63.5q63 0 121.5 -13t105.5 -36v-211h-2q-49 27 -114.5 46.5t-110.5 19.5q-21 0 -31 -5.5t-10 -16.5q0 -12 17.5 -21.5t66.5 -23.5q127 -36 176.5 -88.5t49.5 -140.5q0 -109 -77.5 -171.5t-212.5 -62.5
q-67 0 -131.5 17t-111.5 47l-23 225l3 2q62 -41 136 -69t123 -28q25 0 37 6t12 19t-17 22t-72 25z" />
    <glyph glyph-name="T" unicode="T" horiz-adv-x="742" 
d="M713 700v-223h-217v-477h-250v477h-217v223h684z" />
    <glyph glyph-name="U" unicode="U" horiz-adv-x="782" 
d="M390 -14q-170 0 -258 86.5t-88 253.5v374h250v-380q0 -54 25.5 -83.5t73.5 -29.5t73.5 29.5t25.5 83.5v380h246v-374q0 -166 -89 -253t-259 -87z" />
    <glyph glyph-name="V" unicode="V" horiz-adv-x="828" 
d="M566 700h262l-285 -703h-258l-285 703h274l146 -401z" />
    <glyph glyph-name="W" unicode="W" horiz-adv-x="1123" 
d="M846 700h259l-198 -705h-231l-114 228l-115 -228h-231l-198 705h266l88 -365l187 374h13l186 -374z" />
    <glyph glyph-name="X" unicode="X" horiz-adv-x="798" 
d="M805 0h-296l-112 165l-108 -165h-291l250 352l-246 348h296l103 -153l99 153h291l-241 -339z" />
    <glyph glyph-name="Y" unicode="Y" horiz-adv-x="758" 
d="M491 700h272l-259 -447v-253h-250v253l-259 447h286l105 -212z" />
    <glyph glyph-name="Z" unicode="Z" horiz-adv-x="738" 
d="M413 213h302l-53 -213h-653l-4 12l302 475h-263v213h667l4 -12z" />
    <glyph glyph-name="bracketleft" unicode="[" horiz-adv-x="456" 
d="M417 -130h-358v870h358l18 -123h-160v-624h160z" />
    <glyph glyph-name="backslash" unicode="\" horiz-adv-x="516" 
d="M175 740l351 -870h-160l-351 870h160z" />
    <glyph glyph-name="bracketright" unicode="]" horiz-adv-x="456" 
d="M39 740h358v-870h-358l-18 123h160v624h-160z" />
    <glyph glyph-name="asciicircum" unicode="^" horiz-adv-x="600" 
d="M591 335h-209l-86 166l-84 -166h-203l209 374h164z" />
    <glyph glyph-name="underscore" unicode="_" horiz-adv-x="680" 
d="M-4 -193v126h688v-126h-688z" />
    <glyph glyph-name="grave" unicode="`" horiz-adv-x="500" 
d="M226 791l90 -206h-113l-236 204v2h259z" />
    <glyph glyph-name="a" unicode="a" horiz-adv-x="588" 
d="M557 13l-221 -18v61q-42 -34 -82 -50t-85 -16q-69 0 -110 38.5t-41 103.5q0 82 77 123.5t229 42.5q-5 33 -27.5 48.5t-63.5 15.5q-38 0 -82.5 -14.5t-86.5 -40.5l-4 4l26 182q46 22 96 32.5t108 10.5q133 0 200 -64.5t67 -191.5v-267zM219 162q0 -17 12.5 -26t34.5 -9
q14 0 29 2.5t31 6.5v77q-57 -5 -82 -16.5t-25 -34.5z" />
    <glyph glyph-name="b" unicode="b" horiz-adv-x="652" 
d="M415 535q95 0 155.5 -72.5t60.5 -189.5q0 -123 -81.5 -201t-208.5 -78q-38 0 -77 7.5t-78 21.5l-129 -28h-14v712l234 48v-276q29 29 63 42.5t75 13.5zM411 266q0 39 -23.5 61t-64.5 22q-11 0 -22.5 -1.5t-23.5 -4.5v-158q10 -3 20 -4t20 -1q43 0 68.5 23t25.5 63z" />
    <glyph glyph-name="c" unicode="c" horiz-adv-x="504" 
d="M475 230l-20 -203q-34 -19 -76 -28.5t-90 -9.5q-121 0 -195.5 75t-74.5 201q0 120 79 196t205 76q46 0 88.5 -10.5t78.5 -30.5v-200l-2 -1q-34 17 -70.5 27t-65.5 10q-41 0 -62.5 -18t-21.5 -52q0 -32 21.5 -50t59.5 -18q36 0 75.5 10.5t67.5 27.5z" />
    <glyph glyph-name="d" unicode="d" horiz-adv-x="657" 
d="M614 0h-224v72q-35 -42 -74 -62t-87 -20q-90 0 -149 73.5t-59 185.5q0 123 66.5 203.5t170.5 80.5q32 0 62.5 -10t59.5 -30v214l234 48v-755zM320 346q-36 0 -57.5 -23t-21.5 -62t20.5 -61t57.5 -22q14 0 29 3t32 10v141q-17 7 -31 10.5t-29 3.5z" />
    <glyph glyph-name="e" unicode="e" horiz-adv-x="583" 
d="M557 186l-51 -162q-50 -19 -94 -26.5t-100 -7.5q-132 0 -212.5 76t-80.5 201q0 117 79 195t199 78q125 0 195 -75.5t70 -204.5q0 -6 -1 -18.5t-2 -24.5h-321q14 -31 46.5 -47t80.5 -16t91.5 8t97.5 27zM298 393q-24 0 -40 -18t-20 -50h118q-3 31 -18.5 49.5t-39.5 18.5z
" />
    <glyph glyph-name="f" unicode="f" horiz-adv-x="477" 
d="M461 526v-173h-142v-353h-232v353h-73v173h73v9q0 105 58 162.5t163 57.5q42 0 74.5 -4.5t72.5 -17.5l19 -157l-3 -2q-25 8 -44.5 11.5t-40.5 3.5q-35 0 -55 -15.5t-20 -43.5v-4h150z" />
    <glyph glyph-name="g" unicode="g" horiz-adv-x="657" 
d="M614 531v-416q0 -143 -86 -224.5t-236 -81.5q-60 0 -111 11t-100 34l-31 186l3 2q68 -33 110 -44t92 -11q65 0 97.5 25t32.5 76v18q-33 -27 -68.5 -40t-78.5 -13q-95 0 -156 63.5t-61 163.5q0 115 77.5 183.5t202.5 68.5q39 0 80.5 -7t90.5 -21l128 27h14zM320 349
q-36 0 -57.5 -18.5t-21.5 -48.5q0 -32 21.5 -50t57.5 -18q16 0 31.5 3t33.5 9v113q-15 5 -31 7.5t-34 2.5z" />
    <glyph glyph-name="h" unicode="h" horiz-adv-x="654" 
d="M329 337q-14 0 -26 -2t-26 -6v-329h-234v707l234 48v-309q38 49 79 71t94 22q78 0 122 -52t44 -146v-341h-234v276q0 31 -13 46t-40 15z" />
    <glyph glyph-name="i" unicode="i" horiz-adv-x="324" 
d="M162 797q58 0 95 -33.5t37 -86.5q0 -52 -37.5 -86t-94.5 -34t-94.5 34t-37.5 86q0 53 37 86.5t95 33.5zM279 0h-234v526h234v-526z" />
    <glyph glyph-name="j" unicode="j" horiz-adv-x="326" 
d="M164 797q58 0 95 -33.5t37 -86.5q0 -52 -37.5 -86t-94.5 -34t-94.5 34t-37.5 86q0 53 37 86.5t95 33.5zM47 526h234v-474q0 -118 -62.5 -180.5t-178.5 -62.5q-25 0 -45.5 1.5t-36.5 5.5l-33 144l3 2q11 -2 19 -3t15 -1q42 0 63.5 19.5t21.5 57.5v491z" />
    <glyph glyph-name="k" unicode="k" horiz-adv-x="639" 
d="M647 0h-266l-94 197h-10v-197h-234v707l234 48v-425h10l99 196h252v-2l-141 -249l150 -273v-2z" />
    <glyph glyph-name="l" unicode="l" horiz-adv-x="324" 
d="M279 0h-234v707l234 48v-755z" />
    <glyph glyph-name="m" unicode="m" horiz-adv-x="979" 
d="M322 337q-11 0 -22 -1.5t-23 -4.5v-331h-234v513l224 18v-88q39 50 80.5 73t95.5 23q52 0 90 -24t58 -70q39 49 81.5 71.5t97.5 22.5q81 0 126 -52t45 -146v-341h-234v276q0 31 -13 46t-40 15q-11 0 -22 -1.5t-23 -4.5v-331h-234v276q0 31 -13 46t-40 15z" />
    <glyph glyph-name="n" unicode="n" horiz-adv-x="654" 
d="M329 337q-14 0 -26 -2t-26 -6v-329h-234v513l224 18v-98q40 56 83.5 81t99.5 25q78 0 122 -52t44 -146v-341h-234v276q0 31 -13 46t-40 15z" />
    <glyph glyph-name="o" unicode="o" horiz-adv-x="626" 
d="M313 -14q-128 0 -211 80t-83 197t83 197t211 80t211 -80t83 -197t-83 -197t-211 -80zM387 263q0 36 -21 59t-53 23t-53 -23t-21 -59t21 -59t53 -23t53 23t21 59z" />
    <glyph glyph-name="p" unicode="p" horiz-adv-x="657" 
d="M636 277q0 -123 -66.5 -203.5t-170.5 -80.5q-32 0 -62.5 10t-59.5 30v-217h-234v697l224 18v-77q35 42 74 62t87 20q90 0 149 -73.5t59 -185.5zM416 265q0 39 -20.5 61t-57.5 22q-14 0 -29 -3t-32 -10v-141q17 -7 31 -10.5t29 -3.5q36 0 57.5 23t21.5 62z" />
    <glyph glyph-name="q" unicode="q" horiz-adv-x="652" 
d="M595 531h14v-715h-234v231q-29 -29 -63 -42.5t-75 -13.5q-95 0 -155.5 72.5t-60.5 189.5q0 123 81.5 201t208.5 78q38 0 77 -7.5t78 -21.5zM335 346q-43 0 -68.5 -23t-25.5 -63q0 -39 23.5 -61t64.5 -22q11 0 22.5 1.5t23.5 4.5v158q-10 3 -20 4t-20 1z" />
    <glyph glyph-name="r" unicode="r" horiz-adv-x="488" 
d="M424 290q-38 0 -75 -6t-72 -18v-266h-234v513l224 18v-147q46 79 84 114.5t79 35.5q8 0 15 -1t18 -3l13 -243q-11 2 -23 2.5t-29 0.5z" />
    <glyph glyph-name="s" unicode="s" horiz-adv-x="514" 
d="M309 343q107 -31 148 -71t41 -106q0 -81 -65.5 -129t-179.5 -48q-58 0 -109.5 12t-102.5 38l-21 170l3 2q63 -34 123.5 -52.5t110.5 -18.5q15 0 22 3t7 10q0 8 -15.5 15t-63.5 22q-106 32 -146 72.5t-40 103.5q0 78 64.5 124.5t176.5 46.5q58 0 106 -10t96 -33v-168h-3
q-47 28 -101 45t-96 17q-15 0 -23 -3.5t-8 -9.5t8.5 -10.5t67.5 -21.5z" />
    <glyph glyph-name="t" unicode="t" horiz-adv-x="500" 
d="M474 207l-28 -180q-34 -18 -74.5 -27.5t-86.5 -9.5q-103 0 -152 56t-49 173v134h-68v173h68v108l232 40v-148h153v-173h-153v-108q0 -31 18 -47.5t51 -16.5q21 0 40.5 6t45.5 22z" />
    <glyph glyph-name="u" unicode="u" horiz-adv-x="654" 
d="M611 0h-224v93q-40 -56 -83.5 -81t-99.5 -25q-78 0 -122 52t-44 146v341h234v-276q0 -31 13 -46t40 -15q14 0 26 2t26 6v329h234v-526z" />
    <glyph glyph-name="v" unicode="v" horiz-adv-x="677" 
d="M428 526h250l-226 -535h-226l-226 535h255l87 -258z" />
    <glyph glyph-name="w" unicode="w" horiz-adv-x="895" 
d="M653 526h240l-165 -531h-193l-87 161l-88 -161h-193l-165 531h245l61 -235l137 243h11l136 -243z" />
    <glyph glyph-name="x" unicode="x" horiz-adv-x="664" 
d="M664 0h-257l-79 127l-77 -127h-249l180 270l-173 256h258l70 -117l69 117h247l-170 -260z" />
    <glyph glyph-name="y" unicode="y" horiz-adv-x="652" 
d="M652 526l-165 -457q-48 -134 -123 -197t-187 -63q-24 0 -47 3t-45 10l-45 201l3 2q19 -8 39 -12t43 -4q28 0 48 5t35 16l-208 496h251l85 -245l70 245h246z" />
    <glyph glyph-name="z" unicode="z" horiz-adv-x="575" 
d="M355 173h207l-42 -173h-506l-4 10l204 343h-169v173h509l4 -10z" />
    <glyph glyph-name="braceleft" unicode="{" horiz-adv-x="577" 
d="M421 -7h135l-18 -123h-200q-96 0 -150 36t-54 99q0 20 7 44t28 71q16 34 20.5 48t4.5 24q0 21 -15.5 33.5t-54.5 20.5l-102 23v72l102 23q39 8 54.5 20.5t15.5 33.5q0 10 -4.5 24t-20.5 48q-21 47 -28 71t-7 44q0 63 54 99t150 36h200l18 -123h-135q-28 0 -42 -9.5
t-14 -28.5q0 -7 3 -18.5t14 -38.5q17 -42 22.5 -64.5t5.5 -40.5q0 -40 -30 -67.5t-93 -44.5q63 -17 93 -44.5t30 -67.5q0 -18 -5.5 -40.5t-22.5 -64.5q-11 -27 -14 -38.5t-3 -18.5q0 -19 14 -28.5t42 -9.5z" />
    <glyph glyph-name="bar" unicode="|" horiz-adv-x="398" 
d="M273 740v-870h-148v870h148z" />
    <glyph glyph-name="braceright" unicode="}" horiz-adv-x="577" 
d="M408 120q21 -47 28 -71t7 -44q0 -63 -54 -99t-150 -36h-200l-18 123h135q28 0 42 9.5t14 28.5q0 7 -3 18.5t-14 38.5q-17 42 -22.5 64.5t-5.5 40.5q0 40 30 67.5t93 44.5q-63 17 -93 44.5t-30 67.5q0 18 5.5 40.5t22.5 64.5q11 27 14 38.5t3 18.5q0 19 -14 28.5t-42 9.5
h-135l18 123h200q96 0 150 -36t54 -99q0 -20 -7 -44t-28 -71q-16 -34 -20.5 -48t-4.5 -24q0 -21 15.5 -33.5t54.5 -20.5l102 -23v-72l-102 -23q-39 -8 -54.5 -20.5t-15.5 -33.5q0 -10 4.5 -24t20.5 -48z" />
    <glyph glyph-name="asciitilde" unicode="~" horiz-adv-x="600" 
d="M187 501q21 0 50.5 -12t89.5 -49q41 -25 56.5 -32t24.5 -7q16 0 31 18.5t48 82.5l100 -48q-60 -158 -93.5 -204.5t-80.5 -46.5q-21 0 -50.5 12.5t-89.5 49.5q-41 24 -56.5 31.5t-24.5 7.5q-16 0 -31 -18.5t-48 -82.5l-100 47q60 158 93.5 204.5t80.5 46.5z" />
    <glyph glyph-name="uni00A0" unicode="&#xa0;" horiz-adv-x="224" 
 />
    <glyph glyph-name="exclamdown" unicode="&#xa1;" horiz-adv-x="324" 
d="M161 711q51 0 87 -36t36 -87t-36 -87t-87 -36t-87 36t-36 87t36 87t87 36zM16 0v23l92 398h106l94 -398v-23h-292z" />
    <glyph glyph-name="cent" unicode="&#xa2;" horiz-adv-x="508" 
d="M474 316l-19 -200q-28 -16 -56 -24t-60 -11l-9 -83h-168l11 106q-72 32 -111.5 95.5t-39.5 146.5q0 96 53.5 165.5t146.5 93.5l11 97h168l-10 -92q18 -4 36 -10.5t44 -19.5v-193l-2 -1q-39 18 -64 24t-58 6q-43 0 -67.5 -18.5t-24.5 -50.5q0 -31 23.5 -49t63.5 -18
q42 0 70 8.5t59 29.5z" />
    <glyph glyph-name="sterling" unicode="&#xa3;" horiz-adv-x="624" 
d="M340 193l276 8l-56 -201h-509l-11 141q56 47 72.5 65.5t24.5 37.5l-95 -12v127l83 6q-41 63 -52.5 92.5t-11.5 62.5q0 81 78 135.5t205 54.5q67 0 124 -11.5t118 -37.5l15 -211h-3q-59 30 -109.5 44.5t-92.5 14.5q-30 0 -45.5 -11.5t-15.5 -32.5q0 -12 6 -24.5t33 -48.5
l175 18v-127l-154 -9q-7 -21 -21.5 -42t-33.5 -39z" />
    <glyph glyph-name="yen" unicode="&#xa5;" horiz-adv-x="731" 
d="M669 231v-121h-184v-110h-239v110h-184v121h184v23l-4 7h-180v121h115l-171 318h286l79 -195l79 195h275l-171 -318h115v-121h-180l-4 -7v-23h184z" />
    <glyph glyph-name="section" unicode="&#xa7;" horiz-adv-x="758" 
d="M611 111q18 -23 27 -50.5t9 -58.5q0 -86 -74.5 -140.5t-195.5 -54.5q-65 0 -121 10.5t-115 35.5l-23 204l3 2q69 -33 131.5 -50.5t107.5 -17.5q22 0 33.5 6t11.5 17q0 12 -27.5 23t-103.5 29q-128 30 -188 76t-60 112q0 50 30.5 89t90.5 65q-18 23 -27 50.5t-9 58.5
q0 86 74.5 140.5t195.5 54.5q67 0 125.5 -11.5t119.5 -38.5v-196h-3q-68 31 -124.5 46.5t-100.5 15.5q-22 0 -33.5 -6t-11.5 -17q0 -12 27.5 -23t103.5 -29q128 -30 188 -76t60 -112q0 -50 -30.5 -89t-90.5 -65zM244 296q0 -23 31.5 -39t124.5 -40q33 -9 55 -15.5t40 -13.5
q10 7 14.5 15.5t4.5 19.5q0 23 -31.5 39t-124.5 40q-33 9 -55 15.5t-40 13.5q-10 -7 -14.5 -15.5t-4.5 -19.5z" />
    <glyph glyph-name="dieresis" unicode="&#xa8;" horiz-adv-x="500" 
d="M122 577q-49 0 -81.5 31t-32.5 78t32.5 78t81.5 31t81.5 -31t32.5 -78t-32.5 -78t-81.5 -31zM378 577q-49 0 -81.5 31t-32.5 78t32.5 78t81.5 31t81.5 -31t32.5 -78t-32.5 -78t-81.5 -31z" />
    <glyph glyph-name="copyright" unicode="&#xa9;" horiz-adv-x="890" 
d="M160 68q-57 55 -87.5 128t-30.5 153t31 153t88 129q57 55 131 85t154 30q81 0 154 -29.5t130 -84.5t87.5 -128t30.5 -153t-31 -153t-88 -129q-57 -55 -131 -85t-154 -30q-81 0 -154 29.5t-130 84.5zM444 714q-154 0 -261.5 -105.5t-107.5 -257.5q0 -153 108.5 -259
t262.5 -106t261.5 105.5t107.5 257.5q0 153 -108.5 259t-262.5 106zM494 261q38 0 74 12t67 34l3 -2l-18 -156q-33 -17 -71.5 -26t-76.5 -9q-116 0 -187.5 64.5t-71.5 169.5q0 106 72 171.5t192 65.5q42 0 80.5 -11t72.5 -33v-158l-2 -1q-32 26 -67.5 40t-68.5 14
q-46 0 -71.5 -23t-25.5 -63q0 -41 26.5 -65t72.5 -24z" />
    <glyph glyph-name="ordfeminine" unicode="&#xaa;" horiz-adv-x="534" 
d="M455 336h-171v37q-30 -22 -60.5 -32.5t-63.5 -10.5q-49 0 -80 27.5t-31 70.5q0 60 53.5 87t172.5 28q-4 23 -19 33.5t-43 10.5q-27 0 -59.5 -8t-65.5 -23l-4 4l19 126q37 14 75 20.5t81 6.5q97 0 146.5 -45.5t49.5 -136.5v-195zM202 453q0 -13 10 -19.5t30 -6.5
q9 0 17.5 1t17.5 3v53q-39 -1 -57 -8.5t-18 -22.5zM49 173v116h416v-116h-416z" />
    <glyph glyph-name="guillemotleft" unicode="&#xab;" horiz-adv-x="729" 
d="M317 539l74 -52l-123 -223l123 -225l-74 -52l-305 257v38zM637 539l74 -52l-123 -223l123 -225l-74 -52l-305 257v38z" />
    <glyph glyph-name="registered" unicode="&#xae;" horiz-adv-x="584" 
d="M553 472q0 -107 -76 -182t-185 -75t-185 74t-76 181t76 182t185 75t185 -74t76 -181zM523 471q0 97 -67 162.5t-165 65.5q-97 0 -163.5 -66t-66.5 -162q0 -97 67 -162.5t165 -65.5q97 0 163.5 66t66.5 162zM464 332h-129l-56 86h-4v-86h-113v294h130q72 0 109.5 -26.5
t37.5 -76.5q0 -28 -12.5 -49.5t-36.5 -35.5zM287 547h-14v-64h13q18 0 28 8.5t10 23.5t-9.5 23.5t-27.5 8.5z" />
    <glyph glyph-name="macron" unicode="&#xaf;" horiz-adv-x="500" 
d="M33 601v132h434v-132h-434z" />
    <glyph glyph-name="degree" unicode="&#xb0;" horiz-adv-x="544" 
d="M20 489q0 99 71 162t181 63t181 -63t71 -162q0 -100 -70.5 -162t-181.5 -62t-181.5 62t-70.5 162zM197 491q0 -37 21 -59.5t55 -22.5q33 0 52 22t19 60t-19.5 61t-52.5 23q-34 0 -54.5 -23t-20.5 -61z" />
    <glyph glyph-name="plusminus" unicode="&#xb1;" horiz-adv-x="600" 
d="M552 547v-180h-156v-153h-192v153h-156v180h156v153h192v-153h156zM559 155v-155h-518v155h518z" />
    <glyph glyph-name="two.sup" unicode="&#xb2;" horiz-adv-x="385" 
d="M234 519l137 2l-34 -126h-311l-8 90l143 138q17 17 24 28.5t7 21.5q0 11 -6.5 17t-19.5 6q-25 0 -57.5 -18t-73.5 -54l-3 1l-7 145q38 31 80.5 45t92.5 14q72 0 113 -36t41 -95q0 -37 -17 -68.5t-56 -68.5z" />
    <glyph glyph-name="three.sup" unicode="&#xb3;" horiz-adv-x="370" 
d="M267 615q44 -15 65.5 -41t21.5 -63q0 -55 -47.5 -89t-122.5 -34q-44 0 -81 9t-71 27l-14 128l3 1q30 -20 70 -34t69 -14q19 0 28 5.5t9 16.5q0 14 -25.5 26.5t-95.5 35.5v38q80 33 98 43t18 22q0 9 -9 14.5t-26 5.5q-28 0 -60.5 -11.5t-67.5 -34.5h-3v118q31 20 74.5 32
t88.5 12q73 0 117.5 -30.5t44.5 -81.5q0 -34 -21 -59t-63 -42z" />
    <glyph glyph-name="acute" unicode="&#xb4;" horiz-adv-x="500" 
d="M297 585h-113l90 206h259v-2z" />
    <glyph glyph-name="uni00B5" unicode="&#xb5;" horiz-adv-x="659" 
d="M235 49l23 -190v-43h-215v710h234v-281q0 -31 13 -46t40 -15q14 0 26 2t26 6v334h234v-526h-155l-29 52q-23 -29 -45 -42t-50 -13q-29 0 -51.5 12t-50.5 40z" />
    <glyph glyph-name="paragraph" unicode="&#xb6;" horiz-adv-x="792" 
d="M15 422q0 130 99 204t274 74h339v-700h-190v507h-59v-507h-122v178h-35q-143 0 -224.5 64.5t-81.5 179.5zM224 402q0 -52 35.5 -81.5t96.5 -29.5v216q-61 -3 -96.5 -31t-35.5 -74z" />
    <glyph glyph-name="periodcentered" unicode="&#xb7;" horiz-adv-x="304" 
d="M152 155q-53 0 -90.5 37.5t-37.5 90.5t37.5 90.5t90.5 37.5q54 0 91 -37.5t37 -90.5t-37 -90.5t-91 -37.5z" />
    <glyph glyph-name="cedilla" unicode="&#xb8;" horiz-adv-x="500" 
d="M418 -133q0 -47 -53.5 -76.5t-144.5 -29.5q-34 0 -64 3.5t-60 11.5l-26 75l4 4q38 -9 65 -12.5t56 -3.5t44 7.5t15 22.5q0 14 -16.5 21t-50.5 7q-13 0 -28.5 -0.5t-35.5 -2.5l-4 4l85 112h119l-45 -54q70 -5 105 -27.5t35 -61.5z" />
    <glyph glyph-name="one.sup" unicode="&#xb9;" horiz-adv-x="306" 
d="M22 563l-2 1v150l242 120l8 -4v-435h-160v213z" />
    <glyph glyph-name="ordmasculine" unicode="&#xba;" horiz-adv-x="525" 
d="M32 524q0 82 65.5 135t165.5 53q101 0 165.5 -52.5t64.5 -135.5q0 -84 -64 -135t-168 -51q-101 0 -165 51.5t-64 134.5zM326 525q0 32 -16 49t-47 17q-32 0 -49 -17t-17 -49q0 -31 18 -48.5t49 -17.5q28 0 45 18t17 48zM54 173v116h416v-116h-416z" />
    <glyph glyph-name="guillemotright" unicode="&#xbb;" horiz-adv-x="729" 
d="M412 -13l-74 52l123 223l-123 225l74 52l305 -257v-38zM92 -13l-74 52l123 223l-123 225l74 52l305 -257v-38z" />
    <glyph glyph-name="onequarter" unicode="&#xbc;" horiz-adv-x="890" 
d="M22 441l-2 1v150l242 120l8 -4v-435h-160v213zM455 335l-220 -337h-90l254 367l220 337h90zM668 70h-204l-5 39l168 318h192v-253h62v-104h-62v-70h-151v70zM671 303l-58 -129h58v129z" />
    <glyph glyph-name="onehalf" unicode="&#xbd;" horiz-adv-x="903" 
d="M22 441l-2 1v150l242 120l8 -4v-435h-160v213zM455 335l-220 -337h-90l254 367l220 337h90zM752 124l137 2l-34 -126h-311l-8 90l143 138q17 17 24 28.5t7 21.5q0 11 -6.5 17t-19.5 6q-25 0 -57.5 -18t-73.5 -54l-3 1l-7 145q38 31 80.5 45t92.5 14q72 0 113 -36t41 -95
q0 -37 -17 -68.5t-56 -68.5z" />
    <glyph glyph-name="threequarters" unicode="&#xbe;" horiz-adv-x="918" 
d="M267 493q44 -15 65.5 -41t21.5 -63q0 -55 -47.5 -89t-122.5 -34q-44 0 -81 9t-71 27l-14 128l3 1q30 -20 70 -34t69 -14q19 0 28 5.5t9 16.5q0 14 -25.5 26.5t-95.5 35.5v38q80 33 98 43t18 22q0 9 -9 14.5t-26 5.5q-28 0 -60.5 -11.5t-67.5 -34.5h-3v118q31 20 74.5 32
t88.5 12q73 0 117.5 -30.5t44.5 -81.5q0 -34 -21 -59t-63 -42zM483 335l-220 -337h-90l254 367l220 337h90zM696 70h-204l-5 39l168 318h192v-253h62v-104h-62v-70h-151v70zM699 303l-58 -129h58v129z" />
    <glyph glyph-name="questiondown" unicode="&#xbf;" horiz-adv-x="514" 
d="M284 710q51 0 87 -36t36 -87t-36 -87t-87 -36t-87 36t-36 87t36 87t87 36zM489 266v-211q-59 -35 -115 -50.5t-123 -15.5q-107 0 -171.5 50t-64.5 132q0 59 24.5 94.5t105.5 77.5q43 22 58.5 35.5t15.5 29.5v12h120q27 -18 40.5 -39.5t13.5 -47.5q0 -33 -27.5 -60.5
t-90.5 -55.5q-25 -11 -32.5 -15.5t-7.5 -9.5t8 -7.5t26 -2.5q47 0 102.5 21.5t115.5 62.5h2z" />
    <glyph glyph-name="Agrave" unicode="&#xc0;" horiz-adv-x="846" 
d="M258 0h-258l280 700h286l280 -700h-266l-33 93h-256zM419 466l-68 -185h136zM407 937l87 -181h-129l-229 179v2h271z" />
    <glyph glyph-name="Aacute" unicode="&#xc1;" horiz-adv-x="846" 
d="M258 0h-258l280 700h286l280 -700h-266l-33 93h-256zM419 466l-68 -185h136zM481 756h-129l87 181h271v-2z" />
    <glyph glyph-name="Acircumflex" unicode="&#xc2;" horiz-adv-x="846" 
d="M258 0h-258l280 700h286l280 -700h-266l-33 93h-256zM419 466l-68 -185h136zM666 752h-134l-110 62l-110 -62h-132v2l138 179h210l138 -179v-2z" />
    <glyph glyph-name="Atilde" unicode="&#xc3;" horiz-adv-x="846" 
d="M258 0h-258l280 700h286l280 -700h-266l-33 93h-256zM419 466l-68 -185h136zM451 922q30 -14 43.5 -18t23.5 -4q17 0 31.5 8.5t52.5 41.5l79 -64q-61 -81 -96 -110t-80 -29q-15 0 -34 5.5t-56 21.5q-30 14 -43.5 18t-23.5 4q-17 0 -31.5 -8.5t-52.5 -41.5l-79 64
q61 81 96 110t80 29q15 0 34 -5.5t56 -21.5z" />
    <glyph glyph-name="Adieresis" unicode="&#xc4;" horiz-adv-x="846" 
d="M258 0h-258l280 700h286l280 -700h-266l-33 93h-256zM419 466l-68 -185h136zM294 967q49 0 81.5 -31t32.5 -78t-32.5 -78t-81.5 -31t-81.5 31t-32.5 78t32.5 78t81.5 31zM552 967q49 0 81.5 -31t32.5 -78t-32.5 -78t-81.5 -31t-81.5 31t-32.5 78t32.5 78t81.5 31z" />
    <glyph glyph-name="Aring" unicode="&#xc5;" horiz-adv-x="846" 
d="M846 0h-266l-33 93h-256l-33 -93h-258l276 690q-4 12 -6 23.5t-2 22.5q0 59 44.5 100t109.5 41t109.5 -41t44.5 -100q0 -12 -2 -23t-5 -20zM499 736q0 30 -22 50t-55 20t-55 -20t-22 -50t22 -50t55 -20t55 20t22 50zM419 466l-68 -185h136z" />
    <glyph glyph-name="AE" unicode="&#xc6;" horiz-adv-x="1088" 
d="M245 0h-253l375 700h667l25 -205h-295v-60h242v-169h-242v-61h298l-25 -205h-518v93h-224zM519 506l-122 -225h122v225z" />
    <glyph glyph-name="Ccedilla" unicode="&#xc7;" horiz-adv-x="675" 
d="M549 -138q0 -47 -53.5 -76.5t-144.5 -29.5q-34 0 -64 3.5t-60 11.5l-26 75l4 4q38 -9 65 -12.5t56 -3.5t44 7.5t15 22.5q0 14 -16.5 21t-50.5 7q-13 0 -28.5 -0.5t-35.5 -2.5l-4 4l76 100q-135 20 -218 117.5t-83 238.5q0 155 104 258.5t265 103.5q66 0 125.5 -18
t104.5 -52v-245l-3 -1q-42 41 -93 64.5t-98 23.5q-67 0 -107 -36.5t-40 -96.5q0 -63 40 -98.5t111 -35.5q52 0 103 20t96 58l4 -2l-29 -247q-37 -23 -77.5 -35.5t-87.5 -17.5l-34 -41q70 -5 105 -27.5t35 -61.5z" />
    <glyph glyph-name="Egrave" unicode="&#xc8;" horiz-adv-x="618" 
d="M567 0h-518v700h515l25 -205h-295v-60h242v-169h-242v-61h298zM305 937l87 -181h-129l-229 179v2h271z" />
    <glyph glyph-name="Eacute" unicode="&#xc9;" horiz-adv-x="618" 
d="M567 0h-518v700h515l25 -205h-295v-60h242v-169h-242v-61h298zM379 756h-129l87 181h271v-2z" />
    <glyph glyph-name="Ecircumflex" unicode="&#xca;" horiz-adv-x="618" 
d="M567 0h-518v700h515l25 -205h-295v-60h242v-169h-242v-61h298zM564 756h-134l-110 62l-110 -62h-132v2l138 179h210l138 -179v-2z" />
    <glyph glyph-name="Edieresis" unicode="&#xcb;" horiz-adv-x="618" 
d="M567 0h-518v700h515l25 -205h-295v-60h242v-169h-242v-61h298zM192 967q49 0 81.5 -31t32.5 -78t-32.5 -78t-81.5 -31t-81.5 31t-32.5 78t32.5 78t81.5 31zM450 967q49 0 81.5 -31t32.5 -78t-32.5 -78t-81.5 -31t-81.5 31t-32.5 78t32.5 78t81.5 31z" />
    <glyph glyph-name="Igrave" unicode="&#xcc;" horiz-adv-x="352" 
d="M301 0h-250v700h250v-700zM160 937l87 -181h-129l-229 179v2h271z" />
    <glyph glyph-name="Iacute" unicode="&#xcd;" horiz-adv-x="352" 
d="M301 0h-250v700h250v-700zM234 756h-129l87 181h271v-2z" />
    <glyph glyph-name="Icircumflex" unicode="&#xce;" horiz-adv-x="352" 
d="M301 0h-250v700h250v-700zM419 752h-134l-110 62l-110 -62h-132v2l138 179h210l138 -179v-2z" />
    <glyph glyph-name="Idieresis" unicode="&#xcf;" horiz-adv-x="352" 
d="M301 0h-250v700h250v-700zM47 967q49 0 81.5 -31t32.5 -78t-32.5 -78t-81.5 -31t-81.5 31t-32.5 78t32.5 78t81.5 31zM305 967q49 0 81.5 -31t32.5 -78t-32.5 -78t-81.5 -31t-81.5 31t-32.5 78t32.5 78t81.5 31z" />
    <glyph glyph-name="Eth" unicode="&#xd0;" horiz-adv-x="802" 
d="M12 266v170h67v264h282q201 0 308.5 -90.5t107.5 -258.5q0 -165 -109 -258t-307 -93h-282v266h-67zM420 426v-150h-94v-63h33q80 0 121.5 35t41.5 101q0 68 -41.5 103t-121.5 35h-33v-61h94z" />
    <glyph glyph-name="Ntilde" unicode="&#xd1;" horiz-adv-x="822" 
d="M523 700h250v-700h-205l-272 311l3 -311h-250v700h247l230 -264zM439 922q30 -14 43.5 -18t23.5 -4q17 0 31.5 8.5t52.5 41.5l79 -64q-61 -81 -96 -110t-80 -29q-15 0 -34 5.5t-56 21.5q-30 14 -43.5 18t-23.5 4q-17 0 -31.5 -8.5t-52.5 -41.5l-79 64q61 81 96 110t80 29
q15 0 34 -5.5t56 -21.5z" />
    <glyph glyph-name="Ograve" unicode="&#xd2;" horiz-adv-x="816" 
d="M407 -14q-166 0 -274 103.5t-108 259.5q0 155 109.5 260t274.5 105t273.5 -104t108.5 -259q0 -156 -109 -260.5t-275 -104.5zM407 491q-56 0 -91.5 -39.5t-35.5 -100.5t36 -101.5t93 -40.5q56 0 91.5 39.5t35.5 100.5t-36.5 101.5t-92.5 40.5zM392 942l87 -181h-129
l-229 179v2h271z" />
    <glyph glyph-name="Oacute" unicode="&#xd3;" horiz-adv-x="816" 
d="M407 -14q-166 0 -274 103.5t-108 259.5q0 155 109.5 260t274.5 105t273.5 -104t108.5 -259q0 -156 -109 -260.5t-275 -104.5zM407 491q-56 0 -91.5 -39.5t-35.5 -100.5t36 -101.5t93 -40.5q56 0 91.5 39.5t35.5 100.5t-36.5 101.5t-92.5 40.5zM466 761h-129l87 181h271
v-2z" />
    <glyph glyph-name="Ocircumflex" unicode="&#xd4;" horiz-adv-x="816" 
d="M407 -14q-166 0 -274 103.5t-108 259.5q0 155 109.5 260t274.5 105t273.5 -104t108.5 -259q0 -156 -109 -260.5t-275 -104.5zM407 491q-56 0 -91.5 -39.5t-35.5 -100.5t36 -101.5t93 -40.5q56 0 91.5 39.5t35.5 100.5t-36.5 101.5t-92.5 40.5zM651 756h-134l-110 62
l-110 -62h-132v2l138 179h210l138 -179v-2z" />
    <glyph glyph-name="Otilde" unicode="&#xd5;" horiz-adv-x="816" 
d="M407 -14q-166 0 -274 103.5t-108 259.5q0 155 109.5 260t274.5 105t273.5 -104t108.5 -259q0 -156 -109 -260.5t-275 -104.5zM407 491q-56 0 -91.5 -39.5t-35.5 -100.5t36 -101.5t93 -40.5q56 0 91.5 39.5t35.5 100.5t-36.5 101.5t-92.5 40.5zM436 927q30 -14 43.5 -18
t23.5 -4q17 0 31.5 8.5t52.5 41.5l79 -64q-61 -81 -96 -110t-80 -29q-15 0 -34 5.5t-56 21.5q-30 14 -43.5 18t-23.5 4q-17 0 -31.5 -8.5t-52.5 -41.5l-79 64q61 81 96 110t80 29q15 0 34 -5.5t56 -21.5z" />
    <glyph glyph-name="Odieresis" unicode="&#xd6;" horiz-adv-x="816" 
d="M407 -14q-166 0 -274 103.5t-108 259.5q0 155 109.5 260t274.5 105t273.5 -104t108.5 -259q0 -156 -109 -260.5t-275 -104.5zM407 491q-56 0 -91.5 -39.5t-35.5 -100.5t36 -101.5t93 -40.5q56 0 91.5 39.5t35.5 100.5t-36.5 101.5t-92.5 40.5zM279 972q49 0 81.5 -31
t32.5 -78t-32.5 -78t-81.5 -31t-81.5 31t-32.5 78t32.5 78t81.5 31zM537 972q49 0 81.5 -31t32.5 -78t-32.5 -78t-81.5 -31t-81.5 31t-32.5 78t32.5 78t81.5 31z" />
    <glyph glyph-name="multiply" unicode="&#xd7;" horiz-adv-x="600" 
d="M432 355l143 -143l-138 -137l-139 144l-140 -144l-133 133l143 143l-143 143l138 137l139 -144l140 144l133 -133z" />
    <glyph glyph-name="Oslash" unicode="&#xd8;" horiz-adv-x="816" 
d="M791 351q0 -156 -109 -260.5t-275 -104.5q-47 0 -90.5 9t-83.5 27l-53 -65h-174l114 146q-46 48 -70.5 111.5t-24.5 134.5q0 155 109.5 260t274.5 105q46 0 89.5 -9t83.5 -27l54 65h174l-114 -147q46 -49 70.5 -112t24.5 -133zM410 499q-61 0 -99.5 -42.5t-38.5 -108.5
q0 -14 2 -28.5t6 -27.5l156 205q-9 1 -15 1.5t-11 0.5zM406 201q61 0 99.5 42.5t38.5 108.5q0 14 -2 28t-6 27l-156 -204q9 -1 15 -1.5t11 -0.5z" />
    <glyph glyph-name="Ugrave" unicode="&#xd9;" horiz-adv-x="782" 
d="M390 -14q-170 0 -258 86.5t-88 253.5v374h250v-380q0 -54 25.5 -83.5t73.5 -29.5t73.5 29.5t25.5 83.5v380h246v-374q0 -166 -89 -253t-259 -87zM375 932l87 -181h-129l-229 179v2h271z" />
    <glyph glyph-name="Uacute" unicode="&#xda;" horiz-adv-x="782" 
d="M390 -14q-170 0 -258 86.5t-88 253.5v374h250v-380q0 -54 25.5 -83.5t73.5 -29.5t73.5 29.5t25.5 83.5v380h246v-374q0 -166 -89 -253t-259 -87zM449 751h-129l87 181h271v-2z" />
    <glyph glyph-name="Ucircumflex" unicode="&#xdb;" horiz-adv-x="782" 
d="M390 -14q-170 0 -258 86.5t-88 253.5v374h250v-380q0 -54 25.5 -83.5t73.5 -29.5t73.5 29.5t25.5 83.5v380h246v-374q0 -166 -89 -253t-259 -87zM634 756h-134l-110 62l-110 -62h-132v2l138 179h210l138 -179v-2z" />
    <glyph glyph-name="Udieresis" unicode="&#xdc;" horiz-adv-x="782" 
d="M390 -14q-170 0 -258 86.5t-88 253.5v374h250v-380q0 -54 25.5 -83.5t73.5 -29.5t73.5 29.5t25.5 83.5v380h246v-374q0 -166 -89 -253t-259 -87zM262 967q49 0 81.5 -31t32.5 -78t-32.5 -78t-81.5 -31t-81.5 31t-32.5 78t32.5 78t81.5 31zM520 967q49 0 81.5 -31
t32.5 -78t-32.5 -78t-81.5 -31t-81.5 31t-32.5 78t32.5 78t81.5 31z" />
    <glyph glyph-name="Yacute" unicode="&#xdd;" horiz-adv-x="758" 
d="M491 700h272l-259 -447v-253h-250v253l-259 447h286l105 -212zM437 751h-129l87 181h271v-2z" />
    <glyph glyph-name="Thorn" unicode="&#xde;" horiz-adv-x="671" 
d="M656 355q0 -117 -83 -184.5t-225 -67.5h-49v-103h-250v700h250v-93h49q145 0 226.5 -66.5t81.5 -185.5zM415 355q0 34 -22.5 51.5t-66.5 17.5h-31v-138h31q44 0 66.5 17.5t22.5 51.5z" />
    <glyph glyph-name="germandbls" unicode="&#xdf;" horiz-adv-x="754" 
d="M581 395q81 -40 115.5 -87t34.5 -115q0 -90 -64 -145t-170 -55q-33 0 -60.5 4t-55.5 12l-20 176l3 2q20 -10 40 -15t40 -5q24 0 39 14t15 37q0 32 -29.5 58.5t-96.5 54.5l-10 45q38 37 58 72.5t20 65.5q0 29 -14.5 44.5t-42.5 15.5q-29 0 -46.5 -21t-17.5 -56v-497h-232
v353h-73v173h75q11 110 88.5 169.5t211.5 59.5q126 0 201 -55t75 -147q0 -48 -20.5 -87t-63.5 -71z" />
    <glyph glyph-name="agrave" unicode="&#xe0;" horiz-adv-x="588" 
d="M557 13l-221 -18v61q-42 -34 -82 -50t-85 -16q-69 0 -110 38.5t-41 103.5q0 82 77 123.5t229 42.5q-5 33 -27.5 48.5t-63.5 15.5q-38 0 -82.5 -14.5t-86.5 -40.5l-4 4l26 182q46 22 96 32.5t108 10.5q133 0 200 -64.5t67 -191.5v-267zM219 162q0 -17 12.5 -26t34.5 -9
q14 0 29 2.5t31 6.5v77q-57 -5 -82 -16.5t-25 -34.5zM287 791l90 -206h-113l-236 204v2h259z" />
    <glyph glyph-name="aacute" unicode="&#xe1;" horiz-adv-x="588" 
d="M557 13l-221 -18v61q-42 -34 -82 -50t-85 -16q-69 0 -110 38.5t-41 103.5q0 82 77 123.5t229 42.5q-5 33 -27.5 48.5t-63.5 15.5q-38 0 -82.5 -14.5t-86.5 -40.5l-4 4l26 182q46 22 96 32.5t108 10.5q133 0 200 -64.5t67 -191.5v-267zM219 162q0 -17 12.5 -26t34.5 -9
q14 0 29 2.5t31 6.5v77q-57 -5 -82 -16.5t-25 -34.5zM358 585h-113l90 206h259v-2z" />
    <glyph glyph-name="acircumflex" unicode="&#xe2;" horiz-adv-x="588" 
d="M557 13l-221 -18v61q-42 -34 -82 -50t-85 -16q-69 0 -110 38.5t-41 103.5q0 82 77 123.5t229 42.5q-5 33 -27.5 48.5t-63.5 15.5q-38 0 -82.5 -14.5t-86.5 -40.5l-4 4l26 182q46 22 96 32.5t108 10.5q133 0 200 -64.5t67 -191.5v-267zM219 162q0 -17 12.5 -26t34.5 -9
q14 0 29 2.5t31 6.5v77q-57 -5 -82 -16.5t-25 -34.5zM544 585h-124l-109 72l-111 -72h-122v2l137 204h192l137 -204v-2z" />
    <glyph glyph-name="atilde" unicode="&#xe3;" horiz-adv-x="588" 
d="M557 13l-221 -18v61q-42 -34 -82 -50t-85 -16q-69 0 -110 38.5t-41 103.5q0 82 77 123.5t229 42.5q-5 33 -27.5 48.5t-63.5 15.5q-38 0 -82.5 -14.5t-86.5 -40.5l-4 4l26 182q46 22 96 32.5t108 10.5q133 0 200 -64.5t67 -191.5v-267zM219 162q0 -17 12.5 -26t34.5 -9
q14 0 29 2.5t31 6.5v77q-57 -5 -82 -16.5t-25 -34.5zM315 762q34 -17 48 -22t23 -5q14 0 26.5 9t48.5 50l88 -58q-49 -91 -82.5 -125.5t-76.5 -34.5q-12 0 -29 6t-54 24q-34 17 -48 22t-23 5q-14 0 -26.5 -9t-48.5 -50l-88 58q49 91 82.5 125.5t76.5 34.5q12 0 29 -6t54 -24
z" />
    <glyph glyph-name="adieresis" unicode="&#xe4;" horiz-adv-x="588" 
d="M557 13l-221 -18v61q-42 -34 -82 -50t-85 -16q-69 0 -110 38.5t-41 103.5q0 82 77 123.5t229 42.5q-5 33 -27.5 48.5t-63.5 15.5q-38 0 -82.5 -14.5t-86.5 -40.5l-4 4l26 182q46 22 96 32.5t108 10.5q133 0 200 -64.5t67 -191.5v-267zM219 162q0 -17 12.5 -26t34.5 -9
q14 0 29 2.5t31 6.5v77q-57 -5 -82 -16.5t-25 -34.5zM183 577q-49 0 -81.5 31t-32.5 78t32.5 78t81.5 31t81.5 -31t32.5 -78t-32.5 -78t-81.5 -31zM439 577q-49 0 -81.5 31t-32.5 78t32.5 78t81.5 31t81.5 -31t32.5 -78t-32.5 -78t-81.5 -31z" />
    <glyph glyph-name="aring" unicode="&#xe5;" horiz-adv-x="588" 
d="M557 13l-221 -18v61q-42 -34 -82 -50t-85 -16q-69 0 -110 38.5t-41 103.5q0 82 77 123.5t229 42.5q-5 33 -27.5 48.5t-63.5 15.5q-38 0 -82.5 -14.5t-86.5 -40.5l-4 4l26 182q46 22 96 32.5t108 10.5q133 0 200 -64.5t67 -191.5v-267zM219 162q0 -17 12.5 -26t34.5 -9
q14 0 29 2.5t31 6.5v77q-57 -5 -82 -16.5t-25 -34.5zM311 571q-60 0 -102 41t-42 100t42 100t102 41t102 -41t42 -100t-42 -100t-102 -41zM378 712q0 30 -19 50t-48 20t-48 -20t-19 -50t19 -50t48 -20t48 20t19 50z" />
    <glyph glyph-name="ae" unicode="&#xe6;" horiz-adv-x="893" 
d="M867 186l-51 -162q-50 -19 -94 -26.5t-100 -7.5q-66 0 -121.5 20.5t-95.5 59.5q-60 -42 -116 -61t-120 -19q-69 0 -110 38.5t-41 103.5q0 82 76.5 123.5t229.5 42.5q-5 33 -27.5 48.5t-63.5 15.5q-38 0 -82.5 -14.5t-86.5 -40.5l-4 4l26 182q44 21 93.5 32t103.5 11
q51 0 93 -12.5t73 -37.5q34 26 76.5 40t89.5 14q121 0 189 -75.5t68 -204.5q0 -6 -1 -18.5t-2 -24.5h-329q16 -30 51 -46.5t84 -16.5q48 0 91.5 8t97.5 27zM608 393q-24 0 -40 -18t-20 -50h118q-3 31 -18.5 49.5t-39.5 18.5zM334 213q-61 -4 -88 -15.5t-27 -35.5
q0 -17 12.5 -26t34.5 -9q18 0 40 6t46 18q-6 14 -10.5 29.5t-7.5 32.5z" />
    <glyph glyph-name="ccedilla" unicode="&#xe7;" horiz-adv-x="504" 
d="M445 -138q0 -47 -53.5 -76.5t-144.5 -29.5q-34 0 -64 3.5t-60 11.5l-26 75l4 4q38 -9 65 -12.5t56 -3.5t44 7.5t15 22.5q0 14 -16.5 21t-50.5 7q-13 0 -28.5 -0.5t-35.5 -2.5l-4 4l78 103q-96 20 -150.5 91t-54.5 178q0 120 79 196t205 76q46 0 88.5 -10.5t78.5 -30.5
v-200l-2 -1q-34 17 -70.5 27t-65.5 10q-41 0 -62.5 -18t-21.5 -52q0 -32 21.5 -50t59.5 -18q36 0 75.5 10.5t67.5 27.5l3 -2l-20 -203q-24 -14 -53.5 -22.5t-62.5 -12.5l-34 -41q70 -5 105 -27.5t35 -61.5z" />
    <glyph glyph-name="egrave" unicode="&#xe8;" horiz-adv-x="583" 
d="M557 186l-51 -162q-50 -19 -94 -26.5t-100 -7.5q-132 0 -212.5 76t-80.5 201q0 117 79 195t199 78q125 0 195 -75.5t70 -204.5q0 -6 -1 -18.5t-2 -24.5h-321q14 -31 46.5 -47t80.5 -16t91.5 8t97.5 27zM298 393q-24 0 -40 -18t-20 -50h118q-3 31 -18.5 49.5t-39.5 18.5z
M281 796l90 -206h-113l-236 204v2h259z" />
    <glyph glyph-name="eacute" unicode="&#xe9;" horiz-adv-x="583" 
d="M557 186l-51 -162q-50 -19 -94 -26.5t-100 -7.5q-132 0 -212.5 76t-80.5 201q0 117 79 195t199 78q125 0 195 -75.5t70 -204.5q0 -6 -1 -18.5t-2 -24.5h-321q14 -31 46.5 -47t80.5 -16t91.5 8t97.5 27zM298 393q-24 0 -40 -18t-20 -50h118q-3 31 -18.5 49.5t-39.5 18.5z
M352 590h-113l90 206h259v-2z" />
    <glyph glyph-name="ecircumflex" unicode="&#xea;" horiz-adv-x="583" 
d="M557 186l-51 -162q-50 -19 -94 -26.5t-100 -7.5q-132 0 -212.5 76t-80.5 201q0 117 79 195t199 78q125 0 195 -75.5t70 -204.5q0 -6 -1 -18.5t-2 -24.5h-321q14 -31 46.5 -47t80.5 -16t91.5 8t97.5 27zM298 393q-24 0 -40 -18t-20 -50h118q-3 31 -18.5 49.5t-39.5 18.5z
M538 580h-124l-109 72l-111 -72h-122v2l137 204h192l137 -204v-2z" />
    <glyph glyph-name="edieresis" unicode="&#xeb;" horiz-adv-x="583" 
d="M557 186l-51 -162q-50 -19 -94 -26.5t-100 -7.5q-132 0 -212.5 76t-80.5 201q0 117 79 195t199 78q125 0 195 -75.5t70 -204.5q0 -6 -1 -18.5t-2 -24.5h-321q14 -31 46.5 -47t80.5 -16t91.5 8t97.5 27zM298 393q-24 0 -40 -18t-20 -50h118q-3 31 -18.5 49.5t-39.5 18.5z
M177 582q-49 0 -81.5 31t-32.5 78t32.5 78t81.5 31t81.5 -31t32.5 -78t-32.5 -78t-81.5 -31zM433 582q-49 0 -81.5 31t-32.5 78t32.5 78t81.5 31t81.5 -31t32.5 -78t-32.5 -78t-81.5 -31z" />
    <glyph glyph-name="igrave" unicode="&#xec;" horiz-adv-x="324" 
d="M279 0h-234v526h234v-526zM138 791l90 -206h-113l-236 204v2h259z" />
    <glyph glyph-name="iacute" unicode="&#xed;" horiz-adv-x="324" 
d="M279 0h-234v526h234v-526zM209 585h-113l90 206h259v-2z" />
    <glyph glyph-name="icircumflex" unicode="&#xee;" horiz-adv-x="324" 
d="M279 0h-234v526h234v-526zM395 577h-124l-109 72l-111 -72h-122v2l137 204h192l137 -204v-2z" />
    <glyph glyph-name="idieresis" unicode="&#xef;" horiz-adv-x="324" 
d="M279 0h-234v526h234v-526zM34 577q-49 0 -81.5 31t-32.5 78t32.5 78t81.5 31t81.5 -31t32.5 -78t-32.5 -78t-81.5 -31zM290 577q-49 0 -81.5 31t-32.5 78t32.5 78t81.5 31t81.5 -31t32.5 -78t-32.5 -78t-81.5 -31z" />
    <glyph glyph-name="eth" unicode="&#xf0;" horiz-adv-x="626" 
d="M598 293q0 -69 -21 -127t-59 -96q-43 -43 -96 -63.5t-121 -20.5q-118 0 -196 76.5t-78 188.5q0 105 69 173t171 68q26 0 49.5 -4t44.5 -13q-14 23 -34 44t-46 42l-78 -49l-50 67l57 34q-15 11 -33.5 22.5t-43.5 27.5l158 92q38 -24 50 -32.5t22 -15.5l75 48l50 -67
l-59 -35q85 -77 127 -166.5t42 -193.5zM378 253q0 32 -18.5 52t-47.5 20t-47.5 -20t-18.5 -52t18.5 -52t47.5 -20t47.5 20t18.5 52z" />
    <glyph glyph-name="ntilde" unicode="&#xf1;" horiz-adv-x="654" 
d="M329 337q-14 0 -26 -2t-26 -6v-329h-234v513l224 18v-98q40 56 83.5 81t99.5 25q78 0 122 -52t44 -146v-341h-234v276q0 31 -13 46t-40 15zM334 762q34 -17 48 -22t23 -5q14 0 26.5 9t48.5 50l88 -58q-49 -91 -82.5 -125.5t-76.5 -34.5q-12 0 -29 6t-54 24q-34 17 -48 22
t-23 5q-14 0 -26.5 -9t-48.5 -50l-88 58q49 91 82.5 125.5t76.5 34.5q12 0 29 -6t54 -24z" />
    <glyph glyph-name="ograve" unicode="&#xf2;" horiz-adv-x="626" 
d="M313 -14q-128 0 -211 80t-83 197t83 197t211 80t211 -80t83 -197t-83 -197t-211 -80zM387 263q0 36 -21 59t-53 23t-53 -23t-21 -59t21 -59t53 -23t53 23t21 59zM289 796l90 -206h-113l-236 204v2h259z" />
    <glyph glyph-name="oacute" unicode="&#xf3;" horiz-adv-x="626" 
d="M313 -14q-128 0 -211 80t-83 197t83 197t211 80t211 -80t83 -197t-83 -197t-211 -80zM387 263q0 36 -21 59t-53 23t-53 -23t-21 -59t21 -59t53 -23t53 23t21 59zM360 590h-113l90 206h259v-2z" />
    <glyph glyph-name="ocircumflex" unicode="&#xf4;" horiz-adv-x="626" 
d="M313 -14q-128 0 -211 80t-83 197t83 197t211 80t211 -80t83 -197t-83 -197t-211 -80zM387 263q0 36 -21 59t-53 23t-53 -23t-21 -59t21 -59t53 -23t53 23t21 59zM546 580h-124l-109 72l-111 -72h-122v2l137 204h192l137 -204v-2z" />
    <glyph glyph-name="otilde" unicode="&#xf5;" horiz-adv-x="626" 
d="M313 -14q-128 0 -211 80t-83 197t83 197t211 80t211 -80t83 -197t-83 -197t-211 -80zM387 263q0 36 -21 59t-53 23t-53 -23t-21 -59t21 -59t53 -23t53 23t21 59zM317 767q34 -17 48 -22t23 -5q14 0 26.5 9t48.5 50l88 -58q-49 -91 -82.5 -125.5t-76.5 -34.5q-12 0 -29 6
t-54 24q-34 17 -48 22t-23 5q-14 0 -26.5 -9t-48.5 -50l-88 58q49 91 82.5 125.5t76.5 34.5q12 0 29 -6t54 -24z" />
    <glyph glyph-name="odieresis" unicode="&#xf6;" horiz-adv-x="626" 
d="M313 -14q-128 0 -211 80t-83 197t83 197t211 80t211 -80t83 -197t-83 -197t-211 -80zM387 263q0 36 -21 59t-53 23t-53 -23t-21 -59t21 -59t53 -23t53 23t21 59zM185 582q-49 0 -81.5 31t-32.5 78t32.5 78t81.5 31t81.5 -31t32.5 -78t-32.5 -78t-81.5 -31zM441 582
q-49 0 -81.5 31t-32.5 78t32.5 78t81.5 31t81.5 -31t32.5 -78t-32.5 -78t-81.5 -31z" />
    <glyph glyph-name="divide" unicode="&#xf7;" horiz-adv-x="600" 
d="M300 463q-45 0 -77 32t-32 77t32 77t77 32q46 0 77.5 -32t31.5 -77t-31.5 -77t-77.5 -32zM572 438v-172l-272 11l-272 -11v172l272 -11zM300 23q-45 0 -77 32t-32 77t32 77t77 32q46 0 77.5 -32t31.5 -77t-31.5 -77t-77.5 -32z" />
    <glyph glyph-name="oslash" unicode="&#xf8;" horiz-adv-x="626" 
d="M607 263q0 -117 -83 -197t-211 -80q-36 0 -70.5 7.5t-66.5 21.5l-38 -48h-138l90 111q-34 37 -52.5 85t-18.5 100q0 117 83 197t211 80q36 0 70.5 -7.5t66.5 -21.5l38 48h138l-90 -111q34 -37 52.5 -85t18.5 -100zM314 351q-37 0 -61 -25t-24 -65q0 -8 1.5 -16t3.5 -15
l96 119q-9 2 -11.5 2h-4.5zM312 175q37 0 61 25t24 65q0 8 -1.5 16t-3.5 15l-96 -119q9 -2 11.5 -2h4.5z" />
    <glyph glyph-name="ugrave" unicode="&#xf9;" horiz-adv-x="654" 
d="M611 0h-224v93q-40 -56 -83.5 -81t-99.5 -25q-78 0 -122 52t-44 146v341h234v-276q0 -31 13 -46t40 -15q14 0 26 2t26 6v329h234v-526zM301 791l90 -206h-113l-236 204v2h259z" />
    <glyph glyph-name="uacute" unicode="&#xfa;" horiz-adv-x="654" 
d="M611 0h-224v93q-40 -56 -83.5 -81t-99.5 -25q-78 0 -122 52t-44 146v341h234v-276q0 -31 13 -46t40 -15q14 0 26 2t26 6v329h234v-526zM372 585h-113l90 206h259v-2z" />
    <glyph glyph-name="ucircumflex" unicode="&#xfb;" horiz-adv-x="654" 
d="M611 0h-224v93q-40 -56 -83.5 -81t-99.5 -25q-78 0 -122 52t-44 146v341h234v-276q0 -31 13 -46t40 -15q14 0 26 2t26 6v329h234v-526zM558 585h-124l-109 72l-111 -72h-122v2l137 204h192l137 -204v-2z" />
    <glyph glyph-name="udieresis" unicode="&#xfc;" horiz-adv-x="654" 
d="M611 0h-224v93q-40 -56 -83.5 -81t-99.5 -25q-78 0 -122 52t-44 146v341h234v-276q0 -31 13 -46t40 -15q14 0 26 2t26 6v329h234v-526zM197 577q-49 0 -81.5 31t-32.5 78t32.5 78t81.5 31t81.5 -31t32.5 -78t-32.5 -78t-81.5 -31zM453 577q-49 0 -81.5 31t-32.5 78
t32.5 78t81.5 31t81.5 -31t32.5 -78t-32.5 -78t-81.5 -31z" />
    <glyph glyph-name="yacute" unicode="&#xfd;" horiz-adv-x="652" 
d="M652 526l-165 -457q-48 -134 -123 -197t-187 -63q-24 0 -47 3t-45 10l-45 201l3 2q19 -8 39 -12t43 -4q28 0 48 5t35 16l-208 496h251l85 -245l70 245h246zM383 580h-113l90 206h259v-2z" />
    <glyph glyph-name="thorn" unicode="&#xfe;" horiz-adv-x="657" 
d="M636 277q0 -125 -68 -204.5t-178 -79.5q-29 0 -57.5 9.5t-55.5 28.5v-215h-234v891l234 48v-290q33 37 69.5 54t81.5 17q90 0 149 -73.5t59 -185.5zM416 265q0 39 -20.5 61t-57.5 22q-14 0 -29 -3t-32 -10v-141q17 -7 31 -10.5t29 -3.5q36 0 57.5 23t21.5 62z" />
    <glyph glyph-name="ydieresis" unicode="&#xff;" horiz-adv-x="652" 
d="M652 526l-165 -457q-48 -134 -123 -197t-187 -63q-24 0 -47 3t-45 10l-45 201l3 2q19 -8 39 -12t43 -4q28 0 48 5t35 16l-208 496h251l85 -245l70 245h246zM208 577q-49 0 -81.5 31t-32.5 78t32.5 78t81.5 31t81.5 -31t32.5 -78t-32.5 -78t-81.5 -31zM464 577
q-49 0 -81.5 31t-32.5 78t32.5 78t81.5 31t81.5 -31t32.5 -78t-32.5 -78t-81.5 -31z" />
    <glyph glyph-name="Amacron" unicode="&#x100;" horiz-adv-x="846" 
d="M258 0h-258l280 700h286l280 -700h-266l-33 93h-256zM419 466l-68 -185h136zM194 772v142h458v-142h-458z" />
    <glyph glyph-name="amacron" unicode="&#x101;" horiz-adv-x="588" 
d="M557 13l-221 -18v61q-42 -34 -82 -50t-85 -16q-69 0 -110 38.5t-41 103.5q0 82 77 123.5t229 42.5q-5 33 -27.5 48.5t-63.5 15.5q-38 0 -82.5 -14.5t-86.5 -40.5l-4 4l26 182q46 22 96 32.5t108 10.5q133 0 200 -64.5t67 -191.5v-267zM219 162q0 -17 12.5 -26t34.5 -9
q14 0 29 2.5t31 6.5v77q-57 -5 -82 -16.5t-25 -34.5zM94 601v132h434v-132h-434z" />
    <glyph glyph-name="Abreve" unicode="&#x102;" horiz-adv-x="846" 
d="M258 0h-258l280 700h286l280 -700h-266l-33 93h-256zM419 466l-68 -185h136zM423 746q-76 0 -137.5 34t-105.5 99l75 76q47 -35 85 -49t83 -14q44 0 82 14t86 49l75 -75q-45 -67 -106.5 -100.5t-136.5 -33.5z" />
    <glyph glyph-name="abreve" unicode="&#x103;" horiz-adv-x="588" 
d="M557 13l-221 -18v61q-42 -34 -82 -50t-85 -16q-69 0 -110 38.5t-41 103.5q0 82 77 123.5t229 42.5q-5 33 -27.5 48.5t-63.5 15.5q-38 0 -82.5 -14.5t-86.5 -40.5l-4 4l26 182q46 22 96 32.5t108 10.5q133 0 200 -64.5t67 -191.5v-267zM219 162q0 -17 12.5 -26t34.5 -9
q14 0 29 2.5t31 6.5v77q-57 -5 -82 -16.5t-25 -34.5zM311 575q-66 0 -120 33t-111 113l80 78q39 -40 74 -57.5t77 -17.5q41 0 76.5 17.5t74.5 57.5l80 -77q-58 -80 -111.5 -113.5t-119.5 -33.5z" />
    <glyph glyph-name="Aogonek" unicode="&#x104;" horiz-adv-x="846" 
d="M258 0h-258l280 700h286l280 -700h-54l-25 -39q-11 -16 -16 -28t-5 -22q0 -23 22.5 -32.5t71.5 -9.5h2l-23 -68q-32 -6 -58.5 -8.5t-50.5 -2.5q-70 0 -111 23t-41 62q0 24 15.5 46t61.5 57l29 22h-84l-33 93h-256zM419 466l-68 -185h136z" />
    <glyph glyph-name="aogonek" unicode="&#x105;" horiz-adv-x="588" 
d="M564 -120l-23 -68q-32 -6 -58.5 -8.5t-50.5 -2.5q-70 0 -111 23t-41 62q0 24 15.5 46t61.5 57l11 9l-32 -3v61q-42 -34 -82 -50t-85 -16q-69 0 -110 38.5t-41 103.5q0 82 77 123.5t229 42.5q-5 33 -27.5 48.5t-63.5 15.5q-38 0 -82.5 -14.5t-86.5 -40.5l-4 4l26 182
q46 22 96 32.5t108 10.5q133 0 200 -64.5t67 -191.5v-267l-44 -4l-24 -37q-11 -16 -16 -28t-5 -22q0 -23 22.5 -32.5t71.5 -9.5h2zM219 162q0 -17 12.5 -26t34.5 -9q14 0 29 2.5t31 6.5v77q-57 -5 -82 -16.5t-25 -34.5z" />
    <glyph glyph-name="Cacute" unicode="&#x106;" horiz-adv-x="675" 
d="M387 -11q-157 0 -259.5 101t-102.5 259q0 155 104 258.5t265 103.5q66 0 125.5 -18t104.5 -52v-245l-3 -1q-42 41 -93 64.5t-98 23.5q-67 0 -107 -36.5t-40 -96.5q0 -63 40 -98.5t111 -35.5q52 0 103 20t96 58l4 -2l-29 -247q-49 -29 -102.5 -42.5t-118.5 -13.5zM439 761
h-129l87 181h271v-2z" />
    <glyph glyph-name="cacute" unicode="&#x107;" horiz-adv-x="504" 
d="M475 230l-20 -203q-34 -19 -76 -28.5t-90 -9.5q-121 0 -195.5 75t-74.5 201q0 120 79 196t205 76q46 0 88.5 -10.5t78.5 -30.5v-200l-2 -1q-34 17 -70.5 27t-65.5 10q-41 0 -62.5 -18t-21.5 -52q0 -32 21.5 -50t59.5 -18q36 0 75.5 10.5t67.5 27.5zM330 590h-113l90 206
h259v-2z" />
    <glyph glyph-name="Ccircumflex" unicode="&#x108;" horiz-adv-x="675" 
d="M387 -11q-157 0 -259.5 101t-102.5 259q0 155 104 258.5t265 103.5q66 0 125.5 -18t104.5 -52v-245l-3 -1q-42 41 -93 64.5t-98 23.5q-67 0 -107 -36.5t-40 -96.5q0 -63 40 -98.5t111 -35.5q52 0 103 20t96 58l4 -2l-29 -247q-49 -29 -102.5 -42.5t-118.5 -13.5zM624 756
h-134l-110 62l-110 -62h-132v2l138 179h210l138 -179v-2z" />
    <glyph glyph-name="ccircumflex" unicode="&#x109;" horiz-adv-x="504" 
d="M475 230l-20 -203q-34 -19 -76 -28.5t-90 -9.5q-121 0 -195.5 75t-74.5 201q0 120 79 196t205 76q46 0 88.5 -10.5t78.5 -30.5v-200l-2 -1q-34 17 -70.5 27t-65.5 10q-41 0 -62.5 -18t-21.5 -52q0 -32 21.5 -50t59.5 -18q36 0 75.5 10.5t67.5 27.5zM517 585h-124l-109 72
l-111 -72h-122v2l137 204h192l137 -204v-2z" />
    <glyph glyph-name="Cdotaccent" unicode="&#x10a;" horiz-adv-x="675" 
d="M387 -11q-157 0 -259.5 101t-102.5 259q0 155 104 258.5t265 103.5q66 0 125.5 -18t104.5 -52v-245l-3 -1q-42 41 -93 64.5t-98 23.5q-67 0 -107 -36.5t-40 -96.5q0 -63 40 -98.5t111 -35.5q52 0 103 20t96 58l4 -2l-29 -247q-49 -29 -102.5 -42.5t-118.5 -13.5zM381 969
q49 0 81.5 -31t32.5 -78t-32.5 -78t-81.5 -31t-81.5 31t-32.5 78t32.5 78t81.5 31z" />
    <glyph glyph-name="cdotaccent" unicode="&#x10b;" horiz-adv-x="504" 
d="M475 230l-20 -203q-34 -19 -76 -28.5t-90 -9.5q-121 0 -195.5 75t-74.5 201q0 120 79 196t205 76q46 0 88.5 -10.5t78.5 -30.5v-200l-2 -1q-34 17 -70.5 27t-65.5 10q-41 0 -62.5 -18t-21.5 -52q0 -32 21.5 -50t59.5 -18q36 0 75.5 10.5t67.5 27.5zM283 578
q-47 0 -78.5 29.5t-31.5 75.5t31.5 75.5t78.5 29.5t78.5 -29.5t31.5 -75.5t-31.5 -75.5t-78.5 -29.5z" />
    <glyph glyph-name="Ccaron" unicode="&#x10c;" horiz-adv-x="675" 
d="M387 -11q-157 0 -259.5 101t-102.5 259q0 155 104 258.5t265 103.5q66 0 125.5 -18t104.5 -52v-245l-3 -1q-42 41 -93 64.5t-98 23.5q-67 0 -107 -36.5t-40 -96.5q0 -63 40 -98.5t111 -35.5q52 0 103 20t96 58l4 -2l-29 -247q-49 -29 -102.5 -42.5t-118.5 -13.5zM624 942
v-2l-138 -179h-210l-138 179v2h134l110 -62l110 62h132z" />
    <glyph glyph-name="ccaron" unicode="&#x10d;" horiz-adv-x="504" 
d="M475 230l-20 -203q-34 -19 -76 -28.5t-90 -9.5q-121 0 -195.5 75t-74.5 201q0 120 79 196t205 76q46 0 88.5 -10.5t78.5 -30.5v-200l-2 -1q-34 17 -70.5 27t-65.5 10q-41 0 -62.5 -18t-21.5 -52q0 -32 21.5 -50t59.5 -18q36 0 75.5 10.5t67.5 27.5zM516 796v-2l-137 -204
h-192l-137 204v2h124l109 -72l111 72h122z" />
    <glyph glyph-name="Dcaron" unicode="&#x10e;" horiz-adv-x="772" 
d="M331 0h-282v700h282q201 0 308.5 -90.5t107.5 -258.5q0 -165 -109 -258t-307 -93zM492 349q0 68 -41.5 103t-121.5 35h-30v-274h30q80 0 121.5 35t41.5 101zM617 937v-2l-138 -179h-210l-138 179v2h134l110 -62l110 62h132z" />
    <glyph glyph-name="dcaron" unicode="&#x10f;" horiz-adv-x="657" 
d="M614 0h-224v72q-35 -42 -74 -62t-87 -20q-90 0 -149 73.5t-59 185.5q0 123 66.5 203.5t170.5 80.5q32 0 62.5 -10t59.5 -30v214l234 48v-755zM320 346q-36 0 -57.5 -23t-21.5 -62t20.5 -61t57.5 -22q14 0 29 3t32 10v141q-17 7 -31 10.5t-29 3.5zM726 551h-82q8 21 12 45
t4 51q0 26 -4 50.5t-12 44.5h157q1 -7 2 -15t1 -16q0 -40 -19 -79.5t-59 -80.5z" />
    <glyph glyph-name="Dcroat" unicode="&#x110;" horiz-adv-x="802" 
d="M12 266v170h67v264h282q201 0 308.5 -90.5t107.5 -258.5q0 -165 -109 -258t-307 -93h-282v266h-67zM420 426v-150h-94v-63h33q80 0 121.5 35t41.5 101q0 68 -41.5 103t-121.5 35h-33v-61h94z" />
    <glyph glyph-name="dcroat" unicode="&#x111;" horiz-adv-x="657" 
d="M614 0h-224v71q-34 -42 -73 -61.5t-88 -19.5q-90 0 -149 72t-59 182q0 120 68 196t178 76q29 0 57.5 -9t55.5 -27v74h-99v103h99v50l234 48v-98h49v-103h-49v-554zM320 333q-37 0 -58 -20.5t-21 -56.5q0 -39 20.5 -60.5t57.5 -21.5q14 0 29 3t32 10v135q-17 6 -31 8.5
t-29 2.5z" />
    <glyph glyph-name="Emacron" unicode="&#x112;" horiz-adv-x="618" 
d="M567 0h-518v700h515l25 -205h-295v-60h242v-169h-242v-61h298zM92 772v142h458v-142h-458z" />
    <glyph glyph-name="emacron" unicode="&#x113;" horiz-adv-x="583" 
d="M557 186l-51 -162q-50 -19 -94 -26.5t-100 -7.5q-132 0 -212.5 76t-80.5 201q0 117 79 195t199 78q125 0 195 -75.5t70 -204.5q0 -6 -1 -18.5t-2 -24.5h-321q14 -31 46.5 -47t80.5 -16t91.5 8t97.5 27zM298 393q-24 0 -40 -18t-20 -50h118q-3 31 -18.5 49.5t-39.5 18.5z
M88 606v132h434v-132h-434z" />
    <glyph glyph-name="Ebreve" unicode="&#x114;" horiz-adv-x="618" 
d="M567 0h-518v700h515l25 -205h-295v-60h242v-169h-242v-61h298zM321 746q-76 0 -137.5 34t-105.5 99l75 76q47 -35 85 -49t83 -14q44 0 82 14t86 49l75 -75q-45 -67 -106.5 -100.5t-136.5 -33.5z" />
    <glyph glyph-name="ebreve" unicode="&#x115;" horiz-adv-x="583" 
d="M557 186l-51 -162q-50 -19 -94 -26.5t-100 -7.5q-132 0 -212.5 76t-80.5 201q0 117 79 195t199 78q125 0 195 -75.5t70 -204.5q0 -6 -1 -18.5t-2 -24.5h-321q14 -31 46.5 -47t80.5 -16t91.5 8t97.5 27zM298 393q-24 0 -40 -18t-20 -50h118q-3 31 -18.5 49.5t-39.5 18.5z
M305 580q-66 0 -120 33t-111 113l80 78q39 -40 74 -57.5t77 -17.5q41 0 76.5 17.5t74.5 57.5l80 -77q-58 -80 -111.5 -113.5t-119.5 -33.5z" />
    <glyph glyph-name="Edotaccent" unicode="&#x116;" horiz-adv-x="618" 
d="M567 0h-518v700h515l25 -205h-295v-60h242v-169h-242v-61h298zM321 964q49 0 81.5 -31t32.5 -78t-32.5 -78t-81.5 -31t-81.5 31t-32.5 78t32.5 78t81.5 31z" />
    <glyph glyph-name="edotaccent" unicode="&#x117;" horiz-adv-x="583" 
d="M557 186l-51 -162q-50 -19 -94 -26.5t-100 -7.5q-132 0 -212.5 76t-80.5 201q0 117 79 195t199 78q125 0 195 -75.5t70 -204.5q0 -6 -1 -18.5t-2 -24.5h-321q14 -31 46.5 -47t80.5 -16t91.5 8t97.5 27zM298 393q-24 0 -40 -18t-20 -50h118q-3 31 -18.5 49.5t-39.5 18.5z
M305 578q-47 0 -78.5 29.5t-31.5 75.5t31.5 75.5t78.5 29.5t78.5 -29.5t31.5 -75.5t-31.5 -75.5t-78.5 -29.5z" />
    <glyph glyph-name="Eogonek" unicode="&#x118;" horiz-adv-x="618" 
d="M581 -131l-23 -68q-32 -6 -58.5 -8.5t-50.5 -2.5q-70 0 -111 23t-41 62q0 24 15.5 46t61.5 57l29 22h-354v700h515l25 -205h-295v-60h242v-169h-242v-61h298l-25 -205h-36l-25 -39q-11 -16 -16 -28t-5 -22q0 -23 22.5 -32.5t71.5 -9.5h2z" />
    <glyph glyph-name="eogonek" unicode="&#x119;" horiz-adv-x="583" 
d="M495 -131l-23 -68q-32 -6 -58.5 -8.5t-50.5 -2.5q-68 0 -106 20t-38 55q0 28 22 52t84 61l30 18q-7 -1 -15.5 -1h-27.5q-132 0 -212.5 75t-80.5 200q0 115 79 192.5t199 77.5q125 0 195 -75.5t70 -204.5q0 -6 -1 -18.5t-2 -24.5h-321q14 -31 46.5 -47t80.5 -16t91.5 8
t97.5 27l3 -3l-51 -157l-62 -68q-17 -18 -24 -31.5t-7 -25.5q0 -19 18.5 -27t61.5 -8h2zM298 393q-24 0 -40 -18t-20 -50h118q-3 31 -18.5 49.5t-39.5 18.5z" />
    <glyph glyph-name="Ecaron" unicode="&#x11a;" horiz-adv-x="618" 
d="M567 0h-518v700h515l25 -205h-295v-60h242v-169h-242v-61h298zM564 937v-2l-138 -179h-210l-138 179v2h134l110 -62l110 62h132z" />
    <glyph glyph-name="ecaron" unicode="&#x11b;" horiz-adv-x="583" 
d="M557 186l-51 -162q-50 -19 -94 -26.5t-100 -7.5q-132 0 -212.5 76t-80.5 201q0 117 79 195t199 78q125 0 195 -75.5t70 -204.5q0 -6 -1 -18.5t-2 -24.5h-321q14 -31 46.5 -47t80.5 -16t91.5 8t97.5 27zM298 393q-24 0 -40 -18t-20 -50h118q-3 31 -18.5 49.5t-39.5 18.5z
M538 796v-2l-137 -204h-192l-137 204v2h124l109 -72l111 72h122z" />
    <glyph glyph-name="Gcircumflex" unicode="&#x11c;" horiz-adv-x="746" 
d="M698 409v-357q-79 -31 -153 -46.5t-141 -15.5q-170 0 -274.5 95.5t-104.5 253.5q0 172 113 272t305 100q64 0 122 -11t117 -35v-227h-3q-62 28 -114 40.5t-103 12.5q-83 0 -131 -39.5t-48 -109.5q0 -69 44.5 -107t126.5 -38h16t9 1v64h-101v147h320zM653 756h-134
l-110 62l-110 -62h-132v2l138 179h210l138 -179v-2z" />
    <glyph glyph-name="gcircumflex" unicode="&#x11d;" horiz-adv-x="657" 
d="M614 531v-416q0 -143 -86 -224.5t-236 -81.5q-60 0 -111 11t-100 34l-31 186l3 2q68 -33 110 -44t92 -11q65 0 97.5 25t32.5 76v18q-33 -27 -68.5 -40t-78.5 -13q-95 0 -156 63.5t-61 163.5q0 115 77.5 183.5t202.5 68.5q39 0 80.5 -7t90.5 -21l128 27h14zM320 349
q-36 0 -57.5 -18.5t-21.5 -48.5q0 -32 21.5 -50t57.5 -18q16 0 31.5 3t33.5 9v113q-15 5 -31 7.5t-34 2.5zM569 585h-124l-109 72l-111 -72h-122v2l137 204h192l137 -204v-2z" />
    <glyph glyph-name="Gbreve" unicode="&#x11e;" horiz-adv-x="746" 
d="M698 409v-357q-79 -31 -153 -46.5t-141 -15.5q-170 0 -274.5 95.5t-104.5 253.5q0 172 113 272t305 100q64 0 122 -11t117 -35v-227h-3q-62 28 -114 40.5t-103 12.5q-83 0 -131 -39.5t-48 -109.5q0 -69 44.5 -107t126.5 -38h16t9 1v64h-101v147h320zM410 751
q-76 0 -137.5 34t-105.5 99l75 76q47 -35 85 -49t83 -14q44 0 82 14t86 49l75 -75q-45 -67 -106.5 -100.5t-136.5 -33.5z" />
    <glyph glyph-name="gbreve" unicode="&#x11f;" horiz-adv-x="657" 
d="M614 531v-416q0 -143 -86 -224.5t-236 -81.5q-60 0 -111 11t-100 34l-31 186l3 2q68 -33 110 -44t92 -11q65 0 97.5 25t32.5 76v18q-33 -27 -68.5 -40t-78.5 -13q-95 0 -156 63.5t-61 163.5q0 115 77.5 183.5t202.5 68.5q39 0 80.5 -7t90.5 -21l128 27h14zM320 349
q-36 0 -57.5 -18.5t-21.5 -48.5q0 -32 21.5 -50t57.5 -18q16 0 31.5 3t33.5 9v113q-15 5 -31 7.5t-34 2.5zM336 575q-66 0 -120 33t-111 113l80 78q39 -40 74 -57.5t77 -17.5q41 0 76.5 17.5t74.5 57.5l80 -77q-58 -80 -111.5 -113.5t-119.5 -33.5z" />
    <glyph glyph-name="Gdotaccent" unicode="&#x120;" horiz-adv-x="746" 
d="M698 409v-357q-79 -31 -153 -46.5t-141 -15.5q-170 0 -274.5 95.5t-104.5 253.5q0 172 113 272t305 100q64 0 122 -11t117 -35v-227h-3q-62 28 -114 40.5t-103 12.5q-83 0 -131 -39.5t-48 -109.5q0 -69 44.5 -107t126.5 -38h16t9 1v64h-101v147h320zM410 969
q49 0 81.5 -31t32.5 -78t-32.5 -78t-81.5 -31t-81.5 31t-32.5 78t32.5 78t81.5 31z" />
    <glyph glyph-name="gdotaccent" unicode="&#x121;" horiz-adv-x="657" 
d="M614 531v-416q0 -143 -86 -224.5t-236 -81.5q-60 0 -111 11t-100 34l-31 186l3 2q68 -33 110 -44t92 -11q65 0 97.5 25t32.5 76v18q-33 -27 -68.5 -40t-78.5 -13q-95 0 -156 63.5t-61 163.5q0 115 77.5 183.5t202.5 68.5q39 0 80.5 -7t90.5 -21l128 27h14zM320 349
q-36 0 -57.5 -18.5t-21.5 -48.5q0 -32 21.5 -50t57.5 -18q16 0 31.5 3t33.5 9v113q-15 5 -31 7.5t-34 2.5zM336 573q-47 0 -78.5 29.5t-31.5 75.5t31.5 75.5t78.5 29.5t78.5 -29.5t31.5 -75.5t-31.5 -75.5t-78.5 -29.5z" />
    <glyph glyph-name="uni0122" unicode="&#x122;" horiz-adv-x="746" 
d="M698 409v-357q-79 -31 -153 -46.5t-141 -15.5q-170 0 -274.5 95.5t-104.5 253.5q0 172 113 272t305 100q64 0 122 -11t117 -35v-227h-3q-62 28 -114 40.5t-103 12.5q-83 0 -131 -39.5t-48 -109.5q0 -69 44.5 -107t126.5 -38h16t9 1v64h-101v147h320zM555 -138
q0 -40 -49 -76t-151 -69l-102 41v4q42 21 60.5 36.5t18.5 31.5q0 17 -19.5 31t-63.5 29v6l225 59q43 -20 62 -41.5t19 -51.5z" />
    <glyph glyph-name="uni0123" unicode="&#x123;" horiz-adv-x="657" 
d="M614 531v-416q0 -143 -86 -224.5t-236 -81.5q-60 0 -111 11t-100 34l-31 186l3 2q68 -33 110 -44t92 -11q65 0 97.5 25t32.5 76v18q-33 -27 -68.5 -40t-78.5 -13q-95 0 -156 63.5t-61 163.5q0 115 77.5 183.5t202.5 68.5q39 0 80.5 -7t90.5 -21l128 27h14zM320 349
q-36 0 -57.5 -18.5t-21.5 -48.5q0 -32 21.5 -50t57.5 -18q16 0 31.5 3t33.5 9v113q-15 5 -31 7.5t-34 2.5zM188 668q0 40 49 76t151 69l102 -41v-4q-42 -21 -60.5 -36.5t-18.5 -31.5q0 -17 19.5 -31t63.5 -29v-6l-225 -59q-43 20 -62 41.5t-19 51.5z" />
    <glyph glyph-name="Hcircumflex" unicode="&#x124;" horiz-adv-x="804" 
d="M755 0h-250v238h-206v-238h-250v700h250v-234h206v234h250v-700zM645 756h-134l-110 62l-110 -62h-132v2l138 179h210l138 -179v-2z" />
    <glyph glyph-name="hcircumflex" unicode="&#x125;" horiz-adv-x="654" 
d="M329 337q-14 0 -26 -2t-26 -6v-329h-234v707l234 48v-309q38 49 79 71t94 22q78 0 122 -52t44 -146v-341h-234v276q0 31 -13 46t-40 15zM397 783h-124l-109 72l-111 -72h-122v2l137 204h192l137 -204v-2z" />
    <glyph glyph-name="Hbar" unicode="&#x126;" horiz-adv-x="864" 
d="M785 0h-250v228h-206v-228h-250v509h-69v128h69v63h250v-68h206v68h250v-63h69v-128h-69v-509zM329 514v-74h206v74h-206z" />
    <glyph glyph-name="hbar" unicode="&#x127;" horiz-adv-x="654" 
d="M329 320q-14 0 -26 -2t-26 -6v-312h-234v554h-49v103h49v50l234 48v-98h105v-103h-105v-125q38 49 79 71t94 22q78 0 122 -52t44 -146v-324h-234v259q0 31 -13 46t-40 15z" />
    <glyph glyph-name="Itilde" unicode="&#x128;" horiz-adv-x="352" 
d="M301 0h-250v700h250v-700zM204 922q30 -14 43.5 -18t23.5 -4q17 0 31.5 8.5t52.5 41.5l79 -64q-61 -81 -96 -110t-80 -29q-15 0 -34 5.5t-56 21.5q-30 14 -43.5 18t-23.5 4q-17 0 -31.5 -8.5t-52.5 -41.5l-79 64q61 81 96 110t80 29q15 0 34 -5.5t56 -21.5z" />
    <glyph glyph-name="itilde" unicode="&#x129;" horiz-adv-x="324" 
d="M279 0h-234v526h234v-526zM166 762q34 -17 48 -22t23 -5q14 0 26.5 9t48.5 50l88 -58q-49 -91 -82.5 -125.5t-76.5 -34.5q-12 0 -29 6t-54 24q-34 17 -48 22t-23 5q-14 0 -26.5 -9t-48.5 -50l-88 58q49 91 82.5 125.5t76.5 34.5q12 0 29 -6t54 -24z" />
    <glyph glyph-name="Imacron" unicode="&#x12a;" horiz-adv-x="352" 
d="M301 0h-250v700h250v-700zM-13 772v142h378v-142h-378z" />
    <glyph glyph-name="imacron" unicode="&#x12b;" horiz-adv-x="324" 
d="M279 0h-234v526h234v-526zM-27 601v132h378v-132h-378z" />
    <glyph glyph-name="Ibreve" unicode="&#x12c;" horiz-adv-x="352" 
d="M301 0h-250v700h250v-700zM176 746q-76 0 -137.5 34t-105.5 99l75 76q47 -35 85 -49t83 -14q44 0 82 14t86 49l75 -75q-45 -67 -106.5 -100.5t-136.5 -33.5z" />
    <glyph glyph-name="ibreve" unicode="&#x12d;" horiz-adv-x="324" 
d="M279 0h-234v526h234v-526zM162 575q-66 0 -120 33t-111 113l80 78q39 -40 74 -57.5t77 -17.5q41 0 76.5 17.5t74.5 57.5l80 -77q-58 -80 -111.5 -113.5t-119.5 -33.5z" />
    <glyph glyph-name="Iogonek" unicode="&#x12e;" horiz-adv-x="352" 
d="M309 -131l-23 -68q-32 -6 -58.5 -8.5t-50.5 -2.5q-70 0 -111 23t-41 62q0 24 15.5 46t61.5 57l29 22h-80v700h250v-700h-42l-25 -39q-11 -16 -16 -28t-5 -22q0 -23 22.5 -32.5t71.5 -9.5h2z" />
    <glyph glyph-name="iogonek" unicode="&#x12f;" horiz-adv-x="324" 
d="M162 797q58 0 95 -33.5t37 -86.5q0 -52 -37.5 -86t-94.5 -34t-94.5 34t-37.5 86q0 53 37 86.5t95 33.5zM283 -131l-23 -68q-32 -6 -58.5 -8.5t-50.5 -2.5q-70 0 -111 23t-41 62q0 24 15.5 46t61.5 57l29 22h-60v526h234v-526h-46l-25 -39q-11 -16 -16 -28t-5 -22
q0 -23 22.5 -32.5t71.5 -9.5h2z" />
    <glyph glyph-name="Idotaccent" unicode="&#x130;" horiz-adv-x="352" 
d="M301 0h-250v700h250v-700zM176 964q49 0 81.5 -31t32.5 -78t-32.5 -78t-81.5 -31t-81.5 31t-32.5 78t32.5 78t81.5 31z" />
    <glyph glyph-name="dotlessi" unicode="&#x131;" horiz-adv-x="324" 
d="M279 0h-234v526h234v-526z" />
    <glyph glyph-name="Jcircumflex" unicode="&#x134;" horiz-adv-x="533" 
d="M147 213q41 0 66.5 25t25.5 65v397h250v-451q0 -119 -73.5 -188t-199.5 -69q-50 0 -93.5 10t-84.5 30l-25 219l3 2q35 -21 66 -30.5t65 -9.5zM612 752h-134l-110 62l-110 -62h-132v2l138 179h210l138 -179v-2z" />
    <glyph glyph-name="jcircumflex" unicode="&#x135;" horiz-adv-x="326" 
d="M47 526h234v-474q0 -118 -62.5 -180.5t-178.5 -62.5q-25 0 -45.5 1.5t-36.5 5.5l-33 144l3 2q11 -2 19 -3t15 -1q42 0 63.5 19.5t21.5 57.5v491zM396 577h-124l-109 72l-111 -72h-122v2l137 204h192l137 -204v-2z" />
    <glyph glyph-name="uni0136" unicode="&#x136;" horiz-adv-x="782" 
d="M787 0h-304l-174 263h-10v-263h-250v700h250v-252h11l176 252h295v-2l-251 -333l257 -363v-2zM532 -133q0 -40 -49 -76t-151 -69l-102 41v4q42 21 60.5 36.5t18.5 31.5q0 17 -19.5 31t-63.5 29v6l225 59q43 -20 62 -41.5t19 -51.5z" />
    <glyph glyph-name="uni0137" unicode="&#x137;" horiz-adv-x="639" 
d="M647 0h-266l-94 197h-10v-197h-234v707l234 48v-425h10l99 196h252v-2l-141 -249l150 -273v-2zM480 -138q0 -40 -49 -76t-151 -69l-102 41v4q42 21 60.5 36.5t18.5 31.5q0 17 -19.5 31t-63.5 29v6l225 59q43 -20 62 -41.5t19 -51.5z" />
    <glyph glyph-name="Lacute" unicode="&#x139;" horiz-adv-x="583" 
d="M559 0h-510v700h250v-477h260v-223zM245 756h-129l87 181h271v-2z" />
    <glyph glyph-name="lacute" unicode="&#x13a;" horiz-adv-x="324" 
d="M279 0h-234v707l234 48v-755zM209 785h-113l90 206h259v-2z" />
    <glyph glyph-name="uni013B" unicode="&#x13b;" horiz-adv-x="583" 
d="M559 0h-510v700h250v-477h260v-223zM455 -138q0 -40 -49 -76t-151 -69l-102 41v4q42 21 60.5 36.5t18.5 31.5q0 17 -19.5 31t-63.5 29v6l225 59q43 -20 62 -41.5t19 -51.5z" />
    <glyph glyph-name="uni013C" unicode="&#x13c;" horiz-adv-x="324" 
d="M279 0h-234v707l234 48v-755zM310 -138q0 -40 -49 -76t-151 -69l-102 41v4q42 21 60.5 36.5t18.5 31.5q0 17 -19.5 31t-63.5 29v6l225 59q43 -20 62 -41.5t19 -51.5z" />
    <glyph glyph-name="Lcaron" unicode="&#x13d;" horiz-adv-x="583" 
d="M559 0h-510v700h250v-477h260v-223zM411 549h-82q8 21 12 45t4 51q0 26 -4 50.5t-12 44.5h157q1 -7 2 -15t1 -16q0 -40 -19 -79.5t-59 -80.5z" />
    <glyph glyph-name="lcaron" unicode="&#x13e;" horiz-adv-x="324" 
d="M279 0h-234v707l234 48v-755zM391 551h-82q8 21 12 45t4 51q0 26 -4 50.5t-12 44.5h157q1 -7 2 -15t1 -16q0 -40 -19 -79.5t-59 -80.5z" />
    <glyph glyph-name="Lslash" unicode="&#x141;" horiz-adv-x="613" 
d="M329 223h260v-223h-510v175l-68 -45h-2v211l70 46v313h250v-176l136 90h2v-211l-138 -91v-89z" />
    <glyph glyph-name="lslash" unicode="&#x142;" horiz-adv-x="378" 
d="M373 569v-182l-67 -44v-343h-234v204l-65 -44h-2v181l67 45v321l234 48v-230l65 44h2z" />
    <glyph glyph-name="Nacute" unicode="&#x143;" horiz-adv-x="822" 
d="M523 700h250v-700h-205l-272 311l3 -311h-250v700h247l230 -264zM469 751h-129l87 181h271v-2z" />
    <glyph glyph-name="nacute" unicode="&#x144;" horiz-adv-x="654" 
d="M329 337q-14 0 -26 -2t-26 -6v-329h-234v513l224 18v-98q40 56 83.5 81t99.5 25q78 0 122 -52t44 -146v-341h-234v276q0 31 -13 46t-40 15zM377 585h-113l90 206h259v-2z" />
    <glyph glyph-name="uni0145" unicode="&#x145;" horiz-adv-x="822" 
d="M523 700h250v-700h-205l-272 311l3 -311h-250v700h247l230 -264zM559 -133q0 -40 -49 -76t-151 -69l-102 41v4q42 21 60.5 36.5t18.5 31.5q0 17 -19.5 31t-63.5 29v6l225 59q43 -20 62 -41.5t19 -51.5z" />
    <glyph glyph-name="uni0146" unicode="&#x146;" horiz-adv-x="654" 
d="M329 337q-14 0 -26 -2t-26 -6v-329h-234v513l224 18v-98q40 56 83.5 81t99.5 25q78 0 122 -52t44 -146v-341h-234v276q0 31 -13 46t-40 15zM478 -138q0 -40 -49 -76t-151 -69l-102 41v4q42 21 60.5 36.5t18.5 31.5q0 17 -19.5 31t-63.5 29v6l225 59q43 -20 62 -41.5
t19 -51.5z" />
    <glyph glyph-name="Ncaron" unicode="&#x147;" horiz-adv-x="822" 
d="M523 700h250v-700h-205l-272 311l3 -311h-250v700h247l230 -264zM654 932v-2l-138 -179h-210l-138 179v2h134l110 -62l110 62h132z" />
    <glyph glyph-name="ncaron" unicode="&#x148;" horiz-adv-x="654" 
d="M329 337q-14 0 -26 -2t-26 -6v-329h-234v513l224 18v-98q40 56 83.5 81t99.5 25q78 0 122 -52t44 -146v-341h-234v276q0 31 -13 46t-40 15zM563 791v-2l-137 -204h-192l-137 204v2h124l109 -72l111 72h122z" />
    <glyph glyph-name="Eng" unicode="&#x14a;" horiz-adv-x="822" 
d="M299 0h-250v700h243l231 -263v263h250v-671q0 -141 -70.5 -215t-204.5 -74q-25 0 -47.5 2.5t-45.5 7.5l-25 195l3 2q16 -4 30.5 -5.5t32.5 -1.5q36 0 56.5 20t20.5 56v25l-227 259z" />
    <glyph glyph-name="eng" unicode="&#x14b;" horiz-adv-x="654" 
d="M616 341v-314q0 -105 -56.5 -161.5t-158.5 -56.5q-21 0 -35.5 1.5t-27.5 4.5l-36 143l3 3h14q31 0 47 15.5t16 46.5v253q0 31 -13 46t-40 15q-14 0 -26 -2t-26 -6v-329h-234v513l224 18v-98q40 56 83.5 81t99.5 25q78 0 122 -52t44 -146z" />
    <glyph glyph-name="Omacron" unicode="&#x14c;" horiz-adv-x="816" 
d="M407 -14q-166 0 -274 103.5t-108 259.5q0 155 109.5 260t274.5 105t273.5 -104t108.5 -259q0 -156 -109 -260.5t-275 -104.5zM407 491q-56 0 -91.5 -39.5t-35.5 -100.5t36 -101.5t93 -40.5q56 0 91.5 39.5t35.5 100.5t-36.5 101.5t-92.5 40.5zM179 777v142h458v-142h-458
z" />
    <glyph glyph-name="omacron" unicode="&#x14d;" horiz-adv-x="626" 
d="M313 -14q-128 0 -211 80t-83 197t83 197t211 80t211 -80t83 -197t-83 -197t-211 -80zM387 263q0 36 -21 59t-53 23t-53 -23t-21 -59t21 -59t53 -23t53 23t21 59zM96 606v132h434v-132h-434z" />
    <glyph glyph-name="Obreve" unicode="&#x14e;" horiz-adv-x="816" 
d="M407 -14q-166 0 -274 103.5t-108 259.5q0 155 109.5 260t274.5 105t273.5 -104t108.5 -259q0 -156 -109 -260.5t-275 -104.5zM407 491q-56 0 -91.5 -39.5t-35.5 -100.5t36 -101.5t93 -40.5q56 0 91.5 39.5t35.5 100.5t-36.5 101.5t-92.5 40.5zM408 751q-76 0 -137.5 34
t-105.5 99l75 76q47 -35 85 -49t83 -14q44 0 82 14t86 49l75 -75q-45 -67 -106.5 -100.5t-136.5 -33.5z" />
    <glyph glyph-name="obreve" unicode="&#x14f;" horiz-adv-x="626" 
d="M313 -14q-128 0 -211 80t-83 197t83 197t211 80t211 -80t83 -197t-83 -197t-211 -80zM387 263q0 36 -21 59t-53 23t-53 -23t-21 -59t21 -59t53 -23t53 23t21 59zM313 580q-66 0 -120 33t-111 113l80 78q39 -40 74 -57.5t77 -17.5q41 0 76.5 17.5t74.5 57.5l80 -77
q-58 -80 -111.5 -113.5t-119.5 -33.5z" />
    <glyph glyph-name="Ohungarumlaut" unicode="&#x150;" horiz-adv-x="816" 
d="M407 -14q-166 0 -274 103.5t-108 259.5q0 155 109.5 260t274.5 105t273.5 -104t108.5 -259q0 -156 -109 -260.5t-275 -104.5zM407 491q-56 0 -91.5 -39.5t-35.5 -100.5t36 -101.5t93 -40.5q56 0 91.5 39.5t35.5 100.5t-36.5 101.5t-92.5 40.5zM366 761h-119l87 181h421
v-2l-199 -179h-119l73 137z" />
    <glyph glyph-name="ohungarumlaut" unicode="&#x151;" horiz-adv-x="626" 
d="M313 -14q-128 0 -211 80t-83 197t83 197t211 80t211 -80t83 -197t-83 -197t-211 -80zM387 263q0 36 -21 59t-53 23t-53 -23t-21 -59t21 -59t53 -23t53 23t21 59zM258 590h-103l90 206h429v-2l-216 -204h-103l68 156z" />
    <glyph glyph-name="OE" unicode="&#x152;" horiz-adv-x="1038" 
d="M25 349q0 165 109 258t307 93h543l25 -205h-295v-60h242v-169h-242v-61h298l-25 -205h-546q-201 0 -308.5 90.5t-107.5 258.5zM280 351q0 -72 44 -109t129 -37h16v290h-16q-85 0 -129 -37t-44 -107z" />
    <glyph glyph-name="oe" unicode="&#x153;" horiz-adv-x="959" 
d="M695 -10q-59 0 -109.5 18t-88.5 53q-39 -37 -90.5 -56t-112.5 -19q-119 0 -197 79.5t-78 197.5t80.5 197t204.5 79q57 0 106 -18.5t86 -54.5q38 36 86 55t103 19q119 0 186 -75t67 -205q0 -6 -1 -18.5t-2 -24.5h-321q14 -31 46.5 -47t80.5 -16t91.5 8t97.5 27l3 -3
l-51 -162q-47 -19 -90.5 -26.5t-96.5 -7.5zM674 393q-24 0 -40 -18t-20 -50h118q-3 31 -18.5 49.5t-39.5 18.5zM387 263q0 36 -21 59t-53 23t-53 -23t-21 -59t21 -59t53 -23t53 23t21 59z" />
    <glyph glyph-name="Racute" unicode="&#x154;" horiz-adv-x="715" 
d="M740 0h-290l-151 211v-211h-250v700h301q155 0 232 -57.5t77 -173.5q0 -65 -30 -118t-86 -86zM414 446q0 32 -21.5 49t-61.5 17h-36v-135h36q40 0 61.5 18t21.5 51zM391 756h-129l87 181h271v-2z" />
    <glyph glyph-name="racute" unicode="&#x155;" horiz-adv-x="488" 
d="M424 290q-38 0 -75 -6t-72 -18v-266h-234v513l224 18v-147q46 79 84 114.5t79 35.5q8 0 15 -1t18 -3l13 -243q-11 2 -23 2.5t-29 0.5zM307 585h-113l90 206h259v-2z" />
    <glyph glyph-name="uni0156" unicode="&#x156;" horiz-adv-x="715" 
d="M740 0h-290l-151 211v-211h-250v700h301q155 0 232 -57.5t77 -173.5q0 -65 -30 -118t-86 -86zM414 446q0 32 -21.5 49t-61.5 17h-36v-135h36q40 0 61.5 18t21.5 51zM512 -133q0 -40 -49 -76t-151 -69l-102 41v4q42 21 60.5 36.5t18.5 31.5q0 17 -19.5 31t-63.5 29v6
l225 59q43 -20 62 -41.5t19 -51.5z" />
    <glyph glyph-name="uni0157" unicode="&#x157;" horiz-adv-x="488" 
d="M424 290q-38 0 -75 -6t-72 -18v-266h-234v513l224 18v-147q46 79 84 114.5t79 35.5q8 0 15 -1t18 -3l13 -243q-11 2 -23 2.5t-29 0.5zM309 -138q0 -40 -49 -76t-151 -69l-102 41v4q42 21 60.5 36.5t18.5 31.5q0 17 -19.5 31t-63.5 29v6l225 59q43 -20 62 -41.5t19 -51.5z
" />
    <glyph glyph-name="Rcaron" unicode="&#x158;" horiz-adv-x="715" 
d="M740 0h-290l-151 211v-211h-250v700h301q155 0 232 -57.5t77 -173.5q0 -65 -30 -118t-86 -86zM414 446q0 32 -21.5 49t-61.5 17h-36v-135h36q40 0 61.5 18t21.5 51zM576 937v-2l-138 -179h-210l-138 179v2h134l110 -62l110 62h132z" />
    <glyph glyph-name="rcaron" unicode="&#x159;" horiz-adv-x="488" 
d="M424 290q-38 0 -75 -6t-72 -18v-266h-234v513l224 18v-147q46 79 84 114.5t79 35.5q8 0 15 -1t18 -3l13 -243q-11 2 -23 2.5t-29 0.5zM493 791v-2l-137 -204h-192l-137 204v2h124l109 -72l111 72h122z" />
    <glyph glyph-name="Sacute" unicode="&#x15a;" horiz-adv-x="597" 
d="M246 254q-122 36 -171.5 88.5t-49.5 137.5q0 105 77.5 168.5t208.5 63.5q63 0 121.5 -13t105.5 -36v-211h-2q-49 27 -114.5 46.5t-110.5 19.5q-21 0 -31 -5.5t-10 -16.5q0 -12 17.5 -21.5t66.5 -23.5q127 -36 176.5 -88.5t49.5 -140.5q0 -109 -77.5 -171.5t-212.5 -62.5
q-67 0 -131.5 17t-111.5 47l-23 225l3 2q62 -41 136 -69t123 -28q25 0 37 6t12 19t-17 22t-72 25zM368 761h-129l87 181h271v-2z" />
    <glyph glyph-name="sacute" unicode="&#x15b;" horiz-adv-x="514" 
d="M309 343q107 -31 148 -71t41 -106q0 -81 -65.5 -129t-179.5 -48q-58 0 -109.5 12t-102.5 38l-21 170l3 2q63 -34 123.5 -52.5t110.5 -18.5q15 0 22 3t7 10q0 8 -15.5 15t-63.5 22q-106 32 -146 72.5t-40 103.5q0 78 64.5 124.5t176.5 46.5q58 0 106 -10t96 -33v-168h-3
q-47 28 -101 45t-96 17q-15 0 -23 -3.5t-8 -9.5t8.5 -10.5t67.5 -21.5zM311 587h-113l90 206h259v-2z" />
    <glyph glyph-name="Scircumflex" unicode="&#x15c;" horiz-adv-x="597" 
d="M246 254q-122 36 -171.5 88.5t-49.5 137.5q0 105 77.5 168.5t208.5 63.5q63 0 121.5 -13t105.5 -36v-211h-2q-49 27 -114.5 46.5t-110.5 19.5q-21 0 -31 -5.5t-10 -16.5q0 -12 17.5 -21.5t66.5 -23.5q127 -36 176.5 -88.5t49.5 -140.5q0 -109 -77.5 -171.5t-212.5 -62.5
q-67 0 -131.5 17t-111.5 47l-23 225l3 2q62 -41 136 -69t123 -28q25 0 37 6t12 19t-17 22t-72 25zM553 756h-134l-110 62l-110 -62h-132v2l138 179h210l138 -179v-2z" />
    <glyph glyph-name="scircumflex" unicode="&#x15d;" horiz-adv-x="514" 
d="M309 343q107 -31 148 -71t41 -106q0 -81 -65.5 -129t-179.5 -48q-58 0 -109.5 12t-102.5 38l-21 170l3 2q63 -34 123.5 -52.5t110.5 -18.5q15 0 22 3t7 10q0 8 -15.5 15t-63.5 22q-106 32 -146 72.5t-40 103.5q0 78 64.5 124.5t176.5 46.5q58 0 106 -10t96 -33v-168h-3
q-47 28 -101 45t-96 17q-15 0 -23 -3.5t-8 -9.5t8.5 -10.5t67.5 -21.5zM497 580h-124l-109 72l-111 -72h-122v2l137 204h192l137 -204v-2z" />
    <glyph glyph-name="uni015E" unicode="&#x15e;" horiz-adv-x="597" 
d="M462 -138q0 -47 -53.5 -76.5t-144.5 -29.5q-34 0 -64 3.5t-60 11.5l-26 75l4 4q38 -9 65 -12.5t56 -3.5t44 7.5t15 22.5q0 14 -16.5 21t-50.5 7q-13 0 -28.5 -0.5t-35.5 -2.5l-4 4l74 98q-53 6 -102.5 21.5t-87.5 39.5l-23 225l3 2q62 -41 136 -69t123 -28q25 0 37 6
t12 19t-17 22t-72 25q-122 36 -171.5 88.5t-49.5 137.5q0 105 77.5 168.5t208.5 63.5q63 0 121.5 -13t105.5 -36v-211h-2q-49 27 -114.5 46.5t-110.5 19.5q-21 0 -31 -5.5t-10 -16.5q0 -12 17.5 -21.5t66.5 -23.5q127 -36 176.5 -88.5t49.5 -140.5q0 -94 -59 -154t-164 -75
l-35 -42q70 -5 105 -27.5t35 -61.5z" />
    <glyph glyph-name="uni015F" unicode="&#x15f;" horiz-adv-x="514" 
d="M418 -135q0 -47 -53.5 -76.5t-144.5 -29.5q-34 0 -64 3.5t-60 11.5l-26 75l4 4q38 -9 65 -12.5t56 -3.5t44 7.5t15 22.5q0 14 -16.5 21t-50.5 7q-13 0 -28.5 -0.5t-35.5 -2.5l-4 4l73 97q-40 5 -77.5 16t-73.5 30l-21 170l3 2q63 -34 123.5 -52.5t110.5 -18.5q15 0 22 3
t7 10q0 8 -15.5 15t-63.5 22q-106 32 -146 72.5t-40 103.5q0 78 64.5 124.5t176.5 46.5q58 0 106 -10t96 -33v-168h-3q-47 28 -101 45t-96 17q-15 0 -23 -3.5t-8 -9.5t8.5 -10.5t67.5 -21.5q107 -31 148 -71t41 -106q0 -70 -49.5 -116t-138.5 -57l-32 -39q70 -5 105 -27.5
t35 -61.5z" />
    <glyph glyph-name="Scaron" unicode="&#x160;" horiz-adv-x="597" 
d="M246 254q-122 36 -171.5 88.5t-49.5 137.5q0 105 77.5 168.5t208.5 63.5q63 0 121.5 -13t105.5 -36v-211h-2q-49 27 -114.5 46.5t-110.5 19.5q-21 0 -31 -5.5t-10 -16.5q0 -12 17.5 -21.5t66.5 -23.5q127 -36 176.5 -88.5t49.5 -140.5q0 -109 -77.5 -171.5t-212.5 -62.5
q-67 0 -131.5 17t-111.5 47l-23 225l3 2q62 -41 136 -69t123 -28q25 0 37 6t12 19t-17 22t-72 25zM553 942v-2l-138 -179h-210l-138 179v2h134l110 -62l110 62h132z" />
    <glyph glyph-name="scaron" unicode="&#x161;" horiz-adv-x="514" 
d="M309 343q107 -31 148 -71t41 -106q0 -81 -65.5 -129t-179.5 -48q-58 0 -109.5 12t-102.5 38l-21 170l3 2q63 -34 123.5 -52.5t110.5 -18.5q15 0 22 3t7 10q0 8 -15.5 15t-63.5 22q-106 32 -146 72.5t-40 103.5q0 78 64.5 124.5t176.5 46.5q58 0 106 -10t96 -33v-168h-3
q-47 28 -101 45t-96 17q-15 0 -23 -3.5t-8 -9.5t8.5 -10.5t67.5 -21.5zM497 793v-2l-137 -204h-192l-137 204v2h124l109 -72l111 72h122z" />
    <glyph glyph-name="uni0162" unicode="&#x162;" horiz-adv-x="742" 
d="M537 -133q0 -47 -53.5 -76.5t-144.5 -29.5q-34 0 -64 3.5t-60 11.5l-26 75l4 4q38 -9 65 -12.5t56 -3.5t44 7.5t15 22.5q0 14 -16.5 21t-50.5 7q-13 0 -28.5 -0.5t-35.5 -2.5l-4 4l77 102h-69v477h-217v223h684v-223h-217v-477h-62l-37 -44q70 -5 105 -27.5t35 -61.5z
" />
    <glyph glyph-name="uni0163" unicode="&#x163;" horiz-adv-x="500" 
d="M434 -133q0 -47 -53.5 -76.5t-144.5 -29.5q-34 0 -64 3.5t-60 11.5l-26 75l4 4q38 -9 65 -12.5t56 -3.5t44 7.5t15 22.5q0 14 -16.5 21t-50.5 7q-13 0 -28.5 -0.5t-35.5 -2.5l-4 4l76 101q-64 17 -95.5 71.5t-31.5 148.5v134h-68v173h68v108l232 40v-148h153v-173h-153
v-108q0 -31 18 -47.5t51 -16.5q21 0 40.5 6t45.5 22l3 -2l-28 -180q-27 -14 -57.5 -23t-64.5 -12l-30 -36q70 -5 105 -27.5t35 -61.5z" />
    <glyph glyph-name="Tcaron" unicode="&#x164;" horiz-adv-x="742" 
d="M713 700v-223h-217v-477h-250v477h-217v223h684zM614 937v-2l-138 -179h-210l-138 179v2h134l110 -62l110 62h132z" />
    <glyph glyph-name="tcaron" unicode="&#x165;" horiz-adv-x="500" 
d="M474 207l-28 -180q-34 -18 -74.5 -27.5t-86.5 -9.5q-103 0 -152 56t-49 173v134h-68v173h68v108l232 40v-148h153v-173h-153v-108q0 -31 18 -47.5t51 -16.5q21 0 40.5 6t45.5 22zM426 559h-82q8 21 12 45t4 51q0 26 -4 50.5t-12 44.5h157q1 -7 2 -15t1 -16
q0 -40 -19 -79.5t-59 -80.5z" />
    <glyph glyph-name="Tbar" unicode="&#x166;" horiz-adv-x="742" 
d="M631 364v-160h-135v-204h-250v204h-135v160h135v113h-217v223h684v-223h-217v-113h135z" />
    <glyph glyph-name="tbar" unicode="&#x167;" horiz-adv-x="500" 
d="M474 182l-28 -156q-34 -18 -74.5 -27.5t-86.5 -9.5q-103 0 -152 56t-49 173v1h-57v103h57v46h-68v158h68v107l232 40v-147h153v-158h-153v-46h115v-103h-115q3 -26 23 -41t50 -15q21 0 41.5 5t40.5 16z" />
    <glyph glyph-name="Utilde" unicode="&#x168;" horiz-adv-x="782" 
d="M390 -14q-170 0 -258 86.5t-88 253.5v374h250v-380q0 -54 25.5 -83.5t73.5 -29.5t73.5 29.5t25.5 83.5v380h246v-374q0 -166 -89 -253t-259 -87zM419 922q30 -14 43.5 -18t23.5 -4q17 0 31.5 8.5t52.5 41.5l79 -64q-61 -81 -96 -110t-80 -29q-15 0 -34 5.5t-56 21.5
q-30 14 -43.5 18t-23.5 4q-17 0 -31.5 -8.5t-52.5 -41.5l-79 64q61 81 96 110t80 29q15 0 34 -5.5t56 -21.5z" />
    <glyph glyph-name="utilde" unicode="&#x169;" horiz-adv-x="654" 
d="M611 0h-224v93q-40 -56 -83.5 -81t-99.5 -25q-78 0 -122 52t-44 146v341h234v-276q0 -31 13 -46t40 -15q14 0 26 2t26 6v329h234v-526zM329 762q34 -17 48 -22t23 -5q14 0 26.5 9t48.5 50l88 -58q-49 -91 -82.5 -125.5t-76.5 -34.5q-12 0 -29 6t-54 24q-34 17 -48 22
t-23 5q-14 0 -26.5 -9t-48.5 -50l-88 58q49 91 82.5 125.5t76.5 34.5q12 0 29 -6t54 -24z" />
    <glyph glyph-name="Umacron" unicode="&#x16a;" horiz-adv-x="782" 
d="M390 -14q-170 0 -258 86.5t-88 253.5v374h250v-380q0 -54 25.5 -83.5t73.5 -29.5t73.5 29.5t25.5 83.5v380h246v-374q0 -166 -89 -253t-259 -87zM162 772v142h458v-142h-458z" />
    <glyph glyph-name="umacron" unicode="&#x16b;" horiz-adv-x="654" 
d="M611 0h-224v93q-40 -56 -83.5 -81t-99.5 -25q-78 0 -122 52t-44 146v341h234v-276q0 -31 13 -46t40 -15q14 0 26 2t26 6v329h234v-526zM108 601v132h434v-132h-434z" />
    <glyph glyph-name="Ubreve" unicode="&#x16c;" horiz-adv-x="782" 
d="M390 -14q-170 0 -258 86.5t-88 253.5v374h250v-380q0 -54 25.5 -83.5t73.5 -29.5t73.5 29.5t25.5 83.5v380h246v-374q0 -166 -89 -253t-259 -87zM391 741q-76 0 -137.5 34t-105.5 99l75 76q47 -35 85 -49t83 -14q44 0 82 14t86 49l75 -75q-45 -67 -106.5 -100.5
t-136.5 -33.5z" />
    <glyph glyph-name="ubreve" unicode="&#x16d;" horiz-adv-x="654" 
d="M611 0h-224v93q-40 -56 -83.5 -81t-99.5 -25q-78 0 -122 52t-44 146v341h234v-276q0 -31 13 -46t40 -15q14 0 26 2t26 6v329h234v-526zM325 575q-66 0 -120 33t-111 113l80 78q39 -40 74 -57.5t77 -17.5q41 0 76.5 17.5t74.5 57.5l80 -77q-58 -80 -111.5 -113.5
t-119.5 -33.5z" />
    <glyph glyph-name="Uring" unicode="&#x16e;" horiz-adv-x="782" 
d="M390 -14q-170 0 -258 86.5t-88 253.5v374h250v-380q0 -54 25.5 -83.5t73.5 -29.5t73.5 29.5t25.5 83.5v380h246v-374q0 -166 -89 -253t-259 -87zM391 741q-65 0 -109.5 41t-44.5 100t44.5 100t109.5 41t109.5 -41t44.5 -100t-44.5 -100t-109.5 -41zM468 882q0 30 -22 50
t-55 20t-55 -20t-22 -50t22 -50t55 -20t55 20t22 50z" />
    <glyph glyph-name="uring" unicode="&#x16f;" horiz-adv-x="654" 
d="M611 0h-224v93q-40 -56 -83.5 -81t-99.5 -25q-78 0 -122 52t-44 146v341h234v-276q0 -31 13 -46t40 -15q14 0 26 2t26 6v329h234v-526zM325 571q-60 0 -102 41t-42 100t42 100t102 41t102 -41t42 -100t-42 -100t-102 -41zM392 712q0 30 -19 50t-48 20t-48 -20t-19 -50
t19 -50t48 -20t48 20t19 50z" />
    <glyph glyph-name="Uhungarumlaut" unicode="&#x170;" horiz-adv-x="782" 
d="M390 -14q-170 0 -258 86.5t-88 253.5v374h250v-380q0 -54 25.5 -83.5t73.5 -29.5t73.5 29.5t25.5 83.5v380h246v-374q0 -166 -89 -253t-259 -87zM349 756h-119l87 181h421v-2l-199 -179h-119l73 137z" />
    <glyph glyph-name="uhungarumlaut" unicode="&#x171;" horiz-adv-x="654" 
d="M611 0h-224v93q-40 -56 -83.5 -81t-99.5 -25q-78 0 -122 52t-44 146v341h234v-276q0 -31 13 -46t40 -15q14 0 26 2t26 6v329h234v-526zM270 585h-103l90 206h429v-2l-216 -204h-103l68 156z" />
    <glyph glyph-name="Uogonek" unicode="&#x172;" horiz-adv-x="782" 
d="M518 -136l-23 -68q-32 -6 -58.5 -8.5t-50.5 -2.5q-70 0 -111 23t-41 62q0 24 15.5 46t61.5 57l21 16q-142 14 -215 99.5t-73 237.5v374h250v-380q0 -54 25.5 -83.5t73.5 -29.5t73.5 29.5t25.5 83.5v380h246v-374q0 -146 -69.5 -231.5t-202.5 -103.5l-23 -35
q-11 -16 -16 -28t-5 -22q0 -23 22.5 -32.5t71.5 -9.5h2z" />
    <glyph glyph-name="uogonek" unicode="&#x173;" horiz-adv-x="654" 
d="M618 -131l-23 -68q-32 -6 -58.5 -8.5t-50.5 -2.5q-70 0 -111 23t-41 62q0 24 15.5 46t61.5 57l29 22h-53v93q-40 -56 -83.5 -81t-99.5 -25q-78 0 -122 52t-44 146v341h234v-276q0 -31 13 -46t40 -15q14 0 26 2t26 6v329h234v-526h-43l-25 -39q-11 -16 -16 -28t-5 -22
q0 -23 22.5 -32.5t71.5 -9.5h2z" />
    <glyph glyph-name="Wcircumflex" unicode="&#x174;" horiz-adv-x="1123" 
d="M846 700h259l-198 -705h-231l-114 228l-115 -228h-231l-198 705h266l88 -365l187 374h13l186 -374zM815 756h-134l-110 62l-110 -62h-132v2l138 179h210l138 -179v-2z" />
    <glyph glyph-name="wcircumflex" unicode="&#x175;" horiz-adv-x="895" 
d="M653 526h240l-165 -531h-193l-87 161l-88 -161h-193l-165 531h245l61 -235l137 243h11l136 -243zM689 585h-124l-109 72l-111 -72h-122v2l137 204h192l137 -204v-2z" />
    <glyph glyph-name="Ycircumflex" unicode="&#x176;" horiz-adv-x="758" 
d="M491 700h272l-259 -447v-253h-250v253l-259 447h286l105 -212zM622 756h-134l-110 62l-110 -62h-132v2l138 179h210l138 -179v-2z" />
    <glyph glyph-name="ycircumflex" unicode="&#x177;" horiz-adv-x="652" 
d="M652 526l-165 -457q-48 -134 -123 -197t-187 -63q-24 0 -47 3t-45 10l-45 201l3 2q19 -8 39 -12t43 -4q28 0 48 5t35 16l-208 496h251l85 -245l70 245h246zM569 585h-124l-109 72l-111 -72h-122v2l137 204h192l137 -204v-2z" />
    <glyph glyph-name="Ydieresis" unicode="&#x178;" horiz-adv-x="758" 
d="M491 700h272l-259 -447v-253h-250v253l-259 447h286l105 -212zM250 967q49 0 81.5 -31t32.5 -78t-32.5 -78t-81.5 -31t-81.5 31t-32.5 78t32.5 78t81.5 31zM508 967q49 0 81.5 -31t32.5 -78t-32.5 -78t-81.5 -31t-81.5 31t-32.5 78t32.5 78t81.5 31z" />
    <glyph glyph-name="Zacute" unicode="&#x179;" horiz-adv-x="738" 
d="M413 213h302l-53 -213h-653l-4 12l302 475h-263v213h667l4 -12zM428 756h-129l87 181h271v-2z" />
    <glyph glyph-name="zacute" unicode="&#x17a;" horiz-adv-x="575" 
d="M355 173h207l-42 -173h-506l-4 10l204 343h-169v173h509l4 -10zM351 585h-113l90 206h259v-2z" />
    <glyph glyph-name="Zdotaccent" unicode="&#x17b;" horiz-adv-x="738" 
d="M413 213h302l-53 -213h-653l-4 12l302 475h-263v213h667l4 -12zM370 964q49 0 81.5 -31t32.5 -78t-32.5 -78t-81.5 -31t-81.5 31t-32.5 78t32.5 78t81.5 31z" />
    <glyph glyph-name="zdotaccent" unicode="&#x17c;" horiz-adv-x="575" 
d="M355 173h207l-42 -173h-506l-4 10l204 343h-169v173h509l4 -10zM304 573q-47 0 -78.5 29.5t-31.5 75.5t31.5 75.5t78.5 29.5t78.5 -29.5t31.5 -75.5t-31.5 -75.5t-78.5 -29.5z" />
    <glyph glyph-name="Zcaron" unicode="&#x17d;" horiz-adv-x="738" 
d="M413 213h302l-53 -213h-653l-4 12l302 475h-263v213h667l4 -12zM613 937v-2l-138 -179h-210l-138 179v2h134l110 -62l110 62h132z" />
    <glyph glyph-name="zcaron" unicode="&#x17e;" horiz-adv-x="575" 
d="M355 173h207l-42 -173h-506l-4 10l204 343h-169v173h509l4 -10zM537 791v-2l-137 -204h-192l-137 204v2h124l109 -72l111 72h122z" />
    <glyph glyph-name="uni018F" unicode="&#x18f;" horiz-adv-x="770" 
d="M369 709q175 0 275.5 -94.5t100.5 -263.5q0 -162 -102.5 -263.5t-267.5 -101.5q-160 0 -254 101.5t-94 271.5v58h458q-12 43 -49 63t-106 20q-62 0 -128 -15t-135 -44l-3 3l51 220q62 24 122 34.5t132 10.5zM377 182q46 0 74.5 23.5t36.5 68.5h-219q7 -42 36 -67t72 -25z
" />
    <glyph glyph-name="Ohorn" unicode="&#x1a0;" horiz-adv-x="816" 
d="M689 590q50 -46 76 -109t26 -136q0 -153 -109 -256t-275 -103t-274 103.5t-108 259.5q0 154 109 256.5t275 102.5q20 0 39 -1t48 -4q22 -2 32 -2.5t20 -0.5q47 0 71 23t24 68v50h151q6 -18 9.5 -41.5t3.5 -48.5q0 -59 -29 -99t-89 -62zM407 491q-56 0 -91.5 -39.5
t-35.5 -100.5t36 -101.5t93 -40.5q56 0 91.5 39.5t35.5 100.5t-36.5 101.5t-92.5 40.5z" />
    <glyph glyph-name="ohorn" unicode="&#x1a1;" horiz-adv-x="626" 
d="M527 437q40 -36 60 -83t20 -104q0 -110 -83.5 -187t-210.5 -77q-128 0 -211 78.5t-83 195.5t83.5 195.5t214.5 78.5q8 0 17.5 -0.5t29.5 -1.5q21 -2 32.5 -2.5t21.5 -0.5q36 0 52 14.5t16 48.5v48h127q4 -16 6.5 -33t2.5 -34q0 -52 -23.5 -86t-71.5 -50zM387 261
q0 36 -21 58t-53 22t-53 -22t-21 -58t21 -58t53 -22t53 22t21 58z" />
    <glyph glyph-name="Uhorn" unicode="&#x1af;" horiz-adv-x="832" 
d="M393 207q48 0 73.5 29.5t25.5 83.5v380h109q47 0 71 23t24 68v50h151q6 -18 9.5 -41.5t3.5 -48.5q0 -61 -30 -101t-92 -61v-263q0 -166 -89 -253t-259 -87t-258 86.5t-88 253.5v374h250v-380q0 -54 25.5 -83.5t73.5 -29.5z" />
    <glyph glyph-name="uhorn" unicode="&#x1b0;" horiz-adv-x="679" 
d="M325 189q14 0 26 2t26 6v329h124q36 0 52 14.5t16 48.5v41h127q4 -15 6.5 -31.5t2.5 -33.5q0 -50 -23.5 -82.5t-70.5 -48.5v-434h-224v93q-40 -56 -83.5 -81t-99.5 -25q-78 0 -122 52t-44 146v341h234v-276q0 -31 13 -46t40 -15z" />
    <glyph glyph-name="uni01CD" unicode="&#x1cd;" horiz-adv-x="846" 
d="M258 0h-258l280 700h286l280 -700h-266l-33 93h-256zM419 466l-68 -185h136zM666 937v-2l-138 -179h-210l-138 179v2h134l110 -62l110 62h132z" />
    <glyph glyph-name="uni01CE" unicode="&#x1ce;" horiz-adv-x="588" 
d="M557 13l-221 -18v61q-42 -34 -82 -50t-85 -16q-69 0 -110 38.5t-41 103.5q0 82 77 123.5t229 42.5q-5 33 -27.5 48.5t-63.5 15.5q-38 0 -82.5 -14.5t-86.5 -40.5l-4 4l26 182q46 22 96 32.5t108 10.5q133 0 200 -64.5t67 -191.5v-267zM219 162q0 -17 12.5 -26t34.5 -9
q14 0 29 2.5t31 6.5v77q-57 -5 -82 -16.5t-25 -34.5zM544 791v-2l-137 -204h-192l-137 204v2h124l109 -72l111 72h122z" />
    <glyph glyph-name="uni01CF" unicode="&#x1cf;" horiz-adv-x="352" 
d="M301 0h-250v700h250v-700zM419 937v-2l-138 -179h-210l-138 179v2h134l110 -62l110 62h132z" />
    <glyph glyph-name="uni01D0" unicode="&#x1d0;" horiz-adv-x="324" 
d="M279 0h-234v526h234v-526zM395 791v-2l-137 -204h-192l-137 204v2h124l109 -72l111 72h122z" />
    <glyph glyph-name="uni01D1" unicode="&#x1d1;" horiz-adv-x="816" 
d="M407 -14q-166 0 -274 103.5t-108 259.5q0 155 109.5 260t274.5 105t273.5 -104t108.5 -259q0 -156 -109 -260.5t-275 -104.5zM407 491q-56 0 -91.5 -39.5t-35.5 -100.5t36 -101.5t93 -40.5q56 0 91.5 39.5t35.5 100.5t-36.5 101.5t-92.5 40.5zM651 942v-2l-138 -179h-210
l-138 179v2h134l110 -62l110 62h132z" />
    <glyph glyph-name="uni01D2" unicode="&#x1d2;" horiz-adv-x="626" 
d="M313 -14q-128 0 -211 80t-83 197t83 197t211 80t211 -80t83 -197t-83 -197t-211 -80zM387 263q0 36 -21 59t-53 23t-53 -23t-21 -59t21 -59t53 -23t53 23t21 59zM546 796v-2l-137 -204h-192l-137 204v2h124l109 -72l111 72h122z" />
    <glyph glyph-name="uni01D3" unicode="&#x1d3;" horiz-adv-x="782" 
d="M390 -14q-170 0 -258 86.5t-88 253.5v374h250v-380q0 -54 25.5 -83.5t73.5 -29.5t73.5 29.5t25.5 83.5v380h246v-374q0 -166 -89 -253t-259 -87zM634 932v-2l-138 -179h-210l-138 179v2h134l110 -62l110 62h132z" />
    <glyph glyph-name="uni01D4" unicode="&#x1d4;" horiz-adv-x="654" 
d="M611 0h-224v93q-40 -56 -83.5 -81t-99.5 -25q-78 0 -122 52t-44 146v341h234v-276q0 -31 13 -46t40 -15q14 0 26 2t26 6v329h234v-526zM558 791v-2l-137 -204h-192l-137 204v2h124l109 -72l111 72h122z" />
    <glyph glyph-name="uni01D5" unicode="&#x1d5;" horiz-adv-x="782" 
d="M390 -14q-170 0 -258 86.5t-88 253.5v374h250v-380q0 -54 25.5 -83.5t73.5 -29.5t73.5 29.5t25.5 83.5v380h246v-374q0 -166 -89 -253t-259 -87zM175 996v122h432v-122h-432zM261 957q49 0 82 -30t33 -74t-33 -74t-82 -30t-82 30t-33 74t33 74t82 30zM521 957
q49 0 82 -30t33 -74t-33 -74t-82 -30t-82 30t-33 74t33 74t82 30z" />
    <glyph glyph-name="uni01D6" unicode="&#x1d6;" horiz-adv-x="654" 
d="M611 0h-224v93q-40 -56 -83.5 -81t-99.5 -25q-78 0 -122 52t-44 146v341h234v-276q0 -31 13 -46t40 -15q14 0 26 2t26 6v329h234v-526zM542 818h-434v112h434v-112zM197 577q-47 0 -79.5 29.5t-32.5 72.5t32.5 72.5t79.5 29.5t79.5 -29.5t32.5 -72.5t-32.5 -72.5
t-79.5 -29.5zM453 577q-47 0 -79.5 29.5t-32.5 72.5t32.5 72.5t79.5 29.5t79.5 -29.5t32.5 -72.5t-32.5 -72.5t-79.5 -29.5z" />
    <glyph glyph-name="uni01D7" unicode="&#x1d7;" horiz-adv-x="782" 
d="M390 -14q-170 0 -258 86.5t-88 253.5v374h250v-380q0 -54 25.5 -83.5t73.5 -29.5t73.5 29.5t25.5 83.5v380h246v-374q0 -166 -89 -253t-259 -87zM449 983h-125l58 158h257v-2zM261 749q-49 0 -82 30t-33 74t33 74t82 30t82 -30t33 -74t-33 -74t-82 -30zM521 749
q-49 0 -82 30t-33 74t33 74t82 30t82 -30t33 -74t-33 -74t-82 -30z" />
    <glyph glyph-name="uni01D8" unicode="&#x1d8;" horiz-adv-x="654" 
d="M611 0h-224v93q-40 -56 -83.5 -81t-99.5 -25q-78 0 -122 52t-44 146v341h234v-276q0 -31 13 -46t40 -15q14 0 26 2t26 6v329h234v-526zM374 807h-101l55 152h217v-2zM197 577q-47 0 -79.5 29.5t-32.5 72.5t32.5 72.5t79.5 29.5t79.5 -29.5t32.5 -72.5t-32.5 -72.5
t-79.5 -29.5zM453 577q-47 0 -79.5 29.5t-32.5 72.5t32.5 72.5t79.5 29.5t79.5 -29.5t32.5 -72.5t-32.5 -72.5t-79.5 -29.5z" />
    <glyph glyph-name="uni01D9" unicode="&#x1d9;" horiz-adv-x="782" 
d="M390 -14q-170 0 -258 86.5t-88 253.5v374h250v-380q0 -54 25.5 -83.5t73.5 -29.5t73.5 29.5t25.5 83.5v380h246v-374q0 -166 -89 -253t-259 -87zM634 1141v-2l-153 -156h-180l-153 156v2h139l105 -54l105 54h137zM261 957q49 0 82 -30t33 -74t-33 -74t-82 -30t-82 30
t-33 74t33 74t82 30zM521 957q49 0 82 -30t33 -74t-33 -74t-82 -30t-82 30t-33 74t33 74t82 30z" />
    <glyph glyph-name="uni01DA" unicode="&#x1da;" horiz-adv-x="654" 
d="M611 0h-224v93q-40 -56 -83.5 -81t-99.5 -25q-78 0 -122 52t-44 146v341h234v-276q0 -31 13 -46t40 -15q14 0 26 2t26 6v329h234v-526zM548 969v-2l-135 -159h-176l-135 159v2h128l94 -53l94 53h130zM197 577q-47 0 -79.5 29.5t-32.5 72.5t32.5 72.5t79.5 29.5
t79.5 -29.5t32.5 -72.5t-32.5 -72.5t-79.5 -29.5zM453 577q-47 0 -79.5 29.5t-32.5 72.5t32.5 72.5t79.5 29.5t79.5 -29.5t32.5 -72.5t-32.5 -72.5t-79.5 -29.5z" />
    <glyph glyph-name="uni01DB" unicode="&#x1db;" horiz-adv-x="782" 
d="M390 -14q-170 0 -258 86.5t-88 253.5v374h250v-380q0 -54 25.5 -83.5t73.5 -29.5t73.5 29.5t25.5 83.5v380h246v-374q0 -166 -89 -253t-259 -87zM400 1141l58 -158h-125l-190 156v2h257zM521 957q49 0 82 -30t33 -74t-33 -74t-82 -30t-82 30t-33 74t33 74t82 30zM261 957
q49 0 82 -30t33 -74t-33 -74t-82 -30t-82 30t-33 74t33 74t82 30z" />
    <glyph glyph-name="uni01DC" unicode="&#x1dc;" horiz-adv-x="654" 
d="M611 0h-224v93q-40 -56 -83.5 -81t-99.5 -25q-78 0 -122 52t-44 146v341h234v-276q0 -31 13 -46t40 -15q14 0 26 2t26 6v329h234v-526zM322 959l55 -152h-101l-171 150v2h217zM197 781q47 0 79.5 -29.5t32.5 -72.5t-32.5 -72.5t-79.5 -29.5t-79.5 29.5t-32.5 72.5
t32.5 72.5t79.5 29.5zM453 781q47 0 79.5 -29.5t32.5 -72.5t-32.5 -72.5t-79.5 -29.5t-79.5 29.5t-32.5 72.5t32.5 72.5t79.5 29.5z" />
    <glyph glyph-name="Gcaron" unicode="&#x1e6;" horiz-adv-x="746" 
d="M698 409v-357q-79 -31 -153 -46.5t-141 -15.5q-170 0 -274.5 95.5t-104.5 253.5q0 172 113 272t305 100q64 0 122 -11t117 -35v-227h-3q-62 28 -114 40.5t-103 12.5q-83 0 -131 -39.5t-48 -109.5q0 -69 44.5 -107t126.5 -38h16t9 1v64h-101v147h320zM653 942v-2
l-138 -179h-210l-138 179v2h134l110 -62l110 62h132z" />
    <glyph glyph-name="gcaron" unicode="&#x1e7;" horiz-adv-x="657" 
d="M614 531v-416q0 -143 -86 -224.5t-236 -81.5q-60 0 -111 11t-100 34l-31 186l3 2q68 -33 110 -44t92 -11q65 0 97.5 25t32.5 76v18q-33 -27 -68.5 -40t-78.5 -13q-95 0 -156 63.5t-61 163.5q0 115 77.5 183.5t202.5 68.5q39 0 80.5 -7t90.5 -21l128 27h14zM320 349
q-36 0 -57.5 -18.5t-21.5 -48.5q0 -32 21.5 -50t57.5 -18q16 0 31.5 3t33.5 9v113q-15 5 -31 7.5t-34 2.5zM569 791v-2l-137 -204h-192l-137 204v2h124l109 -72l111 72h122z" />
    <glyph glyph-name="uni01EA" unicode="&#x1ea;" horiz-adv-x="816" 
d="M535 -136l-23 -68q-32 -6 -58.5 -8.5t-50.5 -2.5q-70 0 -111 23t-41 62q0 24 15.5 46t61.5 57l22 17q-145 18 -235 118t-90 241q0 155 109.5 260t274.5 105t273.5 -104t108.5 -259q0 -136 -85 -235t-222 -123l-24 -37q-11 -16 -16 -28t-5 -22q0 -23 22.5 -32.5t71.5 -9.5
h2zM407 491q-56 0 -91.5 -39.5t-35.5 -100.5t36 -101.5t93 -40.5q56 0 91.5 39.5t35.5 100.5t-36.5 101.5t-92.5 40.5z" />
    <glyph glyph-name="uni01EB" unicode="&#x1eb;" horiz-adv-x="626" 
d="M440 -136l-23 -68q-32 -6 -58.5 -8.5t-50.5 -2.5q-70 0 -111 23t-41 62q0 24 15.5 46t61.5 57l23 18q-106 17 -171.5 93.5t-65.5 178.5q0 117 83 197t211 80t211 -80t83 -197q0 -97 -59.5 -171.5t-157.5 -96.5l-25 -39q-11 -16 -16 -28t-5 -22q0 -23 22.5 -32.5
t71.5 -9.5h2zM387 263q0 36 -21 59t-53 23t-53 -23t-21 -59t21 -59t53 -23t53 23t21 59z" />
    <glyph glyph-name="uni01F0" unicode="&#x1f0;" horiz-adv-x="326" 
d="M47 526h234v-474q0 -118 -62.5 -180.5t-178.5 -62.5q-25 0 -45.5 1.5t-36.5 5.5l-33 144l3 2q11 -2 19 -3t15 -1q42 0 63.5 19.5t21.5 57.5v491zM396 791v-2l-137 -204h-192l-137 204v2h124l109 -72l111 72h122z" />
    <glyph glyph-name="uni01F8" unicode="&#x1f8;" horiz-adv-x="822" 
d="M523 700h250v-700h-205l-272 311l3 -311h-250v700h247l230 -264zM395 932l87 -181h-129l-229 179v2h271z" />
    <glyph glyph-name="uni01F9" unicode="&#x1f9;" horiz-adv-x="654" 
d="M329 337q-14 0 -26 -2t-26 -6v-329h-234v513l224 18v-98q40 56 83.5 81t99.5 25q78 0 122 -52t44 -146v-341h-234v276q0 31 -13 46t-40 15zM306 791l90 -206h-113l-236 204v2h259z" />
    <glyph glyph-name="Aringacute" unicode="&#x1fa;" horiz-adv-x="846" 
d="M846 0h-266l-33 93h-256l-33 -93h-258l276 690q-4 12 -6 23.5t-2 22.5q0 59 44.5 100t109.5 41t109.5 -41t44.5 -100q0 -12 -2 -23t-5 -20zM499 736q0 30 -22 50t-55 20t-55 -20t-22 -50t22 -50t55 -20t55 20t22 50zM419 466l-68 -185h136zM477 912h-129l87 181h271v-2z
" />
    <glyph glyph-name="aringacute" unicode="&#x1fb;" horiz-adv-x="588" 
d="M557 13l-221 -18v61q-42 -34 -82 -50t-85 -16q-69 0 -110 38.5t-41 103.5q0 82 77 123.5t229 42.5q-5 33 -27.5 48.5t-63.5 15.5q-38 0 -82.5 -14.5t-86.5 -40.5l-4 4l26 182q46 22 96 32.5t108 10.5q133 0 200 -64.5t67 -191.5v-267zM219 162q0 -17 12.5 -26t34.5 -9
q14 0 29 2.5t31 6.5v77q-57 -5 -82 -16.5t-25 -34.5zM348 888h-81l53 142h185v-2zM311 571q-60 0 -102 41t-42 100t42 100t102 41t102 -41t42 -100t-42 -100t-102 -41zM378 712q0 30 -19 50t-48 20t-48 -20t-19 -50t19 -50t48 -20t48 20t19 50z" />
    <glyph glyph-name="AEacute" unicode="&#x1fc;" horiz-adv-x="1088" 
d="M245 0h-253l375 700h667l25 -205h-295v-60h242v-169h-242v-61h298l-25 -205h-518v93h-224zM519 506l-122 -225h122v225zM674 756h-129l87 181h271v-2z" />
    <glyph glyph-name="aeacute" unicode="&#x1fd;" horiz-adv-x="893" 
d="M867 186l-51 -162q-50 -19 -94 -26.5t-100 -7.5q-66 0 -121.5 20.5t-95.5 59.5q-60 -42 -116 -61t-120 -19q-69 0 -110 38.5t-41 103.5q0 82 76.5 123.5t229.5 42.5q-5 33 -27.5 48.5t-63.5 15.5q-38 0 -82.5 -14.5t-86.5 -40.5l-4 4l26 182q44 21 93.5 32t103.5 11
q51 0 93 -12.5t73 -37.5q34 26 76.5 40t89.5 14q121 0 189 -75.5t68 -204.5q0 -6 -1 -18.5t-2 -24.5h-329q16 -30 51 -46.5t84 -16.5q48 0 91.5 8t97.5 27zM608 393q-24 0 -40 -18t-20 -50h118q-3 31 -18.5 49.5t-39.5 18.5zM334 213q-61 -4 -88 -15.5t-27 -35.5
q0 -17 12.5 -26t34.5 -9q18 0 40 6t46 18q-6 14 -10.5 29.5t-7.5 32.5zM500 585h-113l90 206h259v-2z" />
    <glyph glyph-name="Oslashacute" unicode="&#x1fe;" horiz-adv-x="816" 
d="M791 351q0 -156 -109 -260.5t-275 -104.5q-47 0 -90.5 9t-83.5 27l-53 -65h-174l114 146q-46 48 -70.5 111.5t-24.5 134.5q0 155 109.5 260t274.5 105q46 0 89.5 -9t83.5 -27l54 65h174l-114 -147q46 -49 70.5 -112t24.5 -133zM410 499q-61 0 -99.5 -42.5t-38.5 -108.5
q0 -14 2 -28.5t6 -27.5l156 205q-9 1 -15 1.5t-11 0.5zM406 201q61 0 99.5 42.5t38.5 108.5q0 14 -2 28t-6 27l-156 -204q9 -1 15 -1.5t11 -0.5zM466 761h-129l87 181h271v-2z" />
    <glyph glyph-name="oslashacute" unicode="&#x1ff;" horiz-adv-x="626" 
d="M607 263q0 -117 -83 -197t-211 -80q-36 0 -70.5 7.5t-66.5 21.5l-38 -48h-138l90 111q-34 37 -52.5 85t-18.5 100q0 117 83 197t211 80q36 0 70.5 -7.5t66.5 -21.5l38 48h138l-90 -111q34 -37 52.5 -85t18.5 -100zM314 351q-37 0 -61 -25t-24 -65q0 -8 1.5 -16t3.5 -15
l96 119q-9 2 -11.5 2h-4.5zM312 175q37 0 61 25t24 65q0 8 -1.5 16t-3.5 15l-96 -119q9 -2 11.5 -2h4.5zM360 590h-113l90 206h259v-2z" />
    <glyph glyph-name="uni0218" unicode="&#x218;" horiz-adv-x="597" 
d="M246 254q-122 36 -171.5 88.5t-49.5 137.5q0 105 77.5 168.5t208.5 63.5q63 0 121.5 -13t105.5 -36v-211h-2q-49 27 -114.5 46.5t-110.5 19.5q-21 0 -31 -5.5t-10 -16.5q0 -12 17.5 -21.5t66.5 -23.5q127 -36 176.5 -88.5t49.5 -140.5q0 -109 -77.5 -171.5t-212.5 -62.5
q-67 0 -131.5 17t-111.5 47l-23 225l3 2q62 -41 136 -69t123 -28q25 0 37 6t12 19t-17 22t-72 25zM442 -143q0 -40 -49 -76t-151 -69l-102 41v4q42 21 60.5 36.5t18.5 31.5q0 17 -19.5 31t-63.5 29v6l225 59q43 -20 62 -41.5t19 -51.5z" />
    <glyph glyph-name="uni0219" unicode="&#x219;" horiz-adv-x="514" 
d="M309 343q107 -31 148 -71t41 -106q0 -81 -65.5 -129t-179.5 -48q-58 0 -109.5 12t-102.5 38l-21 170l3 2q63 -34 123.5 -52.5t110.5 -18.5q15 0 22 3t7 10q0 8 -15.5 15t-63.5 22q-106 32 -146 72.5t-40 103.5q0 78 64.5 124.5t176.5 46.5q58 0 106 -10t96 -33v-168h-3
q-47 28 -101 45t-96 17q-15 0 -23 -3.5t-8 -9.5t8.5 -10.5t67.5 -21.5zM398 -140q0 -40 -49 -76t-151 -69l-102 41v4q42 21 60.5 36.5t18.5 31.5q0 17 -19.5 31t-63.5 29v6l225 59q43 -20 62 -41.5t19 -51.5z" />
    <glyph glyph-name="uni021A" unicode="&#x21a;" horiz-adv-x="742" 
d="M713 700v-223h-217v-477h-250v477h-217v223h684zM519 -138q0 -40 -49 -76t-151 -69l-102 41v4q42 21 60.5 36.5t18.5 31.5q0 17 -19.5 31t-63.5 29v6l225 59q43 -20 62 -41.5t19 -51.5z" />
    <glyph glyph-name="uni021B" unicode="&#x21b;" horiz-adv-x="500" 
d="M474 207l-28 -180q-34 -18 -74.5 -27.5t-86.5 -9.5q-103 0 -152 56t-49 173v134h-68v173h68v108l232 40v-148h153v-173h-153v-108q0 -31 18 -47.5t51 -16.5q21 0 40.5 6t45.5 22zM414 -138q0 -40 -49 -76t-151 -69l-102 41v4q42 21 60.5 36.5t18.5 31.5q0 17 -19.5 31
t-63.5 29v6l225 59q43 -20 62 -41.5t19 -51.5z" />
    <glyph glyph-name="uni0226" unicode="&#x226;" horiz-adv-x="846" 
d="M258 0h-258l280 700h286l280 -700h-266l-33 93h-256zM419 466l-68 -185h136zM423 964q49 0 81.5 -31t32.5 -78t-32.5 -78t-81.5 -31t-81.5 31t-32.5 78t32.5 78t81.5 31z" />
    <glyph glyph-name="uni0227" unicode="&#x227;" horiz-adv-x="588" 
d="M557 13l-221 -18v61q-42 -34 -82 -50t-85 -16q-69 0 -110 38.5t-41 103.5q0 82 77 123.5t229 42.5q-5 33 -27.5 48.5t-63.5 15.5q-38 0 -82.5 -14.5t-86.5 -40.5l-4 4l26 182q46 22 96 32.5t108 10.5q133 0 200 -64.5t67 -191.5v-267zM219 162q0 -17 12.5 -26t34.5 -9
q14 0 29 2.5t31 6.5v77q-57 -5 -82 -16.5t-25 -34.5zM311 573q-47 0 -78.5 29.5t-31.5 75.5t31.5 75.5t78.5 29.5t78.5 -29.5t31.5 -75.5t-31.5 -75.5t-78.5 -29.5z" />
    <glyph glyph-name="uni022E" unicode="&#x22e;" horiz-adv-x="816" 
d="M407 -14q-166 0 -274 103.5t-108 259.5q0 155 109.5 260t274.5 105t273.5 -104t108.5 -259q0 -156 -109 -260.5t-275 -104.5zM407 491q-56 0 -91.5 -39.5t-35.5 -100.5t36 -101.5t93 -40.5q56 0 91.5 39.5t35.5 100.5t-36.5 101.5t-92.5 40.5zM408 969q49 0 81.5 -31
t32.5 -78t-32.5 -78t-81.5 -31t-81.5 31t-32.5 78t32.5 78t81.5 31z" />
    <glyph glyph-name="uni022F" unicode="&#x22f;" horiz-adv-x="626" 
d="M313 -14q-128 0 -211 80t-83 197t83 197t211 80t211 -80t83 -197t-83 -197t-211 -80zM387 263q0 36 -21 59t-53 23t-53 -23t-21 -59t21 -59t53 -23t53 23t21 59zM313 578q-47 0 -78.5 29.5t-31.5 75.5t31.5 75.5t78.5 29.5t78.5 -29.5t31.5 -75.5t-31.5 -75.5
t-78.5 -29.5z" />
    <glyph glyph-name="uni0232" unicode="&#x232;" horiz-adv-x="758" 
d="M491 700h272l-259 -447v-253h-250v253l-259 447h286l105 -212zM150 772v142h458v-142h-458z" />
    <glyph glyph-name="uni0233" unicode="&#x233;" horiz-adv-x="652" 
d="M652 526l-165 -457q-48 -134 -123 -197t-187 -63q-24 0 -47 3t-45 10l-45 201l3 2q19 -8 39 -12t43 -4q28 0 48 5t35 16l-208 496h251l85 -245l70 245h246zM119 601v132h434v-132h-434z" />
    <glyph glyph-name="uni0237" unicode="&#x237;" horiz-adv-x="326" 
d="M47 526h234v-474q0 -118 -62.5 -180.5t-178.5 -62.5q-25 0 -45.5 1.5t-36.5 5.5l-33 144l3 2q11 -2 19 -3t15 -1q42 0 63.5 19.5t21.5 57.5v491z" />
    <glyph glyph-name="uni0259" unicode="&#x259;" horiz-adv-x="583" 
d="M271 536q132 0 212.5 -76t80.5 -201q0 -117 -79 -195t-199 -78q-125 0 -195 75.5t-70 204.5q0 6 1 18.5t2 24.5h321q-14 31 -46.5 47t-80.5 16t-91.5 -8t-97.5 -27l-3 3l51 162q50 19 94 26.5t100 7.5zM285 133q24 0 40 18t20 50h-118q3 -31 18.5 -49.5t39.5 -18.5z" />
    <glyph glyph-name="uni02B9" unicode="&#x2b9;" horiz-adv-x="350" 
d="M28 402l53 298h261l-208 -322z" />
    <glyph glyph-name="uni02BA" unicode="&#x2ba;" horiz-adv-x="621" 
d="M28 402l53 298h251l-200 -322zM309 402l53 298h251l-200 -322z" />
    <glyph glyph-name="uni02BB" unicode="&#x2bb;" horiz-adv-x="310" 
d="M229 514q0 -30 11 -60.5t53 -109.5h-244q-16 35 -22.5 62t-6.5 54q0 58 51 120t155 129l68 -37q-44 -67 -54.5 -95.5t-10.5 -62.5z" />
    <glyph glyph-name="uni02BC" unicode="&#x2bc;" horiz-adv-x="310" 
d="M81 530q0 30 -11 60.5t-53 109.5h244q16 -35 22.5 -62t6.5 -54q0 -58 -51 -120t-155 -129l-68 37q44 67 54.5 95.5t10.5 62.5z" />
    <glyph glyph-name="uni02BE" unicode="&#x2be;" horiz-adv-x="216" 
d="M194 670q0 -64 -44.5 -102.5t-119.5 -38.5v75q39 0 60.5 17.5t21.5 48.5t-21.5 48.5t-60.5 17.5v75q75 0 119.5 -38.5t44.5 -102.5z" />
    <glyph glyph-name="uni02BF" unicode="&#x2bf;" horiz-adv-x="216" 
d="M22 670q0 64 44.5 102.5t119.5 38.5v-75q-39 0 -60.5 -17.5t-21.5 -48.5t21.5 -48.5t60.5 -17.5v-75q-75 0 -119.5 38.5t-44.5 102.5z" />
    <glyph glyph-name="circumflex" unicode="&#x2c6;" horiz-adv-x="500" 
d="M483 585h-124l-109 72l-111 -72h-122v2l137 204h192l137 -204v-2z" />
    <glyph glyph-name="caron" unicode="&#x2c7;" horiz-adv-x="500" 
d="M483 791v-2l-137 -204h-192l-137 204v2h124l109 -72l111 72h122z" />
    <glyph glyph-name="uni02C8" unicode="&#x2c8;" horiz-adv-x="164" 
d="M124 534h-84v272h84v-272z" />
    <glyph glyph-name="uni02CC" unicode="&#x2cc;" horiz-adv-x="164" 
d="M124 -184h-84v272h84v-272z" />
    <glyph glyph-name="uni02CD" unicode="&#x2cd;" horiz-adv-x="500" 
d="M33 -202v132h434v-132h-434z" />
    <glyph glyph-name="breve" unicode="&#x2d8;" horiz-adv-x="500" 
d="M250 575q-66 0 -120 33t-111 113l80 78q39 -40 74 -57.5t77 -17.5q41 0 76.5 17.5t74.5 57.5l80 -77q-58 -80 -111.5 -113.5t-119.5 -33.5z" />
    <glyph glyph-name="dotaccent" unicode="&#x2d9;" horiz-adv-x="500" 
d="M250 573q-47 0 -78.5 29.5t-31.5 75.5t31.5 75.5t78.5 29.5t78.5 -29.5t31.5 -75.5t-31.5 -75.5t-78.5 -29.5z" />
    <glyph glyph-name="ring" unicode="&#x2da;" horiz-adv-x="500" 
d="M250 571q-60 0 -102 41t-42 100t42 100t102 41t102 -41t42 -100t-42 -100t-102 -41zM317 712q0 30 -19 50t-48 20t-48 -20t-19 -50t19 -50t48 -20t48 20t19 50z" />
    <glyph glyph-name="ogonek" unicode="&#x2db;" horiz-adv-x="500" 
d="M377 -131l-23 -68q-32 -6 -58.5 -8.5t-50.5 -2.5q-70 0 -111 23t-41 62q0 24 15.5 46t61.5 57l42 32h122l-32 -49q-11 -16 -16 -28t-5 -22q0 -23 22.5 -32.5t71.5 -9.5h2z" />
    <glyph glyph-name="tilde" unicode="&#x2dc;" horiz-adv-x="500" 
d="M254 762q34 -17 48 -22t23 -5q14 0 26.5 9t48.5 50l88 -58q-49 -91 -82.5 -125.5t-76.5 -34.5q-12 0 -29 6t-54 24q-34 17 -48 22t-23 5q-14 0 -26.5 -9t-48.5 -50l-88 58q49 91 82.5 125.5t76.5 34.5q12 0 29 -6t54 -24z" />
    <glyph glyph-name="hungarumlaut" unicode="&#x2dd;" horiz-adv-x="500" 
d="M195 585h-103l90 206h429v-2l-216 -204h-103l68 156z" />
    <glyph glyph-name="uni0300" unicode="&#x300;" 
d="M-24 791l90 -206h-113l-236 204v2h259z" />
    <glyph glyph-name="uni0301" unicode="&#x301;" 
d="M47 585h-113l90 206h259v-2z" />
    <glyph glyph-name="uni0302" unicode="&#x302;" 
d="M233 585h-124l-109 72l-111 -72h-122v2l137 204h192l137 -204v-2z" />
    <glyph glyph-name="uni0303" unicode="&#x303;" 
d="M4 762q34 -17 48 -22t23 -5q14 0 26.5 9t48.5 50l88 -58q-49 -91 -82.5 -125.5t-76.5 -34.5q-12 0 -29 6t-54 24q-34 17 -48 22t-23 5q-14 0 -26.5 -9t-48.5 -50l-88 58q49 91 82.5 125.5t76.5 34.5q12 0 29 -6t54 -24z" />
    <glyph glyph-name="uni0304" unicode="&#x304;" 
d="M-217 601v132h434v-132h-434z" />
    <glyph glyph-name="uni0306" unicode="&#x306;" 
d="M0 575q-66 0 -120 33t-111 113l80 78q39 -40 74 -57.5t77 -17.5q41 0 76.5 17.5t74.5 57.5l80 -77q-58 -80 -111.5 -113.5t-119.5 -33.5z" />
    <glyph glyph-name="uni0307" unicode="&#x307;" 
d="M0 573q-47 0 -78.5 29.5t-31.5 75.5t31.5 75.5t78.5 29.5t78.5 -29.5t31.5 -75.5t-31.5 -75.5t-78.5 -29.5z" />
    <glyph glyph-name="uni0308" unicode="&#x308;" 
d="M-128 577q-49 0 -81.5 31t-32.5 78t32.5 78t81.5 31t81.5 -31t32.5 -78t-32.5 -78t-81.5 -31zM128 577q-49 0 -81.5 31t-32.5 78t32.5 78t81.5 31t81.5 -31t32.5 -78t-32.5 -78t-81.5 -31z" />
    <glyph glyph-name="uni0309" unicode="&#x309;" 
d="M169 750q0 -45 -30.5 -83.5t-119.5 -98.5l-94 31v2q53 46 72 66.5t19 33.5q0 10 -7 15.5t-21 5.5q-21 0 -54.5 -12.5t-68.5 -32.5h-2v132q39 23 82.5 35.5t85.5 12.5q64 0 101 -29.5t37 -77.5z" />
    <glyph glyph-name="uni030A" unicode="&#x30a;" 
d="M0 571q-60 0 -102 41t-42 100t42 100t102 41t102 -41t42 -100t-42 -100t-102 -41zM67 712q0 30 -19 50t-48 20t-48 -20t-19 -50t19 -50t48 -20t48 20t19 50z" />
    <glyph glyph-name="uni030B" unicode="&#x30b;" 
d="M-55 585h-103l90 206h429v-2l-216 -204h-103l68 156z" />
    <glyph glyph-name="uni030C" unicode="&#x30c;" 
d="M233 791v-2l-137 -204h-192l-137 204v2h124l109 -72l111 72h122z" />
    <glyph glyph-name="uni0312" unicode="&#x312;" 
d="M-148 668q0 40 49 76t151 69l102 -41v-4q-42 -21 -60.5 -36.5t-18.5 -31.5q0 -17 19.5 -31t63.5 -29v-6l-225 -59q-43 20 -62 41.5t-19 51.5z" />
    <glyph glyph-name="uni0315" unicode="&#x315;" 
d="M82 585h-82q8 21 12 45t4 51q0 26 -4 50.5t-12 44.5h157q1 -7 2 -15t1 -16q0 -40 -19 -79.5t-59 -80.5z" />
    <glyph glyph-name="uni0323" unicode="&#x323;" 
d="M0 -253q-47 0 -78.5 29.5t-31.5 75.5t31.5 75.5t78.5 29.5t78.5 -29.5t31.5 -75.5t-31.5 -75.5t-78.5 -29.5z" />
    <glyph glyph-name="uni0324" unicode="&#x324;" 
d="M-128 -265q-49 0 -81.5 31t-32.5 78t32.5 78t81.5 31t81.5 -31t32.5 -78t-32.5 -78t-81.5 -31zM128 -265q-49 0 -81.5 31t-32.5 78t32.5 78t81.5 31t81.5 -31t32.5 -78t-32.5 -78t-81.5 -31z" />
    <glyph glyph-name="uni0326" unicode="&#x326;" 
d="M148 -138q0 -40 -49 -76t-151 -69l-102 41v4q42 21 60.5 36.5t18.5 31.5q0 17 -19.5 31t-63.5 29v6l225 59q43 -20 62 -41.5t19 -51.5z" />
    <glyph glyph-name="uni0327" unicode="&#x327;" 
d="M168 -133q0 -47 -53.5 -76.5t-144.5 -29.5q-34 0 -64 3.5t-60 11.5l-26 75l4 4q38 -9 65 -12.5t56 -3.5t44 7.5t15 22.5q0 14 -16.5 21t-50.5 7q-13 0 -28.5 -0.5t-35.5 -2.5l-4 4l85 112h119l-45 -54q70 -5 105 -27.5t35 -61.5z" />
    <glyph glyph-name="uni0328" unicode="&#x328;" 
d="M127 -131l-23 -68q-32 -6 -58.5 -8.5t-50.5 -2.5q-70 0 -111 23t-41 62q0 24 15.5 46t61.5 57l42 32h122l-32 -49q-11 -16 -16 -28t-5 -22q0 -23 22.5 -32.5t71.5 -9.5h2z" />
    <glyph glyph-name="uni032D" unicode="&#x32d;" 
d="M233 -261h-124l-109 72l-111 -72h-122v2l137 204h192l137 -204v-2z" />
    <glyph glyph-name="uni032E" unicode="&#x32e;" 
d="M0 -268q-66 0 -120 33t-111 113l80 78q39 -40 74 -57.5t77 -17.5q41 0 76.5 17.5t74.5 57.5l80 -77q-58 -80 -111.5 -113.5t-119.5 -33.5z" />
    <glyph glyph-name="uni0331" unicode="&#x331;" 
d="M-217 -203v132h434v-132h-434z" />
    <glyph glyph-name="uni0E3F" unicode="&#xe3f;" horiz-adv-x="652" 
d="M525 364q50 -26 76.5 -67t26.5 -94q0 -87 -62 -141t-169 -61v-113h-167v112h-181v700h181v100h167v-102q99 -8 154 -57t55 -128q0 -44 -21 -83t-60 -66zM321 527h-49v-102h49q31 0 47 13.5t16 39.5q0 24 -16 36.5t-47 12.5zM272 276v-105h55q34 0 51 13t17 38
q0 27 -16.5 40.5t-51.5 13.5h-55z" />
    <glyph glyph-name="uni1E06" unicode="&#x1e06;" horiz-adv-x="678" 
d="M539 364q57 -25 86 -65.5t29 -95.5q0 -94 -73 -148.5t-195 -54.5h-337v700h329q119 0 186.5 -50t67.5 -137q0 -45 -24 -83.5t-69 -65.5zM340 522h-57v-97h57q30 0 45 12.5t15 37.5q0 23 -15 35t-45 12zM283 276v-100h63q32 0 48.5 12.5t16.5 36.5q0 26 -16 38.5t-49 12.5
h-63zM128 -203v132h434v-132h-434z" />
    <glyph glyph-name="uni1E07" unicode="&#x1e07;" horiz-adv-x="652" 
d="M415 535q95 0 155.5 -72.5t60.5 -189.5q0 -123 -81.5 -201t-208.5 -78q-38 0 -77 7.5t-78 21.5l-129 -28h-14v712l234 48v-276q29 29 63 42.5t75 13.5zM411 266q0 39 -23.5 61t-64.5 22q-11 0 -22.5 -1.5t-23.5 -4.5v-158q10 -3 20 -4t20 -1q43 0 68.5 23t25.5 63z
M108 -203v132h434v-132h-434z" />
    <glyph glyph-name="uni1E0C" unicode="&#x1e0c;" horiz-adv-x="772" 
d="M331 0h-282v700h282q201 0 308.5 -90.5t107.5 -258.5q0 -165 -109 -258t-307 -93zM492 349q0 68 -41.5 103t-121.5 35h-30v-274h30q80 0 121.5 35t41.5 101zM374 -253q-47 0 -78.5 29.5t-31.5 75.5t31.5 75.5t78.5 29.5t78.5 -29.5t31.5 -75.5t-31.5 -75.5t-78.5 -29.5z
" />
    <glyph glyph-name="uni1E0D" unicode="&#x1e0d;" horiz-adv-x="657" 
d="M614 0h-224v72q-35 -42 -74 -62t-87 -20q-90 0 -149 73.5t-59 185.5q0 123 66.5 203.5t170.5 80.5q32 0 62.5 -10t59.5 -30v214l234 48v-755zM320 346q-36 0 -57.5 -23t-21.5 -62t20.5 -61t57.5 -22q14 0 29 3t32 10v141q-17 7 -31 10.5t-29 3.5zM329 -253
q-47 0 -78.5 29.5t-31.5 75.5t31.5 75.5t78.5 29.5t78.5 -29.5t31.5 -75.5t-31.5 -75.5t-78.5 -29.5z" />
    <glyph glyph-name="uni1E0E" unicode="&#x1e0e;" horiz-adv-x="772" 
d="M331 0h-282v700h282q201 0 308.5 -90.5t107.5 -258.5q0 -165 -109 -258t-307 -93zM492 349q0 68 -41.5 103t-121.5 35h-30v-274h30q80 0 121.5 35t41.5 101zM157 -203v132h434v-132h-434z" />
    <glyph glyph-name="uni1E0F" unicode="&#x1e0f;" horiz-adv-x="657" 
d="M614 0h-224v72q-35 -42 -74 -62t-87 -20q-90 0 -149 73.5t-59 185.5q0 123 66.5 203.5t170.5 80.5q32 0 62.5 -10t59.5 -30v214l234 48v-755zM320 346q-36 0 -57.5 -23t-21.5 -62t20.5 -61t57.5 -22q14 0 29 3t32 10v141q-17 7 -31 10.5t-29 3.5zM112 -203v132h434v-132
h-434z" />
    <glyph glyph-name="uni1E12" unicode="&#x1e12;" horiz-adv-x="772" 
d="M331 0h-282v700h282q201 0 308.5 -90.5t107.5 -258.5q0 -165 -109 -258t-307 -93zM492 349q0 68 -41.5 103t-121.5 35h-30v-274h30q80 0 121.5 35t41.5 101zM607 -261h-124l-109 72l-111 -72h-122v2l137 204h192l137 -204v-2z" />
    <glyph glyph-name="uni1E13" unicode="&#x1e13;" horiz-adv-x="657" 
d="M614 0h-224v72q-35 -42 -74 -62t-87 -20q-90 0 -149 73.5t-59 185.5q0 123 66.5 203.5t170.5 80.5q32 0 62.5 -10t59.5 -30v214l234 48v-755zM320 346q-36 0 -57.5 -23t-21.5 -62t20.5 -61t57.5 -22q14 0 29 3t32 10v141q-17 7 -31 10.5t-29 3.5zM562 -261h-124l-109 72
l-111 -72h-122v2l137 204h192l137 -204v-2z" />
    <glyph glyph-name="uni1E20" unicode="&#x1e20;" horiz-adv-x="746" 
d="M698 409v-357q-79 -31 -153 -46.5t-141 -15.5q-170 0 -274.5 95.5t-104.5 253.5q0 172 113 272t305 100q64 0 122 -11t117 -35v-227h-3q-62 28 -114 40.5t-103 12.5q-83 0 -131 -39.5t-48 -109.5q0 -69 44.5 -107t126.5 -38h16t9 1v64h-101v147h320zM181 777v142h458
v-142h-458z" />
    <glyph glyph-name="uni1E21" unicode="&#x1e21;" horiz-adv-x="657" 
d="M614 531v-416q0 -143 -86 -224.5t-236 -81.5q-60 0 -111 11t-100 34l-31 186l3 2q68 -33 110 -44t92 -11q65 0 97.5 25t32.5 76v18q-33 -27 -68.5 -40t-78.5 -13q-95 0 -156 63.5t-61 163.5q0 115 77.5 183.5t202.5 68.5q39 0 80.5 -7t90.5 -21l128 27h14zM320 349
q-36 0 -57.5 -18.5t-21.5 -48.5q0 -32 21.5 -50t57.5 -18q16 0 31.5 3t33.5 9v113q-15 5 -31 7.5t-34 2.5zM119 601v132h434v-132h-434z" />
    <glyph glyph-name="uni1E24" unicode="&#x1e24;" horiz-adv-x="804" 
d="M755 0h-250v238h-206v-238h-250v700h250v-234h206v234h250v-700zM402 -248q-47 0 -78.5 29.5t-31.5 75.5t31.5 75.5t78.5 29.5t78.5 -29.5t31.5 -75.5t-31.5 -75.5t-78.5 -29.5z" />
    <glyph glyph-name="uni1E25" unicode="&#x1e25;" horiz-adv-x="654" 
d="M329 337q-14 0 -26 -2t-26 -6v-329h-234v707l234 48v-309q38 49 79 71t94 22q78 0 122 -52t44 -146v-341h-234v276q0 31 -13 46t-40 15zM330 -253q-47 0 -78.5 29.5t-31.5 75.5t31.5 75.5t78.5 29.5t78.5 -29.5t31.5 -75.5t-31.5 -75.5t-78.5 -29.5z" />
    <glyph glyph-name="uni1E28" unicode="&#x1e28;" horiz-adv-x="804" 
d="M340 -133q0 -47 -53.5 -76.5t-144.5 -29.5q-34 0 -64 3.5t-60 11.5l-26 75l4 4q38 -9 65 -12.5t56 -3.5t44 7.5t15 22.5q0 14 -16.5 21t-50.5 7q-13 0 -28.5 -0.5t-35.5 -2.5l-4 4l77 102h-69v700h250v-234h206v234h250v-700h-250v238h-206v-238h-62l-37 -44
q70 -5 105 -27.5t35 -61.5z" />
    <glyph glyph-name="uni1E29" unicode="&#x1e29;" horiz-adv-x="654" 
d="M327 -133q0 -47 -53.5 -76.5t-144.5 -29.5q-34 0 -64 3.5t-60 11.5l-26 75l4 4q38 -9 65 -12.5t56 -3.5t44 7.5t15 22.5q0 14 -16.5 21t-50.5 7q-13 0 -28.5 -0.5t-35.5 -2.5l-4 4l77 102h-62v707l234 48v-309q38 49 79 71t94 22q78 0 122 -52t44 -146v-341h-234v276
q0 31 -13 46t-40 15q-14 0 -26 -2t-26 -6v-329h-53l-37 -44q70 -5 105 -27.5t35 -61.5z" />
    <glyph glyph-name="uni1E2A" unicode="&#x1e2a;" horiz-adv-x="804" 
d="M755 0h-250v238h-206v-238h-250v700h250v-234h206v234h250v-700zM402 -268q-66 0 -120 33t-111 113l80 78q39 -40 74 -57.5t77 -17.5q41 0 76.5 17.5t74.5 57.5l80 -77q-58 -80 -111.5 -113.5t-119.5 -33.5z" />
    <glyph glyph-name="uni1E2B" unicode="&#x1e2b;" horiz-adv-x="654" 
d="M329 337q-14 0 -26 -2t-26 -6v-329h-234v707l234 48v-309q38 49 79 71t94 22q78 0 122 -52t44 -146v-341h-234v276q0 31 -13 46t-40 15zM330 -268q-66 0 -120 33t-111 113l80 78q39 -40 74 -57.5t77 -17.5q41 0 76.5 17.5t74.5 57.5l80 -77q-58 -80 -111.5 -113.5
t-119.5 -33.5z" />
    <glyph glyph-name="uni1E32" unicode="&#x1e32;" horiz-adv-x="782" 
d="M787 0h-304l-174 263h-10v-263h-250v700h250v-252h11l176 252h295v-2l-251 -333l257 -363v-2zM384 -248q-47 0 -78.5 29.5t-31.5 75.5t31.5 75.5t78.5 29.5t78.5 -29.5t31.5 -75.5t-31.5 -75.5t-78.5 -29.5z" />
    <glyph glyph-name="uni1E33" unicode="&#x1e33;" horiz-adv-x="639" 
d="M647 0h-266l-94 197h-10v-197h-234v707l234 48v-425h10l99 196h252v-2l-141 -249l150 -273v-2zM332 -253q-47 0 -78.5 29.5t-31.5 75.5t31.5 75.5t78.5 29.5t78.5 -29.5t31.5 -75.5t-31.5 -75.5t-78.5 -29.5z" />
    <glyph glyph-name="uni1E34" unicode="&#x1e34;" horiz-adv-x="782" 
d="M787 0h-304l-174 263h-10v-263h-250v700h250v-252h11l176 252h295v-2l-251 -333l257 -363v-2zM167 -203v132h434v-132h-434z" />
    <glyph glyph-name="uni1E35" unicode="&#x1e35;" horiz-adv-x="639" 
d="M647 0h-266l-94 197h-10v-197h-234v707l234 48v-425h10l99 196h252v-2l-141 -249l150 -273v-2zM115 -203v132h434v-132h-434z" />
    <glyph glyph-name="uni1E36" unicode="&#x1e36;" horiz-adv-x="583" 
d="M559 0h-510v700h250v-477h260v-223zM307 -253q-47 0 -78.5 29.5t-31.5 75.5t31.5 75.5t78.5 29.5t78.5 -29.5t31.5 -75.5t-31.5 -75.5t-78.5 -29.5z" />
    <glyph glyph-name="uni1E37" unicode="&#x1e37;" horiz-adv-x="324" 
d="M279 0h-234v707l234 48v-755zM162 -253q-47 0 -78.5 29.5t-31.5 75.5t31.5 75.5t78.5 29.5t78.5 -29.5t31.5 -75.5t-31.5 -75.5t-78.5 -29.5z" />
    <glyph glyph-name="uni1E38" unicode="&#x1e38;" horiz-adv-x="583" 
d="M559 0h-510v700h250v-477h260v-223zM-15 772v142h378v-142h-378zM307 -253q-47 0 -78.5 29.5t-31.5 75.5t31.5 75.5t78.5 29.5t78.5 -29.5t31.5 -75.5t-31.5 -75.5t-78.5 -29.5z" />
    <glyph glyph-name="uni1E39" unicode="&#x1e39;" horiz-adv-x="324" 
d="M279 0h-234v707l234 48v-755zM-27 801v132h378v-132h-378zM162 -253q-47 0 -78.5 29.5t-31.5 75.5t31.5 75.5t78.5 29.5t78.5 -29.5t31.5 -75.5t-31.5 -75.5t-78.5 -29.5z" />
    <glyph glyph-name="uni1E3A" unicode="&#x1e3a;" horiz-adv-x="583" 
d="M559 0h-510v700h250v-477h260v-223zM90 -203v132h434v-132h-434z" />
    <glyph glyph-name="uni1E3B" unicode="&#x1e3b;" horiz-adv-x="324" 
d="M279 0h-234v707l234 48v-755zM-27 -203v132h378v-132h-378z" />
    <glyph glyph-name="uni1E3C" unicode="&#x1e3c;" horiz-adv-x="583" 
d="M559 0h-510v700h250v-477h260v-223zM540 -261h-124l-109 72l-111 -72h-122v2l137 204h192l137 -204v-2z" />
    <glyph glyph-name="uni1E3D" unicode="&#x1e3d;" horiz-adv-x="324" 
d="M279 0h-234v707l234 48v-755zM395 -261h-124l-109 72l-111 -72h-122v2l137 204h192l137 -204v-2z" />
    <glyph glyph-name="uni1E3E" unicode="&#x1e3e;" horiz-adv-x="1022" 
d="M49 700h329l135 -266l133 266h327v-700h-242v388l-214 -397h-12l-216 397v-388h-240v700zM569 746h-129l87 181h271v-2z" />
    <glyph glyph-name="uni1E3F" unicode="&#x1e3f;" horiz-adv-x="979" 
d="M322 337q-11 0 -22 -1.5t-23 -4.5v-331h-234v513l224 18v-88q39 50 80.5 73t95.5 23q52 0 90 -24t58 -70q39 49 81.5 71.5t97.5 22.5q81 0 126 -52t45 -146v-341h-234v276q0 31 -13 46t-40 15q-11 0 -22 -1.5t-23 -4.5v-331h-234v276q0 31 -13 46t-40 15zM539 585h-113
l90 206h259v-2z" />
    <glyph glyph-name="uni1E40" unicode="&#x1e40;" horiz-adv-x="1022" 
d="M49 700h329l135 -266l133 266h327v-700h-242v388l-214 -397h-12l-216 397v-388h-240v700zM511 954q49 0 81.5 -31t32.5 -78t-32.5 -78t-81.5 -31t-81.5 31t-32.5 78t32.5 78t81.5 31z" />
    <glyph glyph-name="uni1E41" unicode="&#x1e41;" horiz-adv-x="979" 
d="M322 337q-11 0 -22 -1.5t-23 -4.5v-331h-234v513l224 18v-88q39 50 80.5 73t95.5 23q52 0 90 -24t58 -70q39 49 81.5 71.5t97.5 22.5q81 0 126 -52t45 -146v-341h-234v276q0 31 -13 46t-40 15q-11 0 -22 -1.5t-23 -4.5v-331h-234v276q0 31 -13 46t-40 15zM492 573
q-47 0 -78.5 29.5t-31.5 75.5t31.5 75.5t78.5 29.5t78.5 -29.5t31.5 -75.5t-31.5 -75.5t-78.5 -29.5z" />
    <glyph glyph-name="uni1E42" unicode="&#x1e42;" horiz-adv-x="1022" 
d="M49 700h329l135 -266l133 266h327v-700h-242v388l-214 -397h-12l-216 397v-388h-240v700zM511 -258q-47 0 -78.5 29.5t-31.5 75.5t31.5 75.5t78.5 29.5t78.5 -29.5t31.5 -75.5t-31.5 -75.5t-78.5 -29.5z" />
    <glyph glyph-name="uni1E43" unicode="&#x1e43;" horiz-adv-x="979" 
d="M322 337q-11 0 -22 -1.5t-23 -4.5v-331h-234v513l224 18v-88q39 50 80.5 73t95.5 23q52 0 90 -24t58 -70q39 49 81.5 71.5t97.5 22.5q81 0 126 -52t45 -146v-341h-234v276q0 31 -13 46t-40 15q-11 0 -22 -1.5t-23 -4.5v-331h-234v276q0 31 -13 46t-40 15zM492 -253
q-47 0 -78.5 29.5t-31.5 75.5t31.5 75.5t78.5 29.5t78.5 -29.5t31.5 -75.5t-31.5 -75.5t-78.5 -29.5z" />
    <glyph glyph-name="uni1E44" unicode="&#x1e44;" horiz-adv-x="822" 
d="M523 700h250v-700h-205l-272 311l3 -311h-250v700h247l230 -264zM411 959q49 0 81.5 -31t32.5 -78t-32.5 -78t-81.5 -31t-81.5 31t-32.5 78t32.5 78t81.5 31z" />
    <glyph glyph-name="uni1E45" unicode="&#x1e45;" horiz-adv-x="654" 
d="M329 337q-14 0 -26 -2t-26 -6v-329h-234v513l224 18v-98q40 56 83.5 81t99.5 25q78 0 122 -52t44 -146v-341h-234v276q0 31 -13 46t-40 15zM330 573q-47 0 -78.5 29.5t-31.5 75.5t31.5 75.5t78.5 29.5t78.5 -29.5t31.5 -75.5t-31.5 -75.5t-78.5 -29.5z" />
    <glyph glyph-name="uni1E46" unicode="&#x1e46;" horiz-adv-x="822" 
d="M523 700h250v-700h-205l-272 311l3 -311h-250v700h247l230 -264zM411 -248q-47 0 -78.5 29.5t-31.5 75.5t31.5 75.5t78.5 29.5t78.5 -29.5t31.5 -75.5t-31.5 -75.5t-78.5 -29.5z" />
    <glyph glyph-name="uni1E47" unicode="&#x1e47;" horiz-adv-x="654" 
d="M329 337q-14 0 -26 -2t-26 -6v-329h-234v513l224 18v-98q40 56 83.5 81t99.5 25q78 0 122 -52t44 -146v-341h-234v276q0 31 -13 46t-40 15zM330 -253q-47 0 -78.5 29.5t-31.5 75.5t31.5 75.5t78.5 29.5t78.5 -29.5t31.5 -75.5t-31.5 -75.5t-78.5 -29.5z" />
    <glyph glyph-name="uni1E48" unicode="&#x1e48;" horiz-adv-x="822" 
d="M523 700h250v-700h-205l-272 311l3 -311h-250v700h247l230 -264zM194 -203v132h434v-132h-434z" />
    <glyph glyph-name="uni1E49" unicode="&#x1e49;" horiz-adv-x="654" 
d="M329 337q-14 0 -26 -2t-26 -6v-329h-234v513l224 18v-98q40 56 83.5 81t99.5 25q78 0 122 -52t44 -146v-341h-234v276q0 31 -13 46t-40 15zM113 -203v132h434v-132h-434z" />
    <glyph glyph-name="uni1E4A" unicode="&#x1e4a;" horiz-adv-x="822" 
d="M523 700h250v-700h-205l-272 311l3 -311h-250v700h247l230 -264zM644 -256h-124l-109 72l-111 -72h-122v2l137 204h192l137 -204v-2z" />
    <glyph glyph-name="uni1E4B" unicode="&#x1e4b;" horiz-adv-x="654" 
d="M329 337q-14 0 -26 -2t-26 -6v-329h-234v513l224 18v-98q40 56 83.5 81t99.5 25q78 0 122 -52t44 -146v-341h-234v276q0 31 -13 46t-40 15zM563 -261h-124l-109 72l-111 -72h-122v2l137 204h192l137 -204v-2z" />
    <glyph glyph-name="uni1E58" unicode="&#x1e58;" horiz-adv-x="715" 
d="M740 0h-290l-151 211v-211h-250v700h301q155 0 232 -57.5t77 -173.5q0 -65 -30 -118t-86 -86zM414 446q0 32 -21.5 49t-61.5 17h-36v-135h36q40 0 61.5 18t21.5 51zM333 964q49 0 81.5 -31t32.5 -78t-32.5 -78t-81.5 -31t-81.5 31t-32.5 78t32.5 78t81.5 31z" />
    <glyph glyph-name="uni1E59" unicode="&#x1e59;" horiz-adv-x="488" 
d="M424 290q-38 0 -75 -6t-72 -18v-266h-234v513l224 18v-147q46 79 84 114.5t79 35.5q8 0 15 -1t18 -3l13 -243q-11 2 -23 2.5t-29 0.5zM260 573q-47 0 -78.5 29.5t-31.5 75.5t31.5 75.5t78.5 29.5t78.5 -29.5t31.5 -75.5t-31.5 -75.5t-78.5 -29.5z" />
    <glyph glyph-name="uni1E5A" unicode="&#x1e5a;" horiz-adv-x="715" 
d="M740 0h-290l-151 211v-211h-250v700h301q155 0 232 -57.5t77 -173.5q0 -65 -30 -118t-86 -86zM414 446q0 32 -21.5 49t-61.5 17h-36v-135h36q40 0 61.5 18t21.5 51zM364 -248q-47 0 -78.5 29.5t-31.5 75.5t31.5 75.5t78.5 29.5t78.5 -29.5t31.5 -75.5t-31.5 -75.5
t-78.5 -29.5z" />
    <glyph glyph-name="uni1E5B" unicode="&#x1e5b;" horiz-adv-x="488" 
d="M424 290q-38 0 -75 -6t-72 -18v-266h-234v513l224 18v-147q46 79 84 114.5t79 35.5q8 0 15 -1t18 -3l13 -243q-11 2 -23 2.5t-29 0.5zM161 -253q-47 0 -78.5 29.5t-31.5 75.5t31.5 75.5t78.5 29.5t78.5 -29.5t31.5 -75.5t-31.5 -75.5t-78.5 -29.5z" />
    <glyph glyph-name="uni1E5C" unicode="&#x1e5c;" horiz-adv-x="715" 
d="M740 0h-290l-151 211v-211h-250v700h301q155 0 232 -57.5t77 -173.5q0 -65 -30 -118t-86 -86zM414 446q0 32 -21.5 49t-61.5 17h-36v-135h36q40 0 61.5 18t21.5 51zM104 772v142h458v-142h-458zM364 -248q-47 0 -78.5 29.5t-31.5 75.5t31.5 75.5t78.5 29.5t78.5 -29.5
t31.5 -75.5t-31.5 -75.5t-78.5 -29.5z" />
    <glyph glyph-name="uni1E5D" unicode="&#x1e5d;" horiz-adv-x="488" 
d="M424 290q-38 0 -75 -6t-72 -18v-266h-234v513l224 18v-147q46 79 84 114.5t79 35.5q8 0 15 -1t18 -3l13 -243q-11 2 -23 2.5t-29 0.5zM71 601v132h378v-132h-378zM161 -253q-47 0 -78.5 29.5t-31.5 75.5t31.5 75.5t78.5 29.5t78.5 -29.5t31.5 -75.5t-31.5 -75.5
t-78.5 -29.5z" />
    <glyph glyph-name="uni1E5E" unicode="&#x1e5e;" horiz-adv-x="715" 
d="M740 0h-290l-151 211v-211h-250v700h301q155 0 232 -57.5t77 -173.5q0 -65 -30 -118t-86 -86zM414 446q0 32 -21.5 49t-61.5 17h-36v-135h36q40 0 61.5 18t21.5 51zM147 -203v132h434v-132h-434z" />
    <glyph glyph-name="uni1E5F" unicode="&#x1e5f;" horiz-adv-x="488" 
d="M424 290q-38 0 -75 -6t-72 -18v-266h-234v513l224 18v-147q46 79 84 114.5t79 35.5q8 0 15 -1t18 -3l13 -243q-11 2 -23 2.5t-29 0.5zM-28 -203v132h378v-132h-378z" />
    <glyph glyph-name="uni1E62" unicode="&#x1e62;" horiz-adv-x="597" 
d="M246 254q-122 36 -171.5 88.5t-49.5 137.5q0 105 77.5 168.5t208.5 63.5q63 0 121.5 -13t105.5 -36v-211h-2q-49 27 -114.5 46.5t-110.5 19.5q-21 0 -31 -5.5t-10 -16.5q0 -12 17.5 -21.5t66.5 -23.5q127 -36 176.5 -88.5t49.5 -140.5q0 -109 -77.5 -171.5t-212.5 -62.5
q-67 0 -131.5 17t-111.5 47l-23 225l3 2q62 -41 136 -69t123 -28q25 0 37 6t12 19t-17 22t-72 25zM294 -258q-47 0 -78.5 29.5t-31.5 75.5t31.5 75.5t78.5 29.5t78.5 -29.5t31.5 -75.5t-31.5 -75.5t-78.5 -29.5z" />
    <glyph glyph-name="uni1E63" unicode="&#x1e63;" horiz-adv-x="514" 
d="M309 343q107 -31 148 -71t41 -106q0 -81 -65.5 -129t-179.5 -48q-58 0 -109.5 12t-102.5 38l-21 170l3 2q63 -34 123.5 -52.5t110.5 -18.5q15 0 22 3t7 10q0 8 -15.5 15t-63.5 22q-106 32 -146 72.5t-40 103.5q0 78 64.5 124.5t176.5 46.5q58 0 106 -10t96 -33v-168h-3
q-47 28 -101 45t-96 17q-15 0 -23 -3.5t-8 -9.5t8.5 -10.5t67.5 -21.5zM250 -255q-47 0 -78.5 29.5t-31.5 75.5t31.5 75.5t78.5 29.5t78.5 -29.5t31.5 -75.5t-31.5 -75.5t-78.5 -29.5z" />
    <glyph glyph-name="uni1E6C" unicode="&#x1e6c;" horiz-adv-x="742" 
d="M713 700v-223h-217v-477h-250v477h-217v223h684zM371 -253q-47 0 -78.5 29.5t-31.5 75.5t31.5 75.5t78.5 29.5t78.5 -29.5t31.5 -75.5t-31.5 -75.5t-78.5 -29.5z" />
    <glyph glyph-name="uni1E6D" unicode="&#x1e6d;" horiz-adv-x="500" 
d="M474 207l-28 -180q-34 -18 -74.5 -27.5t-86.5 -9.5q-103 0 -152 56t-49 173v134h-68v173h68v108l232 40v-148h153v-173h-153v-108q0 -31 18 -47.5t51 -16.5q21 0 40.5 6t45.5 22zM266 -253q-47 0 -78.5 29.5t-31.5 75.5t31.5 75.5t78.5 29.5t78.5 -29.5t31.5 -75.5
t-31.5 -75.5t-78.5 -29.5z" />
    <glyph glyph-name="uni1E6E" unicode="&#x1e6e;" horiz-adv-x="742" 
d="M713 700v-223h-217v-477h-250v477h-217v223h684zM154 -203v132h434v-132h-434z" />
    <glyph glyph-name="uni1E6F" unicode="&#x1e6f;" horiz-adv-x="500" 
d="M474 207l-28 -180q-34 -18 -74.5 -27.5t-86.5 -9.5q-103 0 -152 56t-49 173v134h-68v173h68v108l232 40v-148h153v-173h-153v-108q0 -31 18 -47.5t51 -16.5q21 0 40.5 6t45.5 22zM77 -203v132h378v-132h-378z" />
    <glyph glyph-name="uni1E70" unicode="&#x1e70;" horiz-adv-x="742" 
d="M713 700v-223h-217v-477h-250v477h-217v223h684zM604 -261h-124l-109 72l-111 -72h-122v2l137 204h192l137 -204v-2z" />
    <glyph glyph-name="uni1E71" unicode="&#x1e71;" horiz-adv-x="500" 
d="M474 207l-28 -180q-34 -18 -74.5 -27.5t-86.5 -9.5q-103 0 -152 56t-49 173v134h-68v173h68v108l232 40v-148h153v-173h-153v-108q0 -31 18 -47.5t51 -16.5q21 0 40.5 6t45.5 22zM499 -261h-124l-109 72l-111 -72h-122v2l137 204h192l137 -204v-2z" />
    <glyph glyph-name="uni1E7E" unicode="&#x1e7e;" horiz-adv-x="828" 
d="M566 700h262l-285 -703h-258l-285 703h274l146 -401zM414 -253q-47 0 -78.5 29.5t-31.5 75.5t31.5 75.5t78.5 29.5t78.5 -29.5t31.5 -75.5t-31.5 -75.5t-78.5 -29.5z" />
    <glyph glyph-name="uni1E7F" unicode="&#x1e7f;" horiz-adv-x="677" 
d="M428 526h250l-226 -535h-226l-226 535h255l87 -258zM339 -253q-47 0 -78.5 29.5t-31.5 75.5t31.5 75.5t78.5 29.5t78.5 -29.5t31.5 -75.5t-31.5 -75.5t-78.5 -29.5z" />
    <glyph glyph-name="Wgrave" unicode="&#x1e80;" horiz-adv-x="1123" 
d="M846 700h259l-198 -705h-231l-114 228l-115 -228h-231l-198 705h266l88 -365l187 374h13l186 -374zM556 937l87 -181h-129l-229 179v2h271z" />
    <glyph glyph-name="wgrave" unicode="&#x1e81;" horiz-adv-x="895" 
d="M653 526h240l-165 -531h-193l-87 161l-88 -161h-193l-165 531h245l61 -235l137 243h11l136 -243zM432 791l90 -206h-113l-236 204v2h259z" />
    <glyph glyph-name="Wacute" unicode="&#x1e82;" horiz-adv-x="1123" 
d="M846 700h259l-198 -705h-231l-114 228l-115 -228h-231l-198 705h266l88 -365l187 374h13l186 -374zM630 756h-129l87 181h271v-2z" />
    <glyph glyph-name="wacute" unicode="&#x1e83;" horiz-adv-x="895" 
d="M653 526h240l-165 -531h-193l-87 161l-88 -161h-193l-165 531h245l61 -235l137 243h11l136 -243zM503 585h-113l90 206h259v-2z" />
    <glyph glyph-name="Wdieresis" unicode="&#x1e84;" horiz-adv-x="1123" 
d="M846 700h259l-198 -705h-231l-114 228l-115 -228h-231l-198 705h266l88 -365l187 374h13l186 -374zM443 967q49 0 81.5 -31t32.5 -78t-32.5 -78t-81.5 -31t-81.5 31t-32.5 78t32.5 78t81.5 31zM701 967q49 0 81.5 -31t32.5 -78t-32.5 -78t-81.5 -31t-81.5 31t-32.5 78
t32.5 78t81.5 31z" />
    <glyph glyph-name="wdieresis" unicode="&#x1e85;" horiz-adv-x="895" 
d="M653 526h240l-165 -531h-193l-87 161l-88 -161h-193l-165 531h245l61 -235l137 243h11l136 -243zM328 577q-49 0 -81.5 31t-32.5 78t32.5 78t81.5 31t81.5 -31t32.5 -78t-32.5 -78t-81.5 -31zM584 577q-49 0 -81.5 31t-32.5 78t32.5 78t81.5 31t81.5 -31t32.5 -78
t-32.5 -78t-81.5 -31z" />
    <glyph glyph-name="uni1E8C" unicode="&#x1e8c;" horiz-adv-x="798" 
d="M805 0h-296l-112 165l-108 -165h-291l250 352l-246 348h296l103 -153l99 153h291l-241 -339zM273 967q49 0 81.5 -31t32.5 -78t-32.5 -78t-81.5 -31t-81.5 31t-32.5 78t32.5 78t81.5 31zM531 967q49 0 81.5 -31t32.5 -78t-32.5 -78t-81.5 -31t-81.5 31t-32.5 78t32.5 78
t81.5 31z" />
    <glyph glyph-name="uni1E8D" unicode="&#x1e8d;" horiz-adv-x="664" 
d="M664 0h-257l-79 127l-77 -127h-249l180 270l-173 256h258l70 -117l69 117h247l-170 -260zM205 577q-49 0 -81.5 31t-32.5 78t32.5 78t81.5 31t81.5 -31t32.5 -78t-32.5 -78t-81.5 -31zM461 577q-49 0 -81.5 31t-32.5 78t32.5 78t81.5 31t81.5 -31t32.5 -78t-32.5 -78
t-81.5 -31z" />
    <glyph glyph-name="uni1E8E" unicode="&#x1e8e;" horiz-adv-x="758" 
d="M491 700h272l-259 -447v-253h-250v253l-259 447h286l105 -212zM379 959q49 0 81.5 -31t32.5 -78t-32.5 -78t-81.5 -31t-81.5 31t-32.5 78t32.5 78t81.5 31z" />
    <glyph glyph-name="uni1E8F" unicode="&#x1e8f;" horiz-adv-x="652" 
d="M652 526l-165 -457q-48 -134 -123 -197t-187 -63q-24 0 -47 3t-45 10l-45 201l3 2q19 -8 39 -12t43 -4q28 0 48 5t35 16l-208 496h251l85 -245l70 245h246zM336 568q-47 0 -78.5 29.5t-31.5 75.5t31.5 75.5t78.5 29.5t78.5 -29.5t31.5 -75.5t-31.5 -75.5t-78.5 -29.5z
" />
    <glyph glyph-name="uni1E90" unicode="&#x1e90;" horiz-adv-x="738" 
d="M413 213h302l-53 -213h-653l-4 12l302 475h-263v213h667l4 -12zM613 756h-134l-110 62l-110 -62h-132v2l138 179h210l138 -179v-2z" />
    <glyph glyph-name="uni1E91" unicode="&#x1e91;" horiz-adv-x="575" 
d="M355 173h207l-42 -173h-506l-4 10l204 343h-169v173h509l4 -10zM537 585h-124l-109 72l-111 -72h-122v2l137 204h192l137 -204v-2z" />
    <glyph glyph-name="uni1E92" unicode="&#x1e92;" horiz-adv-x="738" 
d="M413 213h302l-53 -213h-653l-4 12l302 475h-263v213h667l4 -12zM354 -253q-47 0 -78.5 29.5t-31.5 75.5t31.5 75.5t78.5 29.5t78.5 -29.5t31.5 -75.5t-31.5 -75.5t-78.5 -29.5z" />
    <glyph glyph-name="uni1E93" unicode="&#x1e93;" horiz-adv-x="575" 
d="M355 173h207l-42 -173h-506l-4 10l204 343h-169v173h509l4 -10zM279 -253q-47 0 -78.5 29.5t-31.5 75.5t31.5 75.5t78.5 29.5t78.5 -29.5t31.5 -75.5t-31.5 -75.5t-78.5 -29.5z" />
    <glyph glyph-name="uni1E94" unicode="&#x1e94;" horiz-adv-x="738" 
d="M413 213h302l-53 -213h-653l-4 12l302 475h-263v213h667l4 -12zM137 -203v132h434v-132h-434z" />
    <glyph glyph-name="uni1E95" unicode="&#x1e95;" horiz-adv-x="575" 
d="M355 173h207l-42 -173h-506l-4 10l204 343h-169v173h509l4 -10zM62 -203v132h434v-132h-434z" />
    <glyph glyph-name="uni1E96" unicode="&#x1e96;" horiz-adv-x="654" 
d="M329 337q-14 0 -26 -2t-26 -6v-329h-234v707l234 48v-309q38 49 79 71t94 22q78 0 122 -52t44 -146v-341h-234v276q0 31 -13 46t-40 15zM113 -203v132h434v-132h-434z" />
    <glyph glyph-name="uni1E9E" unicode="&#x1e9e;" horiz-adv-x="762" 
d="M736 210q0 -96 -68 -157.5t-175 -61.5q-37 0 -66.5 5t-62.5 16l-24 196l3 2q40 -18 64.5 -25.5t46.5 -7.5t34.5 11t12.5 30q0 27 -28 45t-111 43l-4 11l80 181q-10 3 -20 4.5t-21 1.5q-50 0 -78.5 -34.5t-28.5 -96.5v-373h-246v362q0 169 88.5 259.5t253.5 90.5
q83 0 156.5 -21.5t153.5 -71.5v-11l-100 -203q72 -30 106 -77.5t34 -117.5z" />
    <glyph glyph-name="uni1EA0" unicode="&#x1ea0;" horiz-adv-x="846" 
d="M258 0h-258l280 700h286l280 -700h-266l-33 93h-256zM419 466l-68 -185h136zM423 -243q-47 0 -78.5 29.5t-31.5 75.5t31.5 75.5t78.5 29.5t78.5 -29.5t31.5 -75.5t-31.5 -75.5t-78.5 -29.5z" />
    <glyph glyph-name="uni1EA1" unicode="&#x1ea1;" horiz-adv-x="588" 
d="M557 13l-221 -18v61q-42 -34 -82 -50t-85 -16q-69 0 -110 38.5t-41 103.5q0 82 77 123.5t229 42.5q-5 33 -27.5 48.5t-63.5 15.5q-38 0 -82.5 -14.5t-86.5 -40.5l-4 4l26 182q46 22 96 32.5t108 10.5q133 0 200 -64.5t67 -191.5v-267zM219 162q0 -17 12.5 -26t34.5 -9
q14 0 29 2.5t31 6.5v77q-57 -5 -82 -16.5t-25 -34.5zM300 -253q-47 0 -78.5 29.5t-31.5 75.5t31.5 75.5t78.5 29.5t78.5 -29.5t31.5 -75.5t-31.5 -75.5t-78.5 -29.5z" />
    <glyph glyph-name="uni1EA2" unicode="&#x1ea2;" horiz-adv-x="846" 
d="M258 0h-258l280 700h286l280 -700h-266l-33 93h-256zM419 466l-68 -185h136zM599 911q0 -41 -30 -77t-120 -92l-94 31v2q55 44 73 62t18 30q0 9 -7 14t-21 5q-21 0 -54.5 -11t-68.5 -30h-2v122q38 21 81.5 32.5t86.5 11.5q65 0 101.5 -27t36.5 -73z" />
    <glyph glyph-name="uni1EA3" unicode="&#x1ea3;" horiz-adv-x="588" 
d="M557 13l-221 -18v61q-42 -34 -82 -50t-85 -16q-69 0 -110 38.5t-41 103.5q0 82 77 123.5t229 42.5q-5 33 -27.5 48.5t-63.5 15.5q-38 0 -82.5 -14.5t-86.5 -40.5l-4 4l26 182q46 22 96 32.5t108 10.5q133 0 200 -64.5t67 -191.5v-267zM219 162q0 -17 12.5 -26t34.5 -9
q14 0 29 2.5t31 6.5v77q-57 -5 -82 -16.5t-25 -34.5zM480 750q0 -45 -30.5 -83.5t-119.5 -98.5l-94 31v2q53 46 72 66.5t19 33.5q0 10 -7 15.5t-21 5.5q-21 0 -54.5 -12.5t-68.5 -32.5h-2v132q39 23 82.5 35.5t85.5 12.5q64 0 101 -29.5t37 -77.5z" />
    <glyph glyph-name="uni1EA4" unicode="&#x1ea4;" horiz-adv-x="846" 
d="M258 0h-258l280 700h286l280 -700h-266l-33 93h-256zM419 466l-68 -185h136zM719 882h-115l58 148h237v-2zM666 752h-138l-106 54l-106 -54h-136v2l138 154h210l138 -154v-2z" />
    <glyph glyph-name="uni1EA5" unicode="&#x1ea5;" horiz-adv-x="588" 
d="M557 13l-221 -18v61q-42 -34 -82 -50t-85 -16q-69 0 -110 38.5t-41 103.5q0 82 77 123.5t229 42.5q-5 33 -27.5 48.5t-63.5 15.5q-38 0 -82.5 -14.5t-86.5 -40.5l-4 4l26 182q46 22 96 32.5t108 10.5q133 0 200 -64.5t67 -191.5v-267zM219 162q0 -17 12.5 -26t34.5 -9
q14 0 29 2.5t31 6.5v77q-57 -5 -82 -16.5t-25 -34.5zM576 721h-96l59 162h209v-2zM544 585h-126l-107 59l-109 -59h-124v2l135 159h196l135 -159v-2z" />
    <glyph glyph-name="uni1EA6" unicode="&#x1ea6;" horiz-adv-x="846" 
d="M258 0h-258l280 700h286l280 -700h-266l-33 93h-256zM419 466l-68 -185h136zM729 1030l58 -148h-115l-180 146v2h237zM666 752h-138l-106 54l-106 -54h-136v2l138 154h210l138 -154v-2z" />
    <glyph glyph-name="uni1EA7" unicode="&#x1ea7;" horiz-adv-x="588" 
d="M557 13l-221 -18v61q-42 -34 -82 -50t-85 -16q-69 0 -110 38.5t-41 103.5q0 82 77 123.5t229 42.5q-5 33 -27.5 48.5t-63.5 15.5q-38 0 -82.5 -14.5t-86.5 -40.5l-4 4l26 182q46 22 96 32.5t108 10.5q133 0 200 -64.5t67 -191.5v-267zM219 162q0 -17 12.5 -26t34.5 -9
q14 0 29 2.5t31 6.5v77q-57 -5 -82 -16.5t-25 -34.5zM589 883l59 -162h-96l-172 160v2h209zM544 585h-126l-107 59l-109 -59h-124v2l135 159h196l135 -159v-2z" />
    <glyph glyph-name="uni1EA8" unicode="&#x1ea8;" horiz-adv-x="846" 
d="M258 0h-258l280 700h286l280 -700h-266l-33 93h-256zM419 466l-68 -185h136zM796 1010q0 -35 -26.5 -65.5t-101.5 -76.5l-80 27v1q48 37 63 52t15 25q0 8 -6.5 12t-18.5 4q-17 0 -45.5 -9.5t-58.5 -25.5h-2v103q34 18 70.5 27.5t72.5 9.5q55 0 86.5 -23t31.5 -61z
M666 752h-138l-106 54l-106 -54h-136v2l138 154h210l138 -154v-2z" />
    <glyph glyph-name="uni1EA9" unicode="&#x1ea9;" horiz-adv-x="588" 
d="M557 13l-221 -18v61q-42 -34 -82 -50t-85 -16q-69 0 -110 38.5t-41 103.5q0 82 77 123.5t229 42.5q-5 33 -27.5 48.5t-63.5 15.5q-38 0 -82.5 -14.5t-86.5 -40.5l-4 4l26 182q46 22 96 32.5t108 10.5q133 0 200 -64.5t67 -191.5v-267zM219 162q0 -17 12.5 -26t34.5 -9
q14 0 29 2.5t31 6.5v77q-57 -5 -82 -16.5t-25 -34.5zM701 822q0 -31 -23.5 -60.5t-92.5 -77.5l-77 27v2q43 36 57.5 51.5t14.5 25.5q0 8 -5 12.5t-15 4.5q-16 0 -41 -9.5t-52 -25.5h-2v93q31 18 64.5 28t65.5 10q49 0 77.5 -22t28.5 -59zM544 585h-126l-107 59l-109 -59
h-124v2l135 159h196l135 -159v-2z" />
    <glyph glyph-name="uni1EAA" unicode="&#x1eaa;" horiz-adv-x="846" 
d="M258 0h-258l280 700h286l280 -700h-266l-33 93h-256zM419 466l-68 -185h136zM440 1096q31 -13 44.5 -17t22.5 -4q15 0 29.5 9.5t43.5 39.5l67 -52q-54 -74 -83 -99t-64 -25q-14 0 -32 5t-56 22q-31 13 -44.5 17t-22.5 4q-15 0 -29.5 -9.5t-43.5 -39.5l-67 52q54 74 83 99
t64 25q14 0 32 -5t56 -22zM666 752h-138l-106 54l-106 -54h-136v2l138 154h210l138 -154v-2z" />
    <glyph glyph-name="uni1EAB" unicode="&#x1eab;" horiz-adv-x="588" 
d="M557 13l-221 -18v61q-42 -34 -82 -50t-85 -16q-69 0 -110 38.5t-41 103.5q0 82 77 123.5t229 42.5q-5 33 -27.5 48.5t-63.5 15.5q-38 0 -82.5 -14.5t-86.5 -40.5l-4 4l26 182q46 22 96 32.5t108 10.5q133 0 200 -64.5t67 -191.5v-267zM219 162q0 -17 12.5 -26t34.5 -9
q14 0 29 2.5t31 6.5v77q-57 -5 -82 -16.5t-25 -34.5zM328 928q30 -14 42.5 -18t20.5 -4q14 0 26.5 8.5t41.5 39.5l70 -47q-45 -71 -75 -98t-68 -27q-11 0 -26.5 5t-49.5 20q-30 14 -42.5 18t-20.5 4q-15 0 -28.5 -8t-39.5 -34l-70 46q44 68 74 94t69 26q11 0 26.5 -5
t49.5 -20zM544 585h-126l-107 59l-109 -59h-124v2l135 159h196l135 -159v-2z" />
    <glyph glyph-name="uni1EAC" unicode="&#x1eac;" horiz-adv-x="846" 
d="M258 0h-258l280 700h286l280 -700h-266l-33 93h-256zM419 466l-68 -185h136zM666 752h-134l-110 62l-110 -62h-132v2l138 179h210l138 -179v-2zM423 -243q-47 0 -78.5 29.5t-31.5 75.5t31.5 75.5t78.5 29.5t78.5 -29.5t31.5 -75.5t-31.5 -75.5t-78.5 -29.5z" />
    <glyph glyph-name="uni1EAD" unicode="&#x1ead;" horiz-adv-x="588" 
d="M557 13l-221 -18v61q-42 -34 -82 -50t-85 -16q-69 0 -110 38.5t-41 103.5q0 82 77 123.5t229 42.5q-5 33 -27.5 48.5t-63.5 15.5q-38 0 -82.5 -14.5t-86.5 -40.5l-4 4l26 182q46 22 96 32.5t108 10.5q133 0 200 -64.5t67 -191.5v-267zM219 162q0 -17 12.5 -26t34.5 -9
q14 0 29 2.5t31 6.5v77q-57 -5 -82 -16.5t-25 -34.5zM544 585h-124l-109 72l-111 -72h-122v2l137 204h192l137 -204v-2zM300 -253q-47 0 -78.5 29.5t-31.5 75.5t31.5 75.5t78.5 29.5t78.5 -29.5t31.5 -75.5t-31.5 -75.5t-78.5 -29.5z" />
    <glyph glyph-name="uni1EAE" unicode="&#x1eae;" horiz-adv-x="846" 
d="M258 0h-258l280 700h286l280 -700h-266l-33 93h-256zM419 466l-68 -185h136zM481 950h-125l58 158h257v-2zM423 746q-76 0 -137.5 32t-105.5 94l75 67q47 -32 85 -44.5t83 -12.5q44 0 81.5 12.5t86.5 44.5l75 -66q-45 -63 -106 -95t-137 -32z" />
    <glyph glyph-name="uni1EAF" unicode="&#x1eaf;" horiz-adv-x="588" 
d="M557 13l-221 -18v61q-42 -34 -82 -50t-85 -16q-69 0 -110 38.5t-41 103.5q0 82 77 123.5t229 42.5q-5 33 -27.5 48.5t-63.5 15.5q-38 0 -82.5 -14.5t-86.5 -40.5l-4 4l26 182q46 22 96 32.5t108 10.5q133 0 200 -64.5t67 -191.5v-267zM219 162q0 -17 12.5 -26t34.5 -9
q14 0 29 2.5t31 6.5v77q-57 -5 -82 -16.5t-25 -34.5zM355 781h-101l55 152h217v-2zM311 575q-66 0 -120 30t-111 101l80 71q39 -37 74 -52.5t77 -15.5q41 0 76.5 16t74.5 52l80 -70q-58 -72 -112 -102t-119 -30z" />
    <glyph glyph-name="uni1EB0" unicode="&#x1eb0;" horiz-adv-x="846" 
d="M258 0h-258l280 700h286l280 -700h-266l-33 93h-256zM419 466l-68 -185h136zM432 1108l58 -158h-125l-190 156v2h257zM423 746q-76 0 -137.5 32t-105.5 94l75 67q47 -32 85 -44.5t83 -12.5q44 0 81.5 12.5t86.5 44.5l75 -66q-45 -63 -106 -95t-137 -32z" />
    <glyph glyph-name="uni1EB1" unicode="&#x1eb1;" horiz-adv-x="588" 
d="M557 13l-221 -18v61q-42 -34 -82 -50t-85 -16q-69 0 -110 38.5t-41 103.5q0 82 77 123.5t229 42.5q-5 33 -27.5 48.5t-63.5 15.5q-38 0 -82.5 -14.5t-86.5 -40.5l-4 4l26 182q46 22 96 32.5t108 10.5q133 0 200 -64.5t67 -191.5v-267zM219 162q0 -17 12.5 -26t34.5 -9
q14 0 29 2.5t31 6.5v77q-57 -5 -82 -16.5t-25 -34.5zM313 933l55 -152h-101l-171 150v2h217zM311 575q-66 0 -120 30t-111 101l80 71q39 -37 74 -52.5t77 -15.5q41 0 76.5 16t74.5 52l80 -70q-58 -72 -112 -102t-119 -30z" />
    <glyph glyph-name="uni1EB2" unicode="&#x1eb2;" horiz-adv-x="846" 
d="M258 0h-258l280 700h286l280 -700h-266l-33 93h-256zM419 466l-68 -185h136zM576 1060q0 -35 -33.5 -66t-110.5 -67l-82 29v1q42 24 61.5 39.5t19.5 25.5q0 9 -6.5 13.5t-20.5 4.5q-20 0 -51.5 -9.5t-62.5 -25.5h-2v106q35 18 76 28t81 10q61 0 96 -24.5t35 -64.5z
M423 746q-76 0 -137.5 32t-105.5 94l75 67q47 -32 85 -44.5t83 -12.5q44 0 81.5 12.5t86.5 44.5l75 -66q-45 -63 -106 -95t-137 -32z" />
    <glyph glyph-name="uni1EB3" unicode="&#x1eb3;" horiz-adv-x="588" 
d="M557 13l-221 -18v61q-42 -34 -82 -50t-85 -16q-69 0 -110 38.5t-41 103.5q0 82 77 123.5t229 42.5q-5 33 -27.5 48.5t-63.5 15.5q-38 0 -82.5 -14.5t-86.5 -40.5l-4 4l26 182q46 22 96 32.5t108 10.5q133 0 200 -64.5t67 -191.5v-267zM219 162q0 -17 12.5 -26t34.5 -9
q14 0 29 2.5t31 6.5v77q-57 -5 -82 -16.5t-25 -34.5zM453 896q0 -32 -23.5 -59.5t-104.5 -75.5l-81 25v2q47 35 62.5 49t15.5 25q0 7 -6.5 11t-17.5 4q-18 0 -47 -9.5t-58 -25.5h-2v95q33 19 71 28.5t78 9.5q52 0 82.5 -21.5t30.5 -57.5zM311 575q-66 0 -120 30t-111 101
l80 71q39 -37 74 -52.5t77 -15.5q41 0 76.5 16t74.5 52l80 -70q-58 -72 -112 -102t-119 -30z" />
    <glyph glyph-name="uni1EB4" unicode="&#x1eb4;" horiz-adv-x="846" 
d="M258 0h-258l280 700h286l280 -700h-266l-33 93h-256zM419 466l-68 -185h136zM440 1110q28 -12 40.5 -15.5t21.5 -3.5q15 0 28.5 7.5t49.5 36.5l74 -56q-58 -70 -90.5 -95t-73.5 -25q-14 0 -31.5 4.5t-52.5 19.5q-28 12 -40.5 15.5t-21.5 3.5q-15 0 -28.5 -7.5
t-49.5 -36.5l-74 56q58 70 90.5 95t73.5 25q14 0 31.5 -4.5t52.5 -19.5zM423 746q-76 0 -137.5 32t-105.5 94l75 67q47 -32 85 -44.5t83 -12.5q44 0 81.5 12.5t86.5 44.5l75 -66q-45 -63 -106 -95t-137 -32z" />
    <glyph glyph-name="uni1EB5" unicode="&#x1eb5;" horiz-adv-x="588" 
d="M557 13l-221 -18v61q-42 -34 -82 -50t-85 -16q-69 0 -110 38.5t-41 103.5q0 82 77 123.5t229 42.5q-5 33 -27.5 48.5t-63.5 15.5q-38 0 -82.5 -14.5t-86.5 -40.5l-4 4l26 182q46 22 96 32.5t108 10.5q133 0 200 -64.5t67 -191.5v-267zM219 162q0 -17 12.5 -26t34.5 -9
q14 0 29 2.5t31 6.5v77q-57 -5 -82 -16.5t-25 -34.5zM320 943q30 -14 42.5 -18t20.5 -4q14 0 26.5 8.5t41.5 39.5l70 -47q-45 -71 -75 -98t-68 -27q-11 0 -26.5 5t-49.5 20q-30 14 -42.5 18t-20.5 4q-15 0 -28.5 -8t-39.5 -34l-70 46q44 68 74 94t69 26q11 0 26.5 -5
t49.5 -20zM311 575q-66 0 -120 30t-111 101l80 71q39 -37 74 -52.5t77 -15.5q41 0 76.5 16t74.5 52l80 -70q-58 -72 -112 -102t-119 -30z" />
    <glyph glyph-name="uni1EB6" unicode="&#x1eb6;" horiz-adv-x="846" 
d="M258 0h-258l280 700h286l280 -700h-266l-33 93h-256zM419 466l-68 -185h136zM423 746q-76 0 -137.5 34t-105.5 99l75 76q47 -35 85 -49t83 -14q44 0 82 14t86 49l75 -75q-45 -67 -106.5 -100.5t-136.5 -33.5zM423 -243q-47 0 -78.5 29.5t-31.5 75.5t31.5 75.5t78.5 29.5
t78.5 -29.5t31.5 -75.5t-31.5 -75.5t-78.5 -29.5z" />
    <glyph glyph-name="uni1EB7" unicode="&#x1eb7;" horiz-adv-x="588" 
d="M557 13l-221 -18v61q-42 -34 -82 -50t-85 -16q-69 0 -110 38.5t-41 103.5q0 82 77 123.5t229 42.5q-5 33 -27.5 48.5t-63.5 15.5q-38 0 -82.5 -14.5t-86.5 -40.5l-4 4l26 182q46 22 96 32.5t108 10.5q133 0 200 -64.5t67 -191.5v-267zM219 162q0 -17 12.5 -26t34.5 -9
q14 0 29 2.5t31 6.5v77q-57 -5 -82 -16.5t-25 -34.5zM311 575q-66 0 -120 33t-111 113l80 78q39 -40 74 -57.5t77 -17.5q41 0 76.5 17.5t74.5 57.5l80 -77q-58 -80 -111.5 -113.5t-119.5 -33.5zM300 -253q-47 0 -78.5 29.5t-31.5 75.5t31.5 75.5t78.5 29.5t78.5 -29.5
t31.5 -75.5t-31.5 -75.5t-78.5 -29.5z" />
    <glyph glyph-name="uni1EB8" unicode="&#x1eb8;" horiz-adv-x="618" 
d="M567 0h-518v700h515l25 -205h-295v-60h242v-169h-242v-61h298zM321 -253q-47 0 -78.5 29.5t-31.5 75.5t31.5 75.5t78.5 29.5t78.5 -29.5t31.5 -75.5t-31.5 -75.5t-78.5 -29.5z" />
    <glyph glyph-name="uni1EB9" unicode="&#x1eb9;" horiz-adv-x="583" 
d="M557 186l-51 -162q-50 -19 -94 -26.5t-100 -7.5q-132 0 -212.5 76t-80.5 201q0 117 79 195t199 78q125 0 195 -75.5t70 -204.5q0 -6 -1 -18.5t-2 -24.5h-321q14 -31 46.5 -47t80.5 -16t91.5 8t97.5 27zM298 393q-24 0 -40 -18t-20 -50h118q-3 31 -18.5 49.5t-39.5 18.5z
M304 -258q-47 0 -78.5 29.5t-31.5 75.5t31.5 75.5t78.5 29.5t78.5 -29.5t31.5 -75.5t-31.5 -75.5t-78.5 -29.5z" />
    <glyph glyph-name="uni1EBA" unicode="&#x1eba;" horiz-adv-x="618" 
d="M567 0h-518v700h515l25 -205h-295v-60h242v-169h-242v-61h298zM497 911q0 -41 -30 -77t-120 -92l-94 31v2q55 44 73 62t18 30q0 9 -7 14t-21 5q-21 0 -54.5 -11t-68.5 -30h-2v122q38 21 81.5 32.5t86.5 11.5q65 0 101.5 -27t36.5 -73z" />
    <glyph glyph-name="uni1EBB" unicode="&#x1ebb;" horiz-adv-x="583" 
d="M557 186l-51 -162q-50 -19 -94 -26.5t-100 -7.5q-132 0 -212.5 76t-80.5 201q0 117 79 195t199 78q125 0 195 -75.5t70 -204.5q0 -6 -1 -18.5t-2 -24.5h-321q14 -31 46.5 -47t80.5 -16t91.5 8t97.5 27zM298 393q-24 0 -40 -18t-20 -50h118q-3 31 -18.5 49.5t-39.5 18.5z
M474 755q0 -45 -30.5 -83.5t-119.5 -98.5l-94 31v2q53 46 72 66.5t19 33.5q0 10 -7 15.5t-21 5.5q-21 0 -54.5 -12.5t-68.5 -32.5h-2v132q39 23 82.5 35.5t85.5 12.5q64 0 101 -29.5t37 -77.5z" />
    <glyph glyph-name="uni1EBC" unicode="&#x1ebc;" horiz-adv-x="618" 
d="M567 0h-518v700h515l25 -205h-295v-60h242v-169h-242v-61h298zM349 922q30 -14 43.5 -18t23.5 -4q17 0 31.5 8.5t52.5 41.5l79 -64q-61 -81 -96 -110t-80 -29q-15 0 -34 5.5t-56 21.5q-30 14 -43.5 18t-23.5 4q-17 0 -31.5 -8.5t-52.5 -41.5l-79 64q61 81 96 110t80 29
q15 0 34 -5.5t56 -21.5z" />
    <glyph glyph-name="uni1EBD" unicode="&#x1ebd;" horiz-adv-x="583" 
d="M557 186l-51 -162q-50 -19 -94 -26.5t-100 -7.5q-132 0 -212.5 76t-80.5 201q0 117 79 195t199 78q125 0 195 -75.5t70 -204.5q0 -6 -1 -18.5t-2 -24.5h-321q14 -31 46.5 -47t80.5 -16t91.5 8t97.5 27zM298 393q-24 0 -40 -18t-20 -50h118q-3 31 -18.5 49.5t-39.5 18.5z
M309 767q34 -17 48 -22t23 -5q14 0 26.5 9t48.5 50l88 -58q-49 -91 -82.5 -125.5t-76.5 -34.5q-12 0 -29 6t-54 24q-34 17 -48 22t-23 5q-14 0 -26.5 -9t-48.5 -50l-88 58q49 91 82.5 125.5t76.5 34.5q12 0 29 -6t54 -24z" />
    <glyph glyph-name="uni1EBE" unicode="&#x1ebe;" horiz-adv-x="618" 
d="M567 0h-518v700h515l25 -205h-295v-60h242v-169h-242v-61h298zM617 886h-115l58 148h237v-2zM564 756h-138l-106 54l-106 -54h-136v2l138 154h210l138 -154v-2z" />
    <glyph glyph-name="uni1EBF" unicode="&#x1ebf;" horiz-adv-x="583" 
d="M557 186l-51 -162q-50 -19 -94 -26.5t-100 -7.5q-132 0 -212.5 76t-80.5 201q0 117 79 195t199 78q125 0 195 -75.5t70 -204.5q0 -6 -1 -18.5t-2 -24.5h-321q14 -31 46.5 -47t80.5 -16t91.5 8t97.5 27zM298 393q-24 0 -40 -18t-20 -50h118q-3 31 -18.5 49.5t-39.5 18.5z
M570 716h-96l59 162h209v-2zM538 580h-126l-107 59l-109 -59h-124v2l135 159h196l135 -159v-2z" />
    <glyph glyph-name="uni1EC0" unicode="&#x1ec0;" horiz-adv-x="618" 
d="M567 0h-518v700h515l25 -205h-295v-60h242v-169h-242v-61h298zM627 1034l58 -148h-115l-180 146v2h237zM564 756h-138l-106 54l-106 -54h-136v2l138 154h210l138 -154v-2z" />
    <glyph glyph-name="uni1EC1" unicode="&#x1ec1;" horiz-adv-x="583" 
d="M557 186l-51 -162q-50 -19 -94 -26.5t-100 -7.5q-132 0 -212.5 76t-80.5 201q0 117 79 195t199 78q125 0 195 -75.5t70 -204.5q0 -6 -1 -18.5t-2 -24.5h-321q14 -31 46.5 -47t80.5 -16t91.5 8t97.5 27zM298 393q-24 0 -40 -18t-20 -50h118q-3 31 -18.5 49.5t-39.5 18.5z
M583 878l59 -162h-96l-172 160v2h209zM538 580h-126l-107 59l-109 -59h-124v2l135 159h196l135 -159v-2z" />
    <glyph glyph-name="uni1EC2" unicode="&#x1ec2;" horiz-adv-x="618" 
d="M567 0h-518v700h515l25 -205h-295v-60h242v-169h-242v-61h298zM694 1014q0 -35 -26.5 -65.5t-101.5 -76.5l-80 27v1q48 37 63 52t15 25q0 8 -6.5 12t-18.5 4q-17 0 -45.5 -9.5t-58.5 -25.5h-2v103q34 18 70.5 27.5t72.5 9.5q55 0 86.5 -23t31.5 -61zM564 756h-138
l-106 54l-106 -54h-136v2l138 154h210l138 -154v-2z" />
    <glyph glyph-name="uni1EC3" unicode="&#x1ec3;" horiz-adv-x="583" 
d="M557 186l-51 -162q-50 -19 -94 -26.5t-100 -7.5q-132 0 -212.5 76t-80.5 201q0 117 79 195t199 78q125 0 195 -75.5t70 -204.5q0 -6 -1 -18.5t-2 -24.5h-321q14 -31 46.5 -47t80.5 -16t91.5 8t97.5 27zM298 393q-24 0 -40 -18t-20 -50h118q-3 31 -18.5 49.5t-39.5 18.5z
M695 817q0 -31 -23.5 -60.5t-92.5 -77.5l-77 27v2q43 36 57.5 51.5t14.5 25.5q0 8 -5 12.5t-15 4.5q-16 0 -41 -9.5t-52 -25.5h-2v93q31 18 64.5 28t65.5 10q49 0 77.5 -22t28.5 -59zM538 580h-126l-107 59l-109 -59h-124v2l135 159h196l135 -159v-2z" />
    <glyph glyph-name="uni1EC4" unicode="&#x1ec4;" horiz-adv-x="618" 
d="M567 0h-518v700h515l25 -205h-295v-60h242v-169h-242v-61h298zM338 1100q31 -13 44.5 -17t22.5 -4q15 0 29.5 9.5t43.5 39.5l67 -52q-54 -74 -83 -99t-64 -25q-14 0 -32 5t-56 22q-31 13 -44.5 17t-22.5 4q-15 0 -29.5 -9.5t-43.5 -39.5l-67 52q54 74 83 99t64 25
q14 0 32 -5t56 -22zM564 756h-138l-106 54l-106 -54h-136v2l138 154h210l138 -154v-2z" />
    <glyph glyph-name="uni1EC5" unicode="&#x1ec5;" horiz-adv-x="583" 
d="M557 186l-51 -162q-50 -19 -94 -26.5t-100 -7.5q-132 0 -212.5 76t-80.5 201q0 117 79 195t199 78q125 0 195 -75.5t70 -204.5q0 -6 -1 -18.5t-2 -24.5h-321q14 -31 46.5 -47t80.5 -16t91.5 8t97.5 27zM298 393q-24 0 -40 -18t-20 -50h118q-3 31 -18.5 49.5t-39.5 18.5z
M322 923q30 -14 42.5 -18t20.5 -4q14 0 26.5 8.5t41.5 39.5l70 -47q-45 -71 -75 -98t-68 -27q-11 0 -26.5 5t-49.5 20q-30 14 -42.5 18t-20.5 4q-15 0 -28.5 -8t-39.5 -34l-70 46q44 68 74 94t69 26q11 0 26.5 -5t49.5 -20zM538 580h-126l-107 59l-109 -59h-124v2l135 159
h196l135 -159v-2z" />
    <glyph glyph-name="uni1EC6" unicode="&#x1ec6;" horiz-adv-x="618" 
d="M567 0h-518v700h515l25 -205h-295v-60h242v-169h-242v-61h298zM564 756h-134l-110 62l-110 -62h-132v2l138 179h210l138 -179v-2zM321 -253q-47 0 -78.5 29.5t-31.5 75.5t31.5 75.5t78.5 29.5t78.5 -29.5t31.5 -75.5t-31.5 -75.5t-78.5 -29.5z" />
    <glyph glyph-name="uni1EC7" unicode="&#x1ec7;" horiz-adv-x="583" 
d="M557 186l-51 -162q-50 -19 -94 -26.5t-100 -7.5q-132 0 -212.5 76t-80.5 201q0 117 79 195t199 78q125 0 195 -75.5t70 -204.5q0 -6 -1 -18.5t-2 -24.5h-321q14 -31 46.5 -47t80.5 -16t91.5 8t97.5 27zM298 393q-24 0 -40 -18t-20 -50h118q-3 31 -18.5 49.5t-39.5 18.5z
M538 580h-124l-109 72l-111 -72h-122v2l137 204h192l137 -204v-2zM304 -258q-47 0 -78.5 29.5t-31.5 75.5t31.5 75.5t78.5 29.5t78.5 -29.5t31.5 -75.5t-31.5 -75.5t-78.5 -29.5z" />
    <glyph glyph-name="uni1EC8" unicode="&#x1ec8;" horiz-adv-x="352" 
d="M301 0h-250v700h250v-700zM352 911q0 -41 -30 -77t-120 -92l-94 31v2q55 44 73 62t18 30q0 9 -7 14t-21 5q-21 0 -54.5 -11t-68.5 -30h-2v122q38 21 81.5 32.5t86.5 11.5q65 0 101.5 -27t36.5 -73z" />
    <glyph glyph-name="uni1EC9" unicode="&#x1ec9;" horiz-adv-x="324" 
d="M279 0h-234v526h234v-526zM331 750q0 -45 -30.5 -83.5t-119.5 -98.5l-94 31v2q53 46 72 66.5t19 33.5q0 10 -7 15.5t-21 5.5q-21 0 -54.5 -12.5t-68.5 -32.5h-2v132q39 23 82.5 35.5t85.5 12.5q64 0 101 -29.5t37 -77.5z" />
    <glyph glyph-name="uni1ECA" unicode="&#x1eca;" horiz-adv-x="352" 
d="M301 0h-250v700h250v-700zM176 -253q-47 0 -78.5 29.5t-31.5 75.5t31.5 75.5t78.5 29.5t78.5 -29.5t31.5 -75.5t-31.5 -75.5t-78.5 -29.5z" />
    <glyph glyph-name="uni1ECB" unicode="&#x1ecb;" horiz-adv-x="324" 
d="M162 797q58 0 95 -33.5t37 -86.5q0 -52 -37.5 -86t-94.5 -34t-94.5 34t-37.5 86q0 53 37 86.5t95 33.5zM279 0h-234v526h234v-526zM162 -253q-47 0 -78.5 29.5t-31.5 75.5t31.5 75.5t78.5 29.5t78.5 -29.5t31.5 -75.5t-31.5 -75.5t-78.5 -29.5z" />
    <glyph glyph-name="uni1ECC" unicode="&#x1ecc;" horiz-adv-x="816" 
d="M407 -14q-166 0 -274 103.5t-108 259.5q0 155 109.5 260t274.5 105t273.5 -104t108.5 -259q0 -156 -109 -260.5t-275 -104.5zM407 491q-56 0 -91.5 -39.5t-35.5 -100.5t36 -101.5t93 -40.5q56 0 91.5 39.5t35.5 100.5t-36.5 101.5t-92.5 40.5zM408 -258q-47 0 -78.5 29.5
t-31.5 75.5t31.5 75.5t78.5 29.5t78.5 -29.5t31.5 -75.5t-31.5 -75.5t-78.5 -29.5z" />
    <glyph glyph-name="uni1ECD" unicode="&#x1ecd;" horiz-adv-x="626" 
d="M313 -14q-128 0 -211 80t-83 197t83 197t211 80t211 -80t83 -197t-83 -197t-211 -80zM387 263q0 36 -21 59t-53 23t-53 -23t-21 -59t21 -59t53 -23t53 23t21 59zM313 -258q-47 0 -78.5 29.5t-31.5 75.5t31.5 75.5t78.5 29.5t78.5 -29.5t31.5 -75.5t-31.5 -75.5
t-78.5 -29.5z" />
    <glyph glyph-name="uni1ECE" unicode="&#x1ece;" horiz-adv-x="816" 
d="M407 -14q-166 0 -274 103.5t-108 259.5q0 155 109.5 260t274.5 105t273.5 -104t108.5 -259q0 -156 -109 -260.5t-275 -104.5zM407 491q-56 0 -91.5 -39.5t-35.5 -100.5t36 -101.5t93 -40.5q56 0 91.5 39.5t35.5 100.5t-36.5 101.5t-92.5 40.5zM584 916q0 -41 -30 -77
t-120 -92l-94 31v2q55 44 73 62t18 30q0 9 -7 14t-21 5q-21 0 -54.5 -11t-68.5 -30h-2v122q38 21 81.5 32.5t86.5 11.5q65 0 101.5 -27t36.5 -73z" />
    <glyph glyph-name="uni1ECF" unicode="&#x1ecf;" horiz-adv-x="626" 
d="M313 -14q-128 0 -211 80t-83 197t83 197t211 80t211 -80t83 -197t-83 -197t-211 -80zM387 263q0 36 -21 59t-53 23t-53 -23t-21 -59t21 -59t53 -23t53 23t21 59zM482 755q0 -45 -30.5 -83.5t-119.5 -98.5l-94 31v2q53 46 72 66.5t19 33.5q0 10 -7 15.5t-21 5.5
q-21 0 -54.5 -12.5t-68.5 -32.5h-2v132q39 23 82.5 35.5t85.5 12.5q64 0 101 -29.5t37 -77.5z" />
    <glyph glyph-name="uni1ED0" unicode="&#x1ed0;" horiz-adv-x="816" 
d="M407 -14q-166 0 -274 103.5t-108 259.5q0 155 109.5 260t274.5 105t273.5 -104t108.5 -259q0 -156 -109 -260.5t-275 -104.5zM407 491q-56 0 -91.5 -39.5t-35.5 -100.5t36 -101.5t93 -40.5q56 0 91.5 39.5t35.5 100.5t-36.5 101.5t-92.5 40.5zM704 886h-115l58 148h237
v-2zM651 756h-138l-106 54l-106 -54h-136v2l138 154h210l138 -154v-2z" />
    <glyph glyph-name="uni1ED1" unicode="&#x1ed1;" horiz-adv-x="626" 
d="M313 -14q-128 0 -211 80t-83 197t83 197t211 80t211 -80t83 -197t-83 -197t-211 -80zM387 263q0 36 -21 59t-53 23t-53 -23t-21 -59t21 -59t53 -23t53 23t21 59zM578 716h-96l59 162h209v-2zM546 580h-126l-107 59l-109 -59h-124v2l135 159h196l135 -159v-2z" />
    <glyph glyph-name="uni1ED2" unicode="&#x1ed2;" horiz-adv-x="816" 
d="M407 -14q-166 0 -274 103.5t-108 259.5q0 155 109.5 260t274.5 105t273.5 -104t108.5 -259q0 -156 -109 -260.5t-275 -104.5zM407 491q-56 0 -91.5 -39.5t-35.5 -100.5t36 -101.5t93 -40.5q56 0 91.5 39.5t35.5 100.5t-36.5 101.5t-92.5 40.5zM714 1034l58 -148h-115
l-180 146v2h237zM651 756h-138l-106 54l-106 -54h-136v2l138 154h210l138 -154v-2z" />
    <glyph glyph-name="uni1ED3" unicode="&#x1ed3;" horiz-adv-x="626" 
d="M313 -14q-128 0 -211 80t-83 197t83 197t211 80t211 -80t83 -197t-83 -197t-211 -80zM387 263q0 36 -21 59t-53 23t-53 -23t-21 -59t21 -59t53 -23t53 23t21 59zM591 878l59 -162h-96l-172 160v2h209zM546 580h-126l-107 59l-109 -59h-124v2l135 159h196l135 -159v-2z
" />
    <glyph glyph-name="uni1ED4" unicode="&#x1ed4;" horiz-adv-x="816" 
d="M407 -14q-166 0 -274 103.5t-108 259.5q0 155 109.5 260t274.5 105t273.5 -104t108.5 -259q0 -156 -109 -260.5t-275 -104.5zM407 491q-56 0 -91.5 -39.5t-35.5 -100.5t36 -101.5t93 -40.5q56 0 91.5 39.5t35.5 100.5t-36.5 101.5t-92.5 40.5zM781 1014
q0 -35 -26.5 -65.5t-101.5 -76.5l-80 27v1q48 37 63 52t15 25q0 8 -6.5 12t-18.5 4q-17 0 -45.5 -9.5t-58.5 -25.5h-2v103q34 18 70.5 27.5t72.5 9.5q55 0 86.5 -23t31.5 -61zM651 756h-138l-106 54l-106 -54h-136v2l138 154h210l138 -154v-2z" />
    <glyph glyph-name="uni1ED5" unicode="&#x1ed5;" horiz-adv-x="626" 
d="M313 -14q-128 0 -211 80t-83 197t83 197t211 80t211 -80t83 -197t-83 -197t-211 -80zM387 263q0 36 -21 59t-53 23t-53 -23t-21 -59t21 -59t53 -23t53 23t21 59zM703 817q0 -31 -23.5 -60.5t-92.5 -77.5l-77 27v2q43 36 57.5 51.5t14.5 25.5q0 8 -5 12.5t-15 4.5
q-16 0 -41 -9.5t-52 -25.5h-2v93q31 18 64.5 28t65.5 10q49 0 77.5 -22t28.5 -59zM546 580h-126l-107 59l-109 -59h-124v2l135 159h196l135 -159v-2z" />
    <glyph glyph-name="uni1ED6" unicode="&#x1ed6;" horiz-adv-x="816" 
d="M407 -14q-166 0 -274 103.5t-108 259.5q0 155 109.5 260t274.5 105t273.5 -104t108.5 -259q0 -156 -109 -260.5t-275 -104.5zM407 491q-56 0 -91.5 -39.5t-35.5 -100.5t36 -101.5t93 -40.5q56 0 91.5 39.5t35.5 100.5t-36.5 101.5t-92.5 40.5zM425 1100q31 -13 44.5 -17
t22.5 -4q15 0 29.5 9.5t43.5 39.5l67 -52q-54 -74 -83 -99t-64 -25q-14 0 -32 5t-56 22q-31 13 -44.5 17t-22.5 4q-15 0 -29.5 -9.5t-43.5 -39.5l-67 52q54 74 83 99t64 25q14 0 32 -5t56 -22zM651 756h-138l-106 54l-106 -54h-136v2l138 154h210l138 -154v-2z" />
    <glyph glyph-name="uni1ED7" unicode="&#x1ed7;" horiz-adv-x="626" 
d="M313 -14q-128 0 -211 80t-83 197t83 197t211 80t211 -80t83 -197t-83 -197t-211 -80zM387 263q0 36 -21 59t-53 23t-53 -23t-21 -59t21 -59t53 -23t53 23t21 59zM330 923q30 -14 42.5 -18t20.5 -4q14 0 26.5 8.5t41.5 39.5l70 -47q-45 -71 -75 -98t-68 -27q-11 0 -26.5 5
t-49.5 20q-30 14 -42.5 18t-20.5 4q-15 0 -28.5 -8t-39.5 -34l-70 46q44 68 74 94t69 26q11 0 26.5 -5t49.5 -20zM546 580h-126l-107 59l-109 -59h-124v2l135 159h196l135 -159v-2z" />
    <glyph glyph-name="uni1ED8" unicode="&#x1ed8;" horiz-adv-x="816" 
d="M407 -14q-166 0 -274 103.5t-108 259.5q0 155 109.5 260t274.5 105t273.5 -104t108.5 -259q0 -156 -109 -260.5t-275 -104.5zM407 491q-56 0 -91.5 -39.5t-35.5 -100.5t36 -101.5t93 -40.5q56 0 91.5 39.5t35.5 100.5t-36.5 101.5t-92.5 40.5zM651 756h-134l-110 62
l-110 -62h-132v2l138 179h210l138 -179v-2zM408 -258q-47 0 -78.5 29.5t-31.5 75.5t31.5 75.5t78.5 29.5t78.5 -29.5t31.5 -75.5t-31.5 -75.5t-78.5 -29.5z" />
    <glyph glyph-name="uni1ED9" unicode="&#x1ed9;" horiz-adv-x="626" 
d="M313 -14q-128 0 -211 80t-83 197t83 197t211 80t211 -80t83 -197t-83 -197t-211 -80zM387 263q0 36 -21 59t-53 23t-53 -23t-21 -59t21 -59t53 -23t53 23t21 59zM546 580h-124l-109 72l-111 -72h-122v2l137 204h192l137 -204v-2zM313 -258q-47 0 -78.5 29.5t-31.5 75.5
t31.5 75.5t78.5 29.5t78.5 -29.5t31.5 -75.5t-31.5 -75.5t-78.5 -29.5z" />
    <glyph glyph-name="uni1EDA" unicode="&#x1eda;" horiz-adv-x="816" 
d="M689 590q50 -46 76 -109t26 -136q0 -153 -109 -256t-275 -103t-274 103.5t-108 259.5q0 154 109 256.5t275 102.5q20 0 39 -1t48 -4q22 -2 32 -2.5t20 -0.5q47 0 71 23t24 68v50h151q6 -18 9.5 -41.5t3.5 -48.5q0 -59 -29 -99t-89 -62zM407 491q-56 0 -91.5 -39.5
t-35.5 -100.5t36 -101.5t93 -40.5q56 0 91.5 39.5t35.5 100.5t-36.5 101.5t-92.5 40.5zM466 761h-129l87 181h271v-2z" />
    <glyph glyph-name="uni1EDB" unicode="&#x1edb;" horiz-adv-x="626" 
d="M527 437q40 -36 60 -83t20 -104q0 -110 -83.5 -187t-210.5 -77q-128 0 -211 78.5t-83 195.5t83.5 195.5t214.5 78.5q8 0 17.5 -0.5t29.5 -1.5q21 -2 32.5 -2.5t21.5 -0.5q36 0 52 14.5t16 48.5v48h127q4 -16 6.5 -33t2.5 -34q0 -52 -23.5 -86t-71.5 -50zM387 261
q0 36 -21 58t-53 22t-53 -22t-21 -58t21 -58t53 -22t53 22t21 58zM360 590h-113l90 206h259v-2z" />
    <glyph glyph-name="uni1EDC" unicode="&#x1edc;" horiz-adv-x="816" 
d="M689 590q50 -46 76 -109t26 -136q0 -153 -109 -256t-275 -103t-274 103.5t-108 259.5q0 154 109 256.5t275 102.5q20 0 39 -1t48 -4q22 -2 32 -2.5t20 -0.5q47 0 71 23t24 68v50h151q6 -18 9.5 -41.5t3.5 -48.5q0 -59 -29 -99t-89 -62zM407 491q-56 0 -91.5 -39.5
t-35.5 -100.5t36 -101.5t93 -40.5q56 0 91.5 39.5t35.5 100.5t-36.5 101.5t-92.5 40.5zM392 942l87 -181h-129l-229 179v2h271z" />
    <glyph glyph-name="uni1EDD" unicode="&#x1edd;" horiz-adv-x="626" 
d="M527 437q40 -36 60 -83t20 -104q0 -110 -83.5 -187t-210.5 -77q-128 0 -211 78.5t-83 195.5t83.5 195.5t214.5 78.5q8 0 17.5 -0.5t29.5 -1.5q21 -2 32.5 -2.5t21.5 -0.5q36 0 52 14.5t16 48.5v48h127q4 -16 6.5 -33t2.5 -34q0 -52 -23.5 -86t-71.5 -50zM387 261
q0 36 -21 58t-53 22t-53 -22t-21 -58t21 -58t53 -22t53 22t21 58zM289 796l90 -206h-113l-236 204v2h259z" />
    <glyph glyph-name="uni1EDE" unicode="&#x1ede;" horiz-adv-x="816" 
d="M689 590q50 -46 76 -109t26 -136q0 -153 -109 -256t-275 -103t-274 103.5t-108 259.5q0 154 109 256.5t275 102.5q20 0 39 -1t48 -4q22 -2 32 -2.5t20 -0.5q47 0 71 23t24 68v50h151q6 -18 9.5 -41.5t3.5 -48.5q0 -59 -29 -99t-89 -62zM407 491q-56 0 -91.5 -39.5
t-35.5 -100.5t36 -101.5t93 -40.5q56 0 91.5 39.5t35.5 100.5t-36.5 101.5t-92.5 40.5zM584 916q0 -41 -30 -77t-120 -92l-94 31v2q55 44 73 62t18 30q0 9 -7 14t-21 5q-21 0 -54.5 -11t-68.5 -30h-2v122q38 21 81.5 32.5t86.5 11.5q65 0 101.5 -27t36.5 -73z" />
    <glyph glyph-name="uni1EDF" unicode="&#x1edf;" horiz-adv-x="626" 
d="M527 437q40 -36 60 -83t20 -104q0 -110 -83.5 -187t-210.5 -77q-128 0 -211 78.5t-83 195.5t83.5 195.5t214.5 78.5q8 0 17.5 -0.5t29.5 -1.5q21 -2 32.5 -2.5t21.5 -0.5q36 0 52 14.5t16 48.5v48h127q4 -16 6.5 -33t2.5 -34q0 -52 -23.5 -86t-71.5 -50zM387 261
q0 36 -21 58t-53 22t-53 -22t-21 -58t21 -58t53 -22t53 22t21 58zM482 755q0 -45 -30.5 -83.5t-119.5 -98.5l-94 31v2q53 46 72 66.5t19 33.5q0 10 -7 15.5t-21 5.5q-21 0 -54.5 -12.5t-68.5 -32.5h-2v132q39 23 82.5 35.5t85.5 12.5q64 0 101 -29.5t37 -77.5z" />
    <glyph glyph-name="uni1EE0" unicode="&#x1ee0;" horiz-adv-x="816" 
d="M406 927q30 -14 43.5 -18t23.5 -4q17 0 31.5 8.5t52.5 41.5l79 -64q-61 -81 -96 -110t-80 -29q-15 0 -34 5.5t-56 21.5q-30 14 -43.5 18t-23.5 4q-17 0 -31.5 -8.5t-52.5 -41.5l-79 64q61 81 96 110t80 29q15 0 34 -5.5t56 -21.5zM689 590q50 -46 76 -109t26 -136
q0 -153 -109 -256t-275 -103t-274 103.5t-108 259.5q0 154 109 256.5t275 102.5q20 0 39 -1t48 -4q22 -2 32 -2.5t20 -0.5q47 0 71 23t24 68v50h151q6 -18 9.5 -41.5t3.5 -48.5q0 -59 -29 -99t-89 -62zM407 491q-56 0 -91.5 -39.5t-35.5 -100.5t36 -101.5t93 -40.5
q56 0 91.5 39.5t35.5 100.5t-36.5 101.5t-92.5 40.5z" />
    <glyph glyph-name="uni1EE1" unicode="&#x1ee1;" horiz-adv-x="626" 
d="M299 755q28 -16 40 -20.5t19 -4.5q14 0 25.5 9.5t42.5 48.5l70 -41q-44 -93 -74.5 -129.5t-67.5 -36.5q-11 0 -27 6t-51 26q-28 15 -40 20t-19 5q-13 0 -24.5 -9t-43.5 -50l-70 41q44 93 74.5 129.5t67.5 36.5q11 0 27 -6t51 -25zM527 437q40 -36 60 -83t20 -104
q0 -110 -83.5 -187t-210.5 -77q-128 0 -211 78.5t-83 195.5t83.5 195.5t214.5 78.5q8 0 17.5 -0.5t29.5 -1.5q21 -2 32.5 -2.5t21.5 -0.5q36 0 52 14.5t16 48.5v48h127q4 -16 6.5 -33t2.5 -34q0 -52 -23.5 -86t-71.5 -50zM387 261q0 36 -21 58t-53 22t-53 -22t-21 -58
t21 -58t53 -22t53 22t21 58z" />
    <glyph glyph-name="uni1EE2" unicode="&#x1ee2;" horiz-adv-x="816" 
d="M689 590q50 -46 76 -109t26 -136q0 -153 -109 -256t-275 -103t-274 103.5t-108 259.5q0 154 109 256.5t275 102.5q20 0 39 -1t48 -4q22 -2 32 -2.5t20 -0.5q47 0 71 23t24 68v50h151q6 -18 9.5 -41.5t3.5 -48.5q0 -59 -29 -99t-89 -62zM407 491q-56 0 -91.5 -39.5
t-35.5 -100.5t36 -101.5t93 -40.5q56 0 91.5 39.5t35.5 100.5t-36.5 101.5t-92.5 40.5zM408 -258q-47 0 -78.5 29.5t-31.5 75.5t31.5 75.5t78.5 29.5t78.5 -29.5t31.5 -75.5t-31.5 -75.5t-78.5 -29.5z" />
    <glyph glyph-name="uni1EE3" unicode="&#x1ee3;" horiz-adv-x="626" 
d="M527 437q40 -36 60 -83t20 -104q0 -110 -83.5 -187t-210.5 -77q-128 0 -211 78.5t-83 195.5t83.5 195.5t214.5 78.5q8 0 17.5 -0.5t29.5 -1.5q21 -2 32.5 -2.5t21.5 -0.5q36 0 52 14.5t16 48.5v48h127q4 -16 6.5 -33t2.5 -34q0 -52 -23.5 -86t-71.5 -50zM387 261
q0 36 -21 58t-53 22t-53 -22t-21 -58t21 -58t53 -22t53 22t21 58zM313 -258q-47 0 -78.5 29.5t-31.5 75.5t31.5 75.5t78.5 29.5t78.5 -29.5t31.5 -75.5t-31.5 -75.5t-78.5 -29.5z" />
    <glyph glyph-name="uni1EE4" unicode="&#x1ee4;" horiz-adv-x="782" 
d="M390 -14q-170 0 -258 86.5t-88 253.5v374h250v-380q0 -54 25.5 -83.5t73.5 -29.5t73.5 29.5t25.5 83.5v380h246v-374q0 -166 -89 -253t-259 -87zM391 -258q-47 0 -78.5 29.5t-31.5 75.5t31.5 75.5t78.5 29.5t78.5 -29.5t31.5 -75.5t-31.5 -75.5t-78.5 -29.5z" />
    <glyph glyph-name="uni1EE5" unicode="&#x1ee5;" horiz-adv-x="654" 
d="M611 0h-224v93q-40 -56 -83.5 -81t-99.5 -25q-78 0 -122 52t-44 146v341h234v-276q0 -31 13 -46t40 -15q14 0 26 2t26 6v329h234v-526zM325 -253q-47 0 -78.5 29.5t-31.5 75.5t31.5 75.5t78.5 29.5t78.5 -29.5t31.5 -75.5t-31.5 -75.5t-78.5 -29.5z" />
    <glyph glyph-name="uni1EE6" unicode="&#x1ee6;" horiz-adv-x="782" 
d="M390 -14q-170 0 -258 86.5t-88 253.5v374h250v-380q0 -54 25.5 -83.5t73.5 -29.5t73.5 29.5t25.5 83.5v380h246v-374q0 -166 -89 -253t-259 -87zM567 906q0 -41 -30 -77t-120 -92l-94 31v2q55 44 73 62t18 30q0 9 -7 14t-21 5q-21 0 -54.5 -11t-68.5 -30h-2v122
q38 21 81.5 32.5t86.5 11.5q65 0 101.5 -27t36.5 -73z" />
    <glyph glyph-name="uni1EE7" unicode="&#x1ee7;" horiz-adv-x="654" 
d="M611 0h-224v93q-40 -56 -83.5 -81t-99.5 -25q-78 0 -122 52t-44 146v341h234v-276q0 -31 13 -46t40 -15q14 0 26 2t26 6v329h234v-526zM494 750q0 -45 -30.5 -83.5t-119.5 -98.5l-94 31v2q53 46 72 66.5t19 33.5q0 10 -7 15.5t-21 5.5q-21 0 -54.5 -12.5t-68.5 -32.5h-2
v132q39 23 82.5 35.5t85.5 12.5q64 0 101 -29.5t37 -77.5z" />
    <glyph glyph-name="uni1EE8" unicode="&#x1ee8;" horiz-adv-x="832" 
d="M393 207q48 0 73.5 29.5t25.5 83.5v380h109q47 0 71 23t24 68v50h151q6 -18 9.5 -41.5t3.5 -48.5q0 -61 -30 -101t-92 -61v-263q0 -166 -89 -253t-259 -87t-258 86.5t-88 253.5v374h250v-380q0 -54 25.5 -83.5t73.5 -29.5zM449 751h-129l87 181h271v-2z" />
    <glyph glyph-name="uni1EE9" unicode="&#x1ee9;" horiz-adv-x="679" 
d="M325 189q14 0 26 2t26 6v329h124q36 0 52 14.5t16 48.5v41h127q4 -15 6.5 -31.5t2.5 -33.5q0 -50 -23.5 -82.5t-70.5 -48.5v-434h-224v93q-40 -56 -83.5 -81t-99.5 -25q-78 0 -122 52t-44 146v341h234v-276q0 -31 13 -46t40 -15zM372 585h-113l90 206h259v-2z" />
    <glyph glyph-name="uni1EEA" unicode="&#x1eea;" horiz-adv-x="832" 
d="M393 207q48 0 73.5 29.5t25.5 83.5v380h109q47 0 71 23t24 68v50h151q6 -18 9.5 -41.5t3.5 -48.5q0 -61 -30 -101t-92 -61v-263q0 -166 -89 -253t-259 -87t-258 86.5t-88 253.5v374h250v-380q0 -54 25.5 -83.5t73.5 -29.5zM375 932l87 -181h-129l-229 179v2h271z" />
    <glyph glyph-name="uni1EEB" unicode="&#x1eeb;" horiz-adv-x="679" 
d="M325 189q14 0 26 2t26 6v329h124q36 0 52 14.5t16 48.5v41h127q4 -15 6.5 -31.5t2.5 -33.5q0 -50 -23.5 -82.5t-70.5 -48.5v-434h-224v93q-40 -56 -83.5 -81t-99.5 -25q-78 0 -122 52t-44 146v341h234v-276q0 -31 13 -46t40 -15zM301 791l90 -206h-113l-236 204v2h259z
" />
    <glyph glyph-name="uni1EEC" unicode="&#x1eec;" horiz-adv-x="832" 
d="M393 207q48 0 73.5 29.5t25.5 83.5v380h109q47 0 71 23t24 68v50h151q6 -18 9.5 -41.5t3.5 -48.5q0 -61 -30 -101t-92 -61v-263q0 -166 -89 -253t-259 -87t-258 86.5t-88 253.5v374h250v-380q0 -54 25.5 -83.5t73.5 -29.5zM567 906q0 -41 -30 -77t-120 -92l-94 31v2
q55 44 73 62t18 30q0 9 -7 14t-21 5q-21 0 -54.5 -11t-68.5 -30h-2v122q38 21 81.5 32.5t86.5 11.5q65 0 101.5 -27t36.5 -73z" />
    <glyph glyph-name="uni1EED" unicode="&#x1eed;" horiz-adv-x="679" 
d="M325 189q14 0 26 2t26 6v329h124q36 0 52 14.5t16 48.5v41h127q4 -15 6.5 -31.5t2.5 -33.5q0 -50 -23.5 -82.5t-70.5 -48.5v-434h-224v93q-40 -56 -83.5 -81t-99.5 -25q-78 0 -122 52t-44 146v341h234v-276q0 -31 13 -46t40 -15zM494 750q0 -45 -30.5 -83.5t-119.5 -98.5
l-94 31v2q53 46 72 66.5t19 33.5q0 10 -7 15.5t-21 5.5q-21 0 -54.5 -12.5t-68.5 -32.5h-2v132q39 23 82.5 35.5t85.5 12.5q64 0 101 -29.5t37 -77.5z" />
    <glyph glyph-name="uni1EEE" unicode="&#x1eee;" horiz-adv-x="832" 
d="M393 207q48 0 73.5 29.5t25.5 83.5v380h109q47 0 71 23t24 68v50h151q6 -18 9.5 -41.5t3.5 -48.5q0 -61 -30 -101t-92 -61v-263q0 -166 -89 -253t-259 -87t-258 86.5t-88 253.5v374h250v-380q0 -54 25.5 -83.5t73.5 -29.5zM419 922q30 -14 43.5 -18t23.5 -4
q17 0 31.5 8.5t52.5 41.5l79 -64q-61 -81 -96 -110t-80 -29q-15 0 -34 5.5t-56 21.5q-30 14 -43.5 18t-23.5 4q-17 0 -31.5 -8.5t-52.5 -41.5l-79 64q61 81 96 110t80 29q15 0 34 -5.5t56 -21.5z" />
    <glyph glyph-name="uni1EEF" unicode="&#x1eef;" horiz-adv-x="679" 
d="M325 189q14 0 26 2t26 6v329h124q36 0 52 14.5t16 48.5v41h127q4 -15 6.5 -31.5t2.5 -33.5q0 -50 -23.5 -82.5t-70.5 -48.5v-434h-224v93q-40 -56 -83.5 -81t-99.5 -25q-78 0 -122 52t-44 146v341h234v-276q0 -31 13 -46t40 -15zM329 762q34 -17 48 -22t23 -5
q14 0 26.5 9t48.5 50l88 -58q-49 -91 -82.5 -125.5t-76.5 -34.5q-12 0 -29 6t-54 24q-34 17 -48 22t-23 5q-14 0 -26.5 -9t-48.5 -50l-88 58q49 91 82.5 125.5t76.5 34.5q12 0 29 -6t54 -24z" />
    <glyph glyph-name="uni1EF0" unicode="&#x1ef0;" horiz-adv-x="832" 
d="M393 207q48 0 73.5 29.5t25.5 83.5v380h109q47 0 71 23t24 68v50h151q6 -18 9.5 -41.5t3.5 -48.5q0 -61 -30 -101t-92 -61v-263q0 -166 -89 -253t-259 -87t-258 86.5t-88 253.5v374h250v-380q0 -54 25.5 -83.5t73.5 -29.5zM391 -258q-47 0 -78.5 29.5t-31.5 75.5
t31.5 75.5t78.5 29.5t78.5 -29.5t31.5 -75.5t-31.5 -75.5t-78.5 -29.5z" />
    <glyph glyph-name="uni1EF1" unicode="&#x1ef1;" horiz-adv-x="679" 
d="M325 189q14 0 26 2t26 6v329h124q36 0 52 14.5t16 48.5v41h127q4 -15 6.5 -31.5t2.5 -33.5q0 -50 -23.5 -82.5t-70.5 -48.5v-434h-224v93q-40 -56 -83.5 -81t-99.5 -25q-78 0 -122 52t-44 146v341h234v-276q0 -31 13 -46t40 -15zM325 -253q-47 0 -78.5 29.5t-31.5 75.5
t31.5 75.5t78.5 29.5t78.5 -29.5t31.5 -75.5t-31.5 -75.5t-78.5 -29.5z" />
    <glyph glyph-name="Ygrave" unicode="&#x1ef2;" horiz-adv-x="758" 
d="M491 700h272l-259 -447v-253h-250v253l-259 447h286l105 -212zM363 932l87 -181h-129l-229 179v2h271z" />
    <glyph glyph-name="ygrave" unicode="&#x1ef3;" horiz-adv-x="652" 
d="M652 526l-165 -457q-48 -134 -123 -197t-187 -63q-24 0 -47 3t-45 10l-45 201l3 2q19 -8 39 -12t43 -4q28 0 48 5t35 16l-208 496h251l85 -245l70 245h246zM312 786l90 -206h-113l-236 204v2h259z" />
    <glyph glyph-name="uni1EF4" unicode="&#x1ef4;" horiz-adv-x="758" 
d="M491 700h272l-259 -447v-253h-250v253l-259 447h286l105 -212zM379 -253q-47 0 -78.5 29.5t-31.5 75.5t31.5 75.5t78.5 29.5t78.5 -29.5t31.5 -75.5t-31.5 -75.5t-78.5 -29.5z" />
    <glyph glyph-name="uni1EF5" unicode="&#x1ef5;" horiz-adv-x="652" 
d="M652 526l-165 -457q-48 -134 -123 -197t-187 -63q-24 0 -47 3t-45 10l-45 201l3 2q19 -8 39 -12t43 -4q28 0 48 5t35 16l-208 496h251l85 -245l70 245h246zM566 -223q-47 0 -78.5 29.5t-31.5 75.5t31.5 75.5t78.5 29.5t78.5 -29.5t31.5 -75.5t-31.5 -75.5t-78.5 -29.5z
" />
    <glyph glyph-name="uni1EF6" unicode="&#x1ef6;" horiz-adv-x="758" 
d="M491 700h272l-259 -447v-253h-250v253l-259 447h286l105 -212zM555 906q0 -41 -30 -77t-120 -92l-94 31v2q55 44 73 62t18 30q0 9 -7 14t-21 5q-21 0 -54.5 -11t-68.5 -30h-2v122q38 21 81.5 32.5t86.5 11.5q65 0 101.5 -27t36.5 -73z" />
    <glyph glyph-name="uni1EF7" unicode="&#x1ef7;" horiz-adv-x="652" 
d="M652 526l-165 -457q-48 -134 -123 -197t-187 -63q-24 0 -47 3t-45 10l-45 201l3 2q19 -8 39 -12t43 -4q28 0 48 5t35 16l-208 496h251l85 -245l70 245h246zM505 745q0 -45 -30.5 -83.5t-119.5 -98.5l-94 31v2q53 46 72 66.5t19 33.5q0 10 -7 15.5t-21 5.5
q-21 0 -54.5 -12.5t-68.5 -32.5h-2v132q39 23 82.5 35.5t85.5 12.5q64 0 101 -29.5t37 -77.5z" />
    <glyph glyph-name="uni1EF8" unicode="&#x1ef8;" horiz-adv-x="758" 
d="M491 700h272l-259 -447v-253h-250v253l-259 447h286l105 -212zM407 922q30 -14 43.5 -18t23.5 -4q17 0 31.5 8.5t52.5 41.5l79 -64q-61 -81 -96 -110t-80 -29q-15 0 -34 5.5t-56 21.5q-30 14 -43.5 18t-23.5 4q-17 0 -31.5 -8.5t-52.5 -41.5l-79 64q61 81 96 110t80 29
q15 0 34 -5.5t56 -21.5z" />
    <glyph glyph-name="uni1EF9" unicode="&#x1ef9;" horiz-adv-x="652" 
d="M652 526l-165 -457q-48 -134 -123 -197t-187 -63q-24 0 -47 3t-45 10l-45 201l3 2q19 -8 39 -12t43 -4q28 0 48 5t35 16l-208 496h251l85 -245l70 245h246zM340 762q34 -17 48 -22t23 -5q14 0 26.5 9t48.5 50l88 -58q-49 -91 -82.5 -125.5t-76.5 -34.5q-12 0 -29 6
t-54 24q-34 17 -48 22t-23 5q-14 0 -26.5 -9t-48.5 -50l-88 58q49 91 82.5 125.5t76.5 34.5q12 0 29 -6t54 -24z" />
    <glyph glyph-name="uni2002" unicode="&#x2002;" horiz-adv-x="500" 
 />
    <glyph glyph-name="uni2003" unicode="&#x2003;" horiz-adv-x="1000" 
 />
    <glyph glyph-name="uni2004" unicode="&#x2004;" horiz-adv-x="333" 
 />
    <glyph glyph-name="uni2005" unicode="&#x2005;" horiz-adv-x="250" 
 />
    <glyph glyph-name="uni2007" unicode="&#x2007;" horiz-adv-x="600" 
 />
    <glyph glyph-name="uni2009" unicode="&#x2009;" horiz-adv-x="125" 
 />
    <glyph glyph-name="uni200A" unicode="&#x200a;" horiz-adv-x="42" 
 />
    <glyph glyph-name="uni2011" unicode="&#x2011;" horiz-adv-x="410" 
d="M34 182v202h342v-202h-342z" />
    <glyph glyph-name="figuredash" unicode="&#x2012;" horiz-adv-x="600" 
d="M556 451v-198h-512v198h512z" />
    <glyph glyph-name="endash" unicode="&#x2013;" horiz-adv-x="570" 
d="M34 184v198h502v-198h-502z" />
    <glyph glyph-name="emdash" unicode="&#x2014;" horiz-adv-x="950" 
d="M34 184v198h882v-198h-882z" />
    <glyph glyph-name="uni2015" unicode="&#x2015;" horiz-adv-x="950" 
d="M34 184v198h882v-198h-882z" />
    <glyph glyph-name="quoteleft" unicode="&#x2018;" horiz-adv-x="310" 
d="M229 514q0 -30 11 -60.5t53 -109.5h-244q-16 35 -22.5 62t-6.5 54q0 58 51 120t155 129l68 -37q-44 -67 -54.5 -95.5t-10.5 -62.5z" />
    <glyph glyph-name="quoteright" unicode="&#x2019;" horiz-adv-x="310" 
d="M81 530q0 30 -11 60.5t-53 109.5h244q16 -35 22.5 -62t6.5 -54q0 -58 -51 -120t-155 -129l-68 37q44 67 54.5 95.5t10.5 62.5z" />
    <glyph glyph-name="quotesinglbase" unicode="&#x201a;" horiz-adv-x="307" 
d="M78 57q0 30 -11 60.5t-53 109.5h244q16 -35 22.5 -62t6.5 -54q0 -58 -51 -120t-155 -129l-68 37q44 67 54.5 95.5t10.5 62.5z" />
    <glyph glyph-name="uni201B" unicode="&#x201b;" horiz-adv-x="310" 
d="M49 700h244q-42 -79 -53 -109.5t-11 -60.5q0 -34 10.5 -62.5t54.5 -95.5l-68 -37q-104 67 -155 129t-51 120q0 27 6.5 54t22.5 62z" />
    <glyph glyph-name="quotedblleft" unicode="&#x201c;" horiz-adv-x="580" 
d="M219 514q0 -30 11 -60.5t53 -109.5h-234q-16 35 -22.5 62t-6.5 54q0 58 51 120t155 129l58 -37q-44 -67 -54.5 -95.5t-10.5 -62.5zM499 514q0 -30 11 -60.5t53 -109.5h-234q-16 35 -22.5 62t-6.5 54q0 58 51 120t155 129l58 -37q-44 -67 -54.5 -95.5t-10.5 -62.5z" />
    <glyph glyph-name="quotedblright" unicode="&#x201d;" horiz-adv-x="580" 
d="M361 530q0 30 -11 60.5t-53 109.5h234q16 -35 22.5 -62t6.5 -54q0 -58 -51 -120t-155 -129l-58 37q44 67 54.5 95.5t10.5 62.5zM81 530q0 30 -11 60.5t-53 109.5h234q16 -35 22.5 -62t6.5 -54q0 -58 -51 -120t-155 -129l-58 37q44 67 54.5 95.5t10.5 62.5z" />
    <glyph glyph-name="quotedblbase" unicode="&#x201e;" horiz-adv-x="577" 
d="M358 57q0 30 -11 60.5t-53 109.5h234q16 -35 22.5 -62t6.5 -54q0 -58 -51 -120t-155 -129l-58 37q44 67 54.5 95.5t10.5 62.5zM78 57q0 30 -11 60.5t-53 109.5h234q16 -35 22.5 -62t6.5 -54q0 -58 -51 -120t-155 -129l-58 37q44 67 54.5 95.5t10.5 62.5z" />
    <glyph glyph-name="uni201F" unicode="&#x201f;" horiz-adv-x="580" 
d="M49 700h234q-42 -79 -53 -109.5t-11 -60.5q0 -34 10.5 -62.5t54.5 -95.5l-58 -37q-104 67 -155 129t-51 120q0 27 6.5 54t22.5 62zM329 700h234q-42 -79 -53 -109.5t-11 -60.5q0 -34 10.5 -62.5t54.5 -95.5l-58 -37q-104 67 -155 129t-51 120q0 27 6.5 54t22.5 62z" />
    <glyph glyph-name="dagger" unicode="&#x2020;" horiz-adv-x="532" 
d="M247 534l-115 170h268l-115 -170h-38zM218 505v-38l-170 -115v268zM314 505l170 115v-268l-170 115v38zM245 -10l-113 298l115 150h38l115 -150l-113 -298h-42z" />
    <glyph glyph-name="daggerdbl" unicode="&#x2021;" horiz-adv-x="532" 
d="M247 534l-115 170h268l-115 -170h-38zM218 515v-38l-170 -110v263zM314 515l170 115v-263l-170 110v38zM247 242l-115 108l115 108h38l115 -108l-115 -108h-38zM314 223l170 110v-263l-170 115v38zM218 223v-38l-170 -115v263zM285 166l115 -170h-268l115 170h38z" />
    <glyph glyph-name="bullet" unicode="&#x2022;" horiz-adv-x="578" 
d="M289 136q-90 0 -153 63.5t-63 152.5t63 152.5t153 63.5t153 -63.5t63 -152.5t-63 -152.5t-153 -63.5z" />
    <glyph glyph-name="uni2025" unicode="&#x2025;" horiz-adv-x="600" 
d="M150 -11q-51 0 -86.5 36t-35.5 86t35.5 86t86.5 36t86.5 -35.5t35.5 -86.5t-35.5 -86.5t-86.5 -35.5zM450 -11q-51 0 -86.5 36t-35.5 86t35.5 86t86.5 36t86.5 -35.5t35.5 -86.5t-35.5 -86.5t-86.5 -35.5z" />
    <glyph glyph-name="ellipsis" unicode="&#x2026;" horiz-adv-x="814" 
d="M141 -11q-51 0 -87 36t-36 87t36 87t87 36t87 -36t36 -87t-36 -87t-87 -36zM407 -11q-51 0 -87 36t-36 87t36 87t87 36t87 -36t36 -87t-36 -87t-87 -36zM673 -11q-51 0 -87 36t-36 87t36 87t87 36t87 -36t36 -87t-36 -87t-87 -36z" />
    <glyph glyph-name="uni202F" unicode="&#x202f;" horiz-adv-x="125" 
 />
    <glyph glyph-name="guilsinglleft" unicode="&#x2039;" horiz-adv-x="424" 
d="M332 539l74 -52l-138 -223l138 -225l-74 -52l-320 257v38z" />
    <glyph glyph-name="guilsinglright" unicode="&#x203a;" horiz-adv-x="424" 
d="M92 -13l-74 52l138 223l-138 225l74 52l320 -257v-38z" />
    <glyph glyph-name="fraction" unicode="&#x2044;" horiz-adv-x="102" 
d="M79 335l-220 -337h-90l254 367l220 337h90z" />
    <glyph glyph-name="zero.sup" unicode="&#x2070;" horiz-adv-x="458" 
d="M442 609q0 -98 -60.5 -160.5t-152.5 -62.5q-94 0 -153.5 61t-59.5 161q0 98 61 160.5t153 62.5q93 0 152.5 -61.5t59.5 -160.5zM229 702q-27 0 -41.5 -24t-14.5 -69t14.5 -69.5t42.5 -24.5q26 0 40.5 24t14.5 69t-14.5 69.5t-41.5 24.5z" />
    <glyph glyph-name="four.sup" unicode="&#x2074;" horiz-adv-x="437" 
d="M215 465h-204l-5 39l168 318h192v-253h62v-104h-62v-70h-151v70zM218 698l-58 -129h58v129z" />
    <glyph glyph-name="five.sup" unicode="&#x2075;" horiz-adv-x="381" 
d="M190 666q86 0 131 -34t45 -100q0 -67 -53.5 -105.5t-146.5 -38.5q-34 0 -64.5 5t-66.5 16l-11 116l3 1q39 -13 67 -18.5t52 -5.5q28 0 43.5 9.5t15.5 26.5q0 18 -15 27t-45 9q-19 0 -41 -2t-68 -10l-5 3l15 257h298v-123h-194l-2 -36q9 1 20.5 2t21.5 1z" />
    <glyph glyph-name="six.sup" unicode="&#x2076;" horiz-adv-x="415" 
d="M256 695q66 0 107.5 -38t41.5 -103q0 -74 -54 -121t-142 -47q-89 0 -141.5 45.5t-52.5 119.5q0 40 17 80t67 110l58 81h185l-113 -128q4 1 9.5 1h17.5zM180 589q-5 -11 -7 -20t-2 -18q0 -21 11 -34t30 -13q16 0 27 12.5t11 30.5q0 21 -13.5 32t-37.5 11h-12t-7 -1z" />
    <glyph glyph-name="seven.sup" unicode="&#x2077;" horiz-adv-x="403" 
d="M401 822l2 -3l-194 -424h-165l140 301h-153l-13 126h383z" />
    <glyph glyph-name="eight.sup" unicode="&#x2078;" horiz-adv-x="433" 
d="M333 612q39 -15 59.5 -41.5t20.5 -63.5q0 -56 -53 -88t-144 -32q-94 0 -145 31.5t-51 88.5q0 37 20.5 63.5t59.5 41.5q-33 14 -50 38.5t-17 58.5q0 56 48.5 87.5t135.5 31.5q86 0 135 -32t49 -87q0 -33 -17.5 -58t-50.5 -39zM216 729q-15 0 -23.5 -10t-8.5 -27t9 -27.5
t24 -10.5t24 10.5t9 27.5t-9 27t-25 10zM216 567q-16 0 -26 -11.5t-10 -28.5q0 -19 9.5 -30t27.5 -11q17 0 26.5 10.5t9.5 30.5q0 18 -10 29t-27 11z" />
    <glyph glyph-name="nine.sup" unicode="&#x2079;" horiz-adv-x="414" 
d="M399 666q0 -40 -17 -80t-67 -110l-57 -81h-185l107 122q-4 -1 -8 -1h-13q-66 0 -107.5 38.5t-41.5 105.5q0 76 54 123.5t142 47.5q89 0 141 -45.5t52 -119.5zM203 713q-17 0 -27.5 -13t-10.5 -33q0 -22 13 -34t38 -12h10.5t6.5 1q6 12 8.5 22t2.5 22q0 21 -11 34t-30 13z
" />
    <glyph glyph-name="zero.inf" unicode="&#x2080;" horiz-adv-x="458" 
d="M442 68q0 -98 -60.5 -160.5t-152.5 -62.5q-94 0 -153.5 61t-59.5 161q0 98 61 160.5t153 62.5q93 0 152.5 -61.5t59.5 -160.5zM229 161q-27 0 -41.5 -24t-14.5 -69t14.5 -69.5t42.5 -24.5q26 0 40.5 24t14.5 69t-14.5 69.5t-41.5 24.5z" />
    <glyph glyph-name="one.inf" unicode="&#x2081;" horiz-adv-x="306" 
d="M22 22l-2 1v150l242 120l8 -4v-435h-160v213z" />
    <glyph glyph-name="two.inf" unicode="&#x2082;" horiz-adv-x="385" 
d="M234 -22l137 2l-34 -126h-311l-8 90l143 138q17 17 24 28.5t7 21.5q0 11 -6.5 17t-19.5 6q-25 0 -57.5 -18t-73.5 -54l-3 1l-7 145q38 31 80.5 45t92.5 14q72 0 113 -36t41 -95q0 -37 -17 -68.5t-56 -68.5z" />
    <glyph glyph-name="three.inf" unicode="&#x2083;" horiz-adv-x="370" 
d="M267 74q44 -15 65.5 -41t21.5 -63q0 -55 -47.5 -89t-122.5 -34q-44 0 -81 9t-71 27l-14 128l3 1q30 -20 70 -34t69 -14q19 0 28 5.5t9 16.5q0 14 -25.5 26.5t-95.5 35.5v38q80 33 98 43t18 22q0 9 -9 14.5t-26 5.5q-28 0 -60.5 -11.5t-67.5 -34.5h-3v118q31 20 74.5 32
t88.5 12q73 0 117.5 -30.5t44.5 -81.5q0 -34 -21 -59t-63 -42z" />
    <glyph glyph-name="four.inf" unicode="&#x2084;" horiz-adv-x="437" 
d="M215 -76h-204l-5 39l168 318h192v-253h62v-104h-62v-70h-151v70zM218 157l-58 -129h58v129z" />
    <glyph glyph-name="five.inf" unicode="&#x2085;" horiz-adv-x="381" 
d="M190 125q86 0 131 -34t45 -100q0 -67 -53.5 -105.5t-146.5 -38.5q-34 0 -64.5 5t-66.5 16l-11 116l3 1q39 -13 67 -18.5t52 -5.5q28 0 43.5 9.5t15.5 26.5q0 18 -15 27t-45 9q-19 0 -41 -2t-68 -10l-5 3l15 257h298v-123h-194l-2 -36q9 1 20.5 2t21.5 1z" />
    <glyph glyph-name="six.inf" unicode="&#x2086;" horiz-adv-x="415" 
d="M256 154q66 0 107.5 -38t41.5 -103q0 -74 -54 -121t-142 -47q-89 0 -141.5 45.5t-52.5 119.5q0 40 17 80t67 110l58 81h185l-113 -128q4 1 9.5 1h17.5zM180 48q-5 -11 -7 -20t-2 -18q0 -21 11 -34t30 -13q16 0 27 12.5t11 30.5q0 21 -13.5 32t-37.5 11h-12t-7 -1z" />
    <glyph glyph-name="seven.inf" unicode="&#x2087;" horiz-adv-x="403" 
d="M401 281l2 -3l-194 -424h-165l140 301h-153l-13 126h383z" />
    <glyph glyph-name="eight.inf" unicode="&#x2088;" horiz-adv-x="433" 
d="M333 71q39 -15 59.5 -41.5t20.5 -63.5q0 -56 -53 -88t-144 -32q-94 0 -145 31.5t-51 88.5q0 37 20.5 63.5t59.5 41.5q-33 14 -50 38.5t-17 58.5q0 56 48.5 87.5t135.5 31.5q86 0 135 -32t49 -87q0 -33 -17.5 -58t-50.5 -39zM216 188q-15 0 -23.5 -10t-8.5 -27t9 -27.5
t24 -10.5t24 10.5t9 27.5t-9 27t-25 10zM216 26q-16 0 -26 -11.5t-10 -28.5q0 -19 9.5 -30t27.5 -11q17 0 26.5 10.5t9.5 30.5q0 18 -10 29t-27 11z" />
    <glyph glyph-name="nine.inf" unicode="&#x2089;" horiz-adv-x="414" 
d="M399 125q0 -40 -17 -80t-67 -110l-57 -81h-185l107 122q-4 -1 -8 -1h-13q-66 0 -107.5 38.5t-41.5 105.5q0 76 54 123.5t142 47.5q89 0 141 -45.5t52 -119.5zM203 172q-17 0 -27.5 -13t-10.5 -33q0 -22 13 -34t38 -12h10.5t6.5 1q6 12 8.5 22t2.5 22q0 21 -11 34t-30 13z
" />
    <glyph glyph-name="uni20A6" unicode="&#x20a6;" horiz-adv-x="914" 
d="M21 442v121h74v137h279l80 -134h135l-2 134h232v-137h74v-121h-74v-180h74v-121h-74v-141h-269l-83 138h-142l2 -138h-232v141h-74v121h74v180h-74zM591 455h-70l72 -120zM321 382l2 -133h78z" />
    <glyph glyph-name="uni20A9" unicode="&#x20a9;" horiz-adv-x="1214" 
d="M1162 262v-121h-171l-44 -146h-211l-50 146h-155l-46 -146h-213l-44 146h-178v121h142l-54 180h-128v121h92l-41 137h229l35 -137h155l48 145h161l49 -145h161l35 137h224l-41 -137h87v-121h-123l-54 -180h135zM870 452h-94l54 -157zM443 452h-90l39 -155zM606 376
l-39 -124h82z" />
    <glyph glyph-name="dong" unicode="&#x20ab;" horiz-adv-x="677" 
d="M588 0h-230v57q-29 -35 -62 -51t-74 -16q-84 0 -139.5 65.5t-55.5 165.5q0 103 59 167.5t153 64.5q31 0 58.5 -6t51.5 -19v76h-136v121h136v75h239v-75h74v-121h-74v-504zM305 305q-26 0 -41 -20.5t-15 -53.5q0 -34 15 -53t42 -19q11 0 21 2.5t22 7.5v126
q-14 5 -24.5 7.5t-19.5 2.5zM600 -190h-563v121h563v-121z" />
    <glyph glyph-name="Euro" unicode="&#x20ac;" horiz-adv-x="690" 
d="M650 256l-22 -217q-37 -24 -87 -37.5t-106 -13.5q-130 0 -216 58t-117 168h-92v121h74v7.5v6.5v8v8h-74v121h94q35 108 122 167t210 59q61 0 110 -12t96 -39v-230l-3 -1q-49 38 -92.5 55t-90.5 17q-37 0 -62.5 -8.5t-39.5 -25.5h164v-103h-179v-30h179v-103h-163
q15 -17 42.5 -25.5t68.5 -8.5q51 0 94.5 14.5t85.5 45.5z" />
    <glyph glyph-name="uni20B1" unicode="&#x20b1;" horiz-adv-x="755" 
d="M362 177h-34v-177h-239v373h-74v121h74v206h257q139 0 221 -53t99 -153h77v-121h-80q-21 -93 -100 -144.5t-201 -51.5zM349 509h-25v-153h25q44 0 67.5 20t23.5 57t-23.5 56.5t-67.5 19.5z" />
    <glyph glyph-name="uni20B9" unicode="&#x20b9;" horiz-adv-x="640" 
d="M365 203l239 -200v-3h-316l-257 224l11 38h8q70 0 116 18t67 53h-204v121h221v60h-221v186h576v-186h-116v-55h116v-129h-124q-11 -40 -40 -71.5t-76 -55.5z" />
    <glyph glyph-name="uni20BA" unicode="&#x20ba;" horiz-adv-x="646" 
d="M578 354l47 -220q-55 -65 -155 -103t-219 -38q-39 0 -70.5 2.5t-91.5 12.5v179l-74 -34v128l74 34v33l-74 -34v128l74 34v224h239v-127l124 57v-128l-124 -57v-33l124 57v-128l-124 -57v-70q70 7 132 42t115 98h3z" />
    <glyph glyph-name="uni20BD" unicode="&#x20bd;" horiz-adv-x="679" 
d="M550 220v-121h-222v-99h-239v99h-74v121h74v32h-74v121h74v327h274q141 0 223.5 -59t82.5 -161q0 -110 -77.5 -169t-224.5 -59h-39v-32h222zM349 509h-25v-140h22q44 0 68.5 18.5t24.5 51.5q0 34 -23 52t-67 18z" />
    <glyph glyph-name="uni2117" unicode="&#x2117;" horiz-adv-x="890" 
d="M160 68q-57 55 -87.5 128t-30.5 153t31 153t88 129q57 55 131 85t154 30q81 0 154 -29.5t130 -84.5t87.5 -128t30.5 -153t-31 -153t-88 -129q-57 -55 -131 -85t-154 -30q-81 0 -154 29.5t-130 84.5zM444 714q-154 0 -261.5 -105.5t-107.5 -257.5q0 -153 108.5 -259
t262.5 -106t261.5 105.5t107.5 257.5q0 153 -108.5 259t-262.5 106zM697 419q0 -80 -59 -124.5t-168 -44.5h-31v-125h-173v455h207q107 0 165.5 -42.5t58.5 -118.5zM464 457h-28v-102h27q32 0 48 13t16 38t-16 38t-47 13z" />
    <glyph glyph-name="uni2120" unicode="&#x2120;" horiz-adv-x="975" 
d="M79 485q-22 16 -32.5 39t-10.5 52q0 59 46 95t124 36q39 0 75.5 -7.5t62.5 -20.5v-119h-3q-30 15 -69 26t-65 11q-9 0 -14.5 -3.5t-5.5 -8.5t6 -8.5t29 -10.5q46 -11 65.5 -19.5t34.5 -19.5q23 -17 34 -40.5t11 -53.5q0 -62 -45.5 -98t-122.5 -36q-43 0 -80 9t-70 27
l-13 119l3 2q40 -20 83.5 -33t74.5 -13q10 0 14 2.5t4 9.5q0 6 -7 10.5t-35 12.5q-42 12 -61 20.5t-33 19.5zM400 700h199l68 -141l67 141h198v-394h-137v225l-124 -231h-11l-123 226v-220h-137v394z" />
    <glyph glyph-name="trademark" unicode="&#x2122;" horiz-adv-x="1006" 
d="M392 700v-126h-116v-268h-140v268h-116v126h372zM431 700h199l68 -141l67 141h198v-394h-137v225l-124 -231h-11l-123 226v-220h-137v394z" />
    <glyph glyph-name="onethird" unicode="&#x2153;" horiz-adv-x="898" 
d="M22 441l-2 1v150l242 120l8 -4v-435h-160v213zM455 335l-220 -337h-90l254 367l220 337h90zM795 220q44 -15 65.5 -41t21.5 -63q0 -55 -47.5 -89t-122.5 -34q-44 0 -81 9t-71 27l-14 128l3 1q30 -20 70 -34t69 -14q19 0 28 5.5t9 16.5q0 14 -25.5 26.5t-95.5 35.5v38
q80 33 98 43t18 22q0 9 -9 14.5t-26 5.5q-28 0 -60.5 -11.5t-67.5 -34.5h-3v118q31 20 74.5 32t88.5 12q73 0 117.5 -30.5t44.5 -81.5q0 -34 -21 -59t-63 -42z" />
    <glyph glyph-name="twothirds" unicode="&#x2154;" horiz-adv-x="957" 
d="M234 397l137 2l-34 -126h-311l-8 90l143 138q17 17 24 28.5t7 21.5q0 11 -6.5 17t-19.5 6q-25 0 -57.5 -18t-73.5 -54l-3 1l-7 145q38 31 80.5 45t92.5 14q72 0 113 -36t41 -95q0 -37 -17 -68.5t-56 -68.5zM514 335l-220 -337h-90l254 367l220 337h90zM854 220
q44 -15 65.5 -41t21.5 -63q0 -55 -47.5 -89t-122.5 -34q-44 0 -81 9t-71 27l-14 128l3 1q30 -20 70 -34t69 -14q19 0 28 5.5t9 16.5q0 14 -25.5 26.5t-95.5 35.5v38q80 33 98 43t18 22q0 9 -9 14.5t-26 5.5q-28 0 -60.5 -11.5t-67.5 -34.5h-3v118q31 20 74.5 32t88.5 12
q73 0 117.5 -30.5t44.5 -81.5q0 -34 -21 -59t-63 -42z" />
    <glyph glyph-name="onefifth" unicode="&#x2155;" horiz-adv-x="909" 
d="M22 441l-2 1v150l242 120l8 -4v-435h-160v213zM455 335l-220 -337h-90l254 367l220 337h90zM718 271q86 0 131 -34t45 -100q0 -67 -53.5 -105.5t-146.5 -38.5q-34 0 -64.5 5t-66.5 16l-11 116l3 1q39 -13 67 -18.5t52 -5.5q28 0 43.5 9.5t15.5 26.5q0 18 -15 27t-45 9
q-19 0 -41 -2t-68 -10l-5 3l15 257h298v-123h-194l-2 -36q9 1 20.5 2t21.5 1z" />
    <glyph glyph-name="twofifths" unicode="&#x2156;" horiz-adv-x="968" 
d="M234 397l137 2l-34 -126h-311l-8 90l143 138q17 17 24 28.5t7 21.5q0 11 -6.5 17t-19.5 6q-25 0 -57.5 -18t-73.5 -54l-3 1l-7 145q38 31 80.5 45t92.5 14q72 0 113 -36t41 -95q0 -37 -17 -68.5t-56 -68.5zM514 335l-220 -337h-90l254 367l220 337h90zM777 271
q86 0 131 -34t45 -100q0 -67 -53.5 -105.5t-146.5 -38.5q-34 0 -64.5 5t-66.5 16l-11 116l3 1q39 -13 67 -18.5t52 -5.5q28 0 43.5 9.5t15.5 26.5q0 18 -15 27t-45 9q-19 0 -41 -2t-68 -10l-5 3l15 257h298v-123h-194l-2 -36q9 1 20.5 2t21.5 1z" />
    <glyph glyph-name="threefifths" unicode="&#x2157;" horiz-adv-x="937" 
d="M267 493q44 -15 65.5 -41t21.5 -63q0 -55 -47.5 -89t-122.5 -34q-44 0 -81 9t-71 27l-14 128l3 1q30 -20 70 -34t69 -14q19 0 28 5.5t9 16.5q0 14 -25.5 26.5t-95.5 35.5v38q80 33 98 43t18 22q0 9 -9 14.5t-26 5.5q-28 0 -60.5 -11.5t-67.5 -34.5h-3v118q31 20 74.5 32
t88.5 12q73 0 117.5 -30.5t44.5 -81.5q0 -34 -21 -59t-63 -42zM483 335l-220 -337h-90l254 367l220 337h90zM746 271q86 0 131 -34t45 -100q0 -67 -53.5 -105.5t-146.5 -38.5q-34 0 -64.5 5t-66.5 16l-11 116l3 1q39 -13 67 -18.5t52 -5.5q28 0 43.5 9.5t15.5 26.5
q0 18 -15 27t-45 9q-19 0 -41 -2t-68 -10l-5 3l15 257h298v-123h-194l-2 -36q9 1 20.5 2t21.5 1z" />
    <glyph glyph-name="fourfifths" unicode="&#x2158;" horiz-adv-x="1006" 
d="M215 343h-204l-5 39l168 318h192v-253h62v-104h-62v-70h-151v70zM218 576l-58 -129h58v129zM552 335l-220 -337h-90l254 367l220 337h90zM815 271q86 0 131 -34t45 -100q0 -67 -53.5 -105.5t-146.5 -38.5q-34 0 -64.5 5t-66.5 16l-11 116l3 1q39 -13 67 -18.5t52 -5.5
q28 0 43.5 9.5t15.5 26.5q0 18 -15 27t-45 9q-19 0 -41 -2t-68 -10l-5 3l15 257h298v-123h-194l-2 -36q9 1 20.5 2t21.5 1z" />
    <glyph glyph-name="onesixth" unicode="&#x2159;" horiz-adv-x="898" 
d="M22 441l-2 1v150l242 120l8 -4v-435h-160v213zM455 335l-220 -337h-90l254 367l220 337h90zM739 300q66 0 107.5 -38t41.5 -103q0 -74 -54 -121t-142 -47q-89 0 -141.5 45.5t-52.5 119.5q0 40 17 80t67 110l58 81h185l-113 -128q4 1 9.5 1h17.5zM663 194q-5 -11 -7 -20
t-2 -18q0 -21 11 -34t30 -13q16 0 27 12.5t11 30.5q0 21 -13.5 32t-37.5 11h-12t-7 -1z" />
    <glyph glyph-name="fivesixths" unicode="&#x215a;" horiz-adv-x="943" 
d="M190 544q86 0 131 -34t45 -100q0 -67 -53.5 -105.5t-146.5 -38.5q-34 0 -64.5 5t-66.5 16l-11 116l3 1q39 -13 67 -18.5t52 -5.5q28 0 43.5 9.5t15.5 26.5q0 18 -15 27t-45 9q-19 0 -41 -2t-68 -10l-5 3l15 257h298v-123h-194l-2 -36q9 1 20.5 2t21.5 1zM500 335
l-220 -337h-90l254 367l220 337h90zM784 300q66 0 107.5 -38t41.5 -103q0 -74 -54 -121t-142 -47q-89 0 -141.5 45.5t-52.5 119.5q0 40 17 80t67 110l58 81h185l-113 -128q4 1 9.5 1h17.5zM708 194q-5 -11 -7 -20t-2 -18q0 -21 11 -34t30 -13q16 0 27 12.5t11 30.5
q0 21 -13.5 32t-37.5 11h-12t-7 -1z" />
    <glyph glyph-name="oneeighth" unicode="&#x215b;" horiz-adv-x="931" 
d="M22 441l-2 1v150l242 120l8 -4v-435h-160v213zM455 335l-220 -337h-90l254 367l220 337h90zM831 217q39 -15 59.5 -41.5t20.5 -63.5q0 -56 -53 -88t-144 -32q-94 0 -145 31.5t-51 88.5q0 37 20.5 63.5t59.5 41.5q-33 14 -50 38.5t-17 58.5q0 56 48.5 87.5t135.5 31.5
q86 0 135 -32t49 -87q0 -33 -17.5 -58t-50.5 -39zM714 334q-15 0 -23.5 -10t-8.5 -27t9 -27.5t24 -10.5t24 10.5t9 27.5t-9 27t-25 10zM714 172q-16 0 -26 -11.5t-10 -28.5q0 -19 9.5 -30t27.5 -11q17 0 26.5 10.5t9.5 30.5q0 18 -10 29t-27 11z" />
    <glyph glyph-name="threeeighths" unicode="&#x215c;" horiz-adv-x="959" 
d="M267 493q44 -15 65.5 -41t21.5 -63q0 -55 -47.5 -89t-122.5 -34q-44 0 -81 9t-71 27l-14 128l3 1q30 -20 70 -34t69 -14q19 0 28 5.5t9 16.5q0 14 -25.5 26.5t-95.5 35.5v38q80 33 98 43t18 22q0 9 -9 14.5t-26 5.5q-28 0 -60.5 -11.5t-67.5 -34.5h-3v118q31 20 74.5 32
t88.5 12q73 0 117.5 -30.5t44.5 -81.5q0 -34 -21 -59t-63 -42zM483 335l-220 -337h-90l254 367l220 337h90zM859 217q39 -15 59.5 -41.5t20.5 -63.5q0 -56 -53 -88t-144 -32q-94 0 -145 31.5t-51 88.5q0 37 20.5 63.5t59.5 41.5q-33 14 -50 38.5t-17 58.5q0 56 48.5 87.5
t135.5 31.5q86 0 135 -32t49 -87q0 -33 -17.5 -58t-50.5 -39zM742 334q-15 0 -23.5 -10t-8.5 -27t9 -27.5t24 -10.5t24 10.5t9 27.5t-9 27t-25 10zM742 172q-16 0 -26 -11.5t-10 -28.5q0 -19 9.5 -30t27.5 -11q17 0 26.5 10.5t9.5 30.5q0 18 -10 29t-27 11z" />
    <glyph glyph-name="fiveeighths" unicode="&#x215d;" horiz-adv-x="976" 
d="M190 544q86 0 131 -34t45 -100q0 -67 -53.5 -105.5t-146.5 -38.5q-34 0 -64.5 5t-66.5 16l-11 116l3 1q39 -13 67 -18.5t52 -5.5q28 0 43.5 9.5t15.5 26.5q0 18 -15 27t-45 9q-19 0 -41 -2t-68 -10l-5 3l15 257h298v-123h-194l-2 -36q9 1 20.5 2t21.5 1zM500 335
l-220 -337h-90l254 367l220 337h90zM876 217q39 -15 59.5 -41.5t20.5 -63.5q0 -56 -53 -88t-144 -32q-94 0 -145 31.5t-51 88.5q0 37 20.5 63.5t59.5 41.5q-33 14 -50 38.5t-17 58.5q0 56 48.5 87.5t135.5 31.5q86 0 135 -32t49 -87q0 -33 -17.5 -58t-50.5 -39zM759 334
q-15 0 -23.5 -10t-8.5 -27t9 -27.5t24 -10.5t24 10.5t9 27.5t-9 27t-25 10zM759 172q-16 0 -26 -11.5t-10 -28.5q0 -19 9.5 -30t27.5 -11q17 0 26.5 10.5t9.5 30.5q0 18 -10 29t-27 11z" />
    <glyph glyph-name="seveneighths" unicode="&#x215e;" horiz-adv-x="915" 
d="M401 700l2 -3l-194 -424h-165l140 301h-153l-13 126h383zM439 335l-220 -337h-90l254 367l220 337h90zM815 217q39 -15 59.5 -41.5t20.5 -63.5q0 -56 -53 -88t-144 -32q-94 0 -145 31.5t-51 88.5q0 37 20.5 63.5t59.5 41.5q-33 14 -50 38.5t-17 58.5q0 56 48.5 87.5
t135.5 31.5q86 0 135 -32t49 -87q0 -33 -17.5 -58t-50.5 -39zM698 334q-15 0 -23.5 -10t-8.5 -27t9 -27.5t24 -10.5t24 10.5t9 27.5t-9 27t-25 10zM698 172q-16 0 -26 -11.5t-10 -28.5q0 -19 9.5 -30t27.5 -11q17 0 26.5 10.5t9.5 30.5q0 18 -10 29t-27 11z" />
    <glyph glyph-name="minus" unicode="&#x2212;" horiz-adv-x="600" 
d="M572 445v-186h-544v186h544z" />
    <glyph glyph-name="approxequal" unicode="&#x2248;" horiz-adv-x="600" 
d="M187 626q21 0 50.5 -12t89.5 -49q41 -25 56.5 -32t24.5 -7q16 0 31 18.5t48 82.5l100 -48q-49 -130 -84.5 -175.5t-89.5 -45.5q-21 0 -50.5 12.5t-89.5 49.5q-41 24 -56.5 31.5t-24.5 7.5q-16 0 -31 -18.5t-48 -82.5l-100 47q49 130 84.5 175.5t89.5 45.5zM187 346
q21 0 50.5 -12t89.5 -49q41 -25 56.5 -32t24.5 -7q16 0 31 18.5t48 82.5l100 -48q-49 -130 -84.5 -175.5t-89.5 -45.5q-21 0 -50.5 12.5t-89.5 49.5q-41 24 -56.5 31.5t-24.5 7.5q-16 0 -31 -18.5t-48 -82.5l-100 47q49 130 84.5 175.5t89.5 45.5z" />
    <glyph glyph-name="notequal" unicode="&#x2260;" horiz-adv-x="600" 
d="M569 322v-155h-296l-63 -129l-103 47l40 82h-116v155h191l30 60h-221v155h296l63 129l103 -47l-40 -82h116v-155h-191l-30 -60h221z" />
    <glyph glyph-name="lessequal" unicode="&#x2264;" horiz-adv-x="600" 
d="M294 454l229 -77v-185l-458 185v159l458 183v-189zM523 0h-458v155h458v-155z" />
    <glyph glyph-name="greaterequal" unicode="&#x2265;" horiz-adv-x="600" 
d="M535 536v-159l-458 -185v185l229 77l-229 76v189zM535 155v-155h-458v155h458z" />
    <glyph glyph-name="uni237F" unicode="&#x237f;" horiz-adv-x="526" 
d="M465 352q0 -59 -35.5 -107.5t-92.5 -66.5v-268h-148v268q-57 18 -92.5 66.5t-35.5 107.5t35.5 107.5t92.5 66.5v254h148v-254q57 -18 92.5 -66.5t35.5 -107.5z" />
    <glyph glyph-name="uniA788" unicode="&#xa788;" horiz-adv-x="500" 
d="M483 -268h-124l-109 72l-111 -72h-122v2l137 204h192l137 -204v-2z" />
    <glyph glyph-name="G.alt" horiz-adv-x="774" 
d="M754 404v-52q0 -175 -92.5 -270.5t-261.5 -95.5q-164 0 -269.5 101t-105.5 257q0 161 111 264t282 103q77 0 144 -19.5t130 -60.5l-65 -206h-3q-58 35 -104.5 50t-95.5 15q-66 0 -105 -41t-39 -112q0 -66 34.5 -105t93.5 -39q41 0 68 16t40 48h-144v147h382z" />
    <glyph glyph-name="Q.alt" horiz-adv-x="826" 
d="M718 141l79 -69l-96 -92l-78 72q-48 -32 -105 -48t-124 -16q-157 0 -263 104.5t-106 257.5q0 154 109.5 259t274.5 105q76 0 144 -24.5t121 -71.5q56 -49 86.5 -115t30.5 -138q0 -64 -18.5 -120t-54.5 -104zM410 491q-57 0 -93.5 -41.5t-36.5 -105.5q0 -65 37 -107.5
t95 -42.5q12 0 23.5 2t21.5 6l-92 83l96 92l77 -71q1 8 2 17t1 18q0 64 -37 107t-94 43z" />
    <glyph glyph-name="a.alt" horiz-adv-x="655" 
d="M626 0h-219l-14 81q-39 -49 -76.5 -69.5t-88.5 -20.5q-92 0 -149.5 71.5t-57.5 184.5q0 128 83 206.5t217 78.5q35 0 72.5 -6.5t78.5 -20.5l123 26h14v-379zM335 346q-43 0 -68.5 -23t-25.5 -63q0 -37 21 -59t56 -22q13 0 27 3t30 9v150q-10 3 -20 4t-20 1z" />
    <glyph glyph-name="A.sc" horiz-adv-x="739" 
d="M253 0h-242l220 570h275l222 -570h-254l-22 65h-177zM362 369l-44 -139h89z" />
    <glyph glyph-name="B.sc" horiz-adv-x="635" 
d="M509 296q47 -21 71.5 -54t24.5 -76q0 -77 -63 -121.5t-170 -44.5h-327v570h317q106 0 166.5 -41t60.5 -112q0 -37 -20.5 -68.5t-59.5 -52.5zM324 414h-55v-65h58q18 0 29.5 9t11.5 24t-12 23.5t-32 8.5zM269 220v-66h59q20 0 32.5 8.5t12.5 23.5q0 16 -12 25t-31 9h-61z
" />
    <glyph glyph-name="C.sc" horiz-adv-x="571" 
d="M323 -9q-131 0 -216 82t-85 211q0 128 85 211.5t220 83.5q57 0 105 -12t84 -34v-212l-3 -1q-32 27 -70.5 42t-74.5 15q-45 0 -71.5 -25.5t-26.5 -66.5q0 -44 27.5 -68.5t75.5 -24.5q40 0 77 12t69 35l4 -2l-24 -214q-35 -17 -76.5 -24.5t-99.5 -7.5z" />
    <glyph glyph-name="D.sc" horiz-adv-x="670" 
d="M292 0h-247v570h255q171 0 259.5 -72.5t88.5 -211.5q0 -140 -91 -213t-265 -73zM409 284q0 49 -27.5 73.5t-82.5 24.5h-14v-194h13q56 0 83.5 24t27.5 72z" />
    <glyph glyph-name="E.sc" horiz-adv-x="545" 
d="M498 0h-453v570h451l19 -177h-238v-43h199v-129h-199v-44h240z" />
    <glyph glyph-name="F.sc" horiz-adv-x="543" 
d="M462 325v-168h-177v-157h-240v570h466l-19 -187h-207v-58h177z" />
    <glyph glyph-name="G.sc" horiz-adv-x="650" 
d="M607 329v-290q-62 -24 -127.5 -36.5t-128.5 -12.5q-155 0 -242 76t-87 215q0 138 94.5 218t253.5 80q62 0 118 -8.5t105 -25.5v-194h-3q-60 20 -99 27t-86 7q-69 0 -105.5 -28.5t-36.5 -83.5q0 -54 31.5 -80.5t96.5 -26.5h3.5h2.5v50h-75v113h285z" />
    <glyph glyph-name="G.scalt" horiz-adv-x="661" 
d="M638 334v-47q0 -141 -80 -221t-224 -80q-140 0 -226 82t-86 211q0 131 92 216.5t230 85.5q69 0 123.5 -14.5t113.5 -49.5l-57 -172h-3q-43 25 -79 36.5t-70 11.5q-56 0 -86 -31.5t-30 -89.5q0 -54 24.5 -82.5t69.5 -28.5q29 0 48.5 11.5t28.5 34.5h-117v127h328z" />
    <glyph glyph-name="H.sc" horiz-adv-x="712" 
d="M667 0h-240v185h-142v-185h-240v570h240v-183h142v183h240v-570z" />
    <glyph glyph-name="I.sc" horiz-adv-x="334" 
d="M287 0h-240v570h240v-570z" />
    <glyph glyph-name="J.sc" horiz-adv-x="485" 
d="M134 189q31 0 50 19.5t19 50.5v311h240v-360q0 -100 -65 -158t-176 -58q-44 0 -83 8t-75 25l-20 191l3 2q27 -16 52.5 -23.5t54.5 -7.5z" />
    <glyph glyph-name="K.sc" horiz-adv-x="701" 
d="M697 0h-275l-124 194h-13v-194h-240v570h240v-192h7l129 192h268v-2l-193 -268v0l201 -298v-2z" />
    <glyph glyph-name="L.sc" horiz-adv-x="519" 
d="M484 0h-439v570h240v-372h199v-198z" />
    <glyph glyph-name="M.sc" horiz-adv-x="892" 
d="M45 570h301l101 -197l101 197h299v-570h-237l3 275l-162 -283h-12l-162 283l3 -275h-235v570z" />
    <glyph glyph-name="N.sc" horiz-adv-x="715" 
d="M434 570h236v-570h-194l-198 226l3 -226h-236v570h220l171 -196z" />
    <glyph glyph-name="O.sc" horiz-adv-x="683" 
d="M341 -14q-140 0 -229.5 84.5t-89.5 213.5t90 214.5t230 85.5t229.5 -84.5t89.5 -213.5t-90 -214.5t-230 -85.5zM341 385q-37 0 -59 -27t-22 -72q0 -46 22.5 -73.5t59.5 -27.5t59 27t22 72q0 46 -22.5 73.5t-59.5 27.5z" />
    <glyph glyph-name="P.sc" horiz-adv-x="614" 
d="M596 364q0 -107 -68.5 -164t-197.5 -57h-45v-143h-240v570h282q124 0 196.5 -55t72.5 -151zM366 351q0 22 -15.5 34.5t-44.5 12.5h-25v-95h26q28 0 43.5 12.5t15.5 35.5z" />
    </font>
</defs>
</svg>
