<?xml version="1.0" standalone="no"?>
<!DOCTYPE svg PUBLIC "-//W3C//DTD SVG 1.1//EN" "http://www.w3.org/Graphics/SVG/1.1/DTD/svg11.dtd" >
<svg xmlns="http://www.w3.org/2000/svg" xmlns:xlink="http://www.w3.org/1999/xlink" version="1.1">
<metadata>
Created by FontForge 20170731 at Fri Jun  7 00:28:25 2019
 By Aleksey,,,
(C) 2015-2019 Frere-Jones Type LLC
</metadata>
<defs>
<font id="Mallory-Bold" horiz-adv-x="0" >
  <font-face 
    font-family="Mallory Bold"
    font-weight="700"
    font-stretch="normal"
    units-per-em="1000"
    panose-1="2 1 8 2 3 5 1 2 3 4"
    ascent="800"
    descent="-200"
    x-height="511"
    cap-height="700"
    bbox="-230 -270 1483 1101"
    underline-thickness="0"
    underline-position="0"
    unicode-range="U+0020-FB04"
  />
<missing-glyph horiz-adv-x="700" 
d="M600 -240h-500v1200h500v-1200zM507 910h-315l158 -481zM550 874l-172 -514l172 -514v1028zM150 -154l171 514l-171 514v-1028zM507 -190l-157 481l-158 -481h315z" />
    <glyph glyph-name="f_f" unicode="ff" horiz-adv-x="868" 
d="M418 511v-118h-156v-393h-150v393h-82v118h82v50q0 92 51 144t141 52q31 0 56 -4.5t53 -14.5l17 -122l-2 -2q-29 13 -49 18t-41 5q-37 0 -58 -20.5t-21 -56.5v-49h159zM852 511v-118h-156v-393h-150v393h-82v118h82v50q0 92 51 144t141 52q31 0 56 -4.5t53 -14.5l17 -122
l-2 -2q-29 13 -49 18t-41 5q-37 0 -58 -20.5t-21 -56.5v-49h159z" />
    <glyph glyph-name="fi" unicode="fi" horiz-adv-x="727" 
d="M418 511v-118h-156v-393h-150v393h-82v118h82v50q0 92 51 144t141 52q31 0 56 -4.5t53 -14.5l17 -122l-2 -2q-29 13 -49 18t-41 5q-37 0 -58 -20.5t-21 -56.5v-49h159zM581 767q39 0 65.5 -25t26.5 -62t-26.5 -62t-65.5 -25t-65.5 25t-26.5 62t26.5 62t65.5 25zM656 0
h-151v511h151v-511z" />
    <glyph glyph-name="fl" unicode="fl" horiz-adv-x="727" 
d="M418 511v-118h-156v-393h-150v393h-82v118h82v50q0 92 51 144t141 52q31 0 56 -4.5t53 -14.5l17 -122l-2 -2q-29 13 -49 18t-41 5q-37 0 -58 -20.5t-21 -56.5v-49h159zM656 0h-151v718l151 40v-758z" />
    <glyph glyph-name="f_f_i" unicode="ffi" horiz-adv-x="1161" 
d="M418 511v-118h-156v-393h-150v393h-82v118h82v50q0 92 51 144t141 52q31 0 56 -4.5t53 -14.5l17 -122l-2 -2q-29 13 -49 18t-41 5q-37 0 -58 -20.5t-21 -56.5v-49h159zM852 511v-118h-156v-393h-150v393h-82v118h82v50q0 92 51 144t141 52q31 0 56 -4.5t53 -14.5l17 -122
l-2 -2q-29 13 -49 18t-41 5q-37 0 -58 -20.5t-21 -56.5v-49h159zM1015 767q39 0 65.5 -25t26.5 -62t-26.5 -62t-65.5 -25t-65.5 25t-26.5 62t26.5 62t65.5 25zM1090 0h-151v511h151v-511z" />
    <glyph glyph-name="f_f_l" unicode="ffl" horiz-adv-x="1161" 
d="M418 511v-118h-156v-393h-150v393h-82v118h82v50q0 92 51 144t141 52q31 0 56 -4.5t53 -14.5l17 -122l-2 -2q-29 13 -49 18t-41 5q-37 0 -58 -20.5t-21 -56.5v-49h159zM852 511v-118h-156v-393h-150v393h-82v118h82v50q0 92 51 144t141 52q31 0 56 -4.5t53 -14.5l17 -122
l-2 -2q-29 13 -49 18t-41 5q-37 0 -58 -20.5t-21 -56.5v-49h159zM1090 0h-151v718l151 40v-758z" />
    <glyph glyph-name=".notdef" horiz-adv-x="700" 
d="M600 -240h-500v1200h500v-1200zM507 910h-315l158 -481zM550 874l-172 -514l172 -514v1028zM150 -154l171 514l-171 514v-1028zM507 -190l-157 481l-158 -481h315z" />
    <glyph glyph-name="uni0000" 
 />
    <glyph glyph-name="uni0000" 
 />
    <glyph glyph-name="nonmarkingreturn" horiz-adv-x="333" 
 />
    <glyph glyph-name="space" unicode=" " horiz-adv-x="219" 
 />
    <glyph glyph-name="exclam" unicode="!" horiz-adv-x="286" 
d="M233 700v-72l-56 -379h-67l-56 379v72h179zM144 -10q-38 0 -65 27t-27 65t27 65t65 27t64.5 -27t26.5 -65t-26.5 -65t-64.5 -27z" />
    <glyph glyph-name="quotedbl" unicode="&#x22;" horiz-adv-x="518" 
d="M36 414l70 286h171l-177 -304zM265 414l70 286h172l-177 -304z" />
    <glyph glyph-name="numbersign" unicode="#" horiz-adv-x="694" 
d="M447 -2h-99l35 147h-163l-35 -147h-99l35 147h-95v134h127l35 142h-112v134h144l35 147h98l-35 -147h164l35 147h98l-35 -147h87v-134h-119l-34 -142h103v-134h-135zM286 423l-34 -146h163l35 146h-164z" />
    <glyph glyph-name="dollar" unicode="$" horiz-adv-x="589" 
d="M329 417q127 -34 173 -81t46 -130q0 -87 -60 -142t-165 -64l-12 -126h-111l13 129q-43 7 -82 22t-74 37l-24 157l2 1q73 -46 137 -69.5t116 -23.5q51 0 79 18.5t28 52.5t-27.5 53.5t-105.5 38.5q-121 31 -169 79t-48 129q0 88 64 143t172 60l11 113h111l-12 -120
q33 -7 63.5 -18t56.5 -25v-149h-3q-48 31 -108 51t-109 20q-43 0 -68 -18t-25 -48q0 -32 26 -50.5t105 -39.5z" />
    <glyph glyph-name="percent" unicode="%" horiz-adv-x="921" 
d="M397 511q0 -90 -52 -147.5t-132 -57.5q-78 0 -129 57t-51 146q0 90 51 147.5t131 57.5q79 0 130.5 -57t51.5 -146zM278 -2h-107l255 374l216 330h108l-257 -374zM214 619q-33 0 -53 -29.5t-20 -78.5t20.5 -78.5t54.5 -29.5q33 0 53 29t20 78q0 50 -20 79.5t-55 29.5z
M525 189q0 90 51 147.5t130 57.5q80 0 131 -56.5t51 -146.5t-51.5 -147.5t-131.5 -57.5q-79 0 -129.5 56.5t-50.5 146.5zM707 82q34 0 54 29.5t20 77.5q0 50 -20.5 80t-54.5 30q-33 0 -53.5 -29.5t-20.5 -78.5t20.5 -79t54.5 -30z" />
    <glyph glyph-name="ampersand" unicode="&#x26;" horiz-adv-x="732" 
d="M718 0h-176q-16 14 -33.5 30t-50.5 47q-54 -44 -107.5 -65t-112.5 -21q-93 0 -149.5 51t-56.5 133q0 63 40.5 111.5t124.5 86.5q-31 49 -45 86t-14 72q0 79 58 131t149 52q84 0 138 -48t54 -121q0 -56 -41 -105t-124 -94q21 -25 43.5 -51t48.5 -53q19 21 41 49t56 75h147
v-3q-47 -64 -87 -114t-75 -89q42 -40 84.5 -79t87.5 -79v-2zM346 603q-34 0 -54 -21t-20 -55q0 -23 10 -48t34 -60q48 27 72.5 55.5t24.5 57.5q0 31 -19 51t-48 20zM261 285q-42 -26 -61.5 -49.5t-19.5 -49.5q0 -34 23.5 -56.5t60.5 -22.5q27 0 55 11.5t59 36.5
q-30 31 -59 63t-58 67z" />
    <glyph glyph-name="quotesingle" unicode="'" horiz-adv-x="293" 
d="M36 414l70 286h175l-180 -304z" />
    <glyph glyph-name="parenleft" unicode="(" horiz-adv-x="440" 
d="M215 305q0 -113 49 -211t157 -196l-38 -43q-166 98 -241.5 206.5t-75.5 243.5t75.5 243.5t241.5 206.5l38 -43q-108 -98 -157 -196t-49 -211z" />
    <glyph glyph-name="parenright" unicode=")" horiz-adv-x="440" 
d="M225 305q0 114 -49.5 212t-156.5 195l38 43q166 -97 241.5 -205.5t75.5 -244.5t-75.5 -244.5t-241.5 -205.5l-38 43q107 97 156.5 195t49.5 212z" />
    <glyph glyph-name="asterisk" unicode="*" horiz-adv-x="535" 
d="M188 704h159l-68 -170h-23zM219 490l-183 -12l50 151l140 -117zM449 629l50 -151l-183 12l-7 22zM250 444l-44 -177l-130 92l156 99zM459 359l-130 -92l-43 177l17 14z" />
    <glyph glyph-name="plus" unicode="+" horiz-adv-x="600" 
d="M559 418v-126h-193v-193h-132v193h-193v126h193v192h132v-192h193z" />
    <glyph glyph-name="comma" unicode="," horiz-adv-x="243" 
d="M20 -176l-40 37q52 71 65.5 120t13.5 146v32h147q0 -106 -33.5 -172t-152.5 -163z" />
    <glyph glyph-name="hyphen" unicode="-" horiz-adv-x="400" 
d="M53 211v135h294v-135h-294z" />
    <glyph glyph-name="period" unicode="." horiz-adv-x="243" 
d="M122 -10q-39 0 -66.5 27.5t-27.5 66.5t27.5 66.5t66.5 27.5t66.5 -27.5t27.5 -66.5t-27.5 -66.5t-66.5 -27.5z" />
    <glyph glyph-name="slash" unicode="/" horiz-adv-x="482" 
d="M106 -130h-114l351 870h114z" />
    <glyph glyph-name="zero" unicode="0" horiz-adv-x="694" 
d="M48 349q0 159 84 262t216 103t215 -101.5t83 -261.5t-84 -262.5t-216 -102.5q-133 0 -215.5 101t-82.5 262zM202 351q0 -102 40 -164.5t106 -62.5q65 0 104.5 62t39.5 163t-40 164t-106 63q-65 0 -104.5 -62t-39.5 -163z" />
    <glyph glyph-name="one" unicode="1" horiz-adv-x="454" 
d="M42 376l-2 1v161l306 175l17 -5v-708h-155v473z" />
    <glyph glyph-name="two" unicode="2" horiz-adv-x="589" 
d="M271 134l285 2l-51 -136h-456l-10 69l245 275q45 53 60.5 82.5t15.5 60.5q0 36 -24 59t-62 23q-47 0 -97.5 -32t-108.5 -99l-2 1l-15 162q52 56 112.5 83t131.5 27q100 0 159.5 -55.5t59.5 -146.5q0 -57 -24 -106.5t-93 -125.5z" />
    <glyph glyph-name="three" unicode="3" horiz-adv-x="562" 
d="M373 365q70 -23 107 -68.5t37 -107.5q0 -87 -71 -143.5t-176 -56.5q-59 0 -107 12.5t-102 44.5l-19 155l2 1q57 -41 109 -61.5t101 -20.5q48 0 78 22t30 58q0 45 -47 72.5t-167 56.5v46q116 46 158 73.5t42 64.5q0 30 -24 48.5t-65 18.5q-44 0 -93 -20.5t-103 -60.5h-2
v144q54 35 107.5 51.5t113.5 16.5q102 0 162 -48t60 -129q0 -54 -33 -96.5t-98 -72.5z" />
    <glyph glyph-name="four" unicode="4" horiz-adv-x="646" 
d="M619 259v-117h-108v-142h-146v142h-345l-5 39l322 522l5 -2v2h169v-444h108zM367 550l-174 -291h174v291z" />
    <glyph glyph-name="five" unicode="5" horiz-adv-x="588" 
d="M293 445q117 0 183.5 -58t66.5 -161q0 -106 -75.5 -172t-198.5 -66q-55 0 -105.5 10.5t-93.5 31.5l-15 141l2 1q58 -28 106.5 -41t93.5 -13q58 0 93.5 29.5t35.5 77.5q0 50 -36 77t-102 27q-35 0 -75 -7t-86 -22l-13 7l26 393h410v-135h-293l-10 -129q17 4 39.5 6.5
t46.5 2.5z" />
    <glyph glyph-name="six" unicode="6" horiz-adv-x="623" 
d="M363 466q96 0 159 -61.5t63 -162.5q0 -110 -77.5 -183t-196.5 -73q-122 0 -194 70.5t-72 187.5q0 69 29 136t109 179l100 141h181l-166 -214q-4 -5 -8.5 -11.5t-13.5 -18.5q21 5 42.5 7.5t44.5 2.5zM221 341q-12 -26 -17.5 -49t-5.5 -46q0 -59 31.5 -95t83.5 -36t86 34
t34 85q0 55 -34.5 84.5t-97.5 29.5q-16 0 -35 -1.5t-45 -5.5z" />
    <glyph glyph-name="seven" unicode="7" horiz-adv-x="599" 
d="M575 700l7 -11l-324 -689h-163l275 564h-310l-20 136h535z" />
    <glyph glyph-name="eight" unicode="8" horiz-adv-x="636" 
d="M468 357q59 -25 90 -69t31 -102q0 -88 -75.5 -143t-196.5 -55q-123 0 -197 54.5t-74 143.5q0 58 31.5 102t90.5 69q-49 25 -75 66.5t-26 93.5q0 86 69.5 140.5t182.5 54.5q112 0 181 -54.5t69 -140.5q0 -52 -26 -93.5t-75 -66.5zM317 595q-46 0 -73.5 -25t-27.5 -66
t29 -68t74 -27q44 0 72.5 27t28.5 68q0 40 -28.5 65.5t-74.5 25.5zM317 301q-49 0 -82.5 -28t-33.5 -69q0 -44 32.5 -71.5t85.5 -27.5q52 0 84 27.5t32 71.5q0 41 -34.5 69t-83.5 28z" />
    <glyph glyph-name="nine" unicode="9" horiz-adv-x="623" 
d="M578 456q0 -68 -28.5 -134.5t-109.5 -180.5l-100 -141h-181l166 214q3 4 8 11.5l5 7.5q-16 -4 -34 -6t-40 -2q-100 0 -163 62t-63 166q0 112 77 186.5t197 74.5q122 0 194 -70.5t72 -187.5zM309 585q-53 0 -86 -34.5t-33 -89.5q0 -58 33.5 -88t98.5 -30q19 0 37.5 1.5
t38.5 4.5q15 31 21 55t6 50q0 59 -32 95t-84 36z" />
    <glyph glyph-name="colon" unicode=":" horiz-adv-x="258" 
d="M129 333q-39 0 -66.5 27.5t-27.5 66.5t27.5 66.5t66.5 27.5t66.5 -27.5t27.5 -66.5t-27.5 -66.5t-66.5 -27.5zM129 -10q-39 0 -66.5 27.5t-27.5 66.5t27.5 66.5t66.5 27.5t66.5 -27.5t27.5 -66.5t-27.5 -66.5t-66.5 -27.5z" />
    <glyph glyph-name="semicolon" unicode=";" horiz-adv-x="258" 
d="M132 333q-39 0 -66.5 27.5t-27.5 65.5q0 39 27.5 66.5t66.5 27.5t66.5 -27.5t27.5 -66.5q0 -38 -27.5 -65.5t-66.5 -27.5zM23 -176l-40 37q52 71 65.5 120t13.5 146v32h147q0 -106 -33.5 -172t-152.5 -163z" />
    <glyph glyph-name="less" unicode="&#x3c;" horiz-adv-x="600" 
d="M235 356l306 -131v-138l-491 228v80l491 229v-136z" />
    <glyph glyph-name="equal" unicode="=" horiz-adv-x="600" 
d="M551 516v-115h-502v115h502zM551 309v-115h-502v115h502z" />
    <glyph glyph-name="greater" unicode="&#x3e;" horiz-adv-x="600" 
d="M550 396v-81l-491 -228v136l306 132l-306 130v139z" />
    <glyph glyph-name="question" unicode="?" horiz-adv-x="495" 
d="M37 482v150q51 41 103.5 59.5t114.5 18.5q94 0 149.5 -47t55.5 -126q0 -56 -25.5 -92.5t-100.5 -75.5q-48 -25 -64 -39t-16 -32q0 -10 3 -20.5t12 -28.5h-82q-30 30 -42 51.5t-12 46.5q0 31 23 54.5t87 54.5q44 23 58.5 37.5t14.5 35.5q0 23 -19 36.5t-52 13.5
q-49 0 -98.5 -23.5t-106.5 -73.5h-3zM221 -10q-38 0 -65 27t-27 65t27 65t65 27t65 -27t27 -65t-27 -65t-65 -27z" />
    <glyph glyph-name="at" unicode="@" horiz-adv-x="1018" 
d="M761 -100v-35q-73 -26 -143.5 -38t-150.5 -12q-199 0 -313.5 103.5t-114.5 283.5q0 104 42.5 203.5t118.5 177.5q77 78 175.5 120t205.5 42q178 0 287.5 -102.5t109.5 -267.5q0 -141 -76 -232t-193 -91q-57 0 -92.5 20.5t-45.5 59.5q-45 -42 -84 -60.5t-82 -18.5
q-67 0 -107 46.5t-40 125.5q0 114 84.5 200.5t203.5 86.5q32 0 63.5 -7t61.5 -20l93 20l11 -2l-74 -301q-3 -14 -4 -23t-1 -16q0 -26 17 -40.5t47 -14.5q74 0 128.5 77.5t54.5 187.5q0 155 -99 247.5t-265 92.5q-99 0 -190.5 -40t-163.5 -113q-71 -73 -110.5 -166
t-39.5 -190q0 -169 104 -263t290 -94q81 0 152 13t140 40zM546 404q-68 0 -114.5 -47t-46.5 -113q0 -38 20.5 -59.5t57.5 -21.5q25 0 50.5 9.5t58.5 31.5l46 188q-17 6 -34.5 9t-37.5 3z" />
    <glyph glyph-name="A" unicode="A" horiz-adv-x="813" 
d="M184 0h-167l307 702h171l300 -702h-173l-58 144h-320zM406 538l-112 -265h220z" />
    <glyph glyph-name="B" unicode="B" horiz-adv-x="643" 
d="M475 365q62 -23 94 -65t32 -99q0 -92 -71.5 -146.5t-190.5 -54.5h-260v700h259q111 0 173.5 -49t62.5 -136q0 -48 -25.5 -86.5t-73.5 -63.5zM319 576h-87v-166h81q49 0 78 23.5t29 62.5q0 38 -27 59t-74 21zM232 299v-175h95q54 0 85 23.5t31 63.5q0 43 -31 65.5
t-89 22.5h-91z" />
    <glyph glyph-name="C" unicode="C" horiz-adv-x="702" 
d="M397 -12q-153 0 -253.5 101.5t-100.5 260.5q0 154 105 258t261 104q66 0 124 -20.5t107 -59.5v-172h-3q-51 50 -106.5 76.5t-110.5 26.5q-90 0 -150.5 -60.5t-60.5 -150.5q0 -95 60 -155.5t150 -60.5q61 0 119 25t113 75l2 -2l-21 -171q-56 -39 -113 -57t-122 -18z" />
    <glyph glyph-name="D" unicode="D" horiz-adv-x="779" 
d="M332 0h-253v700h253q189 0 296 -92.5t107 -255.5q0 -160 -109.5 -256t-293.5 -96zM570 350q0 98 -63.5 153.5t-176.5 55.5h-89v-418h91q109 0 173.5 56.5t64.5 152.5z" />
    <glyph glyph-name="E" unicode="E" horiz-adv-x="600" 
d="M526 0h-447v700h444l28 -137h-312v-147h259v-124h-259v-155h315z" />
    <glyph glyph-name="F" unicode="F" horiz-adv-x="566" 
d="M480 394v-132h-239v-262h-162v700h462l-29 -140h-271v-166h239z" />
    <glyph glyph-name="G" unicode="G" horiz-adv-x="776" 
d="M702 383v-315q-73 -40 -145 -59t-148 -19q-164 0 -265 97t-101 257q0 163 110.5 264.5t286.5 101.5q68 0 127 -13t117 -41v-159h-3q-67 35 -123 51t-112 16q-103 0 -170 -61t-67 -156q0 -99 61 -158t163 -59q33 0 62 5t58 15v118h-157v115h306z" />
    <glyph glyph-name="H" unicode="H" horiz-adv-x="811" 
d="M732 0h-161v281h-330v-281h-162v700h162v-271h330v271h161v-700z" />
    <glyph glyph-name="I" unicode="I" horiz-adv-x="328" 
d="M244 0h-161v700h161v-700z" />
    <glyph glyph-name="J" unicode="J" horiz-adv-x="489" 
d="M154 136q47 0 73.5 28t26.5 78v458h161v-488q0 -103 -60 -162t-163 -59q-41 0 -76.5 9t-67.5 27l-25 157l3 1q36 -26 67 -37.5t61 -11.5z" />
    <glyph glyph-name="K" unicode="K" horiz-adv-x="728" 
d="M726 0h-203l-262 293h-20v-293h-162v700h162v-280h21l261 280h198v-2l-326 -336l331 -360v-2z" />
    <glyph glyph-name="L" unicode="L" horiz-adv-x="557" 
d="M522 0h-443v700h162v-555h281v-145z" />
    <glyph glyph-name="M" unicode="M" horiz-adv-x="1028" 
d="M79 700h224l211 -423l210 423h225v-700h-157v516l-272 -526h-14l-273 523v-513h-154v700z" />
    <glyph glyph-name="N" unicode="N" horiz-adv-x="822" 
d="M238 0h-159v700h156l350 -399l-1 399h159v-703h-103l-404 460z" />
    <glyph glyph-name="O" unicode="O" horiz-adv-x="831" 
d="M414 -14q-160 0 -265.5 104t-105.5 259q0 154 107 259.5t266 105.5t265.5 -104.5t106.5 -258.5q0 -155 -107 -260t-267 -105zM413 568q-87 0 -146 -62.5t-59 -154.5q0 -93 59.5 -156t147.5 -63q87 0 147.5 63t60.5 154q0 92 -61 155.5t-149 63.5z" />
    <glyph glyph-name="P" unicode="P" horiz-adv-x="622" 
d="M593 466q0 -112 -76 -178t-204 -66h-72v-222h-162v700h232q133 0 207.5 -61.5t74.5 -172.5zM434 463q0 48 -33.5 75.5t-93.5 27.5h-69v-215h67q60 0 94.5 30t34.5 82z" />
    <glyph glyph-name="Q" unicode="Q" horiz-adv-x="831" 
d="M769 -4l-45 -129q-20 -8 -45.5 -12t-52.5 -4q-81 0 -138.5 32.5t-113.5 108.5q-145 13 -238 113.5t-93 243.5q0 155 107 260t266 105t265.5 -103t106.5 -255q0 -115 -61.5 -204t-167.5 -129q24 -25 50 -36t61 -11q23 0 46.5 5.5t49.5 16.5zM623 349q0 92 -61 155.5
t-149 63.5q-87 0 -146 -62.5t-59 -154.5q0 -93 59.5 -156t147.5 -63q87 0 147.5 63t60.5 154z" />
    <glyph glyph-name="R" unicode="R" horiz-adv-x="669" 
d="M682 0h-192l-207 254h-42v-254h-162v700h244q126 0 195.5 -57t69.5 -161q0 -67 -36.5 -119.5t-102.5 -81.5zM428 473q0 44 -31 70.5t-83 26.5h-76v-198h73q53 0 85 27.5t32 73.5z" />
    <glyph glyph-name="S" unicode="S" horiz-adv-x="571" 
d="M246 290q-110 42 -153 91t-43 123q0 94 66 151t177 57q57 0 107 -12.5t94 -38.5v-154h-2q-48 32 -102 51t-100 19q-39 0 -61 -16t-22 -44t23.5 -47.5t99.5 -50.5q109 -42 153.5 -91.5t44.5 -125.5q0 -98 -69 -156t-184 -58q-60 0 -116 17t-103 49l-24 173l2 1
q59 -47 125 -76t118 -29q44 0 69 18t25 50q0 29 -25 49t-100 50z" />
    <glyph glyph-name="T" unicode="T" horiz-adv-x="727" 
d="M694 700v-145h-250v-555h-161v555h-250v145h661z" />
    <glyph glyph-name="U" unicode="U" horiz-adv-x="787" 
d="M393 -13q-153 0 -237 86t-84 243v384h161v-387q0 -86 42.5 -133.5t119.5 -47.5t119.5 47.5t42.5 135.5v385h158v-384q0 -157 -84 -243t-238 -86z" />
    <glyph glyph-name="V" unicode="V" horiz-adv-x="794" 
d="M606 700h171l-325 -711h-116l-318 711h178l202 -480z" />
    <glyph glyph-name="W" unicode="W" horiz-adv-x="1154" 
d="M959 700h168l-231 -704h-152l-168 381l-172 -381h-152l-224 704h174l143 -489l227 498h16l223 -499z" />
    <glyph glyph-name="X" unicode="X" horiz-adv-x="764" 
d="M746 0h-191l-176 239l-172 -239h-187l264 353l-258 347h191l167 -227l165 227h187l-257 -342z" />
    <glyph glyph-name="Y" unicode="Y" horiz-adv-x="704" 
d="M520 700h180l-267 -412v-288h-161v287l-267 413h187l164 -268z" />
    <glyph glyph-name="Z" unicode="Z" horiz-adv-x="714" 
d="M293 141h390l-52 -141h-600l-7 14l384 545h-349v141h612l7 -14z" />
    <glyph glyph-name="bracketleft" unicode="[" horiz-adv-x="429" 
d="M386 -130h-299v870h299l15 -85h-175v-700h175z" />
    <glyph glyph-name="backslash" unicode="\" horiz-adv-x="482" 
d="M138 740l351 -870h-113l-351 870h113z" />
    <glyph glyph-name="bracketright" unicode="]" horiz-adv-x="429" 
d="M43 740h299v-870h-299l-15 85h175v700h-175z" />
    <glyph glyph-name="asciicircum" unicode="^" horiz-adv-x="600" 
d="M568 335h-143l-127 221l-127 -221h-139l229 384h78z" />
    <glyph glyph-name="underscore" unicode="_" horiz-adv-x="631" 
d="M-3 -163v90h637v-90h-637z" />
    <glyph glyph-name="grave" unicode="`" horiz-adv-x="500" 
d="M205 782l85 -185h-72l-194 183v2h181z" />
    <glyph glyph-name="a" unicode="a" horiz-adv-x="576" 
d="M520 12l-146 -19v77q-50 -40 -95.5 -59.5t-90.5 -19.5q-67 0 -108 37.5t-41 100.5q0 84 82 125.5t249 44.5q-3 49 -29 74t-75 25q-40 0 -84 -16.5t-90 -48.5l-3 2l23 137q42 25 88 37t98 12q109 0 165.5 -58t56.5 -169v-282zM177 144q0 -23 16 -36t45 -13q26 0 58.5 10.5
t73.5 31.5v91q-98 -7 -145.5 -27t-47.5 -57z" />
    <glyph glyph-name="b" unicode="b" horiz-adv-x="630" 
d="M378 521q94 0 156 -71.5t62 -180.5q0 -121 -81 -198.5t-203 -77.5q-33 0 -66 6.5t-71 19.5l-95 -21h-13v720l152 40v-309q36 37 74 54.5t85 17.5zM449 262q0 60 -34.5 96.5t-90.5 36.5q-27 0 -52 -7.5t-53 -24.5v-231q19 -7 39.5 -10.5t43.5 -3.5q65 0 106 40t41 104z
" />
    <glyph glyph-name="c" unicode="c" horiz-adv-x="525" 
d="M484 185l-18 -148q-39 -24 -82.5 -36.5t-88.5 -12.5q-116 0 -188.5 74t-72.5 194q0 116 76.5 191.5t196.5 75.5q48 0 89.5 -13t78.5 -39v-152h-2q-41 35 -80 52t-76 17q-59 0 -96 -37.5t-37 -95.5t36 -95t93 -37q40 0 86 17.5t83 45.5z" />
    <glyph glyph-name="d" unicode="d" horiz-adv-x="635" 
d="M568 0h-148v72q-38 -43 -78 -62.5t-88 -19.5q-93 0 -156.5 72.5t-63.5 181.5q0 118 71.5 196.5t175.5 78.5q36 0 70 -12.5t66 -37.5v249l151 40v-758zM315 393q-59 0 -96.5 -39t-37.5 -101q0 -61 35 -98.5t90 -37.5q27 0 53.5 9t57.5 30v209q-26 15 -50.5 21.5t-51.5 6.5
z" />
    <glyph glyph-name="e" unicode="e" horiz-adv-x="569" 
d="M524 157l-42 -128q-46 -22 -86.5 -31t-89.5 -9q-124 0 -198.5 73t-74.5 195q0 113 73.5 190.5t185.5 77.5t177.5 -73.5t65.5 -193.5q0 -6 -1 -18t-2 -25h-353q12 -51 52 -79t102 -28q45 0 91.5 12.5t96.5 38.5zM289 416q-45 0 -75 -31.5t-36 -83.5h216q-5 53 -33 84
t-72 31z" />
    <glyph glyph-name="f" unicode="f" horiz-adv-x="434" 
d="M418 511v-118h-156v-393h-150v393h-82v118h82v50q0 92 51 144t141 52q31 0 56 -4.5t53 -14.5l17 -122l-2 -2q-29 13 -49 18t-41 5q-37 0 -58 -20.5t-21 -56.5v-49h159z" />
    <glyph glyph-name="g" unicode="g" horiz-adv-x="635" 
d="M568 513v-439q0 -126 -76 -197.5t-209 -71.5q-54 0 -103 11t-100 35l-24 139l2 1q63 -33 112 -47t101 -14q69 0 108 35t39 99v32q-38 -36 -78 -52.5t-87 -16.5q-95 0 -157 65.5t-62 167.5q0 115 79.5 187t200.5 72q36 0 71.5 -6.5t74.5 -20.5l96 21h12zM322 396
q-61 0 -101 -37t-40 -95q0 -55 34 -88.5t88 -33.5q29 0 56.5 9t58.5 29v199q-26 9 -49 13t-47 4z" />
    <glyph glyph-name="h" unicode="h" horiz-adv-x="624" 
d="M328 390q-28 0 -52.5 -11t-56.5 -38v-341h-152v718l152 40v-333q41 52 81.5 75t92.5 23q79 0 125.5 -53t46.5 -144v-326h-151v295q0 45 -22.5 70t-63.5 25z" />
    <glyph glyph-name="i" unicode="i" horiz-adv-x="294" 
d="M147 767q39 0 65.5 -25t26.5 -62t-26.5 -62t-65.5 -25t-65.5 25t-26.5 62t26.5 62t65.5 25zM222 0h-151v511h151v-511z" />
    <glyph glyph-name="j" unicode="j" horiz-adv-x="296" 
d="M149 767q39 0 65.5 -25t26.5 -62t-26.5 -62t-65.5 -25t-65.5 25t-26.5 62t26.5 62t65.5 25zM73 511h151v-505q0 -97 -49.5 -149t-139.5 -52q-18 0 -33.5 2t-27.5 5l-23 107l2 2q9 -3 19 -4.5t21 -1.5q39 0 59.5 21t20.5 62v513z" />
    <glyph glyph-name="k" unicode="k" horiz-adv-x="588" 
d="M588 0h-182l-164 210h-23v-210h-152v718l152 40v-451h22l160 204h173v-2l-201 -244l215 -263v-2z" />
    <glyph glyph-name="l" unicode="l" horiz-adv-x="294" 
d="M222 0h-151v718l151 40v-758z" />
    <glyph glyph-name="m" unicode="m" horiz-adv-x="942" 
d="M318 390q-26 0 -48.5 -10t-50.5 -34v-346h-152v499l148 19v-92q39 51 79 74t89 23q54 0 93.5 -26.5t58.5 -76.5q41 55 83 79t95 24q78 0 124 -53t46 -144v-326h-152v295q0 45 -21 70t-60 25q-26 0 -48.5 -10t-51.5 -34q1 -4 1 -8v-12v-326h-152v295q0 45 -21 70t-60 25z
" />
    <glyph glyph-name="n" unicode="n" horiz-adv-x="624" 
d="M328 390q-28 0 -52.5 -11t-56.5 -38v-341h-152v499l148 19v-98q41 54 83.5 78.5t94.5 24.5q79 0 125.5 -53t46.5 -144v-326h-151v295q0 45 -22.5 70t-63.5 25z" />
    <glyph glyph-name="o" unicode="o" horiz-adv-x="619" 
d="M309 -14q-121 0 -198.5 77.5t-77.5 191.5q0 113 79 191.5t198 78.5q121 0 198.5 -77t77.5 -191q0 -113 -79 -192t-198 -79zM439 257q0 60 -36.5 99.5t-92.5 39.5q-57 0 -93.5 -40t-36.5 -101q0 -60 37 -100t92 -40q56 0 93 40.5t37 101.5z" />
    <glyph glyph-name="p" unicode="p" horiz-adv-x="635" 
d="M601 267q0 -118 -71.5 -196.5t-174.5 -78.5q-37 0 -71 12.5t-65 37.5v-231h-152v688l148 19v-79q38 43 78 62.5t88 19.5q94 0 157 -72.5t63 -181.5zM454 258q0 61 -35 98.5t-90 37.5q-28 0 -54 -9t-56 -28v-211q26 -15 50.5 -21.5t50.5 -6.5q59 0 96.5 39t37.5 101z" />
    <glyph glyph-name="q" unicode="q" horiz-adv-x="630" 
d="M551 513h12v-702h-151v252q-38 -38 -76 -55.5t-84 -17.5q-94 0 -156 72t-62 181q0 121 81 198.5t203 77.5q33 0 66.5 -6.5t71.5 -19.5zM328 393q-64 0 -105.5 -40t-41.5 -103q0 -60 34.5 -96.5t90.5 -36.5q27 0 52 7.5t54 24.5v230q-19 7 -39.5 10.5t-44.5 3.5z" />
    <glyph glyph-name="r" unicode="r" horiz-adv-x="446" 
d="M389 361q-41 0 -81 -14.5t-89 -47.5v-299h-152v499l148 19v-133q53 75 90 104.5t78 29.5q8 0 15 -1t18 -3l9 -157q-9 2 -17.5 2.5t-18.5 0.5z" />
    <glyph glyph-name="s" unicode="s" horiz-adv-x="510" 
d="M294 314q103 -26 142 -63t39 -101q0 -72 -60.5 -116.5t-159.5 -44.5q-55 0 -104 13.5t-98 42.5l-20 138l2 1q60 -41 118.5 -62t110.5 -21q32 0 51.5 11.5t19.5 29.5q0 21 -22 33t-90 30q-100 26 -139 62.5t-39 95.5q0 72 58.5 115.5t156.5 43.5q48 0 93 -11t86 -33v-129
h-2q-46 29 -94.5 45.5t-88.5 16.5q-32 0 -50.5 -10.5t-18.5 -27.5q0 -19 21 -30.5t88 -28.5z" />
    <glyph glyph-name="t" unicode="t" horiz-adv-x="470" 
d="M434 157l-23 -132q-28 -18 -61.5 -27t-70.5 -9q-85 0 -129.5 49.5t-44.5 145.5v209h-78v118h78v110l149 37v-147h177v-118h-177v-197q0 -39 19.5 -58.5t57.5 -19.5q24 0 48 9.5t53 30.5z" />
    <glyph glyph-name="u" unicode="u" horiz-adv-x="624" 
d="M557 0h-147v92q-41 -54 -83 -78.5t-96 -24.5q-79 0 -125.5 53t-46.5 144v325h152v-294q0 -46 22 -71t63 -25q28 0 53 11.5t57 38.5v340h151v-511z" />
    <glyph glyph-name="v" unicode="v" horiz-adv-x="612" 
d="M440 511h161l-250 -523h-101l-238 523h165l128 -315z" />
    <glyph glyph-name="w" unicode="w" horiz-adv-x="887" 
d="M718 511h154l-184 -517h-125l-121 254l-126 -254h-126l-174 517h159l98 -323l166 330h15l159 -330z" />
    <glyph glyph-name="x" unicode="x" horiz-adv-x="601" 
d="M584 0h-170l-116 166l-116 -166h-165l190 262l-180 249h171l105 -152l105 152h165l-178 -249z" />
    <glyph glyph-name="y" unicode="y" horiz-adv-x="592" 
d="M579 511l-206 -519q-36 -95 -92.5 -141t-136.5 -46q-24 0 -45.5 4t-42.5 13l-29 139l2 1q22 -11 42.5 -16.5t42.5 -5.5q42 0 68 19t44 61v1l-213 490h164l126 -321l115 321h161z" />
    <glyph glyph-name="z" unicode="z" horiz-adv-x="552" 
d="M256 119h269l-35 -119h-465l-5 14l265 379h-230v118h461l5 -13z" />
    <glyph glyph-name="braceleft" unicode="{" horiz-adv-x="525" 
d="M381 -45h116l-15 -85h-146q-91 0 -143 38.5t-52 104.5q0 21 7 44.5t28 67.5q16 33 20.5 48t4.5 26q0 26 -19 40t-68 23l-86 16v54l86 16q49 9 68 23t19 40q0 11 -4.5 26t-20.5 48q-21 44 -28 67.5t-7 44.5q0 66 52 104.5t143 38.5h146l15 -85h-116q-44 0 -66.5 -16
t-22.5 -48q0 -11 4 -26t19 -48q18 -42 23.5 -64t5.5 -40q0 -39 -25.5 -64.5t-81.5 -43.5q56 -18 81.5 -43.5t25.5 -64.5q0 -18 -5.5 -40t-23.5 -64q-15 -33 -19 -48t-4 -26q0 -31 23 -47.5t66 -16.5z" />
    <glyph glyph-name="bar" unicode="|" horiz-adv-x="389" 
d="M249 740v-870h-109v870h109z" />
    <glyph glyph-name="braceright" unicode="}" horiz-adv-x="525" 
d="M350 125q21 -44 28 -67.5t7 -44.5q0 -66 -52.5 -104.5t-142.5 -38.5h-147l-15 85h116q44 0 66.5 16t22.5 48q0 11 -4 26t-18 48q-18 42 -23.5 64t-5.5 40q0 39 25 64.5t81 43.5q-56 18 -81 43.5t-25 64.5q0 18 5.5 40t23.5 64q14 33 18 48t4 26q0 31 -23 47.5t-66 16.5
h-116l15 85h147q90 0 142.5 -38.5t52.5 -104.5q0 -21 -7 -44.5t-28 -67.5q-16 -33 -20.5 -48t-4.5 -26q0 -26 19 -40t67 -23l86 -16v-54l-86 -16q-48 -9 -67 -23t-19 -40q0 -11 4.5 -26t20.5 -48z" />
    <glyph glyph-name="asciitilde" unicode="~" horiz-adv-x="600" 
d="M191 476q18 0 45.5 -12t85.5 -49q43 -27 60 -35t26 -8q17 0 32.5 19.5t47.5 81.5l73 -36q-49 -120 -80 -161.5t-72 -41.5q-18 0 -45.5 12t-85.5 49q-43 27 -60 35t-26 8q-17 0 -32.5 -19.5t-47.5 -81.5l-73 36q49 120 80 161.5t72 41.5z" />
    <glyph glyph-name="uni00A0" unicode="&#xa0;" horiz-adv-x="219" 
 />
    <glyph glyph-name="exclamdown" unicode="&#xa1;" horiz-adv-x="286" 
d="M143 710q38 0 65 -27t27 -65t-27 -65t-65 -27t-65 27t-27 65t27 65t65 27zM54 0v72l55 379h67l57 -379v-72h-179z" />
    <glyph glyph-name="cent" unicode="&#xa2;" horiz-adv-x="534" 
d="M487 279l-17 -142q-36 -22 -72 -33.5t-74 -13.5l-10 -94h-111l11 106q-82 24 -129.5 90t-47.5 156q0 98 62.5 169t163.5 87l11 100h111l-11 -101q26 -4 51 -14t55 -30v-144h-2q-46 36 -80.5 49.5t-72.5 13.5q-62 0 -101 -36t-39 -93t38 -93t98 -36q43 0 84 15.5t79 45.5z
" />
    <glyph glyph-name="sterling" unicode="&#xa3;" horiz-adv-x="597" 
d="M277 130l286 3l-34 -133h-474l-6 67q98 93 119.5 125t21.5 69q0 9 -0.5 13.5t-1.5 7.5l-144 -7v91l98 4q-31 49 -42.5 81.5t-11.5 67.5q0 85 67 138.5t179 53.5q54 0 103.5 -12t100.5 -38l15 -151h-2q-55 34 -104.5 51t-93.5 17q-46 0 -72 -22t-26 -58q0 -21 10.5 -45
t43.5 -75l189 8v-91l-151 -4l1.5 -15t0.5 -9q0 -31 -16.5 -63t-55.5 -74z" />
    <glyph glyph-name="yen" unicode="&#xa5;" horiz-adv-x="667" 
d="M600 224v-84h-190v-140h-153v140h-190v84h190v60h-190v85h143l-194 331h181l140 -266l140 266h174l-194 -331h143v-85h-190v-60h190z" />
    <glyph glyph-name="section" unicode="&#xa7;" horiz-adv-x="680" 
d="M514 100q26 -23 38.5 -52.5t12.5 -66.5q0 -78 -63 -126.5t-166 -48.5q-60 0 -111.5 12t-107.5 39l-22 151l3 2q65 -38 124 -57.5t109 -19.5q37 0 58.5 14.5t21.5 39.5t-27 41.5t-97 36.5q-143 41 -198.5 85.5t-55.5 112.5q0 51 34 91t99 65q-26 22 -38.5 52t-12.5 67
q0 78 63 126t166 48q60 0 114 -11.5t102 -35.5v-140h-3q-60 31 -111.5 46t-96.5 15q-37 0 -58.5 -15t-21.5 -39q0 -26 27 -42.5t97 -36.5q141 -40 197.5 -85t56.5 -113q0 -51 -34 -90.5t-99 -64.5zM178 285q0 -34 35.5 -56.5t142.5 -52.5q16 -4 34.5 -10.5t39.5 -14.5
q37 18 54.5 37.5t17.5 44.5q0 34 -35.5 56.5t-142.5 53.5q-23 6 -40.5 12t-32.5 13q-38 -18 -55.5 -38t-17.5 -45z" />
    <glyph glyph-name="dieresis" unicode="&#xa8;" horiz-adv-x="500" 
d="M137 593q-36 0 -60.5 24t-24.5 59t24.5 58.5t60.5 23.5t60.5 -23.5t24.5 -58.5t-24.5 -59t-60.5 -24zM363 593q-36 0 -60.5 24t-24.5 59t24.5 58.5t60.5 23.5t60.5 -23.5t24.5 -58.5t-24.5 -59t-60.5 -24z" />
    <glyph glyph-name="copyright" unicode="&#xa9;" horiz-adv-x="890" 
d="M160 68q-57 55 -87.5 128t-30.5 153t31 153t88 129q57 55 131 85t154 30q81 0 154 -29.5t130 -84.5t87.5 -128t30.5 -153t-31 -153t-88 -129q-57 -55 -131 -85t-154 -30q-81 0 -154 29.5t-130 84.5zM444 714q-154 0 -261.5 -105.5t-107.5 -257.5q0 -153 108.5 -259
t262.5 -106t261.5 105.5t107.5 257.5q0 153 -108.5 259t-262.5 106zM471 211q43 0 83.5 15t78.5 44l2 -1l-15 -107q-36 -24 -75 -35.5t-84 -11.5q-109 0 -179.5 65.5t-70.5 168.5t72.5 169.5t184.5 66.5q45 0 85.5 -13.5t74.5 -40.5v-110h-2q-38 33 -77 50t-76 17
q-63 0 -105 -39t-42 -98q0 -62 41.5 -101t103.5 -39z" />
    <glyph glyph-name="ordfeminine" unicode="&#xaa;" horiz-adv-x="513" 
d="M426 343h-112v51q-36 -29 -70.5 -43t-69.5 -14q-49 0 -79.5 27t-30.5 70q0 60 60 88.5t186 30.5q-3 34 -21 50.5t-53 16.5q-30 0 -63.5 -11t-67.5 -32l-3 2l17 97q34 17 68.5 25t73.5 8q81 0 123 -40.5t42 -119.5v-206zM169 447q0 -17 12 -26t35 -9q18 0 41.5 7t52.5 21
v62q-72 -4 -106.5 -17t-34.5 -38zM61 185v82h378v-82h-378z" />
    <glyph glyph-name="guillemotleft" unicode="&#xab;" horiz-adv-x="665" 
d="M293 521l51 -32l-141 -232l141 -234l-51 -32l-261 252v26zM572 521l51 -32l-141 -232l141 -234l-51 -32l-261 252v26z" />
    <glyph glyph-name="registered" unicode="&#xae;" horiz-adv-x="561" 
d="M518 495q0 -97 -69.5 -165t-168.5 -68t-168 67.5t-69 164.5t69.5 165t167.5 68q99 0 168.5 -67.5t69.5 -164.5zM490 494q0 89 -60.5 148t-150.5 59q-88 0 -148 -59.5t-60 -147.5t60.5 -147.5t149.5 -59.5q88 0 148.5 60t60.5 147zM423 367h-83l-72 89h-19v-89h-70v268
h101q53 0 83 -23.5t30 -64.5q0 -26 -14 -46.5t-40 -31.5zM275 582h-26v-78h24q23 0 35.5 10.5t12.5 28.5t-12 28.5t-34 10.5z" />
    <glyph glyph-name="macron" unicode="&#xaf;" horiz-adv-x="500" 
d="M62 618v96h376v-96h-376z" />
    <glyph glyph-name="degree" unicode="&#xb0;" horiz-adv-x="532" 
d="M39 495q0 94 65 156.5t163 62.5q97 0 161.5 -62.5t64.5 -155.5q0 -94 -65 -156t-163 -62t-162 61.5t-64 155.5zM158 497q0 -51 31 -85t78 -34q45 0 75.5 34t30.5 84q0 51 -31 85.5t-77 34.5q-45 0 -76 -34.5t-31 -84.5z" />
    <glyph glyph-name="plusminus" unicode="&#xb1;" horiz-adv-x="600" 
d="M548 503v-124h-182v-186h-132v186h-182v124h182v185h132v-185h182zM550 111v-111h-500v111h500z" />
    <glyph glyph-name="two.sup" unicode="&#xb2;" horiz-adv-x="370" 
d="M185 493h165l-32 -89h-283l-8 51l144 157q27 31 36.5 47.5t9.5 32.5q0 19 -12.5 31t-33.5 12q-28 0 -58 -18.5t-68 -58.5l-2 1l-9 106q33 33 70 48.5t82 15.5q64 0 102 -33.5t38 -88.5q0 -35 -15.5 -65.5t-54.5 -72.5z" />
    <glyph glyph-name="three.sup" unicode="&#xb3;" horiz-adv-x="361" 
d="M239 622q44 -14 67 -41t23 -63q0 -53 -44.5 -86.5t-112.5 -33.5q-38 0 -70 8t-64 26l-12 97l2 1q35 -23 69.5 -35t62.5 -12t44 11.5t16 31.5q0 23 -27 37.5t-103 33.5v34q73 27 98 42t25 36q0 16 -13.5 25.5t-37.5 9.5q-26 0 -55.5 -11.5t-67.5 -37.5h-2v93q32 20 68 30
t74 10q65 0 104 -28.5t39 -76.5q0 -33 -21 -58t-62 -43z" />
    <glyph glyph-name="acute" unicode="&#xb4;" horiz-adv-x="500" 
d="M282 597h-72l85 185h181v-2z" />
    <glyph glyph-name="uni00B5" unicode="&#xb5;" horiz-adv-x="632" 
d="M191 53l16 -201v-41h-140v700h152v-296q0 -46 22 -71t63 -25q28 0 53 11t57 38v343h151v-511h-108l-23 77q-32 -42 -63 -61t-67 -19q-34 0 -62 14t-51 42z" />
    <glyph glyph-name="paragraph" unicode="&#xb6;" horiz-adv-x="726" 
d="M31 446q0 117 89 185.5t236 68.5h280v-700h-113v571h-80v-571h-87v210h-34q-134 0 -212.5 63t-78.5 173zM173 430q0 -64 45.5 -102t121.5 -38h16v281h-11q-79 0 -125.5 -37.5t-46.5 -103.5z" />
    <glyph glyph-name="periodcentered" unicode="&#xb7;" horiz-adv-x="254" 
d="M127 184q-39 0 -66.5 27.5t-27.5 66.5t27.5 66.5t66.5 27.5t66.5 -27.5t27.5 -66.5t-27.5 -66.5t-66.5 -27.5z" />
    <glyph glyph-name="cedilla" unicode="&#xb8;" horiz-adv-x="500" 
d="M372 -122q0 -40 -40.5 -65t-108.5 -25q-23 0 -44 2.5t-42 8.5l-26 59l3 3q30 -8 50.5 -11.5t42.5 -3.5q26 0 41 8t15 22t-13.5 20.5t-42.5 6.5q-12 0 -24 -0.5t-27 -2.5l-4 4l68 103h82l-39 -54q55 -3 82 -22t27 -53z" />
    <glyph glyph-name="one.sup" unicode="&#xb9;" horiz-adv-x="301" 
d="M29 613l-2 1v106l206 112l10 -3v-425h-109v267z" />
    <glyph glyph-name="ordmasculine" unicode="&#xba;" horiz-adv-x="510" 
d="M47 525q0 79 59.5 132.5t149.5 53.5q91 0 149 -53t58 -133t-59 -133t-150 -53t-149 53t-58 133zM350 526q0 42 -26 69t-68 27q-44 0 -70.5 -27t-26.5 -70t27 -70t69 -27t68.5 28t26.5 70zM66 185v82h378v-82h-378z" />
    <glyph glyph-name="guillemotright" unicode="&#xbb;" horiz-adv-x="665" 
d="M372 -9l-50 32l140 232l-140 234l50 32l261 -252v-26zM93 -9l-51 32l141 232l-141 234l51 32l261 -252v-26z" />
    <glyph glyph-name="onequarter" unicode="&#xbc;" horiz-adv-x="844" 
d="M29 491l-2 1v106l206 112l10 -3v-425h-109v267zM432 335l-220 -337h-84l254 367l220 337h84zM655 82h-210l-4 26l186 312h131v-262h66v-76h-66v-82h-103v82zM657 335l-97 -177h97v177z" />
    <glyph glyph-name="onehalf" unicode="&#xbd;" horiz-adv-x="871" 
d="M29 491l-2 1v106l206 112l10 -3v-425h-109v267zM432 335l-220 -337h-84l254 367l220 337h84zM686 89h165l-32 -89h-283l-8 51l144 157q27 31 36.5 47.5t9.5 32.5q0 19 -12.5 31t-33.5 12q-28 0 -58 -18.5t-68 -58.5l-2 1l-9 106q33 33 70 48.5t82 15.5q64 0 102 -33.5
t38 -88.5q0 -35 -15.5 -65.5t-54.5 -72.5z" />
    <glyph glyph-name="threequarters" unicode="&#xbe;" horiz-adv-x="877" 
d="M239 500q44 -14 67 -41t23 -63q0 -53 -44.5 -86.5t-112.5 -33.5q-38 0 -70 8t-64 26l-12 97l2 1q35 -23 69.5 -35t62.5 -12t44 11.5t16 31.5q0 23 -27 37.5t-103 33.5v34q73 27 98 42t25 36q0 16 -13.5 25.5t-37.5 9.5q-26 0 -55.5 -11.5t-67.5 -37.5h-2v93q32 20 68 30
t74 10q65 0 104 -28.5t39 -76.5q0 -33 -21 -58t-62 -43zM465 335l-220 -337h-84l254 367l220 337h84zM688 82h-210l-4 26l186 312h131v-262h66v-76h-66v-82h-103v82zM690 335l-97 -177h97v177z" />
    <glyph glyph-name="questiondown" unicode="&#xbf;" horiz-adv-x="495" 
d="M274 709q38 0 65 -27t27 -65t-27 -65t-65 -27t-65 27t-27 65t27 65t65 27zM458 217v-150q-52 -40 -104.5 -58.5t-113.5 -18.5q-94 0 -149.5 47t-55.5 126q0 55 25 91.5t101 76.5q48 25 64.5 39t16.5 31q0 9 -3.5 19.5t-12.5 29.5h83q30 -29 41.5 -50.5t11.5 -46.5
q0 -31 -23 -54.5t-87 -55.5q-43 -22 -57.5 -36.5t-14.5 -35.5q0 -23 18.5 -36.5t51.5 -13.5q49 0 98.5 23t107.5 73h2z" />
    <glyph glyph-name="Agrave" unicode="&#xc0;" horiz-adv-x="813" 
d="M184 0h-167l307 702h171l300 -702h-173l-58 144h-320zM406 538l-112 -265h220zM371 922l82 -157h-82l-193 155v2h193z" />
    <glyph glyph-name="Aacute" unicode="&#xc1;" horiz-adv-x="813" 
d="M184 0h-167l307 702h171l300 -702h-173l-58 144h-320zM406 538l-112 -265h220zM445 765h-82l82 157h193v-2z" />
    <glyph glyph-name="Acircumflex" unicode="&#xc2;" horiz-adv-x="813" 
d="M184 0h-167l307 702h171l300 -702h-173l-58 144h-320zM406 538l-112 -265h220zM608 761h-86l-114 68l-114 -68h-86v2l130 155h140l130 -155v-2z" />
    <glyph glyph-name="Atilde" unicode="&#xc3;" horiz-adv-x="813" 
d="M184 0h-167l307 702h171l300 -702h-173l-58 144h-320zM406 538l-112 -265h220zM427 892q31 -15 43.5 -19.5t21.5 -4.5q15 0 27.5 9.5t48.5 47.5l57 -44q-51 -72 -79 -96t-63 -24q-14 0 -32 6t-55 24q-30 15 -42.5 19.5t-21.5 4.5q-15 0 -27.5 -9t-48.5 -47l-57 44
q52 72 80 96t62 24q13 0 31 -6t55 -25z" />
    <glyph glyph-name="Adieresis" unicode="&#xc4;" horiz-adv-x="813" 
d="M184 0h-167l307 702h171l300 -702h-173l-58 144h-320zM406 538l-112 -265h220zM295 928q36 0 60.5 -24t24.5 -59q0 -36 -24.5 -60t-60.5 -24t-61 24t-25 60q0 35 25 59t61 24zM521 928q36 0 61 -24t25 -59q0 -36 -25 -60t-61 -24t-60.5 24t-24.5 60q0 35 24.5 59t60.5 24
z" />
    <glyph glyph-name="Aring" unicode="&#xc5;" horiz-adv-x="813" 
d="M795 0h-173l-58 144h-320l-60 -144h-167l288 661q-16 17 -24.5 39t-8.5 46q0 54 40 92.5t97 38.5t97 -38.5t40 -92.5q0 -24 -8.5 -46t-24.5 -39zM487 746q0 32 -22.5 54t-55.5 22t-55.5 -22t-22.5 -54t22.5 -54t55.5 -22t55.5 22t22.5 54zM406 539l-112 -266h220z" />
    <glyph glyph-name="AE" unicode="&#xc6;" horiz-adv-x="1036" 
d="M167 0h-165l427 700h530l28 -137h-312v-147h259v-124h-259v-155h315l-28 -137h-447v144h-259zM513 568l-179 -295h181v295h-2z" />
    <glyph glyph-name="Ccedilla" unicode="&#xc7;" horiz-adv-x="702" 
d="M516 -127q0 -40 -40.5 -65t-108.5 -25q-24 0 -45 2.5t-41 8.5l-26 59l3 3q30 -8 50 -11.5t42 -3.5q27 0 41.5 8t14.5 22t-13.5 20.5t-41.5 6.5q-13 0 -25 -0.5t-26 -2.5l-4 4l60 91q-138 15 -225.5 114.5t-87.5 245.5q0 154 105 258t261 104q66 0 124 -20.5t107 -59.5
v-172h-3q-51 50 -106.5 76.5t-110.5 26.5q-90 0 -150.5 -60.5t-60.5 -150.5q0 -95 60 -155.5t150 -60.5q61 0 119 25t113 75l2 -2l-21 -171q-48 -33 -96 -51t-99 -22l-30 -42q55 -3 82 -22t27 -53z" />
    <glyph glyph-name="Egrave" unicode="&#xc8;" horiz-adv-x="600" 
d="M526 0h-447v700h444l28 -137h-312v-147h259v-124h-259v-155h315zM276 922l82 -157h-82l-193 155v2h193z" />
    <glyph glyph-name="Eacute" unicode="&#xc9;" horiz-adv-x="600" 
d="M526 0h-447v700h444l28 -137h-312v-147h259v-124h-259v-155h315zM350 765h-82l82 157h193v-2z" />
    <glyph glyph-name="Ecircumflex" unicode="&#xca;" horiz-adv-x="600" 
d="M526 0h-447v700h444l28 -137h-312v-147h259v-124h-259v-155h315zM513 765h-86l-114 68l-114 -68h-86v2l130 155h140l130 -155v-2z" />
    <glyph glyph-name="Edieresis" unicode="&#xcb;" horiz-adv-x="600" 
d="M526 0h-447v700h444l28 -137h-312v-147h259v-124h-259v-155h315zM200 928q36 0 60.5 -24t24.5 -59q0 -36 -24.5 -60t-60.5 -24t-61 24t-25 60q0 35 25 59t61 24zM426 928q36 0 61 -24t25 -59q0 -36 -25 -60t-61 -24t-60.5 24t-24.5 60q0 35 24.5 59t60.5 24z" />
    <glyph glyph-name="Igrave" unicode="&#xcc;" horiz-adv-x="328" 
d="M244 0h-161v700h161v-700zM127 922l82 -157h-82l-193 155v2h193z" />
    <glyph glyph-name="Iacute" unicode="&#xcd;" horiz-adv-x="328" 
d="M244 0h-161v700h161v-700zM201 765h-82l82 157h193v-2z" />
    <glyph glyph-name="Icircumflex" unicode="&#xce;" horiz-adv-x="328" 
d="M244 0h-161v700h161v-700zM364 761h-86l-114 68l-114 -68h-86v2l130 155h140l130 -155v-2z" />
    <glyph glyph-name="Idieresis" unicode="&#xcf;" horiz-adv-x="328" 
d="M244 0h-161v700h161v-700zM51 928q36 0 60.5 -24t24.5 -59q0 -36 -24.5 -60t-60.5 -24t-61 24t-25 60q0 35 25 59t61 24zM277 928q36 0 61 -24t25 -59q0 -36 -25 -60t-61 -24t-60.5 24t-24.5 60q0 35 24.5 59t60.5 24z" />
    <glyph glyph-name="Eth" unicode="&#xd0;" horiz-adv-x="803" 
d="M20 299v111h83v290h253q189 0 296 -92.5t107 -255.5q0 -160 -109.5 -256t-293.5 -96h-253v299h-83zM413 407v-104h-150v-162h93q108 0 173 56.5t65 152.5q0 98 -63.5 153.5t-176.5 55.5h-91v-152h150z" />
    <glyph glyph-name="Ntilde" unicode="&#xd1;" horiz-adv-x="822" 
d="M238 0h-159v700h156l350 -399l-1 399h159v-703h-103l-404 460zM430 892q31 -15 43.5 -19.5t21.5 -4.5q15 0 27.5 9.5t48.5 47.5l57 -44q-51 -72 -79 -96t-63 -24q-14 0 -32 6t-55 24q-30 15 -42.5 19.5t-21.5 4.5q-15 0 -27.5 -9t-48.5 -47l-57 44q52 72 80 96t62 24
q13 0 31 -6t55 -25z" />
    <glyph glyph-name="Ograve" unicode="&#xd2;" horiz-adv-x="831" 
d="M414 -14q-160 0 -265.5 104t-105.5 259q0 154 107 259.5t266 105.5t265.5 -104.5t106.5 -258.5q0 -155 -107 -260t-267 -105zM413 568q-87 0 -146 -62.5t-59 -154.5q0 -93 59.5 -156t147.5 -63q87 0 147.5 63t60.5 154q0 92 -61 155.5t-149 63.5zM378 927l82 -157h-82
l-193 155v2h193z" />
    <glyph glyph-name="Oacute" unicode="&#xd3;" horiz-adv-x="831" 
d="M414 -14q-160 0 -265.5 104t-105.5 259q0 154 107 259.5t266 105.5t265.5 -104.5t106.5 -258.5q0 -155 -107 -260t-267 -105zM413 568q-87 0 -146 -62.5t-59 -154.5q0 -93 59.5 -156t147.5 -63q87 0 147.5 63t60.5 154q0 92 -61 155.5t-149 63.5zM452 770h-82l82 157h193
v-2z" />
    <glyph glyph-name="Ocircumflex" unicode="&#xd4;" horiz-adv-x="831" 
d="M414 -14q-160 0 -265.5 104t-105.5 259q0 154 107 259.5t266 105.5t265.5 -104.5t106.5 -258.5q0 -155 -107 -260t-267 -105zM413 568q-87 0 -146 -62.5t-59 -154.5q0 -93 59.5 -156t147.5 -63q87 0 147.5 63t60.5 154q0 92 -61 155.5t-149 63.5zM615 765h-86l-114 68
l-114 -68h-86v2l130 155h140l130 -155v-2z" />
    <glyph glyph-name="Otilde" unicode="&#xd5;" horiz-adv-x="831" 
d="M414 -14q-160 0 -265.5 104t-105.5 259q0 154 107 259.5t266 105.5t265.5 -104.5t106.5 -258.5q0 -155 -107 -260t-267 -105zM413 568q-87 0 -146 -62.5t-59 -154.5q0 -93 59.5 -156t147.5 -63q87 0 147.5 63t60.5 154q0 92 -61 155.5t-149 63.5zM434 897
q31 -15 43.5 -19.5t21.5 -4.5q15 0 27.5 9.5t48.5 47.5l57 -44q-51 -72 -79 -96t-63 -24q-14 0 -32 6t-55 24q-30 15 -42.5 19.5t-21.5 4.5q-15 0 -27.5 -9t-48.5 -47l-57 44q52 72 80 96t62 24q13 0 31 -6t55 -25z" />
    <glyph glyph-name="Odieresis" unicode="&#xd6;" horiz-adv-x="831" 
d="M414 -14q-160 0 -265.5 104t-105.5 259q0 154 107 259.5t266 105.5t265.5 -104.5t106.5 -258.5q0 -155 -107 -260t-267 -105zM413 568q-87 0 -146 -62.5t-59 -154.5q0 -93 59.5 -156t147.5 -63q87 0 147.5 63t60.5 154q0 92 -61 155.5t-149 63.5zM302 933q36 0 60.5 -24
t24.5 -59q0 -36 -24.5 -60t-60.5 -24t-61 24t-25 60q0 35 25 59t61 24zM528 933q36 0 61 -24t25 -59q0 -36 -25 -60t-61 -24t-60.5 24t-24.5 60q0 35 24.5 59t60.5 24z" />
    <glyph glyph-name="multiply" unicode="&#xd7;" horiz-adv-x="600" 
d="M548 197l-92 -91l-155 161l-159 -162l-90 90l161 160l-161 159l92 91l157 -161l157 161l90 -90l-159 -159z" />
    <glyph glyph-name="Oslash" unicode="&#xd8;" horiz-adv-x="831" 
d="M788 351q0 -155 -107 -260t-267 -105q-52 0 -101 13t-93 38l-67 -80h-131l118 143q-47 50 -72 114.5t-25 134.5q0 154 107 259.5t266 105.5q52 0 101.5 -13t92.5 -38l67 80h132l-119 -144q47 -50 72.5 -113.5t25.5 -134.5zM418 573q-92 0 -154 -65t-62 -162
q0 -37 10 -70.5t29 -61.5l274 337q-23 11 -47 16.5t-50 5.5zM413 127q92 0 154 65t62 162q0 37 -10 70.5t-29 61.5l-275 -337q23 -11 47.5 -16.5t50.5 -5.5z" />
    <glyph glyph-name="Ugrave" unicode="&#xd9;" horiz-adv-x="787" 
d="M393 -13q-153 0 -237 86t-84 243v384h161v-387q0 -86 42.5 -133.5t119.5 -47.5t119.5 47.5t42.5 135.5v385h158v-384q0 -157 -84 -243t-238 -86zM356 914l82 -157h-82l-193 155v2h193z" />
    <glyph glyph-name="Uacute" unicode="&#xda;" horiz-adv-x="787" 
d="M393 -13q-153 0 -237 86t-84 243v384h161v-387q0 -86 42.5 -133.5t119.5 -47.5t119.5 47.5t42.5 135.5v385h158v-384q0 -157 -84 -243t-238 -86zM430 757h-82l82 157h193v-2z" />
    <glyph glyph-name="Ucircumflex" unicode="&#xdb;" horiz-adv-x="787" 
d="M393 -13q-153 0 -237 86t-84 243v384h161v-387q0 -86 42.5 -133.5t119.5 -47.5t119.5 47.5t42.5 135.5v385h158v-384q0 -157 -84 -243t-238 -86zM593 765h-86l-114 68l-114 -68h-86v2l130 155h140l130 -155v-2z" />
    <glyph glyph-name="Udieresis" unicode="&#xdc;" horiz-adv-x="787" 
d="M393 -13q-153 0 -237 86t-84 243v384h161v-387q0 -86 42.5 -133.5t119.5 -47.5t119.5 47.5t42.5 135.5v385h158v-384q0 -157 -84 -243t-238 -86zM280 928q36 0 60.5 -24t24.5 -59q0 -36 -24.5 -60t-60.5 -24t-61 24t-25 60q0 35 25 59t61 24zM506 928q36 0 61 -24t25 -59
q0 -36 -25 -60t-61 -24t-60.5 24t-24.5 60q0 35 24.5 59t60.5 24z" />
    <glyph glyph-name="Yacute" unicode="&#xdd;" horiz-adv-x="704" 
d="M520 700h180l-267 -412v-288h-161v287l-267 413h187l164 -268zM389 760h-82l82 157h193v-2z" />
    <glyph glyph-name="Thorn" unicode="&#xde;" horiz-adv-x="635" 
d="M601 358q0 -107 -76.5 -171t-202.5 -64h-81v-123h-162v700h162v-114h90q126 0 198 -60.5t72 -167.5zM442 356q0 48 -32.5 75t-90.5 27h-81v-207h76q60 0 94 28t34 77z" />
    <glyph glyph-name="germandbls" unicode="&#xdf;" horiz-adv-x="705" 
d="M500 391q90 -37 128.5 -85t38.5 -123q0 -86 -58.5 -138.5t-154.5 -52.5q-33 0 -59 4t-57 15l-18 133l3 1q32 -17 58 -24.5t53 -7.5q36 0 59 22t23 57q0 48 -43.5 83.5t-134.5 61.5l-11 37q65 50 90 87.5t25 80.5q0 40 -23.5 64.5t-62.5 24.5q-44 0 -69 -29.5t-25 -78.5
v-523h-150v393h-82v118h82v6q0 113 65 176.5t183 63.5q104 0 167.5 -54t63.5 -139q0 -52 -21.5 -93t-69.5 -80z" />
    <glyph glyph-name="agrave" unicode="&#xe0;" horiz-adv-x="576" 
d="M520 12l-146 -19v77q-50 -40 -95.5 -59.5t-90.5 -19.5q-67 0 -108 37.5t-41 100.5q0 84 82 125.5t249 44.5q-3 49 -29 74t-75 25q-40 0 -84 -16.5t-90 -48.5l-3 2l23 137q42 25 88 37t98 12q109 0 165.5 -58t56.5 -169v-282zM177 144q0 -23 16 -36t45 -13q26 0 58.5 10.5
t73.5 31.5v91q-98 -7 -145.5 -27t-47.5 -57zM258 782l85 -185h-72l-194 183v2h181z" />
    <glyph glyph-name="aacute" unicode="&#xe1;" horiz-adv-x="576" 
d="M520 12l-146 -19v77q-50 -40 -95.5 -59.5t-90.5 -19.5q-67 0 -108 37.5t-41 100.5q0 84 82 125.5t249 44.5q-3 49 -29 74t-75 25q-40 0 -84 -16.5t-90 -48.5l-3 2l23 137q42 25 88 37t98 12q109 0 165.5 -58t56.5 -169v-282zM177 144q0 -23 16 -36t45 -13q26 0 58.5 10.5
t73.5 31.5v91q-98 -7 -145.5 -27t-47.5 -57zM335 597h-72l85 185h181v-2z" />
    <glyph glyph-name="acircumflex" unicode="&#xe2;" horiz-adv-x="576" 
d="M520 12l-146 -19v77q-50 -40 -95.5 -59.5t-90.5 -19.5q-67 0 -108 37.5t-41 100.5q0 84 82 125.5t249 44.5q-3 49 -29 74t-75 25q-40 0 -84 -16.5t-90 -48.5l-3 2l23 137q42 25 88 37t98 12q109 0 165.5 -58t56.5 -169v-282zM177 144q0 -23 16 -36t45 -13q26 0 58.5 10.5
t73.5 31.5v91q-98 -7 -145.5 -27t-47.5 -57zM499 597h-75l-120 86l-121 -86h-76v2l132 183h128l132 -183v-2z" />
    <glyph glyph-name="atilde" unicode="&#xe3;" horiz-adv-x="576" 
d="M520 12l-146 -19v77q-50 -40 -95.5 -59.5t-90.5 -19.5q-67 0 -108 37.5t-41 100.5q0 84 82 125.5t249 44.5q-3 49 -29 74t-75 25q-40 0 -84 -16.5t-90 -48.5l-3 2l23 137q42 25 88 37t98 12q109 0 165.5 -58t56.5 -169v-282zM177 144q0 -23 16 -36t45 -13q26 0 58.5 10.5
t73.5 31.5v91q-98 -7 -145.5 -27t-47.5 -57zM315 734q31 -18 43.5 -23t20.5 -5q12 0 23.5 9.5t48.5 56.5l64 -41q-49 -84 -76.5 -111.5t-61.5 -27.5q-12 0 -30 7t-56 29q-31 17 -43.5 22.5t-20.5 5.5q-12 0 -23.5 -9.5t-48.5 -56.5l-64 41q48 83 75.5 110.5t62.5 27.5
q12 0 30 -7t56 -28z" />
    <glyph glyph-name="adieresis" unicode="&#xe4;" horiz-adv-x="576" 
d="M520 12l-146 -19v77q-50 -40 -95.5 -59.5t-90.5 -19.5q-67 0 -108 37.5t-41 100.5q0 84 82 125.5t249 44.5q-3 49 -29 74t-75 25q-40 0 -84 -16.5t-90 -48.5l-3 2l23 137q42 25 88 37t98 12q109 0 165.5 -58t56.5 -169v-282zM177 144q0 -23 16 -36t45 -13q26 0 58.5 10.5
t73.5 31.5v91q-98 -7 -145.5 -27t-47.5 -57zM190 593q-36 0 -60.5 24t-24.5 59t24.5 58.5t60.5 23.5t60.5 -23.5t24.5 -58.5t-24.5 -59t-60.5 -24zM416 593q-36 0 -60.5 24t-24.5 59t24.5 58.5t60.5 23.5t60.5 -23.5t24.5 -58.5t-24.5 -59t-60.5 -24z" />
    <glyph glyph-name="aring" unicode="&#xe5;" horiz-adv-x="576" 
d="M520 12l-146 -19v77q-50 -40 -95.5 -59.5t-90.5 -19.5q-67 0 -108 37.5t-41 100.5q0 84 82 125.5t249 44.5q-3 49 -29 74t-75 25q-40 0 -84 -16.5t-90 -48.5l-3 2l23 137q42 25 88 37t98 12q109 0 165.5 -58t56.5 -169v-282zM177 144q0 -23 16 -36t45 -13q26 0 58.5 10.5
t73.5 31.5v91q-98 -7 -145.5 -27t-47.5 -57zM303 587q-55 0 -93.5 38t-38.5 92t38.5 92.5t93.5 38.5t93.5 -38.5t38.5 -92.5t-38.5 -92t-93.5 -38zM376 717q0 32 -21 54.5t-52 22.5t-52 -22.5t-21 -54.5t21 -54t52 -22t52 22t21 54z" />
    <glyph glyph-name="ae" unicode="&#xe6;" horiz-adv-x="906" 
d="M860 157l-41 -128q-46 -22 -86.5 -31t-89.5 -9q-68 0 -123.5 24t-91.5 70q-63 -48 -119.5 -70t-114.5 -22q-71 0 -113 37t-42 101q0 84 82 125.5t249 44.5q-3 49 -29 74t-75 25q-40 0 -84 -16.5t-90 -48.5l-3 2l23 137q42 25 87 37t96 12q54 0 95 -16.5t69 -48.5
q34 34 78.5 51.5t94.5 17.5q111 0 175 -73.5t64 -193.5q0 -11 -1 -24t-2 -19h-356q12 -51 53.5 -79t104.5 -28q45 0 91.5 12.5t96.5 38.5zM626 416q-45 0 -75 -31.5t-36 -83.5h216q-5 53 -33 84t-72 31zM373 228q-100 -7 -148 -27t-48 -57q0 -23 16.5 -36t44.5 -13
q30 0 67 14t84 43q-7 19 -11 38t-5 38z" />
    <glyph glyph-name="ccedilla" unicode="&#xe7;" horiz-adv-x="525" 
d="M407 -127q0 -40 -40 -65t-108 -25q-24 0 -45 2.5t-41 8.5l-27 59l4 3q28 -8 49 -11.5t43 -3.5q27 0 41.5 8t14.5 22t-13.5 20.5t-41.5 6.5q-13 0 -25 -0.5t-27 -2.5l-4 4l61 93q-98 15 -156 86t-58 178q0 116 76.5 191.5t196.5 75.5q48 0 89.5 -13t78.5 -39v-152h-2
q-40 34 -79.5 51.5t-76.5 17.5q-59 0 -96 -37.5t-37 -95.5t36 -95t93 -37q40 0 86 17.5t83 45.5l2 -1l-18 -148q-33 -19 -67.5 -31t-69.5 -16l-30 -42q54 -3 81 -21.5t27 -53.5z" />
    <glyph glyph-name="egrave" unicode="&#xe8;" horiz-adv-x="569" 
d="M524 157l-42 -128q-46 -22 -86.5 -31t-89.5 -9q-124 0 -198.5 73t-74.5 195q0 113 73.5 190.5t185.5 77.5t177.5 -73.5t65.5 -193.5q0 -6 -1 -18t-2 -25h-353q12 -51 52 -79t102 -28q45 0 91.5 12.5t96.5 38.5zM289 416q-45 0 -75 -31.5t-36 -83.5h216q-5 53 -33 84
t-72 31zM251 787l85 -185h-72l-194 183v2h181z" />
    <glyph glyph-name="eacute" unicode="&#xe9;" horiz-adv-x="569" 
d="M524 157l-42 -128q-46 -22 -86.5 -31t-89.5 -9q-124 0 -198.5 73t-74.5 195q0 113 73.5 190.5t185.5 77.5t177.5 -73.5t65.5 -193.5q0 -6 -1 -18t-2 -25h-353q12 -51 52 -79t102 -28q45 0 91.5 12.5t96.5 38.5zM289 416q-45 0 -75 -31.5t-36 -83.5h216q-5 53 -33 84
t-72 31zM328 602h-72l85 185h181v-2z" />
    <glyph glyph-name="ecircumflex" unicode="&#xea;" horiz-adv-x="569" 
d="M524 157l-42 -128q-46 -22 -86.5 -31t-89.5 -9q-124 0 -198.5 73t-74.5 195q0 113 73.5 190.5t185.5 77.5t177.5 -73.5t65.5 -193.5q0 -6 -1 -18t-2 -25h-353q12 -51 52 -79t102 -28q45 0 91.5 12.5t96.5 38.5zM289 416q-45 0 -75 -31.5t-36 -83.5h216q-5 53 -33 84
t-72 31zM492 592h-75l-120 86l-121 -86h-76v2l132 183h128l132 -183v-2z" />
    <glyph glyph-name="edieresis" unicode="&#xeb;" horiz-adv-x="569" 
d="M524 157l-42 -128q-46 -22 -86.5 -31t-89.5 -9q-124 0 -198.5 73t-74.5 195q0 113 73.5 190.5t185.5 77.5t177.5 -73.5t65.5 -193.5q0 -6 -1 -18t-2 -25h-353q12 -51 52 -79t102 -28q45 0 91.5 12.5t96.5 38.5zM289 416q-45 0 -75 -31.5t-36 -83.5h216q-5 53 -33 84
t-72 31zM183 598q-36 0 -60.5 24t-24.5 59t24.5 58.5t60.5 23.5t60.5 -23.5t24.5 -58.5t-24.5 -59t-60.5 -24zM409 598q-36 0 -60.5 24t-24.5 59t24.5 58.5t60.5 23.5t60.5 -23.5t24.5 -58.5t-24.5 -59t-60.5 -24z" />
    <glyph glyph-name="igrave" unicode="&#xec;" horiz-adv-x="294" 
d="M222 0h-151v511h151v-511zM102 782l85 -185h-72l-194 183v2h181z" />
    <glyph glyph-name="iacute" unicode="&#xed;" horiz-adv-x="294" 
d="M222 0h-151v511h151v-511zM179 597h-72l85 185h181v-2z" />
    <glyph glyph-name="icircumflex" unicode="&#xee;" horiz-adv-x="294" 
d="M222 0h-151v511h151v-511zM343 589h-75l-120 86l-121 -86h-76v2l132 183h128l132 -183v-2z" />
    <glyph glyph-name="idieresis" unicode="&#xef;" horiz-adv-x="294" 
d="M222 0h-151v511h151v-511zM34 593q-36 0 -60.5 24t-24.5 59t24.5 58.5t60.5 23.5t60.5 -23.5t24.5 -58.5t-24.5 -59t-60.5 -24zM260 593q-36 0 -60.5 24t-24.5 59t24.5 58.5t60.5 23.5t60.5 -23.5t24.5 -58.5t-24.5 -59t-60.5 -24z" />
    <glyph glyph-name="eth" unicode="&#xf0;" horiz-adv-x="611" 
d="M569 278q0 -70 -19.5 -123.5t-60.5 -94.5q-36 -36 -85 -55t-108 -19q-113 0 -186.5 72t-73.5 177q0 101 68 170t168 69q41 0 76 -10.5t66 -32.5q-19 37 -50 72.5t-80 75.5l-76 -60l-48 52l68 52q-16 11 -35 24.5t-47 33.5l93 77q24 -16 45 -31.5t40 -29.5l77 61l48 -52
l-70 -54q98 -87 144 -177t46 -197zM423 238q0 53 -33.5 86.5t-86.5 33.5t-86.5 -34t-33.5 -88q0 -52 33 -86.5t84 -34.5q53 0 88 35.5t35 87.5z" />
    <glyph glyph-name="ntilde" unicode="&#xf1;" horiz-adv-x="624" 
d="M328 390q-28 0 -52.5 -11t-56.5 -38v-341h-152v499l148 19v-98q41 54 83.5 78.5t94.5 24.5q79 0 125.5 -53t46.5 -144v-326h-151v295q0 45 -22.5 70t-63.5 25zM329 734q31 -18 43.5 -23t20.5 -5q12 0 23.5 9.5t48.5 56.5l64 -41q-49 -84 -76.5 -111.5t-61.5 -27.5
q-12 0 -30 7t-56 29q-31 17 -43.5 22.5t-20.5 5.5q-12 0 -23.5 -9.5t-48.5 -56.5l-64 41q48 83 75.5 110.5t62.5 27.5q12 0 30 -7t56 -28z" />
    <glyph glyph-name="ograve" unicode="&#xf2;" horiz-adv-x="619" 
d="M309 -14q-121 0 -198.5 77.5t-77.5 191.5q0 113 79 191.5t198 78.5q121 0 198.5 -77t77.5 -191q0 -113 -79 -192t-198 -79zM439 257q0 60 -36.5 99.5t-92.5 39.5q-57 0 -93.5 -40t-36.5 -101q0 -60 37 -100t92 -40q56 0 93 40.5t37 101.5zM264 787l85 -185h-72l-194 183
v2h181z" />
    <glyph glyph-name="oacute" unicode="&#xf3;" horiz-adv-x="619" 
d="M309 -14q-121 0 -198.5 77.5t-77.5 191.5q0 113 79 191.5t198 78.5q121 0 198.5 -77t77.5 -191q0 -113 -79 -192t-198 -79zM439 257q0 60 -36.5 99.5t-92.5 39.5q-57 0 -93.5 -40t-36.5 -101q0 -60 37 -100t92 -40q56 0 93 40.5t37 101.5zM341 602h-72l85 185h181v-2z
" />
    <glyph glyph-name="ocircumflex" unicode="&#xf4;" horiz-adv-x="619" 
d="M309 -14q-121 0 -198.5 77.5t-77.5 191.5q0 113 79 191.5t198 78.5q121 0 198.5 -77t77.5 -191q0 -113 -79 -192t-198 -79zM439 257q0 60 -36.5 99.5t-92.5 39.5q-57 0 -93.5 -40t-36.5 -101q0 -60 37 -100t92 -40q56 0 93 40.5t37 101.5zM505 592h-75l-120 86l-121 -86
h-76v2l132 183h128l132 -183v-2z" />
    <glyph glyph-name="otilde" unicode="&#xf5;" horiz-adv-x="619" 
d="M309 -14q-121 0 -198.5 77.5t-77.5 191.5q0 113 79 191.5t198 78.5q121 0 198.5 -77t77.5 -191q0 -113 -79 -192t-198 -79zM439 257q0 60 -36.5 99.5t-92.5 39.5q-57 0 -93.5 -40t-36.5 -101q0 -60 37 -100t92 -40q56 0 93 40.5t37 101.5zM321 739q31 -18 43.5 -23
t20.5 -5q12 0 23.5 9.5t48.5 56.5l64 -41q-49 -84 -76.5 -111.5t-61.5 -27.5q-12 0 -30 7t-56 29q-31 17 -43.5 22.5t-20.5 5.5q-12 0 -23.5 -9.5t-48.5 -56.5l-64 41q48 83 75.5 110.5t62.5 27.5q12 0 30 -7t56 -28z" />
    <glyph glyph-name="odieresis" unicode="&#xf6;" horiz-adv-x="619" 
d="M309 -14q-121 0 -198.5 77.5t-77.5 191.5q0 113 79 191.5t198 78.5q121 0 198.5 -77t77.5 -191q0 -113 -79 -192t-198 -79zM439 257q0 60 -36.5 99.5t-92.5 39.5q-57 0 -93.5 -40t-36.5 -101q0 -60 37 -100t92 -40q56 0 93 40.5t37 101.5zM196 598q-36 0 -60.5 24
t-24.5 59t24.5 58.5t60.5 23.5t60.5 -23.5t24.5 -58.5t-24.5 -59t-60.5 -24zM422 598q-36 0 -60.5 24t-24.5 59t24.5 58.5t60.5 23.5t60.5 -23.5t24.5 -58.5t-24.5 -59t-60.5 -24z" />
    <glyph glyph-name="divide" unicode="&#xf7;" horiz-adv-x="600" 
d="M300 479q-36 0 -61 25t-25 61t25 61.5t61 25.5t61 -25.5t25 -61.5t-25 -61t-61 -25zM559 415v-120l-259 4l-259 -4v120l259 -4zM300 58q-36 0 -61 25t-25 61t25 61.5t61 25.5t61 -25.5t25 -61.5t-25 -61t-61 -25z" />
    <glyph glyph-name="oslash" unicode="&#xf8;" horiz-adv-x="619" 
d="M586 257q0 -113 -79 -192t-198 -79q-38 0 -72.5 8.5t-64.5 24.5l-46 -58h-112l90 111q-34 37 -52.5 84.5t-18.5 98.5q0 113 79 191.5t198 78.5q38 0 72.5 -8.5t64.5 -24.5l45 58h113l-90 -110q34 -37 52.5 -84.5t18.5 -98.5zM313 401q-62 0 -100.5 -42t-38.5 -108
q0 -21 5 -40.5t16 -38.5l172 218q-12 5 -26 8t-28 3zM305 110q62 0 101 42.5t39 108.5q0 21 -5.5 41t-15.5 37l-172 -217q12 -6 25.5 -9t27.5 -3z" />
    <glyph glyph-name="ugrave" unicode="&#xf9;" horiz-adv-x="624" 
d="M557 0h-147v92q-41 -54 -83 -78.5t-96 -24.5q-79 0 -125.5 53t-46.5 144v325h152v-294q0 -46 22 -71t63 -25q28 0 53 11.5t57 38.5v340h151v-511zM264 779l85 -185h-72l-194 183v2h181z" />
    <glyph glyph-name="uacute" unicode="&#xfa;" horiz-adv-x="624" 
d="M557 0h-147v92q-41 -54 -83 -78.5t-96 -24.5q-79 0 -125.5 53t-46.5 144v325h152v-294q0 -46 22 -71t63 -25q28 0 53 11.5t57 38.5v340h151v-511zM341 594h-72l85 185h181v-2z" />
    <glyph glyph-name="ucircumflex" unicode="&#xfb;" horiz-adv-x="624" 
d="M557 0h-147v92q-41 -54 -83 -78.5t-96 -24.5q-79 0 -125.5 53t-46.5 144v325h152v-294q0 -46 22 -71t63 -25q28 0 53 11.5t57 38.5v340h151v-511zM505 597h-75l-120 86l-121 -86h-76v2l132 183h128l132 -183v-2z" />
    <glyph glyph-name="udieresis" unicode="&#xfc;" horiz-adv-x="624" 
d="M557 0h-147v92q-41 -54 -83 -78.5t-96 -24.5q-79 0 -125.5 53t-46.5 144v325h152v-294q0 -46 22 -71t63 -25q28 0 53 11.5t57 38.5v340h151v-511zM196 593q-36 0 -60.5 24t-24.5 59t24.5 58.5t60.5 23.5t60.5 -23.5t24.5 -58.5t-24.5 -59t-60.5 -24zM422 593
q-36 0 -60.5 24t-24.5 59t24.5 58.5t60.5 23.5t60.5 -23.5t24.5 -58.5t-24.5 -59t-60.5 -24z" />
    <glyph glyph-name="yacute" unicode="&#xfd;" horiz-adv-x="592" 
d="M579 511l-206 -519q-36 -95 -92.5 -141t-136.5 -46q-24 0 -45.5 4t-42.5 13l-29 139l2 1q22 -11 42.5 -16.5t42.5 -5.5q42 0 68 19t44 61v1l-213 490h164l126 -321l115 321h161zM331 592h-72l85 185h181v-2z" />
    <glyph glyph-name="thorn" unicode="&#xfe;" horiz-adv-x="635" 
d="M601 267q0 -119 -72 -197t-178 -78q-35 0 -67.5 12t-64.5 37v-230h-152v907l152 40v-315q38 41 76.5 59.5t85.5 18.5q94 0 157 -72.5t63 -181.5zM454 258q0 61 -35 98.5t-90 37.5q-28 0 -54 -9t-56 -28v-211q26 -15 50.5 -21.5t50.5 -6.5q59 0 96.5 39t37.5 101z" />
    <glyph glyph-name="ydieresis" unicode="&#xff;" horiz-adv-x="592" 
d="M579 511l-206 -519q-36 -95 -92.5 -141t-136.5 -46q-24 0 -45.5 4t-42.5 13l-29 139l2 1q22 -11 42.5 -16.5t42.5 -5.5q42 0 68 19t44 61v1l-213 490h164l126 -321l115 321h161zM186 593q-36 0 -60.5 24t-24.5 59t24.5 58.5t60.5 23.5t60.5 -23.5t24.5 -58.5t-24.5 -59
t-60.5 -24zM412 593q-36 0 -60.5 24t-24.5 59t24.5 58.5t60.5 23.5t60.5 -23.5t24.5 -58.5t-24.5 -59t-60.5 -24z" />
    <glyph glyph-name="Amacron" unicode="&#x100;" horiz-adv-x="813" 
d="M184 0h-167l307 702h171l300 -702h-173l-58 144h-320zM406 538l-112 -265h220zM209 786v100h398v-100h-398z" />
    <glyph glyph-name="amacron" unicode="&#x101;" horiz-adv-x="576" 
d="M520 12l-146 -19v77q-50 -40 -95.5 -59.5t-90.5 -19.5q-67 0 -108 37.5t-41 100.5q0 84 82 125.5t249 44.5q-3 49 -29 74t-75 25q-40 0 -84 -16.5t-90 -48.5l-3 2l23 137q42 25 88 37t98 12q109 0 165.5 -58t56.5 -169v-282zM177 144q0 -23 16 -36t45 -13q26 0 58.5 10.5
t73.5 31.5v91q-98 -7 -145.5 -27t-47.5 -57zM115 618v96h376v-96h-376z" />
    <glyph glyph-name="Abreve" unicode="&#x102;" horiz-adv-x="813" 
d="M184 0h-167l307 702h171l300 -702h-173l-58 144h-320zM406 538l-112 -265h220zM408 761q-64 0 -115.5 31.5t-90.5 94.5l54 48q43 -38 77.5 -53.5t74.5 -15.5t74.5 15.5t77.5 53.5l54 -48q-39 -63 -90.5 -94.5t-115.5 -31.5z" />
    <glyph glyph-name="abreve" unicode="&#x103;" horiz-adv-x="576" 
d="M520 12l-146 -19v77q-50 -40 -95.5 -59.5t-90.5 -19.5q-67 0 -108 37.5t-41 100.5q0 84 82 125.5t249 44.5q-3 49 -29 74t-75 25q-40 0 -84 -16.5t-90 -48.5l-3 2l23 137q42 25 88 37t98 12q109 0 165.5 -58t56.5 -169v-282zM177 144q0 -23 16 -36t45 -13q26 0 58.5 10.5
t73.5 31.5v91q-98 -7 -145.5 -27t-47.5 -57zM303 589q-59 0 -106.5 34t-89.5 107l61 48q36 -43 67 -61.5t68 -18.5q36 0 67.5 18.5t67.5 61.5l61 -47q-42 -74 -90 -108t-106 -34z" />
    <glyph glyph-name="Aogonek" unicode="&#x104;" horiz-adv-x="813" 
d="M184 0h-167l307 702h171l300 -702h-54l-30 -51q-10 -17 -13.5 -26.5t-3.5 -18.5q0 -22 21 -31.5t67 -9.5h12l-18 -54q-20 -4 -41 -6.5t-40 -2.5q-59 0 -92 21t-33 58q0 19 11 38t44 53l29 30h-32l-58 144h-320zM406 538l-112 -265h220z" />
    <glyph glyph-name="aogonek" unicode="&#x105;" horiz-adv-x="576" 
d="M533 -133l-18 -54q-20 -4 -41 -6.5t-40 -2.5q-58 0 -91.5 21.5t-33.5 58.5q0 19 12 39t43 51l20 20l-10 -1v77q-50 -40 -95.5 -59.5t-90.5 -19.5q-67 0 -108 37.5t-41 100.5q0 84 82 125.5t249 44.5q-3 49 -29 74t-75 25q-40 0 -84 -16.5t-90 -48.5l-3 2l23 137
q42 25 88 37t98 12q109 0 165.5 -58t56.5 -169v-282l-38 -5l-32 -53q-10 -18 -13.5 -27.5t-3.5 -18.5q0 -22 21 -31.5t67 -9.5h12zM177 144q0 -23 16 -36t45 -13q26 0 58.5 10.5t73.5 31.5v91q-98 -7 -145.5 -27t-47.5 -57z" />
    <glyph glyph-name="Cacute" unicode="&#x106;" horiz-adv-x="702" 
d="M397 -12q-153 0 -253.5 101.5t-100.5 260.5q0 154 105 258t261 104q66 0 124 -20.5t107 -59.5v-172h-3q-51 50 -106.5 76.5t-110.5 26.5q-90 0 -150.5 -60.5t-60.5 -150.5q0 -95 60 -155.5t150 -60.5q61 0 119 25t113 75l2 -2l-21 -171q-56 -39 -113 -57t-122 -18z
M432 770h-82l82 157h193v-2z" />
    <glyph glyph-name="cacute" unicode="&#x107;" horiz-adv-x="525" 
d="M484 185l-18 -148q-39 -24 -82.5 -36.5t-88.5 -12.5q-116 0 -188.5 74t-72.5 194q0 116 76.5 191.5t196.5 75.5q48 0 89.5 -13t78.5 -39v-152h-2q-41 35 -80 52t-76 17q-59 0 -96 -37.5t-37 -95.5t36 -95t93 -37q40 0 86 17.5t83 45.5zM320 602h-72l85 185h181v-2z" />
    <glyph glyph-name="Ccircumflex" unicode="&#x108;" horiz-adv-x="702" 
d="M397 -12q-153 0 -253.5 101.5t-100.5 260.5q0 154 105 258t261 104q66 0 124 -20.5t107 -59.5v-172h-3q-51 50 -106.5 76.5t-110.5 26.5q-90 0 -150.5 -60.5t-60.5 -150.5q0 -95 60 -155.5t150 -60.5q61 0 119 25t113 75l2 -2l-21 -171q-56 -39 -113 -57t-122 -18z
M595 765h-86l-114 68l-114 -68h-86v2l130 155h140l130 -155v-2z" />
    <glyph glyph-name="ccircumflex" unicode="&#x109;" horiz-adv-x="525" 
d="M484 185l-18 -148q-39 -24 -82.5 -36.5t-88.5 -12.5q-116 0 -188.5 74t-72.5 194q0 116 76.5 191.5t196.5 75.5q48 0 89.5 -13t78.5 -39v-152h-2q-41 35 -80 52t-76 17q-59 0 -96 -37.5t-37 -95.5t36 -95t93 -37q40 0 86 17.5t83 45.5zM484 594h-75l-120 86l-121 -86h-76
v2l132 183h128l132 -183v-2z" />
    <glyph glyph-name="Cdotaccent" unicode="&#x10a;" horiz-adv-x="702" 
d="M397 -12q-153 0 -253.5 101.5t-100.5 260.5q0 154 105 258t261 104q66 0 124 -20.5t107 -59.5v-172h-3q-51 50 -106.5 76.5t-110.5 26.5q-90 0 -150.5 -60.5t-60.5 -150.5q0 -95 60 -155.5t150 -60.5q61 0 119 25t113 75l2 -2l-21 -171q-56 -39 -113 -57t-122 -18z
M395 932q36 0 60.5 -24t24.5 -60q0 -35 -24.5 -59t-60.5 -24t-60.5 24t-24.5 59q0 36 24.5 60t60.5 24z" />
    <glyph glyph-name="cdotaccent" unicode="&#x10b;" horiz-adv-x="525" 
d="M484 185l-18 -148q-39 -24 -82.5 -36.5t-88.5 -12.5q-116 0 -188.5 74t-72.5 194q0 116 76.5 191.5t196.5 75.5q48 0 89.5 -13t78.5 -39v-152h-2q-41 35 -80 52t-76 17q-59 0 -96 -37.5t-37 -95.5t36 -95t93 -37q40 0 86 17.5t83 45.5zM288 596q-35 0 -59 23.5t-24 58.5
q0 34 24 57.5t59 23.5t59 -23.5t24 -57.5q0 -35 -24 -58.5t-59 -23.5z" />
    <glyph glyph-name="Ccaron" unicode="&#x10c;" horiz-adv-x="702" 
d="M397 -12q-153 0 -253.5 101.5t-100.5 260.5q0 154 105 258t261 104q66 0 124 -20.5t107 -59.5v-172h-3q-51 50 -106.5 76.5t-110.5 26.5q-90 0 -150.5 -60.5t-60.5 -150.5q0 -95 60 -155.5t150 -60.5q61 0 119 25t113 75l2 -2l-21 -171q-56 -39 -113 -57t-122 -18z
M595 925v-2l-130 -155h-140l-130 155v2h86l114 -68l114 68h86z" />
    <glyph glyph-name="ccaron" unicode="&#x10d;" horiz-adv-x="525" 
d="M484 185l-18 -148q-39 -24 -82.5 -36.5t-88.5 -12.5q-116 0 -188.5 74t-72.5 194q0 116 76.5 191.5t196.5 75.5q48 0 89.5 -13t78.5 -39v-152h-2q-41 35 -80 52t-76 17q-59 0 -96 -37.5t-37 -95.5t36 -95t93 -37q40 0 86 17.5t83 45.5zM484 787v-2l-132 -183h-128
l-132 183v2h75l120 -86l121 86h76z" />
    <glyph glyph-name="Dcaron" unicode="&#x10e;" horiz-adv-x="779" 
d="M332 0h-253v700h253q189 0 296 -92.5t107 -255.5q0 -160 -109.5 -256t-293.5 -96zM570 350q0 98 -63.5 153.5t-176.5 55.5h-89v-418h91q109 0 173.5 56.5t64.5 152.5zM579 920v-2l-130 -155h-140l-130 155v2h86l114 -68l114 68h86z" />
    <glyph glyph-name="dcaron" unicode="&#x10f;" horiz-adv-x="635" 
d="M568 0h-148v72q-38 -43 -78 -62.5t-88 -19.5q-93 0 -156.5 72.5t-63.5 181.5q0 118 71.5 196.5t175.5 78.5q36 0 70 -12.5t66 -37.5v249l151 40v-758zM315 393q-59 0 -96.5 -39t-37.5 -101q0 -61 35 -98.5t90 -37.5q27 0 53.5 9t57.5 30v209q-26 15 -50.5 21.5t-51.5 6.5
zM673 550h-60q11 22 16.5 47t5.5 51q0 27 -5.5 51.5t-16.5 47.5h117q4 -13 6 -25t2 -24q0 -37 -16 -74t-49 -74z" />
    <glyph glyph-name="Dcroat" unicode="&#x110;" horiz-adv-x="803" 
d="M20 299v111h83v290h253q189 0 296 -92.5t107 -255.5q0 -160 -109.5 -256t-293.5 -96h-253v299h-83zM413 407v-104h-150v-162h93q108 0 173 56.5t65 152.5q0 98 -63.5 153.5t-176.5 55.5h-91v-152h150z" />
    <glyph glyph-name="dcroat" unicode="&#x111;" horiz-adv-x="641" 
d="M568 0h-148v71q-38 -42 -78 -61.5t-88 -19.5q-93 0 -156.5 71.5t-63.5 178.5q0 116 72 192.5t178 76.5q35 0 68 -12t65 -36v112h-126v80h126v65l151 40v-105h68v-80h-68v-573zM315 385q-59 0 -96.5 -38t-37.5 -98t35 -96.5t90 -36.5q28 0 54 9t57 28v206q-27 14 -51.5 20
t-50.5 6z" />
    <glyph glyph-name="Emacron" unicode="&#x112;" horiz-adv-x="600" 
d="M526 0h-447v700h444l28 -137h-312v-147h259v-124h-259v-155h315zM114 786v100h398v-100h-398z" />
    <glyph glyph-name="emacron" unicode="&#x113;" horiz-adv-x="569" 
d="M524 157l-42 -128q-46 -22 -86.5 -31t-89.5 -9q-124 0 -198.5 73t-74.5 195q0 113 73.5 190.5t185.5 77.5t177.5 -73.5t65.5 -193.5q0 -6 -1 -18t-2 -25h-353q12 -51 52 -79t102 -28q45 0 91.5 12.5t96.5 38.5zM289 416q-45 0 -75 -31.5t-36 -83.5h216q-5 53 -33 84
t-72 31zM108 623v96h376v-96h-376z" />
    <glyph glyph-name="Ebreve" unicode="&#x114;" horiz-adv-x="600" 
d="M526 0h-447v700h444l28 -137h-312v-147h259v-124h-259v-155h315zM313 761q-64 0 -115.5 31.5t-90.5 94.5l54 48q43 -38 77.5 -53.5t74.5 -15.5t74.5 15.5t77.5 53.5l54 -48q-39 -63 -90.5 -94.5t-115.5 -31.5z" />
    <glyph glyph-name="ebreve" unicode="&#x115;" horiz-adv-x="569" 
d="M524 157l-42 -128q-46 -22 -86.5 -31t-89.5 -9q-124 0 -198.5 73t-74.5 195q0 113 73.5 190.5t185.5 77.5t177.5 -73.5t65.5 -193.5q0 -6 -1 -18t-2 -25h-353q12 -51 52 -79t102 -28q45 0 91.5 12.5t96.5 38.5zM289 416q-45 0 -75 -31.5t-36 -83.5h216q-5 53 -33 84
t-72 31zM296 594q-59 0 -106.5 34t-89.5 107l61 48q36 -43 67 -61.5t68 -18.5q36 0 67.5 18.5t67.5 61.5l61 -47q-42 -74 -90 -108t-106 -34z" />
    <glyph glyph-name="Edotaccent" unicode="&#x116;" horiz-adv-x="600" 
d="M526 0h-447v700h444l28 -137h-312v-147h259v-124h-259v-155h315zM313 927q36 0 60.5 -24t24.5 -60q0 -35 -24.5 -59t-60.5 -24t-60.5 24t-24.5 59q0 36 24.5 60t60.5 24z" />
    <glyph glyph-name="edotaccent" unicode="&#x117;" horiz-adv-x="569" 
d="M524 157l-42 -128q-46 -22 -86.5 -31t-89.5 -9q-124 0 -198.5 73t-74.5 195q0 113 73.5 190.5t185.5 77.5t177.5 -73.5t65.5 -193.5q0 -6 -1 -18t-2 -25h-353q12 -51 52 -79t102 -28q45 0 91.5 12.5t96.5 38.5zM289 416q-45 0 -75 -31.5t-36 -83.5h216q-5 53 -33 84
t-72 31zM296 596q-35 0 -59 23.5t-24 58.5q0 34 24 57.5t59 23.5t59 -23.5t24 -57.5q0 -35 -24 -58.5t-59 -23.5z" />
    <glyph glyph-name="Eogonek" unicode="&#x118;" horiz-adv-x="600" 
d="M545 -137l-17 -54q-21 -4 -42 -6.5t-40 -2.5q-59 0 -92 21t-33 58q0 19 11 38t44 53l29 30h-326v700h444l28 -137h-312v-147h259v-124h-259v-155h315l-28 -137h-34l-30 -51q-10 -17 -13.5 -26.5t-3.5 -18.5q0 -22 21 -31.5t67 -9.5h12z" />
    <glyph glyph-name="eogonek" unicode="&#x119;" horiz-adv-x="569" 
d="M470 -137l-17 -54q-21 -4 -42 -6.5t-40 -2.5q-57 0 -89.5 19.5t-32.5 55.5q0 23 16 43t56 48l37 28q-12 -2 -25 -2.5t-27 -0.5q-124 0 -198.5 73t-74.5 194q0 112 73.5 189.5t185.5 77.5t177.5 -73.5t65.5 -193.5q0 -6 -1 -18t-2 -25h-353q12 -51 52 -79t102 -28
q46 0 93 12.5t95 37.5l2 -2l-41 -125l-76 -77q-16 -16 -23 -28.5t-7 -24.5q0 -20 19 -29t63 -9h12zM289 416q-45 0 -75 -31.5t-36 -83.5h216q-5 53 -33 84t-72 31z" />
    <glyph glyph-name="Ecaron" unicode="&#x11a;" horiz-adv-x="600" 
d="M526 0h-447v700h444l28 -137h-312v-147h259v-124h-259v-155h315zM513 920v-2l-130 -155h-140l-130 155v2h86l114 -68l114 68h86z" />
    <glyph glyph-name="ecaron" unicode="&#x11b;" horiz-adv-x="569" 
d="M524 157l-42 -128q-46 -22 -86.5 -31t-89.5 -9q-124 0 -198.5 73t-74.5 195q0 113 73.5 190.5t185.5 77.5t177.5 -73.5t65.5 -193.5q0 -6 -1 -18t-2 -25h-353q12 -51 52 -79t102 -28q45 0 91.5 12.5t96.5 38.5zM289 416q-45 0 -75 -31.5t-36 -83.5h216q-5 53 -33 84
t-72 31zM492 787v-2l-132 -183h-128l-132 183v2h75l120 -86l121 86h76z" />
    <glyph glyph-name="Gcircumflex" unicode="&#x11c;" horiz-adv-x="776" 
d="M702 383v-315q-73 -40 -145 -59t-148 -19q-164 0 -265 97t-101 257q0 163 110.5 264.5t286.5 101.5q68 0 127 -13t117 -41v-159h-3q-67 35 -123 51t-112 16q-103 0 -170 -61t-67 -156q0 -99 61 -158t163 -59q33 0 62 5t58 15v118h-157v115h306zM614 765h-86l-114 68
l-114 -68h-86v2l130 155h140l130 -155v-2z" />
    <glyph glyph-name="gcircumflex" unicode="&#x11d;" horiz-adv-x="635" 
d="M568 513v-439q0 -126 -76 -197.5t-209 -71.5q-54 0 -103 11t-100 35l-24 139l2 1q63 -33 112 -47t101 -14q69 0 108 35t39 99v32q-38 -36 -78 -52.5t-87 -16.5q-95 0 -157 65.5t-62 167.5q0 115 79.5 187t200.5 72q36 0 71.5 -6.5t74.5 -20.5l96 21h12zM322 396
q-61 0 -101 -37t-40 -95q0 -55 34 -88.5t88 -33.5q29 0 56.5 9t58.5 29v199q-26 9 -49 13t-47 4zM519 597h-75l-120 86l-121 -86h-76v2l132 183h128l132 -183v-2z" />
    <glyph glyph-name="Gbreve" unicode="&#x11e;" horiz-adv-x="776" 
d="M702 383v-315q-73 -40 -145 -59t-148 -19q-164 0 -265 97t-101 257q0 163 110.5 264.5t286.5 101.5q68 0 127 -13t117 -41v-159h-3q-67 35 -123 51t-112 16q-103 0 -170 -61t-67 -156q0 -99 61 -158t163 -59q33 0 62 5t58 15v118h-157v115h306zM414 766
q-64 0 -115.5 31.5t-90.5 94.5l54 48q43 -38 77.5 -53.5t74.5 -15.5t74.5 15.5t77.5 53.5l54 -48q-39 -63 -90.5 -94.5t-115.5 -31.5z" />
    <glyph glyph-name="gbreve" unicode="&#x11f;" horiz-adv-x="635" 
d="M568 513v-439q0 -126 -76 -197.5t-209 -71.5q-54 0 -103 11t-100 35l-24 139l2 1q63 -33 112 -47t101 -14q69 0 108 35t39 99v32q-38 -36 -78 -52.5t-87 -16.5q-95 0 -157 65.5t-62 167.5q0 115 79.5 187t200.5 72q36 0 71.5 -6.5t74.5 -20.5l96 21h12zM322 396
q-61 0 -101 -37t-40 -95q0 -55 34 -88.5t88 -33.5q29 0 56.5 9t58.5 29v199q-26 9 -49 13t-47 4zM323 589q-59 0 -106.5 34t-89.5 107l61 48q36 -43 67 -61.5t68 -18.5q36 0 67.5 18.5t67.5 61.5l61 -47q-42 -74 -90 -108t-106 -34z" />
    <glyph glyph-name="Gdotaccent" unicode="&#x120;" horiz-adv-x="776" 
d="M702 383v-315q-73 -40 -145 -59t-148 -19q-164 0 -265 97t-101 257q0 163 110.5 264.5t286.5 101.5q68 0 127 -13t117 -41v-159h-3q-67 35 -123 51t-112 16q-103 0 -170 -61t-67 -156q0 -99 61 -158t163 -59q33 0 62 5t58 15v118h-157v115h306zM414 932q36 0 60.5 -24
t24.5 -60q0 -35 -24.5 -59t-60.5 -24t-60.5 24t-24.5 59q0 36 24.5 60t60.5 24z" />
    <glyph glyph-name="gdotaccent" unicode="&#x121;" horiz-adv-x="635" 
d="M568 513v-439q0 -126 -76 -197.5t-209 -71.5q-54 0 -103 11t-100 35l-24 139l2 1q63 -33 112 -47t101 -14q69 0 108 35t39 99v32q-38 -36 -78 -52.5t-87 -16.5q-95 0 -157 65.5t-62 167.5q0 115 79.5 187t200.5 72q36 0 71.5 -6.5t74.5 -20.5l96 21h12zM322 396
q-61 0 -101 -37t-40 -95q0 -55 34 -88.5t88 -33.5q29 0 56.5 9t58.5 29v199q-26 9 -49 13t-47 4zM323 591q-35 0 -59 23.5t-24 58.5q0 34 24 57.5t59 23.5t59 -23.5t24 -57.5q0 -35 -24 -58.5t-59 -23.5z" />
    <glyph glyph-name="uni0122" unicode="&#x122;" horiz-adv-x="776" 
d="M702 383v-315q-73 -40 -145 -59t-148 -19q-164 0 -265 97t-101 257q0 163 110.5 264.5t286.5 101.5q68 0 127 -13t117 -41v-159h-3q-67 35 -123 51t-112 16q-103 0 -170 -61t-67 -156q0 -99 61 -158t163 -59q33 0 62 5t58 15v118h-157v115h306zM522 -148
q0 -32 -36.5 -61.5t-111.5 -58.5l-73 29v3q39 20 56 35t17 30q0 14 -17 26t-59 29v4l151 41q38 -15 55.5 -33.5t17.5 -43.5z" />
    <glyph glyph-name="uni0123" unicode="&#x123;" horiz-adv-x="635" 
d="M568 513v-439q0 -126 -76 -197.5t-209 -71.5q-54 0 -103 11t-100 35l-24 139l2 1q63 -33 112 -47t101 -14q69 0 108 35t39 99v32q-38 -36 -78 -52.5t-87 -16.5q-95 0 -157 65.5t-62 167.5q0 115 79.5 187t200.5 72q36 0 71.5 -6.5t74.5 -20.5l96 21h12zM322 396
q-61 0 -101 -37t-40 -95q0 -55 34 -88.5t88 -33.5q29 0 56.5 9t58.5 29v199q-26 9 -49 13t-47 4zM212 671q0 34 36.5 65t111.5 61l73 -29v-3q-38 -21 -55.5 -37.5t-17.5 -31.5q0 -16 16.5 -28.5t59.5 -31.5v-4l-151 -42q-38 17 -55.5 36t-17.5 45z" />
    <glyph glyph-name="Hcircumflex" unicode="&#x124;" horiz-adv-x="811" 
d="M732 0h-161v281h-330v-281h-162v700h162v-271h330v271h161v-700zM606 765h-86l-114 68l-114 -68h-86v2l130 155h140l130 -155v-2z" />
    <glyph glyph-name="hcircumflex" unicode="&#x125;" horiz-adv-x="624" 
d="M328 390q-28 0 -52.5 -11t-56.5 -38v-341h-152v718l152 40v-333q41 52 81.5 75t92.5 23q79 0 125.5 -53t46.5 -144v-326h-151v295q0 45 -22.5 70t-63.5 25zM341 802h-75l-120 86l-121 -86h-76v2l132 183h128l132 -183v-2z" />
    <glyph glyph-name="Hbar" unicode="&#x126;" horiz-adv-x="859" 
d="M756 0h-161v256h-331v-256h-161v513h-84v95h84v92h161v-94h331v94h161v-92h84v-95h-84v-513zM264 516v-119h331v119h-331z" />
    <glyph glyph-name="hbar" unicode="&#x127;" horiz-adv-x="630" 
d="M334 380q-28 0 -52.5 -11t-56.5 -38v-331h-152v573h-67v80h67v65l152 40v-105h128v-80h-128v-159q41 52 81.5 75t92.5 23q79 0 125.5 -53t46.5 -144v-315h-151v285q0 45 -22.5 70t-63.5 25z" />
    <glyph glyph-name="Itilde" unicode="&#x128;" horiz-adv-x="328" 
d="M244 0h-161v700h161v-700zM183 892q31 -15 43.5 -19.5t21.5 -4.5q15 0 27.5 9.5t48.5 47.5l57 -44q-51 -72 -79 -96t-63 -24q-14 0 -32 6t-55 24q-30 15 -42.5 19.5t-21.5 4.5q-15 0 -27.5 -9t-48.5 -47l-57 44q52 72 80 96t62 24q13 0 31 -6t55 -25z" />
    <glyph glyph-name="itilde" unicode="&#x129;" horiz-adv-x="294" 
d="M222 0h-151v511h151v-511zM159 734q31 -18 43.5 -23t20.5 -5q12 0 23.5 9.5t48.5 56.5l64 -41q-49 -84 -76.5 -111.5t-61.5 -27.5q-12 0 -30 7t-56 29q-31 17 -43.5 22.5t-20.5 5.5q-12 0 -23.5 -9.5t-48.5 -56.5l-64 41q48 83 75.5 110.5t62.5 27.5q12 0 30 -7t56 -28z
" />
    <glyph glyph-name="Imacron" unicode="&#x12a;" horiz-adv-x="328" 
d="M244 0h-161v700h161v-700zM5 786v100h318v-100h-318z" />
    <glyph glyph-name="imacron" unicode="&#x12b;" horiz-adv-x="294" 
d="M222 0h-151v511h151v-511zM-12 618v96h318v-96h-318z" />
    <glyph glyph-name="Ibreve" unicode="&#x12c;" horiz-adv-x="328" 
d="M244 0h-161v700h161v-700zM164 761q-64 0 -115.5 31.5t-90.5 94.5l54 48q43 -38 77.5 -53.5t74.5 -15.5t74.5 15.5t77.5 53.5l54 -48q-39 -63 -90.5 -94.5t-115.5 -31.5z" />
    <glyph glyph-name="ibreve" unicode="&#x12d;" horiz-adv-x="294" 
d="M222 0h-151v511h151v-511zM147 589q-59 0 -106.5 34t-89.5 107l61 48q36 -43 67 -61.5t68 -18.5q36 0 67.5 18.5t67.5 61.5l61 -47q-42 -74 -90 -108t-106 -34z" />
    <glyph glyph-name="Iogonek" unicode="&#x12e;" horiz-adv-x="328" 
d="M270 -137l-17 -54q-21 -4 -42 -6.5t-40 -2.5q-59 0 -92 21t-33 58q0 19 11 38t44 53l29 30h-47v700h161v-700h-27l-30 -51q-10 -17 -13.5 -26.5t-3.5 -18.5q0 -22 21 -31.5t67 -9.5h12z" />
    <glyph glyph-name="iogonek" unicode="&#x12f;" horiz-adv-x="294" 
d="M147 767q39 0 65.5 -25t26.5 -62t-26.5 -62t-65.5 -25t-65.5 25t-26.5 62t26.5 62t65.5 25zM248 -137l-17 -54q-22 -5 -42.5 -7t-39.5 -2q-58 0 -91 21t-33 58q0 20 11.5 39.5t43.5 51.5l29 30h-38v511h151v-511h-27l-30 -51q-9 -15 -12.5 -25t-3.5 -20q0 -22 20.5 -31.5
t67.5 -9.5h11z" />
    <glyph glyph-name="Idotaccent" unicode="&#x130;" horiz-adv-x="328" 
d="M244 0h-161v700h161v-700zM164 927q36 0 60.5 -24t24.5 -60q0 -35 -24.5 -59t-60.5 -24t-60.5 24t-24.5 59q0 36 24.5 60t60.5 24z" />
    <glyph glyph-name="dotlessi" unicode="&#x131;" horiz-adv-x="294" 
d="M222 0h-151v511h151v-511z" />
    <glyph glyph-name="Jcircumflex" unicode="&#x134;" horiz-adv-x="489" 
d="M154 136q47 0 73.5 28t26.5 78v458h161v-488q0 -103 -60 -162t-163 -59q-41 0 -76.5 9t-67.5 27l-25 157l3 1q36 -26 67 -37.5t61 -11.5zM538 761h-86l-114 68l-114 -68h-86v2l130 155h140l130 -155v-2z" />
    <glyph glyph-name="jcircumflex" unicode="&#x135;" horiz-adv-x="296" 
d="M73 511h151v-505q0 -97 -49.5 -149t-139.5 -52q-18 0 -33.5 2t-27.5 5l-23 107l2 2q9 -3 19 -4.5t21 -1.5q39 0 59.5 21t20.5 62v513zM344 589h-75l-120 86l-121 -86h-76v2l132 183h128l132 -183v-2z" />
    <glyph glyph-name="uni0136" unicode="&#x136;" horiz-adv-x="728" 
d="M726 0h-203l-262 293h-20v-293h-162v700h162v-280h21l261 280h198v-2l-326 -336l331 -360v-2zM488 -140q0 -32 -36.5 -61.5t-111.5 -58.5l-73 29v3q39 20 56 35t17 30q0 14 -17 26t-59 29v4l151 41q38 -15 55.5 -33.5t17.5 -43.5z" />
    <glyph glyph-name="uni0137" unicode="&#x137;" horiz-adv-x="588" 
d="M588 0h-182l-164 210h-23v-210h-152v718l152 40v-451h22l160 204h173v-2l-201 -244l215 -263v-2zM426 -142q0 -32 -36.5 -61.5t-111.5 -58.5l-73 29v3q39 20 56 35t17 30q0 14 -17 26t-59 29v4l151 41q38 -15 55.5 -33.5t17.5 -43.5z" />
    <glyph glyph-name="Lacute" unicode="&#x139;" horiz-adv-x="557" 
d="M522 0h-443v700h162v-555h281v-145zM206 765h-82l82 157h193v-2z" />
    <glyph glyph-name="lacute" unicode="&#x13a;" horiz-adv-x="294" 
d="M222 0h-151v718l151 40v-758zM179 808h-72l85 185h181v-2z" />
    <glyph glyph-name="uni013B" unicode="&#x13b;" horiz-adv-x="557" 
d="M522 0h-443v700h162v-555h281v-145zM413 -145q0 -32 -36.5 -61.5t-111.5 -58.5l-73 29v3q39 20 56 35t17 30q0 14 -17 26t-59 29v4l151 41q38 -15 55.5 -33.5t17.5 -43.5z" />
    <glyph glyph-name="uni013C" unicode="&#x13c;" horiz-adv-x="294" 
d="M222 0h-151v718l151 40v-758zM258 -145q0 -32 -36.5 -61.5t-111.5 -58.5l-73 29v3q39 20 56 35t17 30q0 14 -17 26t-59 29v4l151 41q38 -15 55.5 -33.5t17.5 -43.5z" />
    <glyph glyph-name="Lcaron" unicode="&#x13d;" horiz-adv-x="557" 
d="M522 0h-443v700h162v-555h281v-145zM355 549h-60q11 22 16.5 47t5.5 51q0 27 -5.5 51.5t-16.5 47.5h117q4 -13 6 -25t2 -24q0 -37 -16 -74t-49 -74z" />
    <glyph glyph-name="lcaron" unicode="&#x13e;" horiz-adv-x="294" 
d="M222 0h-151v718l151 40v-758zM328 550h-60q11 22 16.5 47t5.5 51q0 27 -5.5 51.5t-16.5 47.5h117q4 -13 6 -25t2 -24q0 -37 -16 -74t-49 -74z" />
    <glyph glyph-name="Lslash" unicode="&#x141;" horiz-adv-x="581" 
d="M264 145h282v-145h-443v219l-82 -56h-2v138l84 57v342h161v-248l152 104h2v-138l-154 -106v-167z" />
    <glyph glyph-name="lslash" unicode="&#x142;" horiz-adv-x="345" 
d="M333 540v-123l-85 -59v-358h-151v265l-83 -58h-2v123l85 59v329l151 40v-276l83 58h2z" />
    <glyph glyph-name="Nacute" unicode="&#x143;" horiz-adv-x="822" 
d="M238 0h-159v700h156l350 -399l-1 399h159v-703h-103l-404 460zM448 757h-82l82 157h193v-2z" />
    <glyph glyph-name="nacute" unicode="&#x144;" horiz-adv-x="624" 
d="M328 390q-28 0 -52.5 -11t-56.5 -38v-341h-152v499l148 19v-98q41 54 83.5 78.5t94.5 24.5q79 0 125.5 -53t46.5 -144v-326h-151v295q0 45 -22.5 70t-63.5 25zM349 597h-72l85 185h181v-2z" />
    <glyph glyph-name="uni0145" unicode="&#x145;" horiz-adv-x="822" 
d="M238 0h-159v700h156l350 -399l-1 399h159v-703h-103l-404 460zM529 -137q0 -32 -36.5 -61.5t-111.5 -58.5l-73 29v3q39 20 56 35t17 30q0 14 -17 26t-59 29v4l151 41q38 -15 55.5 -33.5t17.5 -43.5z" />
    <glyph glyph-name="uni0146" unicode="&#x146;" horiz-adv-x="624" 
d="M328 390q-28 0 -52.5 -11t-56.5 -38v-341h-152v499l148 19v-98q41 54 83.5 78.5t94.5 24.5q79 0 125.5 -53t46.5 -144v-326h-151v295q0 45 -22.5 70t-63.5 25zM428 -142q0 -32 -36.5 -61.5t-111.5 -58.5l-73 29v3q39 20 56 35t17 30q0 14 -17 26t-59 29v4l151 41
q38 -15 55.5 -33.5t17.5 -43.5z" />
    <glyph glyph-name="Ncaron" unicode="&#x147;" horiz-adv-x="822" 
d="M238 0h-159v700h156l350 -399l-1 399h159v-703h-103l-404 460zM611 912v-2l-130 -155h-140l-130 155v2h86l114 -68l114 68h86z" />
    <glyph glyph-name="ncaron" unicode="&#x148;" horiz-adv-x="624" 
d="M328 390q-28 0 -52.5 -11t-56.5 -38v-341h-152v499l148 19v-98q41 54 83.5 78.5t94.5 24.5q79 0 125.5 -53t46.5 -144v-326h-151v295q0 45 -22.5 70t-63.5 25zM513 782v-2l-132 -183h-128l-132 183v2h75l120 -86l121 86h76z" />
    <glyph glyph-name="Eng" unicode="&#x14a;" horiz-adv-x="822" 
d="M238 0h-159v700h154l351 -417v417h159v-669q0 -122 -62 -187.5t-176 -65.5q-20 0 -40 2.5t-36 6.5l-20 133l2 1q15 -4 31.5 -6t33.5 -2q51 0 79.5 29.5t28.5 84.5v9l-348 411z" />
    <glyph glyph-name="eng" unicode="&#x14b;" horiz-adv-x="624" 
d="M565 326v-330q0 -92 -47.5 -141.5t-132.5 -49.5q-13 0 -26.5 1.5t-26.5 4.5l-25 107l3 2q7 -2 16 -3t16 -1q35 0 53.5 20t18.5 58v301q0 45 -22.5 70t-63.5 25q-28 0 -52.5 -11t-56.5 -38v-341h-152v499l148 19v-98q41 54 83.5 78.5t94.5 24.5q79 0 125.5 -53t46.5 -144z
" />
    <glyph glyph-name="Omacron" unicode="&#x14c;" horiz-adv-x="831" 
d="M414 -14q-160 0 -265.5 104t-105.5 259q0 154 107 259.5t266 105.5t265.5 -104.5t106.5 -258.5q0 -155 -107 -260t-267 -105zM413 568q-87 0 -146 -62.5t-59 -154.5q0 -93 59.5 -156t147.5 -63q87 0 147.5 63t60.5 154q0 92 -61 155.5t-149 63.5zM216 791v100h398v-100
h-398z" />
    <glyph glyph-name="omacron" unicode="&#x14d;" horiz-adv-x="619" 
d="M309 -14q-121 0 -198.5 77.5t-77.5 191.5q0 113 79 191.5t198 78.5q121 0 198.5 -77t77.5 -191q0 -113 -79 -192t-198 -79zM439 257q0 60 -36.5 99.5t-92.5 39.5q-57 0 -93.5 -40t-36.5 -101q0 -60 37 -100t92 -40q56 0 93 40.5t37 101.5zM121 623v96h376v-96h-376z" />
    <glyph glyph-name="Obreve" unicode="&#x14e;" horiz-adv-x="831" 
d="M414 -14q-160 0 -265.5 104t-105.5 259q0 154 107 259.5t266 105.5t265.5 -104.5t106.5 -258.5q0 -155 -107 -260t-267 -105zM413 568q-87 0 -146 -62.5t-59 -154.5q0 -93 59.5 -156t147.5 -63q87 0 147.5 63t60.5 154q0 92 -61 155.5t-149 63.5zM415 766
q-64 0 -115.5 31.5t-90.5 94.5l54 48q43 -38 77.5 -53.5t74.5 -15.5t74.5 15.5t77.5 53.5l54 -48q-39 -63 -90.5 -94.5t-115.5 -31.5z" />
    <glyph glyph-name="obreve" unicode="&#x14f;" horiz-adv-x="619" 
d="M309 -14q-121 0 -198.5 77.5t-77.5 191.5q0 113 79 191.5t198 78.5q121 0 198.5 -77t77.5 -191q0 -113 -79 -192t-198 -79zM439 257q0 60 -36.5 99.5t-92.5 39.5q-57 0 -93.5 -40t-36.5 -101q0 -60 37 -100t92 -40q56 0 93 40.5t37 101.5zM309 594q-59 0 -106.5 34
t-89.5 107l61 48q36 -43 67 -61.5t68 -18.5q36 0 67.5 18.5t67.5 61.5l61 -47q-42 -74 -90 -108t-106 -34z" />
    <glyph glyph-name="Ohungarumlaut" unicode="&#x150;" horiz-adv-x="831" 
d="M414 -14q-160 0 -265.5 104t-105.5 259q0 154 107 259.5t266 105.5t265.5 -104.5t106.5 -258.5q0 -155 -107 -260t-267 -105zM413 568q-87 0 -146 -62.5t-59 -154.5q0 -93 59.5 -156t147.5 -63q87 0 147.5 63t60.5 154q0 92 -61 155.5t-149 63.5zM347 770h-78l82 157h168
v-2zM536 770h-78l86 157h168v-2z" />
    <glyph glyph-name="ohungarumlaut" unicode="&#x151;" horiz-adv-x="619" 
d="M309 -14q-121 0 -198.5 77.5t-77.5 191.5q0 113 79 191.5t198 78.5q121 0 198.5 -77t77.5 -191q0 -113 -79 -192t-198 -79zM439 257q0 60 -36.5 99.5t-92.5 39.5q-57 0 -93.5 -40t-36.5 -101q0 -60 37 -100t92 -40q56 0 93 40.5t37 101.5zM235 602h-68l85 185h164v-2z
M428 602h-68l85 185h164v-2z" />
    <glyph glyph-name="OE" unicode="&#x152;" horiz-adv-x="1026" 
d="M43 348q0 160 110 256t294 96h502l29 -137h-313v-147h259v-124h-259v-155h316l-29 -137h-505q-189 0 -296.5 92.5t-107.5 255.5zM208 350q0 -100 65 -156t180 -56h53v424h-55q-111 0 -177 -57t-66 -155z" />
    <glyph glyph-name="oe" unicode="&#x153;" horiz-adv-x="975" 
d="M718 -11q-67 0 -121 23.5t-89 68.5q-38 -46 -92 -70.5t-118 -24.5q-115 0 -190 77.5t-75 191.5q0 113 77 191.5t193 78.5q64 0 117 -24t90 -70q36 46 86 70t109 24q109 0 172 -73t63 -194q0 -11 -1 -24t-2 -19h-352q12 -51 52 -79t102 -28q45 0 91.5 12.5t96.5 38.5l2 -2
l-41 -128q-45 -22 -84 -31t-86 -9zM695 416q-45 0 -75 -31.5t-36 -83.5h216q-5 53 -33 84t-72 31zM439 257q0 60 -36.5 99.5t-92.5 39.5q-57 0 -93.5 -40t-36.5 -101q0 -60 37 -100t92 -40q56 0 93 40.5t37 101.5z" />
    <glyph glyph-name="Racute" unicode="&#x154;" horiz-adv-x="669" 
d="M682 0h-192l-207 254h-42v-254h-162v700h244q126 0 195.5 -57t69.5 -161q0 -67 -36.5 -119.5t-102.5 -81.5zM428 473q0 44 -31 70.5t-83 26.5h-76v-198h73q53 0 85 27.5t32 73.5zM354 765h-82l82 157h193v-2z" />
    <glyph glyph-name="racute" unicode="&#x155;" horiz-adv-x="446" 
d="M389 361q-41 0 -81 -14.5t-89 -47.5v-299h-152v499l148 19v-133q53 75 90 104.5t78 29.5q8 0 15 -1t18 -3l9 -157q-9 2 -17.5 2.5t-18.5 0.5zM277 597h-72l85 185h181v-2z" />
    <glyph glyph-name="uni0156" unicode="&#x156;" horiz-adv-x="669" 
d="M682 0h-192l-207 254h-42v-254h-162v700h244q126 0 195.5 -57t69.5 -161q0 -67 -36.5 -119.5t-102.5 -81.5zM428 473q0 44 -31 70.5t-83 26.5h-76v-198h73q53 0 85 27.5t32 73.5zM465 -140q0 -32 -36.5 -61.5t-111.5 -58.5l-73 29v3q39 20 56 35t17 30q0 14 -17 26
t-59 29v4l151 41q38 -15 55.5 -33.5t17.5 -43.5z" />
    <glyph glyph-name="uni0157" unicode="&#x157;" horiz-adv-x="446" 
d="M389 361q-41 0 -81 -14.5t-89 -47.5v-299h-152v499l148 19v-133q53 75 90 104.5t78 29.5q8 0 15 -1t18 -3l9 -157q-9 2 -17.5 2.5t-18.5 0.5zM254 -145q0 -32 -36.5 -61.5t-111.5 -58.5l-73 29v3q39 20 56 35t17 30q0 14 -17 26t-59 29v4l151 41q38 -15 55.5 -33.5
t17.5 -43.5z" />
    <glyph glyph-name="Rcaron" unicode="&#x158;" horiz-adv-x="669" 
d="M682 0h-192l-207 254h-42v-254h-162v700h244q126 0 195.5 -57t69.5 -161q0 -67 -36.5 -119.5t-102.5 -81.5zM428 473q0 44 -31 70.5t-83 26.5h-76v-198h73q53 0 85 27.5t32 73.5zM517 920v-2l-130 -155h-140l-130 155v2h86l114 -68l114 68h86z" />
    <glyph glyph-name="rcaron" unicode="&#x159;" horiz-adv-x="446" 
d="M389 361q-41 0 -81 -14.5t-89 -47.5v-299h-152v499l148 19v-133q53 75 90 104.5t78 29.5q8 0 15 -1t18 -3l9 -157q-9 2 -17.5 2.5t-18.5 0.5zM441 782v-2l-132 -183h-128l-132 183v2h75l120 -86l121 86h76z" />
    <glyph glyph-name="Sacute" unicode="&#x15a;" horiz-adv-x="571" 
d="M246 290q-110 42 -153 91t-43 123q0 94 66 151t177 57q57 0 107 -12.5t94 -38.5v-154h-2q-48 32 -102 51t-100 19q-39 0 -61 -16t-22 -44t23.5 -47.5t99.5 -50.5q109 -42 153.5 -91.5t44.5 -125.5q0 -98 -69 -156t-184 -58q-60 0 -116 17t-103 49l-24 173l2 1
q59 -47 125 -76t118 -29q44 0 69 18t25 50q0 29 -25 49t-100 50zM334 770h-82l82 157h193v-2z" />
    <glyph glyph-name="sacute" unicode="&#x15b;" horiz-adv-x="510" 
d="M294 314q103 -26 142 -63t39 -101q0 -72 -60.5 -116.5t-159.5 -44.5q-55 0 -104 13.5t-98 42.5l-20 138l2 1q60 -41 118.5 -62t110.5 -21q32 0 51.5 11.5t19.5 29.5q0 21 -22 33t-90 30q-100 26 -139 62.5t-39 95.5q0 72 58.5 115.5t156.5 43.5q48 0 93 -11t86 -33v-129
h-2q-46 29 -94.5 45.5t-88.5 16.5q-32 0 -50.5 -10.5t-18.5 -27.5q0 -19 21 -30.5t88 -28.5zM293 599h-72l85 185h181v-2z" />
    <glyph glyph-name="Scircumflex" unicode="&#x15c;" horiz-adv-x="571" 
d="M246 290q-110 42 -153 91t-43 123q0 94 66 151t177 57q57 0 107 -12.5t94 -38.5v-154h-2q-48 32 -102 51t-100 19q-39 0 -61 -16t-22 -44t23.5 -47.5t99.5 -50.5q109 -42 153.5 -91.5t44.5 -125.5q0 -98 -69 -156t-184 -58q-60 0 -116 17t-103 49l-24 173l2 1
q59 -47 125 -76t118 -29q44 0 69 18t25 50q0 29 -25 49t-100 50zM496 765h-86l-114 68l-114 -68h-86v2l130 155h140l130 -155v-2z" />
    <glyph glyph-name="scircumflex" unicode="&#x15d;" horiz-adv-x="510" 
d="M294 314q103 -26 142 -63t39 -101q0 -72 -60.5 -116.5t-159.5 -44.5q-55 0 -104 13.5t-98 42.5l-20 138l2 1q60 -41 118.5 -62t110.5 -21q32 0 51.5 11.5t19.5 29.5q0 21 -22 33t-90 30q-100 26 -139 62.5t-39 95.5q0 72 58.5 115.5t156.5 43.5q48 0 93 -11t86 -33v-129
h-2q-46 29 -94.5 45.5t-88.5 16.5q-32 0 -50.5 -10.5t-18.5 -27.5q0 -19 21 -30.5t88 -28.5zM457 592h-75l-120 86l-121 -86h-76v2l132 183h128l132 -183v-2z" />
    <glyph glyph-name="uni015E" unicode="&#x15e;" horiz-adv-x="571" 
d="M397 -127q0 -40 -40.5 -65t-108.5 -25q-24 0 -44.5 2.5t-40.5 8.5l-27 59l3 3q29 -8 50 -11.5t43 -3.5q27 0 41.5 8t14.5 22t-13.5 20.5t-42.5 6.5q-12 0 -24 -0.5t-27 -2.5l-4 4l60 91q-49 4 -95.5 20.5t-85.5 43.5l-24 173l2 1q59 -47 125 -76t118 -29q44 0 69 18
t25 50q0 29 -25 49t-100 50q-110 42 -153 91t-43 123q0 94 66 151t177 57q57 0 107 -12.5t94 -38.5v-154h-2q-48 32 -102 51t-100 19q-39 0 -61 -16t-22 -44t23.5 -47.5t99.5 -50.5q109 -42 153.5 -91.5t44.5 -125.5q0 -87 -56 -143.5t-153 -68.5l-30 -42q54 -3 81 -22
t27 -53z" />
    <glyph glyph-name="uni015F" unicode="&#x15f;" horiz-adv-x="510" 
d="M370 -124q0 -40 -40.5 -65t-108.5 -25q-24 0 -44.5 2.5t-40.5 8.5l-27 59l3 3q29 -8 50 -11.5t43 -3.5q27 0 41.5 8t14.5 22t-13.5 20.5t-42.5 6.5q-12 0 -24 -0.5t-27 -2.5l-4 4l59 89q-41 5 -79.5 18t-76.5 36l-20 138l2 1q60 -41 118.5 -62t110.5 -21q32 0 51.5 11.5
t19.5 29.5q0 21 -22 33t-90 30q-100 26 -139 62.5t-39 95.5q0 72 58.5 115.5t156.5 43.5q48 0 93 -11t86 -33v-129h-2q-46 29 -94.5 45.5t-88.5 16.5q-32 0 -50.5 -10.5t-18.5 -27.5q0 -19 21 -30.5t88 -28.5q103 -26 142 -63t39 -101q0 -65 -50 -108.5t-135 -50.5l-28 -40
q54 -3 81 -21.5t27 -53.5z" />
    <glyph glyph-name="Scaron" unicode="&#x160;" horiz-adv-x="571" 
d="M246 290q-110 42 -153 91t-43 123q0 94 66 151t177 57q57 0 107 -12.5t94 -38.5v-154h-2q-48 32 -102 51t-100 19q-39 0 -61 -16t-22 -44t23.5 -47.5t99.5 -50.5q109 -42 153.5 -91.5t44.5 -125.5q0 -98 -69 -156t-184 -58q-60 0 -116 17t-103 49l-24 173l2 1
q59 -47 125 -76t118 -29q44 0 69 18t25 50q0 29 -25 49t-100 50zM497 925v-2l-130 -155h-140l-130 155v2h86l114 -68l114 68h86z" />
    <glyph glyph-name="scaron" unicode="&#x161;" horiz-adv-x="510" 
d="M294 314q103 -26 142 -63t39 -101q0 -72 -60.5 -116.5t-159.5 -44.5q-55 0 -104 13.5t-98 42.5l-20 138l2 1q60 -41 118.5 -62t110.5 -21q32 0 51.5 11.5t19.5 29.5q0 21 -22 33t-90 30q-100 26 -139 62.5t-39 95.5q0 72 58.5 115.5t156.5 43.5q48 0 93 -11t86 -33v-129
h-2q-46 29 -94.5 45.5t-88.5 16.5q-32 0 -50.5 -10.5t-18.5 -27.5q0 -19 21 -30.5t88 -28.5zM457 784v-2l-132 -183h-128l-132 183v2h75l120 -86l121 86h76z" />
    <glyph glyph-name="uni0162" unicode="&#x162;" horiz-adv-x="727" 
d="M482 -122q0 -40 -40.5 -65t-108.5 -25q-23 0 -44 2.5t-42 8.5l-26 59l3 3q30 -8 50 -11.5t42 -3.5q27 0 41.5 8t14.5 22t-13.5 20.5t-41.5 6.5q-12 0 -24.5 -0.5t-26.5 -2.5l-4 4l63 96h-42v555h-250v145h661v-145h-250v-555h-37l-34 -47q55 -3 82 -22t27 -53z" />
    <glyph glyph-name="uni0163" unicode="&#x163;" horiz-adv-x="470" 
d="M383 -122q0 -40 -40.5 -65t-108.5 -25q-24 0 -44.5 2.5t-40.5 8.5l-27 59l3 3q29 -8 50 -11.5t43 -3.5q27 0 41.5 8t14.5 22t-13.5 20.5t-42.5 6.5q-12 0 -24 -0.5t-27 -2.5l-4 4l60 91q-58 15 -88 63t-30 126v209h-78v118h78v110l149 37v-147h177v-118h-177v-197
q0 -39 19.5 -58.5t57.5 -19.5q24 0 48 9.5t53 30.5l2 -1l-23 -132q-24 -15 -52 -24t-58 -11l-26 -37q54 -3 81 -22t27 -53z" />
    <glyph glyph-name="Tcaron" unicode="&#x164;" horiz-adv-x="727" 
d="M694 700v-145h-250v-555h-161v555h-250v145h661zM564 920v-2l-130 -155h-140l-130 155v2h86l114 -68l114 68h86z" />
    <glyph glyph-name="tcaron" unicode="&#x165;" horiz-adv-x="470" 
d="M434 157l-23 -132q-28 -18 -61.5 -27t-70.5 -9q-85 0 -129.5 49.5t-44.5 145.5v209h-78v118h78v110l149 37v-147h177v-118h-177v-197q0 -39 19.5 -58.5t57.5 -19.5q24 0 48 9.5t53 30.5zM360 566h-60q11 22 16.5 47t5.5 51q0 27 -5.5 51.5t-16.5 47.5h117q4 -13 6 -25
t2 -24q0 -37 -16 -74t-49 -74z" />
    <glyph glyph-name="Tbar" unicode="&#x166;" horiz-adv-x="727" 
d="M588 368v-108h-144v-260h-161v260h-144v108h144v187h-250v145h661v-145h-250v-187h144z" />
    <glyph glyph-name="tbar" unicode="&#x167;" horiz-adv-x="470" 
d="M434 147l-23 -123q-29 -17 -62.5 -26t-69.5 -9q-85 0 -129.5 49.5t-44.5 144.5v49h-74v79h74v88h-78v112h78v109l149 37v-146h177v-112h-177v-88h142v-79h-142v-43q0 -38 20 -58t58 -20q25 0 49.5 9.5t50.5 28.5z" />
    <glyph glyph-name="Utilde" unicode="&#x168;" horiz-adv-x="787" 
d="M393 -13q-153 0 -237 86t-84 243v384h161v-387q0 -86 42.5 -133.5t119.5 -47.5t119.5 47.5t42.5 135.5v385h158v-384q0 -157 -84 -243t-238 -86zM412 892q31 -15 43.5 -19.5t21.5 -4.5q15 0 27.5 9.5t48.5 47.5l57 -44q-51 -72 -79 -96t-63 -24q-14 0 -32 6t-55 24
q-30 15 -42.5 19.5t-21.5 4.5q-15 0 -27.5 -9t-48.5 -47l-57 44q52 72 80 96t62 24q13 0 31 -6t55 -25z" />
    <glyph glyph-name="utilde" unicode="&#x169;" horiz-adv-x="624" 
d="M557 0h-147v92q-41 -54 -83 -78.5t-96 -24.5q-79 0 -125.5 53t-46.5 144v325h152v-294q0 -46 22 -71t63 -25q28 0 53 11.5t57 38.5v340h151v-511zM321 734q31 -18 43.5 -23t20.5 -5q12 0 23.5 9.5t48.5 56.5l64 -41q-49 -84 -76.5 -111.5t-61.5 -27.5q-12 0 -30 7t-56 29
q-31 17 -43.5 22.5t-20.5 5.5q-12 0 -23.5 -9.5t-48.5 -56.5l-64 41q48 83 75.5 110.5t62.5 27.5q12 0 30 -7t56 -28z" />
    <glyph glyph-name="Umacron" unicode="&#x16a;" horiz-adv-x="787" 
d="M393 -13q-153 0 -237 86t-84 243v384h161v-387q0 -86 42.5 -133.5t119.5 -47.5t119.5 47.5t42.5 135.5v385h158v-384q0 -157 -84 -243t-238 -86zM194 786v100h398v-100h-398z" />
    <glyph glyph-name="umacron" unicode="&#x16b;" horiz-adv-x="624" 
d="M557 0h-147v92q-41 -54 -83 -78.5t-96 -24.5q-79 0 -125.5 53t-46.5 144v325h152v-294q0 -46 22 -71t63 -25q28 0 53 11.5t57 38.5v340h151v-511zM121 618v96h376v-96h-376z" />
    <glyph glyph-name="Ubreve" unicode="&#x16c;" horiz-adv-x="787" 
d="M393 -13q-153 0 -237 86t-84 243v384h161v-387q0 -86 42.5 -133.5t119.5 -47.5t119.5 47.5t42.5 135.5v385h158v-384q0 -157 -84 -243t-238 -86zM393 753q-64 0 -115.5 31.5t-90.5 94.5l54 48q43 -38 77.5 -53.5t74.5 -15.5t74.5 15.5t77.5 53.5l54 -48
q-39 -63 -90.5 -94.5t-115.5 -31.5z" />
    <glyph glyph-name="ubreve" unicode="&#x16d;" horiz-adv-x="624" 
d="M557 0h-147v92q-41 -54 -83 -78.5t-96 -24.5q-79 0 -125.5 53t-46.5 144v325h152v-294q0 -46 22 -71t63 -25q28 0 53 11.5t57 38.5v340h151v-511zM309 586q-59 0 -106.5 34t-89.5 107l61 48q36 -43 67 -61.5t68 -18.5q36 0 67.5 18.5t67.5 61.5l61 -47q-42 -74 -90 -108
t-106 -34z" />
    <glyph glyph-name="Uring" unicode="&#x16e;" horiz-adv-x="787" 
d="M393 -13q-153 0 -237 86t-84 243v384h161v-387q0 -86 42.5 -133.5t119.5 -47.5t119.5 47.5t42.5 135.5v385h158v-384q0 -157 -84 -243t-238 -86zM393 752q-57 0 -97 38.5t-40 92.5t40 92t97 38t97 -38t40 -92t-40 -92.5t-97 -38.5zM471 883q0 32 -22.5 54t-55.5 22
t-55.5 -22t-22.5 -54t22.5 -54t55.5 -22t55.5 22t22.5 54z" />
    <glyph glyph-name="uring" unicode="&#x16f;" horiz-adv-x="624" 
d="M557 0h-147v92q-41 -54 -83 -78.5t-96 -24.5q-79 0 -125.5 53t-46.5 144v325h152v-294q0 -46 22 -71t63 -25q28 0 53 11.5t57 38.5v340h151v-511zM309 584q-55 0 -93.5 38t-38.5 92t38.5 92.5t93.5 38.5t93.5 -38.5t38.5 -92.5t-38.5 -92t-93.5 -38zM382 714
q0 32 -21 54.5t-52 22.5t-52 -22.5t-21 -54.5t21 -54t52 -22t52 22t21 54z" />
    <glyph glyph-name="Uhungarumlaut" unicode="&#x170;" horiz-adv-x="787" 
d="M393 -13q-153 0 -237 86t-84 243v384h161v-387q0 -86 42.5 -133.5t119.5 -47.5t119.5 47.5t42.5 135.5v385h158v-384q0 -157 -84 -243t-238 -86zM325 765h-78l82 157h168v-2zM514 765h-78l86 157h168v-2z" />
    <glyph glyph-name="uhungarumlaut" unicode="&#x171;" horiz-adv-x="624" 
d="M557 0h-147v92q-41 -54 -83 -78.5t-96 -24.5q-79 0 -125.5 53t-46.5 144v325h152v-294q0 -46 22 -71t63 -25q28 0 53 11.5t57 38.5v340h151v-511zM235 597h-68l85 185h164v-2zM428 597h-68l85 185h164v-2z" />
    <glyph glyph-name="Uogonek" unicode="&#x172;" horiz-adv-x="787" 
d="M502 -142l-17 -54q-22 -5 -42.5 -7t-39.5 -2q-59 0 -92 21t-33 58q0 19 11.5 38.5t44.5 52.5l22 23q-136 11 -210 96t-74 232v384h161v-387q0 -86 42.5 -133.5t119.5 -47.5t119.5 47.5t42.5 135.5v385h158v-384q0 -143 -69.5 -227.5t-199.5 -98.5l-27 -46
q-9 -15 -12.5 -25t-3.5 -20q0 -22 20.5 -31.5t66.5 -9.5h12z" />
    <glyph glyph-name="uogonek" unicode="&#x173;" horiz-adv-x="624" 
d="M571 -137l-17 -54q-21 -4 -42 -6.5t-40 -2.5q-59 0 -92 21t-33 58q0 19 11 38t44 53l29 30h-21v92q-41 -54 -83 -78.5t-96 -24.5q-79 0 -125.5 53t-46.5 144v325h152v-294q0 -46 22 -71t63 -25q28 0 53 11.5t57 38.5v340h151v-511h-39l-30 -51q-10 -17 -13.5 -26.5
t-3.5 -18.5q0 -22 21 -31.5t67 -9.5h12z" />
    <glyph glyph-name="Wcircumflex" unicode="&#x174;" horiz-adv-x="1154" 
d="M959 700h168l-231 -704h-152l-168 381l-172 -381h-152l-224 704h174l143 -489l227 498h16l223 -499zM783 765h-86l-114 68l-114 -68h-86v2l130 155h140l130 -155v-2z" />
    <glyph glyph-name="wcircumflex" unicode="&#x175;" horiz-adv-x="887" 
d="M718 511h154l-184 -517h-125l-121 254l-126 -254h-126l-174 517h159l98 -323l166 330h15l159 -330zM645 597h-75l-120 86l-121 -86h-76v2l132 183h128l132 -183v-2z" />
    <glyph glyph-name="Ycircumflex" unicode="&#x176;" horiz-adv-x="704" 
d="M520 700h180l-267 -412v-288h-161v287l-267 413h187l164 -268zM552 765h-86l-114 68l-114 -68h-86v2l130 155h140l130 -155v-2z" />
    <glyph glyph-name="ycircumflex" unicode="&#x177;" horiz-adv-x="592" 
d="M579 511l-206 -519q-36 -95 -92.5 -141t-136.5 -46q-24 0 -45.5 4t-42.5 13l-29 139l2 1q22 -11 42.5 -16.5t42.5 -5.5q42 0 68 19t44 61v1l-213 490h164l126 -321l115 321h161zM495 597h-75l-120 86l-121 -86h-76v2l132 183h128l132 -183v-2z" />
    <glyph glyph-name="Ydieresis" unicode="&#x178;" horiz-adv-x="704" 
d="M520 700h180l-267 -412v-288h-161v287l-267 413h187l164 -268zM239 928q36 0 60.5 -24t24.5 -59q0 -36 -24.5 -60t-60.5 -24t-61 24t-25 60q0 35 25 59t61 24zM465 928q36 0 61 -24t25 -59q0 -36 -25 -60t-61 -24t-60.5 24t-24.5 60q0 35 24.5 59t60.5 24z" />
    <glyph glyph-name="Zacute" unicode="&#x179;" horiz-adv-x="714" 
d="M293 141h390l-52 -141h-600l-7 14l384 545h-349v141h612l7 -14zM395 765h-82l82 157h193v-2z" />
    <glyph glyph-name="zacute" unicode="&#x17a;" horiz-adv-x="552" 
d="M256 119h269l-35 -119h-465l-5 14l265 379h-230v118h461l5 -13zM318 597h-72l85 185h181v-2z" />
    <glyph glyph-name="Zdotaccent" unicode="&#x17b;" horiz-adv-x="714" 
d="M293 141h390l-52 -141h-600l-7 14l384 545h-349v141h612l7 -14zM358 927q36 0 60.5 -24t24.5 -60q0 -35 -24.5 -59t-60.5 -24t-60.5 24t-24.5 59q0 36 24.5 60t60.5 24z" />
    <glyph glyph-name="zdotaccent" unicode="&#x17c;" horiz-adv-x="552" 
d="M256 119h269l-35 -119h-465l-5 14l265 379h-230v118h461l5 -13zM286 591q-35 0 -59 23.5t-24 58.5q0 34 24 57.5t59 23.5t59 -23.5t24 -57.5q0 -35 -24 -58.5t-59 -23.5z" />
    <glyph glyph-name="Zcaron" unicode="&#x17d;" horiz-adv-x="714" 
d="M293 141h390l-52 -141h-600l-7 14l384 545h-349v141h612l7 -14zM558 920v-2l-130 -155h-140l-130 155v2h86l114 -68l114 68h86z" />
    <glyph glyph-name="zcaron" unicode="&#x17e;" horiz-adv-x="552" 
d="M256 119h269l-35 -119h-465l-5 14l265 379h-230v118h461l5 -13zM482 782v-2l-132 -183h-128l-132 183v2h75l120 -86l121 86h76z" />
    <glyph glyph-name="uni018F" unicode="&#x18f;" horiz-adv-x="770" 
d="M364 711q166 0 264.5 -97.5t98.5 -263.5q0 -159 -99.5 -261.5t-255.5 -102.5q-150 0 -241 99.5t-91 265.5v54h519q-14 79 -69.5 122t-143.5 43q-63 0 -128 -20.5t-131 -60.5l-3 2l30 157q60 32 121.5 47.5t128.5 15.5zM375 122q72 0 122.5 47t62.5 123h-360
q8 -79 55 -124.5t120 -45.5z" />
    <glyph glyph-name="Ohorn" unicode="&#x1a0;" horiz-adv-x="831" 
d="M660 617q62 -49 95 -119t33 -151q0 -153 -107 -257t-267 -104q-159 0 -265 104t-106 257q0 154 107 257.5t270 103.5q17 0 34.5 -1t49.5 -3q27 -3 41 -3.5t26 -0.5q55 0 81 21t26 66q0 8 -1 21.5t-4 32.5h115q4 -15 6.5 -32t2.5 -34q0 -63 -34.5 -103t-102.5 -55z
M413 565q-87 0 -146 -62t-59 -153q0 -92 59.5 -155t147.5 -63q87 0 147.5 62.5t60.5 153.5t-60.5 154t-149.5 63z" />
    <glyph glyph-name="ohorn" unicode="&#x1a1;" horiz-adv-x="619" 
d="M500 443q42 -37 64 -86.5t22 -105.5q0 -110 -79 -187.5t-198 -77.5q-121 0 -198.5 77t-77.5 189q0 114 79.5 190.5t203.5 76.5q10 0 21 -0.5t31 -2.5q20 -1 30.5 -1.5t19.5 -0.5q43 0 63 16t20 50q0 10 -1 20t-4 27h101q4 -13 6.5 -28t2.5 -30q0 -49 -27 -81.5t-79 -44.5
zM439 255q0 60 -36.5 98.5t-92.5 38.5q-57 0 -93.5 -39t-36.5 -99t36.5 -99.5t92.5 -39.5q57 0 93.5 40t36.5 100z" />
    <glyph glyph-name="Uhorn" unicode="&#x1af;" horiz-adv-x="825" 
d="M395 132q77 0 119.5 47.5t42.5 135.5v385h63q55 0 80.5 21t25.5 66q0 13 -0.5 24t-3.5 30h115q4 -15 6.5 -32t2.5 -34q0 -62 -33 -101t-98 -56v-302q0 -157 -84 -243t-238 -86q-153 0 -237 86t-84 243v384h161v-387q0 -86 42.5 -133.5t119.5 -47.5z" />
    <glyph glyph-name="uhorn" unicode="&#x1b0;" horiz-adv-x="646" 
d="M296 121q28 0 53 11.5t57 38.5v340h66q48 0 69.5 15t21.5 48q0 12 -2.5 27.5l-2.5 15.5h102q4 -12 6 -25.5t2 -27.5q0 -50 -28 -81.5t-83 -43.5v-439h-147v92q-41 -54 -83 -78.5t-96 -24.5q-79 0 -125.5 53t-46.5 144v325h152v-294q0 -46 22 -71t63 -25z" />
    <glyph glyph-name="uni01CD" unicode="&#x1cd;" horiz-adv-x="813" 
d="M184 0h-167l307 702h171l300 -702h-173l-58 144h-320zM406 538l-112 -265h220zM608 920v-2l-130 -155h-140l-130 155v2h86l114 -68l114 68h86z" />
    <glyph glyph-name="uni01CE" unicode="&#x1ce;" horiz-adv-x="576" 
d="M520 12l-146 -19v77q-50 -40 -95.5 -59.5t-90.5 -19.5q-67 0 -108 37.5t-41 100.5q0 84 82 125.5t249 44.5q-3 49 -29 74t-75 25q-40 0 -84 -16.5t-90 -48.5l-3 2l23 137q42 25 88 37t98 12q109 0 165.5 -58t56.5 -169v-282zM177 144q0 -23 16 -36t45 -13q26 0 58.5 10.5
t73.5 31.5v91q-98 -7 -145.5 -27t-47.5 -57zM499 782v-2l-132 -183h-128l-132 183v2h75l120 -86l121 86h76z" />
    <glyph glyph-name="uni01CF" unicode="&#x1cf;" horiz-adv-x="328" 
d="M244 0h-161v700h161v-700zM364 920v-2l-130 -155h-140l-130 155v2h86l114 -68l114 68h86z" />
    <glyph glyph-name="uni01D0" unicode="&#x1d0;" horiz-adv-x="294" 
d="M222 0h-151v511h151v-511zM343 782v-2l-132 -183h-128l-132 183v2h75l120 -86l121 86h76z" />
    <glyph glyph-name="uni01D1" unicode="&#x1d1;" horiz-adv-x="831" 
d="M414 -14q-160 0 -265.5 104t-105.5 259q0 154 107 259.5t266 105.5t265.5 -104.5t106.5 -258.5q0 -155 -107 -260t-267 -105zM413 568q-87 0 -146 -62.5t-59 -154.5q0 -93 59.5 -156t147.5 -63q87 0 147.5 63t60.5 154q0 92 -61 155.5t-149 63.5zM615 925v-2l-130 -155
h-140l-130 155v2h86l114 -68l114 68h86z" />
    <glyph glyph-name="uni01D2" unicode="&#x1d2;" horiz-adv-x="619" 
d="M309 -14q-121 0 -198.5 77.5t-77.5 191.5q0 113 79 191.5t198 78.5q121 0 198.5 -77t77.5 -191q0 -113 -79 -192t-198 -79zM439 257q0 60 -36.5 99.5t-92.5 39.5q-57 0 -93.5 -40t-36.5 -101q0 -60 37 -100t92 -40q56 0 93 40.5t37 101.5zM505 787v-2l-132 -183h-128
l-132 183v2h75l120 -86l121 86h76z" />
    <glyph glyph-name="uni01D3" unicode="&#x1d3;" horiz-adv-x="787" 
d="M393 -13q-153 0 -237 86t-84 243v384h161v-387q0 -86 42.5 -133.5t119.5 -47.5t119.5 47.5t42.5 135.5v385h158v-384q0 -157 -84 -243t-238 -86zM593 912v-2l-130 -155h-140l-130 155v2h86l114 -68l114 68h86z" />
    <glyph glyph-name="uni01D4" unicode="&#x1d4;" horiz-adv-x="624" 
d="M557 0h-147v92q-41 -54 -83 -78.5t-96 -24.5q-79 0 -125.5 53t-46.5 144v325h152v-294q0 -46 22 -71t63 -25q28 0 53 11.5t57 38.5v340h151v-511zM505 779v-2l-132 -183h-128l-132 183v2h75l120 -86l121 86h76z" />
    <glyph glyph-name="uni01D5" unicode="&#x1d5;" horiz-adv-x="787" 
d="M393 -13q-153 0 -237 86t-84 243v384h161v-387q0 -86 42.5 -133.5t119.5 -47.5t119.5 47.5t42.5 135.5v385h158v-384q0 -157 -84 -243t-238 -86zM206 968v90h374v-90h-374zM279 924q37 0 61.5 -23t24.5 -58t-24.5 -58.5t-61.5 -23.5q-36 0 -60.5 23.5t-24.5 58.5
q0 34 24.5 57.5t60.5 23.5zM507 924q36 0 60.5 -23.5t24.5 -57.5q0 -35 -24.5 -58.5t-60.5 -23.5q-37 0 -61.5 23.5t-24.5 58.5t24.5 58t61.5 23z" />
    <glyph glyph-name="uni01D6" unicode="&#x1d6;" horiz-adv-x="624" 
d="M557 0h-147v92q-41 -54 -83 -78.5t-96 -24.5q-79 0 -125.5 53t-46.5 144v325h152v-294q0 -46 22 -71t63 -25q28 0 53 11.5t57 38.5v340h151v-511zM497 806h-376v86h376v-86zM196 593q-35 0 -59.5 23.5t-24.5 56.5t24.5 56.5t59.5 23.5t59.5 -23.5t24.5 -56.5t-24.5 -56.5
t-59.5 -23.5zM422 593q-35 0 -59.5 23.5t-24.5 56.5t24.5 56.5t59.5 23.5t59.5 -23.5t24.5 -56.5t-24.5 -56.5t-59.5 -23.5z" />
    <glyph glyph-name="uni01D7" unicode="&#x1d7;" horiz-adv-x="787" 
d="M393 -13q-153 0 -237 86t-84 243v384h161v-387q0 -86 42.5 -133.5t119.5 -47.5t119.5 47.5t42.5 135.5v385h158v-384q0 -157 -84 -243t-238 -86zM424 948h-77l61 142h179v-2zM279 761q-36 0 -60.5 23.5t-24.5 58.5q0 34 24.5 57.5t60.5 23.5q37 0 61.5 -23t24.5 -58
t-24.5 -58.5t-61.5 -23.5zM507 761q-37 0 -61.5 23.5t-24.5 58.5t24.5 58t61.5 23q36 0 60.5 -23.5t24.5 -57.5q0 -35 -24.5 -58.5t-60.5 -23.5z" />
    <glyph glyph-name="uni01D8" unicode="&#x1d8;" horiz-adv-x="624" 
d="M557 0h-147v92q-41 -54 -83 -78.5t-96 -24.5q-79 0 -125.5 53t-46.5 144v325h152v-294q0 -46 22 -71t63 -25q28 0 53 11.5t57 38.5v340h151v-511zM340 781h-67l59 146h164v-2zM196 593q-35 0 -59.5 23.5t-24.5 56.5t24.5 56.5t59.5 23.5t59.5 -23.5t24.5 -56.5
t-24.5 -56.5t-59.5 -23.5zM422 593q-35 0 -59.5 23.5t-24.5 56.5t24.5 56.5t59.5 23.5t59.5 -23.5t24.5 -56.5t-24.5 -56.5t-59.5 -23.5z" />
    <glyph glyph-name="uni01D9" unicode="&#x1d9;" horiz-adv-x="787" 
d="M393 -13q-153 0 -237 86t-84 243v384h161v-387q0 -86 42.5 -133.5t119.5 -47.5t119.5 47.5t42.5 135.5v385h158v-384q0 -157 -84 -243t-238 -86zM587 1090v-2l-137 -140h-114l-137 140v2h85l109 -56l108 56h86zM279 924q37 0 61.5 -23t24.5 -58t-24.5 -58.5t-61.5 -23.5
q-36 0 -60.5 23.5t-24.5 58.5q0 34 24.5 57.5t60.5 23.5zM507 924q36 0 60.5 -23.5t24.5 -57.5q0 -35 -24.5 -58.5t-60.5 -23.5q-37 0 -61.5 23.5t-24.5 58.5t24.5 58t61.5 23z" />
    <glyph glyph-name="uni01DA" unicode="&#x1da;" horiz-adv-x="624" 
d="M557 0h-147v92q-41 -54 -83 -78.5t-96 -24.5q-79 0 -125.5 53t-46.5 144v325h152v-294q0 -46 22 -71t63 -25q28 0 53 11.5t57 38.5v340h151v-511zM497 931v-2l-133 -145h-110l-133 145v2h81l106 -61l106 61h83zM196 593q-35 0 -59.5 23.5t-24.5 56.5t24.5 56.5t59.5 23.5
t59.5 -23.5t24.5 -56.5t-24.5 -56.5t-59.5 -23.5zM422 593q-35 0 -59.5 23.5t-24.5 56.5t24.5 56.5t59.5 23.5t59.5 -23.5t24.5 -56.5t-24.5 -56.5t-59.5 -23.5z" />
    <glyph glyph-name="uni01DB" unicode="&#x1db;" horiz-adv-x="787" 
d="M393 -13q-153 0 -237 86t-84 243v384h161v-387q0 -86 42.5 -133.5t119.5 -47.5t119.5 47.5t42.5 135.5v385h158v-384q0 -157 -84 -243t-238 -86zM378 1090l61 -142h-77l-163 140v2h179zM507 924q36 0 60.5 -23.5t24.5 -57.5q0 -35 -24.5 -58.5t-60.5 -23.5
q-37 0 -61.5 23.5t-24.5 58.5t24.5 58t61.5 23zM279 924q37 0 61.5 -23t24.5 -58t-24.5 -58.5t-61.5 -23.5q-36 0 -60.5 23.5t-24.5 58.5q0 34 24.5 57.5t60.5 23.5z" />
    <glyph glyph-name="uni01DC" unicode="&#x1dc;" horiz-adv-x="624" 
d="M557 0h-147v92q-41 -54 -83 -78.5t-96 -24.5q-79 0 -125.5 53t-46.5 144v325h152v-294q0 -46 22 -71t63 -25q28 0 53 11.5t57 38.5v340h151v-511zM286 927l59 -146h-67l-156 144v2h164zM196 753q35 0 59.5 -23.5t24.5 -56.5t-24.5 -56.5t-59.5 -23.5t-59.5 23.5
t-24.5 56.5t24.5 56.5t59.5 23.5zM422 753q35 0 59.5 -23.5t24.5 -56.5t-24.5 -56.5t-59.5 -23.5t-59.5 23.5t-24.5 56.5t24.5 56.5t59.5 23.5z" />
    <glyph glyph-name="Gcaron" unicode="&#x1e6;" horiz-adv-x="776" 
d="M702 383v-315q-73 -40 -145 -59t-148 -19q-164 0 -265 97t-101 257q0 163 110.5 264.5t286.5 101.5q68 0 127 -13t117 -41v-159h-3q-67 35 -123 51t-112 16q-103 0 -170 -61t-67 -156q0 -99 61 -158t163 -59q33 0 62 5t58 15v118h-157v115h306zM614 925v-2l-130 -155
h-140l-130 155v2h86l114 -68l114 68h86z" />
    <glyph glyph-name="gcaron" unicode="&#x1e7;" horiz-adv-x="635" 
d="M568 513v-439q0 -126 -76 -197.5t-209 -71.5q-54 0 -103 11t-100 35l-24 139l2 1q63 -33 112 -47t101 -14q69 0 108 35t39 99v32q-38 -36 -78 -52.5t-87 -16.5q-95 0 -157 65.5t-62 167.5q0 115 79.5 187t200.5 72q36 0 71.5 -6.5t74.5 -20.5l96 21h12zM322 396
q-61 0 -101 -37t-40 -95q0 -55 34 -88.5t88 -33.5q29 0 56.5 9t58.5 29v199q-26 9 -49 13t-47 4zM519 782v-2l-132 -183h-128l-132 183v2h75l120 -86l121 86h76z" />
    <glyph glyph-name="uni01EA" unicode="&#x1ea;" horiz-adv-x="831" 
d="M524 -142l-17 -54q-21 -4 -42 -6.5t-40 -2.5q-59 0 -92 21t-33 58q0 19 11 38t44 53l22 23q-146 13 -240 115t-94 246q0 154 107 259.5t266 105.5t265.5 -104.5t106.5 -258.5q0 -140 -90 -241.5t-230 -120.5l-27 -45q-10 -17 -13.5 -26.5t-3.5 -18.5q0 -22 21 -31.5
t67 -9.5h12zM413 568q-87 0 -146 -62.5t-59 -154.5q0 -93 59.5 -156t147.5 -63q87 0 147.5 63t60.5 154q0 92 -61 155.5t-149 63.5z" />
    <glyph glyph-name="uni01EB" unicode="&#x1eb;" horiz-adv-x="619" 
d="M418 -142l-17 -54q-21 -4 -42 -6.5t-40 -2.5q-59 0 -92 21t-33 58q0 19 11 38t44 53l23 23q-106 12 -172.5 87.5t-66.5 179.5q0 113 79 191.5t198 78.5q121 0 198.5 -77t77.5 -191q0 -99 -62.5 -174t-161.5 -92l-27 -47q-10 -17 -13.5 -26.5t-3.5 -18.5q0 -22 21 -31.5
t67 -9.5h12zM439 257q0 60 -36.5 99.5t-92.5 39.5q-57 0 -93.5 -40t-36.5 -101q0 -60 37 -100t92 -40q56 0 93 40.5t37 101.5z" />
    <glyph glyph-name="uni01F0" unicode="&#x1f0;" horiz-adv-x="296" 
d="M73 511h151v-505q0 -97 -49.5 -149t-139.5 -52q-18 0 -33.5 2t-27.5 5l-23 107l2 2q9 -3 19 -4.5t21 -1.5q39 0 59.5 21t20.5 62v513zM344 782v-2l-132 -183h-128l-132 183v2h75l120 -86l121 86h76z" />
    <glyph glyph-name="uni01F8" unicode="&#x1f8;" horiz-adv-x="822" 
d="M238 0h-159v700h156l350 -399l-1 399h159v-703h-103l-404 460zM374 914l82 -157h-82l-193 155v2h193z" />
    <glyph glyph-name="uni01F9" unicode="&#x1f9;" horiz-adv-x="624" 
d="M328 390q-28 0 -52.5 -11t-56.5 -38v-341h-152v499l148 19v-98q41 54 83.5 78.5t94.5 24.5q79 0 125.5 -53t46.5 -144v-326h-151v295q0 45 -22.5 70t-63.5 25zM272 782l85 -185h-72l-194 183v2h181z" />
    <glyph glyph-name="Aringacute" unicode="&#x1fa;" horiz-adv-x="813" 
d="M795 0h-173l-58 144h-320l-60 -144h-167l288 661q-16 17 -24.5 39t-8.5 46q0 54 40 92.5t97 38.5t97 -38.5t40 -92.5q0 -24 -8.5 -46t-24.5 -39zM487 746q0 32 -22.5 54t-55.5 22t-55.5 -22t-22.5 -54t22.5 -54t55.5 -22t55.5 22t22.5 54zM406 539l-112 -266h220z
M441 913h-82l82 157h193v-2z" />
    <glyph glyph-name="aringacute" unicode="&#x1fb;" horiz-adv-x="576" 
d="M520 12l-146 -19v77q-50 -40 -95.5 -59.5t-90.5 -19.5q-67 0 -108 37.5t-41 100.5q0 84 82 125.5t249 44.5q-3 49 -29 74t-75 25q-40 0 -84 -16.5t-90 -48.5l-3 2l23 137q42 25 88 37t98 12q109 0 165.5 -58t56.5 -169v-282zM177 144q0 -23 16 -36t45 -13q26 0 58.5 10.5
t73.5 31.5v91q-98 -7 -145.5 -27t-47.5 -57zM336 879h-59l57 122h137v-2zM303 587q-55 0 -93.5 38t-38.5 92t38.5 92.5t93.5 38.5t93.5 -38.5t38.5 -92.5t-38.5 -92t-93.5 -38zM376 717q0 32 -21 54.5t-52 22.5t-52 -22.5t-21 -54.5t21 -54t52 -22t52 22t21 54z" />
    <glyph glyph-name="AEacute" unicode="&#x1fc;" horiz-adv-x="1036" 
d="M167 0h-165l427 700h530l28 -137h-312v-147h259v-124h-259v-155h315l-28 -137h-447v144h-259zM513 568l-179 -295h181v295h-2zM664 765h-82l82 157h193v-2z" />
    <glyph glyph-name="aeacute" unicode="&#x1fd;" horiz-adv-x="906" 
d="M860 157l-41 -128q-46 -22 -86.5 -31t-89.5 -9q-68 0 -123.5 24t-91.5 70q-63 -48 -119.5 -70t-114.5 -22q-71 0 -113 37t-42 101q0 84 82 125.5t249 44.5q-3 49 -29 74t-75 25q-40 0 -84 -16.5t-90 -48.5l-3 2l23 137q42 25 87 37t96 12q54 0 95 -16.5t69 -48.5
q34 34 78.5 51.5t94.5 17.5q111 0 175 -73.5t64 -193.5q0 -11 -1 -24t-2 -19h-356q12 -51 53.5 -79t104.5 -28q45 0 91.5 12.5t96.5 38.5zM626 416q-45 0 -75 -31.5t-36 -83.5h216q-5 53 -33 84t-72 31zM373 228q-100 -7 -148 -27t-48 -57q0 -23 16.5 -36t44.5 -13
q30 0 67 14t84 43q-7 19 -11 38t-5 38zM496 597h-72l85 185h181v-2z" />
    <glyph glyph-name="Oslashacute" unicode="&#x1fe;" horiz-adv-x="831" 
d="M788 351q0 -155 -107 -260t-267 -105q-52 0 -101 13t-93 38l-67 -80h-131l118 143q-47 50 -72 114.5t-25 134.5q0 154 107 259.5t266 105.5q52 0 101.5 -13t92.5 -38l67 80h132l-119 -144q47 -50 72.5 -113.5t25.5 -134.5zM418 573q-92 0 -154 -65t-62 -162
q0 -37 10 -70.5t29 -61.5l274 337q-23 11 -47 16.5t-50 5.5zM413 127q92 0 154 65t62 162q0 37 -10 70.5t-29 61.5l-275 -337q23 -11 47.5 -16.5t50.5 -5.5zM452 770h-82l82 157h193v-2z" />
    <glyph glyph-name="oslashacute" unicode="&#x1ff;" horiz-adv-x="619" 
d="M586 257q0 -113 -79 -192t-198 -79q-38 0 -72.5 8.5t-64.5 24.5l-46 -58h-112l90 111q-34 37 -52.5 84.5t-18.5 98.5q0 113 79 191.5t198 78.5q38 0 72.5 -8.5t64.5 -24.5l45 58h113l-90 -110q34 -37 52.5 -84.5t18.5 -98.5zM313 401q-62 0 -100.5 -42t-38.5 -108
q0 -21 5 -40.5t16 -38.5l172 218q-12 5 -26 8t-28 3zM305 110q62 0 101 42.5t39 108.5q0 21 -5.5 41t-15.5 37l-172 -217q12 -6 25.5 -9t27.5 -3zM341 602h-72l85 185h181v-2z" />
    <glyph glyph-name="uni0218" unicode="&#x218;" horiz-adv-x="571" 
d="M246 290q-110 42 -153 91t-43 123q0 94 66 151t177 57q57 0 107 -12.5t94 -38.5v-154h-2q-48 32 -102 51t-100 19q-39 0 -61 -16t-22 -44t23.5 -47.5t99.5 -50.5q109 -42 153.5 -91.5t44.5 -125.5q0 -98 -69 -156t-184 -58q-60 0 -116 17t-103 49l-24 173l2 1
q59 -47 125 -76t118 -29q44 0 69 18t25 50q0 29 -25 49t-100 50zM386 -150q0 -32 -36.5 -61.5t-111.5 -58.5l-73 29v3q39 20 56 35t17 30q0 14 -17 26t-59 29v4l151 41q38 -15 55.5 -33.5t17.5 -43.5z" />
    <glyph glyph-name="uni0219" unicode="&#x219;" horiz-adv-x="510" 
d="M294 314q103 -26 142 -63t39 -101q0 -72 -60.5 -116.5t-159.5 -44.5q-55 0 -104 13.5t-98 42.5l-20 138l2 1q60 -41 118.5 -62t110.5 -21q32 0 51.5 11.5t19.5 29.5q0 21 -22 33t-90 30q-100 26 -139 62.5t-39 95.5q0 72 58.5 115.5t156.5 43.5q48 0 93 -11t86 -33v-129
h-2q-46 29 -94.5 45.5t-88.5 16.5q-32 0 -50.5 -10.5t-18.5 -27.5q0 -19 21 -30.5t88 -28.5zM359 -147q0 -32 -36.5 -61.5t-111.5 -58.5l-73 29v3q39 20 56 35t17 30q0 14 -17 26t-59 29v4l151 41q38 -15 55.5 -33.5t17.5 -43.5z" />
    <glyph glyph-name="uni021A" unicode="&#x21a;" horiz-adv-x="727" 
d="M694 700v-145h-250v-555h-161v555h-250v145h661zM475 -145q0 -32 -36.5 -61.5t-111.5 -58.5l-73 29v3q39 20 56 35t17 30q0 14 -17 26t-59 29v4l151 41q38 -15 55.5 -33.5t17.5 -43.5z" />
    <glyph glyph-name="uni021B" unicode="&#x21b;" horiz-adv-x="470" 
d="M434 157l-23 -132q-28 -18 -61.5 -27t-70.5 -9q-85 0 -129.5 49.5t-44.5 145.5v209h-78v118h78v110l149 37v-147h177v-118h-177v-197q0 -39 19.5 -58.5t57.5 -19.5q24 0 48 9.5t53 30.5zM372 -145q0 -32 -36.5 -61.5t-111.5 -58.5l-73 29v3q39 20 56 35t17 30
q0 14 -17 26t-59 29v4l151 41q38 -15 55.5 -33.5t17.5 -43.5z" />
    <glyph glyph-name="uni0226" unicode="&#x226;" horiz-adv-x="813" 
d="M184 0h-167l307 702h171l300 -702h-173l-58 144h-320zM406 538l-112 -265h220zM408 927q36 0 60.5 -24t24.5 -60q0 -35 -24.5 -59t-60.5 -24t-60.5 24t-24.5 59q0 36 24.5 60t60.5 24z" />
    <glyph glyph-name="uni0227" unicode="&#x227;" horiz-adv-x="576" 
d="M520 12l-146 -19v77q-50 -40 -95.5 -59.5t-90.5 -19.5q-67 0 -108 37.5t-41 100.5q0 84 82 125.5t249 44.5q-3 49 -29 74t-75 25q-40 0 -84 -16.5t-90 -48.5l-3 2l23 137q42 25 88 37t98 12q109 0 165.5 -58t56.5 -169v-282zM177 144q0 -23 16 -36t45 -13q26 0 58.5 10.5
t73.5 31.5v91q-98 -7 -145.5 -27t-47.5 -57zM303 591q-35 0 -59 23.5t-24 58.5q0 34 24 57.5t59 23.5t59 -23.5t24 -57.5q0 -35 -24 -58.5t-59 -23.5z" />
    <glyph glyph-name="uni022E" unicode="&#x22e;" horiz-adv-x="831" 
d="M414 -14q-160 0 -265.5 104t-105.5 259q0 154 107 259.5t266 105.5t265.5 -104.5t106.5 -258.5q0 -155 -107 -260t-267 -105zM413 568q-87 0 -146 -62.5t-59 -154.5q0 -93 59.5 -156t147.5 -63q87 0 147.5 63t60.5 154q0 92 -61 155.5t-149 63.5zM415 932q36 0 60.5 -24
t24.5 -60q0 -35 -24.5 -59t-60.5 -24t-60.5 24t-24.5 59q0 36 24.5 60t60.5 24z" />
    <glyph glyph-name="uni022F" unicode="&#x22f;" horiz-adv-x="619" 
d="M309 -14q-121 0 -198.5 77.5t-77.5 191.5q0 113 79 191.5t198 78.5q121 0 198.5 -77t77.5 -191q0 -113 -79 -192t-198 -79zM439 257q0 60 -36.5 99.5t-92.5 39.5q-57 0 -93.5 -40t-36.5 -101q0 -60 37 -100t92 -40q56 0 93 40.5t37 101.5zM309 596q-35 0 -59 23.5
t-24 58.5q0 34 24 57.5t59 23.5t59 -23.5t24 -57.5q0 -35 -24 -58.5t-59 -23.5z" />
    <glyph glyph-name="uni0232" unicode="&#x232;" horiz-adv-x="704" 
d="M520 700h180l-267 -412v-288h-161v287l-267 413h187l164 -268zM153 786v100h398v-100h-398z" />
    <glyph glyph-name="uni0233" unicode="&#x233;" horiz-adv-x="592" 
d="M579 511l-206 -519q-36 -95 -92.5 -141t-136.5 -46q-24 0 -45.5 4t-42.5 13l-29 139l2 1q22 -11 42.5 -16.5t42.5 -5.5q42 0 68 19t44 61v1l-213 490h164l126 -321l115 321h161zM111 618v96h376v-96h-376z" />
    <glyph glyph-name="uni0237" unicode="&#x237;" horiz-adv-x="296" 
d="M73 511h151v-505q0 -97 -49.5 -149t-139.5 -52q-18 0 -33.5 2t-27.5 5l-23 107l2 2q9 -3 19 -4.5t21 -1.5q39 0 59.5 21t20.5 62v513z" />
    <glyph glyph-name="uni0259" unicode="&#x259;" horiz-adv-x="569" 
d="M263 522q124 0 198.5 -73t74.5 -194q0 -114 -73.5 -191.5t-185.5 -77.5t-177.5 73.5t-65.5 194.5q0 5 0.5 15t2.5 28h353q-12 51 -52 79t-102 28q-45 0 -91.5 -12.5t-96.5 -38.5l-2 2l41 128q44 21 85 30t91 9zM280 95q44 0 74.5 32t36.5 84h-216q5 -54 33 -85t72 -31z
" />
    <glyph glyph-name="uni02B9" unicode="&#x2b9;" horiz-adv-x="293" 
d="M36 414l70 286h175l-180 -304z" />
    <glyph glyph-name="uni02BA" unicode="&#x2ba;" horiz-adv-x="518" 
d="M36 414l70 286h171l-177 -304zM265 414l70 286h172l-177 -304z" />
    <glyph glyph-name="uni02BB" unicode="&#x2bb;" horiz-adv-x="257" 
d="M166 531q0 -26 10 -52t50 -91h-158q-20 33 -29 59t-9 54q0 45 36 93.5t121 114.5l46 -29q-41 -59 -54 -89.5t-13 -59.5z" />
    <glyph glyph-name="uni02BC" unicode="&#x2bc;" horiz-adv-x="257" 
d="M91 557q0 26 -9.5 50.5t-50.5 92.5h158q20 -33 29 -59t9 -54q0 -45 -36 -93.5t-121 -114.5l-46 29q41 59 54 89.5t13 59.5z" />
    <glyph glyph-name="uni02BE" unicode="&#x2be;" horiz-adv-x="206" 
d="M181 674q0 -59 -41 -95t-108 -36v63q37 0 59 18.5t22 49.5t-21.5 48.5t-59.5 18.5v63q69 0 109 -35t40 -95z" />
    <glyph glyph-name="uni02BF" unicode="&#x2bf;" horiz-adv-x="206" 
d="M25 674q0 59 40.5 94.5t108.5 35.5v-63q-37 0 -58.5 -18t-21.5 -49t21 -49t59 -19v-63q-68 0 -108.5 35.5t-40.5 95.5z" />
    <glyph glyph-name="circumflex" unicode="&#x2c6;" horiz-adv-x="500" 
d="M446 597h-75l-120 86l-121 -86h-76v2l132 183h128l132 -183v-2z" />
    <glyph glyph-name="caron" unicode="&#x2c7;" horiz-adv-x="500" 
d="M446 782v-2l-132 -183h-128l-132 183v2h75l120 -86l121 86h76z" />
    <glyph glyph-name="uni02C8" unicode="&#x2c8;" horiz-adv-x="177" 
d="M122 546h-67v255h67v-255z" />
    <glyph glyph-name="uni02CC" unicode="&#x2cc;" horiz-adv-x="177" 
d="M122 -189h-67v255h67v-255z" />
    <glyph glyph-name="uni02CD" unicode="&#x2cd;" horiz-adv-x="500" 
d="M62 -185v96h376v-96h-376z" />
    <glyph glyph-name="breve" unicode="&#x2d8;" horiz-adv-x="500" 
d="M250 589q-59 0 -106.5 34t-89.5 107l61 48q36 -43 67 -61.5t68 -18.5q36 0 67.5 18.5t67.5 61.5l61 -47q-42 -74 -90 -108t-106 -34z" />
    <glyph glyph-name="dotaccent" unicode="&#x2d9;" horiz-adv-x="500" 
d="M250 591q-35 0 -59 23.5t-24 58.5q0 34 24 57.5t59 23.5t59 -23.5t24 -57.5q0 -35 -24 -58.5t-59 -23.5z" />
    <glyph glyph-name="ring" unicode="&#x2da;" horiz-adv-x="500" 
d="M250 587q-55 0 -93.5 38t-38.5 92t38.5 92.5t93.5 38.5t93.5 -38.5t38.5 -92.5t-38.5 -92t-93.5 -38zM323 717q0 32 -21 54.5t-52 22.5t-52 -22.5t-21 -54.5t21 -54t52 -22t52 22t21 54z" />
    <glyph glyph-name="ogonek" unicode="&#x2db;" horiz-adv-x="500" 
d="M359 -137l-18 -54q-20 -4 -41 -6.5t-40 -2.5q-59 0 -92 21t-33 58q0 19 11 38t44 53l39 40h82l-35 -61q-10 -17 -13.5 -26.5t-3.5 -18.5q0 -22 21 -31.5t67 -9.5h12z" />
    <glyph glyph-name="tilde" unicode="&#x2dc;" horiz-adv-x="500" 
d="M262 734q31 -18 43.5 -23t20.5 -5q12 0 23.5 9.5t48.5 56.5l64 -41q-49 -84 -76.5 -111.5t-61.5 -27.5q-12 0 -30 7t-56 29q-31 17 -43.5 22.5t-20.5 5.5q-12 0 -23.5 -9.5t-48.5 -56.5l-64 41q48 83 75.5 110.5t62.5 27.5q12 0 30 -7t56 -28z" />
    <glyph glyph-name="hungarumlaut" unicode="&#x2dd;" horiz-adv-x="500" 
d="M176 597h-68l85 185h164v-2zM369 597h-68l85 185h164v-2z" />
    <glyph glyph-name="uni0300" unicode="&#x300;" 
d="M-45 782l85 -185h-72l-194 183v2h181z" />
    <glyph glyph-name="uni0301" unicode="&#x301;" 
d="M32 597h-72l85 185h181v-2z" />
    <glyph glyph-name="uni0302" unicode="&#x302;" 
d="M196 597h-75l-120 86l-121 -86h-76v2l132 183h128l132 -183v-2z" />
    <glyph glyph-name="uni0303" unicode="&#x303;" 
d="M12 734q31 -18 43.5 -23t20.5 -5q12 0 23.5 9.5t48.5 56.5l64 -41q-49 -84 -76.5 -111.5t-61.5 -27.5q-12 0 -30 7t-56 29q-31 17 -43.5 22.5t-20.5 5.5q-12 0 -23.5 -9.5t-48.5 -56.5l-64 41q48 83 75.5 110.5t62.5 27.5q12 0 30 -7t56 -28z" />
    <glyph glyph-name="uni0304" unicode="&#x304;" 
d="M-188 618v96h376v-96h-376z" />
    <glyph glyph-name="uni0306" unicode="&#x306;" 
d="M0 589q-59 0 -106.5 34t-89.5 107l61 48q36 -43 67 -61.5t68 -18.5q36 0 67.5 18.5t67.5 61.5l61 -47q-42 -74 -90 -108t-106 -34z" />
    <glyph glyph-name="uni0307" unicode="&#x307;" 
d="M0 591q-35 0 -59 23.5t-24 58.5q0 34 24 57.5t59 23.5t59 -23.5t24 -57.5q0 -35 -24 -58.5t-59 -23.5z" />
    <glyph glyph-name="uni0308" unicode="&#x308;" 
d="M-113 593q-36 0 -60.5 24t-24.5 59t24.5 58.5t60.5 23.5t60.5 -23.5t24.5 -58.5t-24.5 -59t-60.5 -24zM113 593q-36 0 -60.5 24t-24.5 59t24.5 58.5t60.5 23.5t60.5 -23.5t24.5 -58.5t-24.5 -59t-60.5 -24z" />
    <glyph glyph-name="uni0309" unicode="&#x309;" 
d="M141 741q0 -36 -27 -70t-102 -85l-70 22v2q55 47 74 67t19 36q0 13 -9.5 20t-25.5 7q-24 0 -55 -12.5t-63 -35.5h-2v99q32 23 68 34.5t74 11.5q55 0 87 -26t32 -70z" />
    <glyph glyph-name="uni030A" unicode="&#x30a;" 
d="M0 587q-55 0 -93.5 38t-38.5 92t38.5 92.5t93.5 38.5t93.5 -38.5t38.5 -92.5t-38.5 -92t-93.5 -38zM73 717q0 32 -21 54.5t-52 22.5t-52 -22.5t-21 -54.5t21 -54t52 -22t52 22t21 54z" />
    <glyph glyph-name="uni030B" unicode="&#x30b;" 
d="M-74 597h-68l85 185h164v-2zM119 597h-68l85 185h164v-2z" />
    <glyph glyph-name="uni030C" unicode="&#x30c;" 
d="M196 782v-2l-132 -183h-128l-132 183v2h75l120 -86l121 86h76z" />
    <glyph glyph-name="uni0312" unicode="&#x312;" 
d="M-111 671q0 34 36.5 65t111.5 61l73 -29v-3q-38 -21 -55.5 -37.5t-17.5 -31.5q0 -16 16.5 -28.5t59.5 -31.5v-4l-151 -42q-38 17 -55.5 36t-17.5 45z" />
    <glyph glyph-name="uni0315" unicode="&#x315;" 
d="M60 564h-60q11 22 16.5 47t5.5 51q0 27 -5.5 51.5t-16.5 47.5h117q4 -13 6 -25t2 -24q0 -37 -16 -74t-49 -74z" />
    <glyph glyph-name="uni0323" unicode="&#x323;" 
d="M0 -231q-35 0 -59 23.5t-24 57.5t24 57.5t59 23.5t59 -23.5t24 -57.5t-24 -57.5t-59 -23.5z" />
    <glyph glyph-name="uni0324" unicode="&#x324;" 
d="M-113 -236q-36 0 -60.5 24t-24.5 59t24.5 58.5t60.5 23.5t60.5 -23.5t24.5 -58.5t-24.5 -59t-60.5 -24zM113 -236q-36 0 -60.5 24t-24.5 59t24.5 58.5t60.5 23.5t60.5 -23.5t24.5 -58.5t-24.5 -59t-60.5 -24z" />
    <glyph glyph-name="uni0326" unicode="&#x326;" 
d="M111 -145q0 -32 -36.5 -61.5t-111.5 -58.5l-73 29v3q39 20 56 35t17 30q0 14 -17 26t-59 29v4l151 41q38 -15 55.5 -33.5t17.5 -43.5z" />
    <glyph glyph-name="uni0327" unicode="&#x327;" 
d="M122 -122q0 -40 -40.5 -65t-108.5 -25q-23 0 -44 2.5t-42 8.5l-26 59l3 3q30 -8 50.5 -11.5t42.5 -3.5q26 0 41 8t15 22t-13.5 20.5t-42.5 6.5q-12 0 -24 -0.5t-27 -2.5l-4 4l68 103h82l-39 -54q55 -3 82 -22t27 -53z" />
    <glyph glyph-name="uni0328" unicode="&#x328;" 
d="M109 -137l-18 -54q-20 -4 -41 -6.5t-40 -2.5q-59 0 -92 21t-33 58q0 19 11 38t44 53l39 40h82l-35 -61q-10 -17 -13.5 -26.5t-3.5 -18.5q0 -22 21 -31.5t67 -9.5h12z" />
    <glyph glyph-name="uni032D" unicode="&#x32d;" 
d="M196 -259h-75l-120 86l-121 -86h-76v2l132 183h128l132 -183v-2z" />
    <glyph glyph-name="uni032E" unicode="&#x32e;" 
d="M0 -263q-59 0 -106.5 34t-89.5 107l61 48q36 -43 67 -61.5t68 -18.5q36 0 67.5 18.5t67.5 61.5l61 -48q-43 -73 -90.5 -107t-105.5 -34z" />
    <glyph glyph-name="uni0331" unicode="&#x331;" 
d="M-188 -191v96h376v-96h-376z" />
    <glyph glyph-name="uni0E3F" unicode="&#xe3f;" horiz-adv-x="657" 
d="M495 364q59 -24 90 -66t31 -97q0 -88 -64.5 -142t-173.5 -59v-126h-109v126h-190v700h190v114h109v-114q101 -4 157.5 -52.5t56.5 -130.5q0 -47 -25.5 -87.5t-71.5 -65.5zM344 579h-120v-170h115q51 0 78.5 23.5t27.5 66.5q0 39 -26 59.5t-75 20.5zM224 300v-180h125
q54 0 85 23.5t31 65.5q0 44 -32 67.5t-90 23.5h-119z" />
    <glyph glyph-name="uni1E06" unicode="&#x1e06;" horiz-adv-x="643" 
d="M475 365q62 -23 94 -65t32 -99q0 -92 -71.5 -146.5t-190.5 -54.5h-260v700h259q111 0 173.5 -49t62.5 -136q0 -48 -25.5 -86.5t-73.5 -63.5zM319 576h-87v-166h81q49 0 78 23.5t29 62.5q0 38 -27 59t-74 21zM232 299v-175h95q54 0 85 23.5t31 63.5q0 43 -31 65.5
t-89 22.5h-91zM142 -191v96h376v-96h-376z" />
    <glyph glyph-name="uni1E07" unicode="&#x1e07;" horiz-adv-x="630" 
d="M378 521q94 0 156 -71.5t62 -180.5q0 -121 -81 -198.5t-203 -77.5q-33 0 -66 6.5t-71 19.5l-95 -21h-13v720l152 40v-309q36 37 74 54.5t85 17.5zM449 262q0 60 -34.5 96.5t-90.5 36.5q-27 0 -52 -7.5t-53 -24.5v-231q19 -7 39.5 -10.5t43.5 -3.5q65 0 106 40t41 104z
M126 -191v96h376v-96h-376z" />
    <glyph glyph-name="uni1E0C" unicode="&#x1e0c;" horiz-adv-x="779" 
d="M332 0h-253v700h253q189 0 296 -92.5t107 -255.5q0 -160 -109.5 -256t-293.5 -96zM570 350q0 98 -63.5 153.5t-176.5 55.5h-89v-418h91q109 0 173.5 56.5t64.5 152.5zM379 -231q-35 0 -59 23.5t-24 57.5t24 57.5t59 23.5t59 -23.5t24 -57.5t-24 -57.5t-59 -23.5z" />
    <glyph glyph-name="uni1E0D" unicode="&#x1e0d;" horiz-adv-x="635" 
d="M568 0h-148v72q-38 -43 -78 -62.5t-88 -19.5q-93 0 -156.5 72.5t-63.5 181.5q0 118 71.5 196.5t175.5 78.5q36 0 70 -12.5t66 -37.5v249l151 40v-758zM315 393q-59 0 -96.5 -39t-37.5 -101q0 -61 35 -98.5t90 -37.5q27 0 53.5 9t57.5 30v209q-26 15 -50.5 21.5t-51.5 6.5
zM316 -231q-35 0 -59 23.5t-24 57.5t24 57.5t59 23.5t59 -23.5t24 -57.5t-24 -57.5t-59 -23.5z" />
    <glyph glyph-name="uni1E0E" unicode="&#x1e0e;" horiz-adv-x="779" 
d="M332 0h-253v700h253q189 0 296 -92.5t107 -255.5q0 -160 -109.5 -256t-293.5 -96zM570 350q0 98 -63.5 153.5t-176.5 55.5h-89v-418h91q109 0 173.5 56.5t64.5 152.5zM191 -191v96h376v-96h-376z" />
    <glyph glyph-name="uni1E0F" unicode="&#x1e0f;" horiz-adv-x="635" 
d="M568 0h-148v72q-38 -43 -78 -62.5t-88 -19.5q-93 0 -156.5 72.5t-63.5 181.5q0 118 71.5 196.5t175.5 78.5q36 0 70 -12.5t66 -37.5v249l151 40v-758zM315 393q-59 0 -96.5 -39t-37.5 -101q0 -61 35 -98.5t90 -37.5q27 0 53.5 9t57.5 30v209q-26 15 -50.5 21.5t-51.5 6.5
zM128 -191v96h376v-96h-376z" />
    <glyph glyph-name="uni1E12" unicode="&#x1e12;" horiz-adv-x="779" 
d="M332 0h-253v700h253q189 0 296 -92.5t107 -255.5q0 -160 -109.5 -256t-293.5 -96zM570 350q0 98 -63.5 153.5t-176.5 55.5h-89v-418h91q109 0 173.5 56.5t64.5 152.5zM575 -259h-75l-120 86l-121 -86h-76v2l132 183h128l132 -183v-2z" />
    <glyph glyph-name="uni1E13" unicode="&#x1e13;" horiz-adv-x="635" 
d="M568 0h-148v72q-38 -43 -78 -62.5t-88 -19.5q-93 0 -156.5 72.5t-63.5 181.5q0 118 71.5 196.5t175.5 78.5q36 0 70 -12.5t66 -37.5v249l151 40v-758zM315 393q-59 0 -96.5 -39t-37.5 -101q0 -61 35 -98.5t90 -37.5q27 0 53.5 9t57.5 30v209q-26 15 -50.5 21.5t-51.5 6.5
zM512 -259h-75l-120 86l-121 -86h-76v2l132 183h128l132 -183v-2z" />
    <glyph glyph-name="uni1E20" unicode="&#x1e20;" horiz-adv-x="776" 
d="M702 383v-315q-73 -40 -145 -59t-148 -19q-164 0 -265 97t-101 257q0 163 110.5 264.5t286.5 101.5q68 0 127 -13t117 -41v-159h-3q-67 35 -123 51t-112 16q-103 0 -170 -61t-67 -156q0 -99 61 -158t163 -59q33 0 62 5t58 15v118h-157v115h306zM215 791v100h398v-100
h-398z" />
    <glyph glyph-name="uni1E21" unicode="&#x1e21;" horiz-adv-x="635" 
d="M568 513v-439q0 -126 -76 -197.5t-209 -71.5q-54 0 -103 11t-100 35l-24 139l2 1q63 -33 112 -47t101 -14q69 0 108 35t39 99v32q-38 -36 -78 -52.5t-87 -16.5q-95 0 -157 65.5t-62 167.5q0 115 79.5 187t200.5 72q36 0 71.5 -6.5t74.5 -20.5l96 21h12zM322 396
q-61 0 -101 -37t-40 -95q0 -55 34 -88.5t88 -33.5q29 0 56.5 9t58.5 29v199q-26 9 -49 13t-47 4zM135 618v96h376v-96h-376z" />
    <glyph glyph-name="uni1E24" unicode="&#x1e24;" horiz-adv-x="811" 
d="M732 0h-161v281h-330v-281h-162v700h162v-271h330v271h161v-700zM406 -226q-35 0 -59 23.5t-24 57.5t24 57.5t59 23.5t59 -23.5t24 -57.5t-24 -57.5t-59 -23.5z" />
    <glyph glyph-name="uni1E25" unicode="&#x1e25;" horiz-adv-x="624" 
d="M328 390q-28 0 -52.5 -11t-56.5 -38v-341h-152v718l152 40v-333q41 52 81.5 75t92.5 23q79 0 125.5 -53t46.5 -144v-326h-151v295q0 45 -22.5 70t-63.5 25zM316 -228q-35 0 -59 23.5t-24 57.5t24 57.5t59 23.5t59 -23.5t24 -57.5t-24 -57.5t-59 -23.5z" />
    <glyph glyph-name="uni1E28" unicode="&#x1e28;" horiz-adv-x="811" 
d="M280 -122q0 -40 -40.5 -65t-108.5 -25q-23 0 -44 2.5t-42 8.5l-26 59l3 3q30 -8 50.5 -11.5t42.5 -3.5q26 0 41 8t15 22t-13.5 20.5t-42.5 6.5q-12 0 -24 -0.5t-27 -2.5l-4 4l63 96h-44v700h162v-271h330v271h161v-700h-161v281h-330v-281h-36l-34 -47q55 -3 82 -22
t27 -53z" />
    <glyph glyph-name="uni1E29" unicode="&#x1e29;" horiz-adv-x="624" 
d="M262 -122q0 -41 -40 -65.5t-108 -24.5q-24 0 -45 2.5t-41 8.5l-26 59l3 3q30 -8 50 -11.5t42 -3.5q27 0 41.5 8t14.5 22t-13.5 20.5t-41.5 6.5q-13 0 -25 -0.5t-26 -2.5l-4 4l63 96h-39v718l152 40v-333q41 52 81.5 75t92.5 23q79 0 125.5 -53t46.5 -144v-326h-151v295
q0 45 -22.5 70t-63.5 25q-28 0 -52.5 -11t-56.5 -38v-341h-31l-34 -47q54 -3 81 -21.5t27 -53.5z" />
    <glyph glyph-name="uni1E2A" unicode="&#x1e2a;" horiz-adv-x="811" 
d="M732 0h-161v281h-330v-281h-162v700h162v-271h330v271h161v-700zM406 -263q-59 0 -106.5 34t-89.5 107l61 48q36 -43 67 -61.5t68 -18.5q36 0 67.5 18.5t67.5 61.5l61 -48q-43 -73 -90.5 -107t-105.5 -34z" />
    <glyph glyph-name="uni1E2B" unicode="&#x1e2b;" horiz-adv-x="624" 
d="M328 390q-28 0 -52.5 -11t-56.5 -38v-341h-152v718l152 40v-333q41 52 81.5 75t92.5 23q79 0 125.5 -53t46.5 -144v-326h-151v295q0 45 -22.5 70t-63.5 25zM316 -263q-59 0 -106.5 34t-89.5 107l61 48q36 -43 67 -61.5t68 -18.5q36 0 67.5 18.5t67.5 61.5l61 -48
q-43 -73 -90.5 -107t-105.5 -34z" />
    <glyph glyph-name="uni1E32" unicode="&#x1e32;" horiz-adv-x="728" 
d="M726 0h-203l-262 293h-20v-293h-162v700h162v-280h21l261 280h198v-2l-326 -336l331 -360v-2zM377 -226q-35 0 -59 23.5t-24 57.5t24 57.5t59 23.5t59 -23.5t24 -57.5t-24 -57.5t-59 -23.5z" />
    <glyph glyph-name="uni1E33" unicode="&#x1e33;" horiz-adv-x="588" 
d="M588 0h-182l-164 210h-23v-210h-152v718l152 40v-451h22l160 204h173v-2l-201 -244l215 -263v-2zM315 -228q-35 0 -59 23.5t-24 57.5t24 57.5t59 23.5t59 -23.5t24 -57.5t-24 -57.5t-59 -23.5z" />
    <glyph glyph-name="uni1E34" unicode="&#x1e34;" horiz-adv-x="728" 
d="M726 0h-203l-262 293h-20v-293h-162v700h162v-280h21l261 280h198v-2l-326 -336l331 -360v-2zM189 -191v96h376v-96h-376z" />
    <glyph glyph-name="uni1E35" unicode="&#x1e35;" horiz-adv-x="588" 
d="M588 0h-182l-164 210h-23v-210h-152v718l152 40v-451h22l160 204h173v-2l-201 -244l215 -263v-2zM127 -191v96h376v-96h-376z" />
    <glyph glyph-name="uni1E36" unicode="&#x1e36;" horiz-adv-x="557" 
d="M522 0h-443v700h162v-555h281v-145zM302 -231q-35 0 -59 23.5t-24 57.5t24 57.5t59 23.5t59 -23.5t24 -57.5t-24 -57.5t-59 -23.5z" />
    <glyph glyph-name="uni1E37" unicode="&#x1e37;" horiz-adv-x="294" 
d="M222 0h-151v718l151 40v-758zM147 -231q-35 0 -59 23.5t-24 57.5t24 57.5t59 23.5t59 -23.5t24 -57.5t-24 -57.5t-59 -23.5z" />
    <glyph glyph-name="uni1E38" unicode="&#x1e38;" horiz-adv-x="557" 
d="M522 0h-443v700h162v-555h281v-145zM1 786v100h318v-100h-318zM302 -231q-35 0 -59 23.5t-24 57.5t24 57.5t59 23.5t59 -23.5t24 -57.5t-24 -57.5t-59 -23.5z" />
    <glyph glyph-name="uni1E39" unicode="&#x1e39;" horiz-adv-x="294" 
d="M222 0h-151v718l151 40v-758zM-12 829v96h318v-96h-318zM147 -231q-35 0 -59 23.5t-24 57.5t24 57.5t59 23.5t59 -23.5t24 -57.5t-24 -57.5t-59 -23.5z" />
    <glyph glyph-name="uni1E3A" unicode="&#x1e3a;" horiz-adv-x="557" 
d="M522 0h-443v700h162v-555h281v-145zM114 -191v96h376v-96h-376z" />
    <glyph glyph-name="uni1E3B" unicode="&#x1e3b;" horiz-adv-x="294" 
d="M222 0h-151v718l151 40v-758zM-12 -191v96h318v-96h-318z" />
    <glyph glyph-name="uni1E3C" unicode="&#x1e3c;" horiz-adv-x="557" 
d="M522 0h-443v700h162v-555h281v-145zM498 -259h-75l-120 86l-121 -86h-76v2l132 183h128l132 -183v-2z" />
    <glyph glyph-name="uni1E3D" unicode="&#x1e3d;" horiz-adv-x="294" 
d="M222 0h-151v718l151 40v-758zM343 -259h-75l-120 86l-121 -86h-76v2l132 183h128l132 -183v-2z" />
    <glyph glyph-name="uni1E3E" unicode="&#x1e3e;" horiz-adv-x="1028" 
d="M79 700h224l211 -423l210 423h225v-700h-157v516l-272 -526h-14l-273 523v-513h-154v700zM551 752h-82l82 157h193v-2z" />
    <glyph glyph-name="uni1E3F" unicode="&#x1e3f;" horiz-adv-x="942" 
d="M318 390q-26 0 -48.5 -10t-50.5 -34v-346h-152v499l148 19v-92q39 51 79 74t89 23q54 0 93.5 -26.5t58.5 -76.5q41 55 83 79t95 24q78 0 124 -53t46 -144v-326h-152v295q0 45 -21 70t-60 25q-26 0 -48.5 -10t-51.5 -34q1 -4 1 -8v-12v-326h-152v295q0 45 -21 70t-60 25z
M507 597h-72l85 185h181v-2z" />
    <glyph glyph-name="uni1E40" unicode="&#x1e40;" horiz-adv-x="1028" 
d="M79 700h224l211 -423l210 423h225v-700h-157v516l-272 -526h-14l-273 523v-513h-154v700zM514 914q36 0 60.5 -24t24.5 -60q0 -35 -24.5 -59t-60.5 -24t-60.5 24t-24.5 59q0 36 24.5 60t60.5 24z" />
    <glyph glyph-name="uni1E41" unicode="&#x1e41;" horiz-adv-x="942" 
d="M318 390q-26 0 -48.5 -10t-50.5 -34v-346h-152v499l148 19v-92q39 51 79 74t89 23q54 0 93.5 -26.5t58.5 -76.5q41 55 83 79t95 24q78 0 124 -53t46 -144v-326h-152v295q0 45 -21 70t-60 25q-26 0 -48.5 -10t-51.5 -34q1 -4 1 -8v-12v-326h-152v295q0 45 -21 70t-60 25z
M475 591q-35 0 -59 23.5t-24 58.5q0 34 24 57.5t59 23.5t59 -23.5t24 -57.5q0 -35 -24 -58.5t-59 -23.5z" />
    <glyph glyph-name="uni1E42" unicode="&#x1e42;" horiz-adv-x="1028" 
d="M79 700h224l211 -423l210 423h225v-700h-157v516l-272 -526h-14l-273 523v-513h-154v700zM513 -233q-35 0 -59 23.5t-24 57.5t24 57.5t59 23.5t59 -23.5t24 -57.5t-24 -57.5t-59 -23.5z" />
    <glyph glyph-name="uni1E43" unicode="&#x1e43;" horiz-adv-x="942" 
d="M318 390q-26 0 -48.5 -10t-50.5 -34v-346h-152v499l148 19v-92q39 51 79 74t89 23q54 0 93.5 -26.5t58.5 -76.5q41 55 83 79t95 24q78 0 124 -53t46 -144v-326h-152v295q0 45 -21 70t-60 25q-26 0 -48.5 -10t-51.5 -34q1 -4 1 -8v-12v-326h-152v295q0 45 -21 70t-60 25z
M475 -231q-35 0 -59 23.5t-24 57.5t24 57.5t59 23.5t59 -23.5t24 -57.5t-24 -57.5t-59 -23.5z" />
    <glyph glyph-name="uni1E44" unicode="&#x1e44;" horiz-adv-x="822" 
d="M238 0h-159v700h156l350 -399l-1 399h159v-703h-103l-404 460zM411 919q36 0 60.5 -24t24.5 -60q0 -35 -24.5 -59t-60.5 -24t-60.5 24t-24.5 59q0 36 24.5 60t60.5 24z" />
    <glyph glyph-name="uni1E45" unicode="&#x1e45;" horiz-adv-x="624" 
d="M328 390q-28 0 -52.5 -11t-56.5 -38v-341h-152v499l148 19v-98q41 54 83.5 78.5t94.5 24.5q79 0 125.5 -53t46.5 -144v-326h-151v295q0 45 -22.5 70t-63.5 25zM317 591q-35 0 -59 23.5t-24 58.5q0 34 24 57.5t59 23.5t59 -23.5t24 -57.5q0 -35 -24 -58.5t-59 -23.5z" />
    <glyph glyph-name="uni1E46" unicode="&#x1e46;" horiz-adv-x="822" 
d="M238 0h-159v700h156l350 -399l-1 399h159v-703h-103l-404 460zM418 -223q-35 0 -59 23.5t-24 57.5t24 57.5t59 23.5t59 -23.5t24 -57.5t-24 -57.5t-59 -23.5z" />
    <glyph glyph-name="uni1E47" unicode="&#x1e47;" horiz-adv-x="624" 
d="M328 390q-28 0 -52.5 -11t-56.5 -38v-341h-152v499l148 19v-98q41 54 83.5 78.5t94.5 24.5q79 0 125.5 -53t46.5 -144v-326h-151v295q0 45 -22.5 70t-63.5 25zM317 -228q-35 0 -59 23.5t-24 57.5t24 57.5t59 23.5t59 -23.5t24 -57.5t-24 -57.5t-59 -23.5z" />
    <glyph glyph-name="uni1E48" unicode="&#x1e48;" horiz-adv-x="822" 
d="M238 0h-159v700h156l350 -399l-1 399h159v-703h-103l-404 460zM230 -191v96h376v-96h-376z" />
    <glyph glyph-name="uni1E49" unicode="&#x1e49;" horiz-adv-x="624" 
d="M328 390q-28 0 -52.5 -11t-56.5 -38v-341h-152v499l148 19v-98q41 54 83.5 78.5t94.5 24.5q79 0 125.5 -53t46.5 -144v-326h-151v295q0 45 -22.5 70t-63.5 25zM129 -191v96h376v-96h-376z" />
    <glyph glyph-name="uni1E4A" unicode="&#x1e4a;" horiz-adv-x="822" 
d="M238 0h-159v700h156l350 -399l-1 399h159v-703h-103l-404 460zM614 -251h-75l-120 86l-121 -86h-76v2l132 183h128l132 -183v-2z" />
    <glyph glyph-name="uni1E4B" unicode="&#x1e4b;" horiz-adv-x="624" 
d="M328 390q-28 0 -52.5 -11t-56.5 -38v-341h-152v499l148 19v-98q41 54 83.5 78.5t94.5 24.5q79 0 125.5 -53t46.5 -144v-326h-151v295q0 45 -22.5 70t-63.5 25zM513 -256h-75l-120 86l-121 -86h-76v2l132 183h128l132 -183v-2z" />
    <glyph glyph-name="uni1E58" unicode="&#x1e58;" horiz-adv-x="669" 
d="M682 0h-192l-207 254h-42v-254h-162v700h244q126 0 195.5 -57t69.5 -161q0 -67 -36.5 -119.5t-102.5 -81.5zM428 473q0 44 -31 70.5t-83 26.5h-76v-198h73q53 0 85 27.5t32 73.5zM317 927q36 0 60.5 -24t24.5 -60q0 -35 -24.5 -59t-60.5 -24t-60.5 24t-24.5 59
q0 36 24.5 60t60.5 24z" />
    <glyph glyph-name="uni1E59" unicode="&#x1e59;" horiz-adv-x="446" 
d="M389 361q-41 0 -81 -14.5t-89 -47.5v-299h-152v499l148 19v-133q53 75 90 104.5t78 29.5q8 0 15 -1t18 -3l9 -157q-9 2 -17.5 2.5t-18.5 0.5zM245 591q-35 0 -59 23.5t-24 58.5q0 34 24 57.5t59 23.5t59 -23.5t24 -57.5q0 -35 -24 -58.5t-59 -23.5z" />
    <glyph glyph-name="uni1E5A" unicode="&#x1e5a;" horiz-adv-x="669" 
d="M682 0h-192l-207 254h-42v-254h-162v700h244q126 0 195.5 -57t69.5 -161q0 -67 -36.5 -119.5t-102.5 -81.5zM428 473q0 44 -31 70.5t-83 26.5h-76v-198h73q53 0 85 27.5t32 73.5zM354 -226q-35 0 -59 23.5t-24 57.5t24 57.5t59 23.5t59 -23.5t24 -57.5t-24 -57.5
t-59 -23.5z" />
    <glyph glyph-name="uni1E5B" unicode="&#x1e5b;" horiz-adv-x="446" 
d="M389 361q-41 0 -81 -14.5t-89 -47.5v-299h-152v499l148 19v-133q53 75 90 104.5t78 29.5q8 0 15 -1t18 -3l9 -157q-9 2 -17.5 2.5t-18.5 0.5zM143 -231q-35 0 -59 23.5t-24 57.5t24 57.5t59 23.5t59 -23.5t24 -57.5t-24 -57.5t-59 -23.5z" />
    <glyph glyph-name="uni1E5C" unicode="&#x1e5c;" horiz-adv-x="669" 
d="M682 0h-192l-207 254h-42v-254h-162v700h244q126 0 195.5 -57t69.5 -161q0 -67 -36.5 -119.5t-102.5 -81.5zM428 473q0 44 -31 70.5t-83 26.5h-76v-198h73q53 0 85 27.5t32 73.5zM118 786v100h398v-100h-398zM354 -226q-35 0 -59 23.5t-24 57.5t24 57.5t59 23.5t59 -23.5
t24 -57.5t-24 -57.5t-59 -23.5z" />
    <glyph glyph-name="uni1E5D" unicode="&#x1e5d;" horiz-adv-x="446" 
d="M389 361q-41 0 -81 -14.5t-89 -47.5v-299h-152v499l148 19v-133q53 75 90 104.5t78 29.5q8 0 15 -1t18 -3l9 -157q-9 2 -17.5 2.5t-18.5 0.5zM86 618v96h318v-96h-318zM143 -231q-35 0 -59 23.5t-24 57.5t24 57.5t59 23.5t59 -23.5t24 -57.5t-24 -57.5t-59 -23.5z" />
    <glyph glyph-name="uni1E5E" unicode="&#x1e5e;" horiz-adv-x="669" 
d="M682 0h-192l-207 254h-42v-254h-162v700h244q126 0 195.5 -57t69.5 -161q0 -67 -36.5 -119.5t-102.5 -81.5zM428 473q0 44 -31 70.5t-83 26.5h-76v-198h73q53 0 85 27.5t32 73.5zM166 -191v96h376v-96h-376z" />
    <glyph glyph-name="uni1E5F" unicode="&#x1e5f;" horiz-adv-x="446" 
d="M389 361q-41 0 -81 -14.5t-89 -47.5v-299h-152v499l148 19v-133q53 75 90 104.5t78 29.5q8 0 15 -1t18 -3l9 -157q-9 2 -17.5 2.5t-18.5 0.5zM-16 -191v96h318v-96h-318z" />
    <glyph glyph-name="uni1E62" unicode="&#x1e62;" horiz-adv-x="571" 
d="M246 290q-110 42 -153 91t-43 123q0 94 66 151t177 57q57 0 107 -12.5t94 -38.5v-154h-2q-48 32 -102 51t-100 19q-39 0 -61 -16t-22 -44t23.5 -47.5t99.5 -50.5q109 -42 153.5 -91.5t44.5 -125.5q0 -98 -69 -156t-184 -58q-60 0 -116 17t-103 49l-24 173l2 1
q59 -47 125 -76t118 -29q44 0 69 18t25 50q0 29 -25 49t-100 50zM275 -236q-35 0 -59 23.5t-24 57.5t24 57.5t59 23.5t59 -23.5t24 -57.5t-24 -57.5t-59 -23.5z" />
    <glyph glyph-name="uni1E63" unicode="&#x1e63;" horiz-adv-x="510" 
d="M294 314q103 -26 142 -63t39 -101q0 -72 -60.5 -116.5t-159.5 -44.5q-55 0 -104 13.5t-98 42.5l-20 138l2 1q60 -41 118.5 -62t110.5 -21q32 0 51.5 11.5t19.5 29.5q0 21 -22 33t-90 30q-100 26 -139 62.5t-39 95.5q0 72 58.5 115.5t156.5 43.5q48 0 93 -11t86 -33v-129
h-2q-46 29 -94.5 45.5t-88.5 16.5q-32 0 -50.5 -10.5t-18.5 -27.5q0 -19 21 -30.5t88 -28.5zM248 -233q-35 0 -59 23.5t-24 57.5t24 57.5t59 23.5t59 -23.5t24 -57.5t-24 -57.5t-59 -23.5z" />
    <glyph glyph-name="uni1E6C" unicode="&#x1e6c;" horiz-adv-x="727" 
d="M694 700v-145h-250v-555h-161v555h-250v145h661zM364 -231q-35 0 -59 23.5t-24 57.5t24 57.5t59 23.5t59 -23.5t24 -57.5t-24 -57.5t-59 -23.5z" />
    <glyph glyph-name="uni1E6D" unicode="&#x1e6d;" horiz-adv-x="470" 
d="M434 157l-23 -132q-28 -18 -61.5 -27t-70.5 -9q-85 0 -129.5 49.5t-44.5 145.5v209h-78v118h78v110l149 37v-147h177v-118h-177v-197q0 -39 19.5 -58.5t57.5 -19.5q24 0 48 9.5t53 30.5zM261 -231q-35 0 -59 23.5t-24 57.5t24 57.5t59 23.5t59 -23.5t24 -57.5t-24 -57.5
t-59 -23.5z" />
    <glyph glyph-name="uni1E6E" unicode="&#x1e6e;" horiz-adv-x="727" 
d="M694 700v-145h-250v-555h-161v555h-250v145h661zM176 -191v96h376v-96h-376z" />
    <glyph glyph-name="uni1E6F" unicode="&#x1e6f;" horiz-adv-x="470" 
d="M434 157l-23 -132q-28 -18 -61.5 -27t-70.5 -9q-85 0 -129.5 49.5t-44.5 145.5v209h-78v118h78v110l149 37v-147h177v-118h-177v-197q0 -39 19.5 -58.5t57.5 -19.5q24 0 48 9.5t53 30.5zM102 -191v96h318v-96h-318z" />
    <glyph glyph-name="uni1E70" unicode="&#x1e70;" horiz-adv-x="727" 
d="M694 700v-145h-250v-555h-161v555h-250v145h661zM560 -259h-75l-120 86l-121 -86h-76v2l132 183h128l132 -183v-2z" />
    <glyph glyph-name="uni1E71" unicode="&#x1e71;" horiz-adv-x="470" 
d="M434 157l-23 -132q-28 -18 -61.5 -27t-70.5 -9q-85 0 -129.5 49.5t-44.5 145.5v209h-78v118h78v110l149 37v-147h177v-118h-177v-197q0 -39 19.5 -58.5t57.5 -19.5q24 0 48 9.5t53 30.5zM457 -259h-75l-120 86l-121 -86h-76v2l132 183h128l132 -183v-2z" />
    <glyph glyph-name="uni1E7E" unicode="&#x1e7e;" horiz-adv-x="794" 
d="M606 700h171l-325 -711h-116l-318 711h178l202 -480zM395 -237q-35 0 -59 23.5t-24 57.5t24 57.5t59 23.5t59 -23.5t24 -57.5t-24 -57.5t-59 -23.5z" />
    <glyph glyph-name="uni1E7F" unicode="&#x1e7f;" horiz-adv-x="612" 
d="M440 511h161l-250 -523h-101l-238 523h165l128 -315zM302 -231q-35 0 -59 23.5t-24 57.5t24 57.5t59 23.5t59 -23.5t24 -57.5t-24 -57.5t-59 -23.5z" />
    <glyph glyph-name="Wgrave" unicode="&#x1e80;" horiz-adv-x="1154" 
d="M959 700h168l-231 -704h-152l-168 381l-172 -381h-152l-224 704h174l143 -489l227 498h16l223 -499zM546 922l82 -157h-82l-193 155v2h193z" />
    <glyph glyph-name="wgrave" unicode="&#x1e81;" horiz-adv-x="887" 
d="M718 511h154l-184 -517h-125l-121 254l-126 -254h-126l-174 517h159l98 -323l166 330h15l159 -330zM404 782l85 -185h-72l-194 183v2h181z" />
    <glyph glyph-name="Wacute" unicode="&#x1e82;" horiz-adv-x="1154" 
d="M959 700h168l-231 -704h-152l-168 381l-172 -381h-152l-224 704h174l143 -489l227 498h16l223 -499zM620 765h-82l82 157h193v-2z" />
    <glyph glyph-name="wacute" unicode="&#x1e83;" horiz-adv-x="887" 
d="M718 511h154l-184 -517h-125l-121 254l-126 -254h-126l-174 517h159l98 -323l166 330h15l159 -330zM481 597h-72l85 185h181v-2z" />
    <glyph glyph-name="Wdieresis" unicode="&#x1e84;" horiz-adv-x="1154" 
d="M959 700h168l-231 -704h-152l-168 381l-172 -381h-152l-224 704h174l143 -489l227 498h16l223 -499zM470 928q36 0 60.5 -24t24.5 -59q0 -36 -24.5 -60t-60.5 -24t-61 24t-25 60q0 35 25 59t61 24zM696 928q36 0 61 -24t25 -59q0 -36 -25 -60t-61 -24t-60.5 24t-24.5 60
q0 35 24.5 59t60.5 24z" />
    <glyph glyph-name="wdieresis" unicode="&#x1e85;" horiz-adv-x="887" 
d="M718 511h154l-184 -517h-125l-121 254l-126 -254h-126l-174 517h159l98 -323l166 330h15l159 -330zM336 593q-36 0 -60.5 24t-24.5 59t24.5 58.5t60.5 23.5t60.5 -23.5t24.5 -58.5t-24.5 -59t-60.5 -24zM562 593q-36 0 -60.5 24t-24.5 59t24.5 58.5t60.5 23.5t60.5 -23.5
t24.5 -58.5t-24.5 -59t-60.5 -24z" />
    <glyph glyph-name="uni1E8C" unicode="&#x1e8c;" horiz-adv-x="764" 
d="M746 0h-191l-176 239l-172 -239h-187l264 353l-258 347h191l167 -227l165 227h187l-257 -342zM270 928q36 0 60.5 -24t24.5 -59q0 -36 -24.5 -60t-60.5 -24t-61 24t-25 60q0 35 25 59t61 24zM496 928q36 0 61 -24t25 -59q0 -36 -25 -60t-61 -24t-60.5 24t-24.5 60
q0 35 24.5 59t60.5 24z" />
    <glyph glyph-name="uni1E8D" unicode="&#x1e8d;" horiz-adv-x="601" 
d="M584 0h-170l-116 166l-116 -166h-165l190 262l-180 249h171l105 -152l105 152h165l-178 -249zM188 593q-36 0 -60.5 24t-24.5 59t24.5 58.5t60.5 23.5t60.5 -23.5t24.5 -58.5t-24.5 -59t-60.5 -24zM414 593q-36 0 -60.5 24t-24.5 59t24.5 58.5t60.5 23.5t60.5 -23.5
t24.5 -58.5t-24.5 -59t-60.5 -24z" />
    <glyph glyph-name="uni1E8E" unicode="&#x1e8e;" horiz-adv-x="704" 
d="M520 700h180l-267 -412v-288h-161v287l-267 413h187l164 -268zM352 922q36 0 60.5 -24t24.5 -60q0 -35 -24.5 -59t-60.5 -24t-60.5 24t-24.5 59q0 36 24.5 60t60.5 24z" />
    <glyph glyph-name="uni1E8F" unicode="&#x1e8f;" horiz-adv-x="592" 
d="M579 511l-206 -519q-36 -95 -92.5 -141t-136.5 -46q-24 0 -45.5 4t-42.5 13l-29 139l2 1q22 -11 42.5 -16.5t42.5 -5.5q42 0 68 19t44 61v1l-213 490h164l126 -321l115 321h161zM299 586q-35 0 -59 23.5t-24 58.5q0 34 24 57.5t59 23.5t59 -23.5t24 -57.5
q0 -35 -24 -58.5t-59 -23.5z" />
    <glyph glyph-name="uni1E90" unicode="&#x1e90;" horiz-adv-x="714" 
d="M293 141h390l-52 -141h-600l-7 14l384 545h-349v141h612l7 -14zM558 765h-86l-114 68l-114 -68h-86v2l130 155h140l130 -155v-2z" />
    <glyph glyph-name="uni1E91" unicode="&#x1e91;" horiz-adv-x="552" 
d="M256 119h269l-35 -119h-465l-5 14l265 379h-230v118h461l5 -13zM482 597h-75l-120 86l-121 -86h-76v2l132 183h128l132 -183v-2z" />
    <glyph glyph-name="uni1E92" unicode="&#x1e92;" horiz-adv-x="714" 
d="M293 141h390l-52 -141h-600l-7 14l384 545h-349v141h612l7 -14zM352 -231q-35 0 -59 23.5t-24 57.5t24 57.5t59 23.5t59 -23.5t24 -57.5t-24 -57.5t-59 -23.5z" />
    <glyph glyph-name="uni1E93" unicode="&#x1e93;" horiz-adv-x="552" 
d="M256 119h269l-35 -119h-465l-5 14l265 379h-230v118h461l5 -13zM270 -231q-35 0 -59 23.5t-24 57.5t24 57.5t59 23.5t59 -23.5t24 -57.5t-24 -57.5t-59 -23.5z" />
    <glyph glyph-name="uni1E94" unicode="&#x1e94;" horiz-adv-x="714" 
d="M293 141h390l-52 -141h-600l-7 14l384 545h-349v141h612l7 -14zM164 -191v96h376v-96h-376z" />
    <glyph glyph-name="uni1E95" unicode="&#x1e95;" horiz-adv-x="552" 
d="M256 119h269l-35 -119h-465l-5 14l265 379h-230v118h461l5 -13zM82 -191v96h376v-96h-376z" />
    <glyph glyph-name="uni1E96" unicode="&#x1e96;" horiz-adv-x="624" 
d="M328 390q-28 0 -52.5 -11t-56.5 -38v-341h-152v718l152 40v-333q41 52 81.5 75t92.5 23q79 0 125.5 -53t46.5 -144v-326h-151v295q0 45 -22.5 70t-63.5 25zM128 -191v96h376v-96h-376z" />
    <glyph glyph-name="uni1E9E" unicode="&#x1e9e;" horiz-adv-x="728" 
d="M690 189q0 -87 -62 -143.5t-158 -56.5q-41 0 -70.5 5.5t-66.5 19.5l-23 147l2 2q43 -24 74 -34t64 -10q38 0 61 21t23 54q0 41 -39.5 66.5t-158.5 61.5l-4 14l138 216q-21 11 -44.5 16t-49.5 5q-69 0 -106.5 -43.5t-37.5 -122.5v-407h-160v402q0 148 79.5 229.5
t223.5 81.5q76 0 146 -24.5t129 -71.5v-13l-135 -211q96 -34 135.5 -81.5t39.5 -122.5z" />
    <glyph glyph-name="uni1EA0" unicode="&#x1ea0;" horiz-adv-x="813" 
d="M184 0h-167l307 702h171l300 -702h-173l-58 144h-320zM406 538l-112 -265h220zM406 -221q-35 0 -59 23.5t-24 57.5t24 57.5t59 23.5t59 -23.5t24 -57.5t-24 -57.5t-59 -23.5z" />
    <glyph glyph-name="uni1EA1" unicode="&#x1ea1;" horiz-adv-x="576" 
d="M520 12l-146 -19v77q-50 -40 -95.5 -59.5t-90.5 -19.5q-67 0 -108 37.5t-41 100.5q0 84 82 125.5t249 44.5q-3 49 -29 74t-75 25q-40 0 -84 -16.5t-90 -48.5l-3 2l23 137q42 25 88 37t98 12q109 0 165.5 -58t56.5 -169v-282zM177 144q0 -23 16 -36t45 -13q26 0 58.5 10.5
t73.5 31.5v91q-98 -7 -145.5 -27t-47.5 -57zM293 -231q-35 0 -59 23.5t-24 57.5t24 57.5t59 23.5t59 -23.5t24 -57.5t-24 -57.5t-59 -23.5z" />
    <glyph glyph-name="uni1EA2" unicode="&#x1ea2;" horiz-adv-x="813" 
d="M184 0h-167l307 702h171l300 -702h-173l-58 144h-320zM406 538l-112 -265h220zM552 889q0 -34 -26.5 -62t-102.5 -71l-70 21v2q58 40 75.5 55.5t17.5 28.5q0 10 -9.5 16t-26.5 6q-24 0 -54 -10t-63 -29h-2v88q34 19 69 28t70 9q57 0 89.5 -22t32.5 -60z" />
    <glyph glyph-name="uni1EA3" unicode="&#x1ea3;" horiz-adv-x="576" 
d="M520 12l-146 -19v77q-50 -40 -95.5 -59.5t-90.5 -19.5q-67 0 -108 37.5t-41 100.5q0 84 82 125.5t249 44.5q-3 49 -29 74t-75 25q-40 0 -84 -16.5t-90 -48.5l-3 2l23 137q42 25 88 37t98 12q109 0 165.5 -58t56.5 -169v-282zM177 144q0 -23 16 -36t45 -13q26 0 58.5 10.5
t73.5 31.5v91q-98 -7 -145.5 -27t-47.5 -57zM444 741q0 -36 -27 -70t-102 -85l-70 22v2q55 47 74 67t19 36q0 13 -9.5 20t-25.5 7q-24 0 -55 -12.5t-63 -35.5h-2v99q32 23 68 34.5t74 11.5q55 0 87 -26t32 -70z" />
    <glyph glyph-name="uni1EA4" unicode="&#x1ea4;" horiz-adv-x="813" 
d="M184 0h-167l307 702h171l300 -702h-173l-58 144h-320zM406 538l-112 -265h220zM625 875h-77l65 126h174v-2zM608 761h-87l-113 58l-112 -58h-88v2l127 133h146l127 -133v-2z" />
    <glyph glyph-name="uni1EA5" unicode="&#x1ea5;" horiz-adv-x="576" 
d="M520 12l-146 -19v77q-50 -40 -95.5 -59.5t-90.5 -19.5q-67 0 -108 37.5t-41 100.5q0 84 82 125.5t249 44.5q-3 49 -29 74t-75 25q-40 0 -84 -16.5t-90 -48.5l-3 2l23 137q42 25 88 37t98 12q109 0 165.5 -58t56.5 -169v-282zM177 144q0 -23 16 -36t45 -13q26 0 58.5 10.5
t73.5 31.5v91q-98 -7 -145.5 -27t-47.5 -57zM510 723h-64l61 142h147v-2zM499 597h-76l-119 64l-120 -64h-77v2l128 142h136l128 -142v-2z" />
    <glyph glyph-name="uni1EA6" unicode="&#x1ea6;" horiz-adv-x="813" 
d="M184 0h-167l307 702h171l300 -702h-173l-58 144h-320zM406 538l-112 -265h220zM649 1001l65 -126h-77l-162 124v2h174zM608 761h-87l-113 58l-112 -58h-88v2l127 133h146l127 -133v-2z" />
    <glyph glyph-name="uni1EA7" unicode="&#x1ea7;" horiz-adv-x="576" 
d="M520 12l-146 -19v77q-50 -40 -95.5 -59.5t-90.5 -19.5q-67 0 -108 37.5t-41 100.5q0 84 82 125.5t249 44.5q-3 49 -29 74t-75 25q-40 0 -84 -16.5t-90 -48.5l-3 2l23 137q42 25 88 37t98 12q109 0 165.5 -58t56.5 -169v-282zM177 144q0 -23 16 -36t45 -13q26 0 58.5 10.5
t73.5 31.5v91q-98 -7 -145.5 -27t-47.5 -57zM514 865l61 -142h-64l-144 140v2h147zM499 597h-76l-119 64l-120 -64h-77v2l128 142h136l128 -142v-2z" />
    <glyph glyph-name="uni1EA8" unicode="&#x1ea8;" horiz-adv-x="813" 
d="M184 0h-167l307 702h171l300 -702h-173l-58 144h-320zM406 538l-112 -265h220zM722 980q0 -27 -22 -50t-88 -60l-61 18v2q48 32 63.5 45t15.5 23q0 8 -7.5 12.5t-20.5 4.5q-20 0 -46.5 -8t-54.5 -23h-2v73q29 16 59 23.5t63 7.5q46 0 73.5 -18.5t27.5 -49.5zM608 761h-87
l-113 58l-112 -58h-88v2l127 133h146l127 -133v-2z" />
    <glyph glyph-name="uni1EA9" unicode="&#x1ea9;" horiz-adv-x="576" 
d="M520 12l-146 -19v77q-50 -40 -95.5 -59.5t-90.5 -19.5q-67 0 -108 37.5t-41 100.5q0 84 82 125.5t249 44.5q-3 49 -29 74t-75 25q-40 0 -84 -16.5t-90 -48.5l-3 2l23 137q42 25 88 37t98 12q109 0 165.5 -58t56.5 -169v-282zM177 144q0 -23 16 -36t45 -13q26 0 58.5 10.5
t73.5 31.5v91q-98 -7 -145.5 -27t-47.5 -57zM634 821q0 -27 -21.5 -52t-86.5 -67l-60 19v2q49 36 64 50.5t15 26.5q0 10 -8 15.5t-21 5.5q-19 0 -44 -9t-56 -27h-1v73q27 18 57 27t62 9q46 0 73 -20t27 -53zM499 597h-76l-119 64l-120 -64h-77v2l128 142h136l128 -142v-2z
" />
    <glyph glyph-name="uni1EAA" unicode="&#x1eaa;" horiz-adv-x="813" 
d="M184 0h-167l307 702h171l300 -702h-173l-58 144h-320zM406 538l-112 -265h220zM427 1046q29 -14 41 -18t20 -4q13 0 25.5 9.5t42.5 43.5l49 -38q-44 -64 -68.5 -85t-54.5 -21q-12 0 -29 5.5t-52 22.5q-29 14 -41 18t-20 4q-13 0 -25 -9t-43 -43l-49 37q44 64 68.5 85
t54.5 21q12 0 29 -5.5t52 -22.5zM608 761h-87l-113 58l-112 -58h-88v2l127 133h146l127 -133v-2z" />
    <glyph glyph-name="uni1EAB" unicode="&#x1eab;" horiz-adv-x="576" 
d="M520 12l-146 -19v77q-50 -40 -95.5 -59.5t-90.5 -19.5q-67 0 -108 37.5t-41 100.5q0 84 82 125.5t249 44.5q-3 49 -29 74t-75 25q-40 0 -84 -16.5t-90 -48.5l-3 2l23 137q42 25 88 37t98 12q109 0 165.5 -58t56.5 -169v-282zM177 144q0 -23 16 -36t45 -13q26 0 58.5 10.5
t73.5 31.5v91q-98 -7 -145.5 -27t-47.5 -57zM317 891q27 -13 38.5 -16.5t18.5 -3.5q13 0 25 9t38 39l51 -35q-42 -64 -65.5 -85t-52.5 -21q-11 0 -26.5 5t-48.5 20q-27 12 -38.5 16t-18.5 4q-13 0 -24.5 -8.5t-38.5 -37.5l-51 34q42 63 65 83.5t53 20.5q11 0 26.5 -5
t48.5 -19zM499 597h-76l-119 64l-120 -64h-77v2l128 142h136l128 -142v-2z" />
    <glyph glyph-name="uni1EAC" unicode="&#x1eac;" horiz-adv-x="813" 
d="M184 0h-167l307 702h171l300 -702h-173l-58 144h-320zM406 538l-112 -265h220zM608 761h-86l-114 68l-114 -68h-86v2l130 155h140l130 -155v-2zM406 -221q-35 0 -59 23.5t-24 57.5t24 57.5t59 23.5t59 -23.5t24 -57.5t-24 -57.5t-59 -23.5z" />
    <glyph glyph-name="uni1EAD" unicode="&#x1ead;" horiz-adv-x="576" 
d="M520 12l-146 -19v77q-50 -40 -95.5 -59.5t-90.5 -19.5q-67 0 -108 37.5t-41 100.5q0 84 82 125.5t249 44.5q-3 49 -29 74t-75 25q-40 0 -84 -16.5t-90 -48.5l-3 2l23 137q42 25 88 37t98 12q109 0 165.5 -58t56.5 -169v-282zM177 144q0 -23 16 -36t45 -13q26 0 58.5 10.5
t73.5 31.5v91q-98 -7 -145.5 -27t-47.5 -57zM499 597h-75l-120 86l-121 -86h-76v2l132 183h128l132 -183v-2zM293 -231q-35 0 -59 23.5t-24 57.5t24 57.5t59 23.5t59 -23.5t24 -57.5t-24 -57.5t-59 -23.5z" />
    <glyph glyph-name="uni1EAE" unicode="&#x1eae;" horiz-adv-x="813" 
d="M184 0h-167l307 702h171l300 -702h-173l-58 144h-320zM406 538l-112 -265h220zM435 924h-75l60 134h178v-1zM408 761q-64 0 -115.5 29t-90.5 87l50 45q43 -33 78.5 -46t77.5 -13t77.5 13t78.5 46l50 -45q-39 -58 -90.5 -87t-115.5 -29z" />
    <glyph glyph-name="uni1EAF" unicode="&#x1eaf;" horiz-adv-x="576" 
d="M520 12l-146 -19v77q-50 -40 -95.5 -59.5t-90.5 -19.5q-67 0 -108 37.5t-41 100.5q0 84 82 125.5t249 44.5q-3 49 -29 74t-75 25q-40 0 -84 -16.5t-90 -48.5l-3 2l23 137q42 25 88 37t98 12q109 0 165.5 -58t56.5 -169v-282zM177 144q0 -23 16 -36t45 -13q26 0 58.5 10.5
t73.5 31.5v91q-98 -7 -145.5 -27t-47.5 -57zM328 765h-66l59 138h162v-2zM302 589q-58 0 -105 27.5t-90 89.5l52 47q40 -36 72.5 -51t70.5 -15t72 16t71 52l53 -45q-40 -62 -88.5 -91.5t-107.5 -29.5z" />
    <glyph glyph-name="uni1EB0" unicode="&#x1eb0;" horiz-adv-x="813" 
d="M184 0h-167l307 702h171l300 -702h-173l-58 144h-320zM406 538l-112 -265h220zM396 1058l60 -134h-75l-163 133v1h178zM408 761q-64 0 -115.5 29t-90.5 87l50 45q43 -33 78.5 -46t77.5 -13t77.5 13t78.5 46l50 -45q-39 -58 -90.5 -87t-115.5 -29z" />
    <glyph glyph-name="uni1EB1" unicode="&#x1eb1;" horiz-adv-x="576" 
d="M520 12l-146 -19v77q-50 -40 -95.5 -59.5t-90.5 -19.5q-67 0 -108 37.5t-41 100.5q0 84 82 125.5t249 44.5q-3 49 -29 74t-75 25q-40 0 -84 -16.5t-90 -48.5l-3 2l23 137q42 25 88 37t98 12q109 0 165.5 -58t56.5 -169v-282zM177 144q0 -23 16 -36t45 -13q26 0 58.5 10.5
t73.5 31.5v91q-98 -7 -145.5 -27t-47.5 -57zM285 903l59 -138h-66l-155 136v2h162zM302 589q-58 0 -105 27.5t-90 89.5l52 47q40 -36 72.5 -51t70.5 -15t72 16t71 52l53 -45q-40 -62 -88.5 -91.5t-107.5 -29.5z" />
    <glyph glyph-name="uni1EB2" unicode="&#x1eb2;" horiz-adv-x="813" 
d="M184 0h-167l307 702h171l300 -702h-173l-58 144h-320zM406 538l-112 -265h220zM537 1028q0 -26 -26.5 -51.5t-94.5 -59.5l-64 20v1q46 27 64.5 41.5t18.5 25.5q0 9 -7.5 14t-22.5 5q-23 0 -51 -9t-57 -25h-1v78q31 17 63 25t67 8q50 0 80.5 -20t30.5 -53zM408 761
q-64 0 -115.5 29t-90.5 87l50 45q43 -33 78.5 -46t77.5 -13t77.5 13t78.5 46l50 -45q-39 -58 -90.5 -87t-115.5 -29z" />
    <glyph glyph-name="uni1EB3" unicode="&#x1eb3;" horiz-adv-x="576" 
d="M520 12l-146 -19v77q-50 -40 -95.5 -59.5t-90.5 -19.5q-67 0 -108 37.5t-41 100.5q0 84 82 125.5t249 44.5q-3 49 -29 74t-75 25q-40 0 -84 -16.5t-90 -48.5l-3 2l23 137q42 25 88 37t98 12q109 0 165.5 -58t56.5 -169v-282zM177 144q0 -23 16 -36t45 -13q26 0 58.5 10.5
t73.5 31.5v91q-98 -7 -145.5 -27t-47.5 -57zM426 870q0 -27 -22.5 -52t-90.5 -66l-61 18v2q49 35 65 49.5t16 26.5q0 9 -8 14.5t-22 5.5q-21 0 -48 -9t-57 -27h-1v75q29 18 60 26.5t66 8.5q48 0 75.5 -19.5t27.5 -52.5zM302 589q-58 0 -105 27.5t-90 89.5l52 47
q40 -36 72.5 -51t70.5 -15t72 16t71 52l53 -45q-40 -62 -88.5 -91.5t-107.5 -29.5z" />
    <glyph glyph-name="uni1EB4" unicode="&#x1eb4;" horiz-adv-x="813" 
d="M184 0h-167l307 702h171l300 -702h-173l-58 144h-320zM406 538l-112 -265h220zM425 1063q27 -13 39 -17t20 -4q13 0 24 7.5t46 42.5l52 -39q-47 -62 -73 -83t-57 -21q-12 0 -28.5 5t-50.5 22q-27 13 -39 17t-20 4q-13 0 -25 -8.5t-45 -42.5l-52 39q47 63 72.5 84t57.5 21
q12 0 28.5 -5t50.5 -22zM408 761q-64 0 -115.5 29t-90.5 87l50 45q43 -33 78.5 -46t77.5 -13t77.5 13t78.5 46l50 -45q-39 -58 -90.5 -87t-115.5 -29z" />
    <glyph glyph-name="uni1EB5" unicode="&#x1eb5;" horiz-adv-x="576" 
d="M520 12l-146 -19v77q-50 -40 -95.5 -59.5t-90.5 -19.5q-67 0 -108 37.5t-41 100.5q0 84 82 125.5t249 44.5q-3 49 -29 74t-75 25q-40 0 -84 -16.5t-90 -48.5l-3 2l23 137q42 25 88 37t98 12q109 0 165.5 -58t56.5 -169v-282zM177 144q0 -23 16 -36t45 -13q26 0 58.5 10.5
t73.5 31.5v91q-98 -7 -145.5 -27t-47.5 -57zM316 898q28 -12 39 -16t18 -4q14 0 25.5 8.5t40.5 38.5l52 -36q-43 -62 -67.5 -83t-53.5 -21q-12 0 -28.5 5.5t-51.5 21.5q-28 13 -39 17t-18 4q-14 0 -26 -8t-40 -36l-52 35q42 60 66.5 80.5t54.5 20.5q12 0 28.5 -5t51.5 -22z
M302 589q-58 0 -105 27.5t-90 89.5l52 47q40 -36 72.5 -51t70.5 -15t72 16t71 52l53 -45q-40 -62 -88.5 -91.5t-107.5 -29.5z" />
    <glyph glyph-name="uni1EB6" unicode="&#x1eb6;" horiz-adv-x="813" 
d="M184 0h-167l307 702h171l300 -702h-173l-58 144h-320zM406 538l-112 -265h220zM408 761q-64 0 -115.5 31.5t-90.5 94.5l54 48q43 -38 77.5 -53.5t74.5 -15.5t74.5 15.5t77.5 53.5l54 -48q-39 -63 -90.5 -94.5t-115.5 -31.5zM406 -221q-35 0 -59 23.5t-24 57.5t24 57.5
t59 23.5t59 -23.5t24 -57.5t-24 -57.5t-59 -23.5z" />
    <glyph glyph-name="uni1EB7" unicode="&#x1eb7;" horiz-adv-x="576" 
d="M520 12l-146 -19v77q-50 -40 -95.5 -59.5t-90.5 -19.5q-67 0 -108 37.5t-41 100.5q0 84 82 125.5t249 44.5q-3 49 -29 74t-75 25q-40 0 -84 -16.5t-90 -48.5l-3 2l23 137q42 25 88 37t98 12q109 0 165.5 -58t56.5 -169v-282zM177 144q0 -23 16 -36t45 -13q26 0 58.5 10.5
t73.5 31.5v91q-98 -7 -145.5 -27t-47.5 -57zM303 589q-59 0 -106.5 34t-89.5 107l61 48q36 -43 67 -61.5t68 -18.5q36 0 67.5 18.5t67.5 61.5l61 -47q-42 -74 -90 -108t-106 -34zM293 -231q-35 0 -59 23.5t-24 57.5t24 57.5t59 23.5t59 -23.5t24 -57.5t-24 -57.5t-59 -23.5z
" />
    <glyph glyph-name="uni1EB8" unicode="&#x1eb8;" horiz-adv-x="600" 
d="M526 0h-447v700h444l28 -137h-312v-147h259v-124h-259v-155h315zM313 -231q-35 0 -59 23.5t-24 57.5t24 57.5t59 23.5t59 -23.5t24 -57.5t-24 -57.5t-59 -23.5z" />
    <glyph glyph-name="uni1EB9" unicode="&#x1eb9;" horiz-adv-x="569" 
d="M524 157l-42 -128q-46 -22 -86.5 -31t-89.5 -9q-124 0 -198.5 73t-74.5 195q0 113 73.5 190.5t185.5 77.5t177.5 -73.5t65.5 -193.5q0 -6 -1 -18t-2 -25h-353q12 -51 52 -79t102 -28q45 0 91.5 12.5t96.5 38.5zM289 416q-45 0 -75 -31.5t-36 -83.5h216q-5 53 -33 84
t-72 31zM300 -236q-35 0 -59 23.5t-24 57.5t24 57.5t59 23.5t59 -23.5t24 -57.5t-24 -57.5t-59 -23.5z" />
    <glyph glyph-name="uni1EBA" unicode="&#x1eba;" horiz-adv-x="600" 
d="M526 0h-447v700h444l28 -137h-312v-147h259v-124h-259v-155h315zM457 889q0 -34 -26.5 -62t-102.5 -71l-70 21v2q58 40 75.5 55.5t17.5 28.5q0 10 -9.5 16t-26.5 6q-24 0 -54 -10t-63 -29h-2v88q34 19 69 28t70 9q57 0 89.5 -22t32.5 -60z" />
    <glyph glyph-name="uni1EBB" unicode="&#x1ebb;" horiz-adv-x="569" 
d="M524 157l-42 -128q-46 -22 -86.5 -31t-89.5 -9q-124 0 -198.5 73t-74.5 195q0 113 73.5 190.5t185.5 77.5t177.5 -73.5t65.5 -193.5q0 -6 -1 -18t-2 -25h-353q12 -51 52 -79t102 -28q45 0 91.5 12.5t96.5 38.5zM289 416q-45 0 -75 -31.5t-36 -83.5h216q-5 53 -33 84
t-72 31zM437 746q0 -36 -27 -70t-102 -85l-70 22v2q55 47 74 67t19 36q0 13 -9.5 20t-25.5 7q-24 0 -55 -12.5t-63 -35.5h-2v99q32 23 68 34.5t74 11.5q55 0 87 -26t32 -70z" />
    <glyph glyph-name="uni1EBC" unicode="&#x1ebc;" horiz-adv-x="600" 
d="M526 0h-447v700h444l28 -137h-312v-147h259v-124h-259v-155h315zM332 892q31 -15 43.5 -19.5t21.5 -4.5q15 0 27.5 9.5t48.5 47.5l57 -44q-51 -72 -79 -96t-63 -24q-14 0 -32 6t-55 24q-30 15 -42.5 19.5t-21.5 4.5q-15 0 -27.5 -9t-48.5 -47l-57 44q52 72 80 96t62 24
q13 0 31 -6t55 -25z" />
    <glyph glyph-name="uni1EBD" unicode="&#x1ebd;" horiz-adv-x="569" 
d="M524 157l-42 -128q-46 -22 -86.5 -31t-89.5 -9q-124 0 -198.5 73t-74.5 195q0 113 73.5 190.5t185.5 77.5t177.5 -73.5t65.5 -193.5q0 -6 -1 -18t-2 -25h-353q12 -51 52 -79t102 -28q45 0 91.5 12.5t96.5 38.5zM289 416q-45 0 -75 -31.5t-36 -83.5h216q-5 53 -33 84
t-72 31zM308 739q31 -18 43.5 -23t20.5 -5q12 0 23.5 9.5t48.5 56.5l64 -41q-49 -84 -76.5 -111.5t-61.5 -27.5q-12 0 -30 7t-56 29q-31 17 -43.5 22.5t-20.5 5.5q-12 0 -23.5 -9.5t-48.5 -56.5l-64 41q48 83 75.5 110.5t62.5 27.5q12 0 30 -7t56 -28z" />
    <glyph glyph-name="uni1EBE" unicode="&#x1ebe;" horiz-adv-x="600" 
d="M526 0h-447v700h444l28 -137h-312v-147h259v-124h-259v-155h315zM530 879h-77l65 126h174v-2zM513 765h-87l-113 58l-112 -58h-88v2l127 133h146l127 -133v-2z" />
    <glyph glyph-name="uni1EBF" unicode="&#x1ebf;" horiz-adv-x="569" 
d="M524 157l-42 -128q-46 -22 -86.5 -31t-89.5 -9q-124 0 -198.5 73t-74.5 195q0 113 73.5 190.5t185.5 77.5t177.5 -73.5t65.5 -193.5q0 -6 -1 -18t-2 -25h-353q12 -51 52 -79t102 -28q45 0 91.5 12.5t96.5 38.5zM289 416q-45 0 -75 -31.5t-36 -83.5h216q-5 53 -33 84
t-72 31zM503 718h-64l61 142h147v-2zM492 592h-76l-119 64l-120 -64h-77v2l128 142h136l128 -142v-2z" />
    <glyph glyph-name="uni1EC0" unicode="&#x1ec0;" horiz-adv-x="600" 
d="M526 0h-447v700h444l28 -137h-312v-147h259v-124h-259v-155h315zM554 1005l65 -126h-77l-162 124v2h174zM513 765h-87l-113 58l-112 -58h-88v2l127 133h146l127 -133v-2z" />
    <glyph glyph-name="uni1EC1" unicode="&#x1ec1;" horiz-adv-x="569" 
d="M524 157l-42 -128q-46 -22 -86.5 -31t-89.5 -9q-124 0 -198.5 73t-74.5 195q0 113 73.5 190.5t185.5 77.5t177.5 -73.5t65.5 -193.5q0 -6 -1 -18t-2 -25h-353q12 -51 52 -79t102 -28q45 0 91.5 12.5t96.5 38.5zM289 416q-45 0 -75 -31.5t-36 -83.5h216q-5 53 -33 84
t-72 31zM507 860l61 -142h-64l-144 140v2h147zM492 592h-76l-119 64l-120 -64h-77v2l128 142h136l128 -142v-2z" />
    <glyph glyph-name="uni1EC2" unicode="&#x1ec2;" horiz-adv-x="600" 
d="M526 0h-447v700h444l28 -137h-312v-147h259v-124h-259v-155h315zM627 984q0 -27 -22 -50t-88 -60l-61 18v2q48 32 63.5 45t15.5 23q0 8 -7.5 12.5t-20.5 4.5q-20 0 -46.5 -8t-54.5 -23h-2v73q29 16 59 23.5t63 7.5q46 0 73.5 -18.5t27.5 -49.5zM513 765h-87l-113 58
l-112 -58h-88v2l127 133h146l127 -133v-2z" />
    <glyph glyph-name="uni1EC3" unicode="&#x1ec3;" horiz-adv-x="569" 
d="M524 157l-42 -128q-46 -22 -86.5 -31t-89.5 -9q-124 0 -198.5 73t-74.5 195q0 113 73.5 190.5t185.5 77.5t177.5 -73.5t65.5 -193.5q0 -6 -1 -18t-2 -25h-353q12 -51 52 -79t102 -28q45 0 91.5 12.5t96.5 38.5zM289 416q-45 0 -75 -31.5t-36 -83.5h216q-5 53 -33 84
t-72 31zM627 816q0 -27 -21.5 -52t-86.5 -67l-60 19v2q49 36 64 50.5t15 26.5q0 10 -8 15.5t-21 5.5q-19 0 -44 -9t-56 -27h-1v73q27 18 57 27t62 9q46 0 73 -20t27 -53zM492 592h-76l-119 64l-120 -64h-77v2l128 142h136l128 -142v-2z" />
    <glyph glyph-name="uni1EC4" unicode="&#x1ec4;" horiz-adv-x="600" 
d="M526 0h-447v700h444l28 -137h-312v-147h259v-124h-259v-155h315zM332 1050q29 -14 41 -18t20 -4q13 0 25.5 9.5t42.5 43.5l49 -38q-44 -64 -68.5 -85t-54.5 -21q-12 0 -29 5.5t-52 22.5q-29 14 -41 18t-20 4q-13 0 -25 -9t-43 -43l-49 37q44 64 68.5 85t54.5 21
q12 0 29 -5.5t52 -22.5zM513 765h-87l-113 58l-112 -58h-88v2l127 133h146l127 -133v-2z" />
    <glyph glyph-name="uni1EC5" unicode="&#x1ec5;" horiz-adv-x="569" 
d="M524 157l-42 -128q-46 -22 -86.5 -31t-89.5 -9q-124 0 -198.5 73t-74.5 195q0 113 73.5 190.5t185.5 77.5t177.5 -73.5t65.5 -193.5q0 -6 -1 -18t-2 -25h-353q12 -51 52 -79t102 -28q45 0 91.5 12.5t96.5 38.5zM289 416q-45 0 -75 -31.5t-36 -83.5h216q-5 53 -33 84
t-72 31zM310 886q27 -13 38.5 -16.5t18.5 -3.5q13 0 25 9t38 39l51 -35q-42 -64 -65.5 -85t-52.5 -21q-11 0 -26.5 5t-48.5 20q-27 12 -38.5 16t-18.5 4q-13 0 -24.5 -8.5t-38.5 -37.5l-51 34q42 63 65 83.5t53 20.5q11 0 26.5 -5t48.5 -19zM492 592h-76l-119 64l-120 -64
h-77v2l128 142h136l128 -142v-2z" />
    <glyph glyph-name="uni1EC6" unicode="&#x1ec6;" horiz-adv-x="600" 
d="M526 0h-447v700h444l28 -137h-312v-147h259v-124h-259v-155h315zM513 765h-86l-114 68l-114 -68h-86v2l130 155h140l130 -155v-2zM313 -231q-35 0 -59 23.5t-24 57.5t24 57.5t59 23.5t59 -23.5t24 -57.5t-24 -57.5t-59 -23.5z" />
    <glyph glyph-name="uni1EC7" unicode="&#x1ec7;" horiz-adv-x="569" 
d="M524 157l-42 -128q-46 -22 -86.5 -31t-89.5 -9q-124 0 -198.5 73t-74.5 195q0 113 73.5 190.5t185.5 77.5t177.5 -73.5t65.5 -193.5q0 -6 -1 -18t-2 -25h-353q12 -51 52 -79t102 -28q45 0 91.5 12.5t96.5 38.5zM289 416q-45 0 -75 -31.5t-36 -83.5h216q-5 53 -33 84
t-72 31zM492 592h-75l-120 86l-121 -86h-76v2l132 183h128l132 -183v-2zM300 -236q-35 0 -59 23.5t-24 57.5t24 57.5t59 23.5t59 -23.5t24 -57.5t-24 -57.5t-59 -23.5z" />
    <glyph glyph-name="uni1EC8" unicode="&#x1ec8;" horiz-adv-x="328" 
d="M244 0h-161v700h161v-700zM308 889q0 -34 -26.5 -62t-102.5 -71l-70 21v2q58 40 75.5 55.5t17.5 28.5q0 10 -9.5 16t-26.5 6q-24 0 -54 -10t-63 -29h-2v88q34 19 69 28t70 9q57 0 89.5 -22t32.5 -60z" />
    <glyph glyph-name="uni1EC9" unicode="&#x1ec9;" horiz-adv-x="294" 
d="M222 0h-151v511h151v-511zM288 741q0 -36 -27 -70t-102 -85l-70 22v2q55 47 74 67t19 36q0 13 -9.5 20t-25.5 7q-24 0 -55 -12.5t-63 -35.5h-2v99q32 23 68 34.5t74 11.5q55 0 87 -26t32 -70z" />
    <glyph glyph-name="uni1ECA" unicode="&#x1eca;" horiz-adv-x="328" 
d="M244 0h-161v700h161v-700zM164 -231q-35 0 -59 23.5t-24 57.5t24 57.5t59 23.5t59 -23.5t24 -57.5t-24 -57.5t-59 -23.5z" />
    <glyph glyph-name="uni1ECB" unicode="&#x1ecb;" horiz-adv-x="294" 
d="M147 767q39 0 65.5 -25t26.5 -62t-26.5 -62t-65.5 -25t-65.5 25t-26.5 62t26.5 62t65.5 25zM222 0h-151v511h151v-511zM147 -231q-35 0 -59 23.5t-24 57.5t24 57.5t59 23.5t59 -23.5t24 -57.5t-24 -57.5t-59 -23.5z" />
    <glyph glyph-name="uni1ECC" unicode="&#x1ecc;" horiz-adv-x="831" 
d="M414 -14q-160 0 -265.5 104t-105.5 259q0 154 107 259.5t266 105.5t265.5 -104.5t106.5 -258.5q0 -155 -107 -260t-267 -105zM413 568q-87 0 -146 -62.5t-59 -154.5q0 -93 59.5 -156t147.5 -63q87 0 147.5 63t60.5 154q0 92 -61 155.5t-149 63.5zM415 -236
q-35 0 -59 23.5t-24 57.5t24 57.5t59 23.5t59 -23.5t24 -57.5t-24 -57.5t-59 -23.5z" />
    <glyph glyph-name="uni1ECD" unicode="&#x1ecd;" horiz-adv-x="619" 
d="M309 -14q-121 0 -198.5 77.5t-77.5 191.5q0 113 79 191.5t198 78.5q121 0 198.5 -77t77.5 -191q0 -113 -79 -192t-198 -79zM439 257q0 60 -36.5 99.5t-92.5 39.5q-57 0 -93.5 -40t-36.5 -101q0 -60 37 -100t92 -40q56 0 93 40.5t37 101.5zM309 -236q-35 0 -59 23.5
t-24 57.5t24 57.5t59 23.5t59 -23.5t24 -57.5t-24 -57.5t-59 -23.5z" />
    <glyph glyph-name="uni1ECE" unicode="&#x1ece;" horiz-adv-x="831" 
d="M414 -14q-160 0 -265.5 104t-105.5 259q0 154 107 259.5t266 105.5t265.5 -104.5t106.5 -258.5q0 -155 -107 -260t-267 -105zM413 568q-87 0 -146 -62.5t-59 -154.5q0 -93 59.5 -156t147.5 -63q87 0 147.5 63t60.5 154q0 92 -61 155.5t-149 63.5zM559 894
q0 -34 -26.5 -62t-102.5 -71l-70 21v2q58 40 75.5 55.5t17.5 28.5q0 10 -9.5 16t-26.5 6q-24 0 -54 -10t-63 -29h-2v88q34 19 69 28t70 9q57 0 89.5 -22t32.5 -60z" />
    <glyph glyph-name="uni1ECF" unicode="&#x1ecf;" horiz-adv-x="619" 
d="M309 -14q-121 0 -198.5 77.5t-77.5 191.5q0 113 79 191.5t198 78.5q121 0 198.5 -77t77.5 -191q0 -113 -79 -192t-198 -79zM439 257q0 60 -36.5 99.5t-92.5 39.5q-57 0 -93.5 -40t-36.5 -101q0 -60 37 -100t92 -40q56 0 93 40.5t37 101.5zM450 746q0 -36 -27 -70
t-102 -85l-70 22v2q55 47 74 67t19 36q0 13 -9.5 20t-25.5 7q-24 0 -55 -12.5t-63 -35.5h-2v99q32 23 68 34.5t74 11.5q55 0 87 -26t32 -70z" />
    <glyph glyph-name="uni1ED0" unicode="&#x1ed0;" horiz-adv-x="831" 
d="M414 -14q-160 0 -265.5 104t-105.5 259q0 154 107 259.5t266 105.5t265.5 -104.5t106.5 -258.5q0 -155 -107 -260t-267 -105zM413 568q-87 0 -146 -62.5t-59 -154.5q0 -93 59.5 -156t147.5 -63q87 0 147.5 63t60.5 154q0 92 -61 155.5t-149 63.5zM632 879h-77l65 126h174
v-2zM615 765h-87l-113 58l-112 -58h-88v2l127 133h146l127 -133v-2z" />
    <glyph glyph-name="uni1ED1" unicode="&#x1ed1;" horiz-adv-x="619" 
d="M309 -14q-121 0 -198.5 77.5t-77.5 191.5q0 113 79 191.5t198 78.5q121 0 198.5 -77t77.5 -191q0 -113 -79 -192t-198 -79zM439 257q0 60 -36.5 99.5t-92.5 39.5q-57 0 -93.5 -40t-36.5 -101q0 -60 37 -100t92 -40q56 0 93 40.5t37 101.5zM516 718h-64l61 142h147v-2z
M505 592h-76l-119 64l-120 -64h-77v2l128 142h136l128 -142v-2z" />
    <glyph glyph-name="uni1ED2" unicode="&#x1ed2;" horiz-adv-x="831" 
d="M414 -14q-160 0 -265.5 104t-105.5 259q0 154 107 259.5t266 105.5t265.5 -104.5t106.5 -258.5q0 -155 -107 -260t-267 -105zM413 568q-87 0 -146 -62.5t-59 -154.5q0 -93 59.5 -156t147.5 -63q87 0 147.5 63t60.5 154q0 92 -61 155.5t-149 63.5zM656 1005l65 -126h-77
l-162 124v2h174zM615 765h-87l-113 58l-112 -58h-88v2l127 133h146l127 -133v-2z" />
    <glyph glyph-name="uni1ED3" unicode="&#x1ed3;" horiz-adv-x="619" 
d="M309 -14q-121 0 -198.5 77.5t-77.5 191.5q0 113 79 191.5t198 78.5q121 0 198.5 -77t77.5 -191q0 -113 -79 -192t-198 -79zM439 257q0 60 -36.5 99.5t-92.5 39.5q-57 0 -93.5 -40t-36.5 -101q0 -60 37 -100t92 -40q56 0 93 40.5t37 101.5zM520 860l61 -142h-64l-144 140
v2h147zM505 592h-76l-119 64l-120 -64h-77v2l128 142h136l128 -142v-2z" />
    <glyph glyph-name="uni1ED4" unicode="&#x1ed4;" horiz-adv-x="831" 
d="M414 -14q-160 0 -265.5 104t-105.5 259q0 154 107 259.5t266 105.5t265.5 -104.5t106.5 -258.5q0 -155 -107 -260t-267 -105zM413 568q-87 0 -146 -62.5t-59 -154.5q0 -93 59.5 -156t147.5 -63q87 0 147.5 63t60.5 154q0 92 -61 155.5t-149 63.5zM729 984q0 -27 -22 -50
t-88 -60l-61 18v2q48 32 63.5 45t15.5 23q0 8 -7.5 12.5t-20.5 4.5q-20 0 -46.5 -8t-54.5 -23h-2v73q29 16 59 23.5t63 7.5q46 0 73.5 -18.5t27.5 -49.5zM615 765h-87l-113 58l-112 -58h-88v2l127 133h146l127 -133v-2z" />
    <glyph glyph-name="uni1ED5" unicode="&#x1ed5;" horiz-adv-x="619" 
d="M309 -14q-121 0 -198.5 77.5t-77.5 191.5q0 113 79 191.5t198 78.5q121 0 198.5 -77t77.5 -191q0 -113 -79 -192t-198 -79zM439 257q0 60 -36.5 99.5t-92.5 39.5q-57 0 -93.5 -40t-36.5 -101q0 -60 37 -100t92 -40q56 0 93 40.5t37 101.5zM640 816q0 -27 -21.5 -52
t-86.5 -67l-60 19v2q49 36 64 50.5t15 26.5q0 10 -8 15.5t-21 5.5q-19 0 -44 -9t-56 -27h-1v73q27 18 57 27t62 9q46 0 73 -20t27 -53zM505 592h-76l-119 64l-120 -64h-77v2l128 142h136l128 -142v-2z" />
    <glyph glyph-name="uni1ED6" unicode="&#x1ed6;" horiz-adv-x="831" 
d="M414 -14q-160 0 -265.5 104t-105.5 259q0 154 107 259.5t266 105.5t265.5 -104.5t106.5 -258.5q0 -155 -107 -260t-267 -105zM413 568q-87 0 -146 -62.5t-59 -154.5q0 -93 59.5 -156t147.5 -63q87 0 147.5 63t60.5 154q0 92 -61 155.5t-149 63.5zM434 1050q29 -14 41 -18
t20 -4q13 0 25.5 9.5t42.5 43.5l49 -38q-44 -64 -68.5 -85t-54.5 -21q-12 0 -29 5.5t-52 22.5q-29 14 -41 18t-20 4q-13 0 -25 -9t-43 -43l-49 37q44 64 68.5 85t54.5 21q12 0 29 -5.5t52 -22.5zM615 765h-87l-113 58l-112 -58h-88v2l127 133h146l127 -133v-2z" />
    <glyph glyph-name="uni1ED7" unicode="&#x1ed7;" horiz-adv-x="619" 
d="M309 -14q-121 0 -198.5 77.5t-77.5 191.5q0 113 79 191.5t198 78.5q121 0 198.5 -77t77.5 -191q0 -113 -79 -192t-198 -79zM439 257q0 60 -36.5 99.5t-92.5 39.5q-57 0 -93.5 -40t-36.5 -101q0 -60 37 -100t92 -40q56 0 93 40.5t37 101.5zM323 886q27 -13 38.5 -16.5
t18.5 -3.5q13 0 25 9t38 39l51 -35q-42 -64 -65.5 -85t-52.5 -21q-11 0 -26.5 5t-48.5 20q-27 12 -38.5 16t-18.5 4q-13 0 -24.5 -8.5t-38.5 -37.5l-51 34q42 63 65 83.5t53 20.5q11 0 26.5 -5t48.5 -19zM505 592h-76l-119 64l-120 -64h-77v2l128 142h136l128 -142v-2z" />
    <glyph glyph-name="uni1ED8" unicode="&#x1ed8;" horiz-adv-x="831" 
d="M414 -14q-160 0 -265.5 104t-105.5 259q0 154 107 259.5t266 105.5t265.5 -104.5t106.5 -258.5q0 -155 -107 -260t-267 -105zM413 568q-87 0 -146 -62.5t-59 -154.5q0 -93 59.5 -156t147.5 -63q87 0 147.5 63t60.5 154q0 92 -61 155.5t-149 63.5zM615 765h-86l-114 68
l-114 -68h-86v2l130 155h140l130 -155v-2zM415 -236q-35 0 -59 23.5t-24 57.5t24 57.5t59 23.5t59 -23.5t24 -57.5t-24 -57.5t-59 -23.5z" />
    <glyph glyph-name="uni1ED9" unicode="&#x1ed9;" horiz-adv-x="619" 
d="M309 -14q-121 0 -198.5 77.5t-77.5 191.5q0 113 79 191.5t198 78.5q121 0 198.5 -77t77.5 -191q0 -113 -79 -192t-198 -79zM439 257q0 60 -36.5 99.5t-92.5 39.5q-57 0 -93.5 -40t-36.5 -101q0 -60 37 -100t92 -40q56 0 93 40.5t37 101.5zM505 592h-75l-120 86l-121 -86
h-76v2l132 183h128l132 -183v-2zM309 -236q-35 0 -59 23.5t-24 57.5t24 57.5t59 23.5t59 -23.5t24 -57.5t-24 -57.5t-59 -23.5z" />
    <glyph glyph-name="uni1EDA" unicode="&#x1eda;" horiz-adv-x="831" 
d="M660 617q62 -49 95 -119t33 -151q0 -153 -107 -257t-267 -104q-159 0 -265 104t-106 257q0 154 107 257.5t270 103.5q17 0 34.5 -1t49.5 -3q27 -3 41 -3.5t26 -0.5q55 0 81 21t26 66q0 8 -1 21.5t-4 32.5h115q4 -15 6.5 -32t2.5 -34q0 -63 -34.5 -103t-102.5 -55z
M413 565q-87 0 -146 -62t-59 -153q0 -92 59.5 -155t147.5 -63q87 0 147.5 62.5t60.5 153.5t-60.5 154t-149.5 63zM452 770h-82l82 157h193v-2z" />
    <glyph glyph-name="uni1EDB" unicode="&#x1edb;" horiz-adv-x="619" 
d="M500 443q42 -37 64 -86.5t22 -105.5q0 -110 -79 -187.5t-198 -77.5q-121 0 -198.5 77t-77.5 189q0 114 79.5 190.5t203.5 76.5q10 0 21 -0.5t31 -2.5q20 -1 30.5 -1.5t19.5 -0.5q43 0 63 16t20 50q0 10 -1 20t-4 27h101q4 -13 6.5 -28t2.5 -30q0 -49 -27 -81.5t-79 -44.5
zM439 255q0 60 -36.5 98.5t-92.5 38.5q-57 0 -93.5 -39t-36.5 -99t36.5 -99.5t92.5 -39.5q57 0 93.5 40t36.5 100zM341 602h-72l85 185h181v-2z" />
    <glyph glyph-name="uni1EDC" unicode="&#x1edc;" horiz-adv-x="831" 
d="M660 617q62 -49 95 -119t33 -151q0 -153 -107 -257t-267 -104q-159 0 -265 104t-106 257q0 154 107 257.5t270 103.5q17 0 34.5 -1t49.5 -3q27 -3 41 -3.5t26 -0.5q55 0 81 21t26 66q0 8 -1 21.5t-4 32.5h115q4 -15 6.5 -32t2.5 -34q0 -63 -34.5 -103t-102.5 -55z
M413 565q-87 0 -146 -62t-59 -153q0 -92 59.5 -155t147.5 -63q87 0 147.5 62.5t60.5 153.5t-60.5 154t-149.5 63zM378 927l82 -157h-82l-193 155v2h193z" />
    <glyph glyph-name="uni1EDD" unicode="&#x1edd;" horiz-adv-x="619" 
d="M500 443q42 -37 64 -86.5t22 -105.5q0 -110 -79 -187.5t-198 -77.5q-121 0 -198.5 77t-77.5 189q0 114 79.5 190.5t203.5 76.5q10 0 21 -0.5t31 -2.5q20 -1 30.5 -1.5t19.5 -0.5q43 0 63 16t20 50q0 10 -1 20t-4 27h101q4 -13 6.5 -28t2.5 -30q0 -49 -27 -81.5t-79 -44.5
zM439 255q0 60 -36.5 98.5t-92.5 38.5q-57 0 -93.5 -39t-36.5 -99t36.5 -99.5t92.5 -39.5q57 0 93.5 40t36.5 100zM264 787l85 -185h-72l-194 183v2h181z" />
    <glyph glyph-name="uni1EDE" unicode="&#x1ede;" horiz-adv-x="831" 
d="M660 617q62 -49 95 -119t33 -151q0 -153 -107 -257t-267 -104q-159 0 -265 104t-106 257q0 154 107 257.5t270 103.5q17 0 34.5 -1t49.5 -3q27 -3 41 -3.5t26 -0.5q55 0 81 21t26 66q0 8 -1 21.5t-4 32.5h115q4 -15 6.5 -32t2.5 -34q0 -63 -34.5 -103t-102.5 -55z
M413 565q-87 0 -146 -62t-59 -153q0 -92 59.5 -155t147.5 -63q87 0 147.5 62.5t60.5 153.5t-60.5 154t-149.5 63zM559 894q0 -34 -26.5 -62t-102.5 -71l-70 21v2q58 40 75.5 55.5t17.5 28.5q0 10 -9.5 16t-26.5 6q-24 0 -54 -10t-63 -29h-2v88q34 19 69 28t70 9
q57 0 89.5 -22t32.5 -60z" />
    <glyph glyph-name="uni1EDF" unicode="&#x1edf;" horiz-adv-x="619" 
d="M500 443q42 -37 64 -86.5t22 -105.5q0 -110 -79 -187.5t-198 -77.5q-121 0 -198.5 77t-77.5 189q0 114 79.5 190.5t203.5 76.5q10 0 21 -0.5t31 -2.5q20 -1 30.5 -1.5t19.5 -0.5q43 0 63 16t20 50q0 10 -1 20t-4 27h101q4 -13 6.5 -28t2.5 -30q0 -49 -27 -81.5t-79 -44.5
zM439 255q0 60 -36.5 98.5t-92.5 38.5q-57 0 -93.5 -39t-36.5 -99t36.5 -99.5t92.5 -39.5q57 0 93.5 40t36.5 100zM450 746q0 -36 -27 -70t-102 -85l-70 22v2q55 47 74 67t19 36q0 13 -9.5 20t-25.5 7q-24 0 -55 -12.5t-63 -35.5h-2v99q32 23 68 34.5t74 11.5q55 0 87 -26
t32 -70z" />
    <glyph glyph-name="uni1EE0" unicode="&#x1ee0;" horiz-adv-x="831" 
d="M422 898q31 -16 44 -20.5t22 -4.5q15 0 27.5 9.5t48.5 47.5l56 -44q-51 -73 -79 -96.5t-62 -23.5q-14 0 -32 6t-55 24q-31 15 -43.5 19.5t-21.5 4.5q-15 0 -27.5 -9t-48.5 -47l-56 44q52 73 79.5 96.5t61.5 23.5q13 0 31 -6t55 -24zM660 617q62 -49 95 -119t33 -151
q0 -153 -107 -257t-267 -104q-159 0 -265 104t-106 257q0 154 107 257.5t270 103.5q17 0 34.5 -1t49.5 -3q27 -3 41 -3.5t26 -0.5q55 0 81 21t26 66q0 8 -1 21.5t-4 32.5h115q4 -15 6.5 -32t2.5 -34q0 -63 -34.5 -103t-102.5 -55zM413 565q-87 0 -146 -62t-59 -153
q0 -92 59.5 -155t147.5 -63q87 0 147.5 62.5t60.5 153.5t-60.5 154t-149.5 63z" />
    <glyph glyph-name="uni1EE1" unicode="&#x1ee1;" horiz-adv-x="619" 
d="M307 734q29 -17 41 -22t19 -5q12 0 22.5 10t45.5 56l57 -35q-45 -84 -71.5 -112.5t-59.5 -28.5q-12 0 -29.5 7t-53.5 29q-29 18 -41 23t-19 5q-12 0 -22 -9t-47 -57l-57 34q46 84 72 112.5t59 28.5q12 0 29.5 -7t54.5 -29zM500 443q42 -37 64 -86.5t22 -105.5
q0 -110 -79 -187.5t-198 -77.5q-121 0 -198.5 77t-77.5 189q0 114 79.5 190.5t203.5 76.5q10 0 21 -0.5t31 -2.5q20 -1 30.5 -1.5t19.5 -0.5q43 0 63 16t20 50q0 10 -1 20t-4 27h101q4 -13 6.5 -28t2.5 -30q0 -49 -27 -81.5t-79 -44.5zM439 255q0 60 -36.5 98.5t-92.5 38.5
q-57 0 -93.5 -39t-36.5 -99t36.5 -99.5t92.5 -39.5q57 0 93.5 40t36.5 100z" />
    <glyph glyph-name="uni1EE2" unicode="&#x1ee2;" horiz-adv-x="831" 
d="M660 617q62 -49 95 -119t33 -151q0 -153 -107 -257t-267 -104q-159 0 -265 104t-106 257q0 154 107 257.5t270 103.5q17 0 34.5 -1t49.5 -3q27 -3 41 -3.5t26 -0.5q55 0 81 21t26 66q0 8 -1 21.5t-4 32.5h115q4 -15 6.5 -32t2.5 -34q0 -63 -34.5 -103t-102.5 -55z
M413 565q-87 0 -146 -62t-59 -153q0 -92 59.5 -155t147.5 -63q87 0 147.5 62.5t60.5 153.5t-60.5 154t-149.5 63zM415 -236q-35 0 -59 23.5t-24 57.5t24 57.5t59 23.5t59 -23.5t24 -57.5t-24 -57.5t-59 -23.5z" />
    <glyph glyph-name="uni1EE3" unicode="&#x1ee3;" horiz-adv-x="619" 
d="M500 443q42 -37 64 -86.5t22 -105.5q0 -110 -79 -187.5t-198 -77.5q-121 0 -198.5 77t-77.5 189q0 114 79.5 190.5t203.5 76.5q10 0 21 -0.5t31 -2.5q20 -1 30.5 -1.5t19.5 -0.5q43 0 63 16t20 50q0 10 -1 20t-4 27h101q4 -13 6.5 -28t2.5 -30q0 -49 -27 -81.5t-79 -44.5
zM439 255q0 60 -36.5 98.5t-92.5 38.5q-57 0 -93.5 -39t-36.5 -99t36.5 -99.5t92.5 -39.5q57 0 93.5 40t36.5 100zM309 -236q-35 0 -59 23.5t-24 57.5t24 57.5t59 23.5t59 -23.5t24 -57.5t-24 -57.5t-59 -23.5z" />
    <glyph glyph-name="uni1EE4" unicode="&#x1ee4;" horiz-adv-x="787" 
d="M393 -13q-153 0 -237 86t-84 243v384h161v-387q0 -86 42.5 -133.5t119.5 -47.5t119.5 47.5t42.5 135.5v385h158v-384q0 -157 -84 -243t-238 -86zM393 -236q-35 0 -59 23.5t-24 57.5t24 57.5t59 23.5t59 -23.5t24 -57.5t-24 -57.5t-59 -23.5z" />
    <glyph glyph-name="uni1EE5" unicode="&#x1ee5;" horiz-adv-x="624" 
d="M557 0h-147v92q-41 -54 -83 -78.5t-96 -24.5q-79 0 -125.5 53t-46.5 144v325h152v-294q0 -46 22 -71t63 -25q28 0 53 11.5t57 38.5v340h151v-511zM309 -231q-35 0 -59 23.5t-24 57.5t24 57.5t59 23.5t59 -23.5t24 -57.5t-24 -57.5t-59 -23.5z" />
    <glyph glyph-name="uni1EE6" unicode="&#x1ee6;" horiz-adv-x="787" 
d="M393 -13q-153 0 -237 86t-84 243v384h161v-387q0 -86 42.5 -133.5t119.5 -47.5t119.5 47.5t42.5 135.5v385h158v-384q0 -157 -84 -243t-238 -86zM537 881q0 -34 -26.5 -62t-102.5 -71l-70 21v2q58 40 75.5 55.5t17.5 28.5q0 10 -9.5 16t-26.5 6q-24 0 -54 -10t-63 -29h-2
v88q34 19 69 28t70 9q57 0 89.5 -22t32.5 -60z" />
    <glyph glyph-name="uni1EE7" unicode="&#x1ee7;" horiz-adv-x="624" 
d="M557 0h-147v92q-41 -54 -83 -78.5t-96 -24.5q-79 0 -125.5 53t-46.5 144v325h152v-294q0 -46 22 -71t63 -25q28 0 53 11.5t57 38.5v340h151v-511zM450 738q0 -36 -27 -70t-102 -85l-70 22v2q55 47 74 67t19 36q0 13 -9.5 20t-25.5 7q-24 0 -55 -12.5t-63 -35.5h-2v99
q32 23 68 34.5t74 11.5q55 0 87 -26t32 -70z" />
    <glyph glyph-name="uni1EE8" unicode="&#x1ee8;" horiz-adv-x="825" 
d="M395 132q77 0 119.5 47.5t42.5 135.5v385h63q55 0 80.5 21t25.5 66q0 13 -0.5 24t-3.5 30h115q4 -15 6.5 -32t2.5 -34q0 -62 -33 -101t-98 -56v-302q0 -157 -84 -243t-238 -86q-153 0 -237 86t-84 243v384h161v-387q0 -86 42.5 -133.5t119.5 -47.5zM430 757h-82l82 157
h193v-2z" />
    <glyph glyph-name="uni1EE9" unicode="&#x1ee9;" horiz-adv-x="646" 
d="M296 121q28 0 53 11.5t57 38.5v340h66q48 0 69.5 15t21.5 48q0 12 -2.5 27.5l-2.5 15.5h102q4 -12 6 -25.5t2 -27.5q0 -50 -28 -81.5t-83 -43.5v-439h-147v92q-41 -54 -83 -78.5t-96 -24.5q-79 0 -125.5 53t-46.5 144v325h152v-294q0 -46 22 -71t63 -25zM341 594h-72
l85 185h181v-2z" />
    <glyph glyph-name="uni1EEA" unicode="&#x1eea;" horiz-adv-x="825" 
d="M395 132q77 0 119.5 47.5t42.5 135.5v385h63q55 0 80.5 21t25.5 66q0 13 -0.5 24t-3.5 30h115q4 -15 6.5 -32t2.5 -34q0 -62 -33 -101t-98 -56v-302q0 -157 -84 -243t-238 -86q-153 0 -237 86t-84 243v384h161v-387q0 -86 42.5 -133.5t119.5 -47.5zM356 914l82 -157h-82
l-193 155v2h193z" />
    <glyph glyph-name="uni1EEB" unicode="&#x1eeb;" horiz-adv-x="646" 
d="M296 121q28 0 53 11.5t57 38.5v340h66q48 0 69.5 15t21.5 48q0 12 -2.5 27.5l-2.5 15.5h102q4 -12 6 -25.5t2 -27.5q0 -50 -28 -81.5t-83 -43.5v-439h-147v92q-41 -54 -83 -78.5t-96 -24.5q-79 0 -125.5 53t-46.5 144v325h152v-294q0 -46 22 -71t63 -25zM264 779l85 -185
h-72l-194 183v2h181z" />
    <glyph glyph-name="uni1EEC" unicode="&#x1eec;" horiz-adv-x="825" 
d="M395 132q77 0 119.5 47.5t42.5 135.5v385h63q55 0 80.5 21t25.5 66q0 13 -0.5 24t-3.5 30h115q4 -15 6.5 -32t2.5 -34q0 -62 -33 -101t-98 -56v-302q0 -157 -84 -243t-238 -86q-153 0 -237 86t-84 243v384h161v-387q0 -86 42.5 -133.5t119.5 -47.5zM537 881
q0 -34 -26.5 -62t-102.5 -71l-70 21v2q58 40 75.5 55.5t17.5 28.5q0 10 -9.5 16t-26.5 6q-24 0 -54 -10t-63 -29h-2v88q34 19 69 28t70 9q57 0 89.5 -22t32.5 -60z" />
    <glyph glyph-name="uni1EED" unicode="&#x1eed;" horiz-adv-x="646" 
d="M296 121q28 0 53 11.5t57 38.5v340h66q48 0 69.5 15t21.5 48q0 12 -2.5 27.5l-2.5 15.5h102q4 -12 6 -25.5t2 -27.5q0 -50 -28 -81.5t-83 -43.5v-439h-147v92q-41 -54 -83 -78.5t-96 -24.5q-79 0 -125.5 53t-46.5 144v325h152v-294q0 -46 22 -71t63 -25zM450 738
q0 -36 -27 -70t-102 -85l-70 22v2q55 47 74 67t19 36q0 13 -9.5 20t-25.5 7q-24 0 -55 -12.5t-63 -35.5h-2v99q32 23 68 34.5t74 11.5q55 0 87 -26t32 -70z" />
    <glyph glyph-name="uni1EEE" unicode="&#x1eee;" horiz-adv-x="825" 
d="M395 132q77 0 119.5 47.5t42.5 135.5v385h63q55 0 80.5 21t25.5 66q0 13 -0.5 24t-3.5 30h115q4 -15 6.5 -32t2.5 -34q0 -62 -33 -101t-98 -56v-302q0 -157 -84 -243t-238 -86q-153 0 -237 86t-84 243v384h161v-387q0 -86 42.5 -133.5t119.5 -47.5zM412 892
q31 -15 43.5 -19.5t21.5 -4.5q15 0 27.5 9.5t48.5 47.5l57 -44q-51 -72 -79 -96t-63 -24q-14 0 -32 6t-55 24q-30 15 -42.5 19.5t-21.5 4.5q-15 0 -27.5 -9t-48.5 -47l-57 44q52 72 80 96t62 24q13 0 31 -6t55 -25z" />
    <glyph glyph-name="uni1EEF" unicode="&#x1eef;" horiz-adv-x="646" 
d="M296 121q28 0 53 11.5t57 38.5v340h66q48 0 69.5 15t21.5 48q0 12 -2.5 27.5l-2.5 15.5h102q4 -12 6 -25.5t2 -27.5q0 -50 -28 -81.5t-83 -43.5v-439h-147v92q-41 -54 -83 -78.5t-96 -24.5q-79 0 -125.5 53t-46.5 144v325h152v-294q0 -46 22 -71t63 -25zM321 734
q31 -18 43.5 -23t20.5 -5q12 0 23.5 9.5t48.5 56.5l64 -41q-49 -84 -76.5 -111.5t-61.5 -27.5q-12 0 -30 7t-56 29q-31 17 -43.5 22.5t-20.5 5.5q-12 0 -23.5 -9.5t-48.5 -56.5l-64 41q48 83 75.5 110.5t62.5 27.5q12 0 30 -7t56 -28z" />
    <glyph glyph-name="uni1EF0" unicode="&#x1ef0;" horiz-adv-x="825" 
d="M395 132q77 0 119.5 47.5t42.5 135.5v385h63q55 0 80.5 21t25.5 66q0 13 -0.5 24t-3.5 30h115q4 -15 6.5 -32t2.5 -34q0 -62 -33 -101t-98 -56v-302q0 -157 -84 -243t-238 -86q-153 0 -237 86t-84 243v384h161v-387q0 -86 42.5 -133.5t119.5 -47.5zM393 -236
q-35 0 -59 23.5t-24 57.5t24 57.5t59 23.5t59 -23.5t24 -57.5t-24 -57.5t-59 -23.5z" />
    <glyph glyph-name="uni1EF1" unicode="&#x1ef1;" horiz-adv-x="646" 
d="M296 121q28 0 53 11.5t57 38.5v340h66q48 0 69.5 15t21.5 48q0 12 -2.5 27.5l-2.5 15.5h102q4 -12 6 -25.5t2 -27.5q0 -50 -28 -81.5t-83 -43.5v-439h-147v92q-41 -54 -83 -78.5t-96 -24.5q-79 0 -125.5 53t-46.5 144v325h152v-294q0 -46 22 -71t63 -25zM309 -231
q-35 0 -59 23.5t-24 57.5t24 57.5t59 23.5t59 -23.5t24 -57.5t-24 -57.5t-59 -23.5z" />
    <glyph glyph-name="Ygrave" unicode="&#x1ef2;" horiz-adv-x="704" 
d="M520 700h180l-267 -412v-288h-161v287l-267 413h187l164 -268zM315 917l82 -157h-82l-193 155v2h193z" />
    <glyph glyph-name="ygrave" unicode="&#x1ef3;" horiz-adv-x="592" 
d="M579 511l-206 -519q-36 -95 -92.5 -141t-136.5 -46q-24 0 -45.5 4t-42.5 13l-29 139l2 1q22 -11 42.5 -16.5t42.5 -5.5q42 0 68 19t44 61v1l-213 490h164l126 -321l115 321h161zM254 777l85 -185h-72l-194 183v2h181z" />
    <glyph glyph-name="uni1EF4" unicode="&#x1ef4;" horiz-adv-x="704" 
d="M520 700h180l-267 -412v-288h-161v287l-267 413h187l164 -268zM352 -231q-35 0 -59 23.5t-24 57.5t24 57.5t59 23.5t59 -23.5t24 -57.5t-24 -57.5t-59 -23.5z" />
    <glyph glyph-name="uni1EF5" unicode="&#x1ef5;" horiz-adv-x="592" 
d="M579 511l-206 -519q-36 -95 -92.5 -141t-136.5 -46q-24 0 -45.5 4t-42.5 13l-29 139l2 1q22 -11 42.5 -16.5t42.5 -5.5q42 0 68 19t44 61v1l-213 490h164l126 -321l115 321h161zM499 -219q-35 0 -59 23.5t-24 57.5t24 57.5t59 23.5t59 -23.5t24 -57.5t-24 -57.5
t-59 -23.5z" />
    <glyph glyph-name="uni1EF6" unicode="&#x1ef6;" horiz-adv-x="704" 
d="M520 700h180l-267 -412v-288h-161v287l-267 413h187l164 -268zM496 884q0 -34 -26.5 -62t-102.5 -71l-70 21v2q58 40 75.5 55.5t17.5 28.5q0 10 -9.5 16t-26.5 6q-24 0 -54 -10t-63 -29h-2v88q34 19 69 28t70 9q57 0 89.5 -22t32.5 -60z" />
    <glyph glyph-name="uni1EF7" unicode="&#x1ef7;" horiz-adv-x="592" 
d="M579 511l-206 -519q-36 -95 -92.5 -141t-136.5 -46q-24 0 -45.5 4t-42.5 13l-29 139l2 1q22 -11 42.5 -16.5t42.5 -5.5q42 0 68 19t44 61v1l-213 490h164l126 -321l115 321h161zM440 736q0 -36 -27 -70t-102 -85l-70 22v2q55 47 74 67t19 36q0 13 -9.5 20t-25.5 7
q-24 0 -55 -12.5t-63 -35.5h-2v99q32 23 68 34.5t74 11.5q55 0 87 -26t32 -70z" />
    <glyph glyph-name="uni1EF8" unicode="&#x1ef8;" horiz-adv-x="704" 
d="M520 700h180l-267 -412v-288h-161v287l-267 413h187l164 -268zM371 892q31 -15 43.5 -19.5t21.5 -4.5q15 0 27.5 9.5t48.5 47.5l57 -44q-51 -72 -79 -96t-63 -24q-14 0 -32 6t-55 24q-30 15 -42.5 19.5t-21.5 4.5q-15 0 -27.5 -9t-48.5 -47l-57 44q52 72 80 96t62 24
q13 0 31 -6t55 -25z" />
    <glyph glyph-name="uni1EF9" unicode="&#x1ef9;" horiz-adv-x="592" 
d="M579 511l-206 -519q-36 -95 -92.5 -141t-136.5 -46q-24 0 -45.5 4t-42.5 13l-29 139l2 1q22 -11 42.5 -16.5t42.5 -5.5q42 0 68 19t44 61v1l-213 490h164l126 -321l115 321h161zM311 734q31 -18 43.5 -23t20.5 -5q12 0 23.5 9.5t48.5 56.5l64 -41q-49 -84 -76.5 -111.5
t-61.5 -27.5q-12 0 -30 7t-56 29q-31 17 -43.5 22.5t-20.5 5.5q-12 0 -23.5 -9.5t-48.5 -56.5l-64 41q48 83 75.5 110.5t62.5 27.5q12 0 30 -7t56 -28z" />
    <glyph glyph-name="uni2002" unicode="&#x2002;" horiz-adv-x="500" 
 />
    <glyph glyph-name="uni2003" unicode="&#x2003;" horiz-adv-x="1000" 
 />
    <glyph glyph-name="uni2004" unicode="&#x2004;" horiz-adv-x="333" 
 />
    <glyph glyph-name="uni2005" unicode="&#x2005;" horiz-adv-x="250" 
 />
    <glyph glyph-name="uni2007" unicode="&#x2007;" horiz-adv-x="600" 
 />
    <glyph glyph-name="uni2009" unicode="&#x2009;" horiz-adv-x="125" 
 />
    <glyph glyph-name="uni200A" unicode="&#x200a;" horiz-adv-x="42" 
 />
    <glyph glyph-name="uni2011" unicode="&#x2011;" horiz-adv-x="400" 
d="M53 211v135h294v-135h-294z" />
    <glyph glyph-name="figuredash" unicode="&#x2012;" horiz-adv-x="600" 
d="M533 421v-131h-466v131h466z" />
    <glyph glyph-name="endash" unicode="&#x2013;" horiz-adv-x="560" 
d="M53 213v131h454v-131h-454z" />
    <glyph glyph-name="emdash" unicode="&#x2014;" horiz-adv-x="940" 
d="M53 213v131h834v-131h-834z" />
    <glyph glyph-name="uni2015" unicode="&#x2015;" horiz-adv-x="940" 
d="M53 213v131h834v-131h-834z" />
    <glyph glyph-name="quoteleft" unicode="&#x2018;" horiz-adv-x="257" 
d="M166 531q0 -26 10 -52t50 -91h-158q-20 33 -29 59t-9 54q0 45 36 93.5t121 114.5l46 -29q-41 -59 -54 -89.5t-13 -59.5z" />
    <glyph glyph-name="quoteright" unicode="&#x2019;" horiz-adv-x="257" 
d="M91 557q0 26 -9.5 50.5t-50.5 92.5h158q20 -33 29 -59t9 -54q0 -45 -36 -93.5t-121 -114.5l-46 29q41 59 54 89.5t13 59.5z" />
    <glyph glyph-name="quotesinglbase" unicode="&#x201a;" horiz-adv-x="243" 
d="M77 16q0 26 -9.5 50.5t-50.5 92.5h158q20 -33 29 -59t9 -54q0 -45 -36 -93.5t-121 -114.5l-46 29q41 59 54 89.5t13 59.5z" />
    <glyph glyph-name="uni201B" unicode="&#x201b;" horiz-adv-x="257" 
d="M68 700h158q-41 -68 -50.5 -92.5t-9.5 -50.5q0 -29 13 -59.5t54 -89.5l-46 -29q-85 66 -121 114.5t-36 93.5q0 28 9 54t29 59z" />
    <glyph glyph-name="quotedblleft" unicode="&#x201c;" horiz-adv-x="482" 
d="M162 531q0 -26 10 -52t50 -91h-154q-20 33 -29 59t-9 54q0 45 36 93.5t121 114.5l42 -29q-41 -59 -54 -89.5t-13 -59.5zM391 531q0 -26 10 -52t50 -91h-154q-20 31 -29 57.5t-9 55.5q0 45 36 93.5t121 114.5l42 -29q-41 -59 -54 -89.5t-13 -59.5z" />
    <glyph glyph-name="quotedblright" unicode="&#x201d;" horiz-adv-x="482" 
d="M320 557q0 26 -9.5 50.5t-50.5 92.5h154q20 -33 29 -59t9 -54q0 -45 -36 -93.5t-121 -114.5l-42 29q41 59 54 89.5t13 59.5zM91 557q0 26 -9.5 50.5t-50.5 92.5h154q20 -31 29 -57.5t9 -55.5q0 -45 -36 -93.5t-121 -114.5l-42 29q41 59 54 89.5t13 59.5z" />
    <glyph glyph-name="quotedblbase" unicode="&#x201e;" horiz-adv-x="468" 
d="M306 16q0 26 -9.5 50.5t-50.5 92.5h154q20 -33 29 -59t9 -54q0 -45 -36 -93.5t-121 -114.5l-42 29q41 59 54 89.5t13 59.5zM77 16q0 26 -9.5 50.5t-50.5 92.5h154q20 -31 29 -57.5t9 -55.5q0 -45 -36 -93.5t-121 -114.5l-42 29q41 59 54 89.5t13 59.5z" />
    <glyph glyph-name="uni201F" unicode="&#x201f;" horiz-adv-x="482" 
d="M68 700h154q-41 -68 -50.5 -92.5t-9.5 -50.5q0 -29 13 -59.5t54 -89.5l-42 -29q-85 66 -121 114.5t-36 93.5q0 28 9 54t29 59zM297 700h154q-41 -68 -50.5 -92.5t-9.5 -50.5q0 -29 13 -59.5t54 -89.5l-42 -29q-85 66 -121 114.5t-36 93.5q0 29 9 55.5t29 57.5z" />
    <glyph glyph-name="dagger" unicode="&#x2020;" horiz-adv-x="532" 
d="M253 534l-72 170h170l-72 -170h-26zM224 505v-26l-170 -72v170zM308 505l170 72v-170l-170 72v26zM251 -10l-67 298l69 162h26l69 -162l-67 -298h-30z" />
    <glyph glyph-name="daggerdbl" unicode="&#x2021;" horiz-adv-x="532" 
d="M253 534l-72 170h170l-72 -170h-26zM224 509v-26l-170 -70v168zM308 509l170 72v-168l-170 70v26zM253 242l-69 108l69 108h26l69 -108l-69 -108h-26zM308 217l170 70v-168l-170 72v26zM224 217v-26l-170 -72v168zM279 166l72 -170h-170l72 170h26z" />
    <glyph glyph-name="bullet" unicode="&#x2022;" horiz-adv-x="539" 
d="M270 178q-74 0 -126 52t-52 125t52 125t126 52q73 0 125 -52t52 -125t-52 -125t-125 -52z" />
    <glyph glyph-name="uni2025" unicode="&#x2025;" horiz-adv-x="600" 
d="M150 -10q-38 0 -65 27t-27 65q0 37 27 64t65 27t65 -27t27 -64q0 -38 -27 -65t-65 -27zM450 -10q-38 0 -65 27t-27 65q0 37 27 64t65 27t65 -27t27 -64q0 -38 -27 -65t-65 -27z" />
    <glyph glyph-name="ellipsis" unicode="&#x2026;" horiz-adv-x="694" 
d="M117 -10q-37 0 -63 26.5t-26 63.5t26 63t63 26t63.5 -26.5t26.5 -62.5q0 -37 -26.5 -63.5t-63.5 -26.5zM347 -10q-37 0 -63.5 26.5t-26.5 63.5q0 36 26.5 62.5t63.5 26.5t63 -26t26 -63t-26 -63.5t-63 -26.5zM576 -10q-37 0 -63 26.5t-26 63.5t26 63t63 26t63.5 -26.5
t26.5 -62.5q0 -37 -26.5 -63.5t-63.5 -26.5z" />
    <glyph glyph-name="uni202F" unicode="&#x202f;" horiz-adv-x="125" 
 />
    <glyph glyph-name="guilsinglleft" unicode="&#x2039;" horiz-adv-x="398" 
d="M305 521l50 -32l-152 -232l152 -234l-50 -32l-273 252v26z" />
    <glyph glyph-name="guilsinglright" unicode="&#x203a;" horiz-adv-x="398" 
d="M93 -9l-51 32l153 232l-153 234l51 32l273 -252v-26z" />
    <glyph glyph-name="fraction" unicode="&#x2044;" horiz-adv-x="102" 
d="M76 335l-220 -337h-84l254 367l220 337h84z" />
    <glyph glyph-name="zero.sup" unicode="&#x2070;" horiz-adv-x="437" 
d="M409 614q0 -97 -53.5 -157.5t-137.5 -60.5q-85 0 -137 59.5t-52 157.5q0 96 53.5 157t137.5 61t136.5 -60t52.5 -157zM219 740q-38 0 -60 -34.5t-22 -91.5q0 -58 22 -92.5t60 -34.5q37 0 59 34t22 92q0 57 -22 92t-59 35z" />
    <glyph glyph-name="four.sup" unicode="&#x2074;" horiz-adv-x="414" 
d="M225 486h-210l-4 26l186 312h131v-262h66v-76h-66v-82h-103v82zM227 739l-97 -177h97v177z" />
    <glyph glyph-name="five.sup" unicode="&#x2075;" horiz-adv-x="379" 
d="M186 669q76 0 119 -34.5t43 -96.5q0 -64 -49 -102.5t-131 -38.5q-31 0 -60 5.5t-61 17.5l-10 90l2 1q37 -16 65 -23t52 -7q38 0 60 16t22 44q0 26 -20.5 40t-59.5 14q-20 0 -44.5 -3.5t-59.5 -11.5l-7 3l15 239h264v-88h-186l-5 -69q10 2 23.5 3t27.5 1z" />
    <glyph glyph-name="six.sup" unicode="&#x2076;" horiz-adv-x="397" 
d="M237 686q60 0 99 -37t39 -98q0 -67 -49.5 -111t-126.5 -44q-79 0 -125.5 42.5t-46.5 112.5q0 41 18 81t68 107l62 83h127l-113 -134q-1 -1 -3 -3.5t-3 -4.5q14 3 27 4.5t27 1.5zM147 604q-7 -14 -10 -26.5t-3 -25.5q0 -32 18.5 -52t47.5 -20t48.5 19t19.5 47
q0 30 -19.5 46.5t-54.5 16.5q-11 0 -22 -1t-25 -4z" />
    <glyph glyph-name="seven.sup" unicode="&#x2077;" horiz-adv-x="382" 
d="M365 822l4 -6l-194 -412h-115l159 329h-178l-13 89h337z" />
    <glyph glyph-name="eight.sup" unicode="&#x2078;" horiz-adv-x="413" 
d="M304 617q37 -15 56.5 -41t19.5 -61q0 -54 -47.5 -86t-126.5 -32t-126 32t-47 86q0 35 19.5 61t56.5 41q-31 15 -47 39.5t-16 56.5q0 52 43.5 84t117.5 32q73 0 117 -32t44 -84q0 -31 -16.5 -56t-47.5 -40zM206 754q-25 0 -40.5 -14t-15.5 -37t16 -38t41 -15t40.5 14.5
t15.5 38.5q0 23 -15.5 37t-41.5 14zM206 581q-29 0 -47 -15.5t-18 -39.5q0 -25 17.5 -39.5t48.5 -14.5q30 0 47.5 14.5t17.5 39.5q0 24 -18.5 39.5t-47.5 15.5z" />
    <glyph glyph-name="nine.sup" unicode="&#x2079;" horiz-adv-x="396" 
d="M369 676q0 -41 -18 -81t-68 -108l-61 -83h-126l113 136q-14 -3 -26 -4t-24 -1q-60 0 -98.5 38t-38.5 100q0 69 49 113.5t126 44.5q79 0 125.5 -42.5t46.5 -112.5zM196 746q-30 0 -49 -19t-19 -49q0 -32 19.5 -49t54.5 -17q10 0 21 1t24 4q8 16 11.5 29t3.5 29
q0 32 -18 51.5t-48 19.5z" />
    <glyph glyph-name="zero.inf" unicode="&#x2080;" horiz-adv-x="437" 
d="M409 73q0 -97 -53.5 -157.5t-137.5 -60.5q-85 0 -137 59.5t-52 157.5q0 96 53.5 157t137.5 61t136.5 -60t52.5 -157zM219 199q-38 0 -60 -34.5t-22 -91.5q0 -58 22 -92.5t60 -34.5q37 0 59 34t22 92q0 57 -22 92t-59 35z" />
    <glyph glyph-name="one.inf" unicode="&#x2081;" horiz-adv-x="301" 
d="M29 72l-2 1v106l206 112l10 -3v-425h-109v267z" />
    <glyph glyph-name="two.inf" unicode="&#x2082;" horiz-adv-x="370" 
d="M185 -48h165l-32 -89h-283l-8 51l144 157q27 31 36.5 47.5t9.5 32.5q0 19 -12.5 31t-33.5 12q-28 0 -58 -18.5t-68 -58.5l-2 1l-9 106q33 33 70 48.5t82 15.5q64 0 102 -33.5t38 -88.5q0 -35 -15.5 -65.5t-54.5 -72.5z" />
    <glyph glyph-name="three.inf" unicode="&#x2083;" horiz-adv-x="361" 
d="M239 81q44 -14 67 -41t23 -63q0 -53 -44.5 -86.5t-112.5 -33.5q-38 0 -70 8t-64 26l-12 97l2 1q35 -23 69.5 -35t62.5 -12t44 11.5t16 31.5q0 23 -27 37.5t-103 33.5v34q73 27 98 42t25 36q0 16 -13.5 25.5t-37.5 9.5q-26 0 -55.5 -11.5t-67.5 -37.5h-2v93q32 20 68 30
t74 10q65 0 104 -28.5t39 -76.5q0 -33 -21 -58t-62 -43z" />
    <glyph glyph-name="four.inf" unicode="&#x2084;" horiz-adv-x="414" 
d="M225 -55h-210l-4 26l186 312h131v-262h66v-76h-66v-82h-103v82zM227 198l-97 -177h97v177z" />
    <glyph glyph-name="five.inf" unicode="&#x2085;" horiz-adv-x="379" 
d="M186 128q76 0 119 -34.5t43 -96.5q0 -64 -49 -102.5t-131 -38.5q-31 0 -60 5.5t-61 17.5l-10 90l2 1q37 -16 65 -23t52 -7q38 0 60 16t22 44q0 26 -20.5 40t-59.5 14q-20 0 -44.5 -3.5t-59.5 -11.5l-7 3l15 239h264v-88h-186l-5 -69q10 2 23.5 3t27.5 1z" />
    <glyph glyph-name="six.inf" unicode="&#x2086;" horiz-adv-x="397" 
d="M237 145q60 0 99 -37t39 -98q0 -67 -49.5 -111t-126.5 -44q-79 0 -125.5 42.5t-46.5 112.5q0 41 18 81t68 107l62 83h127l-113 -134q-1 -1 -3 -3.5t-3 -4.5q14 3 27 4.5t27 1.5zM147 63q-7 -14 -10 -26.5t-3 -25.5q0 -32 18.5 -52t47.5 -20t48.5 19t19.5 47
q0 30 -19.5 46.5t-54.5 16.5q-11 0 -22 -1t-25 -4z" />
    <glyph glyph-name="seven.inf" unicode="&#x2087;" horiz-adv-x="382" 
d="M365 281l4 -6l-194 -412h-115l159 329h-178l-13 89h337z" />
    <glyph glyph-name="eight.inf" unicode="&#x2088;" horiz-adv-x="413" 
d="M304 76q37 -15 56.5 -41t19.5 -61q0 -54 -47.5 -86t-126.5 -32t-126 32t-47 86q0 35 19.5 61t56.5 41q-31 15 -47 39.5t-16 56.5q0 52 43.5 84t117.5 32q73 0 117 -32t44 -84q0 -31 -16.5 -56t-47.5 -40zM206 213q-25 0 -40.5 -14t-15.5 -37t16 -38t41 -15t40.5 14.5
t15.5 38.5q0 23 -15.5 37t-41.5 14zM206 40q-29 0 -47 -15.5t-18 -39.5q0 -25 17.5 -39.5t48.5 -14.5q30 0 47.5 14.5t17.5 39.5q0 24 -18.5 39.5t-47.5 15.5z" />
    <glyph glyph-name="nine.inf" unicode="&#x2089;" horiz-adv-x="396" 
d="M369 135q0 -41 -18 -81t-68 -108l-61 -83h-126l113 136q-14 -3 -26 -4t-24 -1q-60 0 -98.5 38t-38.5 100q0 69 49 113.5t126 44.5q79 0 125.5 -42.5t46.5 -112.5zM196 205q-30 0 -49 -19t-19 -49q0 -32 19.5 -49t54.5 -17q10 0 21 1t24 4q8 16 11.5 29t3.5 29
q0 32 -18 51.5t-48 19.5z" />
    <glyph glyph-name="uni20A6" unicode="&#x20a6;" horiz-adv-x="904" 
d="M33 414v84h89v202h199l123 -202h192l-1 202h147v-202h90v-84h-90v-125h90v-84h-90v-205h-195l-124 205h-195l1 -205h-147v205h-89v84h89v125h-89zM266 528l2 -245h147zM636 420h-145l147 -242z" />
    <glyph glyph-name="uni20A9" unicode="&#x20a9;" horiz-adv-x="1171" 
d="M1120 289v-84h-161l-57 -209h-167l-59 210h-179l-58 -210h-168l-57 209h-163v84h141l-34 125h-123v84h100l-55 202h154l48 -203h174l59 210h145l60 -210h176l48 203h149l-55 -202h98v-84h-121l-34 -125h139zM585 529l-67 -245h136zM877 419h-135l73 -259zM434 419h-133
l61 -258z" />
    <glyph glyph-name="dong" unicode="&#x20ab;" horiz-adv-x="652" 
d="M536 0h-147v60q-33 -37 -68 -53.5t-78 -16.5q-87 0 -145 64t-58 162q0 104 63 170t156 66q35 0 65.5 -8.5t58.5 -26.5v117h-155v85h155v81h153v-81h89v-85h-89v-534zM299 344q-51 0 -82.5 -33t-31.5 -87t29 -85t77 -31q23 0 45 7t47 23v184q-22 11 -42.5 16.5t-41.5 5.5z
M551 -172h-502v85h502v-85z" />
    <glyph glyph-name="Euro" unicode="&#x20ac;" horiz-adv-x="684" 
d="M634 183l-18 -149q-43 -25 -85 -35.5t-98 -10.5q-121 0 -200 64t-105 183h-105v84h94q-1 5 -1 11.5v18.5v21t1 13h-94v84h107q28 115 109 180t196 65q55 0 100.5 -11.5t91.5 -37.5v-155h-2q-54 36 -94.5 51t-83.5 15q-61 0 -101.5 -29t-57.5 -85h235v-77h-246v-4v-55
v-2.5v-2.5h246v-77h-236q16 -57 57.5 -86.5t103.5 -29.5q50 0 90.5 12.5t92.5 45.5z" />
    <glyph glyph-name="uni20B1" unicode="&#x20b1;" horiz-adv-x="702" 
d="M336 213h-67v-213h-153v410h-89v89h89v201h218q122 0 196 -52t86 -149h74v-89h-76q-17 -92 -91.5 -144.5t-186.5 -52.5zM333 572h-66v-235h66q64 0 99 31.5t35 88.5q0 53 -35.5 84t-98.5 31z" />
    <glyph glyph-name="uni20B9" unicode="&#x20b9;" horiz-adv-x="631" 
d="M299 218l268 -216v-2h-212l-306 252l6 23h33q86 0 139 27.5t69 81.5h-246v89h253v99h-256v128h532v-128h-120v-97h117v-93h-122q-11 -59 -49.5 -100t-105.5 -64z" />
    <glyph glyph-name="uni20BA" unicode="&#x20ba;" horiz-adv-x="627" 
d="M566 313l36 -150q-48 -79 -138 -124t-204 -45q-36 0 -69 4t-75 13v202l-89 -41v93l89 39v69l-89 -41v92l89 40v236h153v-171l183 85v-93l-183 -83v-69l183 85v-93l-183 -82v-147h7.5h6.5q87 0 158.5 46t122.5 135h2z" />
    <glyph glyph-name="uni20BD" unicode="&#x20bd;" horiz-adv-x="635" 
d="M524 211v-84h-255v-127h-153v127h-89v84h89v65h-89v84h89v340h227q124 0 195 -54.5t71 -152.5q0 -103 -72 -160t-202 -57h-66v-65h255zM335 572h-68v-212h61q62 0 96 28.5t34 80.5q0 49 -32 76t-91 27z" />
    <glyph glyph-name="uni2117" unicode="&#x2117;" horiz-adv-x="890" 
d="M160 68q-57 55 -87.5 128t-30.5 153t31 153t88 129q57 55 131 85t154 30q81 0 154 -29.5t130 -84.5t87.5 -128t30.5 -153t-31 -153t-88 -129q-57 -55 -131 -85t-154 -30q-81 0 -154 29.5t-130 84.5zM444 714q-154 0 -261.5 -105.5t-107.5 -257.5q0 -153 108.5 -259
t262.5 -106t261.5 105.5t107.5 257.5q0 153 -108.5 259t-262.5 106zM659 431q0 -72 -53 -114t-144 -42h-55v-150h-111v455h170q91 0 142 -39.5t51 -109.5zM462 496h-56v-145h55q42 0 65 19.5t23 54.5q0 33 -23 52t-64 19z" />
    <glyph glyph-name="uni2120" unicode="&#x2120;" horiz-adv-x="969" 
d="M170 464q-73 26 -98 54t-25 70q0 54 40.5 86.5t108.5 32.5q35 0 66.5 -7.5t55.5 -21.5v-91h-3q-27 17 -61 28t-61 11q-20 0 -32 -8t-12 -22q0 -13 12 -23t45 -23q43 -15 60 -23t30 -18q21 -16 31.5 -37.5t10.5 -48.5q0 -57 -41 -90.5t-110 -33.5q-37 0 -71 9.5t-62 28.5
l-11 93l2 1q38 -23 76 -36.5t68 -13.5q22 0 35 9.5t13 24.5q0 12 -11.5 22t-55.5 27zM405 700h142l107 -219l107 219h142v-394h-96v281l-148 -288h-11l-148 286v-279h-95v394z" />
    <glyph glyph-name="trademark" unicode="&#x2122;" horiz-adv-x="1011" 
d="M387 700v-88h-132v-306h-98v306h-132v88h362zM448 700h142l107 -219l107 219h141v-394h-96v281l-148 -288h-11l-147 285v-278h-95v394z" />
    <glyph glyph-name="onethird" unicode="&#x2153;" horiz-adv-x="866" 
d="M29 491l-2 1v106l206 112l10 -3v-425h-109v267zM432 335l-220 -337h-84l254 367l220 337h84zM744 218q44 -14 67 -41t23 -63q0 -53 -44.5 -86.5t-112.5 -33.5q-38 0 -70 8t-64 26l-12 97l2 1q35 -23 69.5 -35t62.5 -12t44 11.5t16 31.5q0 23 -27 37.5t-103 33.5v34
q73 27 98 42t25 36q0 16 -13.5 25.5t-37.5 9.5q-26 0 -55.5 -11.5t-67.5 -37.5h-2v93q32 20 68 30t74 10q65 0 104 -28.5t39 -76.5q0 -33 -21 -58t-62 -43z" />
    <glyph glyph-name="twothirds" unicode="&#x2154;" horiz-adv-x="930" 
d="M185 371h165l-32 -89h-283l-8 51l144 157q27 31 36.5 47.5t9.5 32.5q0 19 -12.5 31t-33.5 12q-28 0 -58 -18.5t-68 -58.5l-2 1l-9 106q33 33 70 48.5t82 15.5q64 0 102 -33.5t38 -88.5q0 -35 -15.5 -65.5t-54.5 -72.5zM496 335l-220 -337h-84l254 367l220 337h84z
M808 218q44 -14 67 -41t23 -63q0 -53 -44.5 -86.5t-112.5 -33.5q-38 0 -70 8t-64 26l-12 97l2 1q35 -23 69.5 -35t62.5 -12t44 11.5t16 31.5q0 23 -27 37.5t-103 33.5v34q73 27 98 42t25 36q0 16 -13.5 25.5t-37.5 9.5q-26 0 -55.5 -11.5t-67.5 -37.5h-2v93q32 20 68 30
t74 10q65 0 104 -28.5t39 -76.5q0 -33 -21 -58t-62 -43z" />
    <glyph glyph-name="onefifth" unicode="&#x2155;" horiz-adv-x="880" 
d="M29 491l-2 1v106l206 112l10 -3v-425h-109v267zM432 335l-220 -337h-84l254 367l220 337h84zM688 265q76 0 119 -34.5t43 -96.5q0 -64 -49 -102.5t-131 -38.5q-31 0 -60 5.5t-61 17.5l-10 90l2 1q37 -16 65 -23t52 -7q38 0 60 16t22 44q0 26 -20.5 40t-59.5 14
q-20 0 -44.5 -3.5t-59.5 -11.5l-7 3l15 239h264v-88h-186l-5 -69q10 2 23.5 3t27.5 1z" />
    <glyph glyph-name="twofifths" unicode="&#x2156;" horiz-adv-x="944" 
d="M185 371h165l-32 -89h-283l-8 51l144 157q27 31 36.5 47.5t9.5 32.5q0 19 -12.5 31t-33.5 12q-28 0 -58 -18.5t-68 -58.5l-2 1l-9 106q33 33 70 48.5t82 15.5q64 0 102 -33.5t38 -88.5q0 -35 -15.5 -65.5t-54.5 -72.5zM496 335l-220 -337h-84l254 367l220 337h84z
M752 265q76 0 119 -34.5t43 -96.5q0 -64 -49 -102.5t-131 -38.5q-31 0 -60 5.5t-61 17.5l-10 90l2 1q37 -16 65 -23t52 -7q38 0 60 16t22 44q0 26 -20.5 40t-59.5 14q-20 0 -44.5 -3.5t-59.5 -11.5l-7 3l15 239h264v-88h-186l-5 -69q10 2 23.5 3t27.5 1z" />
    <glyph glyph-name="threefifths" unicode="&#x2157;" horiz-adv-x="914" 
d="M239 500q44 -14 67 -41t23 -63q0 -53 -44.5 -86.5t-112.5 -33.5q-38 0 -70 8t-64 26l-12 97l2 1q35 -23 69.5 -35t62.5 -12t44 11.5t16 31.5q0 23 -27 37.5t-103 33.5v34q73 27 98 42t25 36q0 16 -13.5 25.5t-37.5 9.5q-26 0 -55.5 -11.5t-67.5 -37.5h-2v93q32 20 68 30
t74 10q65 0 104 -28.5t39 -76.5q0 -33 -21 -58t-62 -43zM465 335l-220 -337h-84l254 367l220 337h84zM721 265q76 0 119 -34.5t43 -96.5q0 -64 -49 -102.5t-131 -38.5q-31 0 -60 5.5t-61 17.5l-10 90l2 1q37 -16 65 -23t52 -7q38 0 60 16t22 44q0 26 -20.5 40t-59.5 14
q-20 0 -44.5 -3.5t-59.5 -11.5l-7 3l15 239h264v-88h-186l-5 -69q10 2 23.5 3t27.5 1z" />
    <glyph glyph-name="fourfifths" unicode="&#x2158;" horiz-adv-x="974" 
d="M225 364h-210l-4 26l186 312h131v-262h66v-76h-66v-82h-103v82zM227 617l-97 -177h97v177zM525 335l-220 -337h-84l254 367l220 337h84zM781 265q76 0 119 -34.5t43 -96.5q0 -64 -49 -102.5t-131 -38.5q-31 0 -60 5.5t-61 17.5l-10 90l2 1q37 -16 65 -23t52 -7
q38 0 60 16t22 44q0 26 -20.5 40t-59.5 14q-20 0 -44.5 -3.5t-59.5 -11.5l-7 3l15 239h264v-88h-186l-5 -69q10 2 23.5 3t27.5 1z" />
    <glyph glyph-name="onesixth" unicode="&#x2159;" horiz-adv-x="857" 
d="M29 491l-2 1v106l206 112l10 -3v-425h-109v267zM432 335l-220 -337h-84l254 367l220 337h84zM697 282q60 0 99 -37t39 -98q0 -67 -49.5 -111t-126.5 -44q-79 0 -125.5 42.5t-46.5 112.5q0 41 18 81t68 107l62 83h127l-113 -134q-1 -1 -3 -3.5t-3 -4.5q14 3 27 4.5t27 1.5
zM607 200q-7 -14 -10 -26.5t-3 -25.5q0 -32 18.5 -52t47.5 -20t48.5 19t19.5 47q0 30 -19.5 46.5t-54.5 16.5q-11 0 -22 -1t-25 -4z" />
    <glyph glyph-name="fivesixths" unicode="&#x215a;" horiz-adv-x="907" 
d="M186 547q76 0 119 -34.5t43 -96.5q0 -64 -49 -102.5t-131 -38.5q-31 0 -60 5.5t-61 17.5l-10 90l2 1q37 -16 65 -23t52 -7q38 0 60 16t22 44q0 26 -20.5 40t-59.5 14q-20 0 -44.5 -3.5t-59.5 -11.5l-7 3l15 239h264v-88h-186l-5 -69q10 2 23.5 3t27.5 1zM482 335
l-220 -337h-84l254 367l220 337h84zM747 282q60 0 99 -37t39 -98q0 -67 -49.5 -111t-126.5 -44q-79 0 -125.5 42.5t-46.5 112.5q0 41 18 81t68 107l62 83h127l-113 -134q-1 -1 -3 -3.5t-3 -4.5q14 3 27 4.5t27 1.5zM657 200q-7 -14 -10 -26.5t-3 -25.5q0 -32 18.5 -52
t47.5 -20t48.5 19t19.5 47q0 30 -19.5 46.5t-54.5 16.5q-11 0 -22 -1t-25 -4z" />
    <glyph glyph-name="oneeighth" unicode="&#x215b;" horiz-adv-x="885" 
d="M29 491l-2 1v106l206 112l10 -3v-425h-109v267zM432 335l-220 -337h-84l254 367l220 337h84zM776 213q37 -15 56.5 -41t19.5 -61q0 -54 -47.5 -86t-126.5 -32t-126 32t-47 86q0 35 19.5 61t56.5 41q-31 15 -47 39.5t-16 56.5q0 52 43.5 84t117.5 32q73 0 117 -32t44 -84
q0 -31 -16.5 -56t-47.5 -40zM678 350q-25 0 -40.5 -14t-15.5 -37t16 -38t41 -15t40.5 14.5t15.5 38.5q0 23 -15.5 37t-41.5 14zM678 177q-29 0 -47 -15.5t-18 -39.5q0 -25 17.5 -39.5t48.5 -14.5q30 0 47.5 14.5t17.5 39.5q0 24 -18.5 39.5t-47.5 15.5z" />
    <glyph glyph-name="threeeighths" unicode="&#x215c;" horiz-adv-x="918" 
d="M239 500q44 -14 67 -41t23 -63q0 -53 -44.5 -86.5t-112.5 -33.5q-38 0 -70 8t-64 26l-12 97l2 1q35 -23 69.5 -35t62.5 -12t44 11.5t16 31.5q0 23 -27 37.5t-103 33.5v34q73 27 98 42t25 36q0 16 -13.5 25.5t-37.5 9.5q-26 0 -55.5 -11.5t-67.5 -37.5h-2v93q32 20 68 30
t74 10q65 0 104 -28.5t39 -76.5q0 -33 -21 -58t-62 -43zM465 335l-220 -337h-84l254 367l220 337h84zM809 213q37 -15 56.5 -41t19.5 -61q0 -54 -47.5 -86t-126.5 -32t-126 32t-47 86q0 35 19.5 61t56.5 41q-31 15 -47 39.5t-16 56.5q0 52 43.5 84t117.5 32q73 0 117 -32
t44 -84q0 -31 -16.5 -56t-47.5 -40zM711 350q-25 0 -40.5 -14t-15.5 -37t16 -38t41 -15t40.5 14.5t15.5 38.5q0 23 -15.5 37t-41.5 14zM711 177q-29 0 -47 -15.5t-18 -39.5q0 -25 17.5 -39.5t48.5 -14.5q30 0 47.5 14.5t17.5 39.5q0 24 -18.5 39.5t-47.5 15.5z" />
    <glyph glyph-name="fiveeighths" unicode="&#x215d;" horiz-adv-x="935" 
d="M186 547q76 0 119 -34.5t43 -96.5q0 -64 -49 -102.5t-131 -38.5q-31 0 -60 5.5t-61 17.5l-10 90l2 1q37 -16 65 -23t52 -7q38 0 60 16t22 44q0 26 -20.5 40t-59.5 14q-20 0 -44.5 -3.5t-59.5 -11.5l-7 3l15 239h264v-88h-186l-5 -69q10 2 23.5 3t27.5 1zM482 335
l-220 -337h-84l254 367l220 337h84zM826 213q37 -15 56.5 -41t19.5 -61q0 -54 -47.5 -86t-126.5 -32t-126 32t-47 86q0 35 19.5 61t56.5 41q-31 15 -47 39.5t-16 56.5q0 52 43.5 84t117.5 32q73 0 117 -32t44 -84q0 -31 -16.5 -56t-47.5 -40zM728 350q-25 0 -40.5 -14
t-15.5 -37t16 -38t41 -15t40.5 14.5t15.5 38.5q0 23 -15.5 37t-41.5 14zM728 177q-29 0 -47 -15.5t-18 -39.5q0 -25 17.5 -39.5t48.5 -14.5q30 0 47.5 14.5t17.5 39.5q0 24 -18.5 39.5t-47.5 15.5z" />
    <glyph glyph-name="seveneighths" unicode="&#x215e;" horiz-adv-x="875" 
d="M365 700l4 -6l-194 -412h-115l159 329h-178l-13 89h337zM423 335l-220 -337h-84l254 367l220 337h84zM767 213q37 -15 56.5 -41t19.5 -61q0 -54 -47.5 -86t-126.5 -32t-126 32t-47 86q0 35 19.5 61t56.5 41q-31 15 -47 39.5t-16 56.5q0 52 43.5 84t117.5 32q73 0 117 -32
t44 -84q0 -31 -16.5 -56t-47.5 -40zM669 350q-25 0 -40.5 -14t-15.5 -37t16 -38t41 -15t40.5 14.5t15.5 38.5q0 23 -15.5 37t-41.5 14zM669 177q-29 0 -47 -15.5t-18 -39.5q0 -25 17.5 -39.5t48.5 -14.5q30 0 47.5 14.5t17.5 39.5q0 24 -18.5 39.5t-47.5 15.5z" />
    <glyph glyph-name="minus" unicode="&#x2212;" horiz-adv-x="600" 
d="M559 418v-126h-518v126h518z" />
    <glyph glyph-name="approxequal" unicode="&#x2248;" horiz-adv-x="600" 
d="M189 600q18 0 45.5 -12t87.5 -49q42 -26 58.5 -34t25.5 -8q17 0 32.5 19.5t47.5 81.5l74 -37q-45 -109 -77.5 -150t-75.5 -41q-18 0 -45.5 12t-85.5 49q-43 27 -60 35t-26 8q-17 0 -32.5 -19.5t-46.5 -81.5l-74 36q44 109 76 150t76 41zM193 340q18 0 45.5 -12t85.5 -49
q43 -27 60 -35t26 -8q17 0 32.5 19.5t46.5 81.5l74 -36q-44 -109 -76 -150t-76 -41q-18 0 -45.5 12t-87.5 49q-42 27 -58.5 35t-25.5 8q-17 0 -32.5 -19.5t-47.5 -81.5l-74 36q45 109 77.5 150t75.5 41z" />
    <glyph glyph-name="notequal" unicode="&#x2260;" horiz-adv-x="600" 
d="M551 309v-115h-283l-62 -130l-74 34l46 96h-129v115h184l44 92h-228v115h283l62 130l74 -34l-46 -96h129v-115h-184l-44 -92h228z" />
    <glyph glyph-name="lessequal" unicode="&#x2264;" horiz-adv-x="600" 
d="M238 440l292 -125v-132l-472 218v78l472 218v-132zM530 0h-471v111h471v-111z" />
    <glyph glyph-name="greaterequal" unicode="&#x2265;" horiz-adv-x="600" 
d="M542 479v-78l-472 -218v132l292 125l-292 125v132zM541 111v-111h-471v111h471z" />
    <glyph glyph-name="uni237F" unicode="&#x237f;" horiz-adv-x="567" 
d="M461 355q0 -56 -34.5 -100.5t-88.5 -58.5v-286h-109v286q-54 14 -88.5 58.5t-34.5 100.5t34.5 100.5t88.5 58.5v266h109v-266q54 -14 88.5 -58.5t34.5 -100.5z" />
    <glyph glyph-name="uniA788" unicode="&#xa788;" horiz-adv-x="500" 
d="M446 -256h-75l-120 86l-121 -86h-76v2l132 183h128l132 -183v-2z" />
    <glyph glyph-name="G.alt" horiz-adv-x="788" 
d="M751 381v-33q0 -168 -93.5 -265t-254.5 -97q-157 0 -258.5 101t-101.5 258q0 159 106.5 263t267.5 104q80 0 148 -24t131 -74l-41 -149h-2q-65 54 -120 77t-114 23q-91 0 -151 -63t-60 -160q0 -96 55.5 -156t143.5 -60q72 0 119.5 36.5t63.5 103.5h-197v115h358z" />
    <glyph glyph-name="Q.alt" horiz-adv-x="837" 
d="M715 140l81 -69l-79 -82l-82 74q-49 -36 -106.5 -55t-121.5 -19q-155 0 -259.5 104.5t-104.5 257.5q0 154 107 258.5t266 104.5q158 0 265 -102.5t107 -250.5q0 -61 -18.5 -117t-54.5 -104zM414 568q-87 0 -146.5 -63t-59.5 -156t59 -156.5t147 -63.5q31 0 58.5 7.5
t51.5 23.5l-116 99l80 83l111 -100q13 24 19.5 51t6.5 58q0 91 -61 154t-150 63z" />
    <glyph glyph-name="a.alt" horiz-adv-x="632" 
d="M582 0h-146l-14 79q-41 -47 -81 -68t-92 -21q-92 0 -153.5 71.5t-61.5 178.5q0 123 81.5 201t206.5 78q33 0 67 -6.5t71 -19.5l91 20h12v-359zM328 393q-64 0 -105.5 -40t-41.5 -103q0 -59 33 -95.5t85 -36.5q30 0 56.5 9.5t56.5 31.5v221q-20 7 -40.5 10t-43.5 3z" />
    <glyph glyph-name="A.sc" horiz-adv-x="693" 
d="M181 0h-158l242 565h167l239 -565h-165l-41 105h-242zM345 426l-81 -205h160z" />
    <glyph glyph-name="B.sc" horiz-adv-x="586" 
d="M442 292q50 -19 76 -52t26 -78q0 -75 -58.5 -118.5t-156.5 -43.5h-260v563h255q94 0 147 -40t53 -110q0 -38 -21.5 -69.5t-60.5 -51.5zM305 450h-90v-115h85q37 0 57.5 16t20.5 44q0 26 -19.5 40.5t-53.5 14.5zM215 233v-121h98q37 0 58.5 17t21.5 45t-21.5 43.5
t-60.5 15.5h-96z" />
    <glyph glyph-name="C.sc" horiz-adv-x="586" 
d="M330 -11q-126 0 -208 82t-82 210q0 125 85 209t213 84q55 0 102 -15t85 -44v-154h-2q-42 38 -85 58t-84 20q-66 0 -111 -45t-45 -111q0 -71 44.5 -115.5t112.5 -44.5q46 0 90.5 18t86.5 54l3 -1l-18 -152q-42 -27 -87.5 -40t-99.5 -13z" />
    </font>
</defs>
</svg>
