<svg width="1445" height="8653" viewBox="0 0 1445 8653">
    <path d="M12428.7,679.353s-243.437-42.818-243.437,237.351S13626.3,956.236,13630,1237.75s-1363,112.36-1363,428.221,1363-7.043,1363,340.228-1363,165.271-1363,469.968,1363,76.258,1363,399.668-1363,133.359-1363,373.938,1363,242.763,1363,489.792-1367.8,223.855-1363,458.356,1363,209.257,1363,471.565-1359.75,85.289-1363,366.217,1363.21,215.314,1363,506.682-1359.59,75.875-1363,375.621,1363,48.483,1363,341.767-1363,195.644-1363,506.682,1363,120.2,1363,361.2-1363,185.6-1363,481.6,1363,84.838,1363,386.286-1363,182.49-1363,465.041,1363,75.116,1363,384.778-1363,165.674-1363,494.167,1363,69.5,1363,398.078-1361.17,406.635-1363,681.008,1362.73,275.917,1363,396.317" transform="translate(-12184.746 -676.507)" fill="none" stroke="#000" stroke-linecap="round" stroke-width="1" stroke-dasharray="3 5"/>
</svg>
