<svg xmlns="http://www.w3.org/2000/svg" width="15.784" height="15.784" viewBox="0 0 15.784 15.784">
  <g id="Group_1062" data-name="Group 1062" transform="translate(0 0)">
    <path id="Path_4680" data-name="Path 4680" d="M183.88,73.5H171.9a1.906,1.906,0,0,0-1.9,1.9V87.38a1.906,1.906,0,0,0,1.9,1.9H183.88a1.906,1.906,0,0,0,1.9-1.9V75.4A1.906,1.906,0,0,0,183.88,73.5Zm1.011,13.88a1.012,1.012,0,0,1-1.011,1.011H171.9a1.012,1.012,0,0,1-1.011-1.011V75.4a1.012,1.012,0,0,1,1.011-1.011H183.88A1.012,1.012,0,0,1,184.89,75.4Z" transform="translate(-170 -73.5)" fill="#ffffff"/>
    <path id="Path_4681" data-name="Path 4681" d="M180.925,81a3.425,3.425,0,1,0,3.425,3.425A3.429,3.429,0,0,0,180.925,81Zm0,5.956a2.531,2.531,0,1,1,2.531-2.531A2.535,2.535,0,0,1,180.925,86.956Z" transform="translate(-173.033 -76.533)" fill="#ffffff"/>
    <circle id="Ellipse_166" data-name="Ellipse 166" cx="0.745" cy="0.745" r="0.745" transform="translate(11.912 2.382)" fill="#ffffff"/>
  </g>
</svg>
