<svg xmlns="http://www.w3.org/2000/svg" width="233.794" height="88.375" viewBox="0 0 233.794 88.375">
  <g id="Group_1014" data-name="Group 1014" transform="translate(-702.665 -506.461)">
    <path id="Path_4698" data-name="Path 4698" d="M724.141,585.041q0,13.462-10.322,13.461-11.152,0-11.154-13.736a46.633,46.633,0,0,1,.394-5.356,24.77,24.77,0,0,1,1.312-5.632,2.914,2.914,0,0,1,2.974-1.718,4.294,4.294,0,0,1,2.493.722,2.151,2.151,0,0,1,1.094,1.854q0-.1-.788,3.09a31.331,31.331,0,0,0-.743,7.04q0,8.449,4.418,8.448,3.585,0,3.586-8.173a49.379,49.379,0,0,0-.613-6.422q-.656-4.256-.656-4.6a1.64,1.64,0,0,1,1.093-1.442,5.1,5.1,0,0,1,2.318-.55q2.537,0,3.149,1.992a36.043,36.043,0,0,1,1.444,11.023" transform="translate(0 -24.02)" fill="#e50019"/>
    <path id="Path_4699" data-name="Path 4699" d="M755.313,591.26q0,6.973-.324,10.681h-4.095q.325-3.366.325-10.681,0-3.81-2.445-3.81a4.339,4.339,0,0,0-2.739,1.339,5.844,5.844,0,0,0-1.62,2.266q.089,4.463.5,10.851h-3.8q-.53-8.448-.53-13.221,0-3.3.089-3.915.324-2.609,1.827-2.609a1.835,1.835,0,0,1,1.384.686,3.007,3.007,0,0,1,.589,1.958,4.822,4.822,0,0,1,1.855-1.89,5.356,5.356,0,0,1,2.739-.755,5.2,5.2,0,0,1,4.477,2.609,11.12,11.12,0,0,1,1.767,6.489" transform="translate(-13.892 -27.733)" fill="#e50019"/>
    <path id="Path_4700" data-name="Path 4700" d="M782.058,596.46a3.848,3.848,0,0,1-1.032,2.678,8.23,8.23,0,0,1-6.126,3.125,6.6,6.6,0,0,1-5.213-2.542,11.01,11.01,0,0,1-2.3-7.245,12.067,12.067,0,0,1,2.239-7.658,6.483,6.483,0,0,1,5.361-2.713,7.776,7.776,0,0,1,3.3.722,5.6,5.6,0,0,1,2.8,2.644,3.509,3.509,0,0,1,.205,1.338,2.805,2.805,0,0,1-.559,1.718,1.526,1.526,0,0,1-1.178.756,1.938,1.938,0,0,1-.943-.378,4.617,4.617,0,0,0-3.622-1.476q-3.476,0-3.476,4.773,0,4.808,3.211,4.807a4.67,4.67,0,0,0,2.444-.583,9.809,9.809,0,0,0,2.3-2.232c.118-.139.4-.207.854-.207a1.468,1.468,0,0,1,1.179.79,2.761,2.761,0,0,1,.56,1.682" transform="translate(-23.712 -27.713)" fill="#e50019"/>
    <path id="Path_4701" data-name="Path 4701" d="M801.251,575.014q-.117,1.133-.294,5.459-.177,4.3-.177,6.044,0,.482-.03,3.675-.029,3.022-.029,4.738,0,2.542.088,3.3h-4.8q-.058-.584-.059-11.71,0-1.818.176-6.387t.325-5.8a2.5,2.5,0,0,1,.795-1.717,2.253,2.253,0,0,1,1.563-.584,2.408,2.408,0,0,1,1.8.756,2.748,2.748,0,0,1,.648,2.232" transform="translate(-34.175 -24.02)" fill="#e50019"/>
    <path id="Path_4702" data-name="Path 4702" d="M823.409,591.275a2.416,2.416,0,0,1-1.3,2.507,9.781,9.781,0,0,1-3.121.481q-1.592.07-3.211.137a28.153,28.153,0,0,1-2.946.137,4.6,4.6,0,0,0,3.565,2.3,25.041,25.041,0,0,0,3.74.171l-.266,5.22q-5.6,0-7.687-1.237-3.445-2.093-3.446-8.653a12.074,12.074,0,0,1,2.18-7.485,6.2,6.2,0,0,1,5.065-2.748,6.706,6.706,0,0,1,4.92,2.2,9.654,9.654,0,0,1,2.5,6.971m-3.592-1.511a4.1,4.1,0,0,0-3.683-2.438q-2.5,0-3.152,3.022.648-.068,1.827-.206a13.828,13.828,0,0,1,1.473-.138q1.207,0,3.535-.24" transform="translate(-38.861 -27.713)" fill="#e50019"/>
    <path id="Path_4703" data-name="Path 4703" d="M988.5,590.236a2.191,2.191,0,0,1-1.308,2.309,10.773,10.773,0,0,1-3.154.442l-3.241.126q-1.31.127-2.973.127a4.682,4.682,0,0,0,3.6,2.118,27.356,27.356,0,0,0,3.777.159l-.268,4.807q-5.651,0-7.762-1.139-3.478-1.928-3.478-7.971a10.451,10.451,0,0,1,2.2-6.9A6.442,6.442,0,0,1,981,581.79a7.08,7.08,0,0,1,4.967,2.025,8.445,8.445,0,0,1,2.528,6.421m-3.629-1.391a4.182,4.182,0,0,0-3.717-2.246q-2.527,0-3.181,2.784.653-.063,1.843-.189,1.07-.126,1.487-.127,1.22,0,3.568-.221" transform="translate(-99.289 -27.597)" fill="#e50019"/>
    <path id="Path_4704" data-name="Path 4704" d="M1012.992,582.876a2.708,2.708,0,0,1-.563,1.708,1.851,1.851,0,0,1-1.546.791,2.989,2.989,0,0,1-.684-.064,33.181,33.181,0,0,0-4.313-.506,28.412,28.412,0,0,0-.475,4.713q0,3.48,1.31,3.479a3.952,3.952,0,0,0,2.407-.791q.743-.695,1.547-1.423l1.665,4.207a7.28,7.28,0,0,1-5.619,2.879,5,5,0,0,1-4.7-2.816,11.491,11.491,0,0,1-1.189-5.535,29.9,29.9,0,0,1,.477-5q-1.993-.094-3.123-.1v-4.87q1.811,0,4.133.127a29.736,29.736,0,0,1,1.16-3.48,2.131,2.131,0,0,1,2.051-1.55,2.284,2.284,0,0,1,1.637.7,2.152,2.152,0,0,1,.743,1.677,5.273,5.273,0,0,1-.326,1.518q-.3.759-.565,1.487a38.1,38.1,0,0,1,4.192.569,2.132,2.132,0,0,1,1.783,2.277" transform="translate(-108.264 -24.982)" fill="#e50019"/>
    <path id="Path_4705" data-name="Path 4705" d="M1037.032,594.86a4.824,4.824,0,0,1-2.17,4.176,7.46,7.46,0,0,1-4.4,1.3,8.785,8.785,0,0,1-5.056-1.96,13.2,13.2,0,0,1-3.211-3.037l2.8-3.448a10.266,10.266,0,0,0,2.645,2.4,5.776,5.776,0,0,0,2.825,1.17q1.993,0,1.993-.633,0-.378-2.171-1.107a15.338,15.338,0,0,1-4.074-1.929,4.947,4.947,0,0,1-2.17-4.143,5.316,5.316,0,0,1,2.141-4.4,7.2,7.2,0,0,1,4.519-1.487,6.115,6.115,0,0,1,5.83,3.226,2.42,2.42,0,0,1,.356,1.171,2.274,2.274,0,0,1-.684,1.707,2.118,2.118,0,0,1-1.606.7,1.362,1.362,0,0,1-.981-.506,5.627,5.627,0,0,0-.952-.917,3.426,3.426,0,0,0-1.963-.506q-2.11,0-2.11,1.012,0,.412,2.2,1.139a15.353,15.353,0,0,1,4.043,1.929,4.933,4.933,0,0,1,2.2,4.143" transform="translate(-117.06 -27.588)" fill="#e50019"/>
    <path id="Path_4706" data-name="Path 4706" d="M1063.154,599.731l-3.539.6q-.029-1.105-.178-3.067a9.134,9.134,0,0,1-2.557,2.434,4.754,4.754,0,0,1-2.467.632q-5.921,0-5.918-8.856a18.43,18.43,0,0,1,1.636-8.381,1.929,1.929,0,0,1,1.754-1.3q2.5,0,2.5,2.277a18.791,18.791,0,0,1-.682,2.657,17.835,17.835,0,0,0-.626,4.744q0,3.985,1.637,3.986,1.544,0,2.5-2.594a21.114,21.114,0,0,0,1.011-5.06q.179-1.8.328-3.574a3.267,3.267,0,0,1,.8-1.771,1.824,1.824,0,0,1,1.369-.7,2.552,2.552,0,0,1,1.635.568,1.818,1.818,0,0,1,.745,1.519q0,.379-.209,3.1-.238,2.688-.238,4.049a56.038,56.038,0,0,0,.506,8.729" transform="translate(-126.695 -27.588)" fill="#e50019"/>
    <path id="Path_4707" data-name="Path 4707" d="M966.513,574.87a2.325,2.325,0,0,1-.672,1.694,1.988,1.988,0,0,1-1.507.685l-1.98-.294a25.008,25.008,0,0,0-3.724-.293l-.119,9.682q0,4.3.435,9.846h-5.388q-.355-5.184-.356-9.715l.04-9.714a32.889,32.889,0,0,0-5.982.587v-4.955a38.092,38.092,0,0,1,7.487-.684,59.245,59.245,0,0,1,9.666.521,2.491,2.491,0,0,1,1.505.717,2.629,2.629,0,0,1,.594,1.924" transform="translate(-89.608 -23.903)" fill="#e50019"/>
    <g id="Group_1012" data-name="Group 1012" transform="translate(774.283 578.958)">
      <path id="Path_4708" data-name="Path 4708" d="M817.761,621.668a1.594,1.594,0,0,0-.694-.155c-.394,0-.572.2-.572.4,0,.26.193.378.669.581.623.259.9.593.9,1.07,0,.631-.512,1.092-1.418,1.092a2.215,2.215,0,0,1-.957-.2l.148-.584a1.842,1.842,0,0,0,.84.2c.415,0,.632-.184.632-.453s-.187-.414-.617-.589c-.587-.235-.952-.575-.952-1.046,0-.594.5-1.051,1.341-1.051a2.011,2.011,0,0,1,.835.165Z" transform="translate(-815.69 -620.895)" fill="#1a1818"/>
      <path id="Path_4709" data-name="Path 4709" d="M820.628,621.617a.374.374,0,1,1,.4-.372A.373.373,0,0,1,820.628,621.617Zm.38,2.97h-.75v-2.625h.75Z" transform="translate(-817.353 -620.873)" fill="#1a1818"/>
      <path id="Path_4710" data-name="Path 4710" d="M824.92,625.187h-.75v-1.532c0-.321-.112-.575-.43-.575a.494.494,0,0,0-.481.547v1.561h-.749v-1.834c0-.307-.011-.556-.021-.787h.648l.035.354h.015a.97.97,0,0,1,.815-.411c.516,0,.917.335.917,1.07Z" transform="translate(-818.181 -621.472)" fill="#1a1818"/>
      <path id="Path_4711" data-name="Path 4711" d="M829.184,625.121a1.877,1.877,0,0,1-.684.112,1.252,1.252,0,0,1-1.361-1.333,1.359,1.359,0,0,1,1.479-1.392,1.756,1.756,0,0,1,.587.1l-.122.532a1.055,1.055,0,0,0-.441-.085.816.816,0,0,0,.005,1.626,1.135,1.135,0,0,0,.456-.084Z" transform="translate(-819.884 -621.472)" fill="#1a1818"/>
      <path id="Path_4712" data-name="Path 4712" d="M833.165,625.08a2.553,2.553,0,0,1-.912.15,1.236,1.236,0,0,1-1.367-1.324,1.3,1.3,0,0,1,1.291-1.4c.684,0,1.129.452,1.129,1.3a1.51,1.51,0,0,1-.02.279H831.6c.021.447.364.626.769.626a2.2,2.2,0,0,0,.689-.108Zm-.553-1.484c.005-.274-.111-.608-.48-.608s-.511.348-.532.608Z" transform="translate(-821.257 -621.47)" fill="#1a1818"/>
      <path id="Path_4713" data-name="Path 4713" d="M838.218,624.675v-2.941h-.011l-.658.321-.162-.5.932-.444h.628v3.564Z" transform="translate(-823.639 -620.96)" fill="#1a1818"/>
      <path id="Path_4714" data-name="Path 4714" d="M843.343,623.091a.959.959,0,0,1-.719.278,1.027,1.027,0,0,1-1.058-1.084,1.242,1.242,0,0,1,1.276-1.262c.834,0,1.265.649,1.265,1.5a1.975,1.975,0,0,1-2.227,2.162v-.547a2.015,2.015,0,0,0,.37-.014,1.214,1.214,0,0,0,1.109-1.032Zm-1.033-.867c0,.42.212.675.516.675a.563.563,0,0,0,.482-.269.516.516,0,0,0,.041-.259c0-.476-.173-.853-.532-.853C842.513,621.518,842.31,621.819,842.31,622.224Z" transform="translate(-825.17 -620.928)" fill="#1a1818"/>
      <path id="Path_4715" data-name="Path 4715" d="M847.912,623.091a.957.957,0,0,1-.719.278,1.028,1.028,0,0,1-1.059-1.084,1.242,1.242,0,0,1,1.276-1.262c.836,0,1.267.649,1.267,1.5a1.976,1.976,0,0,1-2.227,2.162v-.547a2.01,2.01,0,0,0,.369-.014,1.211,1.211,0,0,0,1.108-1.032Zm-1.032-.867c0,.42.212.675.516.675a.561.561,0,0,0,.48-.269.508.508,0,0,0,.041-.259c0-.476-.172-.853-.531-.853C847.082,621.518,846.88,621.819,846.88,622.224Z" transform="translate(-826.844 -620.928)" fill="#1a1818"/>
      <path id="Path_4716" data-name="Path 4716" d="M850.706,622.87c0-1.084.43-1.847,1.291-1.847.9,0,1.251.829,1.251,1.819,0,1.178-.471,1.853-1.277,1.853C851.08,624.694,850.706,623.865,850.706,622.87Zm1.275,1.272c.344,0,.517-.452.517-1.286,0-.806-.157-1.281-.511-1.281-.325,0-.532.433-.532,1.281s.188,1.286.521,1.286Z" transform="translate(-828.518 -620.928)" fill="#1a1818"/>
    </g>
    <g id="Group_1013" data-name="Group 1013" transform="translate(771.015 506.461)">
      <path id="Path_4717" data-name="Path 4717" d="M901.4,564.9l-.01-.009a.3.3,0,0,1-.072-.042,3.069,3.069,0,0,0-.28-.21c.005.058.02.125.025.182a2.623,2.623,0,0,1,0,.845l0,.019a1.225,1.225,0,0,1-.264.566,1.115,1.115,0,0,1-.561.378.609.609,0,0,1-.565-1.06l.1-.077.009-.01a2.57,2.57,0,0,0-.064-.422q-.088-.357-.208-.74c-.042-.152-.093-.3-.127-.465l-.123-.427-.006-.077a.8.8,0,0,1-.013-.155,1.7,1.7,0,0,1,.047-.246.837.837,0,0,1,.408-.462,1.047,1.047,0,0,1,.6-.06l.039.006a3.24,3.24,0,0,1,.652.247,1.283,1.283,0,0,0,.132.067c.406.209.773.421,1.12.625-.018-.106-.047-.21-.065-.305a3.372,3.372,0,0,0-1.1-1.812,1.924,1.924,0,0,0-.839-.4l-.02-.008a2.546,2.546,0,0,0-.275-.035c-.088-.012-.186-.023-.285-.034a2,2,0,0,0-.353-.039,1.076,1.076,0,0,1-.175,0,1.663,1.663,0,0,0-.85.168,1.231,1.231,0,0,0-.516.675,4.694,4.694,0,0,0-.112,2.379l0,.029a.684.684,0,0,1-.11.553.787.787,0,0,1-.469.311.743.743,0,0,1-.841-.542,8.286,8.286,0,0,1-.248-1.571c0-.1-.006-.194,0-.281-6.948,2.039-15.035,7.523-17.612,9.341a4.253,4.253,0,0,1,.672,1.993,4.7,4.7,0,0,1-4.5,4.863A4.184,4.184,0,0,1,870,576.067a5.644,5.644,0,0,0-.715.167,8.993,8.993,0,0,1-.256,4.828c-.063.181-.02.226,0,.243.235.262,1.282.476,2.768.118,1.028-.241,1.422-.643,1.461-.763,0-.02-.023-.047-.086-.1a.734.734,0,0,1-.077-1.033.679.679,0,0,1,.494-.245.7.7,0,0,1,.539.178,1.488,1.488,0,0,1,.556,1.536c-.2.842-1.125,1.521-2.545,1.854a8.536,8.536,0,0,1-1.226.2,3.805,3.805,0,0,1-2.967-.752,1.6,1.6,0,0,1-.373-1.435,4.706,4.706,0,0,1-7.648-2.73c-.942-.232-4.517-.71-15.9.593a.837.837,0,0,1-.134.72.863.863,0,0,1-1.105.258l-.113-.068a2.46,2.46,0,0,0-1.733-.283l-.019,0a2.215,2.215,0,0,0-1.262,1.174,5.761,5.761,0,0,0-.435,4.193,3.787,3.787,0,0,0,1.028,1.73,1.907,1.907,0,0,0,1.532.551c.066-.025.132-.04.2-.065a1.786,1.786,0,0,0,.209-.056c.064-.044.12-.068.176-.1a1.131,1.131,0,0,0,.231-.136c.294-.2.644-.433.953-.682a5.555,5.555,0,0,0,.781-.755,1.206,1.206,0,0,0,.243-.35l.018-.021a.2.2,0,0,0,.041-.091v-.01a.889.889,0,0,1,.576-.893.924.924,0,0,1,.664.042.872.872,0,0,1,.449.5v.01a1.264,1.264,0,0,1,.052.278l0,.039c.006.077-.008.137,0,.185l-.008.02a1.369,1.369,0,0,1-.061.307,1.792,1.792,0,0,1-.161.4c0,1.068.387,3.687,3.591,6,7.165,5.188,16.537,6.123,27.853,2.786a6.549,6.549,0,0,1,1.76-.555,31.038,31.038,0,0,0,14.372-10.682c3.121-4.136,5.178-8.912,5.529-12.835a7.837,7.837,0,0,1-2.82-.269l-.04-.016a.773.773,0,0,1-.407-.335.748.748,0,0,1-.066-.558.733.733,0,0,1,.85-.518,4.629,4.629,0,0,0,4.47-1.122,4.476,4.476,0,0,0,1.063-2.623A.862.862,0,0,1,901.4,564.9Zm-57.936,20.573v.009a1.945,1.945,0,0,1-.392.082c-.81.068-1.227-.626-1.488-1.187a.8.8,0,0,1-.18.287.842.842,0,0,1-.581.253.877.877,0,0,1-.9-.818c-.116-2.078.4-2.548.869-2.724a1.18,1.18,0,0,1,1.4.534,6.471,6.471,0,0,1,.865,1.52c.049.122.119.262.167.375a.874.874,0,0,1,.757.568A.865.865,0,0,1,843.459,585.475Zm11.414-1.247v.01a.712.712,0,0,1-.252.351l-.064.044-1.625,1.127c-.313.21-.6.39-.876.559a6.174,6.174,0,0,1-1,.472l-.077.016a.67.67,0,0,1-.2.046.876.876,0,0,1-.445-.089.818.818,0,0,1-.42-.5.779.779,0,0,1,.053-.646,3.464,3.464,0,0,1,.778-1.026,4.74,4.74,0,0,1,1.026-.736,4.556,4.556,0,0,1,1.224-.471,2.947,2.947,0,0,1,1.429.016A.664.664,0,0,1,854.873,584.228Zm24.513-1.382c-.069.1-.129.205-.2.317-.223.349-.454.718-.717,1.061-.186.21-.363.419-.559.629-.088.1-.177.209-.285.315l-.316.279a8.133,8.133,0,0,1-2.931,1.76,8.03,8.03,0,0,1-2.051.444,8.151,8.151,0,0,1-1.379,0,8.423,8.423,0,0,1-3.259-.989.622.622,0,0,1-.236-.845.612.612,0,0,1,.713-.293l.039.006a12.17,12.17,0,0,0,2.844.442,9.2,9.2,0,0,0,2.186-.222c.076-1.3.764-3.628,2.162-3.755.357-.03.712-.079,1.058-.127a4.239,4.239,0,0,1,2.265.024.607.607,0,0,1,.556.148A.63.63,0,0,1,879.386,582.846Zm12.222-13.163a.669.669,0,0,1-.173.374l-.009.011-.055.043-.627.636c-.1.1-.189.181-.279.266-.125.127-.242.243-.378.362a8.249,8.249,0,0,1-.716.613h-.01a3.316,3.316,0,0,1-.921.485l-.066.025a1.11,1.11,0,0,1-.162.033.815.815,0,0,1-.834-.561.785.785,0,0,1-.006-.427,2.924,2.924,0,0,1,.533-1.054,3.941,3.941,0,0,1,.838-.779,4.477,4.477,0,0,1,1.032-.553,2.841,2.841,0,0,1,1.276-.184.666.666,0,0,1,.428.246A.631.631,0,0,1,891.608,569.683Z" transform="translate(-820.968 -526.346)" fill="#ffcba7"/>
      <path id="Path_4718" data-name="Path 4718" d="M897.559,542.932a26.572,26.572,0,0,0-5.8-9.479,19.75,19.75,0,0,0-11.089-5.9,23.138,23.138,0,0,0-5.9-.35l-.2.017a.844.844,0,0,1-.223,0c-.2.007-.464.02-.784.036a4.011,4.011,0,0,0,.1.458c.034.172.077.343.1.526l.006.067a1.1,1.1,0,0,1-.936,1.234l-.067.006a1.1,1.1,0,0,1-1.161-.874,4.862,4.862,0,0,1-.08-1.3c-.115.01-.231.019-.348.02l-.022.788a.843.843,0,0,1-.268.625.894.894,0,0,1-.534.239c-.029,0-.059-.005-.1,0a.867.867,0,0,1-.773-.537,3.537,3.537,0,0,1-.255-.959c-.2.017-.4.033-.587.059a10.842,10.842,0,0,1-.191,1.075l-.006.039a.9.9,0,0,1-.392.538.89.89,0,0,1-.662.094.861.861,0,0,1-.661-.7,6.79,6.79,0,0,1-.074-.771h-.02a24.876,24.876,0,0,0-9.177,3.837c.5.386.924.719,1.371,1.06l.063.053v.009a.871.871,0,0,1,.077,1.149l-16.745,21.66c-.026.158-.053.305-.087.464a11.822,11.822,0,0,0-.208,1.455,13.5,13.5,0,0,0,.054,3.084c.017.086.025.182.042.268.024.173.047.336.079.489l.19.761c.042.151.1.3.155.453.037.094.074.178.11.272l.136.348.176.354a5.96,5.96,0,0,0,.961,1.493c11.02-1.3,15.421-1.048,17.127-.745.383-2.265,2.646-3.659,4.652-3.827a4.13,4.13,0,0,1,4.106,2.065,8.179,8.179,0,0,1,1.047-.263,4.607,4.607,0,0,1,4.439-4.625,4.809,4.809,0,0,1,3.18.744c2.043-1.463,11.147-7.8,18.859-9.863.032-.09.072-.181.1-.261l.008-.02a1.955,1.955,0,0,1,.208-.415l.077-.123c.06-.093.12-.185.19-.278l.018-.021.369-.352a.336.336,0,0,1,.091-.066v-.009A12.915,12.915,0,0,0,897.559,542.932Zm-34.108,15.645-.167.451a1.842,1.842,0,0,1-.445.6,5.063,5.063,0,0,1-.6.545,5.689,5.689,0,0,1-1.457.919l-.028.011a.9.9,0,0,1-.219.047.831.831,0,0,1-.383-.055.8.8,0,0,1-.416-.441.809.809,0,0,1,.008-.6,4.247,4.247,0,0,1,1.158-1.486,4.834,4.834,0,0,1,.81-.534h.01a2.414,2.414,0,0,1,1.182-.264.618.618,0,0,1,.577.631A.376.376,0,0,1,863.451,558.578Zm14.44-2.792a.646.646,0,0,1-.2.163l-.39.217a1.983,1.983,0,0,1-.758.229,2.259,2.259,0,0,1-.355.049c-.164.013-.329.018-.475.02a8.449,8.449,0,0,1-.9-.042,3.563,3.563,0,0,1-.931-.223l-.06-.024a.863.863,0,0,1-.482-1.115.812.812,0,0,1,.308-.385,2.925,2.925,0,0,1,.951-.468,4.625,4.625,0,0,1,1-.191,3.41,3.41,0,0,1,1.065.067,2.446,2.446,0,0,1,1.165.572.783.783,0,0,1,.26.551A.763.763,0,0,1,877.891,555.786Z" transform="translate(-822.009 -514.039)" fill="#ffcba7"/>
      <path id="Path_4719" data-name="Path 4719" d="M893.755,542.685a5.409,5.409,0,0,0-1.775-2.988,3.954,3.954,0,0,0-1.693-.849,1.686,1.686,0,0,0-.453-.079l-.4-.044a3.374,3.374,0,0,0-.891.026,16.869,16.869,0,0,0-1.181-5.058,28.841,28.841,0,0,0-5.792-8.984,21.3,21.3,0,0,0-11.952-6.458,23.343,23.343,0,0,0-6.738-.329.838.838,0,0,0-.575.329.856.856,0,0,0-.18.637.863.863,0,0,0,.966.754l.2-.017a23.136,23.136,0,0,1,5.9.35,19.75,19.75,0,0,1,11.089,5.9,26.573,26.573,0,0,1,5.8,9.479,12.916,12.916,0,0,1,.741,4.095v.01a.337.337,0,0,0-.091.066l-.369.352-.018.021c-.07.093-.13.186-.19.278l-.077.123a1.955,1.955,0,0,0-.208.415l-.008.02c-.032.08-.073.171-.1.261-7.713,2.064-16.816,8.4-18.859,9.863a4.809,4.809,0,0,0-3.18-.744,4.607,4.607,0,0,0-4.439,4.625,8.166,8.166,0,0,0-1.047.263,4.13,4.13,0,0,0-4.106-2.065c-2.005.168-4.268,1.562-4.652,3.827-1.706-.3-6.107-.557-17.127.744a5.96,5.96,0,0,1-.961-1.493l-.175-.354-.136-.348c-.037-.094-.074-.179-.11-.273-.051-.151-.113-.3-.155-.453l-.19-.761c-.032-.153-.055-.316-.079-.489-.017-.086-.025-.182-.042-.268a13.493,13.493,0,0,1-.054-3.084,11.836,11.836,0,0,1,.208-1.455c.035-.158.061-.306.087-.464l16.745-21.66a.871.871,0,0,0-.077-1.149v-.01l-.063-.053c-.446-.341-.872-.674-1.371-1.06a24.875,24.875,0,0,1,9.177-3.837h.02a6.779,6.779,0,0,0,.074.771.861.861,0,0,0,.661.7.89.89,0,0,0,.662-.094.9.9,0,0,0,.392-.538l.006-.039a10.825,10.825,0,0,0,.191-1.075c.006-.049.012-.089.018-.138l.149-1.236.152-1.2.193-1.182,0-.078a.646.646,0,0,0-.246-.62.661.661,0,0,0-.931.127,5.622,5.622,0,0,0-.71,1.274,8.879,8.879,0,0,0-.412,1.336,3.04,3.04,0,0,0-.077.356.781.781,0,0,0-.52-.054,25.5,25.5,0,0,0-10.271,4.453c-.393-.288-.8-.574-1.2-.861-.783-.537-1.49-.982-2.164-1.372h-.009a.778.778,0,0,0-.24-.193v-.01a.894.894,0,0,0-.289-.082c-.193-.1-.365-.183-.527-.257a17.963,17.963,0,0,0,1.293-1.846,12.016,12.016,0,0,0,1.435-3.626,8.68,8.68,0,0,0,.173-2c-.011-.242-.03-.483-.05-.714l-.023-.27-.012-.029c-.018-.105-.037-.22-.057-.335a3.819,3.819,0,0,0-.131-.639,6.587,6.587,0,0,0-.8-1.933,5.411,5.411,0,0,0-1.492-1.585,4.392,4.392,0,0,0-.624-.375,9.233,9.233,0,0,0-5.392-.15h-.01c-.435.25-.861.509-1.285.768l-.477.224a7.432,7.432,0,0,0-1.642,1.148h-.01a6.708,6.708,0,0,0-1.374,4.923c-.55-.653-3.352-1.177-3.352-1.177a9.052,9.052,0,0,0-1.533.022,7.808,7.808,0,0,0-2.712.781,7.422,7.422,0,0,0-2.211,1.778,11.743,11.743,0,0,0-1.489,2.281,10.76,10.76,0,0,0-.88,2.6,9.445,9.445,0,0,0-.126,2.788c.023.164.047.336.072.509a3.162,3.162,0,0,0,.432.867,4.877,4.877,0,0,0-.992.093,9.756,9.756,0,0,0-1.7.385,6.466,6.466,0,0,0-3.207,2.405,8.819,8.819,0,0,0-1.35,4.648c0,.321-.035.624-.008.942a8.654,8.654,0,0,0,.278,1.919,7.214,7.214,0,0,0,1.045,2.4,14.592,14.592,0,0,0,2.154,2.189,8.7,8.7,0,0,0,2.119.833,14.916,14.916,0,0,0,6.974-.108l5.881,6.791a4.843,4.843,0,0,0-.376,1.313,17.409,17.409,0,0,0-.163,1.762,13.214,13.214,0,0,0,.344,3.526,12.571,12.571,0,0,0,1.268,3.312,1.518,1.518,0,0,1,.124.2c.1.176.215.361.327.546l.011.009c.054.073.11.146.155.22a4.51,4.51,0,0,0-.623.1,2.972,2.972,0,0,0-.65.249,1.276,1.276,0,0,0-.12.068l-.028.012c-.055.034-.111.067-.157.1a2.681,2.681,0,0,0-.5.392l-.27.256-.018.021c-.052.072-.1.144-.148.207a.724.724,0,0,1-.07.093l-.044.062a2.416,2.416,0,0,0-.182.258l-.177.326a7.413,7.413,0,0,0-.558,5.5,5.5,5.5,0,0,0,1.511,2.505,3.6,3.6,0,0,0,3.015.981l.047-.014a4.974,4.974,0,0,0,.739-.227h.019l.13-.07a6.131,6.131,0,0,0,.537-.307,12.345,12.345,0,0,0,1.08-.79c.073-.055.137-.108.209-.172a9.518,9.518,0,0,0,4.03,5.683,25.914,25.914,0,0,0,8.307,3.986,12.045,12.045,0,0,0,3.586,4.323,16.235,16.235,0,0,0,10.627,3.043,13.38,13.38,0,0,0-.037,7.335c.774,2.169,1.206,2.453,1.206,2.453a.351.351,0,0,0,.034.055c.324.507.654.742.983.714a.689.689,0,0,0,.228-.058,11.1,11.1,0,0,0,1.829-1.115c2.438-1.972,2.668-2.943,2.668-2.943a13.78,13.78,0,0,0,1.774-5.257,10.574,10.574,0,0,0,3.688,3.566,12.782,12.782,0,0,0,2.921,1.367,13.675,13.675,0,0,0,2.656.632,7.024,7.024,0,0,0,1.217.034,1.349,1.349,0,0,0,1.2-.6,5.824,5.824,0,0,0,.234-2.778l0-.038a23.018,23.018,0,0,0-.331-2.8,13.694,13.694,0,0,0-3.587-5.837c4.313-2.313,6.952-5.127,7.845-8.378a9.579,9.579,0,0,0-.715-6.8c3.221-4.436,5.289-9.552,5.531-13.739.141-.051.282-.111.451-.184l.009-.01a5.242,5.242,0,0,0,1.383-1,6.259,6.259,0,0,0,1.59-2.931A7.366,7.366,0,0,0,893.755,542.685Zm-29.931,8.7c1.977-.165,3.355.865,3.5,2.63A3.429,3.429,0,0,1,864,557.5a2.906,2.906,0,0,1-3.2-1.694.321.321,0,0,0,.432.061l.037-.022c.323-.212.584-.447.841-.634a2.16,2.16,0,0,1,.6-.352c.03.008.049,0,.049.006h.01l.009-.011a.88.88,0,0,1,.089.012c.04.017.079.023.12.039a3.148,3.148,0,0,0,.51.064,2.243,2.243,0,0,0,.252-.011.226.226,0,0,0,.114-.029.045.045,0,0,0,.025-.051l-.006-.077a.545.545,0,0,1,0-.107c.016-.04,0-.078.056-.141a.335.335,0,0,0,.032.386.339.339,0,0,0,.478.028.381.381,0,0,0,.133-.264.314.314,0,0,0-.011-.135.235.235,0,0,0-.04-.132.421.421,0,0,0-.062-.151c-.036-.084-.06-.14-.094-.205a2.4,2.4,0,0,0-.209-.293,2.107,2.107,0,0,0-.453-.419c-.042-.035-.082-.061-.114-.087a.737.737,0,0,0-.172-.082,1.661,1.661,0,0,0-.508-.142,1.781,1.781,0,0,0-.982.218,2.256,2.256,0,0,0-.976,1.092,2.694,2.694,0,0,0-.248,1.215,3.234,3.234,0,0,1-.151-.755A3.33,3.33,0,0,1,863.824,551.387Zm-9.591,2.823a2.819,2.819,0,0,1,3.083,1.917c.011.018.013.037.024.056l0,.019a3.841,3.841,0,0,1,.191.887,1,1,0,0,1,0,.165.333.333,0,0,0-.15-.046c.007-.039-.106-.108-.158-.152l-.208-.167c-.144-.1-.289-.2-.442-.293s-.306-.178-.459-.262c-.03-.017-.121-.048-.191-.081s-.15-.056-.22-.079a1.827,1.827,0,0,0-.516-.025,1.667,1.667,0,0,0-.9.386,1.845,1.845,0,0,0-.483.613,2.3,2.3,0,0,0-.281,1.286.35.35,0,0,0,.1.235.375.375,0,0,0,.537.032l.044-.052c.271-.236.511-.509.729-.693a2.552,2.552,0,0,1,.276-.188c.076-.016.114-.029.115-.019.029,0,.029-.012.157.016a2.9,2.9,0,0,0,.567.166,3.125,3.125,0,0,0,.61.085l.33,0c.125-.011.191-.035.393-.062a.234.234,0,0,0,.115-.02,3.429,3.429,0,0,1-6.8-.275C850.534,555.734,852.4,554.363,854.233,554.21Zm-30.151-15.734a.85.85,0,0,0-.724-.3.484.484,0,0,0-.115.019l-.029,0a18.63,18.63,0,0,1-2.779.446c-.193.016-.4.034-.56.037a11.155,11.155,0,0,1-3.261-.329,6.4,6.4,0,0,1-2.286-1.091,3.723,3.723,0,0,1-.418-.354,5.119,5.119,0,0,1-1.286-2.135c-.055-.19-.1-.342-.128-.485l0-.02a4.964,4.964,0,0,1-.178-1.2l-.03-.366c0-.155,0-.321.008-.487.011-.108.011-.214.012-.321s.013-.186.015-.283a2.568,2.568,0,0,1,.045-.509l.008-.02a6.108,6.108,0,0,1,1.013-2.862,4.6,4.6,0,0,1,2.317-1.68c.019,0,.037-.013.057-.015s.028-.012.048-.014h.009a6.469,6.469,0,0,1,1.4-.273,7.041,7.041,0,0,1,1.331.005h.02c.039.006.078,0,.117.01a.1.1,0,0,0,.049.006,1.023,1.023,0,0,0,.724-.168,1.06,1.06,0,0,0,.3-1.462l-.032-.036-.011-.018a.8.8,0,0,1-.1-.147,3.183,3.183,0,0,1-.329-.682,6.06,6.06,0,0,1-.274-1.065,5.872,5.872,0,0,1-.079-1.411,7.757,7.757,0,0,1,.774-3.056,9.847,9.847,0,0,1,1.271-1.981,4.942,4.942,0,0,1,3.652-1.85l.029,0a.817.817,0,0,1,.154-.013,8.7,8.7,0,0,1,2.276.276l.049.006a3.671,3.671,0,0,1,.428.129h.009a15.728,15.728,0,0,1,1.632.582.888.888,0,0,0,.466.456.93.93,0,0,0,.74.026.962.962,0,0,0,.557-1.232l-.164-.452a1.811,1.811,0,0,1-.071-.615v-.01a4.116,4.116,0,0,1,.076-.715,4.04,4.04,0,0,1,.25-.847,3.411,3.411,0,0,1,.248-.516A5.41,5.41,0,0,1,833.5,509.4a9.257,9.257,0,0,1,3.041-1.032l.3-.025a3.723,3.723,0,0,1,2.476.579,4,4,0,0,1,1.56,2.395,3.476,3.476,0,0,1,.1.449c.018.105.038.22.066.324l.013.155c.027.211.046.433.053.636a6.73,6.73,0,0,1-.12,1.583,11.766,11.766,0,0,1-3.2,5.745l-.107.115.784,1.129c0,.019-.006.039.005.058,0,.048.033.163.208.167.03.008.079.013.118.019l.03.008a3.671,3.671,0,0,1,.43.148c-3.163,5.257-12.551,14.812-14.79,17.058Zm1.516,1.748c2.25-2.247,11.9-12.038,15.186-17.548.511.307,1.034.632,1.529.98,1,.674,2.074,1.457,3.268,2.387L830.359,545.72Zm23.066,37.138a33.136,33.136,0,0,0,9.235.461,46.073,46.073,0,0,0,6.392-1.021,3.185,3.185,0,0,0-.037,2.343,11.907,11.907,0,0,0-2.706,3.635C853.466,583.214,849.951,579.4,848.664,577.362Zm17.52,13.577a9.254,9.254,0,0,1-2.949,2.481,7.581,7.581,0,0,1-.753-1.8,12.322,12.322,0,0,1-.559-3.43,10.526,10.526,0,0,1,.66-4.066.737.737,0,0,0,.4-.7.769.769,0,0,0-.032-.143,9.888,9.888,0,0,1,2.174-2.92c.011.018.031.026.052.044a3.172,3.172,0,0,0-.163.373,4.843,4.843,0,0,0-.276.887,8.728,8.728,0,0,0-.188,1.7.433.433,0,0,0,.847.143,7.128,7.128,0,0,1,.584-1.379,4.477,4.477,0,0,1,.389-.577,1.293,1.293,0,0,1,.106-.125l.281-.238a.424.424,0,0,0,.063-.063c0,.185-.027.381-.049.567a9.506,9.506,0,0,1-.226,1.127,10.5,10.5,0,0,1-.782,2.144l-.017.03a.469.469,0,0,0,.168.617.5.5,0,0,0,.376.075.517.517,0,0,0,.312-.211,12.434,12.434,0,0,0,1.149-2.281c.142-.39.264-.79.383-1.227.087-.347.141-.633.185-.918a.742.742,0,0,0,.144-.022C868.64,582.692,868.876,587.479,866.184,590.939Zm2.689-11.5c-1.412.409-2.905.1-3.194-.675a1.762,1.762,0,0,1,0-1.476,3.329,3.329,0,0,1,1.859-1.34c.019,0,.018-.011.028-.012l.02,0c.151-.051.3-.093.454-.135a3.8,3.8,0,0,1,.37-.109c.293-.093.586-.195.859-.3a1.692,1.692,0,0,1,1.211.2c.494.338.532,1.131.485,1.737A2.626,2.626,0,0,1,868.873,579.438Zm11.108,6.354.011.018c.013.038.027.086.041.143a14.988,14.988,0,0,1,.31,2.314,4.426,4.426,0,0,1-.087,1.5,6.443,6.443,0,0,1-2.45-.261,12.385,12.385,0,0,1-1.816-.576,12.68,12.68,0,0,1-1.272-.583,8.6,8.6,0,0,1-4.7-5.307,19.192,19.192,0,0,0-.136-2.426,5.962,5.962,0,0,0,.745-.383,3.883,3.883,0,0,1,.715.542,4.618,4.618,0,0,1,.693.855,4.726,4.726,0,0,1,.465,1.03l.01.009a5.491,5.491,0,0,1,.222,1.137l0,.039a.634.634,0,0,0,.658.557.654.654,0,0,0,.44-.193.7.7,0,0,0,.184-.462,7.282,7.282,0,0,0-.158-1.434,5.864,5.864,0,0,0-.487-1.406,5.754,5.754,0,0,0-.834-1.26,4.778,4.778,0,0,0-.656-.644,3.426,3.426,0,0,0,.529-1.463A11.464,11.464,0,0,1,879.98,585.792Zm4.108-15.542c-.81,2.971-3.389,5.576-7.655,7.74a12.827,12.827,0,0,0-4.091-2,2.629,2.629,0,0,0-.831-1.464,32.132,32.132,0,0,0,12.257-9.379,8.41,8.41,0,0,1,.569,2.39A7.808,7.808,0,0,1,884.088,570.25Zm4.86-26.279c.034.162.085.313.127.465q.12.383.208.74a2.57,2.57,0,0,1,.064.422l-.009.01-.1.077a.609.609,0,0,0,.565,1.06,1.115,1.115,0,0,0,.561-.378,1.226,1.226,0,0,0,.264-.566l0-.019a2.626,2.626,0,0,0,0-.845c-.005-.058-.02-.125-.025-.182a3.057,3.057,0,0,1,.28.21.3.3,0,0,0,.072.042l.01.009a.863.863,0,0,0,.912-.008,4.475,4.475,0,0,1-1.063,2.623,4.629,4.629,0,0,1-4.47,1.122.733.733,0,0,0-.85.518.748.748,0,0,0,.066.558.775.775,0,0,0,.407.335l.04.016a7.835,7.835,0,0,0,2.82.269c-.352,3.924-2.409,8.7-5.529,12.835a31.038,31.038,0,0,1-14.372,10.682,6.545,6.545,0,0,0-1.76.555c-11.316,3.337-20.689,2.4-27.853-2.786-3.2-2.315-3.588-4.934-3.591-6a1.8,1.8,0,0,0,.161-.4,1.362,1.362,0,0,0,.061-.307l.008-.02c0-.048.01-.108,0-.185l0-.039a1.263,1.263,0,0,0-.052-.278v-.01a.872.872,0,0,0-.449-.5.923.923,0,0,0-.664-.042.889.889,0,0,0-.576.893v.01a.2.2,0,0,1-.041.091l-.018.021a1.208,1.208,0,0,1-.243.35,5.555,5.555,0,0,1-.781.755c-.309.249-.659.482-.953.682a1.131,1.131,0,0,1-.231.136c-.056.034-.112.058-.176.1a1.8,1.8,0,0,1-.209.056c-.066.025-.132.04-.2.065a1.907,1.907,0,0,1-1.532-.551,3.788,3.788,0,0,1-1.028-1.73,5.76,5.76,0,0,1,.435-4.193,2.215,2.215,0,0,1,1.262-1.174l.019,0a2.46,2.46,0,0,1,1.733.283l.113.068a.863.863,0,0,0,1.105-.258.837.837,0,0,0,.134-.72c11.38-1.3,14.955-.825,15.9-.593a4.706,4.706,0,0,0,7.648,2.73,1.6,1.6,0,0,0,.373,1.435,3.805,3.805,0,0,0,2.967.752,8.526,8.526,0,0,0,1.226-.2c1.419-.333,2.343-1.012,2.545-1.854a1.488,1.488,0,0,0-.556-1.537.7.7,0,0,0-.539-.178.679.679,0,0,0-.494.245.734.734,0,0,0,.077,1.033c.063.053.085.08.086.1-.039.12-.432.522-1.461.763-1.485.358-2.533.144-2.768-.118-.021-.017-.064-.062,0-.243a8.993,8.993,0,0,0,.256-4.828,5.622,5.622,0,0,1,.715-.167,4.184,4.184,0,0,0,4.539,2.592,4.7,4.7,0,0,0,4.5-4.863,4.254,4.254,0,0,0-.672-1.993c2.577-1.818,10.664-7.3,17.612-9.341,0,.087.006.184,0,.281a8.286,8.286,0,0,0,.248,1.571.743.743,0,0,0,.841.542.787.787,0,0,0,.469-.311.684.684,0,0,0,.11-.553l0-.029a4.694,4.694,0,0,1,.112-2.379,1.231,1.231,0,0,1,.516-.675,1.663,1.663,0,0,1,.85-.168,1.082,1.082,0,0,0,.175,0,2,2,0,0,1,.353.039c.1.011.2.022.285.034a2.53,2.53,0,0,1,.275.035l.02.008a1.923,1.923,0,0,1,.839.4,3.372,3.372,0,0,1,1.1,1.812c.018.1.046.2.065.305-.347-.2-.715-.416-1.12-.625a1.3,1.3,0,0,1-.132-.066,3.239,3.239,0,0,0-.652-.247l-.039-.006a.984.984,0,0,0-.254-.018.972.972,0,0,0-.343.077.837.837,0,0,0-.408.462,1.7,1.7,0,0,0-.047.247.8.8,0,0,0,.013.155l.006.077Z" transform="translate(-810.532 -506.461)" fill="#1a1818"/>
      <path id="Path_4720" data-name="Path 4720" d="M841.98,512.843a3.475,3.475,0,0,0-.1-.449,4,4,0,0,0-1.56-2.395,3.724,3.724,0,0,0-2.476-.579l-.3.025a9.259,9.259,0,0,0-3.041,1.032,5.409,5.409,0,0,0-2.178,2.056,3.41,3.41,0,0,0-.248.516,4.033,4.033,0,0,0-.25.847,4.111,4.111,0,0,0-.076.715v.01a1.812,1.812,0,0,0,.071.615l.164.452a.962.962,0,0,1-.557,1.232.93.93,0,0,1-.74-.026.888.888,0,0,1-.466-.456,15.73,15.73,0,0,0-1.632-.582h-.009a3.678,3.678,0,0,0-.428-.129l-.049-.006a8.7,8.7,0,0,0-2.276-.276.817.817,0,0,0-.154.013l-.029,0a4.942,4.942,0,0,0-3.652,1.85,9.845,9.845,0,0,0-1.271,1.981,7.754,7.754,0,0,0-.774,3.056,5.868,5.868,0,0,0,.079,1.411,6.06,6.06,0,0,0,.274,1.065,3.187,3.187,0,0,0,.329.682.8.8,0,0,0,.1.147l.011.018.032.036a1.06,1.06,0,0,1-.3,1.462,1.022,1.022,0,0,1-.724.168.1.1,0,0,1-.049-.006c-.039-.006-.078,0-.117-.01h-.02a7.041,7.041,0,0,0-1.331-.005,6.462,6.462,0,0,0-1.4.273h-.01c-.02,0-.028.012-.047.014s-.038.013-.057.015a4.6,4.6,0,0,0-2.317,1.68,6.11,6.11,0,0,0-1.013,2.862l-.008.02a2.574,2.574,0,0,0-.045.509,2.812,2.812,0,0,1-.015.283c0,.107,0,.214-.012.321-.006.166-.011.331-.008.487l.03.366a4.964,4.964,0,0,0,.178,1.2l0,.02c.031.143.073.295.128.485a5.12,5.12,0,0,0,1.286,2.135,3.717,3.717,0,0,0,.418.354,6.406,6.406,0,0,0,2.286,1.09,11.153,11.153,0,0,0,3.261.329c.165,0,.368-.021.56-.037a18.625,18.625,0,0,0,2.779-.446l.029,0a.487.487,0,0,1,.115-.019.85.85,0,0,1,.724.3l.376.435c2.239-2.246,11.627-11.8,14.79-17.059a3.7,3.7,0,0,0-.43-.148l-.03-.008c-.039-.006-.088-.011-.118-.019-.176,0-.2-.119-.208-.167-.011-.018,0-.039-.005-.058l-.784-1.129.107-.115a11.766,11.766,0,0,0,3.2-5.745,6.727,6.727,0,0,0,.12-1.583c-.008-.2-.026-.425-.053-.636l-.013-.155C842.018,513.063,842,512.948,841.98,512.843Zm-5.015,9.927a1.155,1.155,0,0,1-1.579.162l-.032-.027a1.08,1.08,0,0,0-1.307-.065,1.2,1.2,0,0,0-.453.62l-.12.311a2.778,2.778,0,0,1-.194.463,3.657,3.657,0,0,1-.6.9,3.329,3.329,0,0,1-1.968.961,6.458,6.458,0,0,1-.838.089l-.357.03c-.068.005-.107,0-.136,0a1.813,1.813,0,0,0-.408.461,5.7,5.7,0,0,0-.5,1.072l-.015.05a1.08,1.08,0,0,1-.93.719,1.119,1.119,0,0,1-.431-.051,1.081,1.081,0,0,1-.691-1.292,7.287,7.287,0,0,1,.65-1.637l.009-.011a4.524,4.524,0,0,1,.584-.8,2.7,2.7,0,0,1,1.058-.71h.009a3.553,3.553,0,0,1,.795-.134l.193-.016a5.813,5.813,0,0,0,.625-.072.984.984,0,0,0,.844-.6,2.3,2.3,0,0,0,.088-.221l.143-.381a3.582,3.582,0,0,1,1.3-1.682,3.291,3.291,0,0,1,2.134-.606,3.509,3.509,0,0,1,2,.833A1.157,1.157,0,0,1,836.965,522.77Z" transform="translate(-811.545 -507.54)" fill="#fbfafa"/>
      <path id="Path_4721" data-name="Path 4721" d="M844.518,529.074a1.156,1.156,0,0,1-1.579.162l-.032-.027a1.08,1.08,0,0,0-1.307-.065,1.2,1.2,0,0,0-.453.62l-.12.311a2.792,2.792,0,0,1-.194.463,3.652,3.652,0,0,1-.6.9,3.328,3.328,0,0,1-1.968.961,6.459,6.459,0,0,1-.838.089l-.357.03c-.068.005-.107,0-.136,0a1.811,1.811,0,0,0-.408.461,5.687,5.687,0,0,0-.5,1.071l-.015.05a1.08,1.08,0,0,1-.93.719,1.119,1.119,0,0,1-.431-.051,1.08,1.08,0,0,1-.691-1.292,7.285,7.285,0,0,1,.65-1.637l.009-.011a4.526,4.526,0,0,1,.584-.8,2.7,2.7,0,0,1,1.058-.71h.01a3.56,3.56,0,0,1,.795-.134l.193-.016a5.813,5.813,0,0,0,.625-.072.985.985,0,0,0,.844-.595,2.288,2.288,0,0,0,.088-.221l.143-.381a3.581,3.581,0,0,1,1.3-1.682,3.291,3.291,0,0,1,2.134-.606,3.509,3.509,0,0,1,2,.833A1.157,1.157,0,0,1,844.518,529.074Z" transform="translate(-819.098 -513.844)" fill="#1a1818"/>
      <path id="Path_4722" data-name="Path 4722" d="M854.291,535.417,839.07,555.095l-4.762-5.5c2.249-2.247,11.9-12.038,15.186-17.548.511.307,1.033.632,1.529.98C852.022,533.7,853.1,534.487,854.291,535.417Z" transform="translate(-819.242 -515.836)" fill="#fbfafa"/>
      <path id="Path_4723" data-name="Path 4723" d="M877.023,584.748a2.3,2.3,0,0,0-.281,1.286.35.35,0,0,0,.1.235.375.375,0,0,0,.537.032l.044-.052c.271-.236.511-.509.729-.693a2.538,2.538,0,0,1,.276-.188c.076-.016.114-.029.115-.019.029,0,.029-.012.157.016a2.894,2.894,0,0,0,.567.166,3.127,3.127,0,0,0,.61.085l.33,0c.125-.011.191-.036.393-.062a.234.234,0,0,0,.115-.02,3.429,3.429,0,0,1-6.8-.275c-.162-1.929,1.705-3.3,3.538-3.453a2.819,2.819,0,0,1,3.083,1.917c.011.018.013.037.024.056l0,.019a3.844,3.844,0,0,1,.191.887.99.99,0,0,1,0,.165.333.333,0,0,0-.15-.046c.007-.039-.106-.108-.158-.152l-.208-.167c-.144-.1-.289-.2-.442-.293s-.306-.178-.459-.262c-.03-.017-.121-.048-.191-.081s-.15-.056-.221-.079a1.829,1.829,0,0,0-.516-.025,1.667,1.667,0,0,0-.9.387A1.844,1.844,0,0,0,877.023,584.748Z" transform="translate(-833.747 -534.06)" fill="#fbfafa"/>
      <path id="Path_4724" data-name="Path 4724" d="M886.3,619.813a11.909,11.909,0,0,0-2.706,3.635c-8.082.434-11.6-3.38-12.885-5.418a33.138,33.138,0,0,0,9.235.461,46.092,46.092,0,0,0,6.392-1.021A3.185,3.185,0,0,0,886.3,619.813Z" transform="translate(-832.578 -547.129)" fill="#ae0721"/>
      <path id="Path_4725" data-name="Path 4725" d="M895.894,633.661a9.253,9.253,0,0,1-2.949,2.481,7.577,7.577,0,0,1-.753-1.8,12.321,12.321,0,0,1-.559-3.43,10.527,10.527,0,0,1,.66-4.066.737.737,0,0,0,.4-.7.768.768,0,0,0-.032-.143,9.887,9.887,0,0,1,2.174-2.92c.011.018.031.026.052.044a3.186,3.186,0,0,0-.163.373,4.849,4.849,0,0,0-.276.887,8.728,8.728,0,0,0-.188,1.7.433.433,0,0,0,.847.143,7.132,7.132,0,0,1,.584-1.379,4.479,4.479,0,0,1,.389-.577,1.3,1.3,0,0,1,.106-.125l.281-.238a.429.429,0,0,0,.063-.063c0,.185-.027.381-.049.567a9.516,9.516,0,0,1-.226,1.127,10.5,10.5,0,0,1-.782,2.144l-.017.03a.469.469,0,0,0,.168.617.5.5,0,0,0,.376.075.517.517,0,0,0,.312-.211,12.434,12.434,0,0,0,1.149-2.281c.142-.39.264-.79.383-1.227.087-.347.141-.633.185-.918a.742.742,0,0,0,.144-.022C898.35,625.414,898.585,630.2,895.894,633.661Z" transform="translate(-840.241 -549.183)" fill="#ae0721"/>
      <path id="Path_4726" data-name="Path 4726" d="M896.244,579.981a3.429,3.429,0,0,1-3.331,3.484,2.906,2.906,0,0,1-3.2-1.694.321.321,0,0,0,.432.061l.037-.022c.323-.212.584-.447.841-.634a2.16,2.16,0,0,1,.6-.352c.03.008.049,0,.049.006h.01l.009-.011a.894.894,0,0,1,.089.012c.04.016.079.023.12.039a3.148,3.148,0,0,0,.51.064,2.257,2.257,0,0,0,.252-.011.228.228,0,0,0,.114-.028.045.045,0,0,0,.025-.051l-.006-.077a.539.539,0,0,1,0-.107c.017-.04,0-.078.056-.141a.335.335,0,0,0,.032.386.339.339,0,0,0,.478.028.381.381,0,0,0,.133-.264.313.313,0,0,0-.011-.135.235.235,0,0,0-.04-.132.421.421,0,0,0-.062-.151c-.036-.084-.06-.14-.094-.205a2.4,2.4,0,0,0-.209-.293,2.1,2.1,0,0,0-.453-.419c-.042-.035-.082-.061-.114-.087a.739.739,0,0,0-.172-.082,1.66,1.66,0,0,0-.508-.142,1.779,1.779,0,0,0-.982.218,2.256,2.256,0,0,0-.977,1.092,2.694,2.694,0,0,0-.248,1.215,3.234,3.234,0,0,1-.151-.755,3.33,3.33,0,0,1,3.266-3.439C894.718,577.186,896.1,578.216,896.244,579.981Z" transform="translate(-839.449 -532.425)" fill="#fbfafa"/>
      <path id="Path_4727" data-name="Path 4727" d="M902.76,617.171a2.626,2.626,0,0,1-2.1,2.108c-1.412.409-2.905.1-3.194-.675a1.762,1.762,0,0,1,0-1.476,3.328,3.328,0,0,1,1.859-1.34c.019,0,.018-.011.028-.012l.02,0c.151-.051.3-.093.454-.135a3.852,3.852,0,0,1,.37-.109c.293-.092.586-.194.859-.3a1.692,1.692,0,0,1,1.211.2C902.769,615.772,902.807,616.565,902.76,617.171Z" transform="translate(-842.323 -546.302)" fill="#ae0721"/>
      <path id="Path_4728" data-name="Path 4728" d="M914.658,629.362a4.424,4.424,0,0,1-.087,1.5,6.443,6.443,0,0,1-2.45-.261,12.377,12.377,0,0,1-1.816-.576,12.667,12.667,0,0,1-1.272-.583,8.6,8.6,0,0,1-4.7-5.307,19.184,19.184,0,0,0-.136-2.426,5.95,5.95,0,0,0,.745-.383,3.879,3.879,0,0,1,.715.542,4.614,4.614,0,0,1,.693.855,4.724,4.724,0,0,1,.465,1.03l.01.009a5.487,5.487,0,0,1,.222,1.137l0,.039a.633.633,0,0,0,.658.557.654.654,0,0,0,.44-.193.7.7,0,0,0,.184-.462,7.28,7.28,0,0,0-.158-1.434A5.864,5.864,0,0,0,907.69,622a5.754,5.754,0,0,0-.834-1.26,4.779,4.779,0,0,0-.656-.644,3.426,3.426,0,0,0,.528-1.463,11.464,11.464,0,0,1,7.566,8.253l.011.018c.013.038.027.086.041.143A14.987,14.987,0,0,1,914.658,629.362Z" transform="translate(-844.847 -547.556)" fill="#ae0721"/>
      <path id="Path_4729" data-name="Path 4729" d="M919.593,601.469a7.808,7.808,0,0,1-.249,2.711c-.81,2.971-3.389,5.576-7.655,7.74a12.828,12.828,0,0,0-4.091-2,2.629,2.629,0,0,0-.831-1.464,32.132,32.132,0,0,0,12.257-9.379A8.41,8.41,0,0,1,919.593,601.469Z" transform="translate(-845.788 -540.392)" fill="#ae0721"/>
      <path id="Path_4730" data-name="Path 4730" d="M895.781,594.981c-.069.1-.129.205-.2.317-.223.349-.454.718-.717,1.061-.186.21-.363.419-.559.629-.088.1-.177.209-.285.315l-.316.279a8.134,8.134,0,0,1-2.931,1.76,8.029,8.029,0,0,1-2.051.443,8.138,8.138,0,0,1-1.379,0,8.425,8.425,0,0,1-3.259-.989.622.622,0,0,1-.236-.845.612.612,0,0,1,.713-.293l.039.006a12.17,12.17,0,0,0,2.844.442,9.194,9.194,0,0,0,2.186-.222c.076-1.3.764-3.628,2.162-3.755.357-.03.712-.079,1.058-.127a4.237,4.237,0,0,1,2.265.024.607.607,0,0,1,.556.148A.63.63,0,0,1,895.781,594.981Z" transform="translate(-837.363 -538.481)" fill="#1a1818"/>
      <path id="Path_4731" data-name="Path 4731" d="M919.551,574.435a.67.67,0,0,1-.173.374l-.009.011-.054.043-.627.636c-.1.1-.189.181-.279.266-.125.127-.242.243-.378.362a8.258,8.258,0,0,1-.716.613h-.01a3.318,3.318,0,0,1-.921.485l-.066.025a1.112,1.112,0,0,1-.162.033.815.815,0,0,1-.834-.561.784.784,0,0,1-.006-.427,2.927,2.927,0,0,1,.533-1.054,3.944,3.944,0,0,1,.838-.779,4.48,4.48,0,0,1,1.032-.553,2.84,2.84,0,0,1,1.276-.184.666.666,0,0,1,.428.246A.631.631,0,0,1,919.551,574.435Z" transform="translate(-848.91 -531.098)" fill="#1a1818"/>
      <path id="Path_4732" data-name="Path 4732" d="M843.969,597.367v.01a1.938,1.938,0,0,1-.392.082c-.81.068-1.227-.626-1.488-1.187a.8.8,0,0,1-.18.287.841.841,0,0,1-.581.253.877.877,0,0,1-.9-.818c-.116-2.078.4-2.549.869-2.724a1.18,1.18,0,0,1,1.4.534,6.471,6.471,0,0,1,.865,1.52c.049.122.119.262.167.374a.875.875,0,0,1,.757.568A.865.865,0,0,1,843.969,597.367Z" transform="translate(-821.478 -538.238)" fill="#1a1818"/>
      <path id="Path_4733" data-name="Path 4733" d="M861.147,597.275v.01a.713.713,0,0,1-.252.351l-.064.044-1.625,1.127c-.313.21-.6.39-.876.559a6.162,6.162,0,0,1-1,.472l-.077.016a.673.673,0,0,1-.2.046.875.875,0,0,1-.445-.089.819.819,0,0,1-.42-.5.779.779,0,0,1,.053-.646,3.466,3.466,0,0,1,.778-1.026,4.744,4.744,0,0,1,1.026-.736,4.564,4.564,0,0,1,1.224-.471,2.947,2.947,0,0,1,1.429.016A.664.664,0,0,1,861.147,597.275Z" transform="translate(-827.242 -539.393)" fill="#1a1818"/>
      <path id="Path_4734" data-name="Path 4734" d="M891.363,520.27l-.025.041a8.367,8.367,0,0,0-.44,1.241,8.192,8.192,0,0,0-.221,1.31,6.588,6.588,0,0,0-.008,1.293v.01a2.367,2.367,0,0,0,.032.259,4,4,0,0,0,.1.458c.034.172.077.343.1.526l.006.067a1.1,1.1,0,0,1-.936,1.234l-.067.006a1.1,1.1,0,0,1-1.161-.874,4.862,4.862,0,0,1-.08-1.3,3.613,3.613,0,0,1,.017-.38,7.838,7.838,0,0,1,.293-1.608,9.016,9.016,0,0,1,.554-1.5,7.433,7.433,0,0,1,.807-1.379.547.547,0,0,1,.387-.246.6.6,0,0,1,.644.849Z" transform="translate(-839.15 -511.207)" fill="#1a1818"/>
      <path id="Path_4735" data-name="Path 4735" d="M873.79,576.1a.376.376,0,0,1-.034.177l-.167.451a1.841,1.841,0,0,1-.445.6,5.063,5.063,0,0,1-.6.545,5.689,5.689,0,0,1-1.457.919l-.028.011a.9.9,0,0,1-.219.047.83.83,0,0,1-.383-.055.8.8,0,0,1-.416-.441.809.809,0,0,1,.008-.6,4.247,4.247,0,0,1,1.158-1.486,4.837,4.837,0,0,1,.81-.534h.01a2.414,2.414,0,0,1,1.182-.264.618.618,0,0,1,.577.631Z" transform="translate(-832.315 -531.743)" fill="#1a1818"/>
      <path id="Path_4736" data-name="Path 4736" d="M896.264,570.732a.763.763,0,0,1-.2.58.646.646,0,0,1-.2.163l-.39.217a1.983,1.983,0,0,1-.758.229,2.261,2.261,0,0,1-.355.049c-.164.013-.329.018-.475.02a8.43,8.43,0,0,1-.9-.042,3.558,3.558,0,0,1-.932-.223l-.06-.024a.863.863,0,0,1-.482-1.115.812.812,0,0,1,.308-.385,2.925,2.925,0,0,1,.951-.468,4.625,4.625,0,0,1,1-.191,3.406,3.406,0,0,1,1.064.067,2.446,2.446,0,0,1,1.165.572A.783.783,0,0,1,896.264,570.732Z" transform="translate(-840.178 -529.566)" fill="#1a1818"/>
      <path id="Path_4737" data-name="Path 4737" d="M887.436,521.343l-.006.049c-.044.285-.1.572-.151.857-.021.1-.032.2-.053.3-.063.4-.111.757-.16,1.1-.034.284-.049.577-.074.86l-.013.2-.013.312-.021.788a.843.843,0,0,1-.268.625.893.893,0,0,1-.534.239c-.029,0-.059-.005-.1,0a.866.866,0,0,1-.773-.537,3.534,3.534,0,0,1-.255-.959,4.941,4.941,0,0,1,.123-1.895,6.015,6.015,0,0,1,.486-1.274,5.018,5.018,0,0,1,.778-1.144.591.591,0,0,1,.421-.19.6.6,0,0,1,.61.677Z" transform="translate(-837.803 -511.665)" fill="#1a1818"/>
      <path id="Path_4738" data-name="Path 4738" d="M895.33,598.351a9.689,9.689,0,0,0,3.013-2.267s-1.846-.5-2.47.207A3.345,3.345,0,0,0,895.33,598.351Z" transform="translate(-841.596 -539.232)" fill="#ae0721"/>
    </g>
  </g>
</svg>
