<svg xmlns="http://www.w3.org/2000/svg" width="17.833" height="12.392" viewBox="0 0 17.833 12.392">
  <g id="Group_1060" data-name="Group 1060" transform="translate(3)">
    <g id="Group_524" data-name="Group 524" transform="translate(-3)">
      <g id="Group_523" data-name="Group 523" transform="translate(0)">
        <path id="Path_4672" data-name="Path 4672" d="M222.5,89.642H207.832a1.706,1.706,0,0,1-1.582-1.8V77.7a.453.453,0,1,1,.907,0V87.838c0,.487.309.9.675.9H222.5c.366,0,.675-.411.675-.9V77.7a.453.453,0,1,1,.907,0V87.838A1.706,1.706,0,0,1,222.5,89.642Z" transform="translate(-206.25 -77.25)" fill="#ffffff"/>
        <path id="Path_4673" data-name="Path 4673" d="M223.433,91.629a.451.451,0,0,1-.3-.113l-7.47-6.574c-.123-.123-.161-.1-.232-.024l-7.5,6.6a.454.454,0,1,1-.6-.681l7.47-6.574a1.09,1.09,0,0,1,1.482.025l7.444,6.549a.453.453,0,0,1-.3.794Z" transform="translate(-206.619 -79.913)" fill="#ffffff"/>
      </g>
      <path id="Path_4674" data-name="Path 4674" d="M215.166,86.94a.454.454,0,0,1-.326-.138l-8.463-8.783a.454.454,0,0,1,.653-.63l8.136,8.444,8.136-8.444a.454.454,0,1,1,.653.63L215.493,86.8A.454.454,0,0,1,215.166,86.94Z" transform="translate(-206.25 -77.25)" fill="#ffffff"/>
    </g>
    <g id="Group_525" data-name="Group 525" transform="translate(-2.704)">
      <path id="Path_4675" data-name="Path 4675" d="M215.463,86.783,207,78h16.926l-8.463,8.783" transform="translate(-206.842 -77.547)" fill="#f30a00"/>
      <path id="Path_4676" data-name="Path 4676" d="M215.36,86.939a.454.454,0,0,1-.326-.138L207,78.463a.681.681,0,0,1,.516-1.213h15.691a.681.681,0,0,1,.516,1.213L215.686,86.8A.454.454,0,0,1,215.36,86.939Zm-7.392-8.783,7.392,7.676,7.394-7.673Z" transform="translate(-206.739 -77.25)" fill="#ffffff"/>
    </g>
  </g>
</svg>
