<svg xmlns="http://www.w3.org/2000/svg" width="1446.761" height="10139.941" viewBox="0 0 1446.761 10139.941">
  <path id="Path_4746" data-name="Path 4746" d="M12428.684,679.353s-243.437-42.818-243.437,237.351S13626.331,956.236,13630,1237.754s-1363,112.36-1363,428.221,1363-7.043,1363,340.228-1363,165.271-1363,469.968,1363,76.258,1363,399.668-1363,133.359-1363,373.938c0,62.069,90.727,108.27,225.909,147.057C12879.581,3507.781,13630,3556.273,13630,3739.57c0,102.023-233.3,157.958-506.97,205.008-388.712,66.83-858.851,115.7-856.03,253.347,4.8,234.491,1363,209.257,1363,471.565s-1359.75,85.289-1363,366.217,1363.214,215.314,1363,506.682-1359.592,75.875-1363,375.621,1363,48.483,1363,341.767-1363,195.644-1363,506.682,1363,120.2,1363,361.2-1363,185.6-1363,481.6,1363,84.838,1363,386.286-1363,182.49-1363,465.041,1363,75.116,1363,384.778-1363,165.674-1363,494.167,1363,69.5,1363,398.078-1361.166,406.635-1363,681.008,1362.732,275.917,1363,396.317" transform="translate(-12184.246 -675.997)" fill="none" stroke="#000" stroke-linecap="round" stroke-width="2" stroke-dasharray="3 5"/>
</svg>
