<svg xmlns="http://www.w3.org/2000/svg" width="66.57" height="55.598" viewBox="0 0 66.57 55.598">
  <path id="Path_4682" data-name="Path 4682" d="M722.816,612.422v-.01h0a22.709,22.709,0,0,0-1.013-4.385.981.981,0,0,0-.985-.658l-8.275.547.044-.647v-4.156a1.015,1.015,0,0,0-.031-.152,1,1,0,0,0-.015-.153c-3.193-9.592-12.107-16.842-22.746-18.479a35.846,35.846,0,0,0-4.118-.234,34.838,34.838,0,0,0-11.608,1.938l-.094.037a27.845,27.845,0,0,0-15.729,15.284l0,.01c-.117.284-.225.571-.319.833-.008.02-.042.121-.049.143a35.8,35.8,0,0,0-1.407,9.966c.848,14.177,13.436,25.283,28.658,25.283a30.451,30.451,0,0,0,9.549-1.52.974.974,0,0,0,.666-.924v-9.671a.937.937,0,0,0-.04-.274l-3.385-11.511,5.79-.656-.08,6.978a.946.946,0,0,0,.046.3l5.925,18.7c.006.016.016.028.022.044a.948.948,0,0,0,.1.188c.016.023.029.047.046.069a.989.989,0,0,0,.186.186l.007.006v0c.03.02.064.03.1.048a.74.74,0,0,0,.437.13c.013,0,.024.006.036.006h0a.955.955,0,0,0,.149-.012c.023,0,.043-.017.066-.022s.059,0,.088-.014c10.892-3.582,18.21-13.24,18.21-24.031A23.882,23.882,0,0,0,722.816,612.422Zm-1.944.116c-.032.281-.083.558-.131.836-.027.156-.044.316-.076.471-.078.374-.177.742-.284,1.109-.021.07-.034.143-.055.213q-.2.65-.459,1.284c-.062.151-.138.3-.205.447-.12.27-.237.541-.373.805-.088.172-.191.338-.286.508-.132.236-.26.474-.405.705-.109.175-.231.343-.348.515-.148.22-.292.44-.452.654-.128.173-.269.34-.405.509-.164.206-.325.412-.5.612-.147.168-.3.33-.457.494-.181.193-.358.386-.549.575-.162.161-.335.316-.505.473-.2.182-.391.364-.6.54-.179.154-.365.3-.55.449-.212.17-.423.341-.644.505-.194.144-.394.283-.594.423-.226.157-.454.315-.688.466-.208.135-.422.264-.636.393-.241.146-.483.291-.73.429-.223.123-.449.243-.676.361-.254.132-.508.262-.768.388-.237.114-.477.222-.72.33-.264.117-.53.233-.8.343q-.375.153-.758.3c-.275.1-.554.2-.835.3q-.393.134-.794.258c-.135.042-.273.079-.409.119L700.258,611.6V611.6l-.268-.9,11.573-.765h0l8.621-.569A20.9,20.9,0,0,1,720.872,612.537ZM674.651,587.89l.083-.033a32.939,32.939,0,0,1,10.942-1.82,33.928,33.928,0,0,1,3.858.216c9.444,1.453,17.444,7.663,20.728,15.974l-22.084,1.46a.97.97,0,0,0-.866,1.244l1.29,4.372,1.124,3.822,3.422,11.636c-.206.047-.411.1-.619.14-.265.055-.53.109-.8.157-.4.073-.808.135-1.215.192-.26.038-.519.078-.78.109-.448.053-.9.091-1.352.126-.222.017-.443.043-.666.055-.677.04-1.357.063-2.042.063-14.386,0-26.09-8.875-26.09-19.784,0-.323.011-.647.031-.968.008-.127.025-.254.036-.381.017-.194.032-.389.056-.582.02-.15.048-.3.071-.446.027-.169.051-.339.083-.507.028-.145.065-.287.1-.431.037-.164.071-.329.114-.493A25.884,25.884,0,0,1,674.651,587.89ZM693.4,634.433a28.575,28.575,0,0,1-8.273,1.212c-14.2,0-25.932-10.3-26.717-23.381.008-.435.021-.855.041-1.262.01.03.023.058.033.087.165.511.356,1.014.566,1.51.045.1.09.207.136.311.221.494.46.982.725,1.46.039.071.083.14.122.211q.392.685.839,1.344c.04.057.075.116.115.173.319.457.661.9,1.019,1.339.076.091.149.183.226.273q.54.638,1.135,1.245c.076.077.155.152.232.228.408.4.83.8,1.274,1.18l.058.052c.457.39.936.761,1.427,1.124.094.069.187.14.282.208q.72.517,1.484.994c.107.066.214.131.322.2.528.321,1.067.63,1.626.922.052.027.108.052.161.081q.81.415,1.658.786c.093.041.184.085.278.124.583.25,1.18.481,1.787.7l.376.132c.615.212,1.238.41,1.876.587.093.026.189.05.284.075q.937.253,1.9.455c.067.015.132.031.2.045.671.136,1.353.248,2.043.345.132.019.263.038.4.055q1.022.133,2.065.208c.123.009.248.015.371.022.731.045,1.466.074,2.211.074.717,0,1.43-.025,2.14-.066.23-.014.458-.038.687-.055.479-.037.957-.079,1.432-.134.267-.032.533-.071.8-.109.436-.061.87-.129,1.3-.207q.407-.073.808-.154c.185-.038.372-.066.555-.107Zm-2.036-22.638-.907-3.073-.933-3.173,21.122-1.4V607.2l-.057.843-11.937.79c-.012,0-.02.009-.031.01s-.025,0-.038,0a.974.974,0,0,0-.337.115c-.015.008-.024.021-.039.03a.96.96,0,0,0-.253.231c-.01.013-.025.019-.034.031s-.017.05-.03.073a.963.963,0,0,0-.1.254.865.865,0,0,0-.025.132c0,.029-.017.054-.017.083l-.014,1.28Zm8.247,4.493,3.943,13.4v2.748l-3.981-12.563Zm5.885,21.055v-7.049c.3-.086.6-.183.9-.277.1-.032.2-.06.3-.093.534-.176,1.057-.365,1.572-.565.132-.051.261-.107.392-.159q.609-.248,1.2-.517c.129-.059.26-.118.389-.179.488-.232.966-.474,1.431-.729.071-.038.138-.08.207-.119q.6-.336,1.174-.7c.123-.078.247-.155.368-.235q.586-.382,1.142-.787c.047-.034.1-.066.143-.1.41-.3.8-.621,1.189-.945.1-.084.2-.17.294-.256q.455-.4.882-.81c.083-.081.168-.159.25-.241q.52-.519,1-1.063c.061-.07.119-.142.179-.213q.387-.456.744-.927c.08-.106.159-.21.236-.316.272-.373.533-.751.774-1.139l.024-.037q.3-.478.562-.969A23.935,23.935,0,0,1,705.494,637.342Z" transform="translate(-656.467 -584.094)" fill="#fff"/>
</svg>
