<svg xmlns="http://www.w3.org/2000/svg" width="12.284" height="22.718" viewBox="0 0 12.284 22.718">
  <path id="Path_4677" data-name="Path 4677" d="M140.24,128.456a1.35,1.35,0,0,0-1.054-.483H136.4l0-2.131h2.788a.644.644,0,0,0,.643-.643v-4.289a.644.644,0,0,0-.643-.643h-3.431a.515.515,0,0,0-.052.01,4.929,4.929,0,0,0-4.88,4.922v2.774h-1.072a1.5,1.5,0,0,0-1.5,1.5v2.573a1.5,1.5,0,0,0,1.5,1.5h1.072v7.935a1.5,1.5,0,0,0,1.5,1.5H134.9a1.5,1.5,0,0,0,1.5-1.5v-7.935h1.928a1.739,1.739,0,0,0,1.657-1.358l.521-2.608A1.348,1.348,0,0,0,140.24,128.456Zm-1.517,3.483a.459.459,0,0,1-.4.323h-2.573a.644.644,0,0,0-.643.643l0,.009v8.57a.217.217,0,0,1-.214.214h-2.573a.217.217,0,0,1-.214-.214v-8.578a.644.644,0,0,0-.643-.643h-1.716a.217.217,0,0,1-.214-.214v-2.573a.217.217,0,0,1,.214-.214h1.65a.559.559,0,0,0,.066.014.644.644,0,0,0,.643-.643V125.2a3.642,3.642,0,0,1,3.637-3.638c.015,0,.027-.007.042-.008h2.754v3h-2.788a.643.643,0,0,0-.643.643l0,3.418h0v.006a.643.643,0,0,0,.643.644h0c.012,0,.021-.006.033-.007h3.4l.058.071Z" transform="translate(-128.25 -120.266)" fill="#f30a00"/>
</svg>
