<svg xmlns="http://www.w3.org/2000/svg" xmlns:xlink="http://www.w3.org/1999/xlink" width="239.181" height="239.18" viewBox="0 0 239.181 239.18">
  <defs>
    <filter id="Union_1" x="0" y="0" width="239.181" height="239.18" filterUnits="userSpaceOnUse">
      <feOffset dy="3" input="SourceAlpha"/>
      <feGaussianBlur stdDeviation="5" result="blur"/>
      <feFlood flood-opacity="0.239"/>
      <feComposite operator="in" in2="blur"/>
      <feComposite in="SourceGraphic"/>
    </filter>
  </defs>
  <g transform="matrix(1, 0, 0, 1, 0, 0)" filter="url(#Union_1)">
    <path id="Union_1-2" data-name="Union 1" d="M-1437,104.09A104.089,104.089,0,0,1-1332.91,0a104.084,104.084,0,0,1,104.09,104.09,104.084,104.084,0,0,1-104.09,104.09A104.089,104.089,0,0,1-1437,104.09Zm2.516,0A101.582,101.582,0,0,0-1332.91,205.672,101.581,101.581,0,0,0-1231.335,104.09,101.576,101.576,0,0,0-1332.91,2.516,101.576,101.576,0,0,0-1434.484,104.09Zm2.715,0a98.858,98.858,0,0,1,98.858-98.858,98.858,98.858,0,0,1,98.859,98.858,98.859,98.859,0,0,1-98.859,98.859A98.859,98.859,0,0,1-1431.769,104.09Zm102.363,77.526c.3.255,1.221,1.236.427,3.167a12.546,12.546,0,0,1-3.137,3.927l-.291.238,1.478,2.146.334-.213c.206-.133,5.056-3.314,4.94-8.287a4.723,4.723,0,0,0-3.909-4.514,5.094,5.094,0,0,0-5.81,2.21c-2.1,4.052-.314,5.978.934,6.763a2.7,2.7,0,0,0,2.344.285A5.187,5.187,0,0,0-1329.24,184l.115-.309-2.98-1.9a2.147,2.147,0,0,1,1.458-.7A1.923,1.923,0,0,1-1329.405,181.616Zm-20.177,4.5a3.591,3.591,0,0,0,3.392,3.538q.393.04.786.041a5.143,5.143,0,0,0,4.21-1.827l.175-.247-1.67-4.7-.481,1.8a1.612,1.612,0,0,1-1.9,1.181c-.227-.057-.7-.178-.458-1.716a2.67,2.67,0,0,0-1.664-2.893l3.681-5.424-4.112-3.317-8.593,14.1,3.045,2.307,2.488-3.018Zm36.223-1.59c.078.827.157,1.682.25,2.526a2.159,2.159,0,0,0,.664,1.456,1.978,1.978,0,0,0,1.516.428,1.877,1.877,0,0,1,.213-.008c.13,0,.258-.006.385-.019a1.955,1.955,0,0,0,.678-.186,1.548,1.548,0,0,0,.791-1.647c-.054-.7-.094-1.413-.133-2.108-.058-1.065-.121-2.162-.235-3.254-.013-.131-.005-.193-.008-.2a.627.627,0,0,1,.146-.091c.049-.026.1-.05.16-.075.859-.362,1.705-.77,2.525-1.163q.63-.3,1.264-.6l.057-.027h0c.022-.011.044-.022.065-.033a1.456,1.456,0,0,0,.557-1.981c-.161-.355-.346-.725-.568-1.133-.014-.033-.03-.066-.047-.1a1.447,1.447,0,0,0-1.955-.6c-.45.216-.917.4-1.411.595q-.278.109-.553.22c-.222.091-.445.179-.669.27a1.042,1.042,0,0,1,0-.139,1.916,1.916,0,0,0-.364-1.34,1.958,1.958,0,0,0-1.345-.685,3.6,3.6,0,0,0-.539-.021c.717-.62,1.446-1.238,2.159-1.865a1.743,1.743,0,0,0,.338-1.725,3.36,3.36,0,0,0-.641-1.05l-.048-.058c-.32-.394-1.17-1.439-2.341-.847a3.183,3.183,0,0,0-.641.452c-.328.283-.662.558-1,.833-.223.183-.445.365-.666.552l-1.611,1.357c-1.242,1.045-2.524,2.126-3.792,3.174l-.037.028a1.636,1.636,0,0,0-.266,2.3l.085.113.288.331c.24.277.482.555.725.83a1.32,1.32,0,0,0,1.665.442,1.641,1.641,0,0,0,.409-.3,9.258,9.258,0,0,1,.775-.641c.205-.157.418-.32.626-.5.679-.581,1.335-1.156,2.006-1.732a3.826,3.826,0,0,0-.027.658c.009.183.02.364.032.546.022.351.045.685.045,1.008-.373.184-.754.352-1.154.531-.319.143-.639.285-.956.435l-.271.129c-.4.189-.805.38-1.2.581-.345.175-.651.339-.932.5a1.743,1.743,0,0,0-.838,1.922,8.836,8.836,0,0,0,.838,1.561c.063.1.127.2.187.3a1.147,1.147,0,0,0,1.491.4c.183-.083.369-.176.544-.263s.349-.176.528-.255c.7-.309,1.4-.612,2.123-.926C-1313.428,183.8-1313.393,184.161-1313.359,184.526Zm-51.847-10.029,3.631,1.147-.37.965a4.569,4.569,0,0,0-4.121,2.42,3.066,3.066,0,0,0-.066,2.449c1.071,2.841,5.822,4.978,6.024,5.067l.512.226,1.121-2.316-.481-.267c-.989-.547-3-2.045-2.526-2.917.676-1.241,2.632-.72,2.652-.714l.524.144,1.5-4.321,3.05.942,1.17-3.8-.809.025a14.5,14.5,0,0,1-2.634-.154l.8-2.083-4.161-1.612-1.043,2.585-3.759-1.351Zm71.942-3.836q-.99.644-1.984,1.278l-2.373,1.51-.006.035-2.007,1.278c-.662.422-1.534.98-2.4,1.553a1.539,1.539,0,0,0-.579,1.769,7,7,0,0,0,.961,1.561,1.611,1.611,0,0,0,1.816.424c.87-.451,1.649-.9,2.381-1.364l.068-.043c1.133-.728,2.258-1.467,3.385-2.2q1.268-.833,2.539-1.659l.054-.033c.15-.1.282-.174.4-.241s.186-.112.261-.16a1.346,1.346,0,0,0,.68-.926h0c.094-.6-.212-1.056-.766-1.88l-.194-.292c-.02-.029-.041-.057-.063-.086a1.505,1.505,0,0,0-.083-.134,1.5,1.5,0,0,0-1.235-.648A1.491,1.491,0,0,0-1293.265,170.662Zm-80.916-6.241c-2.739,2.589-4.16,5.234-4.225,7.859a7.072,7.072,0,0,0,1.688,4.827l.334.348,2.121-1.4-.213-.455a6.081,6.081,0,0,1,2.563-8.234l.156-.083-2.277,2.3,2.362,2.145,4.72-4.4-2.425-2.443-2.023,2.038-2.318-2.937Zm87.917,1.3c.319,1.265.625,2.483.937,3.7l.027.107c.452,1.766.918,3.593,1.4,5.388a1.843,1.843,0,0,0,1.264,1.339,4.5,4.5,0,0,0,1.64-.005,1.8,1.8,0,0,0,.811-.374,1.616,1.616,0,0,0,.379-1.868,10.65,10.65,0,0,1-.293-1.229c.977-.156,1.922-.305,2.865-.456a1.206,1.206,0,0,0,.561-.247l.31-.758c-.008-.133-.013-.266-.019-.4a6.037,6.037,0,0,0-.194-1.512,2.057,2.057,0,0,0-1.874-1.239c-.844.033-1.669.117-2.541.205-.043.005-.086.009-.129.013-.107-.419-.213-.832-.327-1.243q-.829-3.009-1.672-6.017a1.952,1.952,0,0,0-.888-1.313,1.622,1.622,0,0,0-1.471.081l-.213.1a24.518,24.518,0,0,0-2.617,1.327c-2.371,1.446-4.739,2.959-6.945,4.378a3.925,3.925,0,0,0-.414.3c-.965.816-.3,1.8.058,2.327.116.17.239.321.347.455l.09.113.047.072a1.615,1.615,0,0,0,2.249.4c1.807-1.159,3.668-2.287,5.419-3.343.356-.215.725-.417,1.109-.621Zm-84.449,5.474,1.259,1.94,5.15-2.652-1.952-3.329Zm38.837-3c.386.72.809,1.084,1.255,1.084a.972.972,0,0,0,.32-.059,15.214,15.214,0,0,0,2.628-1.307,63.321,63.321,0,0,0,15.436-3.2,17.488,17.488,0,0,0,3.555,1.165,8.253,8.253,0,0,0,1.655.193,1.857,1.857,0,0,0,1.709-.675,8.13,8.13,0,0,0,.63-3.814c.16-.078.319-.158.477-.237a64.043,64.043,0,0,0,28.538-85.958,64.044,64.044,0,0,0-85.958-28.537l-.682.259a10.663,10.663,0,0,0-2.368,1.373h-.007a64.994,64.994,0,0,0-6.88,4.565v0a13.994,13.994,0,0,0-2.091-.136,10.941,10.941,0,0,0-3.791.757,9.923,9.923,0,0,0-3.214,2.167,16.686,16.686,0,0,0-2.293,2.937,15.22,15.22,0,0,0-1.5,3.451,12.913,12.913,0,0,0-.481,3.777c.007.238.022.468.037.7-.3.416-.587.824-.869,1.247a12.874,12.874,0,0,0-2.36.327,8.877,8.877,0,0,0-4.653,2.917,10.8,10.8,0,0,0-2.182,4.89,9.624,9.624,0,0,0-.185,1.291c-.045.43-.12.853-.127,1.291a13.181,13.181,0,0,0,.164,2.642,9.885,9.885,0,0,0,1.157,3.391,64.107,64.107,0,0,0-2.99,19.293,64.084,64.084,0,0,0,64.029,64.137c.334,0,.668,0,1-.015A.268.268,0,0,0-1331.876,168.2Zm-58.322.248.527-.049c.22-.022,5.374-.529,6.332-3.738a4.182,4.182,0,0,0,.155-1.424,3.44,3.44,0,0,0,.387.977,3.235,3.235,0,0,0,2.822,1.578h.085a3.853,3.853,0,0,0,2.958-1.32,3.605,3.605,0,0,0,.737-2.905,2.851,2.851,0,0,0-1.869-2.179,3.35,3.35,0,0,0-3.317.293,4.372,4.372,0,0,0-1.673,1.786,2.206,2.206,0,0,0-.22,1.031,7.488,7.488,0,0,0-2.006-3.487l1.078-1.428,1.92,1.207,2.374-2.634-1.946-1.553,1.876-2.57-3.537-2.284-2.05,2.592-3.774-3.053-2.047,3.244,3.622,2.489-1.015,1.158a8.286,8.286,0,0,0-3.168-.485,5.176,5.176,0,0,0-3.82,2.13,3.638,3.638,0,0,0-.463,3.827,5.126,5.126,0,0,0,3.565,2.857c2.647.253,4.472-1.66,5.245-2.675a2.237,2.237,0,0,1,.7,1.8,3.3,3.3,0,0,1-3.289,1.783l-.748-.059Zm117.745-9.58c.491,1.384.982,2.766,1.485,4.146.335.921.78,1.434,1.362,1.57a2.516,2.516,0,0,0,2.59-.632c.03-.033.06-.068.09-.1l.194-.652a.865.865,0,0,1,0-.113,3.046,3.046,0,0,0-.14-.957l-.252-.737c-.7-2.047-1.425-4.163-2.2-6.235a2.9,2.9,0,0,0-1.229-1.728c.318-.332.612-.631.938-.973.044-.046.086-.091.124-.133.987-1.076.635-1.805-.364-2.777-.113-.107-.23-.213-.35-.32a1.381,1.381,0,0,0-.15-.148,1.6,1.6,0,0,0-2.26.163c-1.387,1.415-2.824,2.839-4.213,4.219l-.6.595c-.072-.164-.143-.329-.216-.491a2.644,2.644,0,0,0-1.365-1.5,2.311,2.311,0,0,0-1.956.267,2.1,2.1,0,0,0-.575.427,1.63,1.63,0,0,0-.184,1.876c.553,1.291,1.1,2.61,1.631,3.885.537,1.3,1.094,2.637,1.659,3.953a2.276,2.276,0,0,0,1.169,1.332,2.055,2.055,0,0,0,1.742-.255,2.521,2.521,0,0,0,.276-.175,1.069,1.069,0,0,1,.09-.063,1.513,1.513,0,0,0,.534-.365,1.4,1.4,0,0,0,.147-1.617c-.125-.293-.236-.6-.353-.92a13.918,13.918,0,0,0-.623-1.518c-.123-.244-.146-.287.1-.554.027-.03.057-.06.088-.092.619-.612,1.266-1.27,1.907-1.922Q-1272.906,157.587-1272.452,158.864Zm-14.553-2.932c-.507.252-.655.835-.86,1.645l-.259,1,.443.2c.138.062.267.128.392.19a4.775,4.775,0,0,0,.97.4,2.264,2.264,0,0,0,.491.054,1.019,1.019,0,0,0,1.037-.521,7.566,7.566,0,0,0,.326-1.525l.049-.345h0a.477.477,0,0,0-.011-.074,1.647,1.647,0,0,0,.23.031,1.193,1.193,0,0,0,.812-.31c.594-.538,1.093-1.9.563-2.5-.574-.652-1.877-1.27-2.534-.714a2.794,2.794,0,0,0-.82,1.742,1.068,1.068,0,0,0,.192.72,1.351,1.351,0,0,0-.512-.1A1.355,1.355,0,0,0-1287.005,155.932Zm-111.526-1.644c1.894,0,4.29-.378,5.572-2.054,2.434-3.174,1.339-4.919-4.021-10.43l-.47-.483-3.076,4.072.467.349c.744.555,2.906,2.422,3.078,3.676a.7.7,0,0,1-.126.556c-.92,1.193-3.277.96-4.106.77l-.77-.175.274,3.382.428.085v0A15.222,15.222,0,0,0-1398.532,154.288Zm136.065-14.11-5.615,9.978.355,1.24c.127.085.239.163.344.235.227.157.423.294.647.424a2.553,2.553,0,0,0,1.821.572c.6-.131.87-.606,1.154-1.109l.681-1.215q1.251-2.241,2.51-4.478.678-1.207,1.361-2.411l.027-.048h0a2.2,2.2,0,0,0,.393-2.02c-.3-.7-1.012-1.011-1.912-1.348-.134-.051-.272-.094-.437-.144l-.22-.067Zm-142.164-11.308c-.372.23-.823.511-1,.6l-.244.008-.16.3c-.175.325-.26.484,2.165,4.269a11.4,11.4,0,0,0-3.892,1.3c-2.528,1.443-1.31,8.356-1.162,9.14l.066.354,3.5.975-.05-.811c-.066-1.082-.264-4.373.775-5v0c1.3-.789,3.82.282,4.679.762l.266.15,4.3-2.171-.244-.512c-1.48-3.091-4.951-10.312-5.242-10.71a.623.623,0,0,0-.534-.274C-1401.976,127.249-1402.908,127.8-1404.631,128.87Zm146.32,5.674c-.173.374-.339.754-.5,1.122-.253.577-.515,1.174-.8,1.738a1.722,1.722,0,0,0,.845,2.426c.667.4,2.057,1.227,3.029-.35.061-.1.126-.214.193-.343.442-.839.895-1.742,1.464-2.917.686.285,1.381.534,2.056.771.194.069.388.138.583.209.736.263,1.292.164,1.566-.282l.048-.087.11-.234h0a5.852,5.852,0,0,0,.555-1.568c.15-.931-1.072-1.607-1.319-1.733-.573-.292-1.163-.559-1.738-.814.041-.093.083-.185.124-.276.474-1.053.92-2.047,1.4-3.04a1.491,1.491,0,0,0,.078-.15,1.455,1.455,0,0,0-.73-1.923c-.114-.063-.226-.131-.337-.2-.188-.112-.381-.229-.595-.339a1.53,1.53,0,0,0-2.194.454,2.32,2.32,0,0,0-.114.214c-.391.813-.822,1.625-1.238,2.415-.193.368-.388.734-.578,1.1-.557-.248-1.115-.488-1.7-.738l1.472-2.9a2.248,2.248,0,0,0,.193-1.984,2.655,2.655,0,0,0-1.616-1.263,1.556,1.556,0,0,0-2.065.6c-.032.054-.066.112-.1.175-.533,1.039-1.092,2.042-1.683,3.1-.1.188-.206.374-.313.563-.325-.122-.646-.239-.966-.356-1.332-.486-2.481-.9-3.181.23a6.727,6.727,0,0,0-.554,1.429,1.014,1.014,0,0,0,.016.626c.006.02.013.045.022.079l.618.711.661.289c.5.216,1.008.44,1.523.66l-.106.219c-.306.638-.621,1.3-.956,1.926a2.06,2.06,0,0,0-.362,1.781,2.627,2.627,0,0,0,1.507,1.246c.058.027.116.051.176.074l.033.014a1.626,1.626,0,0,0,2.238-.516c.041-.068.079-.138.114-.21.285-.6.6-1.2.911-1.791.157-.3.313-.594.466-.892A16.719,16.719,0,0,0-1258.311,134.545Zm-154.015-64.389,9.854,5.383a3.945,3.945,0,0,0,1.48.466,4.153,4.153,0,0,0,.436.022,3.845,3.845,0,0,0,2.342-.786,3.431,3.431,0,0,0,.743-.879c.153-.233.272-.439.328-.539.018-.037.122-.237.228-.481a3.288,3.288,0,0,0,.314-1.067,3.9,3.9,0,0,0-.168-1.435,3.972,3.972,0,0,0-1.888-2.291l-9.851-5.383-1.424,2.6,9.855,5.384a.855.855,0,0,1,.273.225,1,1,0,0,1,.172.318c.032.106.046.22.053.233a3.118,3.118,0,0,1-.221.486c-.012.023-.085.152-.172.291s-.124.185-.079.157a.882.882,0,0,1-.305.152,1.022,1.022,0,0,1-.358.026.907.907,0,0,1-.336-.107l-9.85-5.382Zm143.006-2.106a3.976,3.976,0,0,0-1.953,2.236,3.893,3.893,0,0,0-.205,1.447,3.515,3.515,0,0,0,.307,1.115c.105.25.206.461.26.571.018.032.126.232.266.459a3.3,3.3,0,0,0,.7.861,3.9,3.9,0,0,0,2.426.841c.1,0,.209,0,.315-.013a3.933,3.933,0,0,0,1.5-.423l10-5.095-1.345-2.646-10,5.1a.9.9,0,0,1-.337.1.916.916,0,0,1-.356-.035c-.109-.032-.209-.085-.225-.085a3.268,3.268,0,0,1-.283-.466c-.015-.031-.077-.155-.14-.3-.049-.112-.081-.2-.085-.172a.906.906,0,0,1,.047-.318.96.96,0,0,1,.179-.307.9.9,0,0,1,.278-.218l10-5.1-1.345-2.644ZM-1401.209,51.1l11.367,9.737,1.966-2.3-4.313-3.7,5.734,2.036,1.724-2.012-11.371-9.735-1.966,2.3,4.316,3.694-5.738-2.035Zm122.559,2.857a4.32,4.32,0,0,0-.776,1.04,4.07,4.07,0,0,0-.384,1.453,3.9,3.9,0,0,0,.185,1.477,3.613,3.613,0,0,0,.85,1.273l.078.086a3.447,3.447,0,0,0,1.139.9,3.933,3.933,0,0,0,1.445.308h.083a4.092,4.092,0,0,0,2.751-1.076,5.242,5.242,0,0,0,1.13-1.43,5.639,5.639,0,0,0,.538-1.495,11.915,11.915,0,0,0,.178-1.849c0-.213,0-.427,0-.641l1.767,1.938,1.068-.973a11.7,11.7,0,0,0,1.171-1.144,4.471,4.471,0,0,0,.528-.923,3.433,3.433,0,0,0,.32-1.121,3.5,3.5,0,0,0-.247-1.407,5.068,5.068,0,0,0-2.066-2.249,3.918,3.918,0,0,0-1.456-.32,3.773,3.773,0,0,0-1.563.365,5.149,5.149,0,0,0-1.308.974,4.367,4.367,0,0,0-.985,1.31,6,6,0,0,0-.3,1.875c0,.41.008.822.027,1.223.017.372.028.736.028,1.085a9.444,9.444,0,0,1-.107,1.263,2.681,2.681,0,0,1-.248.712,2.18,2.18,0,0,1-.485.6.978.978,0,0,1-.33.2,1.434,1.434,0,0,1-.374.066,1.771,1.771,0,0,1-.275-.035,2.286,2.286,0,0,1-.293-.282c-.123-.133-.2-.252-.191-.211a.974.974,0,0,1-.046-.359,1.228,1.228,0,0,1,.06-.294,4,4,0,0,1,.342-.4c.213-.229.43-.442.513-.519l.885-.807-2.011-2.2-.885.8h0C-1278.058,53.33-1278.36,53.631-1278.65,53.961Zm-7.871-18.694,1.953,1.462-7.169,9.583,2.379,1.777,7.166-9.582,1.954,1.462,1.8-2.408-6.286-4.7Zm-97.787-1a3.329,3.329,0,0,0-1.351,2.318c-.238,1.7.518,3.821,2.126,5.971,1.14,1.52,3.5,4.67,6.074,4.67a3.281,3.281,0,0,0,1.939-.659A3.687,3.687,0,0,0-1374,42.626a10.048,10.048,0,0,0-1.626-3.3.985.985,0,0,0-.645-.41l-.462-.035-.292.223c-.3.228-.685.491-.807.574a.985.985,0,0,0-.27,1.3,13.905,13.905,0,0,1,1.029,2.055c.17.555.12.642-.293.936-.5.35-1.946-.643-3.77-3.2a10.65,10.65,0,0,1-1.4-2.47c-.4-1.115-.041-1.373.076-1.456a.694.694,0,0,1,.608-.114,3.539,3.539,0,0,1,1.834,1.565.979.979,0,0,0,.611.434l.475.068,1.143-.817a.972.972,0,0,0,.286-1.276,11.386,11.386,0,0,0-.9-1.275,5.121,5.121,0,0,0-3.787-1.83A3.574,3.574,0,0,0-1384.307,34.268Zm13.748-8.219,6.1,13.675,6.07-2.712-1.221-2.741-3.34,1.488-4.875-10.929Zm66.568,12.924a4.28,4.28,0,0,0,1.729.384A3.583,3.583,0,0,0-1299.7,38.3a9.839,9.839,0,0,0,1.936-3.091.983.983,0,0,0,.024-.748l-.254-.558-.4-.046c-.325-.136-.64-.28-.611-.262a.955.955,0,0,0-.771-.118l-.459.178-.168.346a10.986,10.986,0,0,1-1.138,1.9c-.365.39-.563.459-1.175.193a.519.519,0,0,1-.32-.329c-.219-.615.088-1.882.917-3.776l3.94,1.739a.966.966,0,0,0,.751.016l.4-.2.653-1.476c1.591-3.605.384-6.066-1.517-6.9-1.42-.625-4.2-.786-6.835,5.2v0C-1306.76,34.96-1306.509,37.86-1303.99,38.974Zm-49.739-11.292c1.01,4.36,2.652,6.56,4.891,6.56a3.919,3.919,0,0,0,.869-.1,3.731,3.731,0,0,0,3.028-3.115,9.858,9.858,0,0,0-.307-3.64.977.977,0,0,0-.437-.613l-.544-.291-.339.205c-.344.086-.674.156-.646.156a.949.949,0,0,0-.68.367l-.261.419.072.373a11.05,11.05,0,0,1,.229,2.2c-.057.531-.172.708-.827.86a.518.518,0,0,1-.452-.071c-.544-.36-1.057-1.561-1.53-3.572l4.192-.97a.967.967,0,0,0,.609-.432l.2-.4-.364-1.575a6.758,6.758,0,0,0-2.141-3.827,3.718,3.718,0,0,0-3.212-.79,3.48,3.48,0,0,0-2.638,2.861v0A12.267,12.267,0,0,0-1353.73,27.681Zm34.363-6.636,2.327.735-3.6,11.407,2.831.9,3.6-11.409,2.326.734.9-2.863-7.48-2.363Zm-13.458,162.529a1.8,1.8,0,0,1,.506-1.6c.069-.075.139-.111.207-.176l-.018.711c-.011.449-.14,1.16-.417,1.342A.358.358,0,0,1-1332.824,183.575Zm1.653-18.761a17.245,17.245,0,0,1-.374-4.738,14.67,14.67,0,0,1,1.368-5.477.994.994,0,0,0,.621-.908.876.876,0,0,0-.025-.2,13.771,13.771,0,0,1,3.293-3.739l.075.069a4.931,4.931,0,0,0-.271.491,7.209,7.209,0,0,0-.471,1.174,11.828,11.828,0,0,0-.454,2.3.591.591,0,0,0,.367.611.591.591,0,0,0,.769-.329,10.086,10.086,0,0,1,.961-1.808,6.31,6.31,0,0,1,.588-.743c.055-.053.113-.106.167-.16l.41-.292a1.055,1.055,0,0,0,.1-.08c-.04.258-.087.518-.141.768a13.547,13.547,0,0,1-.43,1.511,14.638,14.638,0,0,1-1.318,2.838l-.023.034a.651.651,0,0,0,.166.865l.006.005a.664.664,0,0,0,.932-.117,16.519,16.519,0,0,0,1.832-2.979,16.753,16.753,0,0,0,.664-1.631c.154-.453.267-.841.362-1.229.064,0,.129-.005.194-.009.059,2.3-.17,8.862-4.228,13.262a12.638,12.638,0,0,1-4.313,3.045A10.9,10.9,0,0,1-1331.171,164.813Zm-17.819-2.366a60.583,60.583,0,0,1-42.278-74.519,11.666,11.666,0,0,0,2.8,1.379,20.422,20.422,0,0,0,9.517.648l7.238,9.927a6.634,6.634,0,0,0-.656,1.742,23.6,23.6,0,0,0-.427,2.388,18.353,18.353,0,0,0,.068,4.846,16.987,16.987,0,0,0,1.359,4.658c.046.1.092.193.137.29.121.26.249.529.388.789l.01.016c.065.1.129.206.19.31a4.622,4.622,0,0,0-.862.073,3.586,3.586,0,0,0-.921.267l-.172.067-.037.017c-.074.042-.149.084-.225.124a3.5,3.5,0,0,0-.722.47l-.4.33-.022.022c-.083.089-.158.176-.232.261-.035.041-.07.083-.106.123l-.069.077a4.152,4.152,0,0,0-.274.328l-.277.423a10.193,10.193,0,0,0-1.4,7.443,7.623,7.623,0,0,0,1.774,3.584,4.944,4.944,0,0,0,4,1.688l.075-.012a7.957,7.957,0,0,0,1.027-.221l.025-.009.192-.081q.393-.158.767-.354c.5-.277,1.03-.583,1.554-.946q.155-.1.309-.217a13.081,13.081,0,0,0,4.847,8.213,35.5,35.5,0,0,0,10.868,6.372,16.594,16.594,0,0,0,4.392,6.311c3.546,3.227,8.306,5.027,14.152,5.358a18.343,18.343,0,0,0-.892,10A60.545,60.545,0,0,1-1348.99,162.447Zm38.951,1.251a18.5,18.5,0,0,1-2.413-1,17.751,17.751,0,0,1-1.662-.938c-2.315-1.452-5.2-3.977-5.8-7.774a26.019,26.019,0,0,0,.1-3.319,6.833,6.833,0,0,0,1.06-.445,5.021,5.021,0,0,1,.9.827,5.812,5.812,0,0,1,.85,1.246,6.224,6.224,0,0,1,.522,1.46l0,.014a7.66,7.66,0,0,1,.185,1.569v.057a.889.889,0,0,0,.219.538.879.879,0,0,0,1.239.076.879.879,0,0,0,.292-.6,9.534,9.534,0,0,0-.046-1.975,8.278,8.278,0,0,0-.5-1.97,7.848,7.848,0,0,0-.991-1.813,8.067,8.067,0,0,0-.816-.961,4.655,4.655,0,0,0,.881-1.928c2.535,1.045,7.856,4.145,9.378,12.107l.006.026a1.931,1.931,0,0,1,.044.2,22.741,22.741,0,0,1,.16,3.2,6.235,6.235,0,0,1-.3,2.038h-.042A8.843,8.843,0,0,1-1310.039,163.7Zm-10.642-6.458a14.611,14.611,0,0,0,4.616,5.284,60.463,60.463,0,0,1-7.637,1.678A18.727,18.727,0,0,0-1320.681,157.24Zm11.633-7.885c6.15-2.654,10.067-6.195,11.65-10.52a13.085,13.085,0,0,0-.2-9.355c4.906-5.673,8.3-12.409,9.111-18.091.193-.054.4-.12.631-.2l.018-.007a7.487,7.487,0,0,0,2-1.214,8.454,8.454,0,0,0,2.506-3.812,9.874,9.874,0,0,0,.381-4.486,7.316,7.316,0,0,0-2.07-4.285,5.468,5.468,0,0,0-2.211-1.345,2.748,2.748,0,0,0-.61-.166l-.547-.1a4.67,4.67,0,0,0-1.211-.058,23.123,23.123,0,0,0-1.041-7.04,39.61,39.61,0,0,0-6.868-12.911,29.142,29.142,0,0,0-15.557-10.16,33.607,33.607,0,0,0-8.48-1.23,10.053,10.053,0,0,0-1.745-.175,10.542,10.542,0,0,1,.389-1.4,10.835,10.835,0,0,1,.747-1.65l.036-.054a.831.831,0,0,0-.183-1.025l-.012-.01a.815.815,0,0,0-1.15.1,11.153,11.153,0,0,0-1.251,1.8,12.036,12.036,0,0,0-.924,1.976c-.023.062-.047.125-.069.188l-.625-.014c.06-.265.127-.543.2-.846l.107-.393c.1-.381.208-.774.3-1.154l.016-.067a.818.818,0,0,0-.19-.73.828.828,0,0,0-.564-.263.789.789,0,0,0-.587.211,7.018,7.018,0,0,0-1.2,1.465,8.353,8.353,0,0,0-.8,1.69l-.016.045-.648-.005.2-.93.388-1.588.021-.1a.892.892,0,0,0-.274-.885.907.907,0,0,0-1.282.074,7.75,7.75,0,0,0-1.112,1.655,11.42,11.42,0,0,0-.722,1.771c-.048.151-.093.308-.137.472a1.129,1.129,0,0,0-.7-.131c-8.285,1.079-13.245,4.063-14.508,4.9-.5-.435-1.02-.88-1.549-1.315-1-.817-1.911-1.507-2.785-2.112l-.009-.006a1.184,1.184,0,0,0-.306-.292l-.012-.007a1.211,1.211,0,0,0-.374-.148c-.255-.158-.481-.292-.694-.41a21.854,21.854,0,0,0,1.971-2.371,16.154,16.154,0,0,0,2.367-4.773,11.866,11.866,0,0,0,.471-2.712c.017-.33.014-.656.011-.971v-.407c-.017-.155-.031-.312-.042-.464a7.643,7.643,0,0,0-.106-.892,9.337,9.337,0,0,0-.875-2.724,7.367,7.367,0,0,0-1.852-2.333,6.358,6.358,0,0,0-.809-.583,60.454,60.454,0,0,1,19.532-3.223l0,0a60.545,60.545,0,0,1,53.633,32.457,60.546,60.546,0,0,1-25.547,81.725A18.62,18.62,0,0,0-1309.048,149.355Zm-39.337-5.558a45.078,45.078,0,0,0,12.543,1.689,62.151,62.151,0,0,0,8.834-.671,4.389,4.389,0,0,0-.313,3.2,15.841,15.841,0,0,0-4.1,4.647C-1342.494,152.333-1346.857,146.723-1348.385,143.8Zm23.043,3.858a2.392,2.392,0,0,1,.171-2.013,4.546,4.546,0,0,1,2.686-1.615l.04-.01h.005l.026-.008c.209-.045.417-.087.626-.13.171-.034.343-.069.522-.107.409-.1.818-.2,1.21-.3a2.377,2.377,0,0,1,1.631.4c.633.518.594,1.608.45,2.433a3.587,3.587,0,0,1-3.091,2.625,6.25,6.25,0,0,1-1.252.127C-1323.817,149.059-1325.1,148.508-1325.343,147.655Zm9.4-3.014a3.615,3.615,0,0,0-.961-2.089,44.071,44.071,0,0,0,17.778-11.39,11,11,0,0,1-.149,6.984c-1.445,3.962-5.251,7.221-11.311,9.688A17.2,17.2,0,0,0-1315.945,144.641Zm-44.544-9.566c-4.117-3.529-4.333-7.138-4.219-8.591a2.843,2.843,0,0,0,.267-.534,1.817,1.817,0,0,0,.121-.416l.005-.026a1.1,1.1,0,0,0,.03-.255V125.2a1.257,1.257,0,0,0-.037-.389l0-.016a1.187,1.187,0,0,0-.551-.724,1.17,1.17,0,0,0-.9-.121,1.184,1.184,0,0,0-.887,1.156.437.437,0,0,1-.068.12l-.021.03a2.379,2.379,0,0,1-.374.454,7.844,7.844,0,0,1-1.16.928c-.446.311-.937.592-1.365.832a2.946,2.946,0,0,1-.334.153c-.082.035-.167.069-.257.113-.094.025-.191.044-.292.063s-.18.034-.271.057a2.584,2.584,0,0,1-2.03-.929,5.218,5.218,0,0,1-1.2-2.474,7.854,7.854,0,0,1,1.068-5.66,2.958,2.958,0,0,1,1.859-1.458l.022,0a3.372,3.372,0,0,1,2.324.583l.156.106a1.179,1.179,0,0,0,1.534-.22,1.161,1.161,0,0,0,.258-.974c15.671-.471,20.486.588,21.75,1.009a6.466,6.466,0,0,0,6.4,5.778,6.38,6.38,0,0,0,3.714-1.186,2.169,2.169,0,0,0,.347,2c.912,1.185,2.867,1.364,3.952,1.364a11.218,11.218,0,0,0,1.7-.13c1.967-.3,3.307-1.116,3.68-2.237a2.043,2.043,0,0,0-.587-2.164,1,1,0,0,0-.715-.305.976.976,0,0,0-.7.285,1,1,0,0,0-.017,1.416.5.5,0,0,1,.112.145c-.065.167-.654.663-2.075.877-2.077.32-3.478-.094-3.769-.474-.021-.027-.071-.091.032-.331a12.463,12.463,0,0,0,.9-6.565,9.14,9.14,0,0,1,.988-.143c.7,2.507,2.936,4.052,5.889,4.052,3.687,0,6.687-2.74,6.687-6.107a5.77,5.77,0,0,0-.679-2.794c3.717-2.194,15.371-8.742,25.072-10.733-.01.126-.019.254-.022.383a11.057,11.057,0,0,0,.152,2.174,1,1,0,0,0,1.093.828,1,1,0,0,0,.891-1.1l-.009-.049a6.493,6.493,0,0,1,.419-3.226,1.686,1.686,0,0,1,.783-.858,2.157,2.157,0,0,1,1.174-.131c.086.012.165.02.247.028a2.554,2.554,0,0,1,.481.082,3.527,3.527,0,0,0,.384.084,2.263,2.263,0,0,1,.363.086l.028.01a2.558,2.558,0,0,1,1.1.632,4.561,4.561,0,0,1,1.292,2.6c.021.138.04.279.053.428a6.39,6.39,0,0,1-.068,2.078,6.159,6.159,0,0,1-1.752,3.46c-1.385,1.355-3.712,1.734-6.226,1.015a1,1,0,0,0-1.183.556,1,1,0,0,0,.506,1.324l.011.011.054.019a10.5,10.5,0,0,0,3.8.688c-.929,5.31-4.276,11.59-9,16.87a42.423,42.423,0,0,1-20.806,12.926,9.407,9.407,0,0,0-2.463.548,64.519,64.519,0,0,1-13.01,1.425C-1345.728,143.466-1353.985,140.661-1360.489,135.075Zm24.8-5.906a.861.861,0,0,0,.235,1.174,11.15,11.15,0,0,0,4.33,1.718,10.746,10.746,0,0,0,1.877.16,11.473,11.473,0,0,0,2.839-.36,11.3,11.3,0,0,0,4.211-2.073l.454-.342a5.28,5.28,0,0,0,.427-.4c.288-.264.555-.524.824-.8.4-.437.753-.906,1.1-1.362q.154-.2.31-.4a.862.862,0,0,0,.171-.624.864.864,0,0,0-.958-.757,5.908,5.908,0,0,0-3.089-.285c-.473.023-.964.049-1.45.053-1.934.017-3.134,3.116-3.38,4.865a11.945,11.945,0,0,1-3.01.057,16.6,16.6,0,0,1-3.826-.92l-.058-.022a.842.842,0,0,0-.3-.057A.848.848,0,0,0-1335.687,129.169Zm-19.431-4.957a6.209,6.209,0,0,0-1.725.494,6.373,6.373,0,0,0-1.476.9,4.853,4.853,0,0,0-1.184,1.3,1.156,1.156,0,0,0-.147.884,1.159,1.159,0,0,0,1.394.862l.1-.022a7.118,7.118,0,0,0,1.42-.531c.4-.193.809-.406,1.256-.654l2.346-1.359.089-.053a.936.936,0,0,0,.39-.45l0-.009h0a.908.908,0,0,0-.522-1.173,3.934,3.934,0,0,0-1.334-.233A3.955,3.955,0,0,0-1355.118,124.212Zm-15.33-1.055a3.217,3.217,0,0,0,.567.681l.01.008a1.4,1.4,0,0,0,.58.3,1.087,1.087,0,0,0,.661-.058.587.587,0,0,0,.3-.775l-.011-.023a.677.677,0,0,0-.6-.4l-.128,0-.011-.009a2.228,2.228,0,0,1-.235-.373c-.124-.227-.237-.472-.356-.73-.069-.149-.139-.3-.214-.449l-.21-.421s-.009-.015-.046-.072a.632.632,0,0,0-.1-.124.979.979,0,0,0-.2-.169.819.819,0,0,0-.606-.107.787.787,0,0,0-.3.147.945.945,0,0,0-.173.171l-.024.032a2.658,2.658,0,0,0-.3.607c-.016.044-.033.089-.054.136l-.077.214c-.52,1.927.114,2.8,1.024,1.944a4.22,4.22,0,0,0,.394-.694C-1370.52,123.045-1370.485,123.1-1370.448,123.157Zm67.1-14.153a6.016,6.016,0,0,0-1.471.634,5.542,5.542,0,0,0-1.231.967,3.864,3.864,0,0,0-.85,1.373,1.075,1.075,0,0,0-.04.593,1.1,1.1,0,0,0,1.3.825l.094-.022a4.892,4.892,0,0,0,1.309-.553l.011-.005a11.8,11.8,0,0,0,1.05-.748c.188-.149.371-.3.552-.451.134-.112.267-.221.406-.333l.936-.8.074-.059.014-.012a.91.91,0,0,0,.278-.484l0,0a.839.839,0,0,0-.122-.649.856.856,0,0,0-.559-.38,3.7,3.7,0,0,0-.669-.061A3.751,3.751,0,0,0-1303.349,109Zm13.284-7.574a.822.822,0,0,0-.427.443,1,1,0,0,0-.065.255.654.654,0,0,0-.005.157c0,.067,0,.083,0,.085l.076.465c.029.165.06.329.091.489.053.28.1.545.137.8a2.182,2.182,0,0,1,.026.439.017.017,0,0,0,0,.013l-.107.072a.679.679,0,0,0-.252.68l.005.025a.587.587,0,0,0,.695.454,1.08,1.08,0,0,0,.57-.338,1.4,1.4,0,0,0,.3-.58l0-.012a3.113,3.113,0,0,0,.062-.885c0-.067-.005-.132-.011-.2.088.083.172.163.251.241a.481.481,0,0,0,.06.053l.014.011a.786.786,0,0,0,.255.138c1.237.159-.13-2.232-.157-2.285q-.093-.066-.189-.13c-.043-.027-.084-.054-.122-.08a2.664,2.664,0,0,0-.6-.318l-.039-.011a.877.877,0,0,0-.241-.039h-.036A.8.8,0,0,0-1290.065,101.43Zm-49.749,20.3a4.689,4.689,0,0,1-3.544-4.553c0-2.65,2.7-4.3,5.209-4.3a3.863,3.863,0,0,1,3.992,2.961c.007.022.007.054.015.081.007.008.014.015.014.022.013.053.024.106.035.16v.005a.036.036,0,0,0,0,.017,5.237,5.237,0,0,1,.117,1.052,2.061,2.061,0,0,1-.015.222.454.454,0,0,0-.207-.077c.022-.059-.119-.156-.193-.23l-.266-.245c-.186-.148-.374-.3-.571-.453s-.393-.283-.594-.416c-.037-.022-.149-.074-.245-.125a2.693,2.693,0,0,0-.3-.127,2.286,2.286,0,0,0-1.976.32,2.658,2.658,0,0,0-.727.779,3.16,3.16,0,0,0-.526,1.736.518.518,0,0,0,.1.327.515.515,0,0,0,.722.1l.006-.005.074-.059c.393-.3.748-.642,1.061-.855a2.257,2.257,0,0,1,.409-.23c.1-.022.149-.037.164-.022a.463.463,0,0,1,.207.054,5.2,5.2,0,0,0,.757.289,4.875,4.875,0,0,0,.816.178c.148.015.29.03.445.037.171,0,.275-.015.542-.037a.4.4,0,0,0,.164-.015,4.692,4.692,0,0,1-4.545,3.546A4.7,4.7,0,0,1-1339.815,121.728Zm10.435-5.926a.46.46,0,0,0,.588.132l.053-.028c.46-.253.846-.55,1.209-.764a2.85,2.85,0,0,1,.861-.417c.044.008.067,0,.074.008h.008c.007,0,.007,0,.014-.008s.054.008.112.03a1.6,1.6,0,0,0,.171.059,3.019,3.019,0,0,0,.69.148,1.721,1.721,0,0,0,.34.015.352.352,0,0,0,.156-.03c.023-.008.037-.023.045-.059v-.112a.5.5,0,0,1,.007-.141.366.366,0,0,1,.089-.194.459.459,0,0,0,.12.637.459.459,0,0,0,.526-.005.525.525,0,0,0,.222-.349.657.657,0,0,0,0-.179.669.669,0,0,0-.037-.192,1.178,1.178,0,0,0-.067-.213,2.5,2.5,0,0,0-.119-.283,2.524,2.524,0,0,0-.244-.422,2.9,2.9,0,0,0-.564-.631c-.054-.044-.1-.089-.156-.126a.759.759,0,0,0-.213-.141,2.133,2.133,0,0,0-.676-.238,2.4,2.4,0,0,0-1.373.171,3.191,3.191,0,0,0-1.454,1.389,3.755,3.755,0,0,0-.474,1.625,4.769,4.769,0,0,1-.12-1.047,4.554,4.554,0,0,1,4.847-4.319c2.716,0,4.474,1.562,4.474,3.988a4.689,4.689,0,0,1-4.943,4.364C-1327.373,118.472-1328.865,117.471-1329.379,115.8Zm-38.979-.929a7.952,7.952,0,0,1-1.141-2.151l-.208-.5-.142-.491c-.031-.131-.069-.259-.107-.383a5.421,5.421,0,0,1-.16-.632l-.171-1.064a6.166,6.166,0,0,1-.063-.681c-.006-.123-.013-.245-.022-.36a18.372,18.372,0,0,1,.28-4.216,15.275,15.275,0,0,1,.453-1.963c.058-.208.116-.416.17-.624l25.3-27.609a1.187,1.187,0,0,0,.024-1.578v-.016l-.082-.077c-.562-.522-1.111-1.022-1.75-1.6a33.845,33.845,0,0,1,12.955-4.183l.031-.006a7.759,7.759,0,0,0,.009,1.055,1.215,1.215,0,0,0,.115.411,1.211,1.211,0,0,0,1.616.565,1.2,1.2,0,0,0,.6-.682l.021-.049c.168-.518.285-1.036.4-1.538l.771.024a5.129,5.129,0,0,0,.248,1.388,1.208,1.208,0,0,0,1,.824,1.184,1.184,0,0,0,.139.008,1.182,1.182,0,0,0,.74-.26,1.2,1.2,0,0,0,.448-.815l.12-1.06.461.014a7.536,7.536,0,0,0-.029,1.772,1.5,1.5,0,0,0,1.487,1.324c.028,0,.056,0,.085,0a1.5,1.5,0,0,0,1.418-1.571v-.1c-.013-.246-.048-.491-.081-.73-.031-.207-.057-.407-.073-.607l1.207.039a1.344,1.344,0,0,0,.17.005,30.618,30.618,0,0,1,8.289,1.149,27.086,27.086,0,0,1,14.439,9.31A36.287,36.287,0,0,1-1292.57,90.8a17.805,17.805,0,0,1,.535,5.665v.007c-.046.025-.091.051-.134.079l-.538.442-.026.024a4.593,4.593,0,0,0-.287.361c-.041.053-.081.107-.123.16a2.592,2.592,0,0,0-.336.546l-.01.02a3.386,3.386,0,0,0-.171.348c-10.742,1.928-23.888,9.526-26.833,11.288a6.614,6.614,0,0,0-4.256-1.373,6.3,6.3,0,0,0-6.584,5.8,10.369,10.369,0,0,0-1.457.238,5.623,5.623,0,0,0-5.361-3.277c-2.745,0-5.991,1.636-6.774,4.678C-1347.211,115.194-1353.185,114.345-1368.358,114.873Zm25.215-7.58-.01,0a5.556,5.556,0,0,0-1.175.642,5.878,5.878,0,0,0-1.744,1.884,1.1,1.1,0,0,0-.079.823l0,.009a1.067,1.067,0,0,0,1.327.72l.05-.011a7.562,7.562,0,0,0,2.083-1.085,7.02,7.02,0,0,0,.875-.682,2.707,2.707,0,0,0,.679-.766l.279-.588a.825.825,0,0,0,.071-.241l.005,0a.834.834,0,0,0-.729-.926,3.174,3.174,0,0,0-.409-.026A3.17,3.17,0,0,0-1343.143,107.294Zm17.983-3.74a4.482,4.482,0,0,0-1.353.521,1.183,1.183,0,0,0-.451.485,1.186,1.186,0,0,0,.526,1.594l.073.033a5.108,5.108,0,0,0,1.256.4,8.266,8.266,0,0,0,1.208.17c.21.012.427.022.644.022a4.84,4.84,0,0,0,.5-.024,3.022,3.022,0,0,0,1.064-.229l.551-.247a1.01,1.01,0,0,0,.293-.2h0a1.086,1.086,0,0,0,.342-.768,1.074,1.074,0,0,0-.294-.778,3.3,3.3,0,0,0-1.53-.917,4.683,4.683,0,0,0-1.442-.213h-.07A5.925,5.925,0,0,0-1325.16,103.554Zm-50.425-13.018c3.316-2.805,17.594-15.057,22.7-22.2.669.477,1.334.982,1.978,1.507,1.282,1.034,2.652,2.223,4.182,3.628l-23,25.1Zm-1.873-2.563a1.171,1.171,0,0,0-1.105-.483l-.048.009a26.072,26.072,0,0,1-3.837.293c-.265,0-.538-.008-.775-.014a15.284,15.284,0,0,1-4.408-.832,8.736,8.736,0,0,1-2.99-1.742,4.672,4.672,0,0,1-.529-.53,6.988,6.988,0,0,1-1.5-3.062c-.058-.257-.1-.47-.122-.673l0-.023a7.556,7.556,0,0,1-.107-1.656v-.493c.009-.219.039-.437.07-.669.019-.143.039-.291.053-.438.02-.128.034-.257.049-.381a3.557,3.557,0,0,1,.12-.687l.008-.031a8.4,8.4,0,0,1,1.717-3.786,6.267,6.267,0,0,1,3.347-2.026l.08-.015.061-.012h.013a9.2,9.2,0,0,1,1.947-.211,9.969,9.969,0,0,1,1.822.16l.027,0a1.38,1.38,0,0,1,.16.026l.068.013a1.444,1.444,0,0,0,1-.145,1.449,1.449,0,0,0,.576-1.966l-.03-.053-.02-.031a1.249,1.249,0,0,1-.126-.2,4.563,4.563,0,0,1-.365-.964,8.491,8.491,0,0,1-.258-1.48,8.736,8.736,0,0,1,.058-1.94,10.2,10.2,0,0,1,.218-1.152,10.859,10.859,0,0,1,1.182-2.929,13.942,13.942,0,0,1,1.96-2.557,6.773,6.773,0,0,1,5.2-2.109h.033a1.309,1.309,0,0,1,.214.008,11.855,11.855,0,0,1,3.076.632l.061.022c.19.064.387.13.571.213l.014.005a22.094,22.094,0,0,1,2.157.986,1.3,1.3,0,0,0,.578.674l.008,0a1.315,1.315,0,0,0,1.789-.509,1.293,1.293,0,0,0,.114-1l-.177-.63a2.587,2.587,0,0,1-.016-.845v-.013a5.813,5.813,0,0,1,.177-.971,5.628,5.628,0,0,1,.437-1.121,5.109,5.109,0,0,1,.4-.683,7.449,7.449,0,0,1,3.208-2.552,12.381,12.381,0,0,1,4.264-1.055c.132-.006.264-.006.4,0h.018a5.134,5.134,0,0,1,3.311,1.066,5.543,5.543,0,0,1,1.849,3.44,5.5,5.5,0,0,1,.081.633c.014.145.027.3.048.442l0,.214c.007.292.014.6,0,.871a9.761,9.761,0,0,1-.347,2.142,16.2,16.2,0,0,1-5.013,7.467l-.16.14.937,1.635a.284.284,0,0,0-.008.077c0,.067.031.228.267.261a.576.576,0,0,1,.16.037l.041.016a3.809,3.809,0,0,1,.571.245c-4.907,6.8-18.8,18.761-22.109,21.569Zm6.708-20.758-.018,0a3.671,3.671,0,0,0-1.526.845,6.285,6.285,0,0,0-.89,1.027l-.007.011a10.033,10.033,0,0,0-1.068,2.146,1.468,1.468,0,0,0,.795,1.855,1.466,1.466,0,0,0,1.929-.763l.025-.065a7.4,7.4,0,0,1,.815-1.4,2.149,2.149,0,0,1,.611-.581h.171c.14,0,.33,0,.494.011.3.007.7.011,1.156-.023a4.549,4.549,0,0,0,2.786-1.1,4.767,4.767,0,0,0,.938-1.162,4.449,4.449,0,0,0,.31-.6l.194-.409a1.761,1.761,0,0,1,.694-.8,1.478,1.478,0,0,1,1.774.237l.046.045a1.57,1.57,0,0,0,2.161-.044,1.573,1.573,0,0,0,.01-2.225A4.762,4.762,0,0,0-1362,62.858a4.535,4.535,0,0,0-2.974.58,5,5,0,0,0-1.961,2.15l-.232.5a2.211,2.211,0,0,1-.147.287l-.005.01a1.433,1.433,0,0,1-.305.381,1.493,1.493,0,0,1-.908.333c-.229.019-.5.029-.865.029-.09,0-.174,0-.263,0q-.093,0-.186,0A4.625,4.625,0,0,0-1370.75,67.216Zm48.46-.46a.413.413,0,0,1-.066-.009l.235.013Zm50.831-13.4c-.018-.338-.03-.684-.03-1.028a1.21,1.21,0,0,1,.789-1.433,1.118,1.118,0,0,1,.232-.078,1.307,1.307,0,0,1,.283.042,2.432,2.432,0,0,1,.312.28c.086.1.172.222.172.2.031.1.058.319.07.329a1.276,1.276,0,0,1-.081.169c-.075.14-.162.277-.181.317a1.84,1.84,0,0,1-.148.141c-.13.114-.282.24-.442.372-.127.106-.239.2-.314.266l-.655.6C-1271.453,53.473-1271.455,53.414-1271.46,53.357Zm-29.313-24.1c.735-1.126,1.426-1.321,1.622-1.238.323.142.586.8.227,2.053Zm-49.9-6.789a.376.376,0,0,1,.094-.011c.352,0,.892.4,1.318,1.517l-1.968.456C-1351.311,23.086-1350.874,22.512-1350.671,22.466Z" transform="translate(1452.5 12.5)" fill="#fff" stroke="rgba(0,0,0,0)" stroke-miterlimit="10" stroke-width="1"/>
  </g>
</svg>
