<svg xmlns="http://www.w3.org/2000/svg" width="16.123" height="16.113" viewBox="0 0 16.123 16.113">
  <path id="_" data-name="✹" d="M4.922-14.16,8-10.5l.879-4.7h.088l.84,4.678,3.076-3.643.059.039L11.338-9.6l4.5-1.621.039.059L12.217-8.037l4.727.84v.078l-4.668.859L15.9-3.184l-.039.068-4.521-1.6L12.979-.2,12.9-.156,9.8-3.74,8.965.918H8.877L8-3.838,4.863-.156,4.8-.2,6.4-4.7,1.9-3.1l-.049-.068L5.5-6.24.82-7.119V-7.2l4.736-.84L1.924-11.182l.02-.059,4.473,1.6L4.863-14.121Z" transform="translate(-0.82 15.195)" fill="#1a1a1a"/>
</svg>
