<svg id="Group_1060" data-name="Group 1060" xmlns="http://www.w3.org/2000/svg" width="18.819" height="14.049" viewBox="0 0 18.819 14.049">
  <g id="Group_527" data-name="Group 527">
    <path id="Path_4678" data-name="Path 4678" d="M166.674,121.307h-.012a40.961,40.961,0,0,1-6.666-.387,3,3,0,0,1-1.99-1.57,13.477,13.477,0,0,1-.748-5.067,13.491,13.491,0,0,1,.748-5.068A3.005,3.005,0,0,1,160,107.645a41.127,41.127,0,0,1,6.666-.387,41.166,41.166,0,0,1,6.676.387,3,3,0,0,1,1.99,1.569,13.468,13.468,0,0,1,.75,5.068,13.463,13.463,0,0,1-.75,5.068,3,3,0,0,1-1.989,1.569A40.956,40.956,0,0,1,166.674,121.307Zm0-13.152a41.408,41.408,0,0,0-6.515.372,2.112,2.112,0,0,0-1.333,1.052,16.815,16.815,0,0,0,0,9.408,2.109,2.109,0,0,0,1.333,1.052,41.272,41.272,0,0,0,6.5.372h.012a41.1,41.1,0,0,0,6.5-.372,2.109,2.109,0,0,0,1.334-1.052,16.794,16.794,0,0,0,0-9.408,2.111,2.111,0,0,0-1.334-1.051A41.234,41.234,0,0,0,166.674,108.155Z" transform="translate(-157.258 -107.258)" fill="#f30a00"/>
  </g>
  <path id="Path_4679" data-name="Path 4679" d="M169.706,120.133a.448.448,0,0,1-.448-.448v-5.978a.448.448,0,0,1,.684-.381l4.791,2.962a.449.449,0,0,1,0,.761l-4.791,3.016A.449.449,0,0,1,169.706,120.133Zm.448-5.622v4.361l3.495-2.2Z" transform="translate(-162.084 -109.671)" fill="#f30a00"/>
</svg>
